<svg width="30" height="26" viewBox="0 0 30 26" version="1.1" xmlns="http://www.w3.org/2000/svg" xmlns:xlink="http://www.w3.org/1999/xlink">
<title>cart</title>
<desc>Created using Figma</desc>
<g id="Canvas" transform="translate(-3254 1243)">
<g id="cart">
<g id="Group">
<g id="Vector">
<use xlink:href="#path0_fill" transform="translate(3254 -1243)" fill="#FFFFFF"/>
</g>
</g>
</g>
</g>
<defs>
<path id="path0_fill" d="M 1.00035 -5.19247e-06C 0.447859 -5.19247e-06 1.85063e-08 0.436519 1.85063e-08 0.974995C 1.85063e-08 1.51347 0.447859 1.94999 1.00035 1.94999L 4.18899 1.94999L 7.6277 17.7633C 7.76375 18.3585 8.16403 18.854 8.66974 18.85L 25.3423 18.85C 25.8708 18.8571 26.3569 18.3902 26.3569 17.875C 26.3569 17.3598 25.8708 16.8927 25.3423 16.9L 9.48253 16.9L 9.05528 14.95L 26.6761 14.95C 27.124 14.9467 27.5472 14.6142 27.6452 14.1883L 29.9794 4.4383C 30.1094 3.87244 29.6052 3.25415 29.0103 3.24999L 6.52315 3.24999L 5.98129 0.77187C 5.88662 0.338937 5.45593 -0.000460192 5.00177 -5.19247e-06L 1.00035 -5.19247e-06ZM 6.93996 5.19999L 12.1501 5.19999L 12.6503 8.125L 7.57562 8.125L 6.93996 5.19999ZM 14.1925 5.19999L 20.4864 5.19999L 19.9863 8.125L 14.6927 8.125L 14.1925 5.19999ZM 22.5288 5.19999L 27.7494 5.19999L 27.0513 8.125L 22.0286 8.125L 22.5288 5.19999ZM 8.00284 10.075L 12.9838 10.075L 13.4839 13L 8.63846 13L 8.00284 10.075ZM 15.0262 10.075L 19.6528 10.075L 19.1526 13L 15.5263 13L 15.0262 10.075ZM 21.6952 10.075L 26.5824 10.075L 25.8842 13L 21.195 13L 21.6952 10.075ZM 12.3377 19.5C 10.508 19.5 9.00319 20.9666 9.00319 22.75C 9.00319 24.5334 10.508 26 12.3377 26C 14.1675 26 15.6722 24.5334 15.6722 22.75C 15.6722 20.9666 14.1675 19.5 12.3377 19.5ZM 21.6744 19.5C 19.8446 19.5 18.3398 20.9666 18.3398 22.75C 18.3398 24.5334 19.8446 26 21.6744 26C 23.5041 26 25.0089 24.5334 25.0089 22.75C 25.0089 20.9666 23.5041 19.5 21.6744 19.5ZM 12.3377 21.45C 13.0862 21.45 13.6715 22.0205 13.6715 22.75C 13.6715 23.4795 13.0862 24.05 12.3377 24.05C 11.5893 24.05 11.0039 23.4795 11.0039 22.75C 11.0039 22.0205 11.5893 21.45 12.3377 21.45ZM 21.6744 21.45C 22.4229 21.45 23.0082 22.0205 23.0082 22.75C 23.0082 23.4795 22.4229 24.05 21.6744 24.05C 20.9259 24.05 20.3405 23.4795 20.3405 22.75C 20.3405 22.0205 20.9259 21.45 21.6744 21.45Z"/>
</defs>
</svg>
