<svg width="40" height="44" viewBox="0 0 40 44" version="1.1" xmlns="http://www.w3.org/2000/svg" xmlns:xlink="http://www.w3.org/1999/xlink">
<title>Google+</title>
<desc>Created using Figma</desc>
<g id="Canvas" transform="translate(-3044 -1404)">
<g id="Google+">
<g id="Rectangle">
<mask id="mask0_outline_ins">
<use xlink:href="#path0_fill" fill="white" transform="translate(3044 1404.76)"/>
</mask>
<g mask="url(#mask0_outline_ins)">
<use xlink:href="#path1_stroke_2x" transform="translate(3044 1404.76)" fill="#333333"/>
</g>
</g>
<g id="Icon">
<g id="Vector">
<use xlink:href="#path2_fill" transform="translate(3054 1415.36)" fill="#333333"/>
</g>
<g id="Vector">
<use xlink:href="#path3_fill" transform="translate(3066.31 1415.36)" fill="#333333"/>
</g>
</g>
</g>
</g>
<defs>
<path id="path0_fill" d="M 0 5C 0 2.23858 2.23858 0 5 0L 35 0C 37.7614 0 40 2.23858 40 5L 40 37.3969C 40 40.1583 37.7614 42.3969 35 42.3969L 5 42.3969C 2.23858 42.3969 0 40.1583 0 37.3969L 0 5Z"/>
<path id="path1_stroke_2x" d="M 5 1L 35 1L 35 -1L 5 -1L 5 1ZM 39 5L 39 37.3969L 41 37.3969L 41 5L 39 5ZM 35 41.3969L 5 41.3969L 5 43.3969L 35 43.3969L 35 41.3969ZM 1 37.3969L 1 5L -1 5L -1 37.3969L 1 37.3969ZM 5 41.3969C 2.79086 41.3969 1 39.606 1 37.3969L -1 37.3969C -1 40.7106 1.68629 43.3969 5 43.3969L 5 41.3969ZM 39 37.3969C 39 39.606 37.2091 41.3969 35 41.3969L 35 43.3969C 38.3137 43.3969 41 40.7106 41 37.3969L 39 37.3969ZM 35 1C 37.2091 1 39 2.79086 39 5L 41 5C 41 1.68629 38.3137 -1 35 -1L 35 1ZM 5 -1C 1.68629 -1 -1 1.68629 -1 5L 1 5C 1 2.79086 2.79086 1 5 1L 5 -1Z"/>
<path id="path2_fill" d="M 11.5083 13.4974C 11.296 13.1957 11.0617 12.9153 10.8052 12.6567C 10.5488 12.3977 10.2923 12.1619 10.036 11.9497C 9.77955 11.7374 9.54518 11.5334 9.33288 11.338C 9.12062 11.1428 8.9483 10.9388 8.81611 10.7266C 8.68392 10.5143 8.61779 10.2978 8.61779 10.077C 8.61779 9.77115 8.70998 9.48456 8.89425 9.21702C 9.07852 8.94948 9.3029 8.69055 9.56724 8.43987C 9.83162 8.18924 10.096 7.91546 10.3606 7.6182C 10.6248 7.32081 10.8491 6.92816 11.0335 6.4397C 11.2176 5.95139 11.3098 5.39301 11.3098 4.76459C 11.3098 4.01721 11.1535 3.2995 10.841 2.61168C 10.5285 1.92374 10.0878 1.38857 9.51887 1.00644L 11.1414 1.00644L 12.764 0L 7.51176 0C 6.76665 0 6.01733 0.0850453 5.26435 0.255225C 4.15071 0.518482 3.21316 1.11942 2.45189 2.05773C 1.69074 2.99622 1.31008 4.05995 1.31008 5.24894C 1.31008 6.50592 1.73688 7.55056 2.59014 8.38272C 3.44344 9.21483 4.46712 9.63109 5.66105 9.63109C 5.90143 9.63109 6.18185 9.60976 6.5024 9.56742C 6.48636 9.63528 6.45849 9.72657 6.41832 9.8412C 6.37816 9.95583 6.34613 10.0473 6.32209 10.1152C 6.29809 10.183 6.27801 10.2658 6.2621 10.3635C 6.24601 10.4612 6.23806 10.5611 6.23806 10.6629C 6.23806 11.2235 6.49427 11.8562 7.00725 12.5611C 6.39829 12.5784 5.79745 12.6356 5.20436 12.7333C 4.61144 12.831 3.99052 12.9839 3.34139 13.192C 2.69236 13.4 2.11139 13.7016 1.59867 14.0965C 1.08582 14.4915 0.701243 14.9606 0.444818 15.5042C 0.148315 16.1327 -9.40985e-12 16.7059 -9.40985e-12 17.224C -9.40985e-12 17.7929 0.120277 18.3089 0.360578 18.7718C 0.600879 19.2345 0.909338 19.6126 1.286 19.9055C 1.66257 20.1986 2.09737 20.4446 2.59014 20.6445C 3.08287 20.8439 3.57168 20.9862 4.0564 21.0711C 4.54122 21.156 5.01997 21.1985 5.49278 21.1985C 7.64012 21.1985 9.32299 20.6423 10.5408 19.5298C 11.6627 18.4936 12.2236 17.296 12.2236 15.9372C 12.2236 15.4528 12.1575 15.0009 12.0252 14.5803C 11.893 14.1595 11.7208 13.7988 11.5083 13.4974ZM 6.8748 8.86693C 6.46615 8.86693 6.07758 8.7565 5.70892 8.53558C 5.34025 8.31472 5.02775 8.02808 4.77137 7.67563C 4.51507 7.32322 4.29068 6.92619 4.09833 6.4845C 3.90607 6.04294 3.7639 5.60139 3.67166 5.15965C 3.57946 4.71814 3.53341 4.29769 3.53341 3.89847C 3.53341 3.08323 3.73776 2.38256 4.14645 1.79653C 4.55502 1.21049 5.13203 0.917472 5.87723 0.917472C 6.40612 0.917472 6.88487 1.09144 7.31356 1.4397C 7.74225 1.78791 8.07879 2.22952 8.32326 2.76455C 8.56752 3.29959 8.75591 3.85359 8.8881 4.42695C 9.02029 5.00018 9.08643 5.54169 9.08643 6.05124C 9.08643 6.90063 8.91218 7.58246 8.5636 8.0963C 8.21494 8.61001 7.65212 8.86693 6.8748 8.86693ZM 10.1981 18.4335C 9.97792 18.8328 9.67948 19.1447 9.30278 19.3696C 8.92616 19.5949 8.52357 19.7604 8.09483 19.8667C 7.66614 19.9731 7.21543 20.0261 6.74261 20.0261C 6.22976 20.0261 5.72087 19.9622 5.21619 19.8349C 4.71142 19.7077 4.22859 19.5142 3.76786 19.2553C 3.30713 18.9965 2.93451 18.6396 2.65009 18.1852C 2.36563 17.7308 2.22342 17.215 2.22342 16.6373C 2.22342 16.1278 2.33153 15.6735 2.54791 15.2742C 2.76439 14.8751 3.04085 14.5565 3.37735 14.319C 3.71389 14.0811 4.10646 13.8856 4.55523 13.7331C 5.00401 13.5799 5.43666 13.4739 5.85327 13.4145C 6.26984 13.355 6.69462 13.3255 7.12727 13.3255C 7.39178 13.3255 7.59217 13.334 7.72832 13.3508C 7.77644 13.385 7.89852 13.4739 8.09492 13.6184C 8.29131 13.7628 8.42346 13.8605 8.49162 13.9115C 8.5596 13.9622 8.68388 14.0599 8.86419 14.2043C 9.04442 14.3488 9.17265 14.4569 9.24876 14.5291C 9.32467 14.6013 9.43489 14.7096 9.5792 14.8539C 9.72335 14.9984 9.8296 15.1236 9.89772 15.2297C 9.96571 15.3358 10.05 15.4653 10.1501 15.618C 10.2503 15.7712 10.3204 15.9176 10.3606 16.0577C 10.4005 16.1979 10.4386 16.3507 10.4745 16.5163C 10.5105 16.6823 10.5285 16.854 10.5285 17.0325C 10.5287 17.5674 10.4185 18.0345 10.1981 18.4335Z"/>
<path id="path3_fill" d="M 4.61573 3.26121L 4.61573 0L 3.07706 0L 3.07706 3.26121L 7.19465e-08 3.26121L 7.19465e-08 4.89193L 3.07706 4.89193L 3.07706 8.15315L 4.61573 8.15315L 4.61573 4.89193L 7.69245 4.89193L 7.69245 3.26121L 4.61573 3.26121Z"/>
</defs>
</svg>
