<svg width="20" height="20" viewBox="0 0 20 20" version="1.1" xmlns="http://www.w3.org/2000/svg" xmlns:xlink="http://www.w3.org/1999/xlink">
<title>Group</title>
<desc>Created using Figma</desc>
<g id="Canvas" transform="translate(-3015 1238)">
<g id="Group">
<g id="Group">
<g id="Group">
<g id="Vector">
<use xlink:href="#path0_fill" transform="translate(3020.42 -1231.22)" fill="#EB5757"/>
</g>
<g id="Vector">
<use xlink:href="#path1_fill" transform="translate(3027.65 -1227.53)" fill="#EB5757"/>
</g>
<g id="Vector">
<use xlink:href="#path2_fill" transform="translate(3015 -1238)" fill="#EB5757"/>
</g>
</g>
</g>
</g>
</g>
<defs>
<path id="path0_fill" d="M 0.968676 1.60958e-07C 0.652804 1.60958e-07 0.421163 0.126583 0.252698 0.35865C 0.0842327 0.611815 -1.60661e-07 0.949367 -1.60661e-07 1.37131C -1.60661e-07 1.79325 0.0842327 2.1308 0.252698 2.38397C 0.421163 2.63713 0.673862 2.74262 0.968676 2.74262C 1.28455 2.74262 1.51619 2.61603 1.68465 2.38397C 1.85312 2.1308 1.93735 1.79325 1.93735 1.37131C 1.93735 0.949367 1.85312 0.611815 1.68465 0.35865C 1.51619 0.126583 1.26349 1.60958e-07 0.968676 1.60958e-07Z"/>
<path id="path1_fill" d="M 0.968675 1.60958e-07C 0.652803 1.60958e-07 0.421163 0.126583 0.252698 0.35865C 0.0842325 0.611815 -3.21322e-07 0.949367 -3.21322e-07 1.37131C -3.21322e-07 1.79325 0.0842325 2.1308 0.252698 2.38397C 0.421163 2.63713 0.673861 2.74262 0.968675 2.74262C 1.28455 2.74262 1.51619 2.61603 1.68465 2.38397C 1.85312 2.1308 1.93735 1.79325 1.93735 1.37131C 1.93735 0.949367 1.85312 0.611815 1.68465 0.35865C 1.51619 0.126583 1.26349 1.60958e-07 0.968675 1.60958e-07Z"/>
<path id="path2_fill" d="M 19.6999 9.41983L 18.8365 8.74473C 18.5417 8.51266 18.4575 8.11181 18.647 7.79536L 19.1945 6.82489C 19.4262 6.40295 19.2156 5.87553 18.7523 5.74894L 17.6994 5.45359C 17.3414 5.3481 17.1098 5.01055 17.1519 4.6519L 17.2782 3.55485C 17.3414 3.06962 16.9202 2.66878 16.457 2.73207L 15.3619 2.83755C 15.0039 2.87975 14.646 2.64768 14.5617 2.28903L 14.2669 1.23418C 14.1406 0.770042 13.6141 0.537975 13.1929 0.791139L 12.2243 1.33966C 11.8873 1.50844 11.4872 1.44515 11.2556 1.14979L 10.5817 0.28481C 10.2869 -0.0949367 9.69729 -0.0949367 9.40247 0.28481L 8.72861 1.14979C 8.49697 1.44515 8.09687 1.52954 7.781 1.33966L 6.81232 0.791139C 6.39116 0.559072 5.8647 0.770042 5.73835 1.23418L 5.44354 2.28903C 5.33825 2.64768 5.00132 2.87975 4.64333 2.83755L 3.5483 2.71097C 3.06396 2.64768 2.66386 3.06962 2.72703 3.53376L 2.85338 4.6308C 2.8955 4.98945 2.66386 5.3481 2.30587 5.43249L 1.25296 5.72785C 0.789681 5.85443 0.558042 6.38186 0.81074 6.8038L 1.35825 7.77426C 1.50566 8.11181 1.44248 8.51266 1.14767 8.74473L 0.284285 9.41983C -0.0947617 9.71519 -0.0947617 10.3059 0.284285 10.6013L 1.14767 11.2764C 1.44248 11.5084 1.52672 11.9093 1.33719 12.2257L 0.789682 13.1962C 0.558042 13.6181 0.768623 14.1456 1.2319 14.2722L 2.28481 14.5675C 2.6428 14.673 2.87444 15.0105 2.83232 15.3692L 2.70598 16.4662C 2.6428 16.9515 3.06396 17.3523 3.52724 17.289L 4.62227 17.1624C 4.98026 17.1203 5.33825 17.3523 5.42248 17.711L 5.71729 18.7658C 5.84364 19.23 6.3701 19.462 6.79126 19.2089L 7.75994 18.6603C 8.07581 18.4705 8.47591 18.5549 8.70755 18.8502L 9.38142 19.7152C 9.67623 20.0949 10.2659 20.0949 10.5607 19.7152L 11.2556 18.8713C 11.4872 18.5759 11.8873 18.4916 12.2032 18.6814L 13.1719 19.23C 13.5931 19.462 14.1195 19.2511 14.2459 18.7869L 14.5407 17.7321C 14.646 17.3734 14.9829 17.1413 15.3409 17.1835L 16.4359 17.3101C 16.9202 17.3734 17.3203 16.9515 17.2572 16.4873L 17.1519 15.3903C 17.1098 15.0316 17.3414 14.673 17.6994 14.5886L 18.7523 14.2932C 19.2156 14.1667 19.4472 13.6392 19.1945 13.2173L 18.647 12.2468C 18.4785 11.9093 18.5417 11.5084 18.8365 11.2764L 19.6999 10.6013C 20.1 10.3059 20.1 9.71519 19.6999 9.41983ZM 6.39116 10.6857C 5.67518 10.6857 5.10661 10.4536 4.68544 10.0105C 4.26428 9.54641 4.0537 8.9346 4.0537 8.17511C 4.0537 7.41561 4.26428 6.8038 4.68544 6.33966C 5.10661 5.87553 5.67518 5.66456 6.39116 5.66456C 7.10713 5.66456 7.6757 5.89662 8.07581 6.33966C 8.49697 6.8038 8.70755 7.41561 8.70755 8.17511C 8.70755 8.9557 8.49697 9.56751 8.07581 10.0105C 7.65465 10.4536 7.08608 10.6857 6.39116 10.6857ZM 8.74967 14.1245C 8.6865 14.2511 8.56015 14.3354 8.41274 14.3354L 7.21242 14.3354C 7.04396 14.3354 6.93867 14.1667 7.0229 14.019L 11.2556 5.89662C 11.3188 5.77004 11.4451 5.68565 11.5925 5.68565C 11.5925 5.68565 12.3296 5.68565 12.7928 5.68565C 12.9613 5.68565 13.0666 5.85443 12.9824 6.00211L 8.74967 14.1245ZM 15.2988 13.7025C 14.8776 14.1667 14.309 14.3776 13.6141 14.3776C 12.9192 14.3776 12.3296 14.1456 11.9084 13.7025C 11.4872 13.2384 11.2767 12.6266 11.2767 11.8671C 11.2767 11.1076 11.4872 10.4958 11.9084 10.0316C 12.3296 9.56751 12.8981 9.35654 13.6141 9.35654C 14.3301 9.35654 14.8987 9.58861 15.2988 10.0316C 15.7199 10.4958 15.9305 11.1076 15.9305 11.8671C 15.9305 12.6266 15.7199 13.2384 15.2988 13.7025Z"/>
</defs>
</svg>
