<svg width="16" height="17" viewBox="0 0 16 17" version="1.1" xmlns="http://www.w3.org/2000/svg" xmlns:xlink="http://www.w3.org/1999/xlink">
<title>Group</title>
<desc>Created using Figma</desc>
<g id="Canvas" transform="translate(-2594 1237)">
<g id="Group">
<g id="Group">
<g id="Group">
<g id="Group">
<g id="Group">
<g id="Vector">
<use xlink:href="#path0_fill" transform="translate(2594 -1237)" fill="#54C029"/>
</g>
</g>
</g>
</g>
</g>
</g>
</g>
<defs>
<path id="path0_fill" d="M 13.8551 16.9292L 10.117 12.8809C 9.08813 13.6169 7.85352 14.0218 6.55032 14.0218C 2.91506 14.0218 0 10.8935 0 7.02928C 0 3.12822 2.91506 0 6.55032 0C 10.1513 0 13.1006 3.12822 13.1006 7.02928C 13.1006 8.39098 12.7577 9.64226 12.1404 10.7095L 15.9128 14.7578C 16.1186 14.9786 15.9471 15.4939 15.5356 15.8987L 14.9868 16.4875C 14.541 16.9292 14.0609 17.1132 13.8551 16.9292ZM 10.9058 7.02928C 10.9058 4.45311 8.95096 2.35536 6.55032 2.35536C 4.11538 2.31856 2.16058 4.4163 2.16058 7.02928C 2.16058 9.64226 4.11538 11.7032 6.55032 11.7032C 8.95096 11.7032 10.9058 9.60546 10.9058 7.02928Z"/>
</defs>
</svg>
