<svg width="28" height="27" viewBox="0 0 28 27" version="1.1" xmlns="http://www.w3.org/2000/svg" xmlns:xlink="http://www.w3.org/1999/xlink">
<title>Group</title>
<desc>Created using Figma</desc>
<g id="Canvas" transform="translate(-3189 1243)">
<g id="Group">
<g id="Vector">
<use xlink:href="#path0_fill" transform="translate(3189 -1243)" fill="#FFFFFF"/>
</g>
<g id="Vector">
<use xlink:href="#path1_fill" transform="translate(3197.67 -1233.63)" fill="#FFFFFF"/>
</g>
</g>
</g>
<defs>
<path id="path0_fill" d="M 0 13.5378C 0 20.9704 6.28331 27.0377 14.0196 26.9998L 14.0196 25.0658C 7.42216 25.0658 2.04208 19.8707 2.04208 13.4999C 2.04208 7.12917 7.42216 1.93398 14.0196 1.93398C 20.6171 1.93398 25.9972 7.12917 25.9972 13.4999L 28 13.4999C 28 6.06738 21.756 0 14.0196 0C 6.28331 0 0 6.06738 0 13.5378Z"/>
<path id="path1_fill" d="M 10.2627 4.66258C 10.2627 4.66258 12.1477 2.42524 10.2627 0.794633C 10.2627 0.794633 7.55306 -1.44271 5.55026 1.59098C 3.54745 -1.40479 0.837775 0.794633 0.837775 0.794633C -1.04722 2.46316 0.837775 4.66258 0.837775 4.66258C 1.54465 5.91398 5.23609 9.28896 5.58953 9.55441C 6.02151 9.13727 9.55587 5.87606 10.2627 4.66258Z"/>
</defs>
</svg>
