<svg width="18" height="20" viewBox="0 0 18 20" version="1.1" xmlns="http://www.w3.org/2000/svg" xmlns:xlink="http://www.w3.org/1999/xlink">
<title>icon special plumbing</title>
<desc>Created using Figma</desc>
<g id="Canvas" transform="translate(-1718 815)">
<g id="icon special plumbing">
<g id="icon special plumbing">
<use xlink:href="#path0_fill" transform="translate(1718.78 -814.394)" fill="#007CB1"/>
</g>
</g>
</g>
<defs>
<path id="path0_fill" d="M 16.9558 5.89152L 15.2911 5.89152L 15.2911 5.62483C 15.2911 5.47936 15.196 5.38238 15.0533 5.38238L 13.1984 5.38238C 13.0557 5.38238 12.9606 5.47936 12.9606 5.62483L 12.9606 5.89152L 12.0807 5.89152L 12.0807 4.94597C 12.0807 4.8005 11.9856 4.70352 11.8429 4.70352L 11.1532 4.70352L 11.1532 3.6125L 13.46 3.6125C 14.1021 3.6125 14.6015 3.07911 14.6015 2.44874C 14.6015 1.81837 14.0783 1.28498 13.46 1.28498L 11.177 1.28498L 11.177 0.945553C 11.177 0.436409 10.7727 9.24871e-08 10.2496 9.24871e-08C 9.72638 9.24871e-08 9.3221 0.412164 9.3221 0.945553L 9.3221 1.28498L 7.13426 1.28498C 6.49218 1.28498 5.99278 1.81837 5.99278 2.44874C 5.99278 3.07911 6.51596 3.6125 7.13426 3.6125L 9.34588 3.6125L 9.34588 4.70352L 8.68002 4.70352C 8.53733 4.70352 8.44221 4.8005 8.44221 4.94597L 8.44221 5.96426C 3.97141 6.54613 0.618303 10.4253 0.618303 15.0319L 0.618303 16.9957L 0.237809 16.9957C 0.0951235 16.9957 0 17.0927 0 17.2382L 0 19.1293C 0 19.2747 0.0951235 19.3717 0.237809 19.3717L 6.70621 19.3717C 6.84889 19.3717 6.94402 19.2747 6.94402 19.1293L 6.94402 17.2382C 6.94402 17.0927 6.84889 16.9957 6.70621 16.9957L 6.34949 16.9957L 6.34949 15.1288C 6.34949 13.0923 7.96659 11.4194 9.98797 11.4194L 12.9844 11.4194L 12.9844 11.7588C 12.9844 11.9043 13.0795 12.0012 13.2222 12.0012L 15.0771 12.0012C 15.2198 12.0012 15.3149 11.9043 15.3149 11.7588L 15.3149 11.4194L 16.9795 11.4194C 17.1222 11.4194 17.2174 11.3224 17.2174 11.1769L 17.2174 6.13397C 17.1936 5.9885 17.0747 5.89152 16.9558 5.89152ZM 9.8215 0.945553C 9.8215 0.703103 10.0117 0.484899 10.2733 0.484899C 10.5349 0.484899 10.7252 0.678858 10.7252 0.945553L 10.7252 1.28498L 9.84528 1.28498L 9.84528 0.945553L 9.8215 0.945553ZM 6.4684 2.44874C 6.4684 2.08506 6.77755 1.76988 7.13426 1.76988L 13.46 1.76988C 13.8167 1.76988 14.1258 2.08506 14.1258 2.44874C 14.1258 2.81241 13.8167 3.1276 13.46 3.1276L 7.13426 3.1276C 6.75377 3.1276 6.4684 2.81241 6.4684 2.44874ZM 9.8215 3.6125L 10.6776 3.6125L 10.6776 4.70352L 9.8215 4.70352L 9.8215 3.6125ZM 6.44462 18.8868L 0.475617 18.8868L 0.475617 17.4806L 6.4684 17.4806L 6.4684 18.8868L 6.44462 18.8868ZM 9.96419 10.9587C 7.705 10.9587 5.85009 12.8256 5.85009 15.1531L 5.85009 17.0199L 1.07014 17.0199L 1.07014 15.0561C 1.07014 10.7163 4.233 7.05528 8.41843 6.4734L 8.41843 6.86132C 8.41843 7.00679 8.51355 7.10377 8.65624 7.10377C 8.79892 7.10377 8.89405 7.00679 8.89405 6.86132L 8.89405 5.18842L 11.5813 5.18842L 11.5813 6.86132C 11.5813 7.00679 11.6764 7.10377 11.8191 7.10377C 11.9618 7.10377 12.0569 7.00679 12.0569 6.86132L 12.0569 6.37642L 12.9368 6.37642L 12.9368 10.9587L 9.96419 10.9587ZM 14.8155 11.5406L 13.4362 11.5406L 13.4362 5.86728L 14.8155 5.86728L 14.8155 11.5406ZM 15.2911 6.37642L 15.7667 6.37642L 15.7667 10.9587L 15.2911 10.9587L 15.2911 6.37642ZM 16.718 10.9587L 16.2423 10.9587L 16.2423 6.37642L 16.718 6.37642L 16.718 10.9587Z"/>
</defs>
</svg>
