<svg width="18" height="18" viewBox="0 0 18 18" version="1.1" xmlns="http://www.w3.org/2000/svg" xmlns:xlink="http://www.w3.org/1999/xlink">
<title>icon  bathroom</title>
<desc>Created using Figma</desc>
<g id="Canvas" transform="translate(-1718 1107)">
<g id="icon  bathroom">
<g id="Compound Path">
<use xlink:href="#path0_fill" transform="translate(1718 -1107)" fill="#007CB1"/>
</g>
</g>
</g>
<defs>
<path id="path0_fill" d="M 18 8.69136C 18 8.5693 17.9527 8.45225 17.8685 8.36594C 17.7843 8.27964 17.6701 8.23115 17.5511 8.23115L 4.24189 8.23115L 4.24189 2.20246C 4.28628 1.8348 4.46022 1.49646 4.73098 1.25112C 5.00173 1.00578 5.35061 0.870367 5.71196 0.870367C 6.0733 0.870367 6.42219 1.00578 6.69294 1.25112C 6.96369 1.49646 7.13764 1.8348 7.18203 2.20246L 7.18203 3.21491L 8.07978 3.21491L 8.07978 2.20246C 8.02245 1.5994 7.74822 1.03981 7.31052 0.632669C 6.87281 0.225531 6.30296 8.0812e-08 5.71196 8.0812e-08C 5.12095 8.0812e-08 4.55111 0.225531 4.1134 0.632669C 3.67569 1.03981 3.40147 1.5994 3.34413 2.20246L 3.34413 8.23115L 0.448877 8.23115C 0.329827 8.23115 0.215654 8.27964 0.131473 8.36594C 0.0472923 8.45225 -8.56165e-08 8.5693 -8.56165e-08 8.69136L -8.56165e-08 10.072C 0.000929447 11.4563 0.508938 12.7898 1.4234 13.8083C 2.33787 14.8268 3.59209 15.4561 4.93765 15.5714C 5.04299 16.183 5.35478 16.7371 5.81843 17.1367C 6.28208 17.5364 6.86806 17.7561 7.4738 17.7574L 10.5262 17.7574C 11.1319 17.7561 11.7179 17.5364 12.1815 17.1367C 12.6452 16.7371 12.957 16.183 13.0623 15.5714C 14.4079 15.4561 15.6621 14.8268 16.5766 13.8083C 17.491 12.7898 17.999 11.4563 18 10.072L 18 8.69136ZM 10.5262 16.837L 7.4738 16.837C 7.10959 16.837 6.7552 16.7159 6.46383 16.4918C 6.17246 16.2678 5.95982 15.9529 5.85784 15.5944L 12.1421 15.5944C 12.0401 15.9529 11.8275 16.2678 11.5361 16.4918C 11.2448 16.7159 10.8904 16.837 10.5262 16.837ZM 17.1022 10.072C 17.1022 11.2925 16.6293 12.4631 15.7875 13.3261C 14.9457 14.1892 13.8039 14.674 12.6134 14.674L 5.38652 14.674C 4.19603 14.674 3.05429 14.1892 2.21248 13.3261C 1.37068 12.4631 0.897754 11.2925 0.897754 10.072L 0.897754 9.15156L 17.1022 9.15156L 17.1022 10.072Z"/>
</defs>
</svg>
