<svg width="10" height="21" viewBox="0 0 10 21" version="1.1" xmlns="http://www.w3.org/2000/svg" xmlns:xlink="http://www.w3.org/1999/xlink">
<title>icon accessories</title>
<desc>Created using Figma</desc>
<g id="Canvas" transform="translate(-1722 1071)">
<g id="icon accessories">
<g id="Vector">
<use xlink:href="#path0_fill" transform="translate(1722.7 -1070.12)" fill="#007CB1"/>
</g>
<g id="Vector">
<use xlink:href="#path1_fill" transform="translate(1729.9 -1066.63)" fill="#007CB1"/>
</g>
</g>
</g>
<defs>
<path id="path0_fill" d="M 6.12685 5.54614L 6.12685 3.46608C 6.12685 3.29361 5.97592 3.15363 5.78995 3.15363L 5.34524 3.15363L 5.34524 1.96279L 7.11868 1.96279L 7.11868 2.86097C 7.11868 3.03344 7.26961 3.17342 7.45558 3.17342L 8.0912 3.17342C 8.27717 3.17342 8.4281 3.03344 8.4281 2.86097L 8.4281 1.06107C 8.4281 0.888599 8.27717 0.748623 8.0912 0.748623L 4.87269 0.748623L 4.87269 0.312447C 4.87269 0.139976 4.72176 0 4.53579 0L 4.07244 0C 3.88647 0 3.73554 0.139976 3.73554 0.312447L 3.73554 0.748623L 1.92572 0.748623C 1.73975 0.748623 1.58882 0.888599 1.58882 1.06107L 1.58882 1.65034C 1.58882 1.82282 1.73975 1.96279 1.92572 1.96279L 3.26321 1.96279L 3.26321 3.15363L 2.8185 3.15363C 2.63253 3.15363 2.4816 3.29361 2.4816 3.46608L 2.4816 5.54614C 1.06123 5.85755 9.93864e-08 7.04047 9.93864e-08 8.45148L 9.93864e-08 16.3835C 9.93864e-08 18.0311 1.44552 19.3717 3.22211 19.3717L 5.38657 19.3717C 7.16315 19.3717 8.60868 18.0311 8.60868 16.3835L 8.60868 8.45148C 8.60845 7.04047 7.54722 5.85755 6.12685 5.54614ZM 7.7543 1.37352L 7.7543 1.50579C 7.72241 1.44934 7.67277 1.40309 7.61191 1.37352L 7.7543 1.37352ZM 3.93701 1.96279L 4.67145 1.96279L 4.67145 3.15363L 3.93701 3.15363L 3.93701 1.96279ZM 3.1554 5.46345L 3.1554 3.77852L 3.60011 3.77852L 5.00835 3.77852L 5.45305 3.77852L 5.45305 5.46345L 5.38635 5.46345L 3.22188 5.46345L 3.1554 5.46345ZM 7.93465 16.3835C 7.93465 17.6866 6.79144 18.7468 5.38635 18.7468L 3.22188 18.7468C 1.81679 18.7468 0.673574 17.6866 0.673574 16.3835L 0.673574 8.45148C 0.673574 7.14837 1.81679 6.08813 3.22188 6.08813L 5.38635 6.08813C 6.79144 6.08813 7.93465 7.14837 7.93465 8.45148L 7.93465 16.3835Z"/>
<path id="path1_fill" d="M 0.737609 0.00840901C 0.577694 -0.0267933 0.410592 0.05111 0.347704 0.193794C 0.172741 0.589769 -0.198972 1.56065 0.13366 2.02015C 0.250677 2.18158 0.43732 2.27073 0.659449 2.27073C 0.763438 2.27073 1.07945 2.27073 1.2488 2.04473C 1.42601 1.80831 1.31438 1.52961 1.19647 1.23466C 1.08888 0.966371 0.967149 0.662256 0.995224 0.337312C 1.00848 0.184004 0.899321 0.0442363 0.737609 0.00840901Z"/>
</defs>
</svg>
