<svg width="17" height="20" viewBox="0 0 17 20" version="1.1" xmlns="http://www.w3.org/2000/svg" xmlns:xlink="http://www.w3.org/1999/xlink">
<title>icon kitchen</title>
<desc>Created using Figma</desc>
<g id="Canvas" transform="translate(-1719 1033)">
<g id="icon kitchen">
<g id="Vector">
<use xlink:href="#path0_fill" transform="translate(1719.57 -1032.95)" fill="#007CB1"/>
</g>
<g id="Vector">
<use xlink:href="#path1_fill" transform="translate(1725.76 -1020.24)" fill="#007CB1"/>
</g>
<g id="Vector">
<use xlink:href="#path2_fill" transform="translate(1728.32 -1020.24)" fill="#007CB1"/>
</g>
<g id="Vector">
<use xlink:href="#path3_fill" transform="translate(1728.14 -1029.89)" fill="#007CB1"/>
</g>
<g id="Vector">
<use xlink:href="#path4_fill" transform="translate(1728.14 -1028.85)" fill="#007CB1"/>
</g>
<g id="Vector">
<use xlink:href="#path5_fill" transform="translate(1720.92 -1022.92)" fill="#007CB1"/>
</g>
<g id="Vector">
<use xlink:href="#path6_fill" transform="translate(1720.92 -1016.41)" fill="#007CB1"/>
</g>
</g>
</g>
<defs>
<path id="path0_fill" d="M 15.2964 5.77426L 13.7312 5.77426L 13.7312 3.4273C 13.7312 3.20378 13.5889 3.05477 13.3755 3.05477L 12.6996 3.05477L 12.6996 1.86266C 12.6996 1.63914 12.5573 1.49013 12.3438 1.49013L 11.3122 1.49013L 11.3122 2.2352L 11.9881 2.2352L 11.9881 3.05477L 11.3122 3.05477C 11.0988 3.05477 10.9565 3.20378 10.9565 3.4273L 10.9565 5.77426L 7.11461 5.77426L 7.11461 1.52738C 7.11461 1.08035 7.47034 0.745066 7.86164 0.745066C 8.25295 0.745066 8.60868 1.08035 8.60868 1.52738L 8.60868 2.60773L 9.32014 2.60773L 9.32014 1.52738C 9.32014 0.707813 8.67982 0 7.86164 0C 7.07904 0 6.40315 0.670559 6.40315 1.52738L 6.40315 5.77426L 5.62054 5.77426L 5.62054 4.47039C 5.62054 4.32138 5.5494 4.17237 5.4071 4.13511L 4.16205 3.57632L 3.91304 4.24687L 4.94465 4.73117L 4.94465 5.77426L 0.355731 5.77426C 0.142292 5.77426 0 5.92327 0 6.14679L 0 18.9992C 0 19.2227 0.142292 19.3717 0.355731 19.3717L 15.2964 19.3717C 15.5099 19.3717 15.6521 19.2227 15.6521 18.9992L 15.6521 6.14679C 15.6521 5.92327 15.4743 5.77426 15.2964 5.77426ZM 11.668 3.76258L 13.0197 3.76258L 13.0197 5.73701L 11.668 5.73701L 11.668 3.76258ZM 11.3122 6.51932L 13.3755 6.51932L 14.9407 6.51932L 14.9407 8.68001L 0.711461 8.68001L 0.711461 6.51932L 11.3122 6.51932ZM 0.711461 9.42508L 7.47034 9.42508L 7.47034 18.6266L 0.711461 18.6266L 0.711461 9.42508ZM 8.1818 18.6266L 8.1818 9.42508L 14.9407 9.42508L 14.9407 18.6266L 8.1818 18.6266Z"/>
<path id="path1_fill" d="M 0.711461 0L 0 0L 0 2.19794L 0.711461 2.19794L 0.711461 0Z"/>
<path id="path2_fill" d="M 0.71146 0L 0 0L 0 2.19794L 0.71146 2.19794L 0.71146 0Z"/>
<path id="path3_fill" d="M 0.71146 0L 0 0L 0 0.670559L 0.71146 0.670559L 0.71146 0Z"/>
<path id="path4_fill" d="M 0.71146 0L 0 0L 0 0.670559L 0.71146 0.670559L 0.71146 0Z"/>
<path id="path5_fill" d="M 0.711461 0L 0 0L 0 5.96053L 0.711461 5.96053L 0.711461 0Z"/>
<path id="path6_fill" d="M 0.711461 0L 0 0L 0 0.968585L 0.711461 0.968585L 0.711461 0Z"/>
</defs>
</svg>
