<svg width="17" height="21" viewBox="0 0 17 21" version="1.1" xmlns="http://www.w3.org/2000/svg" xmlns:xlink="http://www.w3.org/1999/xlink">
<title>icon heating</title>
<desc>Created using Figma</desc>
<g id="Canvas" transform="translate(-1719 998)">
<g id="icon heating">
<g id="Vector">
<use xlink:href="#path0_fill" transform="translate(1721.76 -989.055)" fill="#007CB1"/>
</g>
<g id="Vector">
<use xlink:href="#path0_fill" transform="translate(1725.33 -989.055)" fill="#007CB1"/>
</g>
<g id="Vector">
<use xlink:href="#path0_fill" transform="translate(1728.9 -989.055)" fill="#007CB1"/>
</g>
<g id="Vector">
<use xlink:href="#path1_fill" transform="translate(1719.57 -990.803)" fill="#007CB1"/>
</g>
<g id="Vector">
<use xlink:href="#path2_fill" transform="translate(1732.47 -989.055)" fill="#007CB1"/>
</g>
<g id="Vector">
<use xlink:href="#path3_fill" transform="translate(1724.23 -997.066)" fill="#007CB1"/>
</g>
<g id="Vector">
<use xlink:href="#path4_fill" transform="translate(1726.98 -997.066)" fill="#007CB1"/>
</g>
<g id="Vector">
<use xlink:href="#path5_fill" transform="translate(1729.72 -997.066)" fill="#007CB1"/>
</g>
</g>
</g>
<defs>
<path id="path0_fill" d="M 0.274599 0C 0.122746 0 -1.50842e-07 0.13021 -1.50842e-07 0.291299L -1.50842e-07 9.32155C -1.50842e-07 9.48235 0.122746 9.61285 0.274599 9.61285C 0.426177 9.61285 0.549198 9.48235 0.549198 9.32155L 0.549198 0.291299C 0.549198 0.130502 0.426177 0 0.274599 0Z"/>
<path id="path1_fill" d="M 15.3775 3.20428C 15.5291 3.20428 15.6521 3.07378 15.6521 2.91299L 15.6521 1.74779C 15.6521 1.5867 15.5291 1.45649 15.3775 1.45649L 14.5537 1.45649C 14.5537 0.653091 13.9378 0 13.1808 0C 12.4237 0 11.808 0.653091 11.808 1.45649L 10.984 1.45649C 10.984 0.653091 10.368 0 9.61096 0C 8.8539 0 8.23824 0.653091 8.23824 1.45649L 7.41445 1.45649C 7.41445 0.653091 6.79825 0 6.04118 0C 5.28411 0 4.66846 0.653091 4.66846 1.45649L 3.84466 1.45649C 3.84466 0.653091 3.22846 0 2.47139 0C 1.71432 0 1.09867 0.653091 1.09867 1.45649L 0.274599 1.45649C 0.12302 1.45649 0 1.5867 0 1.74779L 0 2.91299C 0 3.07378 0.12302 3.20428 0.274599 3.20428L 1.09867 3.20428L 1.09867 9.90415L 0.274599 9.90415C 0.12302 9.90415 0 10.0344 0 10.1954L 0 11.3606C 0 11.5217 0.12302 11.6519 0.274599 11.6519L 1.09867 11.6519C 1.09867 12.4551 1.71432 13.1084 2.47167 13.1084C 3.22846 13.1084 3.84466 12.4551 3.84466 11.6519L 4.66846 11.6519C 4.66846 12.4551 5.28411 13.1084 6.04145 13.1084C 6.79825 13.1084 7.41445 12.4551 7.41445 11.6519L 8.23824 11.6519C 8.23824 12.4551 8.8539 13.1084 9.61124 13.1084C 10.368 13.1084 10.984 12.4551 10.984 11.6519L 11.808 11.6519C 11.808 12.4551 12.4237 13.1084 13.181 13.1084C 13.9378 13.1084 14.5537 12.4551 14.5537 11.6519L 15.3775 11.6519C 15.5291 11.6519 15.6521 11.5217 15.6521 11.3606L 15.6521 10.1954C 15.6521 10.0344 15.5291 9.90415 15.3775 9.90415L 14.5537 9.90415L 14.5537 3.20428L 15.3775 3.20428ZM 0.549198 2.62169L 0.549198 2.03909L 1.09867 2.03909L 1.09867 2.62169L 0.549198 2.62169ZM 0.549198 11.0693L 0.549198 10.4867L 1.09867 10.4867L 1.09867 11.0693L 0.549198 11.0693ZM 3.29546 11.6519C 3.29546 12.1337 2.92585 12.5258 2.47167 12.5258L 2.47139 12.5258C 2.01748 12.5258 1.64787 12.1337 1.64787 11.6519L 1.64787 1.45649C 1.64787 0.974685 2.01748 0.582597 2.47167 0.582597C 2.92585 0.582597 3.29546 0.974685 3.29546 1.45649L 3.29546 11.6519ZM 4.66846 2.03909L 4.66846 2.62169L 3.84466 2.62169L 3.84466 2.03909L 4.66846 2.03909ZM 4.66846 3.20428L 4.66846 9.90415L 3.84466 9.90415L 3.84466 3.20428L 4.66846 3.20428ZM 3.84466 11.0693L 3.84466 10.4867L 4.66846 10.4867L 4.66846 11.0693L 3.84466 11.0693ZM 6.86525 11.6519C 6.86525 12.1337 6.49564 12.5258 6.04145 12.5258L 6.04118 12.5258C 5.58727 12.5258 5.21766 12.1337 5.21766 11.6519L 5.21766 1.45649C 5.21766 0.974685 5.58727 0.582597 6.04145 0.582597C 6.49564 0.582597 6.86525 0.974685 6.86525 1.45649L 6.86525 11.6519ZM 8.23824 2.03909L 8.23824 2.62169L 7.41445 2.62169L 7.41445 2.03909L 8.23824 2.03909ZM 8.23824 3.20428L 8.23824 9.90415L 7.41445 9.90415L 7.41445 3.20428L 8.23824 3.20428ZM 7.41445 11.0693L 7.41445 10.4867L 8.23824 10.4867L 8.23824 11.0693L 7.41445 11.0693ZM 10.4348 11.6519C 10.4348 12.1337 10.0652 12.5258 9.61124 12.5258L 9.61096 12.5258C 9.15705 12.5258 8.78744 12.1337 8.78744 11.6519L 8.78744 1.45649C 8.78744 0.974685 9.15705 0.582597 9.61124 0.582597C 10.0652 0.582597 10.4348 0.974685 10.4348 1.45649L 10.4348 11.6519ZM 15.1029 2.03909L 15.1029 2.62169L 14.5537 2.62169L 14.5537 2.03909L 15.1029 2.03909ZM 11.808 2.03909L 11.808 2.62169L 10.984 2.62169L 10.984 2.03909L 11.808 2.03909ZM 11.808 3.20428L 11.808 9.90415L 10.984 9.90415L 10.984 3.20428L 11.808 3.20428ZM 10.984 11.0693L 10.984 10.4867L 11.808 10.4867L 11.808 11.0693L 10.984 11.0693ZM 15.1029 10.4867L 15.1029 11.0693L 14.5537 11.0693L 14.5537 10.4867L 15.1029 10.4867ZM 14.0045 9.90415L 14.0045 10.4867L 14.0045 11.0693L 14.0045 11.6519C 14.0045 12.1337 13.6349 12.5258 13.181 12.5258L 13.1808 12.5258C 12.7268 12.5258 12.3572 12.1337 12.3572 11.6519L 12.3572 11.0693L 12.3572 10.4867L 12.3572 9.90415L 12.3572 3.20428L 12.3572 2.62169L 12.3572 2.03909L 12.3572 1.45649C 12.3572 0.974685 12.7268 0.582597 13.181 0.582597C 13.6349 0.582597 14.0045 0.974685 14.0045 1.45649L 14.0045 2.03909L 14.0045 2.62169L 14.0045 3.20428L 14.0045 9.90415Z"/>
<path id="path2_fill" d="M 0.274599 0C 0.12302 0 0 0.13021 0 0.291299L 0 9.32155C 0 9.48235 0.12302 9.61285 0.274599 9.61285C 0.426178 9.61285 0.549198 9.48235 0.549198 9.32155L 0.549198 0.291299C 0.549198 0.130502 0.426178 0 0.274599 0Z"/>
<path id="path3_fill" d="M 0.0805258 5.30408C 0.134073 5.36089 0.20437 5.38914 0.274667 5.38914C 0.344965 5.38914 0.415262 5.3606 0.468809 5.30379C 0.927389 4.81703 1.10972 4.41766 1.09792 3.92537C 1.08748 3.46686 0.912835 2.86417 0.75906 2.33226C 0.656085 1.97542 0.549266 1.60634 0.549266 1.45661C 0.549266 1.07181 0.580571 0.804978 0.75247 0.414346C 0.816177 0.268697 0.757138 0.0953741 0.619564 0.0275015C 0.482264 -0.0406624 0.319153 0.0222582 0.254897 0.167908C 0.0418079 0.652046 6.84989e-05 1.00714 6.84989e-05 1.45661C 6.84989e-05 1.69373 0.103318 2.05086 0.234027 2.50296C 0.377642 2.99904 0.540205 3.56124 0.549266 3.93993C 0.555582 4.21375 0.479518 4.46864 0.0805258 4.89219C -0.0268424 5.00579 -0.0268424 5.19019 0.0805258 5.30408Z"/>
<path id="path4_fill" d="M 0.0805259 5.30437C 0.134073 5.36118 0.20437 5.38943 0.274668 5.38943C 0.344965 5.38943 0.415262 5.36089 0.468809 5.30408C 0.900753 4.84558 1.10286 4.36872 1.08583 3.84643C 1.07348 3.45521 0.947435 3.08934 0.825788 2.7357C 0.689587 2.33983 0.548717 1.93055 0.549267 1.4569C 0.549816 1.04938 0.612699 0.708266 0.742035 0.414346C 0.805742 0.268697 0.746703 0.0950829 0.609129 0.0275017C 0.471829 -0.0406622 0.308169 0.0222584 0.244462 0.167908C 0.080526 0.540479 0.000617848 0.961696 6.86497e-05 1.45603C -0.000755147 2.0328 0.164553 2.51228 0.309816 2.93524C 0.421852 3.26033 0.527574 3.56765 0.537185 3.86536C 0.544599 4.10947 0.500113 4.4465 0.0805259 4.8916C -0.0268422 5.00608 -0.0268422 5.19048 0.0805259 5.30437Z"/>
<path id="path5_fill" d="M 0.551595 3.79299C 0.55846 4.1845 0.40084 4.55415 0.0825796 4.89206C -0.0247886 5.00567 -0.0247886 5.19006 0.0825796 5.30396C 0.135852 5.36105 0.206424 5.38931 0.276721 5.38931C 0.347019 5.38931 0.417316 5.36076 0.470863 5.30396C 0.899237 4.84982 1.11095 4.33772 1.10079 3.78105C 1.09338 3.38692 0.959648 3.0126 0.830587 2.65081C 0.682578 2.23542 0.529627 1.80663 0.551046 1.32453C 0.562854 1.0644 0.670222 0.772517 0.827841 0.414511C 0.891823 0.268571 0.832785 0.095248 0.695485 0.0273755C 0.558186 -0.0404971 0.394524 0.0221322 0.330268 0.167781C 0.145188 0.588125 0.0185979 0.94147 0.00267116 1.29685C -0.0242395 1.89926 0.15727 2.40787 0.317087 2.85647C 0.434615 3.18767 0.545828 3.49936 0.551595 3.79299Z"/>
</defs>
</svg>
