<svg width="15" height="13" viewBox="0 0 15 13" version="1.1" xmlns="http://www.w3.org/2000/svg" xmlns:xlink="http://www.w3.org/1999/xlink">
<title>menu</title>
<desc>Created using Figma</desc>
<g id="Canvas" transform="translate(-1988 1234)">
<g id="menu">
<g id="Vector">
<use xlink:href="#path0_fill" transform="matrix(-1 0 0 1 2003 -1228.49)" fill="#FFFFFF"/>
</g>
<g id="Vector">
<use xlink:href="#path1_fill" transform="matrix(-1 0 0 1 2003 -1234)" fill="#FFFFFF"/>
</g>
<g id="Vector">
<use xlink:href="#path2_fill" transform="matrix(-1 0 0 1 2003 -1222.98)" fill="#FFFFFF"/>
</g>
</g>
</g>
<defs>
<path id="path0_fill" d="M 14.0151 0L 0.984899 0C 0.723687 0 0.473174 0.104274 0.28847 0.289883C 0.103766 0.475492 2.25425e-07 0.727232 2.25425e-07 0.989722C 2.25425e-07 1.25221 0.103766 1.50395 0.28847 1.68956C 0.473174 1.87517 0.723687 1.97944 0.984899 1.97944L 14.0151 1.97944C 14.2763 1.97944 14.5268 1.87517 14.7115 1.68956C 14.8962 1.50395 15 1.25221 15 0.989722C 15 0.727232 14.8962 0.475492 14.7115 0.289883C 14.5268 0.104274 14.2763 0 14.0151 0Z"/>
<path id="path1_fill" d="M 14.0151 -1.13265e-07L 0.984899 -1.13265e-07C 0.723687 -1.13265e-07 0.473174 0.104274 0.28847 0.289883C 0.103766 0.475492 2.25425e-07 0.727231 2.25425e-07 0.989722C 2.25425e-07 1.25221 0.103766 1.50395 0.28847 1.68956C 0.473174 1.87517 0.723687 1.97944 0.984899 1.97944L 14.0151 1.97944C 14.2763 1.97944 14.5268 1.87517 14.7115 1.68956C 14.8962 1.50395 15 1.25221 15 0.989722C 15 0.727231 14.8962 0.475492 14.7115 0.289883C 14.5268 0.104274 14.2763 -1.13265e-07 14.0151 -1.13265e-07Z"/>
<path id="path2_fill" d="M 14.0151 -8.30608e-07L 0.984899 -8.30608e-07C 0.723687 -8.30608e-07 0.473174 0.104274 0.28847 0.289883C 0.103766 0.475492 2.25425e-07 0.727231 2.25425e-07 0.989721C 2.25425e-07 1.25221 0.103766 1.50395 0.28847 1.68956C 0.473174 1.87517 0.723687 1.97944 0.984899 1.97944L 14.0151 1.97944C 14.2763 1.97944 14.5268 1.87517 14.7115 1.68956C 14.8962 1.50395 15 1.25221 15 0.989721C 15 0.727231 14.8962 0.475492 14.7115 0.289883C 14.5268 0.104274 14.2763 -8.30608e-07 14.0151 -8.30608e-07Z"/>
</defs>
</svg>
