<svg width="24" height="26" viewBox="0 0 24 26" version="1.1" xmlns="http://www.w3.org/2000/svg" xmlns:xlink="http://www.w3.org/1999/xlink">
<title>Message Icon</title>
<desc>Created using Figma</desc>
<g id="Canvas" transform="translate(-2611 -1397)">
<g id="Message Icon">
<g id="Rectangle">
<mask id="mask0_outline_ins">
<use xlink:href="#path0_fill" fill="white" transform="translate(2611 1397.34)"/>
</mask>
<g mask="url(#mask0_outline_ins)">
<use xlink:href="#path1_stroke_2x" transform="translate(2611 1397.34)" fill="#333333"/>
</g>
</g>
<g id="Vector">
<use xlink:href="#path2_fill" transform="translate(2616.32 1410.57)" fill="#333333"/>
</g>
<g id="Vector">
<use xlink:href="#path3_fill" transform="translate(2616.32 1404.76)" fill="#333333"/>
</g>
<g id="Vector">
<use xlink:href="#path4_fill" transform="translate(2616 1405.69)" fill="#333333"/>
</g>
<g id="Vector">
<use xlink:href="#path5_fill" transform="translate(2625.17 1405.69)" fill="#333333"/>
</g>
</g>
</g>
<defs>
<path id="path0_fill" d="M 0 5C 0 2.23858 2.23858 0 5 0L 19 0C 21.7614 0 24 2.23858 24 5L 24 20.4381C 24 23.1996 21.7614 25.4381 19 25.4381L 5 25.4381C 2.23858 25.4381 0 23.1996 0 20.4381L 0 5Z"/>
<path id="path1_stroke_2x" d="M 5 1L 19 1L 19 -1L 5 -1L 5 1ZM 23 5L 23 20.4381L 25 20.4381L 25 5L 23 5ZM 19 24.4381L 5 24.4381L 5 26.4381L 19 26.4381L 19 24.4381ZM 1 20.4381L 1 5L -1 5L -1 20.4381L 1 20.4381ZM 5 24.4381C 2.79086 24.4381 1 22.6473 1 20.4381L -1 20.4381C -1 23.7519 1.68629 26.4381 5 26.4381L 5 24.4381ZM 23 20.4381C 23 22.6473 21.2091 24.4381 19 24.4381L 19 26.4381C 22.3137 26.4381 25 23.7519 25 20.4381L 23 20.4381ZM 19 1C 21.2091 1 23 2.79086 23 5L 25 5C 25 1.68629 22.3137 -1 19 -1L 19 1ZM 5 -1C 1.68629 -1 -1 1.68629 -1 5L 1 5C 1 2.79086 2.79086 1 5 1L 5 -1Z"/>
<path id="path2_fill" d="M 6.684 1.60684L 4.952 2.18337e-07L 1.45435e-08 4.49937C 0.18 4.67638 0.423 4.78661 0.691 4.78661L 12.677 4.78661C 12.944 4.78661 13.186 4.67638 13.365 4.49937L 8.416 2.18337e-07L 6.684 1.60684Z"/>
<path id="path3_fill" d="M 13.366 0.287239C 13.186 0.109172 12.944 0 12.675 0L 0.689 0C 0.422 0 0.18 0.110232 -1.12057e-08 0.289359L 6.682 6.35954L 13.366 0.287239Z"/>
<path id="path4_fill" d="M 0 2.22381e-08L 0 8.80584L 4.833 4.45273L 0 2.22381e-08Z"/>
<path id="path5_fill" d="M -1.83105e-07 4.45591L 4.833 8.80902L 4.833 0L -1.83105e-07 4.45591Z"/>
</defs>
</svg>
