<svg width="21" height="24" viewBox="0 0 21 24" version="1.1" xmlns="http://www.w3.org/2000/svg" xmlns:xlink="http://www.w3.org/1999/xlink">
<title>refresh</title>
<desc>Created using Figma</desc>
<g id="Canvas" transform="translate(-2442 -475)">
<g id="refresh">
<g id="refresh">
<use xlink:href="#path0_fill" transform="translate(2442 475)" fill="#007CB1"/>
</g>
</g>
</g>
<defs>
<path id="path0_fill" d="M 17.7194 4.60955C 15.617 2.48297 12.7688 1.28873 9.7994 1.28873C 6.82999 1.28873 3.98177 2.48297 1.87938 4.60955L 1.83653 4.65611L 1.83653 0L 0 0L 0 7.87814L 7.74402 7.87814L 7.74402 6.01569L 3.09455 6.01569L 3.17719 5.92567C 4.487 4.59707 6.15591 3.69222 7.97285 3.32554C 9.78979 2.95887 11.6731 3.14684 13.3847 3.86569C 15.0963 4.58455 16.5593 5.80199 17.5885 7.36405C 18.6178 8.92611 19.1672 10.7626 19.1672 12.6413C 19.1672 14.52 18.6178 16.3566 17.5885 17.9186C 16.5593 19.4807 15.0963 20.6981 13.3847 21.417C 11.6731 22.1358 9.78979 22.3238 7.97285 21.9571C 6.15591 21.5905 4.487 20.6856 3.17719 19.357L 1.87938 20.6731C 2.91945 21.7279 4.1542 22.5645 5.51312 23.1354C 6.87203 23.7062 8.32852 24 9.7994 24C 11.2703 24 12.7268 23.7062 14.0857 23.1354C 15.4446 22.5645 16.6793 21.7279 17.7194 20.6731C 18.7595 19.6184 19.5845 18.3662 20.1474 16.9881C 20.7103 15.61 21 14.133 21 12.6413C 21 11.1497 20.7103 9.67266 20.1474 8.29456C 19.5845 6.91647 18.7595 5.6643 17.7194 4.60955Z"/>
</defs>
</svg>
