<svg width="40" height="44" viewBox="0 0 40 44" version="1.1" xmlns="http://www.w3.org/2000/svg" xmlns:xlink="http://www.w3.org/1999/xlink">
<title>Twitter</title>
<desc>Created using Figma</desc>
<g id="Canvas" transform="translate(-2988 -1404)">
<g id="Twitter">
<g id="Rectangle">
<mask id="mask0_outline_ins">
<use xlink:href="#path0_fill" fill="white" transform="translate(2988 1404.76)"/>
</mask>
<g mask="url(#mask0_outline_ins)">
<use xlink:href="#path1_stroke_2x" transform="translate(2988 1404.76)" fill="#333333"/>
</g>
</g>
<g id="Vector">
<use xlink:href="#path2_fill" transform="translate(2997 1416.42)" fill="#333333"/>
</g>
</g>
</g>
<defs>
<path id="path0_fill" d="M 0 5C 0 2.23858 2.23858 0 5 0L 35 0C 37.7614 0 40 2.23858 40 5L 40 37.3969C 40 40.1583 37.7614 42.3969 35 42.3969L 5 42.3969C 2.23858 42.3969 0 40.1583 0 37.3969L 0 5Z"/>
<path id="path1_stroke_2x" d="M 5 1L 35 1L 35 -1L 5 -1L 5 1ZM 39 5L 39 37.3969L 41 37.3969L 41 5L 39 5ZM 35 41.3969L 5 41.3969L 5 43.3969L 35 43.3969L 35 41.3969ZM 1 37.3969L 1 5L -1 5L -1 37.3969L 1 37.3969ZM 5 41.3969C 2.79086 41.3969 1 39.606 1 37.3969L -1 37.3969C -1 40.7106 1.68629 43.3969 5 43.3969L 5 41.3969ZM 39 37.3969C 39 39.606 37.2091 41.3969 35 41.3969L 35 43.3969C 38.3137 43.3969 41 40.7106 41 37.3969L 39 37.3969ZM 35 1C 37.2091 1 39 2.79086 39 5L 41 5C 41 1.68629 38.3137 -1 35 -1L 35 1ZM 5 -1C 1.68629 -1 -1 1.68629 -1 5L 1 5C 1 2.79086 2.79086 1 5 1L 5 -1Z"/>
<path id="path2_fill" d="M 22 2.2573C 21.1903 2.64035 20.3215 2.90014 19.4086 3.01612C 20.3407 2.42022 21.0542 1.47503 21.3923 0.352237C 20.518 0.904079 19.5529 1.30479 18.5246 1.52201C 17.7011 0.584157 16.5299 7.26153e-08 15.2307 7.26153e-08C 12.7383 7.26153e-08 10.7174 2.15752 10.7174 4.81698C 10.7174 5.19416 10.7573 5.56256 10.8343 5.91483C 7.08401 5.71373 3.75852 3.79546 1.53281 0.880591C 1.14375 1.59097 0.92242 2.41872 0.92242 3.3023C 0.92242 4.97403 1.71978 6.44906 2.92956 7.31204C 2.18994 7.28563 1.49431 7.06841 0.885322 6.70735L 0.885322 6.76752C 0.885322 9.10116 2.44154 11.0488 4.50501 11.4921C 4.12695 11.6007 3.72829 11.6608 3.31586 11.6608C 3.02443 11.6608 2.7426 11.63 2.46627 11.5713C 3.04089 13.4866 4.70711 14.8795 6.68125 14.9177C 5.1374 16.2092 3.19076 16.9769 1.07642 16.9769C 0.712125 16.9769 0.353295 16.9534 1.70764e-12 16.9108C 1.99751 18.2802 4.36895 19.0786 6.91772 19.0786C 15.2198 19.0786 19.7578 11.7372 19.7578 5.37032L 19.7427 4.74656C 20.6294 4.07137 21.3965 3.22305 22 2.2573Z"/>
</defs>
</svg>
