<svg width="14" height="14" viewBox="0 0 14 14" version="1.1" xmlns="http://www.w3.org/2000/svg" xmlns:xlink="http://www.w3.org/1999/xlink">
<title>Vector</title>
<desc>Created using Figma</desc>
<g id="Canvas" transform="translate(-3123 1282)">
<g id="Vector">
<g id="Vector">
<use xlink:href="#path0_fill" transform="translate(3123.75 -1282)" fill="#FFFFFF"/>
</g>
</g>
</g>
<defs>
<path id="path0_fill" d="M 9.36914 7.57143C 10.202 6.78571 10.6878 5.64286 10.6878 4.35714C 10.6878 1.92857 8.81393 0 6.4543 0C 4.16406 0 2.22083 1.92857 2.22083 4.35714C 2.22083 5.07143 2.42904 5.85714 2.77604 6.5C 2.84544 6.57143 2.91484 6.71429 2.98425 6.78571C 3.19245 7.07143 3.33125 7.28571 3.60885 7.5C 1.59622 8.57143 0.208203 10.6429 0 13C 0 13.2857 0.069401 13.5 0.277604 13.7143C 0.485807 13.9286 0.69401 14 0.971615 14L 12.0758 14C 12.3534 14 12.5616 13.8571 12.7698 13.7143C 12.978 13.5714 13.0474 13.2857 13.0474 13C 12.7698 10.6429 11.3818 8.57143 9.36914 7.57143ZM 5.41328 6.57143C 5.34388 6.57143 5.27448 6.5 5.20508 6.42857C 4.92747 6.21429 4.64987 6 4.51107 5.71429C 4.44167 5.71429 4.44167 5.64286 4.37227 5.57143C 4.16406 5.21429 4.09466 4.78571 4.09466 4.35714C 4.09466 3 5.20508 1.85714 6.5237 1.85714C 7.84232 1.85714 8.95273 3 8.95273 4.35714C 8.95273 5.71429 7.91172 6.85714 6.5237 6.85714C 6.10729 6.85714 5.76029 6.78571 5.41328 6.57143ZM 2.01263 12.1429C 2.56784 10.1429 4.37227 8.71429 6.4543 8.71429C 8.53633 8.71429 10.3408 10.1429 10.896 12.1429L 2.01263 12.1429Z"/>
</defs>
</svg>
