<svg width="362" height="284" viewBox="0 0 362 284" version="1.1" xmlns="http://www.w3.org/2000/svg" xmlns:xlink="http://www.w3.org/1999/xlink">
<title>Component</title>
<desc>Created using Figma</desc>
<g id="Canvas" transform="translate(-25718 949)">
<g id="Component">
<g id="icon">
<g id="Group">
<g id="Vector">
<use xlink:href="#path0_stroke" transform="translate(25983.2 -666.374)" fill="#455A64"/>
</g>
<g id="Vector">
<use xlink:href="#path1_stroke" transform="translate(25975 -671)" fill="#455A64"/>
</g>
</g>
<g id="Group">
<g id="Vector">
<use xlink:href="#path2_stroke" transform="translate(25727.2 -827.375)" fill="#455A64"/>
</g>
<g id="Vector">
<use xlink:href="#path3_stroke" transform="translate(25719 -832)" fill="#455A64"/>
</g>
</g>
<g id="Group">
<g id="Vector">
<use xlink:href="#path4_stroke" transform="translate(25964 -948)" fill="#455A64"/>
</g>
<g id="Vector">
<use xlink:href="#path5_stroke" transform="translate(25960 -944.044)" fill="#455A64"/>
</g>
</g>
<g id="Group">
<g id="Vector">
<use xlink:href="#path6_stroke" transform="translate(26075 -853)" fill="#455A64"/>
</g>
<g id="Vector">
<use xlink:href="#path7_stroke" transform="translate(26071 -849.043)" fill="#455A64"/>
</g>
</g>
</g>
<g id="Group">
<g id="Group 2">
<g id="Vector">
<use xlink:href="#path8_fill" transform="translate(25812.2 -912.294)" fill="#F1CB83"/>
</g>
<g id="Vector">
<use xlink:href="#path9_fill" transform="translate(25812.8 -945)" fill="#96D67C"/>
</g>
<g id="Vector">
<use xlink:href="#path10_fill" transform="translate(25819.6 -799.607)" fill="#EB5757"/>
</g>
<g id="Vector">
<use xlink:href="#path11_fill" transform="translate(25819.6 -766.307)" fill="#DC3F16"/>
</g>
<g id="Vector">
<use xlink:href="#path12_fill" transform="translate(25837.7 -790.093)" fill="#96D67C"/>
</g>
<g id="Vector">
<use xlink:href="#path13_fill" transform="translate(25813.1 -763.334)" fill="#EB5757"/>
</g>
<g id="Vector">
<use xlink:href="#path14_fill" transform="translate(25806 -752.63)" fill="#EB5757"/>
</g>
<g id="Vector">
<use xlink:href="#path15_fill" transform="translate(25813.1 -755.901)" fill="#DC3F16"/>
</g>
</g>
<g id="Group">
<g id="Vector">
<use xlink:href="#path16_fill" transform="translate(25926.4 -777.035)" fill="#96D67C"/>
</g>
<g id="Vector">
<use xlink:href="#path17_fill" transform="translate(25934.9 -707.461)" fill="#83C468"/>
</g>
<g id="Vector">
<use xlink:href="#path18_fill" transform="translate(25930.5 -704.785)" fill="#83C468"/>
</g>
<g id="Vector">
<use xlink:href="#path19_fill" transform="translate(25925.5 -698.541)" fill="#83C468"/>
</g>
<g id="Vector">
<use xlink:href="#path20_fill" transform="translate(25944.4 -783.576)" fill="#FFDF66"/>
</g>
<g id="Vector">
<use xlink:href="#path21_fill" transform="translate(25909.2 -891.803)" fill="#F1CB83"/>
</g>
<g id="Vector">
<use xlink:href="#path22_fill" transform="translate(25930.5 -700.622)" fill="#96D67C"/>
</g>
<g id="Vector">
<use xlink:href="#path23_fill" transform="translate(25944.4 -778.819)" fill="#EDB656"/>
</g>
</g>
</g>
</g>
</g>
<defs>
<path id="path0_stroke" d="M -6.09229e-06 -1.00001C -0.552291 -1.00001 -1.00001 -0.552291 -1.00001 -6.5918e-06C -1.00001 0.552278 -0.552291 0.999993 -6.09229e-06 0.999993L -6.09229e-06 -1.00001ZM 36.9629 0.999993C 37.5152 0.999993 37.9629 0.552278 37.9629 -6.5918e-06C 37.9629 -0.552291 37.5152 -1.00001 36.9629 -1.00001L 36.9629 0.999993ZM -6.09229e-06 0.999993L 36.9629 0.999993L 36.9629 -1.00001L -6.09229e-06 -1.00001L -6.09229e-06 0.999993Z"/>
<path id="path1_stroke" d="M 1.13443e-05 -1.00001C -0.552273 -1.00001 -0.999989 -0.552296 -0.999989 -1.14746e-05C -0.999989 0.552273 -0.552273 0.999988 1.13443e-05 0.999988L 1.13443e-05 -1.00001ZM 30.8741 0.999988C 31.4264 0.999988 31.8741 0.552273 31.8741 -1.14746e-05C 31.8741 -0.552296 31.4264 -1.00001 30.8741 -1.00001L 30.8741 0.999988ZM 1.13443e-05 0.999988L 30.8741 0.999988L 30.8741 -1.00001L 1.13443e-05 -1.00001L 1.13443e-05 0.999988Z"/>
<path id="path2_stroke" d="M 1.23421e-06 -1C -0.552284 -1 -0.999999 -0.552288 -0.999999 -3.41797e-06C -0.999999 0.552281 -0.552284 0.999997 1.23421e-06 0.999997L 1.23421e-06 -1ZM 36.9629 0.999997C 37.5152 0.999997 37.9629 0.552281 37.9629 -3.41797e-06C 37.9629 -0.552288 37.5152 -1 36.9629 -1L 36.9629 0.999997ZM 1.23421e-06 0.999997L 36.9629 0.999997L 36.9629 -1L 1.23421e-06 -1L 1.23421e-06 0.999997Z"/>
<path id="path3_stroke" d="M -1.02413e-06 -1C -0.552286 -1 -1 -0.552286 -1 -1.2207e-06C -1 0.552284 -0.552286 0.999999 -1.02413e-06 0.999999L -1.02413e-06 -1ZM 30.875 0.999999C 31.4273 0.999999 31.875 0.552284 31.875 -1.2207e-06C 31.875 -0.552286 31.4273 -1 30.875 -1L 30.875 0.999999ZM -1.02413e-06 0.999999L 30.875 0.999999L 30.875 -1L -1.02413e-06 -1L -1.02413e-06 0.999999Z"/>
<path id="path4_stroke" d="M 0.999993 5.24843e-06C 0.999993 -0.552279 0.552278 -0.999995 -6.5918e-06 -0.999995C -0.552291 -0.999995 -1.00001 -0.552279 -1.00001 5.24843e-06L 0.999993 5.24843e-06ZM -1.00001 7.91368C -1.00001 8.46597 -0.552291 8.91368 -6.5918e-06 8.91368C 0.552278 8.91368 0.999993 8.46597 0.999993 7.91368L -1.00001 7.91368ZM -1.00001 5.24843e-06L -1.00001 7.91368L 0.999993 7.91368L 0.999993 5.24843e-06L -1.00001 5.24843e-06Z"/>
<path id="path5_stroke" d="M 3.15118e-06 -0.999996C -0.552282 -0.999996 -0.999997 -0.552281 -0.999997 4.02832e-06C -0.999997 0.552289 -0.552282 1 3.15118e-06 1L 3.15118e-06 -0.999996ZM 7.91903 1C 8.47132 1 8.91903 0.552289 8.91903 4.02832e-06C 8.91903 -0.552281 8.47132 -0.999996 7.91903 -0.999996L 7.91903 1ZM 3.15118e-06 1L 7.91903 1L 7.91903 -0.999996L 3.15118e-06 -0.999996L 3.15118e-06 1Z"/>
<path id="path6_stroke" d="M 1.00001 -6.08818e-06C 1.00001 -0.552291 0.55229 -1.00001 5.61523e-06 -1.00001C -0.552279 -1.00001 -0.999994 -0.552291 -0.999994 -6.08818e-06L 1.00001 -6.08818e-06ZM -0.999994 7.91369C -0.999994 8.46597 -0.552279 8.91369 5.61523e-06 8.91369C 0.55229 8.91369 1.00001 8.46597 1.00001 7.91369L -0.999994 7.91369ZM -0.999994 -6.08818e-06L -0.999994 7.91369L 1.00001 7.91369L 1.00001 -6.08818e-06L -0.999994 -6.08818e-06Z"/>
<path id="path7_stroke" d="M -6.51245e-06 -1C -0.552291 -1 -1.00001 -0.552287 -1.00001 -2.0752e-06C -1.00001 0.552283 -0.552291 0.999998 -6.51245e-06 0.999998L -6.51245e-06 -1ZM 7.91816 0.999998C 8.47044 0.999998 8.91816 0.552283 8.91816 -2.0752e-06C 8.91816 -0.552287 8.47044 -1 7.91816 -1L 7.91816 0.999998ZM -6.51245e-06 0.999998L 7.91816 0.999998L 7.91816 -1L -6.51245e-06 -1L -6.51245e-06 0.999998Z"/>
<path id="path8_fill" fill-rule="evenodd" d="M 50.6096 93.9551L 87.605 0L 47.0581 62.4385L 43.8025 63.6278L 40.5469 62.4385L 0 0.297327L 36.9954 94.2524C 29.3003 98.1177 29.3003 108.821 27.5245 112.389C 33.4438 116.255 54.4572 116.255 60.3764 112.389C 58.6006 108.524 58.6006 97.8203 50.6096 93.9551Z"/>
<path id="path9_fill" fill-rule="evenodd" d="M 43.2106 0L 56.2329 30.3273L 86.4211 32.7059L 60.0804 48.4642L 65.4078 71.3583L 43.2106 59.7626L 21.0134 71.3583L 26.3407 48.4642L -1.41126e-07 32.7059L 30.1882 30.3273L 43.2106 0Z"/>
<path id="path10_fill" fill-rule="evenodd" d="M 2.3677 4.53684e-06L 70.4391 4.53684e-06C 71.623 4.53684e-06 72.8068 0.891974 72.8068 2.08128L 72.8068 36.5711C 72.8068 37.7604 71.623 38.6524 70.4391 38.6524L 2.3677 38.6524C 1.18385 38.6524 -2.82252e-07 37.7604 -2.82252e-07 36.5711L -2.82252e-07 2.08128C -2.82252e-07 0.891974 1.18385 4.53684e-06 2.3677 4.53684e-06Z"/>
<path id="path11_fill" fill-rule="evenodd" d="M 72.8068 -4.53684e-06L 72.8068 3.56791C 72.8068 4.75722 71.623 5.6492 70.4391 5.6492L 2.3677 5.6492C 1.18385 5.6492 -2.82252e-07 4.75722 -2.82252e-07 3.56791L -2.82252e-07 -4.53684e-06L 72.8068 -4.53684e-06Z"/>
<path id="path12_fill" fill-rule="evenodd" d="M 1.18385 -4.53684e-06L 35.5155 -4.53684e-06C 36.1075 -4.53684e-06 36.6994 0.594653 36.6994 1.18931L 36.6994 18.7316C 36.6994 19.3262 36.1075 19.9209 35.5155 19.9209L 1.18385 19.9209C 0.591927 19.9209 -5.64504e-07 19.3262 -5.64504e-07 18.7316L -5.64504e-07 1.18931C -5.64504e-07 0.594653 0.591927 -4.53684e-06 1.18385 -4.53684e-06Z"/>
<path id="path13_fill" d="M 85.8292 -4.53684e-06L 0 -4.53684e-06L 0 10.7037L 85.8292 10.7037L 85.8292 -4.53684e-06Z"/>
<path id="path14_fill" d="M 100.035 -9.07368e-06L 0 -9.07368e-06L 0 7.73049L 100.035 7.73049L 100.035 -9.07368e-06Z"/>
<path id="path15_fill" d="M 85.8292 -4.53684e-06L 0 -4.53684e-06L 0 3.27058L 85.8292 3.27058L 85.8292 -4.53684e-06Z"/>
<path id="path16_fill" fill-rule="evenodd" d="M -2.25802e-06 4.53684e-06L 59.7845 4.53684e-06L 51.2016 72.2503L 8.87888 72.2503L -2.25802e-06 4.53684e-06Z"/>
<path id="path17_fill" fill-rule="evenodd" d="M 42.9146 9.07368e-06L 42.6186 2.67593L 0.295961 2.67593L 2.25802e-06 9.07368e-06L 42.9146 9.07368e-06Z"/>
<path id="path18_fill" d="M 51.7935 -9.07368e-06L 2.25802e-06 -9.07368e-06L 2.25802e-06 6.54118L 51.7935 6.54118L 51.7935 -9.07368e-06Z"/>
<path id="path19_fill" d="M 62.1522 9.07368e-06L 0 9.07368e-06L 0 6.54118L 62.1522 6.54118L 62.1522 9.07368e-06Z"/>
<path id="path20_fill" d="M 23.3811 2.26842e-06L 4.51603e-06 2.26842e-06L 4.51603e-06 6.54118L 23.3811 6.54118L 23.3811 2.26842e-06Z"/>
<path id="path21_fill" fill-rule="evenodd" d="M 20.7174 -2.26842e-06L 48.2419 18.7316L 78.1342 5.94652L 68.6634 36.5711L 101.811 65.4118L 60.3764 65.4118L 47.354 108.227L 30.7801 63.3305L 2.10294e-14 56.7893L 22.4932 37.1658L 20.7174 -2.26842e-06ZM 30.4842 17.5423L 31.668 41.6257L 19.5335 52.0321L 37.2913 55.8973L 46.4662 80.5754L 53.5693 56.7893L 77.5423 56.7893L 58.3047 39.8417L 63.928 22.0021L 47.354 28.8406L 30.4842 17.5423Z"/>
<path id="path22_fill" d="M 51.7935 -4.53684e-06L 2.25802e-06 -4.53684e-06L 2.25802e-06 2.08129L 51.7935 2.08129L 51.7935 -4.53684e-06Z"/>
<path id="path23_fill" d="M 23.3811 9.07368e-06L 4.51603e-06 9.07368e-06L 4.51603e-06 1.78396L 23.3811 1.78396L 23.3811 9.07368e-06Z"/>
</defs>
</svg>
