<svg width="422" height="217" viewBox="0 0 422 217" version="1.1" xmlns="http://www.w3.org/2000/svg" xmlns:xlink="http://www.w3.org/1999/xlink">
<title>icon</title>
<desc>Created using Figma</desc>
<g id="Canvas" transform="translate(-12906 946)">
<g id="icon">
<g id="Rectangle">
<use xlink:href="#path0_fill" transform="translate(13028 -868.714)" fill="#FFFFFF"/>
<mask id="mask0_outline_ins">
<use xlink:href="#path0_fill" fill="white" transform="translate(13028 -868.714)"/>
</mask>
<g mask="url(#mask0_outline_ins)">
<use xlink:href="#path1_stroke_2x" transform="translate(13028 -868.714)" fill="#455A64"/>
</g>
</g>
<g id="Rectangle">
<use xlink:href="#path2_fill" transform="translate(13131.1 -791.571)" fill="#FFECB3"/>
<mask id="mask1_outline_ins">
<use xlink:href="#path2_fill" fill="white" transform="translate(13131.1 -791.571)"/>
</mask>
<g mask="url(#mask1_outline_ins)">
<use xlink:href="#path3_stroke_2x" transform="translate(13131.1 -791.571)" fill="#455A64"/>
</g>
</g>
<g id="Rectangle">
<use xlink:href="#path4_fill" transform="matrix(-1 0 0 1 13211 -870.429)" fill="#96D67C"/>
<mask id="mask2_outline_ins">
<use xlink:href="#path4_fill" fill="white" transform="matrix(-1 0 0 1 13211 -870.429)"/>
</mask>
<g mask="url(#mask2_outline_ins)">
<use xlink:href="#path5_stroke_2x" transform="matrix(-1 0 0 1 13211 -870.429)" fill="#455A64"/>
</g>
</g>
<g id="Ellipse">
<use xlink:href="#path6_fill" transform="translate(13089 -910.714)" fill="#FFFFFF"/>
<mask id="mask3_outline_ins">
<use xlink:href="#path6_fill" fill="white" transform="translate(13089 -910.714)"/>
</mask>
<g mask="url(#mask3_outline_ins)">
<use xlink:href="#path7_stroke_2x" transform="translate(13089 -910.714)" fill="#FFFFFF"/>
</g>
</g>
<g id="Polygon">
<use xlink:href="#path8_fill" transform="translate(13077 -871.286)" fill="#488DAB"/>
<mask id="mask4_outline_ins">
<use xlink:href="#path8_fill" fill="white" transform="translate(13077 -871.286)"/>
</mask>
<g mask="url(#mask4_outline_ins)">
<use xlink:href="#path9_stroke_2x" transform="translate(13077 -871.286)" fill="#455A64"/>
</g>
</g>
<g id="Vector">
<use xlink:href="#path10_fill" transform="translate(13054.6 -945)" fill="#EB5757"/>
<use xlink:href="#path11_stroke" transform="translate(13054.6 -945)" fill="#455A64"/>
</g>
<g id="Group">
<g id="Vector">
<use xlink:href="#path12_stroke" transform="translate(13283.5 -732.713)" fill="#455A64"/>
</g>
<g id="Vector">
<use xlink:href="#path13_stroke" transform="translate(13274 -738.093)" fill="#455A64"/>
</g>
</g>
<g id="Group">
<g id="Vector">
<use xlink:href="#path14_stroke" transform="translate(12916.8 -876.566)" fill="#455A64"/>
</g>
<g id="Vector">
<use xlink:href="#path15_stroke" transform="translate(12907.3 -881.945)" fill="#455A64"/>
</g>
</g>
<g id="Group">
<g id="Vector">
<use xlink:href="#path16_stroke" transform="translate(13009.9 -922)" fill="#455A64"/>
</g>
<g id="Vector">
<use xlink:href="#path17_stroke" transform="translate(13005.3 -917.399)" fill="#455A64"/>
</g>
</g>
<g id="Group">
<g id="Vector">
<use xlink:href="#path18_stroke" transform="translate(13264.3 -852.226)" fill="#455A64"/>
</g>
<g id="Vector">
<use xlink:href="#path19_stroke" transform="translate(13259.7 -847.624)" fill="#455A64"/>
</g>
</g>
</g>
</g>
<defs>
<path id="path0_fill" d="M 0 10C 0 4.47715 4.47715 0 10 0L 50.6901 0L 50.6901 139.714L 10 139.714C 4.47715 139.714 0 135.237 0 129.714L 0 10Z"/>
<path id="path1_stroke_2x" d="M 50.6901 0L 52.6901 0L 52.6901 -2L 50.6901 -2L 50.6901 0ZM 50.6901 139.714L 50.6901 141.714L 52.6901 141.714L 52.6901 139.714L 50.6901 139.714ZM 10 2L 50.6901 2L 50.6901 -2L 10 -2L 10 2ZM 48.6901 0L 48.6901 139.714L 52.6901 139.714L 52.6901 0L 48.6901 0ZM 50.6901 137.714L 10 137.714L 10 141.714L 50.6901 141.714L 50.6901 137.714ZM 2 129.714L 2 10L -2 10L -2 129.714L 2 129.714ZM 10 137.714C 5.58172 137.714 2 134.133 2 129.714L -2 129.714C -2 136.342 3.37258 141.714 10 141.714L 10 137.714ZM 10 -2C 3.37258 -2 -2 3.37258 -2 10L 2 10C 2 5.58172 5.58172 2 10 2L 10 -2Z"/>
<path id="path2_fill" d="M 0 0L 79.9014 0L 79.9014 52.5714C 79.9014 58.0943 75.4243 62.5714 69.9014 62.5714L 0 62.5714L 0 0Z"/>
<path id="path3_stroke_2x" d="M 0 0L 0 -2L -2 -2L -2 0L 0 0ZM 79.9014 0L 81.9014 0L 81.9014 -2L 79.9014 -2L 79.9014 0ZM 0 62.5714L -2 62.5714L -2 64.5714L 0 64.5714L 0 62.5714ZM 0 2L 79.9014 2L 79.9014 -2L 0 -2L 0 2ZM 77.9014 0L 77.9014 52.5714L 81.9014 52.5714L 81.9014 0L 77.9014 0ZM 69.9014 60.5714L 0 60.5714L 0 64.5714L 69.9014 64.5714L 69.9014 60.5714ZM 2 62.5714L 2 0L -2 0L -2 62.5714L 2 62.5714ZM 77.9014 52.5714C 77.9014 56.9897 74.3197 60.5714 69.9014 60.5714L 69.9014 64.5714C 76.5288 64.5714 81.9014 59.1988 81.9014 52.5714L 77.9014 52.5714Z"/>
<path id="path4_fill" d="M 0 10C 0 4.47715 4.47715 0 10 0L 79.9014 0L 79.9014 80.5714L 0 80.5714L 0 10Z"/>
<path id="path5_stroke_2x" d="M 79.9014 0L 81.9014 0L 81.9014 -2L 79.9014 -2L 79.9014 0ZM 79.9014 80.5714L 79.9014 82.5714L 81.9014 82.5714L 81.9014 80.5714L 79.9014 80.5714ZM 0 80.5714L -2 80.5714L -2 82.5714L 0 82.5714L 0 80.5714ZM 10 2L 79.9014 2L 79.9014 -2L 10 -2L 10 2ZM 77.9014 0L 77.9014 80.5714L 81.9014 80.5714L 81.9014 0L 77.9014 0ZM 79.9014 78.5714L 0 78.5714L 0 82.5714L 79.9014 82.5714L 79.9014 78.5714ZM 2 80.5714L 2 10L -2 10L -2 80.5714L 2 80.5714ZM 10 -2C 3.37258 -2 -2 3.37258 -2 10L 2 10C 2 5.58172 5.58172 2 10 2L 10 -2Z"/>
<path id="path6_fill" d="M 58.4225 31.2857C 58.4225 48.5643 45.3442 62.5714 29.2113 62.5714C 13.0783 62.5714 0 48.5643 0 31.2857C 0 14.0071 13.0783 0 29.2113 0C 45.3442 0 58.4225 14.0071 58.4225 31.2857Z"/>
<path id="path7_stroke_2x" d="M 57.4225 31.2857C 57.4225 48.0778 44.7284 61.5714 29.2113 61.5714L 29.2113 63.5714C 45.96 63.5714 59.4225 49.0509 59.4225 31.2857L 57.4225 31.2857ZM 29.2113 61.5714C 13.6941 61.5714 1 48.0778 1 31.2857L -1 31.2857C -1 49.0509 12.4625 63.5714 29.2113 63.5714L 29.2113 61.5714ZM 1 31.2857C 1 14.4936 13.6941 1 29.2113 1L 29.2113 -1C 12.4625 -1 -1 13.5205 -1 31.2857L 1 31.2857ZM 29.2113 1C 44.7284 1 57.4225 14.4936 57.4225 31.2857L 59.4225 31.2857C 59.4225 13.5205 45.96 -1 29.2113 -1L 29.2113 1Z"/>
<path id="path8_fill" d="M 0 0L 122.357 142.286L 0 142.286L 0 0Z"/>
<path id="path9_stroke_2x" d="M 0 0L 1.51642 -1.30403L -2 -5.39317L -2 0L 0 0ZM 122.357 142.286L 122.357 144.286L 126.715 144.286L 123.874 140.982L 122.357 142.286ZM 0 142.286L -2 142.286L -2 144.286L 0 144.286L 0 142.286ZM -1.51642 1.30403L 120.841 143.59L 123.874 140.982L 1.51642 -1.30403L -1.51642 1.30403ZM 122.357 140.286L 0 140.286L 0 144.286L 122.357 144.286L 122.357 140.286ZM 2 142.286L 2 0L -2 0L -2 142.286L 2 142.286Z"/>
<path id="path10_fill" d="M 64.4366 -7.30747e-05C 28.8493 -7.30747e-05 0 25.9414 0 64.2856C 0 78.1052 5.95114 96.8897 11.9208 108L 64.4366 205.714L 116.952 108C 122.922 96.8897 128.873 78.1052 128.873 64.2856C 128.873 25.9414 100.024 -7.30747e-05 64.4366 -7.30747e-05ZM 64.4366 35.9999C 80.0951 35.9999 92.7887 48.6643 92.7887 64.2856C 92.7887 79.9073 80.0951 92.5713 64.4366 92.5713C 48.7782 92.5713 36.0845 79.9073 36.0845 64.2856C 36.0845 48.6643 48.7782 35.9999 64.4366 35.9999Z"/>
<path id="path11_stroke" d="M 11.9208 108L 11.0399 108.473L 11.0399 108.473L 11.9208 108ZM 64.4366 205.714L 63.5558 206.188C 63.7301 206.512 64.0685 206.714 64.4366 206.714C 64.8048 206.714 65.1432 206.512 65.3175 206.188L 64.4366 205.714ZM 116.952 108L 117.833 108.473L 117.833 108.473L 116.952 108ZM 64.4366 -1.00007C 28.3287 -1.00007 -1 25.3579 -1 64.2856L 1 64.2856C 1 26.5248 29.3699 0.999927 64.4366 0.999927L 64.4366 -1.00007ZM -1 64.2856C -1 78.3116 5.0142 97.2588 11.0399 108.473L 12.8017 107.527C 6.88807 96.5207 1 77.8988 1 64.2856L -1 64.2856ZM 11.0399 108.473L 63.5558 206.188L 65.3175 205.241L 12.8016 107.526L 11.0399 108.473ZM 65.3175 206.188L 117.833 108.473L 116.072 107.526L 63.5558 205.241L 65.3175 206.188ZM 117.833 108.473C 123.859 97.2588 129.873 78.3116 129.873 64.2856L 127.873 64.2856C 127.873 77.8988 121.985 96.5207 116.072 107.527L 117.833 108.473ZM 129.873 64.2856C 129.873 25.3579 100.545 -1.00007 64.4366 -1.00007L 64.4366 0.999927C 99.5034 0.999927 127.873 26.5248 127.873 64.2856L 129.873 64.2856ZM 64.4366 36.9999C 79.545 36.9999 91.7887 49.2188 91.7887 64.2856L 93.7887 64.2856C 93.7887 48.1098 80.6451 34.9999 64.4366 34.9999L 64.4366 36.9999ZM 91.7887 64.2856C 91.7887 79.3528 79.545 91.5713 64.4366 91.5713L 64.4366 93.5713C 80.6451 93.5713 93.7887 80.4618 93.7887 64.2856L 91.7887 64.2856ZM 64.4366 91.5713C 49.3283 91.5713 37.0845 79.3528 37.0845 64.2856L 35.0845 64.2856C 35.0845 80.4618 48.2281 93.5713 64.4366 93.5713L 64.4366 91.5713ZM 37.0845 64.2856C 37.0845 49.2188 49.3283 36.9999 64.4366 36.9999L 64.4366 34.9999C 48.2281 34.9999 35.0845 48.1098 35.0845 64.2856L 37.0845 64.2856Z"/>
<path id="path12_stroke" d="M -7.08008e-06 -1.00001C -0.552292 -1.00001 -1.00001 -0.552291 -1.00001 -6.5918e-06C -1.00001 0.552278 -0.552292 0.999993 -7.08008e-06 0.999993L -7.08008e-06 -1.00001ZM 42.956 0.999993C 43.5083 0.999993 43.956 0.552278 43.956 -6.5918e-06C 43.956 -0.552291 43.5083 -1.00001 42.956 -1.00001L 42.956 0.999993ZM -7.08008e-06 0.999993L 42.956 0.999993L 42.956 -1.00001L -7.08008e-06 -1.00001L -7.08008e-06 0.999993Z"/>
<path id="path13_stroke" d="M 1.31836e-05 -1.00001C -0.552272 -1.00001 -0.999987 -0.552296 -0.999987 -1.14746e-05C -0.999987 0.552273 -0.552272 0.999988 1.31836e-05 0.999988L 1.31836e-05 -1.00001ZM 35.88 0.999988C 36.4323 0.999988 36.88 0.552273 36.88 -1.14746e-05C 36.88 -0.552296 36.4323 -1.00001 35.88 -1.00001L 35.88 0.999988ZM 1.31836e-05 0.999988L 35.88 0.999988L 35.88 -1.00001L 1.31836e-05 -1.00001L 1.31836e-05 0.999988Z"/>
<path id="path14_stroke" d="M 1.43433e-06 -1C -0.552283 -1 -0.999999 -0.552288 -0.999999 -3.41797e-06C -0.999999 0.552281 -0.552283 0.999997 1.43433e-06 0.999997L 1.43433e-06 -1ZM 42.956 0.999997C 43.5083 0.999997 43.956 0.552281 43.956 -3.41797e-06C 43.956 -0.552288 43.5083 -1 42.956 -1L 42.956 0.999997ZM 1.43433e-06 0.999997L 42.956 0.999997L 42.956 -1L 1.43433e-06 -1L 1.43433e-06 0.999997Z"/>
<path id="path15_stroke" d="M -1.19019e-06 -1C -0.552286 -1 -1 -0.552286 -1 -1.2207e-06C -1 0.552284 -0.552286 0.999999 -1.19019e-06 0.999999L -1.19019e-06 -1ZM 35.881 0.999999C 36.4333 0.999999 36.881 0.552284 36.881 -1.2207e-06C 36.881 -0.552286 36.4333 -1 35.881 -1L 35.881 0.999999ZM -1.19019e-06 0.999999L 35.881 0.999999L 35.881 -1L -1.19019e-06 -1L -1.19019e-06 0.999999Z"/>
<path id="path16_stroke" d="M 0.999993 6.10352e-06C 0.999993 -0.552279 0.552278 -0.999994 -6.5918e-06 -0.999994C -0.552291 -0.999994 -1.00001 -0.552279 -1.00001 6.10352e-06L 0.999993 6.10352e-06ZM -1.00001 9.20299C -1.00001 9.75528 -0.552291 10.203 -6.5918e-06 10.203C 0.552278 10.203 0.999993 9.75528 0.999993 9.20299L -1.00001 9.20299ZM -1.00001 6.10352e-06L -1.00001 9.20299L 0.999993 9.20299L 0.999993 6.10352e-06L -1.00001 6.10352e-06Z"/>
<path id="path17_stroke" d="M 3.66211e-06 -0.999996C -0.552281 -0.999996 -0.999996 -0.552281 -0.999996 4.02832e-06C -0.999996 0.552289 -0.552281 1 3.66211e-06 1L 3.66211e-06 -0.999996ZM 9.20301 1C 9.75529 1 10.203 0.552289 10.203 4.02832e-06C 10.203 -0.552281 9.75529 -0.999996 9.20301 -0.999996L 9.20301 1ZM 3.66211e-06 1L 9.20301 1L 9.20301 -0.999996L 3.66211e-06 -0.999996L 3.66211e-06 1Z"/>
<path id="path18_stroke" d="M 1.00001 -7.08008e-06C 1.00001 -0.552292 0.55229 -1.00001 5.61523e-06 -1.00001C -0.552279 -1.00001 -0.999994 -0.552292 -0.999994 -7.08008e-06L 1.00001 -7.08008e-06ZM -0.999994 9.203C -0.999994 9.75528 -0.552279 10.203 5.61523e-06 10.203C 0.55229 10.203 1.00001 9.75528 1.00001 9.203L -0.999994 9.203ZM -0.999994 -7.08008e-06L -0.999994 9.203L 1.00001 9.203L 1.00001 -7.08008e-06L -0.999994 -7.08008e-06Z"/>
<path id="path19_stroke" d="M -7.56836e-06 -1C -0.552292 -1 -1.00001 -0.552287 -1.00001 -2.0752e-06C -1.00001 0.552283 -0.552292 0.999998 -7.56836e-06 0.999998L -7.56836e-06 -1ZM 9.20199 0.999998C 9.75427 0.999998 10.202 0.552283 10.202 -2.0752e-06C 10.202 -0.552287 9.75427 -1 9.20199 -1L 9.20199 0.999998ZM -7.56836e-06 0.999998L 9.20199 0.999998L 9.20199 -1L -7.56836e-06 -1L -7.56836e-06 0.999998Z"/>
</defs>
</svg>
