<svg width="24" height="27" viewBox="0 0 24 27" version="1.1" xmlns="http://www.w3.org/2000/svg" xmlns:xlink="http://www.w3.org/1999/xlink">
<title>Incon Skype</title>
<desc>Created using Figma</desc>
<g id="Canvas" transform="translate(-15410 260)">
<g id="Incon Skype">
<g id="Skype">
<use xlink:href="#path0_fill" transform="translate(15415 -253.903)" fill="#0C90C8"/>
</g>
<g id="Rectangle">
<mask id="mask0_outline_ins">
<use xlink:href="#path1_fill" fill="white" transform="translate(15410 -259.202)"/>
</mask>
<g mask="url(#mask0_outline_ins)">
<use xlink:href="#path2_stroke_2x" transform="translate(15410 -259.202)" fill="#0C90C8"/>
</g>
</g>
</g>
</g>
<defs>
<path id="path0_fill" d="M 13.4156 8.49366C 13.4678 8.14332 13.4954 7.78491 13.4954 7.41908C 13.4954 3.61674 10.5873 0.534567 6.99976 0.534567C 6.65551 0.534567 6.31638 0.564616 5.98613 0.619366C 5.3879 0.22704 4.68183 0 3.92515 0C 1.75738 0 -3.6377e-12 1.86241 -3.6377e-12 4.16027C -3.6377e-12 4.96211 0.214339 5.70984 0.58433 6.34518C 0.53313 6.69611 0.504942 7.05339 0.504942 7.41922C 0.504942 11.2218 3.41292 14.3031 6.99963 14.3031C 7.34416 14.3031 7.68339 14.2749 8.01361 14.2197C 8.61246 14.6113 9.31794 14.8389 10.0745 14.8389C 12.2428 14.8389 14 12.976 14 10.6782C 14.0002 9.87608 13.786 9.12852 13.4156 8.49366ZM 10.0837 10.5502C 9.80895 10.9695 9.4053 11.2971 8.87787 11.5327C 8.34936 11.769 7.7247 11.8865 7.00334 11.8865C 6.13875 11.8865 5.42292 11.7261 4.8579 11.4023C 4.45737 11.1705 4.13162 10.8594 3.88118 10.4715C 3.63022 10.0834 3.50299 9.70321 3.50299 9.33255C 3.50299 9.11389 3.58166 8.92373 3.7348 8.76869C 3.88955 8.61251 4.08885 8.53423 4.32408 8.53423C 4.51678 8.53423 4.68229 8.59575 4.81705 8.71763C 4.95079 8.83948 5.06299 9.01664 5.15475 9.25041C 5.26473 9.52122 5.38419 9.74761 5.5113 9.92825C 5.63762 10.1066 5.81541 10.2556 6.04566 10.3722C 6.27338 10.489 6.57645 10.5475 6.95568 10.5475C 7.47469 10.5475 7.89412 10.4285 8.21513 10.1938C 8.53776 9.95688 8.69273 9.66868 8.69273 9.32044C 8.69273 9.04268 8.60917 8.8221 8.43783 8.65012C 8.26493 8.4759 8.04164 8.34321 7.76454 8.25065C 7.48637 8.15712 7.1129 8.05794 6.64487 7.95344C 6.0164 7.80806 5.49079 7.63884 5.06514 7.4445C 4.63893 7.24945 4.29951 6.9828 4.04793 6.64598C 3.79584 6.30585 3.67013 5.8831 3.67013 5.38238C 3.67013 4.90491 3.80283 4.47791 4.0685 4.10628C 4.33404 3.73362 4.71823 3.44838 5.21916 3.2497C 5.71834 3.05109 6.30603 2.95173 6.97928 2.95173C 7.51768 2.95173 7.9834 3.01776 8.37761 3.14913C 8.77075 3.28147 9.09846 3.45611 9.36048 3.67525C 9.62084 3.8939 9.81243 4.12453 9.93377 4.36654C 10.055 4.60928 10.1161 4.84636 10.1161 5.07771C 10.1161 5.29282 10.0374 5.48791 9.8841 5.65889C 9.73083 5.83011 9.53475 5.91739 9.30576 5.9166C 9.09933 5.9166 8.9374 5.86613 8.8251 5.75928C 8.71574 5.65592 8.60087 5.49136 8.47663 5.26201C 8.31958 4.94199 8.13147 4.69267 7.91274 4.51434C 7.69977 4.33932 7.34839 4.24821 6.85947 4.24932C 6.40709 4.24932 6.04514 4.34729 5.77195 4.5389C 5.49707 4.73358 5.36567 4.95945 5.36505 5.22409C 5.36551 5.38993 5.41049 5.52976 5.50101 5.64933C 5.59293 5.77001 5.72082 5.87458 5.88519 5.96272C 6.04963 6.05225 6.21691 6.12149 6.38499 6.17131C 6.55506 6.2224 6.83724 6.29626 7.22946 6.39407C 7.72135 6.50643 8.16751 6.63198 8.56842 6.7688C 8.96855 6.90631 9.31003 7.07215 9.59213 7.26973C 9.87649 7.46672 10.0987 7.71788 10.2574 8.02123C 10.4172 8.32506 10.4968 8.69617 10.4968 9.13287C 10.4974 9.65871 10.3592 10.1316 10.0837 10.5502Z"/>
<path id="path1_fill" d="M 0 5C 0 2.23858 2.23858 0 5 0L 19 0C 21.7614 0 24 2.23858 24 5L 24 20.4381C 24 23.1996 21.7614 25.4381 19 25.4381L 5 25.4381C 2.23858 25.4381 0 23.1996 0 20.4381L 0 5Z"/>
<path id="path2_stroke_2x" d="M 5 1L 19 1L 19 -1L 5 -1L 5 1ZM 23 5L 23 20.4381L 25 20.4381L 25 5L 23 5ZM 19 24.4381L 5 24.4381L 5 26.4381L 19 26.4381L 19 24.4381ZM 1 20.4381L 1 5L -1 5L -1 20.4381L 1 20.4381ZM 5 24.4381C 2.79086 24.4381 1 22.6473 1 20.4381L -1 20.4381C -1 23.7519 1.68629 26.4381 5 26.4381L 5 24.4381ZM 23 20.4381C 23 22.6473 21.2091 24.4381 19 24.4381L 19 26.4381C 22.3137 26.4381 25 23.7519 25 20.4381L 23 20.4381ZM 19 1C 21.2091 1 23 2.79086 23 5L 25 5C 25 1.68629 22.3137 -1 19 -1L 19 1ZM 5 -1C 1.68629 -1 -1 1.68629 -1 5L 1 5C 1 2.79086 2.79086 1 5 1L 5 -1Z"/>
</defs>
</svg>
