<svg width="24" height="27" viewBox="0 0 24 27" version="1.1" xmlns="http://www.w3.org/2000/svg" xmlns:xlink="http://www.w3.org/1999/xlink">
<title>Phone Icon</title>
<desc>Created using Figma</desc>
<g id="Canvas" transform="translate(-15410 391)">
<g id="Phone Icon">
<g id="Rectangle">
<mask id="mask0_outline_ins">
<use xlink:href="#path0_fill" fill="white" transform="translate(15410 -390.382)"/>
</mask>
<g mask="url(#mask0_outline_ins)">
<use xlink:href="#path1_stroke_2x" transform="translate(15410 -390.382)" fill="#0C90C8"/>
</g>
</g>
<g id="Vector">
<use xlink:href="#path2_fill" transform="translate(15415 -385.359)" fill="#0C90C8"/>
</g>
</g>
</g>
<defs>
<path id="path0_fill" d="M 0 5C 0 2.23858 2.23858 0 5 0L 19 0C 21.7614 0 24 2.23858 24 5L 24 20.4381C 24 23.1996 21.7614 25.4381 19 25.4381L 5 25.4381C 2.23858 25.4381 0 23.1996 0 20.4381L 0 5Z"/>
<path id="path1_stroke_2x" d="M 5 1L 19 1L 19 -1L 5 -1L 5 1ZM 23 5L 23 20.4381L 25 20.4381L 25 5L 23 5ZM 19 24.4381L 5 24.4381L 5 26.4381L 19 26.4381L 19 24.4381ZM 1 20.4381L 1 5L -1 5L -1 20.4381L 1 20.4381ZM 5 24.4381C 2.79086 24.4381 1 22.6473 1 20.4381L -1 20.4381C -1 23.7519 1.68629 26.4381 5 26.4381L 5 24.4381ZM 23 20.4381C 23 22.6473 21.2091 24.4381 19 24.4381L 19 26.4381C 22.3137 26.4381 25 23.7519 25 20.4381L 23 20.4381ZM 19 1C 21.2091 1 23 2.79086 23 5L 25 5C 25 1.68629 22.3137 -1 19 -1L 19 1ZM 5 -1C 1.68629 -1 -1 1.68629 -1 5L 1 5C 1 2.79086 2.79086 1 5 1L 5 -1Z"/>
<path id="path2_fill" d="M 8.89769 10.467C 8.71014 10.4835 8.53821 10.3845 8.36629 10.2854C 6.78771 9.31157 5.44357 7.92507 4.50581 6.27446C 4.33388 5.99386 4.17759 5.66374 4.24011 5.33362C 4.34951 4.70639 5.09973 4.4588 5.31854 3.86458C 5.52172 3.35289 5.25602 2.77518 4.94343 2.32951C 4.42766 1.58674 3.77122 0.943005 3.02101 0.464329C 2.66153 0.233244 2.27079 0.0351714 1.84879 0.00215929C -0.0423725 -0.0968771 -0.151779 3.23735 0.0982929 4.54133C 0.363994 5.89482 1.0048 7.14928 1.75502 8.2882C 3.52115 10.9952 5.94372 13.2895 8.88206 14.3789C 9.91361 14.7586 11.0233 14.9897 12.0861 14.7256C 12.6175 14.5935 13.1177 14.3459 13.4928 13.9168C 13.8679 13.5041 14.071 12.9099 13.9773 12.3487C 13.8835 11.771 13.5084 11.3088 13.1333 10.8962C 12.5862 10.3019 11.9767 9.77375 11.3203 9.31158C 11.1952 9.22905 11.0702 9.14651 10.9295 9.13001C 10.7732 9.1135 10.6326 9.19603 10.4919 9.27856C 10.1012 9.50965 9.74168 9.79025 9.42909 10.1039C 9.28843 10.2524 9.13213 10.401 8.94458 10.434C 8.92895 10.4505 8.91332 10.467 8.89769 10.467Z"/>
</defs>
</svg>
