<svg width="56" height="56" viewBox="0 0 56 56" version="1.1" xmlns="http://www.w3.org/2000/svg" xmlns:xlink="http://www.w3.org/1999/xlink">
<title>icon</title>
<desc>Created using Figma</desc>
<g id="Canvas" transform="translate(-20639 512)">
<g id="icon">
<g id="Vector">
<use xlink:href="#path0_fill" transform="translate(20639 -512)" fill="#007CB1"/>
</g>
<g id="Vector">
<use xlink:href="#path1_fill" transform="translate(20654.5 -496.635)" fill="#007CB1"/>
</g>
</g>
</g>
<defs>
<path id="path0_fill" d="M 54.941 23.1101L 49.5217 21.1791L 48.0267 17.5039L 50.5184 12.3337C 50.8298 11.7108 50.7052 11.0256 50.2069 10.5895L 45.4105 5.7931C 44.9744 5.35706 44.2269 5.23248 43.6663 5.48165L 38.4961 7.9733L 34.8209 6.47831L 32.8899 1.05895C 32.6407 0.43604 32.0801 1.18811e-07 31.3949 1.18811e-07L 24.6051 1.18811e-07C 23.9199 1.18811e-07 23.3593 0.43604 23.1101 1.05895L 21.1791 6.47831L 17.5039 7.9733L 12.3337 5.48165C 11.7108 5.17019 11.0256 5.29477 10.5895 5.7931L 5.7931 10.5895C 5.35706 11.0256 5.23248 11.7731 5.48165 12.3337L 7.9733 17.5039L 6.47831 21.1791L 1.05895 23.1101C 0.43604 23.3593 -5.94057e-08 23.9199 -5.94057e-08 24.6051L -5.94057e-08 31.3949C -5.94057e-08 32.0801 0.43604 32.6407 1.05895 32.8899L 6.47831 34.8209L 7.9733 38.4961L 5.48165 43.6663C 5.17019 44.2892 5.29477 44.9744 5.7931 45.4104L 10.5895 50.2069C 11.0256 50.6429 11.7731 50.7675 12.3337 50.5184L 17.5039 48.0267L 21.1791 49.5217L 23.1101 54.941C 23.3593 55.564 23.9199 56 24.6051 56L 31.3949 56C 32.0801 56 32.6407 55.564 32.8899 54.941L 34.8209 49.5217L 38.4961 48.0267L 43.6663 50.5184C 44.2892 50.8298 44.9744 50.7052 45.4105 50.2069L 50.2069 45.4104C 50.6429 44.9744 50.7675 44.2269 50.5184 43.6663L 48.0267 38.4961L 49.5217 34.8209L 54.941 32.8899C 55.564 32.6407 56 32.0801 56 31.3949L 56 24.6051C 56 23.9199 55.564 23.3593 54.941 23.1101ZM 52.8854 30.2736L 47.8398 32.0801C 47.4038 32.2047 47.0923 32.5161 46.9055 32.9522L 44.8498 37.8732C 44.663 38.3092 44.663 38.7453 44.9121 39.119L 47.2169 43.9778L 43.9778 47.2169L 39.119 44.9121C 38.7453 44.7253 38.2469 44.7253 37.8732 44.8498L 32.9522 46.9677C 32.5161 47.1546 32.2047 47.4661 32.0801 47.9021L 30.2736 52.9477L 25.6641 52.9477L 23.8576 47.9021C 23.733 47.4661 23.4216 47.1546 22.9855 46.9677L 18.0645 44.9121C 17.6285 44.7253 17.1924 44.7252 16.8187 44.9744L 11.96 47.2792L 8.7208 44.04L 11.0256 39.1813C 11.2125 38.8076 11.2125 38.3092 11.0879 37.9355L 9.03226 33.0145C 8.84538 32.5784 8.53393 32.267 8.09789 32.1424L 3.05228 30.2736L 3.05228 25.6641L 8.09789 23.8576C 8.53393 23.733 8.84538 23.4216 9.03226 22.9855L 11.0879 18.0645C 11.2747 17.6285 11.2747 17.1924 11.0256 16.8187L 8.7208 11.96L 11.96 8.7208L 16.8187 11.0256C 17.1924 11.2125 17.6908 11.2125 18.0645 11.0879L 22.9855 9.03226C 23.4216 8.84538 23.733 8.53393 23.8576 8.09789L 25.6641 3.05228L 30.2736 3.05228L 32.0801 8.09789C 32.2047 8.53393 32.5161 8.84538 32.9522 9.03226L 37.8732 11.0879C 38.3092 11.2748 38.7453 11.2747 39.119 11.0256L 43.9778 8.7208L 47.2169 11.96L 44.9121 16.8187C 44.7253 17.1924 44.7253 17.6908 44.8498 18.0645L 46.9055 22.9855C 47.0923 23.4216 47.4038 23.733 47.8398 23.8576L 52.8854 25.6641L 52.8854 30.2736Z"/>
<path id="path1_fill" d="M 23.4057 17.9612L 17.8617 13.6631C 17.7371 13.1024 17.4257 12.5418 16.9896 12.2304L 18.36 10.8599C 18.7338 10.9222 19.1075 10.9845 19.4813 10.9845C 21.35 10.9845 23.2188 9.98787 24.2154 8.24371C 25.2744 6.43726 25.1498 4.13247 23.9663 2.45061C 23.8417 2.20144 23.5302 2.13915 23.2811 2.13915C 23.0319 2.13915 22.7827 2.32602 22.6582 2.5129L 21.4123 4.63081L 19.9173 4.63081L 19.2944 3.32268L 20.5402 1.20478C 20.6648 0.95561 20.6648 0.706445 20.5402 0.457279C 20.4157 0.208113 20.1665 0.0835299 19.9173 0.0212385C 17.7994 -0.165636 15.8061 0.893318 14.7471 2.69977C 14.0619 3.88331 13.8751 5.25372 14.1242 6.56184L 11.6949 8.99121L 6.21322 3.57185L 6.21322 2.32602C 6.21322 2.01456 6.02634 1.7654 5.77718 1.64081L 2.66261 0.0835301C 2.35115 -0.0410527 1.9774 0.021238 1.79053 0.208112L 0.23324 1.7654C -0.0159261 2.01456 -0.0782168 2.38831 0.108657 2.63748L 1.66594 5.75205C 1.79053 6.00122 2.03969 6.18809 2.35115 6.18809L 3.59698 6.18809L 9.07862 11.6697L 6.64926 14.0991C 5.83947 13.9122 4.96739 13.9122 4.09531 14.1614C 2.66261 14.5351 1.54136 15.4695 0.793862 16.7153C -0.265092 18.5218 -0.140508 20.8266 1.04303 22.5084C 1.16761 22.7576 1.47907 22.8822 1.72823 22.8199C 1.9774 22.8199 2.22657 22.633 2.35115 22.4462L 3.59698 20.3282L 5.09197 20.2037L 5.71489 21.5118L 4.46906 23.6297C 4.34448 23.8789 4.34448 24.128 4.46906 24.3772C 4.59364 24.6264 4.84281 24.7509 5.09197 24.8132C 5.21656 24.8132 5.40343 24.8132 5.52801 24.8132C 7.45905 24.8132 9.2655 23.7543 10.2622 22.0724C 10.9474 20.8889 11.1342 19.5185 10.8851 18.2103L 12.2555 16.8399C 12.6292 17.276 13.1276 17.6497 13.6882 17.712L 17.9863 23.2559C 18.7338 24.1903 19.855 24.7509 21.1009 24.7509C 23.2811 24.7509 25.0252 23.0068 25.0252 20.8266C 24.9006 19.8299 24.34 18.7087 23.4057 17.9612ZM 16.0553 3.50956C 16.5536 2.63748 17.4257 2.01456 18.36 1.70311L 17.6748 2.88664C 17.5503 3.13581 17.5503 3.38498 17.6748 3.63414L 18.7338 5.81434C 18.8584 6.1258 19.1698 6.25038 19.4813 6.25038L 21.9107 6.1258C 22.1598 6.1258 22.409 5.93893 22.5336 5.75205L 23.2188 4.56851C 23.4679 5.56518 23.3434 6.56184 22.845 7.49621C 21.7861 9.36495 19.3567 9.98787 17.5503 8.92891C 15.6192 7.74538 14.9963 5.3783 16.0553 3.50956ZM 14.7471 8.18142C 15.1832 8.9912 15.8684 9.67641 16.7405 10.1747L 14.9963 11.9189L 14.7471 12.1681L 12.7538 10.1747L 14.7471 8.18142ZM 8.82946 21.4495C 8.33113 22.3216 7.45905 22.9445 6.52467 23.2559L 7.20988 22.0724C 7.33446 21.8232 7.33446 21.5741 7.20988 21.3249L 6.15093 19.1447C 6.02634 18.8955 5.77718 18.7087 5.46572 18.7087L 5.40343 18.7087L 2.97406 18.8333C 2.7249 18.8333 2.47573 19.0201 2.35115 19.207L 1.66594 20.3905C 1.41678 19.3939 1.54136 18.3972 2.03969 17.4628C 2.53802 16.5908 3.4101 15.9056 4.40677 15.6564C 5.40343 15.4072 6.46238 15.5318 7.33446 16.0301C 9.2655 17.2137 9.88841 19.5807 8.82946 21.4495ZM 11.8817 15.0335L 10.1376 16.7776C 9.70154 15.9678 9.01633 15.2826 8.14425 14.7843L 10.0753 12.8533L 12.0686 14.8466L 11.8817 15.0335ZM 4.40677 4.94226C 4.28218 4.81768 4.03302 4.6931 3.84614 4.6931L 2.78719 4.6931L 1.72823 2.5129L 2.47573 1.7654L 4.65593 2.88664L 4.65593 3.9456C 4.65593 4.13247 4.71822 4.31935 4.9051 4.50622L 13.6882 13.2893L 13.2521 13.7254L 4.40677 4.94226ZM 13.2521 15.8433L 15.8061 13.2893C 15.993 13.3516 16.1798 13.5385 16.2421 13.7254L 13.6882 16.2793C 13.5013 16.217 13.3767 16.0924 13.2521 15.8433ZM 20.9763 23.3805C 20.2288 23.3805 19.5436 23.0691 19.1075 22.4462L 14.9963 17.2137L 17.1142 15.0958L 22.3467 19.207C 22.9073 19.643 23.2811 20.3282 23.2811 21.0757C 23.3434 22.3216 22.2844 23.3805 20.9763 23.3805Z"/>
</defs>
</svg>
