<svg width="341" height="208" viewBox="0 0 341 208" version="1.1" xmlns="http://www.w3.org/2000/svg" xmlns:xlink="http://www.w3.org/1999/xlink">
<title>icon</title>
<desc>Created using Figma</desc>
<g id="Canvas" transform="translate(-21779 917)">
<g id="icon">
<g id="Group">
<g id="Group">
<g id="Group">
<g id="Vector">
<use xlink:href="#path0_fill" transform="translate(21882 -845.648)" fill="#FFB74D"/>
<use xlink:href="#path1_stroke" transform="translate(21882 -845.648)" fill="#455A64"/>
</g>
<g id="Vector">
<use xlink:href="#path2_fill" transform="translate(21960.4 -845.648)" fill="#FFCC80"/>
<use xlink:href="#path3_stroke" transform="translate(21960.4 -845.648)" fill="#455A64"/>
</g>
<g id="Vector">
<use xlink:href="#path4_fill" transform="translate(21882 -873)" fill="#FFCC80"/>
<use xlink:href="#path5_stroke" transform="translate(21882 -873)" fill="#455A64"/>
</g>
</g>
<g id="Vector">
<use xlink:href="#path6_stroke" transform="translate(21919.7 -859.324)" fill="#455A64"/>
</g>
</g>
</g>
<g id="Group">
<g id="Group">
<g id="Vector">
<use xlink:href="#path7_fill" transform="translate(21839.4 -898.563)" fill="#96D67C"/>
<use xlink:href="#path8_stroke" transform="translate(21839.4 -898.563)" fill="#455A64"/>
</g>
<g id="Vector">
<use xlink:href="#path9_stroke" transform="translate(21822.8 -915.21)" fill="#455A64"/>
</g>
<g id="Group">
<g id="Group">
<g id="Vector">
<use xlink:href="#path10_stroke" transform="translate(21823.7 -914.852)" fill="#455A64"/>
</g>
</g>
</g>
<g id="Vector">
<use xlink:href="#path11_fill" transform="translate(21853.6 -884.422)" fill="#FFFFFF"/>
<use xlink:href="#path12_stroke" transform="translate(21853.6 -884.422)" fill="#455A64"/>
</g>
<g id="Vector">
<use xlink:href="#path13_stroke" transform="translate(21889.7 -871.713)" fill="#455A64"/>
</g>
<g id="Vector">
<use xlink:href="#path14_stroke" transform="translate(21889.7 -884.422)" fill="#455A64"/>
</g>
<g id="Vector">
<use xlink:href="#path15_stroke" transform="translate(21889.7 -817.476)" fill="#455A64"/>
</g>
<g id="Vector">
<use xlink:href="#path16_stroke" transform="translate(21921.1 -848.801)" fill="#455A64"/>
</g>
<g id="Vector">
<use xlink:href="#path17_stroke" transform="translate(21854.3 -848.801)" fill="#455A64"/>
</g>
</g>
</g>
<g id="Group">
<g id="Vector">
<use xlink:href="#path18_stroke" transform="translate(22075.2 -725.713)" fill="#455A64"/>
</g>
<g id="Vector">
<use xlink:href="#path19_stroke" transform="translate(22065.7 -731.093)" fill="#455A64"/>
</g>
</g>
<g id="Group">
<g id="Vector">
<use xlink:href="#path20_stroke" transform="translate(21789.5 -759.566)" fill="#455A64"/>
</g>
<g id="Vector">
<use xlink:href="#path21_stroke" transform="translate(21780 -764.945)" fill="#455A64"/>
</g>
</g>
<g id="Group">
<g id="Vector">
<use xlink:href="#path22_stroke" transform="translate(21812.6 -915)" fill="#455A64"/>
</g>
<g id="Vector">
<use xlink:href="#path23_stroke" transform="translate(21808 -910.399)" fill="#455A64"/>
</g>
</g>
<g id="Group">
<g id="Vector">
<use xlink:href="#path24_stroke" transform="translate(22067.1 -845.226)" fill="#455A64"/>
</g>
<g id="Vector">
<use xlink:href="#path25_stroke" transform="translate(22062.5 -840.624)" fill="#455A64"/>
</g>
</g>
</g>
</g>
<defs>
<path id="path0_fill" d="M 78.3625 135.649L 0 108.297L 0 -1.40997e-06L 78.3625 27.3515L 78.3625 135.649Z"/>
<path id="path1_stroke" d="M 78.3625 135.649L 78.033 136.593C 78.3388 136.699 78.6774 136.651 78.9415 136.464C 79.2056 136.276 79.3625 135.972 79.3625 135.649L 78.3625 135.649ZM 0 108.297L -1 108.297C -1 108.722 -0.731045 109.101 -0.329541 109.241L 0 108.297ZM 0 -1.40997e-06L 0.329541 -0.944143C 0.0237097 -1.05089 -0.314883 -1.00289 -0.57899 -0.815336C -0.843098 -0.627786 -1 -0.323927 -1 -1.40997e-06L 0 -1.40997e-06ZM 78.3625 27.3515L 79.3625 27.3515C 79.3625 26.9262 79.0936 26.5475 78.6921 26.4073L 78.3625 27.3515ZM 78.6921 134.704L 0.329541 107.353L -0.329541 109.241L 78.033 136.593L 78.6921 134.704ZM 1 108.297L 1 -1.40997e-06L -1 -1.40997e-06L -1 108.297L 1 108.297ZM -0.329541 0.94414L 78.033 28.2956L 78.6921 26.4073L 0.329541 -0.944143L -0.329541 0.94414ZM 77.3625 27.3515L 77.3625 135.649L 79.3625 135.649L 79.3625 27.3515L 77.3625 27.3515Z"/>
<path id="path2_fill" d="M 78.3625 108.297L -1.39687e-06 135.649L -1.39687e-06 27.3515L 78.3625 -1.40997e-06L 78.3625 108.297Z"/>
<path id="path3_stroke" d="M 78.3625 108.297L 78.6921 109.241C 79.0936 109.101 79.3625 108.722 79.3625 108.297L 78.3625 108.297ZM -1.39687e-06 135.649L -1 135.649C -1 135.972 -0.843099 136.276 -0.578992 136.464C -0.314884 136.651 0.0237081 136.699 0.329539 136.593L -1.39687e-06 135.649ZM -1.39687e-06 27.3515L -0.329542 26.4073C -0.731047 26.5475 -1 26.9262 -1 27.3515L -1.39687e-06 27.3515ZM 78.3625 -1.40997e-06L 79.3625 -1.40997e-06C 79.3625 -0.323927 79.2056 -0.627786 78.9415 -0.815336C 78.6774 -1.00289 78.3388 -1.05089 78.033 -0.944143L 78.3625 -1.40997e-06ZM 78.033 107.353L -0.329542 134.704L 0.329539 136.593L 78.6921 109.241L 78.033 107.353ZM 0.999999 135.649L 0.999999 27.3515L -1 27.3515L -1 135.649L 0.999999 135.649ZM 0.329539 28.2956L 78.6921 0.94414L 78.033 -0.944143L -0.329542 26.4073L 0.329539 28.2956ZM 77.3625 -1.40997e-06L 77.3625 108.297L 79.3625 108.297L 79.3625 -1.40997e-06L 77.3625 -1.40997e-06Z"/>
<path id="path4_fill" d="M 78.3625 0L 0 27.3515L 78.3625 54.703L 156.725 27.3515L 78.3625 0Z"/>
<path id="path5_stroke" d="M 78.3625 0L 78.6921 -0.944141C 78.4787 -1.01862 78.2464 -1.01862 78.033 -0.944141L 78.3625 0ZM 0 27.3515L -0.329541 26.4073C -0.731045 26.5475 -1 26.9262 -1 27.3515C -1 27.7767 -0.731045 28.1555 -0.329541 28.2956L 0 27.3515ZM 78.3625 54.703L 78.033 55.6471C 78.2464 55.7216 78.4787 55.7216 78.6921 55.6471L 78.3625 54.703ZM 156.725 27.3515L 157.055 28.2956C 157.456 28.1555 157.725 27.7767 157.725 27.3515C 157.725 26.9262 157.456 26.5475 157.055 26.4073L 156.725 27.3515ZM 78.033 -0.944141L -0.329541 26.4073L 0.329541 28.2956L 78.6921 0.944141L 78.033 -0.944141ZM -0.329541 28.2956L 78.033 55.6471L 78.6921 53.7588L 0.329541 26.4073L -0.329541 28.2956ZM 78.6921 55.6471L 157.055 28.2956L 156.396 26.4073L 78.033 53.7588L 78.6921 55.6471ZM 157.055 26.4073L 78.6921 -0.944141L 78.033 0.944141L 156.396 28.2956L 157.055 26.4073Z"/>
<path id="path6_stroke" d="M 80.1514 0.94601C 80.6739 0.766995 80.9523 0.198332 80.7733 -0.324136C 80.5943 -0.846603 80.0256 -1.12503 79.5031 -0.946012L 80.1514 0.94601ZM 6.98433e-07 27.3515L -0.324134 26.4055C -0.728422 26.544 -0.999999 26.9241 -0.999999 27.3515L 6.98433e-07 27.3515ZM -0.999999 94.6213C -0.999999 95.1736 -0.552284 95.6213 6.98433e-07 95.6213C 0.552285 95.6213 1 95.1736 1 94.6213L -0.999999 94.6213ZM 79.5031 -0.946012L -0.324134 26.4055L 0.324136 28.2975L 80.1514 0.94601L 79.5031 -0.946012ZM -0.999999 27.3515L -0.999999 94.6213L 1 94.6213L 1 27.3515L -0.999999 27.3515Z"/>
<path id="path7_fill" d="M 50.299 100.598C 78.0784 100.598 100.598 78.0784 100.598 50.299C 100.598 22.5196 78.0784 0 50.299 0C 22.5196 0 0 22.5196 0 50.299C 0 78.0784 22.5196 100.598 50.299 100.598Z"/>
<path id="path8_stroke" d="M 99.598 50.299C 99.598 77.5261 77.5261 99.598 50.299 99.598L 50.299 101.598C 78.6307 101.598 101.598 78.6307 101.598 50.299L 99.598 50.299ZM 50.299 99.598C 23.0719 99.598 1 77.5261 1 50.299L -1 50.299C -1 78.6307 21.9674 101.598 50.299 101.598L 50.299 99.598ZM 1 50.299C 1 23.0719 23.0719 1 50.299 1L 50.299 -1C 21.9674 -1 -1 21.9674 -1 50.299L 1 50.299ZM 50.299 1C 77.5261 1 99.598 23.0719 99.598 50.299L 101.598 50.299C 101.598 21.9674 78.6307 -1 50.299 -1L 50.299 1Z"/>
<path id="path9_stroke" d="M 66.946 -1C 66.3937 -1 65.946 -0.552285 65.946 0C 65.946 0.552285 66.3937 1 66.946 1L 66.946 -1ZM 1 66.946C 1 66.3937 0.552285 65.946 0 65.946C -0.552285 65.946 -1 66.3937 -1 66.946L 1 66.946ZM 66.946 1C 103.445 1 132.892 30.6225 132.892 66.946L 134.892 66.946C 134.892 29.5215 104.553 -1 66.946 -1L 66.946 1ZM 132.892 66.946C 132.892 103.269 103.445 132.892 66.946 132.892L 66.946 134.892C 104.553 134.892 134.892 104.371 134.892 66.946L 132.892 66.946ZM 66.946 132.892C 30.6225 132.892 1 103.445 1 66.946L -1 66.946C -1 104.553 29.5215 134.892 66.946 134.892L 66.946 132.892Z"/>
<path id="path10_stroke" d="M -0.987477 56.0482C -1.07461 56.5936 -0.703131 57.1063 -0.157763 57.1935C 0.387606 57.2806 0.900347 56.9091 0.987477 56.3638L -0.987477 56.0482ZM 60.9349 0.997189C 61.4857 0.955804 61.8986 0.475799 61.8572 -0.0749332C 61.8158 -0.625665 61.3358 -1.03857 60.7851 -0.997188L 60.9349 0.997189ZM 0.987477 56.3638C 5.74875 26.5617 30.4383 3.28885 60.9349 0.997189L 60.7851 -0.997188C 29.3477 1.36515 3.91725 25.3483 -0.987477 56.0482L 0.987477 56.3638Z"/>
<path id="path11_fill" d="M 36.158 72.316C 56.1275 72.316 72.316 56.1275 72.316 36.158C 72.316 16.1885 56.1275 0 36.158 0C 16.1885 0 0 16.1885 0 36.158C 0 56.1275 16.1885 72.316 36.158 72.316Z"/>
<path id="path12_stroke" d="M 71.316 36.158C 71.316 55.5752 55.5752 71.316 36.158 71.316L 36.158 73.316C 56.6798 73.316 73.316 56.6798 73.316 36.158L 71.316 36.158ZM 36.158 71.316C 16.7408 71.316 1 55.5752 1 36.158L -1 36.158C -1 56.6798 15.6362 73.316 36.158 73.316L 36.158 71.316ZM 1 36.158C 1 16.7408 16.7408 1 36.158 1L 36.158 -1C 15.6362 -1 -1 15.6362 -1 36.158L 1 36.158ZM 36.158 1C 55.5752 1 71.316 16.7408 71.316 36.158L 73.316 36.158C 73.316 15.6362 56.6798 -1 36.158 -1L 36.158 1Z"/>
<path id="path13_stroke" d="M 1 -1.36566e-06C 1 -0.552286 0.552287 -1 2.73132e-06 -1C -0.552282 -1 -0.999997 -0.552286 -0.999997 -1.36566e-06L 1 -1.36566e-06ZM 2.73132e-06 23.449L -0.999997 23.449C -0.999997 23.8074 -0.808209 24.1384 -0.497275 24.3166L 2.73132e-06 23.449ZM 14.1807 32.7296C 14.6599 33.0042 15.271 32.8384 15.5456 32.3593C 15.8202 31.8801 15.6544 31.269 15.1753 30.9944L 14.1807 32.7296ZM -0.999997 -1.36566e-06L -0.999997 23.449L 1 23.449L 1 -1.36566e-06L -0.999997 -1.36566e-06ZM -0.497275 24.3166L 14.1807 32.7296L 15.1753 30.9944L 0.497281 22.5814L -0.497275 24.3166Z"/>
<path id="path14_stroke" d="M 1 1.36566e-06C 1 -0.552283 0.552286 -0.999999 1.52588e-06 -0.999999C -0.552283 -0.999999 -0.999998 -0.552283 -0.999998 1.36566e-06L 1 1.36566e-06ZM -0.999998 4.296C -0.999998 4.84829 -0.552283 5.296 1.52588e-06 5.296C 0.552286 5.296 1 4.84829 1 4.296L -0.999998 4.296ZM -0.999998 1.36566e-06L -0.999998 4.296L 1 4.296L 1 1.36566e-06L -0.999998 1.36566e-06Z"/>
<path id="path15_stroke" d="M 1 -2.73132e-06C 1 -0.552287 0.552286 -1 1.52588e-06 -1C -0.552283 -1 -0.999998 -0.552287 -0.999998 -2.73132e-06L 1 -2.73132e-06ZM -0.999998 4.296C -0.999998 4.84828 -0.552283 5.296 1.52588e-06 5.296C 0.552286 5.296 1 4.84828 1 4.296L -0.999998 4.296ZM -0.999998 -2.73132e-06L -0.999998 4.296L 1 4.296L 1 -2.73132e-06L -0.999998 -2.73132e-06Z"/>
<path id="path16_stroke" d="M 4.296 0.999998C 4.84828 0.999998 5.296 0.552283 5.296 -1.52588e-06C 5.296 -0.552286 4.84828 -1 4.296 -1L 4.296 0.999998ZM 2.73132e-06 -1C -0.552282 -1 -0.999997 -0.552286 -0.999997 -1.52588e-06C -0.999997 0.552283 -0.552282 0.999998 2.73132e-06 0.999998L 2.73132e-06 -1ZM 4.296 -1L 2.73132e-06 -1L 2.73132e-06 0.999998L 4.296 0.999998L 4.296 -1Z"/>
<path id="path17_stroke" d="M 4.296 0.999998C 4.84828 0.999998 5.296 0.552283 5.296 -1.52588e-06C 5.296 -0.552286 4.84828 -1 4.296 -1L 4.296 0.999998ZM 6.82831e-07 -1C -0.552284 -1 -0.999999 -0.552286 -0.999999 -1.52588e-06C -0.999999 0.552283 -0.552284 0.999998 6.82831e-07 0.999998L 6.82831e-07 -1ZM 4.296 -1L 6.82831e-07 -1L 6.82831e-07 0.999998L 4.296 0.999998L 4.296 -1Z"/>
<path id="path18_stroke" d="M -7.08008e-06 -1.00001C -0.552292 -1.00001 -1.00001 -0.552291 -1.00001 -6.5918e-06C -1.00001 0.552278 -0.552292 0.999993 -7.08008e-06 0.999993L -7.08008e-06 -1.00001ZM 42.956 0.999993C 43.5083 0.999993 43.956 0.552278 43.956 -6.5918e-06C 43.956 -0.552291 43.5083 -1.00001 42.956 -1.00001L 42.956 0.999993ZM -7.08008e-06 0.999993L 42.956 0.999993L 42.956 -1.00001L -7.08008e-06 -1.00001L -7.08008e-06 0.999993Z"/>
<path id="path19_stroke" d="M 1.31836e-05 -1.00001C -0.552272 -1.00001 -0.999987 -0.552296 -0.999987 -1.14746e-05C -0.999987 0.552273 -0.552272 0.999988 1.31836e-05 0.999988L 1.31836e-05 -1.00001ZM 35.88 0.999988C 36.4323 0.999988 36.88 0.552273 36.88 -1.14746e-05C 36.88 -0.552296 36.4323 -1.00001 35.88 -1.00001L 35.88 0.999988ZM 1.31836e-05 0.999988L 35.88 0.999988L 35.88 -1.00001L 1.31836e-05 -1.00001L 1.31836e-05 0.999988Z"/>
<path id="path20_stroke" d="M 1.43433e-06 -1C -0.552283 -1 -0.999999 -0.552288 -0.999999 -3.41797e-06C -0.999999 0.552281 -0.552283 0.999997 1.43433e-06 0.999997L 1.43433e-06 -1ZM 42.956 0.999997C 43.5083 0.999997 43.956 0.552281 43.956 -3.41797e-06C 43.956 -0.552288 43.5083 -1 42.956 -1L 42.956 0.999997ZM 1.43433e-06 0.999997L 42.956 0.999997L 42.956 -1L 1.43433e-06 -1L 1.43433e-06 0.999997Z"/>
<path id="path21_stroke" d="M -1.19019e-06 -1C -0.552286 -1 -1 -0.552286 -1 -1.2207e-06C -1 0.552284 -0.552286 0.999999 -1.19019e-06 0.999999L -1.19019e-06 -1ZM 35.881 0.999999C 36.4333 0.999999 36.881 0.552284 36.881 -1.2207e-06C 36.881 -0.552286 36.4333 -1 35.881 -1L 35.881 0.999999ZM -1.19019e-06 0.999999L 35.881 0.999999L 35.881 -1L -1.19019e-06 -1L -1.19019e-06 0.999999Z"/>
<path id="path22_stroke" d="M 0.999993 6.10352e-06C 0.999993 -0.552279 0.552278 -0.999994 -6.5918e-06 -0.999994C -0.552291 -0.999994 -1.00001 -0.552279 -1.00001 6.10352e-06L 0.999993 6.10352e-06ZM -1.00001 9.20299C -1.00001 9.75528 -0.552291 10.203 -6.5918e-06 10.203C 0.552278 10.203 0.999993 9.75528 0.999993 9.20299L -1.00001 9.20299ZM -1.00001 6.10352e-06L -1.00001 9.20299L 0.999993 9.20299L 0.999993 6.10352e-06L -1.00001 6.10352e-06Z"/>
<path id="path23_stroke" d="M 3.66211e-06 -0.999996C -0.552281 -0.999996 -0.999996 -0.552281 -0.999996 4.02832e-06C -0.999996 0.552289 -0.552281 1 3.66211e-06 1L 3.66211e-06 -0.999996ZM 9.20301 1C 9.75529 1 10.203 0.552289 10.203 4.02832e-06C 10.203 -0.552281 9.75529 -0.999996 9.20301 -0.999996L 9.20301 1ZM 3.66211e-06 1L 9.20301 1L 9.20301 -0.999996L 3.66211e-06 -0.999996L 3.66211e-06 1Z"/>
<path id="path24_stroke" d="M 1.00001 -7.08008e-06C 1.00001 -0.552292 0.55229 -1.00001 5.61523e-06 -1.00001C -0.552279 -1.00001 -0.999994 -0.552292 -0.999994 -7.08008e-06L 1.00001 -7.08008e-06ZM -0.999994 9.203C -0.999994 9.75528 -0.552279 10.203 5.61523e-06 10.203C 0.55229 10.203 1.00001 9.75528 1.00001 9.203L -0.999994 9.203ZM -0.999994 -7.08008e-06L -0.999994 9.203L 1.00001 9.203L 1.00001 -7.08008e-06L -0.999994 -7.08008e-06Z"/>
<path id="path25_stroke" d="M -7.56836e-06 -1C -0.552292 -1 -1.00001 -0.552287 -1.00001 -2.0752e-06C -1.00001 0.552283 -0.552292 0.999998 -7.56836e-06 0.999998L -7.56836e-06 -1ZM 9.20199 0.999998C 9.75427 0.999998 10.202 0.552283 10.202 -2.0752e-06C 10.202 -0.552287 9.75427 -1 9.20199 -1L 9.20199 0.999998ZM -7.56836e-06 0.999998L 9.20199 0.999998L 9.20199 -1L -7.56836e-06 -1L -7.56836e-06 0.999998Z"/>
</defs>
</svg>
