<svg width="26" height="21" viewBox="0 0 26 21" version="1.1" xmlns="http://www.w3.org/2000/svg" xmlns:xlink="http://www.w3.org/1999/xlink">
<title>compare</title>

<g id="ic-compare-btn">

<path id="path0_fill" d="M 26 18.0598C 25.9935 18.0113 25.9807 17.9638 25.9619 17.9188L 21.4611 7.37099C 21.4667 7.351 21.4713 7.33069 21.4747 7.31017C 21.4851 7.23827 21.4814 7.165 21.464 7.09454C 21.4465 7.02407 21.4155 6.9578 21.3728 6.89951C 21.3301 6.84123 21.2765 6.79206 21.215 6.75483C 21.1536 6.71761 21.0856 6.69305 21.0148 6.68256L 15.3167 5.83929C 15.272 5.38576 15.0915 4.95706 14.7995 4.61099C 14.5076 4.26493 14.1182 4.01814 13.6839 3.90392L 13.6839 0.552963C 13.6839 0.406308 13.6266 0.26566 13.5245 0.161959C 13.4225 0.0582585 13.284 0 13.1397 0C 12.9954 0 12.8569 0.0582585 12.7549 0.161959C 12.6528 0.26566 12.5955 0.406308 12.5955 0.552963L 12.5955 3.89839C 12.2646 3.98553 11.9583 4.14986 11.7008 4.37831C 11.4434 4.60676 11.2419 4.89305 11.1124 5.21444L 5.14488 4.3297C 5.06522 4.31773 4.98393 4.32387 4.90689 4.34768C 4.82984 4.37149 4.75896 4.41238 4.69935 4.46739C 4.63974 4.5224 4.59289 4.59017 4.56217 4.66581C 4.53146 4.74145 4.51765 4.82306 4.52173 4.90478L 0.0399518 15.4111C 0.0211656 15.4562 0.0083548 15.5036 0.00185527 15.5521C 0.00185527 15.5521 0.00185527 15.577 0.00185527 15.588C 0.00185527 15.5991 0.00185527 15.6129 0.00185527 15.6267C -0.000618419 15.6571 -0.000618419 15.6876 0.00185527 15.718C 0.00185527 15.718 0.00185527 15.718 0.00185527 15.7318C 0.0114225 15.7788 0.0269733 15.8243 0.0481153 15.8673L 0.0644424 15.8977C 0.0880866 15.9411 0.117375 15.9811 0.15152 16.0166L 0.831815 16.7078C 1.96433 17.8558 3.49881 18.5006 5.09862 18.5006C 6.69843 18.5006 8.23292 17.8558 9.36543 16.7078L 10.0457 16.0166C 10.0799 15.9811 10.1092 15.9411 10.1328 15.8977L 10.1491 15.87C 10.1703 15.8271 10.1858 15.7816 10.1954 15.7346C 10.1979 15.7042 10.1979 15.6737 10.1954 15.6433C 10.1954 15.6433 10.1954 15.6184 10.1954 15.6046C 10.1954 15.5908 10.1954 15.5797 10.1954 15.5687C 10.1889 15.5202 10.1761 15.4727 10.1573 15.4277L 5.95852 5.56834L 10.96 6.30931C 11.0047 6.80361 11.2118 7.26828 11.5479 7.62855C 11.8839 7.98882 12.3295 8.22376 12.8129 8.29557C 13.2964 8.36737 13.7895 8.27188 14.213 8.02444C 14.6365 7.777 14.9658 7.39201 15.1479 6.93139L 20.2066 7.68065L 15.8364 17.9105C 15.8176 17.9555 15.8048 18.003 15.7983 18.0515C 15.7983 18.0515 15.7983 18.0764 15.7983 18.0874C 15.7983 18.0985 15.7983 18.1123 15.7983 18.1261C 15.7958 18.1565 15.7958 18.187 15.7983 18.2174C 15.7983 18.2174 15.7983 18.2174 15.7983 18.2312C 15.8079 18.2782 15.8234 18.3237 15.8446 18.3667L 15.8609 18.3971C 15.8845 18.4405 15.9138 18.4805 15.948 18.516L 16.6283 19.2072C 17.7608 20.3552 19.2953 21 20.8951 21C 22.4949 21 24.0294 20.3552 25.1619 19.2072L 25.8422 18.516C 25.8763 18.4805 25.9056 18.4405 25.9292 18.3971L 25.9456 18.3667C 25.9667 18.3237 25.9823 18.2782 25.9918 18.2312C 25.9918 18.2312 25.9918 18.2312 25.9918 18.2174C 25.9943 18.187 25.9943 18.1565 25.9918 18.1261C 25.9918 18.1261 25.9918 18.1012 25.9918 18.0874C 25.9918 18.0736 26 18.0708 26 18.0598ZM 8.82936 15.0738L 1.36244 15.0738L 5.10679 6.32866L 8.82936 15.0738ZM 17.1671 17.5842L 20.8896 8.8474L 24.634 17.5815L 17.1671 17.5842Z"/>
</g>
</svg>
