<svg width="13" height="13" viewBox="0 0 13 13" version="1.1" xmlns="http://www.w3.org/2000/svg" xmlns:xlink="http://www.w3.org/1999/xlink">
<title>icon</title>
<desc>Created using Figma</desc>
<g id="Canvas" transform="translate(-2683 426)">
<g id="icon">
<g id="Group">
<g id="Vector">
<use xlink:href="#path0_fill" transform="translate(2683 -426)" fill="#FF9800"/>
</g>
</g>
<g id="Vector">
<use xlink:href="#path1_fill" transform="translate(2688.62 -422.736)" fill="#FF9800"/>
</g>
</g>
</g>
<defs>
<path id="path0_fill" d="M 6.5 1.15556C 9.44667 1.15556 11.8444 3.55333 11.8444 6.5C 11.8444 9.44667 9.44667 11.8444 6.5 11.8444C 3.55333 11.8444 1.15556 9.44667 1.15556 6.5C 1.15556 3.55333 3.55333 1.15556 6.5 1.15556ZM 6.5 0C 2.90333 0 0 2.90333 0 6.5C 0 10.0967 2.90333 13 6.5 13C 10.0967 13 13 10.0967 13 6.5C 13 2.90333 10.0967 0 6.5 0Z"/>
<path id="path1_fill" d="M 3.38 3.09111L 1.15556 3.09111L 1.15556 0.577778C 1.15556 0.26 0.895556 5.51012e-08 0.577778 5.51012e-08C 0.26 5.51012e-08 2.20405e-07 0.26 2.20405e-07 0.577778L 2.20405e-07 3.38C 2.20405e-07 3.43778 0.0144444 3.48111 0.0144444 3.52444C 0 3.56778 2.20405e-07 3.62556 2.20405e-07 3.66889C 2.20405e-07 3.98667 0.26 4.24667 0.577778 4.24667L 3.38 4.24667C 3.69778 4.24667 3.95778 3.98667 3.95778 3.66889C 3.95778 3.35111 3.69778 3.09111 3.38 3.09111Z"/>
</defs>
</svg>
