<svg width="32" height="24" viewBox="0 0 32 24" version="1.1" xmlns="http://www.w3.org/2000/svg" xmlns:xlink="http://www.w3.org/1999/xlink">
<g id="Canvas">
<g id="icon">
<g id="Vector">
<path d="M 29.7517 24L 2.1886 24C 0.981958 24 -6.54063e-08 23.0321 -6.54063e-08 21.8427L -6.54063e-08 2.15727C -6.54063e-08 0.967901 0.981958 7.79012e-08 2.1886 7.79012e-08L 29.7517 7.79012e-08C 30.9583 7.79012e-08 31.9403 0.967901 31.9403 2.15727L 31.9403 21.8427C 31.9403 23.0321 30.9583 24 29.7517 24ZM 2.1886 1.61821C 1.88712 1.61821 1.64172 1.8601 1.64172 2.15762L 1.64172 21.8431C 1.64172 22.1406 1.88747 22.3821 2.1886 22.3821L 29.7517 22.3821C 30.0535 22.3821 30.2985 22.1403 30.2985 21.8431L 30.2985 2.15762C 30.2985 1.8601 30.0531 1.61821 29.7517 1.61821L 2.1886 1.61821Z" />
</g>
<g id="Rectangle">
<rect width="20" height="2" transform="translate(6 6)" />
</g>
<g id="Rectangle_2">
<rect width="20" height="2" transform="translate(6 11)" />
</g>
<g id="Rectangle_3">
<rect width="20" height="2" transform="translate(6 16)" />
</g>
</g>
</g>
</svg>

