<svg width="16" height="16" viewBox="0 0 16 16" version="1.1" xmlns="http://www.w3.org/2000/svg" xmlns:xlink="http://www.w3.org/1999/xlink">
<g id="Canvas">
<g id="Close">
<path d="M 0.363637 15.6364C 0.587413 15.8601 0.867133 15.972 1.14685 15.972C 1.42657 15.972 1.70629 15.8601 1.93007 15.6364L 8 9.59441L 14.0699 15.6643C 14.2937 15.8881 14.5734 16 14.8531 16C 15.1329 16 15.4126 15.8881 15.6364 15.6643C 16.0839 15.2168 16.0839 14.5175 15.6364 14.0699L 9.59441 8L 15.6643 1.93007C 16.1119 1.48252 16.1119 0.783217 15.6643 0.335664C 15.2168 -0.111888 14.5175 -0.111888 14.0699 0.335664L 8 6.40559L 1.93007 0.363637C 1.48252 -0.0839159 0.783217 -0.0839159 0.335664 0.363637C -0.111888 0.811189 -0.111888 1.51049 0.335664 1.95804L 6.40559 8L 0.363637 14.0699C -0.0839159 14.4895 -0.0839159 15.2168 0.363637 15.6364Z"/>
</g>
</g>
</svg>