<svg width="17" height="16" viewBox="0 0 17 16" version="1.1" xmlns="http://www.w3.org/2000/svg" xmlns:xlink="http://www.w3.org/1999/xlink">
<title>Vector</title>

<g id="icon-phone">

<path id="path0_fill" d="M 10.2059 11.286C 9.99073 11.3038 9.79353 11.197 9.59633 11.0902C 7.78567 10.0402 6.24391 8.54517 5.16827 6.76541C 4.97107 6.46285 4.79179 6.1069 4.8635 5.75095C 4.98899 5.07464 5.84951 4.80768 6.10049 4.16696C 6.33355 3.61524 6.02878 2.99232 5.67023 2.51179C 5.07863 1.7109 4.32568 1.01679 3.46517 0.500661C 3.05284 0.251494 2.60465 0.0379234 2.12061 0.00232825C -0.0486022 -0.104457 -0.174094 3.49066 0.112744 4.89667C 0.41751 6.35607 1.15253 7.70868 2.01305 8.93672C 4.03884 11.8555 6.81759 14.3294 10.1879 15.504C 11.3711 15.9134 12.644 16.1625 13.863 15.8778C 14.4726 15.7354 15.0463 15.4684 15.4765 15.0057C 15.9068 14.5608 16.1398 13.92 16.0323 13.3149C 15.9247 12.692 15.4944 12.1937 15.0642 11.7487C 14.4367 11.108 13.7376 10.5385 12.9846 10.0402C 12.8412 9.95118 12.6978 9.86219 12.5364 9.84439C 12.3571 9.8266 12.1958 9.91559 12.0345 10.0046C 11.5863 10.2537 11.1739 10.5563 10.8154 10.8945C 10.654 11.0546 10.4748 11.2148 10.2596 11.2504C 10.2417 11.2682 10.2238 11.286 10.2059 11.286Z"/>
</g>
</svg>
