<svg width="18" height="20" viewBox="0 0 18 20" version="1.1" xmlns="http://www.w3.org/2000/svg" xmlns:xlink="http://www.w3.org/1999/xlink">
<title>icon tile</title>
<desc>Created using Figma</desc>
<g id="Canvas" transform="translate(-1718 923)">
<g id="icon tile">
<use xlink:href="#path0_fill" transform="translate(1718 -922.51)" fill="#007CB1"/>
</g>
</g>
<defs>
<path id="path0_fill" d="M 18 9.28228L 8.99998 1.00993e-08L 9.79218e-09 9.28228L 8.99998 18.5646L 10.728 16.7824L 11.1817 16.3144L 18 9.28228ZM 10.7278 15.8465L 9.45348 14.5322L 15.818 7.96803L 17.0923 9.28228L 10.7278 15.8465ZM 12.0688 7.66533L 10.9547 8.81434L 7.88592 5.64906L 8.99998 4.50027L 12.0688 7.66533ZM 10.5675 12.4473L 9.45369 11.2986L 12.5225 8.13327L 13.6366 9.28228L 10.5675 12.4473ZM 10.501 9.28228L 8.99998 10.8306L 7.49895 9.28228L 8.99998 7.73417L 10.501 9.28228ZM 7.43221 6.11722L 8.54627 7.26622L 5.47747 10.4313L 4.36341 9.28228L 7.43221 6.11722ZM 7.04524 9.75022L 10.114 12.9153L 8.99998 14.0643L 5.93118 10.8992L 7.04524 9.75022ZM 15.3645 7.50008L 14.0905 8.81412L 7.72591 2.25014L 8.99998 0.936104L 15.3645 7.50008ZM 7.2722 2.71808L 8.54627 4.03211L 2.1817 10.5965L 0.907635 9.28228L 7.2722 2.71808ZM 8.99998 17.6285L 2.63563 11.0645L 3.9097 9.75044L 10.2743 16.3146L 8.99998 17.6285Z"/>
</defs>
</svg>
