<svg width="18" height="19" viewBox="0 0 18 19" version="1.1" xmlns="http://www.w3.org/2000/svg" xmlns:xlink="http://www.w3.org/1999/xlink">
<title>icon filter</title>
<desc>Created using Figma</desc>
<g id="Canvas" transform="translate(-1718 959)">
<g id="icon filter">
<use xlink:href="#path0_fill" transform="translate(1718 -958.582)" fill="#007CB1"/>
</g>
</g>
<defs>
<path id="path0_fill" d="M 0 0L 6.65315 10.1505L 6.65315 17.7574L 11.3468 17.7574L 11.3468 10.1505L 18 0L 0 0ZM 16.2683 0.95986L 13.9215 4.55933C 13.4323 4.53307 12.956 4.38505 12.5316 4.1274C 11.9051 3.7617 11.197 3.57941 10.481 3.59947C 9.77263 3.58369 9.07294 3.76584 8.45315 4.1274C 7.96156 4.42448 7.40203 4.57387 6.83543 4.55933C 6.26883 4.57387 5.7093 4.42448 5.21771 4.1274C 4.67951 3.81097 4.07898 3.63027 3.46328 3.59947L 1.73164 0.95986L 16.2683 0.95986ZM 10.4354 9.83856L 10.4354 16.7975L 7.56454 16.7975L 7.56454 9.83856L 4.1924 4.70331L 4.7848 4.96727C 5.40908 5.34133 6.11729 5.53195 6.83543 5.51919C 7.54379 5.53498 8.24348 5.35282 8.86327 4.99127C 9.35486 4.69419 9.91439 4.54479 10.481 4.55933C 11.0476 4.54479 11.6071 4.69419 12.0987 4.99127C 12.4839 5.20956 12.899 5.36338 13.3291 5.4472L 10.4354 9.83856Z"/>
</defs>
</svg>
