<svg width="13" height="20" viewBox="0 0 13 20" version="1.1" xmlns="http://www.w3.org/2000/svg" xmlns:xlink="http://www.w3.org/1999/xlink">
<title>icon watering</title>
<desc>Created using Figma</desc>
<g id="Canvas" transform="translate(-1721 851)">
<g id="icon watering">
<use xlink:href="#path0_fill" transform="translate(1721.13 -850.466)" fill="#007CB1"/>
</g>
</g>
<defs>
<path id="path0_fill" d="M 6.32397 0.00507265C 6.41691 0.020591 6.50174 0.0694521 6.5638 0.143218C 9.62863 3.75117 12.5217 8.03451 12.5217 12.0566C 12.5217 16.064 9.74003 19.3717 6.26086 19.3717C 2.78166 19.3717 0 16.064 0 12.0566C 0 8.03449 2.8931 3.75117 5.95791 0.143218C 6.00282 0.0899141 6.05993 0.0493055 6.12392 0.0251546C 6.18792 0.00100363 6.25673 -0.00590672 6.32397 0.00507265ZM 6.26086 1.0905C 3.36981 4.56276 0.807852 8.59286 0.807852 12.0566C 0.807852 15.6606 3.27437 18.5297 6.26086 18.5297C 9.24732 18.5297 11.7139 15.6606 11.7139 12.0566C 11.7139 8.59286 9.15192 4.56276 6.26086 1.0905ZM 10.1297 11.5632C 10.2226 11.5752 10.3087 11.6204 10.3732 11.6912C 10.4377 11.762 10.4765 11.854 10.4831 11.9513C 10.6401 13.6759 9.79145 15.6188 8.5077 16.543C 8.46433 16.5776 8.4147 16.6026 8.36179 16.6166C 8.30889 16.6306 8.25382 16.6333 8.19989 16.6244C 8.14597 16.6156 8.09432 16.5956 8.04806 16.5654C 8.0018 16.5352 7.96188 16.4955 7.93073 16.4488C 7.89957 16.4021 7.87782 16.3493 7.86679 16.2936C 7.85575 16.2379 7.85567 16.1804 7.86653 16.1246C 7.8774 16.0689 7.89899 16.016 7.93 15.9692C 7.96101 15.9224 8.00081 15.8826 8.04698 15.8523C 9.00406 15.1633 9.80454 13.3814 9.68161 12.0303C 9.67453 11.9672 9.68125 11.9032 9.70127 11.8432C 9.72129 11.7832 9.75408 11.7286 9.79719 11.6837C 9.8403 11.6388 9.89261 11.6046 9.95019 11.5837C 10.0078 11.5628 10.0691 11.5558 10.1297 11.5632Z"/>
</defs>
</svg>
