<svg width="29" height="32" viewBox="0 0 29 32" version="1.1" xmlns="http://www.w3.org/2000/svg" xmlns:xlink="http://www.w3.org/1999/xlink">
<g id="Canvas">
<g id="Group">
<g id="Vector">
<path d="M 11.1253 14.6445L 7.15655 14.6445C 6.89505 14.6445 6.656 14.488 6.55166 14.2432L 4.93113 10.4895C 4.69604 10.5083 4.45567 10.519 4.21662 10.519C 2.59345 10.519 1.45499 10.0146 0.828962 9.02339C -0.519497 6.88571 0.0814325 4.67715 0.519913 3.06654L 0.654627 2.56489C 0.707456 2.35755 0.856697 2.18899 1.05481 2.11141L 1.84856 1.80641C 2.19195 1.67799 2.56836 1.84788 2.69911 2.19301L 3.97228 5.56806C 4.96415 5.55067 5.74602 5.25236 6.50807 4.58618L 5.23622 1.21246C 5.10547 0.868667 5.27452 0.482067 5.61394 0.350971L 6.40638 0.0446342C 6.60317 -0.0329534 6.82769 -0.00887447 7.00731 0.112858L 7.44711 0.400467C 8.83519 1.3061 10.7331 2.54616 11.1253 5.04903C 11.3142 6.25833 10.5033 7.25626 9.9129 7.98666L 9.46914 8.44817L 11.7302 13.7107C 11.8187 13.9168 11.8002 14.1549 11.6774 14.3448C 11.5559 14.5308 11.3485 14.6445 11.1253 14.6445ZM 7.58843 13.3068L 10.1176 13.3068L 8.08106 8.56856C 7.97276 8.31841 8.02559 8.02812 8.21577 7.83282L 8.92104 7.1051C 9.37272 6.5446 9.91686 5.87306 9.82045 5.25771C 9.52461 3.36886 8.07445 2.40169 6.77882 1.55625L 7.90012 4.52866C 7.99389 4.77614 7.93446 5.05706 7.74955 5.243C 6.51072 6.49376 5.20716 6.99273 3.47437 6.89374C 3.21551 6.87903 2.98835 6.71047 2.89589 6.46567L 1.77328 3.49059C 1.36386 4.99418 0.924054 6.69175 1.94101 8.30236C 2.30817 8.88694 3.07419 9.18124 4.21662 9.18124C 4.57453 9.18124 4.93113 9.15314 5.26527 9.11167C 5.55319 9.06753 5.83318 9.23742 5.94941 9.50764L 7.58843 13.3068Z" />
</g>
<g id="Vector_2">
<path d="M 1.54261 13.8922L 0.660363 13.8922C 0.295843 13.8922 1.08824e-06 13.5925 1.08824e-06 13.2233C 1.08824e-06 12.8541 0.295843 12.5545 0.660363 12.5545L 0.882244 12.5545L 0.882244 1.33772L 0.660363 1.33772C 0.295843 1.33772 1.08824e-06 1.03807 1.08824e-06 0.668859C 1.08824e-06 0.299649 0.295843 5.8174e-07 0.660363 5.8174e-07L 1.54261 5.8174e-07C 1.90713 5.8174e-07 2.20297 0.299649 2.20297 0.668859L 2.20297 13.2233C 2.20297 13.5925 1.90713 13.8922 1.54261 13.8922Z" transform="translate(26.7969 14.3198)" />
</g>
<g id="Vector_3">
<path d="M 20.2612 19.8637L 17.8601 19.8637C 17.4956 19.8637 17.1998 19.5641 17.1998 19.1949L 17.1998 17.7849L 14.6825 17.7849L 13.4806 19.4036C 13.3552 19.5708 13.161 19.6698 12.9537 19.6698L 4.4165 19.6698C 3.1671 19.6698 2.14882 18.6384 2.14882 17.3729C 2.14882 17.1335 2.18448 16.8994 2.25448 16.676C 1.47525 16.3054 0.949601 15.5162 0.949601 14.6052C 0.949601 14.343 0.993184 14.0835 1.07903 13.8414C 0.49263 13.4213 0.122827 12.7297 0.122827 11.9685C 0.122827 11.4682 0.286597 10.9893 0.574515 10.5987C 0.212636 10.184 -1.51145e-07 9.6436 -1.51145e-07 9.07373C -1.51145e-07 7.80825 1.01828 6.77821 2.26768 6.77821L 8.01283 6.77821C 7.51888 6.4799 7.01436 6.17222 6.6089 5.84448C 6.5257 5.77626 6.45834 5.68931 6.41608 5.59032L 5.35289 3.11955C 5.30006 2.99782 5.28422 2.86405 5.30799 2.73429C 5.57874 1.20127 7.16889 2.80664e-07 8.93073 2.80664e-07C 8.93866 2.80664e-07 9.0562 0.0013379 9.06281 0.0013379C 9.37714 0.0133773 9.64128 0.24614 9.69279 0.560503C 9.98203 2.31024 11.4758 3.09949 13.2033 4.01315C 14.7432 4.82648 16.4721 5.74148 17.1985 7.53268L 17.1985 6.64042C 17.1985 6.27121 17.4943 5.97157 17.8588 5.97157L 20.2599 5.97157C 20.6244 5.97157 20.9203 6.27121 20.9203 6.64042L 20.9203 19.1949C 20.9216 19.5641 20.6257 19.8637 20.2612 19.8637ZM 18.5192 18.526L 19.5995 18.526L 19.5995 7.30928L 18.5192 7.30928L 18.5192 8.22428C 18.5192 8.4022 18.4492 8.57342 18.325 8.69783C 18.2009 8.82224 18.0332 8.89314 17.8588 8.89314C 17.8575 8.89314 17.8575 8.89314 17.8562 8.89314L 16.7309 8.88912C 16.4351 8.88779 16.1762 8.68847 16.0983 8.39952C 15.6651 6.82503 14.1727 6.03578 12.5931 5.1997C 10.9646 4.33821 9.13677 3.37372 8.52923 1.37919C 7.61661 1.53035 6.8704 2.0962 6.65248 2.79181L 7.55982 4.89872C 7.90453 5.1569 8.34829 5.42578 8.77753 5.68396C 9.49336 6.1147 10.1696 6.52137 10.6054 6.98957C 10.7877 7.18487 10.8365 7.46847 10.7322 7.71461C 10.6279 7.95941 10.3888 8.1186 10.126 8.1186L 2.269 8.1186C 1.746 8.1186 1.32204 8.54801 1.32204 9.0764C 1.32204 9.44829 1.53996 9.79208 1.87543 9.94993C 2.09995 10.0543 2.24655 10.2777 2.25844 10.5278C 2.269 10.778 2.14089 11.0121 1.92694 11.1365C 1.62845 11.3104 1.44487 11.6288 1.44487 11.9712C 1.44487 12.4033 1.74732 12.7953 2.16202 12.9023C 2.38391 12.9585 2.5622 13.1297 2.62956 13.3504C 2.69824 13.5725 2.64805 13.8146 2.49617 13.9898C 2.34957 14.1624 2.27032 14.3764 2.27032 14.6092C 2.27032 15.1389 2.69428 15.5683 3.21596 15.5683C 3.48143 15.5683 3.74557 15.7289 3.84859 15.9763C 3.95293 16.2252 3.92651 16.5101 3.74161 16.7027C 3.56595 16.8873 3.46954 17.1254 3.46954 17.3769C 3.46954 17.9067 3.89349 18.3361 4.4165 18.3361L 12.6222 18.3361L 13.824 16.7174C 13.9495 16.5502 14.1436 16.4512 14.351 16.4512L 17.8575 16.4512C 18.222 16.4512 18.5179 16.7509 18.5179 17.1201L 18.5179 18.526L 18.5192 18.526Z" transform="translate(5.9082 8.34766)" />
</g>
<g id="Vector_4">
<path d="M 2.95813 3.6105C 1.97419 3.6105 1.14874 3.20784 0.74988 2.53363L 0.055179 0.937738C -0.0333095 0.73173 -0.0148187 0.493618 0.106688 0.303662C 0.229515 0.113706 0.436868 -1.16348e-06 0.660071 -1.16348e-06L 4.613 -1.16348e-06C 4.8745 -1.16348e-06 5.11223 0.156513 5.21789 0.401315L 5.62863 1.34976C 5.68146 1.47283 5.69731 1.60793 5.67222 1.74037C 5.43581 3.02458 4.10056 3.6105 2.95813 3.6105ZM 1.67042 1.33905L 1.92268 1.92364C 2.03759 2.1069 2.4589 2.27412 2.95813 2.27412C 3.50491 2.27412 4.12301 2.06008 4.3198 1.66011L 4.18112 1.34039L 1.67042 1.34039L 1.67042 1.33905Z" transform="translate(14.083 28.3892)" />
</g>
<g id="Vector_5">
<path d="M 2.83163 1.33772L 0.660361 1.33772C 0.295841 1.33772 -1.20916e-06 1.03807 -1.20916e-06 0.668859C -1.20916e-06 0.299649 0.295841 5.8174e-07 0.660361 5.8174e-07L 2.83163 5.8174e-07C 3.19615 5.8174e-07 3.49199 0.299649 3.49199 0.668859C 3.49199 1.03807 3.19615 1.33772 2.83163 1.33772Z" transform="translate(25.5078 14.3198)" />
</g>
<g id="Vector_6">
<path d="M 2.63088 1.33772L 0.660361 1.33772C 0.295841 1.33772 -6.44885e-07 1.03807 -6.44885e-07 0.668858C -6.44885e-07 0.299648 0.295841 -3.87827e-07 0.660361 -3.87827e-07L 2.63088 -3.87827e-07C 2.9954 -3.87827e-07 3.29124 0.299648 3.29124 0.668858C 3.29124 1.03807 2.9954 1.33772 2.63088 1.33772Z" transform="translate(25.709 26.874)" />
</g>
</g>
</g>
</svg>

