<svg width="31" height="23" viewBox="0 0 31 23" version="1.1" xmlns="http://www.w3.org/2000/svg" xmlns:xlink="http://www.w3.org/1999/xlink">
<g id="Canvas" >
<g id="credit">
<g id="Vector">
<path d="M 2.23852 0C 2.59099 0 2.9787 0.105662 3.36642 0.281774L 9.99284 3.45178C 10.3101 2.74733 11.0502 2.21901 11.8962 2.25423L 15.7028 2.3599C 16.6193 2.3599 17.3242 2.14855 18.2054 1.86678C 19.0865 1.62022 20.144 1.33844 21.6243 1.33844C 22.8227 1.33844 24.4441 1.69066 25.7835 2.14855L 25.7835 1.33844C 25.7835 1.23277 25.8187 1.16233 25.854 1.05667C 25.8892 0.986223 25.9597 0.880552 25.9949 0.810108C 26.0654 0.739663 26.1359 0.704454 26.2064 0.669232C 26.2769 0.634009 26.3827 0.633996 26.4884 0.633996L 30.2951 0.633996C 30.4008 0.633996 30.4713 0.634009 30.577 0.669232C 30.6475 0.704454 30.718 0.774885 30.7885 0.810108C 30.859 0.84533 30.8943 0.951001 30.9295 1.05667C 30.9648 1.12711 31 1.23277 31 1.33844L 31 4.22667L 31 11.8347C 31 11.9403 30.9648 12.0108 30.9295 12.1165C 30.8943 12.1869 30.8238 12.2926 30.7885 12.363C 30.7533 12.4334 30.6475 12.4687 30.577 12.5039C 30.5065 12.5391 30.4008 12.5744 30.2951 12.5744L 26.4884 12.5744C 26.3827 12.5744 26.3122 12.5391 26.2064 12.5039C 26.1359 12.4687 26.0654 12.3982 25.9949 12.363C 25.9244 12.2926 25.8892 12.2221 25.854 12.1165C 25.8187 12.046 25.7835 11.9403 25.7835 11.8347L 25.7835 10.9189C 21.1309 10.1088 18.3816 11.4824 14.2225 11.4824C 13.3413 11.4824 12.4601 11.0598 11.297 10.461C 10.1691 9.86224 8.86494 9.08735 7.5608 8.24202C 4.95253 6.55135 2.23852 4.61412 0.828643 3.66312C 0.335186 3.34612 0.0532111 2.81777 0.0179642 2.32466C -0.0525296 1.83155 0.0884581 1.33844 0.370433 0.91577C 0.758149 0.352214 1.46309 0 2.23852 0ZM 2.16803 1.37368C 1.8508 1.37368 1.67457 1.54979 1.53358 1.7259C 1.42784 1.86679 1.39259 2.0429 1.39259 2.18378C 1.39259 2.32467 1.46309 2.39511 1.60408 2.50077C 3.0492 3.487 5.69272 5.38901 8.30099 7.04445C 9.60512 7.88979 10.874 8.66467 11.9314 9.193C 12.9888 9.75656 13.9405 10.0383 14.1872 10.0383C 17.9586 10.0383 20.9194 8.62945 25.7482 9.43956L 25.7482 8.84078C 25.7482 8.73511 25.7482 8.66467 25.7835 8.559C 25.8187 8.45334 25.8892 8.38289 25.9244 8.31244C 25.9949 8.242 26.0654 8.20679 26.1712 8.17157C 26.2417 8.13635 26.3474 8.10112 26.4531 8.10112C 26.5589 8.10112 26.6294 8.13635 26.7351 8.17157C 26.8056 8.20679 26.9114 8.242 26.9819 8.31244C 27.0523 8.38289 27.0876 8.45334 27.1228 8.559C 27.1581 8.62945 27.1933 8.73511 27.1933 8.84078L 27.1933 11.0598L 27.5458 11.0598L 27.5458 1.97244L 27.1933 1.97244L 27.1933 4.19146C 27.1933 4.29712 27.1581 4.36756 27.1228 4.47323C 27.0876 4.54368 27.0171 4.64935 26.9819 4.71979C 26.9114 4.79024 26.8409 4.82545 26.7351 4.86067C 26.6646 4.89589 26.5589 4.93112 26.4531 4.93112C 26.3474 4.93112 26.2769 4.89589 26.1712 4.86067C 26.1007 4.82545 25.9949 4.79024 25.9244 4.71979C 25.854 4.64935 25.8187 4.5789 25.7835 4.47323C 25.7482 4.36756 25.7482 4.29712 25.7482 4.19146L 25.7482 3.59267C 24.5146 3.13479 22.6112 2.67688 21.5891 2.67688C 20.2849 2.67688 19.439 2.88823 18.5931 3.13479C 17.7119 3.38135 16.8307 3.66312 15.6676 3.66312C 15.6676 3.66312 15.6676 3.66312 15.6323 3.66312L 11.8257 3.55744C 11.4732 3.55744 11.1912 3.83922 11.1912 4.08577C 11.1912 4.33233 11.438 4.57889 11.8609 4.61411L 19.0865 4.93112C 19.1923 4.93112 19.2628 4.96634 19.3685 5.00157C 19.439 5.03679 19.5448 5.10723 19.6152 5.17768C 19.6857 5.24812 19.721 5.31857 19.7562 5.42424C 19.7915 5.49468 19.7915 5.60034 19.7915 5.70601C 19.7915 5.81168 19.7562 5.88212 19.721 5.98778C 19.6857 6.05823 19.6152 6.1639 19.5448 6.23434C 19.4743 6.30479 19.4038 6.34 19.298 6.37522C 19.2275 6.41044 19.1218 6.41046 19.0161 6.41046L 11.7904 6.09345C 11.015 6.05822 10.3101 5.63557 9.95759 5.00157L 2.69673 1.51455C 2.52049 1.44411 2.34426 1.37368 2.16803 1.37368Z" transform="translate(0 10.4258)"/>
</g>
<g id="Vector_2">
<path d="M 13.6406 8.59919e-06C 14.8037 8.59919e-06 15.7906 0.951001 15.7906 2.14856L 15.7906 10.778C 15.7906 10.8837 15.7554 10.9541 15.7201 11.0598C 15.6849 11.1302 15.6144 11.2359 15.5791 11.3063C 15.5086 11.3768 15.4381 11.412 15.3324 11.4472C 15.2619 11.4825 15.1562 11.5177 15.0504 11.5177L 2.11481 11.5177C 0.951667 11.5177 -1.34456e-07 10.5667 -1.34456e-07 9.40434L -1.34456e-07 0.739667C -1.34456e-07 0.634001 0 0.56356 0.0352469 0.457894C 0.0704938 0.387449 0.140988 0.316992 0.176234 0.246547C 0.246728 0.176103 0.317222 0.140893 0.422963 0.105671C 0.528704 0.0704488 0.599197 0.0352223 0.704938 0.0352223C 0.704938 0 13.6406 8.59919e-06 13.6406 8.59919e-06ZM 13.2881 1.58501L 12.4069 1.58501C 12.3012 1.58501 12.2307 1.62022 12.1249 1.65544C 12.0544 1.69066 11.9487 1.76111 11.8782 1.79634C 11.8077 1.86678 11.7725 1.93722 11.7372 2.00766C 11.702 2.0781 11.6667 2.18379 11.6667 2.28946C 11.6667 2.39512 11.702 2.46556 11.7372 2.57123C 11.7725 2.64167 11.8077 2.74735 11.8782 2.81779C 11.9487 2.88823 12.0192 2.92344 12.1249 2.95867C 12.1954 2.99389 12.3012 3.02911 12.4069 3.02911L 13.2881 3.02911C 13.3938 3.02911 13.4643 2.99389 13.5701 2.95867C 13.6406 2.92344 13.7463 2.88823 13.8168 2.81779C 13.8873 2.74735 13.9225 2.6769 13.9578 2.57123C 13.993 2.50078 14.0283 2.39512 14.0283 2.28946C 14.0283 2.18379 13.993 2.11333 13.9578 2.00766C 13.9225 1.93722 13.8873 1.86678 13.8168 1.79634C 13.7463 1.72589 13.6758 1.69066 13.5701 1.65544C 13.4996 1.58499 13.3938 1.58501 13.2881 1.58501ZM 10.8208 1.58501L 9.93963 1.58501C 9.83389 1.58501 9.7634 1.62022 9.65765 1.65544C 9.58716 1.69066 9.48142 1.76111 9.41093 1.79634C 9.34043 1.86678 9.30519 1.93722 9.26994 2.00766C 9.23469 2.0781 9.19944 2.18379 9.19944 2.28946C 9.19944 2.39512 9.23469 2.46556 9.26994 2.57123C 9.30519 2.64167 9.34043 2.74735 9.41093 2.81779C 9.48142 2.88823 9.55191 2.92344 9.65765 2.95867C 9.72815 2.99389 9.83389 3.02911 9.93963 3.02911L 10.8208 3.02911C 10.9265 3.02911 10.997 2.99389 11.1028 2.95867C 11.1733 2.92344 11.279 2.88823 11.3495 2.81779C 11.42 2.74735 11.4552 2.6769 11.4905 2.57123C 11.5257 2.50078 11.561 2.39512 11.561 2.28946C 11.561 2.18379 11.5257 2.11333 11.4905 2.00766C 11.4552 1.93722 11.42 1.86678 11.3495 1.79634C 11.279 1.72589 11.2085 1.69066 11.1028 1.65544C 10.997 1.58499 10.9265 1.58501 10.8208 1.58501ZM 14.416 4.50845L 1.40988 4.50845L 1.40988 9.36912C 1.40988 9.75657 1.7271 10.0736 2.11481 10.0736L 14.416 10.0736L 14.416 4.50845Z" transform="translate(6.64453 0)"/>
</g>
</g>
</g>
</svg>

