<svg width="18" height="19" viewBox="0 0 18 19" version="1.1" xmlns="http://www.w3.org/2000/svg" xmlns:xlink="http://www.w3.org/1999/xlink">
<title>icon all categories</title>
<desc>Created using Figma</desc>
<g id="Canvas" transform="translate(-1718 778)">
<g id="icon all categories">
<use xlink:href="#path0_fill" transform="translate(1718 -777.565)" fill="#007CB1"/>
</g>
</g>
<defs>
<path id="path0_fill" d="M 0.81818 7.59847C 0.81764 7.5943 7.36738 7.59459 7.36738 7.59459C 7.36333 7.59515 7.36362 0.839961 7.36362 0.839961C 7.36416 0.844139 0.814416 0.843843 0.814416 0.843843C 0.818467 0.843286 0.81818 7.59847 0.81818 7.59847ZM 0 0.839961C 0 0.376064 0.372817 0 0.814416 0L 7.36738 0C 7.81717 0 8.1818 0.384511 8.1818 0.839961L 8.1818 7.59847C 8.1818 8.06237 7.80898 8.43843 7.36738 8.43843L 0.814416 8.43843C 0.364627 8.43843 0 8.05392 0 7.59847L 0 0.839961ZM 0.81818 17.7246C 0.81764 17.7204 7.36321 17.7207 7.36321 17.7207C 7.36334 17.7213 7.36362 10.9661 7.36362 10.9661C 7.36416 10.9703 0.814416 10.97 0.814416 10.97C 0.818467 10.9694 0.81818 17.7246 0.81818 17.7246ZM 0 10.9661C 0 10.5022 0.372817 10.1261 0.814416 10.1261L 7.36738 10.1261C 7.81717 10.1261 8.1818 10.5106 8.1818 10.9661L 8.1818 17.7246C 8.1818 18.1885 7.80898 18.5646 7.36738 18.5646L 0.814416 18.5646C 0.364627 18.5646 0 18.18 0 17.7246L 0 10.9661ZM 10.6363 17.7246C 10.6358 17.7204 17.1855 17.7207 17.1855 17.7207C 17.1815 17.7213 17.1818 10.9661 17.1818 10.9661C 17.1823 10.9703 10.6326 10.97 10.6326 10.97C 10.6366 10.9694 10.6363 17.7246 10.6363 17.7246ZM 9.81816 10.9661C 9.81816 10.5022 10.191 10.1261 10.6326 10.1261L 17.1855 10.1261C 17.6353 10.1261 18 10.5106 18 10.9661L 18 17.7246C 18 18.1885 17.6271 18.5646 17.1855 18.5646L 10.6326 18.5646C 10.1828 18.5646 9.81816 18.18 9.81816 17.7246L 9.81816 10.9661ZM 10.6363 7.59847C 10.6358 7.5943 17.1855 7.59459 17.1855 7.59459C 17.1815 7.59515 17.1818 0.839961 17.1818 0.839961C 17.1823 0.844139 10.6326 0.843843 10.6326 0.843843C 10.6366 0.843286 10.6363 7.59847 10.6363 7.59847ZM 9.81816 0.839961C 9.81816 0.376064 10.191 0 10.6326 0L 17.1855 0C 17.6353 0 18 0.384511 18 0.839961L 18 7.59847C 18 8.06237 17.6271 8.43843 17.1855 8.43843L 10.6326 8.43843C 10.1828 8.43843 9.81816 8.05392 9.81816 7.59847L 9.81816 0.839961Z"/>
</defs>
</svg>
