<svg width="20" height="20" viewBox="0 0 20 20" version="1.1" xmlns="http://www.w3.org/2000/svg" xmlns:xlink="http://www.w3.org/1999/xlink">

<g id="icon-pb">
<path id="path0_fill-pb" fill-rule="evenodd" d="M 19.3548 10.3226C 19.3548 12.2366 18.7873 14.1076 17.7239 15.6991C 16.6605 17.2905 15.1491 18.5309 13.3808 19.2633C 11.6125 19.9958 9.66669 20.1875 7.78945 19.814C 5.91222 19.4406 4.18787 18.519 2.83445 17.1655C 1.48104 15.8121 0.559358 14.0878 0.185953 12.2105C -0.187452 10.3333 0.00419309 8.38751 0.736654 6.61919C 1.46911 4.85087 2.70949 3.33947 4.30094 2.2761C 5.89238 1.21273 7.76341 0.645161 9.67742 0.645161L 9.67742 10.3226L 19.3548 10.3226ZM 10.3226 0C 12.8892 1.28929e-15 15.3507 1.01958 17.1656 2.83445C 18.9804 4.64932 20 7.11081 20 9.67742L 10.3226 9.67742L 10.3226 0ZM 11.6129 1.29032C 15.2794 1.82387 17.6897 4.32258 18.7097 8.38709L 11.6129 8.38709L 11.6129 1.29032Z"/>
</g>
</svg>
