<svg width="36" height="29" viewBox="0 0 36 29" version="1.1" xmlns="http://www.w3.org/2000/svg" xmlns:xlink="http://www.w3.org/1999/xlink">
<title>Vector</title>

<g id="icon-compare">

<path id="path0_fill" d="M 36 24.9397C 35.991 24.8727 35.9733 24.8072 35.9472 24.745L 29.7153 10.179C 29.7232 10.1514 29.7295 10.1233 29.7342 10.095C 29.7486 9.99571 29.7435 9.89452 29.7193 9.79722C 29.6951 9.69991 29.6522 9.60839 29.5931 9.5279C 29.5339 9.44741 29.4597 9.37951 29.3747 9.3281C 29.2896 9.2767 29.1954 9.24278 29.0974 9.22829L 21.2077 8.06378C 21.1458 7.43748 20.8959 6.84546 20.4917 6.36756C 20.0874 5.88966 19.5483 5.54887 18.947 5.39112L 18.947 0.763615C 18.947 0.561092 18.8676 0.366864 18.7263 0.223658C 18.585 0.0804522 18.3933 0 18.1934 0C 17.9936 0 17.8019 0.0804522 17.6606 0.223658C 17.5193 0.366864 17.4399 0.561092 17.4399 0.763615L 17.4399 5.38349C 16.9818 5.50383 16.5576 5.73075 16.2012 6.04623C 15.8447 6.36172 15.5658 6.75707 15.3864 7.20089L 7.12368 5.97911C 7.01338 5.96258 6.90083 5.97106 6.79415 6.00394C 6.68748 6.03682 6.58933 6.09329 6.50679 6.16925C 6.42425 6.24522 6.35938 6.33881 6.31685 6.44326C 6.27433 6.54771 6.2552 6.66042 6.26086 6.77327L 0.0553179 21.282C 0.0293063 21.3442 0.0115682 21.4097 0.00256883 21.4767C 0.00256883 21.4767 0.00256883 21.511 0.00256883 21.5263C 0.00256883 21.5416 0.00256883 21.5607 0.00256883 21.5798C -0.000856272 21.6217 -0.000856272 21.6638 0.00256883 21.7058C 0.00256883 21.7058 0.00256883 21.7058 0.00256883 21.7249C 0.0158158 21.7898 0.0373476 21.8527 0.0666212 21.9119L 0.0892279 21.9539C 0.121966 22.0139 0.16252 22.0691 0.209797 22.1181L 1.15174 23.0726C 2.71984 24.6581 4.84451 25.5485 7.05963 25.5485C 9.27475 25.5485 11.3994 24.6581 12.9675 23.0726L 13.9095 22.1181C 13.9567 22.0691 13.9973 22.0139 14.03 21.9539L 14.0526 21.9158C 14.0819 21.8565 14.1034 21.7936 14.1167 21.7287C 14.1201 21.6867 14.1201 21.6446 14.1167 21.6027C 14.1167 21.6027 14.1167 21.5683 14.1167 21.5492C 14.1167 21.5301 14.1167 21.5149 14.1167 21.4996C 14.1077 21.4326 14.09 21.3671 14.0639 21.3049L 8.25025 7.68961L 15.1754 8.71285C 15.2373 9.39546 15.524 10.0371 15.9893 10.5347C 16.4547 11.0322 17.0717 11.3566 17.741 11.4558C 18.4103 11.5549 19.0931 11.4231 19.6796 11.0814C 20.266 10.7397 20.7219 10.208 20.9741 9.57192L 27.9784 10.6066L 21.9273 24.7335C 21.9013 24.7958 21.8836 24.8612 21.8746 24.9282C 21.8746 24.9282 21.8746 24.9626 21.8746 24.9779C 21.8746 24.9931 21.8746 25.0122 21.8746 25.0313C 21.8711 25.0732 21.8711 25.1154 21.8746 25.1573C 21.8746 25.1573 21.8746 25.1573 21.8746 25.1764C 21.8878 25.2413 21.9093 25.3042 21.9386 25.3635L 21.9612 25.4055C 21.994 25.4654 22.0345 25.5207 22.0818 25.5697L 23.0237 26.5242C 24.5918 28.1096 26.7165 29 28.9316 29C 31.1467 29 33.2714 28.1096 34.8395 26.5242L 35.7815 25.5697C 35.8287 25.5207 35.8693 25.4654 35.902 25.4055L 35.9246 25.3635C 35.9539 25.3042 35.9754 25.2413 35.9887 25.1764C 35.9887 25.1764 35.9887 25.1764 35.9887 25.1573C 35.9921 25.1154 35.9921 25.0732 35.9887 25.0313C 35.9887 25.0313 35.9887 24.9969 35.9887 24.9779C 35.9887 24.9588 36 24.9549 36 24.9397ZM 12.2253 20.8162L 1.88646 20.8162L 7.07094 8.73958L 12.2253 20.8162ZM 23.7698 24.283L 28.9241 12.2178L 34.1086 24.2791L 23.7698 24.283Z"/>
</g>
</svg>
