<svg width="18" height="20" viewBox="0 0 18 20" version="1.1" xmlns="http://www.w3.org/2000/svg" xmlns:xlink="http://www.w3.org/1999/xlink">
<title>icon plumbing</title>
<desc>Created using Figma</desc>
<g id="Canvas" transform="translate(-1718 888)">
<g id="icon plumbing">
<use xlink:href="#path0_fill" transform="translate(1718.78 -887.488)" fill="#007CB1"/>
</g>
</g>
<defs>
<path id="path0_fill" d="M 14.5671 6.93507L 5.31874 6.93507L 5.31874 0L 4.58764 0L 4.58764 5.40471L 0.731098 5.40471L 0.731098 0L -6.97229e-08 0L -6.97229e-08 9.68585C -6.97229e-08 11.1968 1.18803 12.4366 2.66851 12.4366L 11.8986 12.4366L 11.8986 19.3717L 12.6297 19.3717L 12.6297 13.967L 16.4863 13.967L 16.4863 19.3717L 17.2174 19.3717L 17.2174 9.68585C 17.2174 8.17486 16.0293 6.93507 14.5671 6.93507ZM 10.4364 7.70994L 10.4364 11.6618L 6.78093 11.6618L 6.78093 7.70994L 10.4364 7.70994ZM 0.731098 9.68585L 0.731098 6.17957L 4.58764 6.17957L 4.58764 7.70994L 6.04983 7.70994L 6.04983 11.6618L 2.65023 11.6618C 1.59014 11.6618 0.731098 10.7707 0.731098 9.68585ZM 12.6297 13.1921L 12.6297 11.6618L 11.1675 11.6618L 11.1675 7.70994L 14.5671 7.70994C 15.6272 7.70994 16.5045 8.60104 16.5045 9.68585L 16.5045 13.1921L 12.6297 13.1921Z"/>
</defs>
</svg>
