<svg width="21" height="10" viewBox="0 0 21 10" version="1.1" xmlns="http://www.w3.org/2000/svg" xmlns:xlink="http://www.w3.org/1999/xlink">
<g id="Canvas" fill="none">
<g id="Vector">
<path d="M 0 1.5C 0 0.671573 0.671573 0 1.5 0L 19.5 0C 20.3284 0 21 0.671573 21 1.5C 21 2.32843 20.3284 3 19.5 3L 1.5 3C 0.671573 3 0 2.32843 0 1.5Z" fill="#E0E0E0"/>
<path d="M 0 8.5C 0 7.67157 0.671573 7 1.5 7L 19.5 7C 20.3284 7 21 7.67157 21 8.5C 21 9.32843 20.3284 10 19.5 10L 1.5 10C 0.671573 10 0 9.32843 0 8.5Z" fill="#E0E0E0"/>
</g>
</g>
</svg>

