<svg width="45" height="45" viewBox="0 0 45 45" version="1.1" xmlns="http://www.w3.org/2000/svg" xmlns:xlink="http://www.w3.org/1999/xlink">
<title>Group</title>
<desc>Created using Figma</desc>
<g id="Canvas" transform="translate(-2167 636)">
<g id="Group">
<g id="Vector">
<use xlink:href="#path0_stroke" transform="translate(2168 -635)" fill="#007CB1"/>
</g>
<g id="Vector">
<use xlink:href="#path1_stroke" transform="translate(2168 -627.522)" fill="#007CB1"/>
</g>
<g id="Vector">
<use xlink:href="#path2_stroke" transform="translate(2206.33 -631.261)" fill="#007CB1"/>
</g>
<g id="Vector">
<use xlink:href="#path2_stroke" transform="translate(2202.59 -631.261)" fill="#007CB1"/>
</g>
<g id="Vector">
<use xlink:href="#path2_stroke" transform="translate(2198.85 -631.261)" fill="#007CB1"/>
</g>
<g id="Vector">
<use xlink:href="#path3_stroke" transform="translate(2171.74 -631.261)" fill="#007CB1"/>
</g>
<g id="Vector">
<use xlink:href="#path4_stroke" transform="translate(2176.44 -622.848)" fill="#007CB1"/>
</g>
<g id="Vector">
<use xlink:href="#path5_stroke" transform="translate(2183.89 -613.5)" fill="#007CB1"/>
</g>
</g>
</g>
<defs>
<path id="path0_stroke" d="M 2 1L 41 1L 41 -1L 2 -1L 2 1ZM 42 2L 42 41L 44 41L 44 2L 42 2ZM 41 42L 2 42L 2 44L 41 44L 41 42ZM 1 41L 1 2L -1 2L -1 41L 1 41ZM 2 42C 1.44772 42 1 41.5523 1 41L -1 41C -1 42.6569 0.343146 44 2 44L 2 42ZM 42 41C 42 41.5523 41.5523 42 41 42L 41 44C 42.6569 44 44 42.6569 44 41L 42 41ZM 41 1C 41.5523 1 42 1.44772 42 2L 44 2C 44 0.343146 42.6569 -1 41 -1L 41 1ZM 2 -1C 0.343146 -1 -1 0.343146 -1 2L 1 2C 1 1.44772 1.44772 1 2 1L 2 -1Z"/>
<path id="path1_stroke" d="M 0 1L 43 1L 43 -1L 0 -1L 0 1Z"/>
<path id="path2_stroke" d="M 1.86957 -1L 0 -1L 0 1L 1.86957 1L 1.86957 -1Z"/>
<path id="path3_stroke" d="M 0 1L 23.3696 1L 23.3696 -1L 0 -1L 0 1Z"/>
<path id="path4_stroke" d="M 13.0602 26.1739L 12.7052 27.1088L 13.0602 27.2436L 13.4152 27.1088L 13.0602 26.1739ZM 0.0667608 5.79565L -0.189132 4.82895L -0.845074 5.00258L -0.926086 5.67626L 0.0667608 5.79565ZM 13.0602 0L 13.7474 -0.726469L 13.0602 -1.37652L 12.373 -0.726468L 13.0602 0ZM 26.0537 5.79565L 27.0466 5.67626L 26.9656 5.00258L 26.3096 4.82895L 26.0537 5.79565ZM 13.4152 25.239C 6.36501 22.5617 3.30451 17.7352 1.97757 13.5775C 1.30113 11.473 1.08103 9.58262 1.01907 8.14742C 0.987816 7.44284 0.999012 6.88954 1.01816 6.48872C 1.02732 6.29424 1.03786 6.15186 1.04676 6.04841C 1.05094 5.9995 1.05418 5.9664 1.0568 5.94113C 1.05797 5.92987 1.05867 5.92341 1.05932 5.91766C 1.05956 5.91547 1.05964 5.91483 1.05977 5.91371C 1.05979 5.91349 1.05978 5.9136 1.05977 5.91371C 1.05975 5.91383 1.05971 5.91416 1.05971 5.91421C 1.05966 5.9146 1.05961 5.91505 0.0667608 5.79565C -0.926086 5.67626 -0.926153 5.67682 -0.926226 5.67743C -0.92626 5.67771 -0.926339 5.67838 -0.926406 5.67894C -0.926498 5.67973 -0.926696 5.68141 -0.926879 5.68298C -0.927165 5.68545 -0.927706 5.69017 -0.928259 5.6951C -0.929209 5.70359 -0.930823 5.7184 -0.932571 5.73525C -0.935771 5.76622 -0.940694 5.81674 -0.945916 5.87737C -0.955823 5.99301 -0.969023 6.17342 -0.979581 6.39376C -0.999865 6.82255 -1.01204 7.46695 -0.979027 8.23464C -0.912451 9.74401 -0.653482 11.8966 0.0722536 14.1856C 1.54967 18.8148 4.9859 24.1774 12.7052 27.1088L 13.4152 25.239ZM 0.322653 6.76236C 5.16685 5.47673 8.52794 3.98011 10.6217 2.82715C 11.6869 2.23909 12.4707 1.71632 12.9612 1.35776C 13.2148 1.17198 13.4121 1.01463 13.5334 0.91353C 13.5981 0.859573 13.6517 0.81291 13.6833 0.784871C 13.701 0.769112 13.7171 0.754535 13.7259 0.746514C 13.7312 0.741626 13.7366 0.73662 13.7392 0.734156C 13.741 0.732483 13.7431 0.730562 13.744 0.729722C 13.7447 0.729082 13.7455 0.728268 13.7459 0.727947C 13.7462 0.727676 13.7466 0.727306 13.7467 0.727171C 13.7471 0.726813 13.7474 0.726468 13.0602 0C 12.373 -0.726468 12.3734 -0.726788 12.3737 -0.727096C 12.3738 -0.727182 12.3741 -0.727477 12.3743 -0.727648C 12.3742 -0.727526 12.3755 -0.728772 12.3752 -0.728528C 12.3752 -0.728483 12.3762 -0.729485 12.3761 -0.729394C 12.3769 -0.730094 12.3757 -0.728968 12.3742 -0.727589C 12.3693 -0.723075 12.3648 -0.718972 12.3548 -0.710152C 12.3311 -0.689033 12.3011 -0.66294 12.2526 -0.622506C 12.1475 -0.534825 12.0001 -0.416849 11.7804 -0.256472C 11.3245 0.0772935 10.6478 0.530205 9.65636 1.07556C 7.63711 2.18946 4.50145 3.59066 -0.189132 4.82895L 0.322653 6.76236ZM 13.0602 0C 12.373 0.726469 12.3734 0.726814 12.3738 0.727171C 12.3739 0.727307 12.3743 0.727676 12.3746 0.727947C 12.3749 0.728268 12.3758 0.729082 12.3765 0.729723C 12.3774 0.730562 12.3794 0.732483 12.3812 0.734156C 12.3839 0.73662 12.3893 0.741626 12.3946 0.746515C 12.4034 0.754535 12.4194 0.769112 12.4372 0.784871C 12.4687 0.81291 12.5224 0.859573 12.587 0.91353C 12.7084 1.01463 12.9056 1.17198 13.1593 1.35776C 13.6498 1.71632 14.4336 2.23909 15.4988 2.82715C 17.5925 3.98011 20.9536 5.47673 25.7978 6.76236L 26.3096 4.82895C 21.619 3.59066 18.4834 2.18946 16.4641 1.07556C 15.4727 0.530205 14.7959 0.0772934 14.34 -0.256472C 14.1204 -0.416849 13.973 -0.534826 13.8679 -0.622506C 13.8193 -0.66294 13.7894 -0.689033 13.7657 -0.710152C 13.7557 -0.718972 13.7512 -0.723075 13.7463 -0.72759C 13.7448 -0.728969 13.7436 -0.730095 13.7443 -0.729394C 13.7442 -0.729485 13.7453 -0.728484 13.7453 -0.728528C 13.745 -0.728772 13.7463 -0.727527 13.7462 -0.727648C 13.7464 -0.727477 13.7467 -0.727182 13.7468 -0.727096C 13.7471 -0.726789 13.7474 -0.726469 13.0602 0ZM 26.0537 5.79565C 25.0609 5.91505 25.0608 5.9146 25.0608 5.91421C 25.0608 5.91416 25.0607 5.91383 25.0607 5.91371C 25.0607 5.9136 25.0607 5.91349 25.0607 5.91371C 25.0608 5.91483 25.0609 5.91547 25.0612 5.91766C 25.0618 5.92341 25.0625 5.92987 25.0637 5.94113C 25.0663 5.9664 25.0695 5.9995 25.0737 6.04841C 25.0826 6.15186 25.0932 6.29424 25.1023 6.48872C 25.1215 6.88954 25.1327 7.44284 25.1014 8.14742C 25.0395 9.58262 24.8193 11.473 24.1429 13.5775C 22.816 17.7352 19.7555 22.5617 12.7052 25.239L 13.4152 27.1088C 21.1346 24.1774 24.5708 18.8148 26.0482 14.1856C 26.774 11.8966 27.0329 9.74401 27.0995 8.23464C 27.1325 7.46695 27.1203 6.82255 27.1001 6.39376C 27.0895 6.17342 27.0763 5.99301 27.0664 5.87737C 27.0612 5.81674 27.0563 5.76622 27.0531 5.73525C 27.0513 5.7184 27.0497 5.70359 27.0487 5.6951C 27.0482 5.69017 27.0476 5.68545 27.0474 5.68298C 27.0472 5.68141 27.047 5.67973 27.0469 5.67894C 27.0468 5.67838 27.0467 5.67771 27.0467 5.67743C 27.0466 5.67682 27.0466 5.67626 26.0537 5.79565Z"/>
<path id="path5_stroke" d="M 3.73913 7.47826L 3.03202 8.18537L 3.73913 8.89247L 4.44624 8.18537L 3.73913 7.47826ZM -0.707107 4.44624L 3.03202 8.18537L 4.44624 6.77115L 0.707107 3.03202L -0.707107 4.44624ZM 4.44624 8.18537L 11.9245 0.707107L 10.5103 -0.707107L 3.03202 6.77115L 4.44624 8.18537Z"/>
</defs>
</svg>
