<svg width="37" height="25" viewBox="0 0 37 25" version="1.1" xmlns="http://www.w3.org/2000/svg" xmlns:xlink="http://www.w3.org/1999/xlink">
<g id="Canvas" fill="none">
<g id="icon_ukr">
<path d="M 36.994 10.3092L 36.994 10.076C 36.994 9.92056 36.9546 9.80397 36.8759 9.68738C 36.9546 9.49305 36.9546 9.25987 36.8366 9.06554L 36.7578 8.91009C 36.5611 8.59917 36.2069 8.44371 35.8527 8.52144L 35.6952 8.56031C 35.5772 8.36598 35.3804 8.24939 35.1443 8.21052L 34.8688 8.17166L 34.8688 8.1328C 34.7507 7.93847 34.5933 7.78301 34.3965 7.74415C 34.2391 7.70529 34.0423 7.70529 33.8849 7.78301C 33.8062 7.66642 33.7275 7.54983 33.6094 7.51096C 33.452 7.39437 33.2552 7.3555 33.0978 7.39437C 32.9404 7.23891 32.7436 7.16118 32.5075 7.16118L 32.1926 7.16118C 32.1139 7.16118 32.0352 7.20005 31.9565 7.20005L 31.9171 7.08345C 31.8778 6.88913 31.7597 6.73367 31.6417 6.61708C 31.6023 6.46162 31.5236 6.30616 31.4055 6.22843C 31.1694 6.03411 30.8545 5.99525 30.5791 6.11184L 30.0674 6.34503L 29.6345 6.42276C 29.5165 6.46162 29.359 6.50049 29.241 6.57821C 29.1623 6.53935 29.0836 6.50049 29.0048 6.46162C 29.0048 6.42276 28.9655 6.42276 28.9655 6.38389L 28.8474 6.2673C 28.6507 6.03411 28.2965 5.95638 28.021 6.07298L 27.8242 6.15071C 27.8242 6.07298 27.8242 5.99525 27.7848 5.91752L 27.5881 5.25682C 27.6668 5.02363 27.6274 4.75158 27.47 4.55726C 27.3913 4.44067 27.2339 4.32407 27.0764 4.28521C 26.9977 3.97429 26.7222 3.7411 26.368 3.70224L 26.0532 3.66338C 25.9351 3.66338 25.8171 3.66338 25.699 3.70224C 25.6203 3.66338 25.5809 3.66338 25.5022 3.62451L 25.4235 3.62451C 25.4235 3.58565 25.4235 3.50792 25.4235 3.46905C 25.5022 3.27473 25.5809 3.11927 25.5809 2.96381L 25.6203 2.61403C 25.6596 2.30312 25.5022 2.03107 25.2267 1.87561L 25.0693 1.79788L 24.9906 1.72015L 24.9513 1.29264C 24.9119 1.09832 24.7938 0.903994 24.6758 0.7874L 24.0461 0.243297C 23.8099 0.0489744 23.5345 0.0101098 23.259 0.0878389C 23.2196 0.0878389 23.1803 0.0878389 23.1409 0.0489743L 22.5506 0.0101098C 22.3538 -0.0287547 22.1177 0.0489743 21.9603 0.165568L 21.6848 0.398755L 21.6061 0.321026C 21.488 0.243297 21.3306 0.165568 21.2125 0.165568L 20.937 0.126703C 20.7402 0.126703 20.5041 0.165568 20.3467 0.321026C 20.1499 0.476484 20.0712 0.670807 20.0712 0.903994L 20.0712 0.942858L 19.9138 0.903994C 19.8744 0.903994 19.8351 0.903994 19.7957 0.865129L 19.048 0.7874C 18.8512 0.748536 18.6544 0.826265 18.497 0.942858L 18.4576 0.942858L 18.1034 0.942858C 17.7492 0.942858 17.395 1.21491 17.3163 1.56469L 17.3163 1.60356L 17.1589 1.72015C 17.0802 1.79788 17.0015 1.91447 16.9621 1.9922L 16.8047 2.38085C 16.6079 2.45858 16.5292 2.57517 16.4505 2.73063C 16.3718 2.73063 16.3324 2.73063 16.2537 2.76949L 16.0963 2.80836C 16.0176 2.76949 15.9389 2.73063 15.8602 2.69176C 15.6634 2.6529 15.4273 2.69176 15.2305 2.80836L 15.2305 2.76949C 15.1518 2.57517 14.9944 2.41971 14.7582 2.34198C 14.5615 2.26425 14.3253 2.26425 14.1286 2.38085L 13.735 2.57517C 13.735 2.57517 13.735 2.57517 13.6956 2.57517L 13.3808 2.5363C 13.2627 2.38085 13.066 2.26425 12.8692 2.22539C 12.633 2.18652 12.3576 2.26425 12.2001 2.45858L 12.1214 2.41971C 12.0034 2.38085 11.8459 2.38085 11.7279 2.41971L 11.6492 2.38085C 11.5705 2.34198 11.4917 2.34198 11.413 2.34198C 11.3343 2.22539 11.2556 2.10879 11.1375 2.03106C 10.9408 1.91447 10.7046 1.87561 10.5079 1.91447L 10.2717 1.9922L 9.79947 1.79788C 9.72076 1.75901 9.6814 1.75901 9.60269 1.75901C 9.44527 1.64242 9.24849 1.60356 9.01236 1.60356L 8.85494 1.64242L 8.81559 1.56469C 8.69752 1.48696 8.57945 1.4481 8.46139 1.40923L 7.98912 1.3315C 7.8317 1.29264 7.63493 1.3315 7.51686 1.40923L 7.35944 1.40923L 7.08395 1.3315C 6.92653 1.25377 6.72975 1.29264 6.53298 1.3315L 6.13943 1.48696L 4.99812 1.60356C 4.64392 1.64242 4.36844 1.87561 4.28973 2.18652L 4.32908 2.34198C 4.13231 2.22539 3.85682 2.22539 3.66004 2.34198L 3.30584 2.49744C 3.26649 2.49744 3.26649 2.5363 3.22713 2.5363L 3.14842 2.45858L 3.18778 2.57517C 2.91229 2.76949 2.79423 3.11927 2.91229 3.43019C 2.87294 3.58565 2.91229 3.77997 2.991 3.89656L 2.95165 3.97429C 2.87294 4.24634 2.95165 4.51839 3.14842 4.75158L 3.42391 5.02363L 3.54198 5.41228C 3.54198 5.45114 3.54198 5.45114 3.58133 5.49001C 3.58133 5.52887 3.54198 5.6066 3.54198 5.64547C 3.54198 5.83979 3.58133 6.03411 3.6994 6.18957C 3.58133 6.22843 3.46327 6.30616 3.3452 6.38389L 2.44003 7.27778C 2.40067 7.31664 2.40067 7.3555 2.36132 7.3555L 1.10195 9.10441C 0.944527 9.29873 0.905172 9.57078 0.983882 9.80397L 1.10195 10.1538L 1.10195 10.1926C 0.983882 10.2703 0.905172 10.3481 0.826461 10.4647L 0.629685 10.8533C 0.590329 10.8922 0.590329 10.9699 0.550974 11.0088L 0.393553 11.5529L 0.236132 11.7083C 0.0787106 11.8249 0 12.0192 0 12.2136L 0 12.7965C 0 12.9909 0.0393553 13.224 0.196776 13.3795C 0.275487 13.4572 0.354198 13.535 0.472264 13.5738L 0.550974 13.7293C 0.629685 13.8847 0.787106 14.0402 0.944527 14.0791C 1.06259 14.3123 1.29872 14.4677 1.57421 14.5066C 1.65292 14.7009 1.81034 14.8175 2.00712 14.8952C 2.24325 14.973 2.51874 14.9341 2.71552 14.8175L 2.79423 14.7786C 2.83358 14.7786 2.83358 14.7786 2.87294 14.7398L 2.95165 14.7786C 3.14842 14.8952 3.3452 14.973 3.58133 14.9341C 3.62069 14.9341 3.66004 14.8952 3.6994 14.8952C 3.89617 15.0507 4.17166 15.0895 4.44715 15.0118L 4.60457 15.0895C 4.76199 15.1673 4.91941 15.1673 5.11619 15.1284L 5.27361 15.0895C 5.31296 15.1284 5.39167 15.1673 5.47039 15.2061C 5.58845 15.4782 5.90329 15.6725 6.17878 15.6725L 6.49362 15.6725C 6.6904 15.6725 6.88718 15.5948 7.0446 15.4393L 7.35944 15.0895L 8.77623 14.8952C 9.01236 14.8564 9.20914 14.7398 9.3272 14.5066L 9.52398 14.1568L 9.83882 14.0402L 9.87818 14.0402C 10.075 14.0402 10.2717 13.9625 10.4292 13.807L 10.5079 13.807L 10.744 13.807C 10.9014 13.807 11.0588 13.7682 11.2163 13.6904C 11.3343 13.6904 11.4524 13.6516 11.5311 13.5738L 11.6098 13.6516C 11.6885 13.8459 11.8066 14.0402 12.0034 14.1179C 12.0427 14.1568 12.1214 14.1568 12.1608 14.1568C 12.1608 14.1568 12.2001 14.1568 12.2001 14.1957C 12.2789 14.2734 12.3576 14.3511 12.4756 14.39C 12.5937 14.5454 12.7511 14.6232 12.9479 14.662C 13.066 14.7009 13.2234 14.662 13.3414 14.6232C 13.4202 14.7786 13.5776 14.8952 13.735 14.9341L 13.735 14.973L 13.7744 15.0118C 13.6956 15.1673 13.6956 15.3227 13.735 15.4782C 13.6956 15.6725 13.735 15.8668 13.8531 16.0612L 13.9318 16.1778C 14.0105 16.3332 14.1679 16.4498 14.3253 16.4887C 14.3647 16.5275 14.404 16.6053 14.4434 16.6441C 14.4434 16.7607 14.4827 16.9162 14.5615 17.0328C 14.5221 17.3826 14.7582 17.6935 15.0731 17.8101C 15.1124 17.8878 15.1518 17.9267 15.2305 17.9655C 15.1911 18.0433 15.1911 18.0821 15.1911 18.1598C 15.1518 18.4319 15.2699 18.7039 15.506 18.8983L 15.9389 19.2092C 15.9782 19.2481 16.0176 19.2481 16.057 19.2869C 16.1357 19.4424 16.2537 19.559 16.3718 19.5978L 16.4112 19.6756C 16.5292 19.8699 16.726 20.0253 16.9621 20.0642L 17.1589 20.1031C 17.5525 20.1808 17.946 19.9865 18.0641 19.5978L 18.1034 19.4812L 18.3002 19.2092C 18.3396 19.1703 18.3396 19.1315 18.3789 19.0926L 18.4183 18.9371C 18.4183 18.8983 18.4576 18.8594 18.4576 18.8205C 18.497 18.8205 18.497 18.7817 18.5363 18.7817L 18.5757 18.7817C 18.6151 18.7817 18.6544 18.7817 18.7331 18.7817C 18.7725 18.8205 18.8118 18.8594 18.8118 18.8983L 18.9299 19.0149L 18.9693 19.0537C 18.9693 19.2869 19.0873 19.4812 19.2841 19.6367C 19.4809 19.7922 19.717 19.831 19.9138 19.7922L 19.9531 19.831C 19.9925 19.8699 20.0318 19.9476 20.0712 19.9865L 20.1106 20.0253C 20.1893 20.1031 20.3073 20.1419 20.4254 20.1808L 20.7009 20.2585C 20.7796 20.2974 20.8189 20.2974 20.8977 20.2974L 21.1338 20.2974C 21.1731 20.2974 21.1731 20.2974 21.2125 20.2974L 21.1731 20.3363C 21.1338 20.3363 21.1338 20.3751 21.0944 20.3751L 20.7009 20.6083C 20.6615 20.6472 20.5828 20.686 20.5435 20.7638L 20.4254 20.8804C 20.268 21.0358 20.2286 21.269 20.2286 21.5022C 20.1893 21.6576 20.2286 21.852 20.3073 22.0074C 20.4254 22.2018 20.6222 22.3572 20.8583 22.3961L 21.0157 22.4349C 21.0944 22.4349 21.2125 22.4349 21.2912 22.4349L 21.4093 22.3961C 21.4486 22.3961 21.488 22.3961 21.5273 22.3572L 21.7241 22.5515C 21.7635 22.6293 21.8422 22.6681 21.9209 22.707L 21.9603 22.7459C 22.039 22.7847 22.1177 22.8236 22.1964 22.8236L 22.2751 22.8236C 22.2357 22.9013 22.2357 22.979 22.2357 23.0956L 22.2357 23.1734C 21.9996 23.4066 21.9603 23.7563 22.0783 24.0284L 22.1177 24.1061C 22.157 24.145 22.157 24.1838 22.1964 24.2227L 22.2751 24.3393C 22.3538 24.4559 22.4719 24.5336 22.6293 24.6114C 22.708 24.6891 22.7867 24.7668 22.8654 24.8057L 23.0228 24.8834C 23.1016 24.9223 23.1803 24.9223 23.259 24.9611L 23.4164 25C 23.4558 25 23.4951 25 23.5345 25C 23.5738 25 23.5738 25 23.6132 25L 24.0461 24.9611C 24.1248 24.9611 24.2035 24.9223 24.2822 24.8834L 24.4396 24.8057C 24.5183 24.7668 24.5971 24.7279 24.6758 24.6502L 24.7545 24.5725C 24.7938 24.5336 24.8332 24.5336 24.8725 24.4948C 25.1087 24.417 25.2661 24.1838 25.3448 23.9507L 25.5416 23.8729L 25.6596 23.8729C 25.9745 23.9895 26.3287 23.9507 26.5648 23.6786L 26.6042 23.6397C 26.6435 23.6009 26.6829 23.562 26.7222 23.4843L 26.7616 23.4454C 26.7616 23.4454 26.801 23.4454 26.801 23.4066L 26.8797 23.3288C 26.9584 23.29 27.0371 23.2511 27.0764 23.2122C 27.2732 23.3288 27.5093 23.4066 27.7455 23.3288L 27.8242 23.3288C 27.8635 23.3288 27.9423 23.29 27.9816 23.2511L 28.021 23.2511L 28.1784 23.2511C 28.2571 23.2511 28.3358 23.2511 28.4145 23.2122L 28.8868 23.0568C 29.1623 22.979 29.359 22.707 29.3984 22.4349L 29.3984 22.3183C 29.3984 22.2795 29.3984 22.2795 29.3984 22.2406C 29.7526 22.0463 29.8707 21.5799 29.6739 21.2301L 29.5952 21.0358C 29.4771 20.8026 29.241 20.6472 29.0048 20.6083L 28.8868 20.6083C 28.7294 20.5306 28.5719 20.4917 28.4539 20.4917L 28.0603 20.4917C 27.9816 20.4917 27.8635 20.5306 27.7848 20.5306C 27.7455 20.5306 27.7061 20.4917 27.6668 20.4917C 27.3913 20.4529 27.0764 20.5694 26.919 20.7638L 26.7616 20.9192L 26.7222 20.8026C 26.7222 20.7638 26.6829 20.7249 26.6829 20.7249L 26.5255 20.414C 26.4468 20.1808 26.25 20.0253 26.0138 19.9476C 26.0532 19.9087 26.0926 19.8699 26.1319 19.831C 26.2893 19.7922 26.4468 19.7144 26.5648 19.5978C 26.8403 19.5978 27.0764 19.4424 27.2339 19.2092C 27.3126 19.1703 27.3519 19.1703 27.3913 19.0926L 27.5487 18.976C 27.5881 18.9371 27.6274 18.8983 27.6668 18.8594L 27.8242 18.7039L 27.9816 18.7039C 28.0603 18.7428 28.1784 18.7428 28.2571 18.7428L 28.3358 18.7428C 28.6113 18.7428 28.8474 18.6262 29.0048 18.393L 29.0048 18.3542C 29.0836 18.393 29.1623 18.4319 29.2803 18.4319L 29.359 18.4319C 29.7132 18.4708 30.0281 18.2764 30.1855 17.9655L 30.3036 17.8878C 30.461 17.9267 30.6578 17.8878 30.8152 17.8101L 30.8545 17.7712C 30.9726 17.6935 31.0907 17.6157 31.1694 17.4991L 31.2481 17.3826C 31.3268 17.3826 31.4055 17.3826 31.5236 17.3826C 31.6023 17.3826 31.681 17.4214 31.7991 17.3826C 31.8778 17.3826 31.9565 17.4214 31.9959 17.4214L 32.0746 17.4214C 32.2713 17.4214 32.4681 17.3437 32.5862 17.1882C 32.8223 17.0716 32.9797 16.7996 32.9797 16.5275C 33.1765 16.3332 33.2552 16.0223 33.1765 15.7502C 33.2552 15.7114 33.3339 15.6725 33.3733 15.6336C 33.6488 15.5948 33.8456 15.4005 33.9636 15.1673L 34.3178 15.245C 34.3572 15.245 34.3965 15.245 34.4359 15.245L 35.1049 15.245C 35.4198 15.245 35.6952 15.0507 35.8527 14.7786L 36.0101 14.4288C 36.0101 14.39 36.0494 14.3511 36.0494 14.3123C 36.0888 14.2345 36.1282 14.1568 36.1675 14.0791C 36.1675 14.0402 36.2069 13.9625 36.2069 13.9236C 36.2462 13.8847 36.2856 13.8459 36.2856 13.807C 36.4036 13.6127 36.4824 13.4184 36.443 13.1852L 36.4036 12.9131C 36.4036 12.7965 36.3249 12.7188 36.2856 12.6411L 36.1675 12.2524L 36.2069 12.2136L 36.4036 11.9804C 36.6398 11.7472 36.6398 11.3586 36.4824 11.0865L 36.6004 11.0476L 36.6398 11.0088C 36.8759 10.8533 37.0333 10.5813 36.994 10.3092ZM 32.7436 14.2345C 32.6649 14.3123 32.6255 14.3511 32.5468 14.39L 32.1533 14.5066C 31.8384 14.6232 31.6417 14.8952 31.6417 15.2061L 31.6417 15.5171L 31.6023 15.5559C 31.5629 15.6336 31.5236 15.6725 31.4842 15.7502L 31.4055 15.7502C 31.3268 15.7502 31.2875 15.7891 31.2087 15.7891L 30.9726 15.828C 30.9333 15.828 30.8939 15.828 30.8545 15.8668L 30.8152 15.9446C 30.7365 15.9446 30.6971 15.9834 30.6184 16.0223L 30.5004 16.1C 30.4216 16.1389 30.3429 16.2166 30.2642 16.2943C 30.1462 16.2943 30.0281 16.3332 29.9494 16.4109L 29.3984 16.7219C 29.359 16.7219 29.359 16.7607 29.3197 16.7607C 29.2803 16.7607 29.241 16.7607 29.2016 16.7607L 29.0442 16.7607C 28.9655 16.7607 28.9261 16.7996 28.8474 16.7996L 28.69 16.8773C 28.6507 16.8773 28.6113 16.9162 28.5719 16.9162L 28.3358 16.9939C 28.2965 17.0328 28.2571 17.0328 28.2177 17.0716L 27.9029 17.0716C 27.8635 17.0716 27.8242 17.0716 27.7848 17.0716L 27.5487 17.1105C 27.3913 17.1105 27.2732 17.1882 27.1552 17.266L 27.1158 17.2271C 26.9584 17.0716 26.7222 16.9939 26.4861 17.0328L 26.4074 17.0328C 25.9745 17.0716 25.699 17.4214 25.699 17.8489L 25.699 18.0821C 25.6597 18.121 25.6596 18.1598 25.6203 18.1598C 25.5809 18.1987 25.5416 18.2376 25.5022 18.2764C 25.4629 18.2764 25.4629 18.3153 25.4235 18.3153L 25.2661 18.393L 25.2267 18.4319C 25.148 18.4319 25.0693 18.4319 24.9906 18.4708C 24.9513 18.4319 24.9119 18.4319 24.8725 18.393C 24.7938 18.2764 24.6364 18.1987 24.5183 18.1598C 24.4003 18.121 24.1641 18.1598 24.0067 18.2764L 23.928 18.3153C 23.7312 18.1987 23.4951 18.1987 23.259 18.3153L 23.1803 18.3542C 23.0622 18.393 22.9441 18.5096 22.8654 18.6262C 22.7474 18.5485 22.5899 18.5096 22.3932 18.5096L 22.3145 18.5096C 22.1964 18.5096 22.039 18.5485 21.9603 18.6262L 21.5273 18.6651C 21.488 18.6651 21.488 18.6651 21.4486 18.6651C 21.488 18.5485 21.488 18.4319 21.488 18.3153L 21.4486 18.0433C 21.4093 17.7712 21.2125 17.538 20.9764 17.4214L 20.937 17.4214L 20.937 17.3826C 20.9764 17.1882 20.9764 16.955 20.8583 16.7996C 20.8189 16.6441 20.7402 16.4887 20.6222 16.3721L 20.5828 16.3332C 20.386 16.1389 20.0712 16.0612 19.8351 16.1389L 19.7564 16.1389C 19.4809 16.2166 19.2841 16.4109 19.2054 16.683L 19.2054 16.7219C 19.0873 16.7219 19.0086 16.7607 18.8905 16.7996L 18.7725 16.8384C 18.7331 16.8773 18.6938 16.8773 18.6544 16.9162L 18.5757 16.955C 18.497 16.9939 18.4576 17.0716 18.3789 17.1494C 18.2609 17.1494 18.1821 17.1494 18.0641 17.1882L 17.9067 17.2271C 17.8279 17.266 17.7492 17.3048 17.7099 17.3437L 17.4737 17.4214C 17.3163 17.4603 17.1589 17.538 17.0802 17.6935L 17.0015 17.8101C 16.9621 17.8489 16.9621 17.8878 16.9228 17.9267L 16.8834 17.9267L 16.9228 17.6157C 16.9621 17.3437 16.8441 17.0716 16.6079 16.9162C 16.5686 16.8384 16.4899 16.7607 16.3718 16.683C 16.2931 16.6441 16.2537 16.6053 16.175 16.5664C 16.175 16.5275 16.1357 16.4498 16.1357 16.4109L 16.1357 15.9057C 16.1357 15.6336 15.9782 15.3616 15.7028 15.245C 15.6241 15.2061 15.5453 15.1673 15.4666 15.1673C 15.4666 15.1284 15.4666 15.1284 15.4666 15.0895C 15.5453 14.9341 15.5847 14.7398 15.5453 14.5843C 15.5847 14.4288 15.5453 14.2734 15.4666 14.1179C 15.4273 14.0402 15.3879 13.9625 15.3092 13.9236C 15.1911 13.6127 14.8763 13.3795 14.5221 13.4184C 14.404 13.1463 14.1285 12.9909 13.8137 12.9909C 13.6956 12.9131 13.5776 12.8743 13.4595 12.8743C 13.3021 12.7577 13.1447 12.6799 12.9479 12.6799C 12.9085 12.6411 12.8692 12.6022 12.8298 12.5634L 12.2001 12.0581C 12.0821 11.9804 11.9247 11.9415 11.7672 11.9415L 11.2163 11.9415C 11.1375 11.9415 11.0588 11.9415 10.9801 11.9804C 10.8227 11.9415 10.7046 11.9804 10.5866 12.0192C 10.4292 11.9804 10.3111 11.9804 10.1537 12.0581L 10.1143 12.0581C 10.0356 12.0581 9.99624 12.0581 9.91753 12.0581L 9.60269 12.097C 9.3272 12.1358 9.05172 12.2913 8.97301 12.5634C 8.97301 12.6022 8.93365 12.6411 8.93365 12.6799L 8.69752 12.7965C 8.5401 12.8743 8.38268 12.9909 8.30397 13.1075L 8.14655 13.3406L 6.80847 13.535C 6.65104 13.5738 6.49362 13.6516 6.37556 13.7682L 6.29685 13.8459L 6.25749 13.8459L 6.21814 13.7682C 6.02136 13.4572 5.66716 13.3406 5.31296 13.4184L 4.88006 13.535L 4.60457 13.4184C 4.4865 13.3795 4.36844 13.3406 4.25037 13.3795C 4.21102 13.3795 4.17166 13.3406 4.13231 13.3406L 3.66004 13.224C 3.62069 13.224 3.54198 13.224 3.50262 13.224L 3.30584 13.0686C 3.10907 12.9131 2.87294 12.8743 2.67616 12.9131C 2.59745 12.9131 2.55809 12.952 2.47938 12.9909C 2.40067 12.952 2.28261 12.9131 2.16454 12.9131C 2.08583 12.7577 1.92841 12.6411 1.73163 12.5634L 1.73163 12.5245C 1.81034 12.4468 1.88905 12.3302 1.92841 12.1747L 2.04648 11.7472C 2.28261 11.8249 2.55809 11.7472 2.75487 11.6306C 2.95165 11.4751 3.06971 11.242 3.06971 11.0088L 3.06971 10.7756C 3.06971 10.5424 2.95165 10.3092 2.75487 10.1926C 2.75487 10.076 2.75487 9.92056 2.71552 9.80397L 2.6368 9.64851L 3.62069 8.28825L 4.28973 7.62756L 4.4865 7.58869C 4.72263 7.54983 4.91941 7.43323 5.03748 7.20005L 5.27361 6.8114C 5.35232 6.69481 5.39167 6.53935 5.39167 6.34503L 5.35232 5.80092C 5.43103 5.68433 5.47039 5.52887 5.47039 5.37341C 5.47039 5.14023 5.35232 4.90704 5.15554 4.75158L 5.03748 4.67385L 4.91941 4.32407C 4.88006 4.20748 4.80135 4.05202 4.72263 3.97429L 4.68328 3.93543C 4.76199 3.89656 4.8407 3.8577 4.88006 3.81883L 5.5491 3.31359C 5.62781 3.23587 5.70652 3.15814 5.74587 3.04154L 6.49362 2.96381C 6.57233 2.96381 6.61169 2.92495 6.6904 2.92495L 6.88718 2.84722L 7.00524 2.88608C 7.0446 2.88608 7.16266 2.92495 7.28073 2.92495L 7.91041 2.92495C 7.98912 2.92495 8.02848 2.92495 8.10719 2.88608L 8.22526 2.96381C 8.38268 3.08041 8.57945 3.11927 8.81559 3.11927C 8.8943 3.197 8.97301 3.23587 9.09107 3.27473L 9.24849 3.31359C 9.36656 3.35246 9.48462 3.35246 9.64205 3.31359L 9.91753 3.50792C 9.95689 3.54678 10.0356 3.54678 10.075 3.54678C 10.193 3.77997 10.4292 3.93543 10.7046 3.97429L 11.0195 4.01316C 11.0588 4.05202 11.1375 4.12975 11.1769 4.16861L 11.3343 4.28521C 11.6885 4.51839 12.1214 4.44067 12.3969 4.12975L 12.5543 4.09089C 12.633 4.12975 12.6724 4.16861 12.7511 4.16861C 12.8298 4.20748 12.8692 4.20748 12.9872 4.20748C 13.066 4.28521 13.1447 4.36294 13.2627 4.44067C 13.2627 4.44067 13.3021 4.44067 13.3021 4.47953C 13.4595 4.55726 13.6169 4.63499 13.7744 4.63499C 13.9318 4.63499 14.0892 4.55726 14.2073 4.47953C 14.404 4.71272 14.7189 4.82931 15.0337 4.75158L 15.3486 4.67385C 15.4273 4.63499 15.506 4.63499 15.5847 4.55726C 15.7028 4.59612 15.8602 4.59612 15.9782 4.55726L 16.1357 4.5184C 16.175 4.59612 16.2537 4.67385 16.3324 4.71272C 16.4505 4.90704 16.6473 5.0625 16.9228 5.10136L 17.0802 5.14023C 17.4344 5.17909 17.7492 5.02363 17.9067 4.71272L 18.1034 4.36294C 18.1821 4.20748 18.2215 4.01316 18.1821 3.81883L 18.0641 3.31359C 18.1034 3.23587 18.1034 3.197 18.1034 3.197L 18.3002 2.76949L 18.497 2.61403C 18.7725 2.69176 19.048 2.61403 19.2447 2.38085L 19.3628 2.38085C 19.5202 2.57517 19.7957 2.6529 20.0318 2.61403L 20.6222 2.5363C 20.7796 2.49744 20.937 2.45858 21.0551 2.34198L 21.3306 2.06993C 21.3699 2.03107 21.4093 1.9922 21.4486 1.95334C 21.4486 1.95334 21.4486 1.95334 21.488 1.95334L 21.9209 1.95334C 22.0783 1.95334 22.2751 1.91447 22.3932 1.79788L 22.5899 1.64242C 22.6293 1.68128 22.708 1.68128 22.7474 1.72015L 22.9048 1.75901C 23.0622 1.79788 23.259 1.79788 23.4164 1.75901L 23.4558 2.06993C 23.4558 2.18652 23.5345 2.34198 23.6132 2.41971L 23.6132 2.49744C 23.5345 2.57517 23.4558 2.69176 23.4164 2.80836C 23.3377 3.08041 23.4164 3.35246 23.6132 3.58565L 23.6919 3.66338C 23.6525 3.81883 23.6525 3.93543 23.6919 4.09089C 23.6132 4.36294 23.7312 4.67385 23.9674 4.86818L 24.0854 4.9459C 24.3216 5.10136 24.5971 5.14023 24.8725 5.02363L 24.8725 5.0625C 25.0693 5.25682 25.3448 5.37341 25.6203 5.29569C 25.6596 5.41228 25.7384 5.49001 25.8564 5.56774C 25.8958 5.64547 25.9351 5.68433 25.9745 5.76206C 25.8958 5.87865 25.8564 5.99525 25.8564 6.15071L 25.8564 6.34503C 25.8564 6.50049 25.8958 6.61708 25.9745 6.73367L 26.4074 7.43323C 26.6042 7.74415 26.9977 7.86074 27.3126 7.74415L 27.7061 7.58869C 27.8635 7.86074 28.1784 7.97734 28.4932 7.93847L 28.6113 8.0162C 28.8868 8.21052 29.2803 8.21052 29.5558 7.97734L 29.8707 7.74415L 30.2249 7.70529C 30.2642 7.70529 30.2642 7.70529 30.3036 7.70529L 30.3036 7.78301C 30.3429 7.97734 30.461 8.1328 30.6184 8.24939L 31.0907 8.56031L 31.2875 8.83236C 31.4055 9.02668 31.6023 9.14327 31.7991 9.18214C 31.9959 9.221 32.232 9.18214 32.4288 9.06554L 32.5468 8.94895C 32.5862 8.94895 32.5862 8.94895 32.6255 8.94895L 32.901 8.98782L 32.9797 9.02668C 33.0584 9.221 33.2159 9.37646 33.4126 9.45419C 33.6094 9.53192 33.8062 9.53192 33.9636 9.45419C 34.0423 9.49305 34.1604 9.53192 34.2391 9.57078L 34.4359 9.60965C 34.5146 9.76511 34.6327 9.8817 34.7507 9.95943L 35.0262 10.1149C 35.0656 10.1538 35.1443 10.1538 35.1836 10.1926C 35.1836 10.1926 35.1836 10.2315 35.1443 10.2315L 35.1049 10.2315C 34.7507 10.2703 34.4752 10.5424 34.3965 10.8922L 34.3572 11.0476C 34.3178 11.2808 34.3965 11.514 34.5146 11.6695L 34.3965 11.9804C 34.2785 12.3302 34.3965 12.7188 34.7114 12.9131C 34.672 13.0686 34.672 13.2629 34.7507 13.4184C 34.7114 13.4572 34.7114 13.4961 34.672 13.535C 34.6327 13.6127 34.6327 13.6516 34.5933 13.7293L 34.121 13.6516C 34.0423 13.6516 34.003 13.6516 33.9243 13.6516L 33.452 13.6516C 33.1372 13.6904 32.8223 13.9236 32.7436 14.2345ZM 24.2822 22.8236C 24.2429 22.8625 24.2429 22.9013 24.2035 22.9013L 24.0854 23.0956L 24.0461 23.1345C 24.0067 23.1345 23.9674 23.1734 23.9674 23.1734C 24.0067 23.1345 24.0067 23.0568 24.0067 22.979L 24.0461 22.8236C 24.0461 22.7459 24.0461 22.6681 24.0461 22.5515L 23.9674 22.1629C 23.9674 22.0463 23.928 21.9297 23.8493 21.852L 23.7706 21.7354C 23.7312 21.6965 23.6919 21.6188 23.6525 21.5799L 23.4558 21.4245L 23.2983 21.3079C 23.1803 21.2301 23.0622 21.1913 22.9048 21.1524C 22.9048 21.1524 22.9048 21.1135 22.8654 21.1135L 22.9441 21.0747C 23.0228 21.0358 23.0622 21.0358 23.1016 20.997L 23.1409 20.9581L 23.2196 20.9581C 23.3377 20.9581 23.4558 20.8804 23.5345 20.8415C 23.7312 20.8026 23.8887 20.686 24.0067 20.5306C 24.0461 20.4917 24.0854 20.4529 24.1248 20.414C 24.1248 20.414 24.1248 20.414 24.1642 20.414C 24.2035 20.4529 24.2429 20.4917 24.2822 20.5306C 24.3216 20.7638 24.5183 20.997 24.7545 21.0747C 24.8332 21.1135 24.9513 21.1524 25.0693 21.1524C 25.1087 21.1913 25.1874 21.2301 25.2661 21.2301C 25.2661 21.3079 25.2661 21.4245 25.2661 21.5022L 25.3055 21.6188C 25.3448 21.7354 25.3842 21.852 25.4629 21.9297L 25.5809 22.0852C 25.6203 22.1629 25.699 22.2018 25.7384 22.2406L 25.4235 22.2795C 25.3055 22.2795 25.2267 22.3183 25.148 22.3572L 24.9119 22.4738C 24.8725 22.4738 24.8332 22.5127 24.7938 22.5127L 24.6364 22.5904C 24.5577 22.6293 24.5183 22.6681 24.4396 22.7459L 24.2822 22.8236Z" fill="#007CB1"/>
</g>
</g>
</svg>

