<svg width="82" height="92" viewBox="0 0 82 92" fill="none" xmlns="http://www.w3.org/2000/svg">
<path d="M7.28301e-07 1.29375L1.52736 4.83958C4.67753 3.49792 8.30501 3.49792 11.4552 4.83958L12.9825 1.29375C8.87776 -0.431251 4.10477 -0.431251 7.28301e-07 1.29375Z" transform="translate(23.2363 46.2397)" fill="#333333"/>
<path d="M7.28301e-07 1.29375L1.52736 4.83958C4.67753 3.49792 8.30501 3.49792 11.4552 4.83958L12.9825 1.29375C8.87776 -0.431251 4.10477 -0.431251 7.28301e-07 1.29375Z" transform="translate(49.9648 46.2397)" fill="#333333"/>
<path d="M79.1362 38.3333C79.2317 17.1542 62.1444 0 41.0477 0C40.3795 0 39.8068 0 39.1385 0.0958333C18.901 1.05417 2.8638 17.825 2.8638 38.3333C1.05006 40.7292 0 43.7 0 46.9583V47.9167C0 54.5292 4.48661 60.0875 10.5006 61.7167C10.6915 77.8167 23.2922 90.9458 39.1385 91.9042C39.8068 92 40.3795 92 41.0477 92C53.7439 92 64.6263 84.2375 69.2084 73.1208C76.6543 68.1375 81.8091 58.8417 82 48.3C82 48.2042 82 48.0125 82 47.9167V46.9583C82 43.7 80.9499 40.7292 79.1362 38.3333ZM39.1385 3.92917C39.8068 3.83333 40.3795 3.83333 41.0477 3.83333C45.8207 3.83333 50.4028 4.79167 54.603 6.6125C51.071 15.1417 45.8207 22.7125 39.1385 28.75C32.17 35.1708 23.674 40.0583 14.319 42.6458V32.5833C11.5506 32.5833 9.06868 33.35 6.87311 34.6917C8.68684 18.0167 22.2421 4.79167 39.1385 3.92917ZM10.5006 45.0417V57.6917C6.58673 56.1583 3.81839 52.325 3.81839 47.9167V46.9583C3.81839 42.4542 6.58673 38.7167 10.5006 37.1833V45.0417ZM67.7765 61.3333C67.7765 64.5917 67.2037 67.6583 66.1537 70.6292C63.9581 71.9708 61.4761 72.8333 58.9942 73.2167C58.2305 70.725 56.0349 69 53.4575 69C51.4529 69 49.6391 70.0542 48.6845 71.6833C46.2026 72.45 43.7206 72.8333 41.0477 72.8333C40.3795 72.8333 39.8068 72.8333 39.1385 72.7375C36.4657 72.5458 33.7928 71.875 31.3108 70.8208L29.7835 74.3667C32.7427 75.6125 35.8929 76.3792 39.1385 76.5708C39.8068 76.5708 40.3795 76.6667 41.0477 76.6667C43.3388 76.6667 45.6298 76.3792 47.8254 75.8042C48.3027 78.4875 50.6892 80.5 53.4575 80.5C55.844 80.5 57.8487 79.0625 58.7078 77.05C60.3306 76.8583 61.858 76.5708 63.3853 75.9958C58.6123 83.2792 50.4028 88.1667 41.0477 88.1667C40.3795 88.1667 39.8068 88.1667 39.1385 88.0708C25.2969 87.1125 14.319 75.5167 14.319 61.3333V46.6708C23.5786 44.275 31.979 39.7708 39.1385 33.925V33.8292C41.1432 32.2 43.0524 30.3792 44.8661 28.5583C51.7392 32.0083 59.2806 34.3083 67.2992 35.075C67.5856 36.7042 67.7765 38.4292 67.7765 40.25V61.3333ZM55.3667 74.75C55.3667 75.8042 54.5076 76.6667 53.4575 76.6667C52.4074 76.6667 51.5483 75.8042 51.5483 74.75C51.5483 73.6958 52.4074 72.8333 53.4575 72.8333C54.5076 72.8333 55.3667 73.6958 55.3667 74.75ZM47.539 25.5875C51.8347 20.4125 55.4622 14.6625 58.0396 8.3375C66.5355 13.225 72.8359 21.6583 74.7451 31.625C74.4587 31.625 74.2678 31.625 73.9814 31.625C64.5308 31.625 55.5576 29.4208 47.539 25.5875ZM71.1176 66.5083C71.404 64.975 71.4994 63.3458 71.5949 61.7167C73.0268 61.3333 74.3632 60.7583 75.5087 59.9917C74.3632 62.4833 72.8359 64.5917 71.1176 66.5083ZM78.2771 47.4375C78.2771 47.8208 78.2771 48.2042 78.2771 48.4917C78.0861 52.7083 75.3178 56.2542 71.5949 57.6917V40.25V37.1833C75.5087 38.7167 78.2771 42.4542 78.2771 46.9583V47.4375Z" fill="#333333"/>
</svg>
