<svg width="46" height="54" viewBox="0 0 46 54" version="1.1" xmlns="http://www.w3.org/2000/svg" xmlns:xlink="http://www.w3.org/1999/xlink">
<g id="Canvas" fill="none">
<g id="Group">
<g id="Vector">
<path d="M 13.5437 0C 6.10076 0 0 6.06811 0 13.6073C 0 21.1464 6.03976 27.2145 13.5437 27.2145C 20.9866 27.2145 27.0874 21.1464 27.0874 13.6073C 27.0874 6.06811 20.9866 0 13.5437 0ZM 17.3872 18.9398C 16.7771 19.6754 16.045 20.1657 15.1299 20.4109C 14.7638 20.5335 14.5808 20.7174 14.5808 21.1464C 14.5808 21.5755 14.5808 21.9432 14.5808 22.3723C 14.5808 22.7401 14.3978 22.924 14.0318 22.924C 13.6047 22.924 13.1776 22.924 12.7506 22.924C 12.3846 22.924 12.2015 22.6788 12.2015 22.311C 12.2015 22.0045 12.2015 21.6981 12.2015 21.4529C 12.2015 20.7787 12.2015 20.7787 11.5304 20.6561C 10.7373 20.5335 9.94424 20.3496 9.21215 19.9818C 8.66308 19.6754 8.60208 19.5528 8.72409 18.9398C 8.84611 18.5108 8.96812 18.0204 9.09014 17.5914C 9.27316 17.101 9.39518 17.0397 9.88324 17.2849C 10.6763 17.714 11.5304 17.9591 12.4456 18.0817C 12.9946 18.143 13.6047 18.0817 14.0928 17.8365C 15.0689 17.4075 15.2519 16.2429 14.3978 15.5687C 14.0928 15.3235 13.7877 15.1396 13.4217 15.017C 12.5676 14.6493 11.6525 14.3428 10.7984 13.8524C 9.45618 13.0556 8.60208 11.9523 8.72409 10.2974C 8.84611 8.45857 9.88324 7.29398 11.5304 6.68104C 12.2015 6.43587 12.2015 6.43587 12.2625 5.70034C 12.2625 5.45516 12.2625 5.20999 12.2625 4.96481C 12.2625 4.41317 12.3846 4.29058 12.9336 4.29058C 13.1166 4.29058 13.2997 4.29058 13.4217 4.29058C 14.5808 4.29058 14.5808 4.29058 14.5808 5.45516C 14.5808 6.25199 14.5808 6.31328 15.3739 6.43587C 15.984 6.55846 16.5941 6.74234 17.2042 6.98751C 17.5092 7.1101 17.6312 7.35528 17.5702 7.66175C 17.4482 8.1521 17.2652 8.64245 17.1431 9.1941C 17.0211 9.68445 16.8381 9.74574 16.4111 9.50057C 15.4959 9.07151 14.5808 8.88763 13.5437 8.94892C 13.2997 8.94892 12.9946 9.01022 12.8116 9.1328C 11.9575 9.50057 11.8355 10.4813 12.5676 11.0942C 12.9336 11.4007 13.3607 11.5846 13.7877 11.7684C 14.5808 12.0749 15.3129 12.3814 16.045 12.8104C 18.4243 14.0363 19.0344 16.9171 17.3872 18.9398Z" fill="#FF9801"/>
</g>
<g id="Vector_2">
<path d="M 41.6072 15.7002L 40.021 15.7002C 38.9839 12.5129 36.9706 9.63209 34.2253 7.4255C 34.2253 7.30291 34.2253 7.24162 34.1643 7.11903C 33.6152 5.09633 34.2863 3.25751 35.1404 1.97034C 35.6895 1.05093 34.9574 -0.113659 33.9202 0.00892944C 31.5409 0.315399 29.8327 1.17352 28.7346 2.21551C 27.9415 2.88975 27.3924 3.80916 27.1484 4.85115C 25.4402 12.0226 18.9734 17.3551 11.3474 17.3551C 7.62595 17.3551 4.20953 16.1292 1.46418 13.984C 0.488061 16.068 2.90907e-08 18.3358 2.90907e-08 20.665C 2.90907e-08 21.9522 0.183023 23.1781 0.427054 24.4039C 0.427054 24.4039 0.427054 24.4039 0.427054 24.4652C 0.732092 25.6911 1.15914 26.917 1.76922 28.0816C 2.56232 29.7365 3.66046 31.6979 5.18565 33.2916C 7.44293 35.6207 7.80898 38.4403 7.86999 39.6661L 7.86999 40.2178L 7.86999 40.2791C 7.93099 40.892 8.41905 41.3824 9.02913 41.3824L 16.106 41.3824C 16.7771 41.3824 17.2652 40.8307 17.2652 40.2178L 17.2652 38.4403C 18.3023 38.5629 19.3394 38.6241 20.4376 38.6241C 21.2917 38.6241 22.0848 38.5628 22.8779 38.5016L 22.8779 40.1565C 22.8779 40.8307 23.4269 41.3211 24.037 41.3211L 31.1139 41.3211C 31.785 41.3211 32.273 40.7694 32.273 40.1565L 32.273 38.379C 32.273 37.766 32.4561 35.4369 34.6523 33.4754C 34.7133 33.4142 34.8354 33.3529 34.8964 33.2916L 34.9574 33.2303C 37.3977 31.0237 39.2279 28.3268 40.143 25.3233L 41.6072 25.3233C 42.7664 25.3233 43.7425 24.3426 43.7425 23.1781L 43.7425 17.8455C 43.7425 16.6196 42.7664 15.7002 41.6072 15.7002ZM 32.7611 16.068C 31.785 16.068 30.9919 15.2711 30.9919 14.2904C 30.9919 13.3097 31.785 12.5129 32.7611 12.5129C 33.7372 12.5129 34.5303 13.3097 34.5303 14.2904C 34.4693 15.2711 33.6762 16.068 32.7611 16.068Z" transform="translate(2.25732 12.6172)" fill="#54C029"/>
</g>
</g>
</g>
</svg>

