<svg width="21" height="21" viewBox="0 0 21 21" version="1.1" xmlns="http://www.w3.org/2000/svg" xmlns:xlink="http://www.w3.org/1999/xlink">
<g id="Canvas" fill="none">
<g id="+">
<path d="M 9 1.5C 9 0.671573 9.67157 0 10.5 0C 11.3284 0 12 0.671573 12 1.5L 12 19.5C 12 20.3284 11.3284 21 10.5 21C 9.67157 21 9 20.3284 9 19.5L 9 1.5Z" fill="#E0E0E0"/>
<path d="M 1.5 12C 0.671573 12 0 11.3284 0 10.5C 0 9.67157 0.671573 9 1.5 9L 19.5 9C 20.3284 9 21 9.67157 21 10.5C 21 11.3284 20.3284 12 19.5 12L 1.5 12Z" fill="#E0E0E0"/>
</g>
</g>
</svg>

