<svg width="35" height="37" viewBox="0 0 35 37" version="1.1" xmlns="http://www.w3.org/2000/svg" xmlns:xlink="http://www.w3.org/1999/xlink">
<title>back</title>
<desc>Created using Figma</desc>
<g id="Canvas" transform="translate(-16369 -8025)">
<g id="back">
<g id="background">
<mask id="mask0_outline_ins">
<use xlink:href="#path0_fill" fill="white" transform="translate(16369 8025)"/>
</mask>
<g mask="url(#mask0_outline_ins)">
<use xlink:href="#path1_stroke_2x" transform="translate(16369 8025)" fill="#CFDAE1"/>
</g>
</g>
<g id="arrow">
<use xlink:href="#path2_fill" transform="matrix(-6.6433e-18 -1 1 -4.69424e-18 16382 8051.5)" fill="#CFDAE1"/>
</g>
</g>
</g>
<defs>
<path id="path0_fill" d="M 0 5C 0 2.23858 2.23858 0 5 0L 30 0C 32.7614 0 35 2.23858 35 5L 35 32C 35 34.7614 32.7614 37 30 37L 5 37C 2.23858 37 0 34.7614 0 32L 0 5Z"/>
<path id="path1_stroke_2x" d="M 5 1L 30 1L 30 -1L 5 -1L 5 1ZM 34 5L 34 32L 36 32L 36 5L 34 5ZM 30 36L 5 36L 5 38L 30 38L 30 36ZM 1 32L 1 5L -1 5L -1 32L 1 32ZM 5 36C 2.79086 36 1 34.2091 1 32L -1 32C -1 35.3137 1.68629 38 5 38L 5 36ZM 34 32C 34 34.2091 32.2091 36 30 36L 30 38C 33.3137 38 36 35.3137 36 32L 34 32ZM 30 1C 32.2091 1 34 2.79086 34 5L 36 5C 36 1.68629 33.3137 -1 30 -1L 30 1ZM 5 -1C 1.68629 -1 -1 1.68629 -1 5L 1 5C 1 2.79086 2.79086 1 5 1L 5 -1Z"/>
<path id="path2_fill" d="M 14.1481 8L 15.8988 6.55275L 7.9528 -9.851e-09L 1.23131e-07 6.55275L 1.75074 8L 7.9528 2.87304L 14.1481 8Z"/>
</defs>
</svg>
