<svg width="26" height="24" viewBox="0 0 26 24" version="1.1" xmlns="http://www.w3.org/2000/svg" xmlns:xlink="http://www.w3.org/1999/xlink">
<title>calendar icon</title>
<desc>Created using Figma</desc>
<g id="Canvas" transform="translate(-2452 -19025)">
<g id="calendar icon">
<g id="calendar icon">
<use xlink:href="#path0_fill" transform="translate(2452 19025)" fill="#007CB1"/>
</g>
</g>
</g>
<defs>
<path id="path0_fill" d="M 22.7608 1.62857L 19.9967 1.62857L 19.9967 0.857143C 19.9967 0.385714 19.608 0 19.1329 0C 18.6578 0 18.2691 0.385714 18.2691 0.857143L 18.2691 1.62857L 13.8638 1.62857L 13.8638 0.857143C 13.8638 0.385714 13.4751 0 13 0C 12.5249 0 12.1362 0.385714 12.1362 0.857143L 12.1362 1.62857L 7.7309 1.62857L 7.7309 0.857143C 7.7309 0.385714 7.34219 0 6.86711 0C 6.39203 0 6.00332 0.385714 6.00332 0.857143L 6.00332 1.62857L 3.2392 1.62857C 1.46844 1.62857 4.11886e-08 3.08571 4.11886e-08 4.84286L 4.11886e-08 20.7857C 4.11886e-08 22.5429 1.46844 24 3.2392 24L 22.7608 24C 24.5316 24 26 22.5429 26 20.7857L 26 4.84286C 26 3.08571 24.5316 1.62857 22.7608 1.62857ZM 24.2724 20.7857C 24.2724 21.6 23.5814 22.2857 22.7608 22.2857L 3.2392 22.2857C 2.4186 22.2857 1.72757 21.6 1.72757 20.7857L 1.72757 10.1571L 24.2724 10.1571L 24.2724 20.7857ZM 24.2724 8.44286L 1.72757 8.44286L 1.72757 4.84286C 1.72757 4.02857 2.4186 3.34286 3.2392 3.34286L 6.00332 3.34286L 6.00332 4.11429C 6.00332 4.58571 6.39203 4.97143 6.86711 4.97143C 7.34219 4.97143 7.7309 4.58571 7.7309 4.11429L 7.7309 3.34286L 12.1362 3.34286L 12.1362 4.11429C 12.1362 4.58571 12.5249 4.97143 13 4.97143C 13.4751 4.97143 13.8638 4.58571 13.8638 4.11429L 13.8638 3.34286L 18.2691 3.34286L 18.2691 4.11429C 18.2691 4.58571 18.6578 4.97143 19.1329 4.97143C 19.608 4.97143 19.9967 4.58571 19.9967 4.11429L 19.9967 3.34286L 22.7608 3.34286C 23.5814 3.34286 24.2724 4.02857 24.2724 4.84286L 24.2724 8.44286Z"/>
</defs>
</svg>
