<svg width="40" height="40" viewBox="0 0 40 40" version="1.1" xmlns="http://www.w3.org/2000/svg" xmlns:xlink="http://www.w3.org/1999/xlink">
<title>Facebook</title>
<desc>Created using Figma</desc>
<g id="Canvas" transform="translate(-2283 -18616)">
<g id="Facebook">
<g id="Rectangle">
<mask id="mask0_outline_ins">
<use xlink:href="#path0_fill" fill="white" transform="translate(2283 18616)"/>
</mask>
<g mask="url(#mask0_outline_ins)">
<use xlink:href="#path1_stroke_2x" transform="translate(2283 18616)" fill="#507CC0"/>
</g>
</g>
<g id="icon">
<use xlink:href="#path2_fill" transform="translate(2297 18624)" fill="#507CC0"/>
</g>
</g>
</g>
<defs>
<path id="path0_fill" d="M 0 5C 0 2.23858 2.23858 0 5 0L 35 0C 37.7614 0 40 2.23858 40 5L 40 35C 40 37.7614 37.7614 40 35 40L 5 40C 2.23858 40 0 37.7614 0 35L 0 5Z"/>
<path id="path1_stroke_2x" d="M 5 1L 35 1L 35 -1L 5 -1L 5 1ZM 39 5L 39 35L 41 35L 41 5L 39 5ZM 35 39L 5 39L 5 41L 35 41L 35 39ZM 1 35L 1 5L -1 5L -1 35L 1 35ZM 5 39C 2.79086 39 1 37.2091 1 35L -1 35C -1 38.3137 1.68629 41 5 41L 5 39ZM 39 35C 39 37.2091 37.2091 39 35 39L 35 41C 38.3137 41 41 38.3137 41 35L 39 35ZM 35 1C 37.2091 1 39 2.79086 39 5L 41 5C 41 1.68629 38.3137 -1 35 -1L 35 1ZM 5 -1C 1.68629 -1 -1 1.68629 -1 5L 1 5C 1 2.79086 2.79086 1 5 1L 5 -1Z"/>
<path id="path2_fill" d="M 7.78967 23L 7.78967 12.5094L 11.3263 12.5094L 11.8569 8.4198L 7.78967 8.4198L 7.78967 5.80919C 7.78967 4.62553 8.11857 3.81888 9.82594 3.81888L 12 3.81799L 12 0.160114C 11.624 0.111487 10.3334 0 8.83134 0C 5.69471 0 3.54731 1.90551 3.54731 5.40416L 3.54731 8.4198L 1.36376e-07 8.4198L 1.36376e-07 12.5094L 3.54731 12.5094L 3.54731 23L 7.78967 23Z"/>
</defs>
</svg>
