<svg width="24" height="29" viewBox="0 0 24 29" version="1.1" xmlns="http://www.w3.org/2000/svg" xmlns:xlink="http://www.w3.org/1999/xlink">
<title>financial documents icon</title>
<desc>Created using Figma</desc>
<g id="Canvas" transform="translate(-3135 -22103)">
<g id="financial documents icon">
<g id="Vector">
<use xlink:href="#path0_fill" transform="translate(3135 22103)" fill="#333333"/>
</g>
<g id="Vector">
<use xlink:href="#path1_fill" transform="translate(3150.45 22122.5)" fill="#333333"/>
</g>
<g id="Vector">
<use xlink:href="#path2_fill" transform="translate(3138.56 22116.8)" fill="#333333"/>
</g>
<g id="Vector">
<use xlink:href="#path3_fill" transform="translate(3138.56 22112.8)" fill="#333333"/>
</g>
</g>
</g>
<defs>
<path id="path0_fill" d="M 18.885 17.0532L 18.885 6.58765L 13.0573 9.71285e-08L 3.15917 9.71285e-08C 1.4173 9.71285e-08 -1.54504e-07 1.43333 -1.54504e-07 3.19488L -1.54504e-07 20.6325C -1.54504e-07 22.3941 1.4173 23.8277 3.15917 23.8277L 12.1862 23.8277C 12.5874 26.7461 15.0695 29 18.064 29C 21.3373 29 24 26.3072 24 22.9974C 24 19.9694 21.7707 17.4589 18.885 17.0532ZM 13.511 3.00365L 16.228 6.07454L 13.511 6.07454L 13.511 3.00365ZM 1.64198 20.6325L 1.64198 3.19488C 1.64198 2.34884 2.32258 1.66054 3.15917 1.66054L 11.8691 1.66054L 11.8691 7.73509L 17.243 7.73509L 17.243 17.0529C 16.5219 17.154 15.8415 17.3859 15.2269 17.7255L 3.56611 17.7255L 3.56611 19.386L 13.3258 19.386C 12.7308 20.1828 12.3283 21.1332 12.1865 22.1671L 3.15917 22.1671C 2.32258 22.1671 1.64198 21.4786 1.64198 20.6325ZM 18.064 27.3397C 15.6962 27.3397 13.7705 25.3916 13.7705 22.9977C 13.7705 20.6032 15.6962 18.6551 18.064 18.6551C 20.4317 18.6551 22.358 20.6032 22.358 22.9977C 22.358 25.3916 20.4317 27.3397 18.064 27.3397Z"/>
<path id="path1_fill" d="M 2.51387 2.74211C 1.82287 2.6588 1.47204 2.5589 1.47204 2.24422C 1.47204 1.77512 2.09681 1.70482 2.46954 1.70482C 2.91096 1.70482 3.3989 1.92097 3.5579 2.18638L 3.62084 2.29238L 4.62956 1.82051L 4.56799 1.69348C 4.21359 0.960071 3.5839 0.738942 3.09869 0.648719L 3.09869 -1.35135e-07L 1.91893 -1.35135e-07L 1.91893 0.645398C 0.879827 0.809238 0.264086 1.40067 0.264086 2.24422C 0.264086 3.63299 1.55222 3.77884 2.40359 3.87515C 3.17696 3.96759 3.53792 4.15523 3.53792 4.46603C 3.53792 5.0677 2.69832 5.1142 2.44108 5.1142C 1.86337 5.1142 1.30729 4.82498 1.14747 4.44112L 1.09411 4.31354L -6.18014e-07 4.78264L 0.0539107 4.91022C 0.361782 5.63893 1.02131 6.09834 1.91865 6.21348L 1.91865 6.91229L 3.09842 6.91229L 3.09842 6.17833C 3.95909 6.07122 4.78856 5.51411 4.78856 4.46575C 4.78856 3.02579 3.4197 2.85503 2.51387 2.74211Z"/>
<path id="path2_fill" d="M 11.7533 0L 0 0L 0 1.66054L 11.7533 1.66054L 11.7533 0Z"/>
<path id="path3_fill" d="M 11.7533 0L 0 0L 0 1.66054L 11.7533 1.66054L 11.7533 0Z"/>
</defs>
</svg>
