<svg width="40" height="40" viewBox="0 0 40 40" version="1.1" xmlns="http://www.w3.org/2000/svg" xmlns:xlink="http://www.w3.org/1999/xlink">
<title>Google+</title>
<desc>Created using Figma</desc>
<g id="Canvas" transform="translate(-2283 -18672)">
<g id="Google+">
<g id="Rectangle">
<mask id="mask0_outline_ins">
<use xlink:href="#path0_fill" fill="white" transform="translate(2283 18672)"/>
</mask>
<g mask="url(#mask0_outline_ins)">
<use xlink:href="#path1_stroke_2x" transform="translate(2283 18672)" fill="#DF4930"/>
</g>
</g>
<g id="Icon">
<g id="Vector">
<use xlink:href="#path2_fill" transform="translate(2293 18682)" fill="#DF4930"/>
</g>
<g id="Vector">
<use xlink:href="#path3_fill" transform="translate(2305.31 18682)" fill="#DF4930"/>
</g>
</g>
</g>
</g>
<defs>
<path id="path0_fill" d="M 0 5C 0 2.23858 2.23858 0 5 0L 35 0C 37.7614 0 40 2.23858 40 5L 40 35C 40 37.7614 37.7614 40 35 40L 5 40C 2.23858 40 0 37.7614 0 35L 0 5Z"/>
<path id="path1_stroke_2x" d="M 5 1L 35 1L 35 -1L 5 -1L 5 1ZM 39 5L 39 35L 41 35L 41 5L 39 5ZM 35 39L 5 39L 5 41L 35 41L 35 39ZM 1 35L 1 5L -1 5L -1 35L 1 35ZM 5 39C 2.79086 39 1 37.2091 1 35L -1 35C -1 38.3137 1.68629 41 5 41L 5 39ZM 39 35C 39 37.2091 37.2091 39 35 39L 35 41C 38.3137 41 41 38.3137 41 35L 39 35ZM 35 1C 37.2091 1 39 2.79086 39 5L 41 5C 41 1.68629 38.3137 -1 35 -1L 35 1ZM 5 -1C 1.68629 -1 -1 1.68629 -1 5L 1 5C 1 2.79086 2.79086 1 5 1L 5 -1Z"/>
<path id="path2_fill" d="M 11.5083 12.7343C 11.296 12.4497 11.0617 12.1852 10.8052 11.9411C 10.5488 11.6968 10.2923 11.4743 10.036 11.2741C 9.77955 11.0738 9.54518 10.8814 9.33288 10.697C 9.12062 10.5128 8.9483 10.3204 8.81611 10.1202C 8.68392 9.91991 8.61779 9.71561 8.61779 9.50732C 8.61779 9.21874 8.70998 8.94835 8.89425 8.69593C 9.07852 8.44352 9.3029 8.19923 9.56724 7.96273C 9.83162 7.72627 10.096 7.46796 10.3606 7.18751C 10.6248 6.90693 10.8491 6.53647 11.0335 6.07564C 11.2176 5.61492 11.3098 5.08812 11.3098 4.49522C 11.3098 3.79009 11.1535 3.11296 10.841 2.46403C 10.5285 1.81498 10.0878 1.31006 9.51887 0.949544L 11.1414 0.949544L 12.764 0L 7.51176 0C 6.76665 0 6.01733 0.0802373 5.26435 0.240796C 4.15071 0.489169 3.21316 1.05613 2.45189 1.9414C 1.69074 2.82683 1.31008 3.83042 1.31008 4.95219C 1.31008 6.13811 1.73688 7.12369 2.59014 7.9088C 3.44344 8.69387 4.46712 9.0866 5.66105 9.0866C 5.90143 9.0866 6.18185 9.06647 6.5024 9.02652C 6.48636 9.09055 6.45849 9.17668 6.41832 9.28483C 6.37816 9.39298 6.34613 9.47932 6.32209 9.54331C 6.29809 9.60734 6.27801 9.68539 6.2621 9.77762C 6.24601 9.86981 6.23806 9.96403 6.23806 10.0601C 6.23806 10.589 6.49427 11.1859 7.00725 11.851C 6.39829 11.8672 5.79745 11.9213 5.20436 12.0134C 4.61144 12.1056 3.99052 12.2499 3.34139 12.4462C 2.69236 12.6424 2.11139 12.927 1.59867 13.2995C 1.08582 13.6722 0.701243 14.1148 0.444818 14.6276C 0.148315 15.2206 -9.40985e-12 15.7614 -9.40985e-12 16.2502C -9.40985e-12 16.787 0.120277 17.2738 0.360578 17.7106C 0.600879 18.1471 0.909338 18.5038 1.286 18.7801C 1.66257 19.0567 2.09737 19.2888 2.59014 19.4773C 3.08287 19.6655 3.57168 19.7997 4.0564 19.8799C 4.54122 19.96 5.01997 20 5.49278 20C 7.64012 20 9.32299 19.4753 10.5408 18.4257C 11.6627 17.4481 12.2236 16.3182 12.2236 15.0362C 12.2236 14.5792 12.1575 14.1528 12.0252 13.756C 11.893 13.359 11.7208 13.0187 11.5083 12.7343ZM 6.8748 8.36564C 6.46615 8.36564 6.07758 8.26145 5.70892 8.05303C 5.34025 7.84464 5.02775 7.57421 4.77137 7.24169C 4.51507 6.9092 4.29068 6.53462 4.09833 6.1179C 3.90607 5.70131 3.7639 5.28471 3.67166 4.86795C 3.57946 4.4514 3.53341 4.05472 3.53341 3.67807C 3.53341 2.90892 3.73776 2.24786 4.14645 1.69496C 4.55502 1.14205 5.13203 0.865603 5.87723 0.865603C 6.40612 0.865603 6.88487 1.02974 7.31356 1.35831C 7.74225 1.68683 8.07879 2.10347 8.32326 2.60826C 8.56752 3.11305 8.75591 3.63572 8.8881 4.17667C 9.02029 4.7175 9.08643 5.22839 9.08643 5.70914C 9.08643 6.5105 8.91218 7.15379 8.5636 7.63858C 8.21494 8.12324 7.65212 8.36564 6.8748 8.36564ZM 10.1981 17.3913C 9.97792 17.768 9.67948 18.0623 9.30278 18.2746C 8.92616 18.4871 8.52357 18.6432 8.09483 18.7435C 7.66614 18.8439 7.21543 18.8939 6.74261 18.8939C 6.22976 18.8939 5.72087 18.8337 5.21619 18.7136C 4.71142 18.5935 4.22859 18.411 3.76786 18.1667C 3.30713 17.9225 2.93451 17.5858 2.65009 17.1571C 2.36563 16.7284 2.22342 16.2417 2.22342 15.6967C 2.22342 15.216 2.33153 14.7874 2.54791 14.4107C 2.76439 14.0341 3.04085 13.7336 3.37735 13.5095C 3.71389 13.285 4.10646 13.1006 4.55523 12.9567C 5.00401 12.8122 5.43666 12.7122 5.85327 12.6561C 6.26984 12.5999 6.69462 12.5722 7.12727 12.5722C 7.39178 12.5722 7.59217 12.5802 7.72832 12.596C 7.77644 12.6283 7.89852 12.7122 8.09492 12.8484C 8.29131 12.9847 8.42346 13.0769 8.49162 13.125C 8.5596 13.1729 8.68388 13.265 8.86419 13.4013C 9.04442 13.5376 9.17265 13.6396 9.24876 13.7077C 9.32467 13.7758 9.43489 13.878 9.5792 14.0142C 9.72335 14.1504 9.8296 14.2685 9.89772 14.3687C 9.96571 14.4688 10.05 14.591 10.1501 14.735C 10.2503 14.8795 10.3204 15.0177 10.3606 15.1499C 10.4005 15.2822 10.4386 15.4263 10.4745 15.5825C 10.5105 15.7391 10.5285 15.9012 10.5285 16.0696C 10.5287 16.5742 10.4185 17.0149 10.1981 17.3913Z"/>
<path id="path3_fill" d="M 4.61573 3.07684L 4.61573 0L 3.07706 0L 3.07706 3.07684L 7.19465e-08 3.07684L 7.19465e-08 4.61537L 3.07706 4.61537L 3.07706 7.69221L 4.61573 7.69221L 4.61573 4.61537L 7.69245 4.61537L 7.69245 3.07684L 4.61573 3.07684Z"/>
</defs>
</svg>
