<svg width="24" height="23" viewBox="0 0 24 23" version="1.1" xmlns="http://www.w3.org/2000/svg" xmlns:xlink="http://www.w3.org/1999/xlink">
<title>history icon</title>
<desc>Created using Figma</desc>
<g id="Canvas" transform="translate(-2356 -22104)">
<g id="history icon">
<g id="history icon">
<use xlink:href="#path0_fill" transform="translate(2356 22104)" fill="#54C029"/>
</g>
</g>
</g>
<defs>
<path id="path0_fill" d="M 12.9436 0C 6.8468 0 1.88716 5.15893 1.88716 11.5L 6.93319e-08 11.5L 3.2 15.6652L 6.4003 11.5L 4.00788 11.5C 4.00788 6.37478 8.01606 2.20548 12.9439 2.20548C 17.8711 2.20548 21.8799 6.37478 21.8799 11.5C 21.8799 16.6252 17.8711 20.7945 12.9439 20.7945C 10.539 20.7945 8.28232 19.8153 6.59084 18.0364L 5.08323 19.5878C 7.17637 21.7879 9.96774 23 12.9436 23C 19.0398 23 24 17.8411 24 11.5C 24 5.15893 19.0398 0 12.9436 0ZM 11.8834 5.40878L 11.8834 12.0315L 15.5141 15.0407L 16.8351 13.3157L 14.0035 10.9688L 14.0035 5.40878L 11.8834 5.40878Z"/>
</defs>
</svg>
