<svg width="24" height="24" viewBox="0 0 24 24" version="1.1" xmlns="http://www.w3.org/2000/svg" xmlns:xlink="http://www.w3.org/1999/xlink">
<title>icon profile</title>
<desc>Created using Figma</desc>
<g id="Canvas" transform="translate(-1914 -18509)">
<g id="icon profile">
<g id="Vector">
<use xlink:href="#path0_fill" transform="translate(1919.91 18509)" fill="#54C029"/>
</g>
<g id="Vector">
<use xlink:href="#path1_fill" transform="translate(1914 18521.4)" fill="#54C029"/>
</g>
</g>
</g>
<defs>
<path id="path0_fill" d="M 6.08367 12.0973C 9.43248 12.0973 12.1673 9.39977 12.1673 6.03476C 12.1673 2.69757 9.40457 2.65217e-08 6.08367 2.65217e-08C 2.76277 2.65217e-08 2.12912e-07 2.69757 2.12912e-07 6.06257C 2.12912e-07 9.37196 2.73486 12.0973 6.08367 12.0973ZM 6.08367 1.36269C 8.65109 1.36269 10.7999 3.44844 10.7999 6.06257C 10.7999 8.62109 8.70691 10.7625 6.08367 10.7625C 3.51625 10.7625 1.36743 8.67671 1.36743 6.06257C 1.36743 3.44844 3.51625 1.36269 6.08367 1.36269Z"/>
<path id="path1_fill" d="M 17.3022 0.0278095L 16.9952 0L 16.7999 0.19467C 15.5162 1.41831 13.8138 2.11356 12.0278 2.11356C 10.2418 2.11356 8.53947 1.41831 7.25576 0.19467L 7.06041 0L 6.69762 0.0278095C 2.95812 0.305909 0 3.44844 0 7.23059L 0 11.5968L 23.9998 11.5968L 23.9998 7.23059C 24.0277 3.44844 21.0417 0.305909 17.3022 0.0278095ZM 22.6324 10.2063L 1.36743 10.2063L 1.36743 7.23059C 1.36743 4.28273 3.59997 1.80765 6.50227 1.44612C 8.00924 2.80881 9.9348 3.53187 11.9999 3.53187C 14.065 3.53187 15.9906 2.781 17.4975 1.44612C 20.3998 1.77984 22.6324 4.28273 22.6324 7.23059L 22.6324 10.2063Z"/>
</defs>
</svg>
