<svg width="24" height="26" viewBox="0 0 24 26" version="1.1" xmlns="http://www.w3.org/2000/svg" xmlns:xlink="http://www.w3.org/1999/xlink">
<title>icon order</title>
<desc>Created using Figma</desc>
<g id="Canvas" transform="translate(-1914 -18652)">
<g id="icon order">
<g id="icon order">
<use xlink:href="#path0_fill" transform="translate(1914 18652)" fill="#007CB1"/>
</g>
</g>
</g>
<defs>
<path id="path0_fill" d="M 0.639018 3.18489e-07C 0.390519 0.00025163 0.154757 0.14907 0.0508624 0.394351C -0.0876644 0.71603 0.066867 1.09664 0.391872 1.23604L 3.93496 2.74255L 3.93496 6.08269L 3.93496 6.6027L 3.93496 10.6023L 3.93496 14.1783L 3.93496 18.6979C 3.93496 20.2098 5.09106 21.4483 6.56158 21.5716C 6.26321 22.0219 6.08747 22.5634 6.08747 23.1478C 6.08747 24.7187 7.36081 26 8.9219 26C 10.483 26 11.7563 24.7187 11.7563 23.1478C 11.7563 22.5688 11.5859 22.0326 11.2928 21.5823L 18.0754 21.5823C 17.7823 22.0326 17.6118 22.5688 17.6118 23.1478C 17.6118 24.7187 18.8852 26 20.4463 26C 22.0074 26 23.2807 24.7187 23.2807 23.1478C 23.2807 21.577 22.0074 20.2955 20.4463 20.2955L 6.80675 20.2955C 5.92763 20.2955 5.21897 19.5772 5.21897 18.6979L 5.21897 16.5802C 5.67185 16.8858 6.22067 17.0681 6.80675 17.0681L 21.1335 17.0681C 22.7159 17.0681 24 15.7706 24 14.1836L 24 8.10931C 24 7.75547 23.7123 7.46595 23.3606 7.46595C 23.009 7.46595 22.7213 7.75547 22.7213 8.10931L 22.7213 14.1783C 22.7213 15.0629 22.0073 15.776 21.1335 15.776L 6.80675 15.776C 5.92763 15.776 5.21897 15.0575 5.21897 14.1783L 5.21897 10.6023L 5.21897 6.6027L 5.21897 6.08269L 5.21897 2.31909C 5.21897 2.29764 5.219 2.27615 5.21367 2.24935L 5.21367 2.23322C 5.21367 2.21714 5.20836 2.20112 5.20836 2.19039C 5.20836 2.17967 5.20297 2.16352 5.19764 2.1528C 5.19764 2.14744 5.19234 2.1368 5.19234 2.13144C 5.18701 2.11536 5.18164 2.10457 5.17631 2.09385C 5.17631 2.08849 5.171 2.0831 5.171 2.07238C 5.16567 2.06166 5.16041 2.05098 5.15508 2.03489C 5.14975 2.02953 5.14969 2.01879 5.14436 2.01343C 5.13903 2.00271 5.13377 1.99198 5.12844 1.98662C 5.12311 1.9759 5.11774 1.97054 5.11242 1.95981C 5.10709 1.95445 5.10172 1.94371 5.09639 1.93835C 5.09106 1.92763 5.08049 1.91692 5.07516 1.9062C 5.06983 1.90084 5.06444 1.89554 5.06444 1.89018C 5.05379 1.87946 5.04846 1.86865 5.0378 1.85793C 5.03248 1.85257 5.02719 1.85261 5.02719 1.84725L 4.99524 1.8151C 4.98991 1.80974 4.98454 1.80432 4.97922 1.80432C 4.96856 1.79359 4.95793 1.78823 4.94727 1.77751C 4.93661 1.77215 4.9259 1.76151 4.90991 1.75615C 4.90458 1.75079 4.89932 1.75072 4.89399 1.74536C 4.87268 1.73464 4.85139 1.72394 4.8354 1.71321L 0.887309 0.0512051C 0.806058 0.0163565 0.721851 -8.34522e-05 0.639018 3.18489e-07ZM 8.75675 2.67291C 8.40511 2.67291 8.1174 2.96242 8.1174 3.31627L 8.1174 12.6074C 8.1174 12.9666 8.39978 13.2562 8.75675 13.2562L 19.1888 13.2562C 19.5405 13.2562 19.8282 12.9667 19.8282 12.6128L 19.8282 3.31627C 19.8282 2.96242 19.5405 2.67291 19.1888 2.67291L 8.75675 2.67291ZM 10.4404 3.95963L 18.5442 3.95963L 18.5442 11.1813L 10.4404 3.95963ZM 9.39611 4.7477L 17.4999 11.9695L 9.39611 11.9695L 9.39611 4.7477ZM 8.9219 21.5823C 9.7797 21.5823 10.4776 22.2846 10.4776 23.1478C 10.4776 24.011 9.7797 24.7133 8.9219 24.7133C 8.0641 24.7133 7.36618 24.011 7.36618 23.1478C 7.36618 22.2846 8.0641 21.5823 8.9219 21.5823ZM 20.4409 21.5823C 21.2987 21.5823 21.9967 22.2846 21.9967 23.1478C 21.9967 24.011 21.2987 24.7133 20.4409 24.7133C 19.5831 24.7133 18.8852 24.011 18.8852 23.1478C 18.8852 22.2846 19.5831 21.5823 20.4409 21.5823Z"/>
</defs>
</svg>
