<svg width="21" height="31" viewBox="0 0 21 31" version="1.1" xmlns="http://www.w3.org/2000/svg" xmlns:xlink="http://www.w3.org/1999/xlink">
<title>icon location</title>
<desc>Created using Figma</desc>
<g id="Canvas" transform="translate(-1916 -18554)">
<g id="icon location">
<g id="Vector">
<use xlink:href="#path0_fill" transform="translate(1916 18554)" fill="#007CB1"/>
</g>
<g id="Vector">
<use xlink:href="#path1_fill" transform="translate(1921.41 18558.7)" fill="#007CB1"/>
</g>
</g>
</g>
<defs>
<path id="path0_fill" d="M 20.1473 14.5458C 20.1899 14.4665 20.22 14.381 20.2364 14.2923C 20.748 13.0693 21.0078 11.7534 20.9998 10.4251C 20.9446 7.64111 19.8141 4.98998 17.851 3.04086C 15.8879 1.09174 13.2487 -3.55804e-08 10.5 -3.55804e-08C 7.75126 -3.55804e-08 5.11208 1.09174 3.149 3.04086C 1.18591 4.98998 0.0554161 7.64111 0.000178367 10.4251C -0.00779398 11.7534 0.252 13.0693 0.763647 14.2923C 0.780012 14.381 0.810072 14.4665 0.852719 14.5458L 1.0351 14.8723C 1.1369 15.0743 1.24718 15.272 1.36594 15.4653L 9.7641 30.5643C 9.83809 30.6966 9.94538 30.8066 10.075 30.8831C 10.2047 30.9597 10.3521 31 10.5021 31C 10.6522 31 10.7996 30.9597 10.9292 30.8831C 11.0589 30.8066 11.1662 30.6966 11.2401 30.5643L 19.6383 15.4653C 19.7528 15.272 19.8673 15.0743 19.9691 14.8723L 20.1473 14.5458ZM 10.4979 1.50923C 12.8325 1.5115 15.0709 2.45204 16.7217 4.12441C 18.3726 5.79678 19.301 8.06435 19.3032 10.4294C 19.3107 11.7166 19.0048 12.9859 18.4125 14.1247L 18.438 14.1247L 10.4979 28.3902L 2.56204 14.1247L 2.58749 14.1247C 1.99522 12.9859 1.68929 11.7166 1.69678 10.4294C 1.69902 8.06509 2.62686 5.79817 4.27678 4.12593C 5.9267 2.45368 8.16398 1.51264 10.4979 1.50923Z"/>
<path id="path1_fill" d="M 7.9033 9.45301C 8.92103 8.76912 9.6621 7.7373 9.99126 6.54586C 10.3204 5.35442 10.2157 4.08281 9.69625 2.96308C 9.1768 1.84336 8.27722 0.950176 7.1617 0.446542C 6.04618 -0.0570911 4.78909 -0.137597 3.61985 0.219718C 2.4506 0.577032 1.44716 1.34834 0.792651 2.39289C 0.138139 3.43743 -0.123804 4.68556 0.0546256 5.90951C 0.233055 7.13345 0.83996 8.25159 1.76458 9.05988C 2.68921 9.86817 3.8699 10.3127 5.09118 10.3124C 6.09155 10.3121 7.06966 10.0132 7.9033 9.45301ZM 5.09118 1.68436C 5.7623 1.68436 6.41834 1.88596 6.97634 2.26367C 7.53435 2.64139 7.96927 3.17824 8.22609 3.80636C 8.48291 4.43447 8.55011 5.12563 8.41918 5.79243C 8.28825 6.45923 7.96508 7.07173 7.49054 7.55247C 7.01599 8.0332 6.41138 8.36059 5.75316 8.49322C 5.09495 8.62586 4.41269 8.55779 3.79267 8.29761C 3.17264 8.03744 2.64269 7.59685 2.26985 7.03157C 1.897 6.46628 1.69799 5.80168 1.69799 5.12181C 1.69799 4.21014 2.05549 3.33581 2.69183 2.69117C 3.32818 2.04652 4.19125 1.68436 5.09118 1.68436Z"/>
</defs>
</svg>
