<svg width="16" height="12" viewBox="0 0 16 12" version="1.1" xmlns="http://www.w3.org/2000/svg" xmlns:xlink="http://www.w3.org/1999/xlink">
<title>icon</title>
<desc>Created using Figma</desc>
<g id="Canvas" transform="translate(-1930 -16322)">
<g id="icon">
<g id="Vector">
<use xlink:href="#path0_fill" transform="matrix(-1 0 0 1 1939.26 16331.9)" fill="#007CB1"/>
</g>
<g id="Vector">
<use xlink:href="#path1_fill" transform="matrix(-1 0 0 1 1945.11 16322)" fill="#007CB1"/>
</g>
<g id="Vector">
<use xlink:href="#path2_fill" transform="matrix(-1 0 0 1 1942.72 16330.8)" fill="#007CB1"/>
</g>
<g id="Vector">
<use xlink:href="#path3_fill" transform="matrix(-1 0 0 1 1935.5 16330.8)" fill="#007CB1"/>
</g>
<g id="Vector">
<use xlink:href="#path4_fill" transform="matrix(-1 0 0 1 1943.17 16324.9)" fill="#007CB1"/>
</g>
<g id="Vector">
<use xlink:href="#path5_fill" transform="matrix(-1 0 0 1 1939.92 16323.5)" fill="#007CB1"/>
</g>
</g>
</g>
<defs>
<path id="path0_fill" d="M 3.34847 0.445766C 3.34847 0.695395 3.15958 0.891531 2.91918 0.891531L 0.429291 0.891531C 0.188888 0.891531 -2.62018e-07 0.695395 -2.62018e-07 0.445766C -2.62018e-07 0.196137 0.188888 2.72074e-07 0.429291 2.72074e-07L 2.91918 2.72074e-07C 3.15958 0.0178309 3.3313 0.213968 3.34847 0.445766Z"/>
<path id="path1_fill" d="M 15.111 10.3418C 15.111 10.5914 14.9222 10.7875 14.6818 10.7875L 13.5141 10.7875C 13.2909 10.7875 13.0848 10.6271 13.0676 10.3953C 13.0504 10.1278 13.2393 9.91383 13.4969 9.91383L 14.2696 9.91383L 14.2696 8.91531L 14.2696 0.891531L 6.62825 0.891531L 6.62825 2.03269L 3.46867 2.03269C 3.43433 2.03269 3.39999 2.06835 3.36564 2.12184L 0.961612 6.06241C 0.875754 6.22289 0.84141 6.38336 0.84141 6.5795L 0.84141 9.94949L 1.54545 9.94949C 1.76868 9.94949 1.95757 10.1456 1.95757 10.3953C 1.95757 10.6449 1.76868 10.841 1.54545 10.841L 0.429291 10.841C 0.188888 10.8054 0 10.6092 0 10.3596L 0 6.56167C 0 6.22289 0.0858582 5.90194 0.240403 5.61665L 2.64443 1.67608C 2.81615 1.35513 3.14241 1.15899 3.46867 1.15899L 5.78684 1.15899L 5.78684 0.445765C 5.78684 0.196137 5.97573 -1.36037e-07 6.21614 -1.36037e-07L 14.6818 -1.36037e-07C 14.9222 -1.36037e-07 15.111 0.196137 15.111 0.445765L 15.111 10.3418Z"/>
<path id="path2_fill" d="M 1.52828 5.44147e-07C 0.686866 5.44147e-07 -6.55046e-08 0.713224 -6.55046e-08 1.58692C -6.55046e-08 2.46063 0.686866 3.17385 1.52828 3.17385C 2.36969 3.17385 3.05655 2.46063 3.05655 1.58692C 3.07372 0.713224 2.38686 5.44147e-07 1.52828 5.44147e-07ZM 1.52828 2.31798C 1.13333 2.31798 0.807067 1.9792 0.807067 1.56909C 0.807067 1.15899 1.13333 0.820209 1.52828 0.820209C 1.92322 0.820209 2.24949 1.15899 2.24949 1.56909C 2.24949 1.99703 1.92322 2.31798 1.52828 2.31798Z"/>
<path id="path3_fill" d="M 1.52828 5.44147e-07C 0.686866 5.44147e-07 -1.22012e-15 0.713224 -1.22012e-15 1.58692C -1.22012e-15 2.46063 0.686866 3.17385 1.52828 3.17385C 2.36969 3.17385 3.05655 2.46063 3.05655 1.58692C 3.05655 0.713224 2.36969 5.44147e-07 1.52828 5.44147e-07ZM 1.52828 2.31798C 1.13333 2.31798 0.807067 1.9792 0.807067 1.56909C 0.807067 1.37296 0.875754 1.19465 1.01313 1.05201C 1.1505 0.909361 1.33939 0.838039 1.52828 0.838039C 1.92322 0.838039 2.24948 1.17682 2.24948 1.58692C 2.23231 1.99703 1.92322 2.31798 1.52828 2.31798Z"/>
<path id="path4_fill" d="M 2.19797 2.72074e-07C 2.07777 2.72074e-07 1.97474 0.0713224 1.92322 0.160475L 0.051515 3.15602C 0.0171717 3.20951 -1.31009e-07 3.263 -1.31009e-07 3.33433C -1.31009e-07 3.42348 0.0343432 3.53046 0.10303 3.60179C 0.154545 3.67311 0.240403 3.70877 0.326261 3.70877L 4.68786 3.70877L 4.68786 2.72074e-07L 2.19797 2.72074e-07ZM 3.91513 2.88856L 1.16767 2.88856L 2.50706 0.85587L 3.93231 0.85587L 3.91513 2.88856Z"/>
<path id="path5_fill" d="M 9.00668 9.78128e-08L 0.956016 0.0128204C 0.402533 0.0128204 7.67771e-07 0.115385 7.67771e-07 0.256411C 7.67771e-07 0.397436 0.402533 0.5 0.956016 0.5L 9.00668 0.5C 9.25826 0.5 9.50984 0.474359 9.66079 0.423077C 9.86206 0.371795 9.91238 0.320513 9.91238 0.256411C 9.96269 0.102564 9.56016 9.78128e-08 9.00668 9.78128e-08Z"/>
</defs>
</svg>
