<svg width="24" height="22" viewBox="0 0 24 22" version="1.1" xmlns="http://www.w3.org/2000/svg" xmlns:xlink="http://www.w3.org/1999/xlink">
<title>icon exit</title>
<desc>Created using Figma</desc>
<g id="Canvas" transform="translate(-1914 -18703)">
<g id="icon exit">
<g id="icon exit">
<use xlink:href="#path0_fill" transform="translate(1914 18703)" fill="#007CB1"/>
</g>
</g>
</g>
<defs>
<path id="path0_fill" d="M 11.72 3.13147e-07L 0.8 3.13147e-07L 0.76 3.13147e-07C 0.64 3.13147e-07 0.52 0.0410446 0.44 0.0820894C 0.16 0.205224 1.42109e-15 0.492538 1.42109e-15 0.820896L 1.42109e-15 15.7201C 1.42109e-15 15.9664 0.12 16.2537 0.32 16.3769L 7.72 21.8358C 7.84 21.9179 8.04 22 8.2 22C 8.32 22 8.44 21.959 8.56 21.9179C 8.84 21.7948 9 21.5075 9 21.1791L 9 16.541L 11.72 16.541C 12.16 16.541 12.52 16.1716 12.52 15.7201L 12.52 0.820896C 12.52 0.369403 12.16 3.13147e-07 11.72 3.13147e-07ZM 7.4 19.5784L 1.6 15.3097L 1.6 13.8731L 1.6 2.42164L 7.4 6.6903L 7.4 19.5784ZM 10.92 14.8993L 9 14.8993L 9 6.27985C 9 6.03358 8.88 5.74627 8.68 5.62314L 3.28 1.68284L 10.92 1.68284L 10.92 14.8993ZM 24 8.37313C 24 8.82463 23.64 9.19403 23.2 9.19403L 16.04 9.19403L 18.12 11.3284C 18.44 11.6567 18.44 12.1493 18.12 12.4776C 17.96 12.6418 17.76 12.7239 17.56 12.7239C 17.36 12.7239 17.16 12.6418 17 12.4776L 13.56 8.94776C 13.52 8.90672 13.48 8.86567 13.44 8.82463C 13.44 8.82463 13.4 8.78358 13.4 8.74254C 13.4 8.70149 13.36 8.70149 13.36 8.66045C 13.36 8.6194 13.36 8.6194 13.32 8.57836C 13.32 8.53731 13.32 8.53731 13.28 8.49627C 13.24 8.37313 13.24 8.29104 13.28 8.16791C 13.28 8.12687 13.28 8.12687 13.32 8.08582C 13.32 8.04478 13.32 8.04478 13.36 8.00373C 13.36 7.96269 13.4 7.96269 13.4 7.92164C 13.4 7.8806 13.44 7.8806 13.44 7.83955C 13.48 7.79851 13.52 7.75746 13.56 7.71642L 17 4.18657C 17.32 3.85821 17.8 3.85821 18.12 4.18657C 18.44 4.51493 18.44 5.00746 18.12 5.33582L 16.04 7.47015L 23.2 7.47015C 23.64 7.55224 24 7.92164 24 8.37313Z"/>
</defs>
</svg>
