<svg width="26" height="24" viewBox="0 0 26 24" version="1.1" xmlns="http://www.w3.org/2000/svg" xmlns:xlink="http://www.w3.org/1999/xlink">
<title>icon like</title>
<desc>Created using Figma</desc>
<g id="Canvas" transform="translate(-1913 -18606)">
<g id="icon like">
<g id="icon like">
<use xlink:href="#path0_fill" transform="translate(1914 18607)" fill="#FFFFFF"/>
<use xlink:href="#path1_stroke" transform="translate(1914 18607)" fill="#007CB1"/>
</g>
</g>
</g>
<defs>
<path id="path0_fill" d="M 22.1887 10.2481C 22.1887 10.2481 26.2642 5.33053 22.1887 1.74655C 22.1887 1.74655 16.3302 -3.17099 12 3.49687C 7.66981 -3.08764 1.81132 1.74655 1.81132 1.74655C -2.26415 5.41388 1.81132 10.2481 1.81132 10.2481C 3.33962 12.9986 11.3208 20.4166 12.0849 21C 13.0189 20.0832 20.6604 12.9152 22.1887 10.2481Z"/>
<path id="path1_stroke" d="M 22.1887 10.2481L 21.4187 9.60997L 21.3638 9.67623L 21.321 9.7509L 22.1887 10.2481ZM 22.1887 1.74655L 22.8491 0.995618L 22.8404 0.988018L 22.8316 0.980619L 22.1887 1.74655ZM 12 3.49687L 11.1645 4.04633L 12.0053 5.32483L 12.8387 4.04151L 12 3.49687ZM 1.81132 1.74655L 1.17486 0.975242L 1.15834 0.988876L 1.14242 1.00321L 1.81132 1.74655ZM 1.81132 10.2481L 2.68544 9.76237L 2.63836 9.67763L 2.57588 9.60352L 1.81132 10.2481ZM 12.0849 21L 11.4781 21.7948L 12.1669 22.3208L 12.7854 21.7136L 12.0849 21ZM 22.1887 10.2481C 22.9586 10.8862 22.9589 10.8858 22.9592 10.8855C 22.9593 10.8853 22.9596 10.885 22.9599 10.8847C 22.9602 10.8843 22.9609 10.8834 22.9615 10.8827C 22.9623 10.8817 22.9642 10.8795 22.9659 10.8774C 22.9685 10.8741 22.9736 10.8679 22.9789 10.8614C 22.9879 10.8501 23.0037 10.8304 23.0211 10.8081C 23.0531 10.7671 23.1047 10.6997 23.163 10.6202C 23.2735 10.469 23.4392 10.23 23.6133 9.94808C 23.949 9.40185 24.3874 8.55968 24.6738 7.63191C 25.2571 5.71125 25.2725 3.12681 22.8491 0.995618L 21.5283 2.49749C 23.1803 3.95027 23.1957 5.6166 22.7601 7.0507C 22.5371 7.80031 22.2114 8.41153 21.9103 8.89934C 21.766 9.13441 21.6452 9.30766 21.5487 9.43938C 21.5035 9.5013 21.4715 9.54306 21.4458 9.5759C 21.4344 9.59048 21.4277 9.5988 21.4216 9.60636C 21.4193 9.60925 21.4186 9.61011 21.4174 9.6116C 21.4171 9.61191 21.4172 9.61182 21.4173 9.61165C 21.4172 9.61179 21.4179 9.61096 21.4179 9.61103C 21.418 9.61089 21.4182 9.61063 21.4182 9.61056C 21.4185 9.61027 21.4187 9.60997 22.1887 10.2481ZM 22.1887 1.74655C 22.8316 0.980619 22.8312 0.980275 22.8308 0.979914C 22.8306 0.979768 22.8301 0.979387 22.8298 0.979095C 22.8293 0.978729 22.8283 0.977852 22.8274 0.97712C 22.8262 0.976089 22.8235 0.973885 22.821 0.971836C 22.8171 0.96861 22.8096 0.962447 22.8018 0.956103C 22.7883 0.945174 22.7646 0.926203 22.7379 0.905286C 22.689 0.867028 22.6081 0.805483 22.5128 0.736771C 22.332 0.606689 22.0447 0.413164 21.7063 0.216756C 21.0516 -0.160903 20.0323 -0.631139 18.9118 -0.85981C 17.8079 -1.07238 16.3785 -1.04638 15.0382 -0.514369C 13.6588 0.0533092 12.333 1.14809 11.1613 2.95223L 12.8387 4.04151C 13.8321 2.51172 14.8624 1.72074 15.7994 1.33512C 16.7754 0.913838 17.6225 0.919003 18.5245 1.10234C 19.4099 1.26957 20.1259 1.61198 20.7049 1.94799C 20.9835 2.10842 21.1877 2.24698 21.3441 2.35978C 21.4175 2.41251 21.4667 2.4501 21.5057 2.48063C 21.523 2.4941 21.5327 2.50193 21.5417 2.5092C 21.5451 2.51196 21.546 2.51275 21.5478 2.51419C 21.5481 2.51448 21.548 2.51436 21.5478 2.5142C 21.548 2.51434 21.547 2.5135 21.547 2.51357C 21.5469 2.51342 21.5466 2.51315 21.5465 2.51308C 21.5461 2.5128 21.5458 2.51249 22.1887 1.74655ZM 12.8355 2.9474C 11.6625 1.16377 10.3363 0.0818185 8.95913 -0.480302C 7.62122 -1.00737 6.1957 -1.03625 5.09312 -0.829511C 3.97363 -0.607006 2.95524 -0.146199 2.30056 0.224526C 1.9622 0.417365 1.67481 0.607519 1.49393 0.73536C 1.39862 0.802907 1.31767 0.863445 1.2687 0.901066C 1.24196 0.921644 1.21823 0.940322 1.20474 0.951076C 1.19692 0.957323 1.18939 0.963397 1.18547 0.966574C 1.18298 0.968594 1.18031 0.970769 1.17907 0.971785C 1.17819 0.972508 1.17713 0.973374 1.17669 0.973736C 1.17634 0.974024 1.17588 0.974401 1.17571 0.974545C 1.17528 0.974902 1.17486 0.975242 1.81132 1.74655C 2.44778 2.51787 2.44741 2.51817 2.44707 2.51845C 2.44698 2.51852 2.44666 2.51879 2.44648 2.51893C 2.44657 2.51886 2.44554 2.51971 2.44571 2.51957C 2.44553 2.51972 2.44535 2.51986 2.4457 2.51958C 2.44745 2.51816 2.44838 2.5174 2.45177 2.5147C 2.46072 2.50756 2.47042 2.4999 2.48765 2.48668C 2.52661 2.4567 2.57575 2.41981 2.64909 2.36803C 2.80551 2.25722 3.00964 2.12115 3.28818 1.96366C 3.86728 1.63374 4.58415 1.29753 5.47056 1.13455C 6.37388 0.9558 7.22488 0.952967 8.20331 1.37138C 9.14251 1.75474 10.1724 2.53771 11.1645 4.04633L 12.8355 2.9474ZM 1.14242 1.00321C -1.26824 3.17244 -1.25914 5.74789 -0.673319 7.66482C -0.386198 8.5886 0.0535299 9.42448 0.389708 9.96463C 0.564216 10.2437 0.730594 10.4802 0.841318 10.6294C 0.899778 10.708 0.951613 10.7747 0.983714 10.8151C 1.00127 10.8372 1.01715 10.8568 1.02627 10.8679C 1.03157 10.8744 1.03672 10.8806 1.03941 10.8838C 1.04113 10.8859 1.04297 10.8881 1.04383 10.8891C 1.04444 10.8899 1.04518 10.8907 1.04549 10.8911C 1.04573 10.8914 1.04605 10.8918 1.04617 10.8919C 1.04648 10.8923 1.04677 10.8926 1.81132 10.2481C 2.57588 9.60352 2.57613 9.60382 2.57638 9.60411C 2.57644 9.60418 2.57666 9.60445 2.57678 9.6046C 2.57673 9.60453 2.57745 9.60539 2.57733 9.60525C 2.57745 9.60539 2.57758 9.60555 2.57735 9.60527C 2.57616 9.60384 2.57552 9.60308 2.57324 9.60028C 2.56719 9.5929 2.56068 9.58489 2.54938 9.57066C 2.52377 9.53846 2.49203 9.49774 2.44701 9.43701C 2.35077 9.30754 2.2306 9.1377 2.08671 8.90623C 1.78609 8.42537 1.46167 7.82349 1.23936 7.0803C 0.806314 5.6633 0.815407 3.98799 2.48023 2.4899L 1.14242 1.00321ZM 0.937197 10.7338C 1.37916 11.5292 2.2337 12.582 3.20815 13.6727C 4.19669 14.7787 5.38173 16.0032 6.52921 17.1454C 8.80281 19.4085 11.035 21.4565 11.4781 21.7948L 12.6918 20.2052C 12.3706 19.96 10.2302 18.0074 7.94013 15.7279C 6.80577 14.5989 5.66121 13.4167 4.69957 12.3401C 3.72384 11.2481 3.00763 10.3422 2.68544 9.76237L 0.937197 10.7338ZM 12.7854 21.7136C 13.2452 21.2622 15.3941 19.2361 17.6245 16.984C 18.739 15.8585 19.8848 14.6648 20.8431 13.5897C 21.8053 12.5096 22.6323 11.479 23.0563 10.7452L 21.321 9.7509C 20.9809 10.3507 20.2796 11.2163 19.35 12.259C 18.4165 13.3067 17.307 14.4623 16.2034 15.5768C 13.9974 17.8047 11.8586 19.8209 11.3844 20.2864L 12.7854 21.7136Z"/>
</defs>
</svg>
