<svg width="21" height="25" viewBox="0 0 21 25" version="1.1" xmlns="http://www.w3.org/2000/svg" xmlns:xlink="http://www.w3.org/1999/xlink">
<title>notification icon</title>
<desc>Created using Figma</desc>
<g id="Canvas" transform="translate(-3193 -18447)">
<g id="notification icon">
<g id="notification icon">
<use xlink:href="#path0_fill" transform="translate(3193 18447)" fill="#333333"/>
</g>
</g>
</g>
<defs>
<path id="path0_fill" d="M 10.5 2.06938e-08C 9.78048 0.000718118 9.09063 0.292718 8.58185 0.811914C 8.07307 1.33111 7.78693 2.03509 7.78622 2.76934L 7.78622 3.97092C 6.18824 4.52126 4.80172 5.57317 3.82497 6.97623C 2.84821 8.37928 2.33126 10.0616 2.34804 11.7826L 2.34804 16.3936L 0.0542241 21.1783C 0.0144738 21.261 -0.00394566 21.3528 0.000704784 21.4449C 0.00535523 21.5369 0.0329223 21.6263 0.080803 21.7045C 0.128684 21.7826 0.195298 21.8471 0.274359 21.8917C 0.353419 21.9363 0.442316 21.9596 0.532657 21.9594L 7.62143 21.9594L 7.62143 22.0652C 7.62143 22.8436 7.92443 23.59 8.46377 24.1404C 9.0031 24.6908 9.7346 25 10.4973 25C 11.2601 25 11.9916 24.6908 12.5309 24.1404C 13.0703 23.59 13.3733 22.8436 13.3733 22.0652L 13.3733 21.9594L 20.47 21.9594C 20.5601 21.9591 20.6487 21.9355 20.7274 21.8907C 20.8061 21.8459 20.8723 21.7814 20.9199 21.7033C 20.9675 21.6252 20.9948 21.536 20.9993 21.4442C 21.0039 21.3524 20.9854 21.2608 20.9458 21.1783L 18.652 16.3773L 18.652 11.7663C 18.6687 10.0453 18.1518 8.363 17.175 6.95995C 16.1983 5.5569 14.8118 4.50498 13.2138 3.95465L 13.2138 2.76934C 13.2131 2.03509 12.9269 1.33111 12.4182 0.811914C 11.9094 0.292718 11.2195 0.000718118 10.5 2.06938e-08ZM 10.5 1.08495C 10.9378 1.08495 11.3576 1.26241 11.6671 1.5783C 11.9767 1.89418 12.1506 2.32261 12.1506 2.76934L 12.1506 3.69969L 8.84941 3.69969L 8.84941 2.76934C 8.84941 2.32261 9.02331 1.89418 9.33285 1.5783C 9.6424 1.26241 10.0622 1.08495 10.5 1.08495ZM 12.3074 22.0571C 12.3074 22.3 12.2605 22.5405 12.1694 22.765C 12.0783 22.9894 11.9448 23.1933 11.7765 23.3651C 11.6081 23.5369 11.4083 23.6731 11.1884 23.7661C 10.9685 23.8591 10.7327 23.9069 10.4947 23.9069C 10.2566 23.9069 10.0209 23.8591 9.80098 23.7661C 9.58105 23.6731 9.38122 23.5369 9.21289 23.3651C 9.04456 23.1933 8.91104 22.9894 8.81994 22.765C 8.72884 22.5405 8.68196 22.3 8.68196 22.0571L 8.68196 21.9513L 12.3101 21.9513L 12.3074 22.0571ZM 19.6168 20.8663L 1.3832 20.8663L 3.08164 17.3158L 17.9184 17.3158L 19.6168 20.8663ZM 17.5888 11.7799L 17.5888 16.2309L 3.41123 16.2309L 3.41123 11.7799C 3.39775 10.1617 3.92483 8.58716 4.90562 7.31561C 5.88642 6.04405 7.2624 5.15137 8.80688 4.78464L 12.1931 4.78464C 13.7376 5.15137 15.1136 6.04405 16.0944 7.31561C 17.0752 8.58716 17.6022 10.1617 17.5888 11.7799Z"/>
</defs>
</svg>
