<svg width="20" height="25" viewBox="0 0 20 25" version="1.1" xmlns="http://www.w3.org/2000/svg" xmlns:xlink="http://www.w3.org/1999/xlink">
<title>password icon</title>
<desc>Created using Figma</desc>
<g id="Canvas" transform="translate(-2766 -18447)">
<g id="password icon">
<g id="Vector">
<use xlink:href="#path0_fill" transform="translate(2766 18447)" fill="#333333"/>
</g>
<g id="Vector">
<use xlink:href="#path1_fill" transform="translate(2774.56 18462.3)" fill="#333333"/>
</g>
</g>
</g>
<defs>
<path id="path0_fill" d="M 18.2579 9.79594L 18.1345 9.79594L 18.1345 7.10264C 18.1349 3.18642 14.486 4.77248e-08 10.0004 4.77248e-08C 5.51522 4.77248e-08 1.86587 3.18608 1.86587 7.10264L 1.86587 9.79594L 1.74249 9.79594C 0.781692 9.79594 2.18633e-07 10.4642 2.18633e-07 11.2854L 2.18633e-07 23.5105C 2.18633e-07 24.3317 0.781692 25 1.74249 25L 18.2575 25C 19.2183 25 20 24.3317 20 23.5105L 20 11.2854C 20.0004 10.4642 19.2187 9.79594 18.2579 9.79594ZM 3.0603 7.10264C 3.0603 3.76123 6.17353 1.04256 10.0008 1.04256C 13.8281 1.04256 16.9413 3.76088 16.9413 7.10264L 16.9413 9.79594L 3.0603 9.79594L 3.0603 7.10264ZM 18.8064 23.5105C 18.8064 23.7569 18.5604 23.9574 18.2579 23.9574L 1.74289 23.9574C 1.4404 23.9574 1.19443 23.7569 1.19443 23.5105L 1.19443 11.2854C 1.19443 11.039 1.4404 10.8385 1.74289 10.8385L 18.2579 10.8385C 18.5604 10.8385 18.8064 11.039 18.8064 11.2854L 18.8064 23.5105Z"/>
<path id="path1_fill" d="M 1.44279 6.1512e-07C 0.64597 6.1512e-07 0 0.564028 0 1.25977C 0 1.69834 0.257114 2.08374 0.646766 2.30963L 0.646766 3.47522C 0.646766 3.85888 1.00338 4.17026 1.44279 4.17026C 1.88219 4.17026 2.23881 3.85888 2.23881 3.47522L 2.23881 2.30963C 2.62846 2.08409 2.88557 1.69834 2.88557 1.25977C 2.88557 0.564028 2.2396 6.1512e-07 1.44279 6.1512e-07Z"/>
</defs>
</svg>
