<svg width="24" height="23" viewBox="0 0 24 23" version="1.1" xmlns="http://www.w3.org/2000/svg" xmlns:xlink="http://www.w3.org/1999/xlink">
<title>print ico</title>
<desc>Created using Figma</desc>
<g id="Canvas" transform="translate(-3432 -22308)">
<g id="print ico">
<g id="print ico">
<use xlink:href="#path0_fill" transform="translate(3432 22308)" fill="#007CB1"/>
</g>
</g>
</g>
<defs>
<path id="path0_fill" d="M 4.18605 7.16611e-07C 3.8938 2.80976e-05 3.62793 0.260895 3.62791 0.54762L 3.62791 6.02381L 2.23256 6.02381C 1.00538 6.02381 0 7.01023 0 8.21428L 0 16.4286C 0 17.6326 1.00538 18.619 2.23256 18.619L 3.62791 18.619L 3.62791 22.4524C 3.62793 22.7391 3.8938 23 4.18605 23L 19.814 23C 20.1062 23 20.3721 22.7391 20.3721 22.4524L 20.3721 18.619L 21.7674 18.619C 22.9946 18.619 24 17.6326 24 16.4286L 24 8.21428C 24 7.01023 22.9946 6.02381 21.7674 6.02381L 20.3721 6.02381L 20.3721 0.54762C 20.3721 0.260895 20.1062 2.80976e-05 19.814 7.16611e-07L 4.18605 7.16611e-07ZM 4.74419 1.09524L 19.2558 1.09524L 19.2558 6.02381L 4.74419 6.02381L 4.74419 1.09524ZM 2.23256 7.11905L 4.14246 7.11905L 19.8663 7.11905L 21.7674 7.11905C 22.3955 7.11905 22.8837 7.5981 22.8837 8.21428L 22.8837 16.4286C 22.8837 17.0447 22.3955 17.5238 21.7674 17.5238L 20.3721 17.5238L 20.3721 13.6905C 20.3721 13.4037 20.1062 13.1429 19.814 13.1429L 4.18605 13.1429C 3.8938 13.1429 3.62793 13.4037 3.62791 13.6905L 3.62791 17.5238L 2.23256 17.5238C 1.60454 17.5238 1.11628 17.0447 1.11628 16.4286L 1.11628 8.21428C 1.11628 7.5981 1.60454 7.11905 2.23256 7.11905ZM 19.814 8.48809C 18.8958 8.48809 18.1395 9.23012 18.1395 10.131C 18.1395 11.0318 18.8958 11.7738 19.814 11.7738C 20.7321 11.7738 21.4884 11.0318 21.4884 10.131C 21.4884 9.23012 20.7321 8.48809 19.814 8.48809ZM 19.814 9.58333C 20.1288 9.58333 20.3721 9.82204 20.3721 10.131C 20.3721 10.4399 20.1288 10.6786 19.814 10.6786C 19.4991 10.6786 19.2558 10.4399 19.2558 10.131C 19.2558 9.82204 19.4991 9.58333 19.814 9.58333ZM 4.74419 14.2381L 19.2558 14.2381L 19.2558 21.9048L 4.74419 21.9048L 4.74419 14.2381Z"/>
</defs>
</svg>
