<svg width="24" height="24" viewBox="0 0 24 24" version="1.1" xmlns="http://www.w3.org/2000/svg" xmlns:xlink="http://www.w3.org/1999/xlink">
<title>refunds icon</title>
<desc>Created using Figma</desc>
<g id="Canvas" transform="translate(-2787 -22103)">
<g id="refunds icon">
<g id="Vector">
<use xlink:href="#path0_fill" transform="translate(2787 22103)" fill="#333333"/>
</g>
<g id="Vector">
<use xlink:href="#path1_fill" transform="translate(2793 22113)" fill="#333333"/>
</g>
</g>
</g>
<defs>
<path id="path0_fill" d="M 23.9732 22.0275L 21.3023 6L 17.9993 6C 17.9993 2.6856 15.3129 0 11.9997 0C 8.68619 0 5.9997 2.6853 5.9997 5.9997L 2.69792 5.9997L 0.0270357 22.0275C -0.154463 23.1114 0.597333 24 1.69803 24L 22.3025 24C 23.402 24 24.1538 23.1114 23.9732 22.0275ZM 11.9997 2.0001C 14.2083 2.0001 15.9995 3.7911 15.9995 6L 7.99949 6C 7.99949 3.7908 9.79078 2.0001 11.9997 2.0001ZM 2.05832 21.9999L 4.39201 8.0001L 5.9994 8.0001L 5.9994 9.9999L 7.99949 9.9999L 7.99949 8.0001L 15.9995 8.0001L 15.9995 9.9999L 17.9993 9.9999L 17.9993 8.0001L 19.6076 8.0001L 21.9407 21.9999L 2.05832 21.9999Z"/>
<path id="path1_fill" d="M 8.12486 2.25L 4.81047 2.25L 5.99997 1.0605L 4.93947 5.49316e-08L 2.64629 2.2932C 2.25569 2.6838 2.25569 3.3165 2.64629 3.7071L 4.93947 6.0003L 5.99877 4.9398L 4.80927 3.7503L 8.12486 3.7503C 9.43615 3.7503 10.4996 4.8129 10.4996 6.1254C 10.4996 7.4358 9.43615 8.5002 8.12486 8.5002L 1.64794e-07 8.5002L 1.64794e-07 10.0002L 8.12486 10.0002C 10.2653 10.0002 11.9996 8.2659 11.9996 6.1254C 11.9996 3.9843 10.2653 2.25 8.12486 2.25Z"/>
</defs>
</svg>
