<svg width="18" height="18" viewBox="0 0 18 18" version="1.1" xmlns="http://www.w3.org/2000/svg" xmlns:xlink="http://www.w3.org/1999/xlink">
<title>Imported Layers</title>
<desc>Created using Figma</desc>
<g id="Canvas" transform="translate(-7683 622)">
<g id="Imported Layers">
<g id="Imported Layers">
<use xlink:href="#path0_fill" transform="translate(7683 -622)" fill="#FFFFFF"/>
</g>
</g>
</g>
<defs>
<path id="path0_fill" fill-rule="evenodd" d="M 5.52415 0L 10.0625 0L 10.0625 0.081C 10.0625 0.607263 9.15462 0.688737 8.52323 0.81C 8.32615 0.81 7.89185 0.850263 7.77369 0.931263C 8.91785 1.539 9.11539 2.55126 9.11539 4.00926C 9.11539 5.71026 8.484 6.60126 7.77369 7.20853C 7.37908 7.61353 7.02415 7.89679 7.02415 8.30179C 7.02415 8.70679 7.49723 9.11179 8.01 9.59779C 8.87815 10.3675 10.0625 11.4201 10.0625 13.2021C 10.0625 15.0651 9.27323 16.4013 7.77369 17.1308C 6.58985 17.7381 5.32708 17.8191 4.81385 17.8191C 4.73538 17.8191 4.69569 17.7783 4.65646 17.7783C 4.65646 17.7783 4.61677 17.8191 4.57754 17.8191C 3.82754 17.8191 0 17.6163 0 14.0523C 0 10.5698 4.14323 10.2865 5.406 10.2865L 5.44569 10.2865C 4.73538 9.27379 4.85354 8.26153 4.85354 8.26153C 4.81385 8.26153 4.69569 8.26153 4.57754 8.26153C 4.10354 8.26153 3.19662 8.18053 2.40738 7.65426C 1.42062 7.04653 0.947077 5.95326 0.947077 4.41426C 0.947077 0.162 5.48492 0 5.52415 0ZM 5.36676 11.2178C 5.28784 11.2178 5.16922 11.2178 5.05061 11.2178C 4.18245 11.2585 3.39322 11.6228 2.80153 12.149C 2.24953 12.6758 1.93338 13.364 1.97307 14.0523C 2.09122 15.47 3.55153 16.28 5.36676 16.1583C 7.14184 16.037 8.36538 14.984 8.24722 13.5663C 8.1683 12.1898 7.06338 11.2178 5.36676 11.2178ZM 4.6565 1.25537C 4.53788 1.25537 4.41973 1.25537 4.26142 1.29611C 3.74865 1.45763 3.35404 1.90337 3.11773 2.55137C 2.92019 3.19937 2.8805 3.88763 3.07804 4.69763C 3.43296 6.07463 4.41973 7.0869 5.40604 7.0869C 5.52419 7.0869 5.6428 7.0869 5.76096 7.04663C 6.86588 6.72263 7.53696 5.06237 7.06342 3.44237C 6.58988 1.74137 5.83988 1.25537 4.6565 1.25537ZM 17.6775 6.96549L 17.6775 8.86875L 14.7181 8.86875L 14.7181 11.9065L 12.8637 11.9065L 12.8637 8.86875L 9.9043 8.86875L 9.9043 6.96549L 12.8637 6.96549L 12.8637 3.92822L 14.7181 3.92822L 14.7181 6.96549L 17.6775 6.96549Z"/>
</defs>
</svg>
