<svg width="64" height="64" viewBox="0 0 64 64" version="1.1" xmlns="http://www.w3.org/2000/svg" xmlns:xlink="http://www.w3.org/1999/xlink">
<title>Icon</title>
<desc>Created using Figma</desc>
<g id="Canvas" transform="translate(-18477 -2158)">
<g id="Icon">
<g id="Rectangle 6">
<use xlink:href="#path0_fill" transform="translate(18477 2158)" fill="#FFFFFF"/>
</g>
<g id="Vector">
<use xlink:href="#path1_fill" transform="translate(18479.1 2158.43)" fill="#007CB1"/>
</g>
</g>
</g>
<defs>
<path id="path0_fill" d="M 0 0L 64 0L 64 64L 0 64L 0 0Z"/>
<path id="path1_fill" d="M 13.922 0C 13.4253 0 12.9553 0.228167 12.66 0.617483L 0.349007 16.2305C 0.120776 16.5124 0 16.8615 0 17.224L 0 61.109C 0 61.9951 0.72497 62.72 1.61104 62.72L 58.548 62.72C 59.434 62.72 60.159 61.9951 60.159 61.109L 60.159 17.224C 60.1724 16.8615 60.0516 16.5124 59.8234 16.2305L 47.5121 0.617483C 47.2034 0.228167 46.7471 0 46.2504 0L 13.922 0ZM 14.7008 3.22192L 28.4751 3.22192L 28.4751 15.8815L 4.72562 15.8815L 14.7008 3.22192ZM 31.6972 3.22192L 45.4716 3.22192L 55.4467 15.8815L 31.6972 15.8815L 31.6972 3.22192ZM 3.22209 19.1034L 56.9369 19.1034L 56.9369 59.4981L 3.22209 59.4981L 3.22209 19.1034ZM 30.0862 25.4531C 29.2001 25.4531 28.4751 26.1781 28.4751 27.0641L 28.4751 29.5076L 28.1529 29.5076C 24.9308 29.5076 22.2995 32.1387 22.2995 35.3607C 22.2995 38.5826 24.9308 41.2138 28.1529 41.2138L 32.0195 41.2138C 33.4694 41.2138 34.6508 42.3951 34.6508 43.845C 34.6508 45.2948 33.4694 46.4761 32.0195 46.4761L 25.065 46.4761C 24.179 46.4761 23.454 47.2011 23.454 48.0871C 23.454 48.9731 24.179 49.6981 25.065 49.6981L 28.4751 49.6981L 28.4751 52.1816C 28.4751 53.0677 29.2001 53.7926 30.0862 53.7926C 30.9723 53.7926 31.6972 53.0677 31.6972 52.1816L 31.6972 49.6981L 32.0596 49.6981L 32.1 49.6981C 35.2952 49.6578 37.8729 47.04 37.8729 43.845C 37.8729 40.623 35.255 37.9918 32.0195 37.9918L 28.1529 37.9918C 26.7029 37.9918 25.5216 36.8105 25.5216 35.3607C 25.5216 33.9108 26.7029 32.7295 28.1529 32.7295L 34.9864 32.7295C 35.8725 32.7295 36.5975 32.0045 36.5975 31.1185C 36.5975 30.2325 35.8725 29.5076 34.9864 29.5076L 31.6972 29.5076L 31.6972 27.0641C 31.6972 26.1781 30.9723 25.4531 30.0862 25.4531Z"/>
</defs>
</svg>
