<svg width="64" height="64" viewBox="0 0 64 64" version="1.1" xmlns="http://www.w3.org/2000/svg" xmlns:xlink="http://www.w3.org/1999/xlink">
<title>Icon</title>
<desc>Created using Figma</desc>
<g id="Canvas" transform="translate(-19434 -2158)">
<g id="Icon">
<g id="Rectangle 6.2">
<use xlink:href="#path0_fill" transform="translate(19434 2158)" fill="#FFFFFF"/>
</g>
<g id="Vector">
<use xlink:href="#path1_fill" transform="translate(19434 2165.25)" fill="#007CB1"/>
</g>
<g id="Vector">
<use xlink:href="#path2_fill" transform="translate(19439.2 2194.3)" fill="#007CB1"/>
</g>
</g>
</g>
<defs>
<path id="path0_fill" d="M 0 0L 64 0L 64 64L 0 64L 0 0Z"/>
<path id="path1_fill" d="M 63.4787 14.0747C 62.8705 12.802 61.7302 11.7539 60.3618 11.3047L 29.7248 0.299462C 29.1166 0.074866 28.5084 -5.71178e-07 27.9002 -5.71178e-07C 25.6195 -5.71178e-07 23.5669 1.42244 22.7307 3.51867L 16.877 19.3153L 5.47361 19.3153C 2.43272 19.3153 7.25006e-08 21.711 7.25006e-08 24.7056L 7.25006e-08 25.9034L 7.25006e-08 27.7002L 7.25006e-08 39.8284L 7.25006e-08 41.6252L 7.25006e-08 42.823C 7.25006e-08 45.8176 2.43272 48.2133 5.47361 48.2133L 38.1632 48.2133C 41.2041 48.2133 43.6369 45.8176 43.6369 42.823L 43.6369 41.6252L 43.6369 39.8284L 43.6369 36.0851L 50.4028 38.4808C 51.011 38.7054 51.6192 38.7803 52.2274 38.7803C 54.5081 38.7803 56.5607 37.3578 57.3969 35.2616L 63.7068 18.1923C 64.1629 16.8447 64.0869 15.4223 63.4787 14.0747ZM 41.8123 42.823C 41.8123 44.7695 40.2158 46.4166 38.1632 46.4166L 5.47361 46.4166C 3.49703 46.4166 1.82454 44.8444 1.82454 42.823L 1.82454 41.6252L 41.8123 41.6252L 41.8123 42.823ZM 41.8123 39.8284L 1.82454 39.8284L 1.82454 27.6253L 41.8123 27.6253L 41.8123 39.8284ZM 41.8123 25.9034L 1.82454 25.9034L 1.82454 24.7056C 1.82454 22.7591 3.42101 21.112 5.47361 21.112L 38.1632 21.112C 40.1398 21.112 41.8123 22.6842 41.8123 24.7056L 41.8123 25.9034ZM 61.9583 17.5934L 24.4032 4.1176L 21.2102 12.6523L 58.7653 26.128L 55.5724 34.6627C 55.0402 36.0851 53.5958 37.0584 52.1514 37.0584C 51.7713 37.0584 51.3151 36.9835 50.935 36.8338L 43.5608 34.2135L 43.5608 27.7002L 43.5608 25.9034L 43.5608 24.7056C 43.5608 21.711 41.1281 19.3153 38.0872 19.3153L 18.7775 19.3153L 24.4032 4.1176C 24.9353 2.69515 26.3798 1.7219 27.8242 1.7219C 28.2043 1.7219 28.6604 1.79677 29.0406 1.9465L 59.7536 12.9517C 61.6542 13.7004 62.6425 15.7217 61.9583 17.5934Z"/>
<path id="path2_fill" d="M 2.73681 9.50791L 6.91804 9.50791C 8.43849 9.50791 9.65484 8.31006 9.65484 6.81275L 9.65484 2.69516C 9.65484 1.19785 8.43849 -1.14236e-06 6.91804 -1.14236e-06L 2.73681 -1.14236e-06C 1.21636 -1.14236e-06 1.45001e-07 1.19785 1.45001e-07 2.69516L 1.45001e-07 6.81275C 1.45001e-07 8.2352 1.21636 9.50791 2.73681 9.50791ZM 1.82454 2.62029C 1.82454 2.09623 2.20465 1.72191 2.73681 1.72191L 6.91804 1.72191C 7.45019 1.72191 7.83031 2.09623 7.83031 2.62029L 7.83031 6.73789C 7.83031 7.26195 7.45019 7.63628 6.91804 7.63628L 2.73681 7.63628C 2.20465 7.63628 1.82454 7.26195 1.82454 6.73789L 1.82454 2.62029Z"/>
</defs>
</svg>
