<svg width="48" height="53" viewBox="0 0 48 53" version="1.1" xmlns="http://www.w3.org/2000/svg" xmlns:xlink="http://www.w3.org/1999/xlink">
<title>Icon</title>
<desc>Created using Figma</desc>
<g id="Canvas" transform="translate(-18477 -2028)">
<g id="Icon">
<g id="Icon">
<use xlink:href="#path0_fill" transform="translate(18477 2028)" fill="#007CB1"/>
</g>
</g>
</g>
<defs>
<path id="path0_fill" d="M 47.983 29.9282C 48.0408 30.588 47.9509 31.2523 47.7194 31.8744C 47.4879 32.4966 47.1204 33.0616 46.6428 33.5298L 33.9585 45.968C 33.0525 46.849 31.9783 47.546 30.7973 48.0193C 29.6163 48.4926 28.3516 48.7327 27.0758 48.726L 11.4133 48.726L 7.4481 52.6035C 7.18921 52.8574 6.83808 53 6.47195 53C 6.10583 53 5.7547 52.8574 5.49581 52.6035C 5.23692 52.3496 5.09147 52.0053 5.09147 51.6463C 5.09147 51.2873 5.23692 50.943 5.49581 50.6891L 9.85262 46.4169C 9.98089 46.2914 10.1331 46.192 10.3006 46.1242C 10.4681 46.0565 10.6476 46.0218 10.8288 46.0221L 27.0758 46.0221C 27.9978 46.0259 28.9113 45.85 29.7634 45.5046C 30.6154 45.1593 31.389 44.6513 32.0392 44.0104L 44.7236 31.5722C 45.0577 31.2229 45.2402 30.7599 45.2323 30.2811C 45.2245 29.8023 45.0271 29.3452 44.6818 29.0066C 44.3365 28.668 43.8704 28.4744 43.3821 28.4667C 42.8938 28.4591 42.4216 28.638 42.0654 28.9656L 32.0558 38.8837L 32.0227 38.9107C 31.161 39.7479 29.9985 40.2198 28.7854 40.2248L 19.1067 40.2248C 18.741 40.2248 18.3903 40.0824 18.1318 39.8288C 17.8732 39.5753 17.728 39.2314 17.728 38.8729C 17.728 38.5143 17.8732 38.1704 18.1318 37.9169C 18.3903 37.6633 18.741 37.5209 19.1067 37.5209L 28.7909 37.5209C 29.2148 37.5189 29.6255 37.3761 29.956 37.1159C 30.2865 36.8556 30.5174 36.4932 30.6109 36.0878C 30.6711 35.8207 30.6695 35.5437 30.606 35.2773C 30.5426 35.0109 30.419 34.7619 30.2443 34.5486C 30.0697 34.3353 29.8484 34.1632 29.5969 34.0449C 29.3453 33.9266 29.0699 33.8652 28.7909 33.8651L 12.0862 33.8651C 11.321 33.8629 10.5629 34.0095 9.85577 34.2963C 9.14865 34.5831 8.50653 35.0045 7.9665 35.5362L 5.5289 37.9211C 5.40509 38.0624 5.25283 38.1771 5.08166 38.2581C 4.91049 38.339 4.72411 38.3843 4.53422 38.3912C 4.34434 38.3982 4.15504 38.3665 3.97821 38.2983C 3.80138 38.2301 3.64085 38.1268 3.50667 37.9948C 3.3725 37.8629 3.26759 37.7052 3.19853 37.5316C 3.12946 37.358 3.09774 37.1723 3.10534 36.9861C 3.11294 36.7999 3.15971 36.6173 3.2427 36.4497C 3.3257 36.2821 3.44313 36.1331 3.58763 36.0121L 6.02524 33.6272C 6.81998 32.8433 7.76534 32.2218 8.80663 31.7985C 9.84792 31.3752 10.9645 31.1586 12.0917 31.1612L 28.7909 31.1612C 29.7053 31.1585 30.5996 31.4237 31.3592 31.9228C 32.1187 32.4219 32.7089 33.1322 33.054 33.9625L 40.08 27.0728C 40.7065 26.4585 41.4994 26.0331 42.3647 25.8467C 43.2301 25.6604 44.1317 25.721 44.9631 26.0213C 45.7944 26.3217 46.5206 26.8493 47.0558 27.5416C 47.5909 28.234 47.9127 29.0622 47.983 29.9282ZM 36.9531 12.0821C 36.7851 11.662 36.5311 11.2802 36.2067 10.9602C 35.8823 10.6402 35.4944 10.3889 35.067 10.2218L 31.5208 8.84819L 30.837 5.17081C 30.7546 4.72624 30.5796 4.30309 30.323 3.92779C 30.0663 3.55248 29.7336 3.23307 29.3455 2.9895C 28.9573 2.74592 28.5222 2.5834 28.0672 2.51209C 27.6121 2.44078 27.147 2.4622 26.7008 2.57502L 23.0003 3.48895L 20.2428 0.909385C 19.9099 0.597847 19.5151 0.356836 19.0832 0.201353C 18.6512 0.0458701 18.1912 -0.0207556 17.7318 0.00562321C 17.2724 0.032002 16.8235 0.150821 16.4129 0.354683C 16.0024 0.558545 15.639 0.843086 15.3455 1.1906L 12.9189 4.07301L 9.14119 3.57548C 8.68463 3.51518 8.2203 3.54778 7.77716 3.67124C 7.33403 3.7947 6.92159 4.00638 6.56557 4.29307C 6.20956 4.57976 5.91761 4.93532 5.70793 5.33755C 5.49826 5.73979 5.37536 6.18007 5.3469 6.63094L 5.10976 10.3624L 1.74564 12.1362C 1.34459 12.351 0.992561 12.644 0.711156 12.997C 0.429751 13.3501 0.224916 13.7558 0.109227 14.1894C -0.00646154 14.6229 -0.0305611 15.075 0.0384081 15.518C 0.107377 15.961 0.26796 16.3854 0.510294 16.7654L 2.55634 19.9236L 0.901856 23.2927C 0.702252 23.6999 0.590392 24.1432 0.573257 24.5947C 0.556123 25.0462 0.63408 25.4964 0.802266 25.9171C 0.970451 26.3377 1.22525 26.7199 1.55077 27.0397C 1.87629 27.3595 2.26553 27.6101 2.69421 27.7758L 6.95175 29.4252C 7.12014 29.4906 7.3 29.5228 7.48106 29.5199C 7.66213 29.5171 7.84085 29.4793 8.00703 29.4088C 8.17321 29.3382 8.32359 29.2363 8.44958 29.1087C 8.57558 28.9812 8.67472 28.8306 8.74135 28.6654C 8.80798 28.5003 8.84079 28.324 8.83791 28.1464C 8.83503 27.9689 8.79652 27.7936 8.72457 27.6306C 8.65262 27.4677 8.54864 27.3202 8.41857 27.1967C 8.2885 27.0731 8.13489 26.9759 7.9665 26.9106L 3.70896 25.2612C 3.63287 25.2319 3.56374 25.1875 3.50589 25.1308C 3.44804 25.0742 3.40269 25.0065 3.37269 24.9319C 3.34268 24.8573 3.32865 24.7775 3.33148 24.6974C 3.3343 24.6173 3.35391 24.5386 3.3891 24.4662L 5.36896 20.4211C 5.47034 20.2144 5.51644 19.9859 5.50294 19.7569C 5.48943 19.528 5.41676 19.3062 5.29175 19.1124L 2.8376 15.3269C 2.79374 15.2591 2.76458 15.1832 2.75194 15.1039C 2.73931 15.0247 2.74347 14.9437 2.76417 14.866C 2.78487 14.7884 2.82166 14.7158 2.87225 14.6527C 2.92283 14.5896 2.98614 14.5375 3.0582 14.4994L 7.08963 12.3687C 7.29259 12.262 7.46505 12.107 7.59125 11.9181C 7.71746 11.7292 7.79338 11.5123 7.81208 11.2871L 8.09886 6.80941C 8.10326 6.72916 8.12465 6.65068 8.16168 6.57899C 8.19872 6.5073 8.25057 6.44395 8.31394 6.393C 8.37649 6.34076 8.44965 6.30217 8.52857 6.2798C 8.60749 6.25742 8.69036 6.25176 8.77169 6.26321L 13.3105 6.86348C 13.5424 6.89544 13.7788 6.86846 13.997 6.78513C 14.2153 6.7018 14.408 6.56492 14.5569 6.38759L 17.4743 2.92653C 17.5265 2.86467 17.5912 2.81404 17.6643 2.77781C 17.7374 2.74157 17.8174 2.72051 17.8991 2.71594C 17.9809 2.71138 18.0628 2.7234 18.1396 2.75126C 18.2164 2.77912 18.2866 2.82222 18.3456 2.87786L 21.6546 5.97659C 21.824 6.13546 22.032 6.24917 22.2588 6.30692C 22.4857 6.36466 22.7238 6.36451 22.9506 6.30647L 27.3626 5.18704C 27.4417 5.16717 27.524 5.16346 27.6046 5.17613C 27.6852 5.18881 27.7623 5.21759 27.8311 5.26069C 27.8999 5.3038 27.9589 5.3603 28.0045 5.42671C 28.0501 5.49311 28.0812 5.56799 28.0961 5.64671L 28.9564 10.0541C 28.9981 10.2805 29.098 10.4926 29.2466 10.6705C 29.3952 10.8484 29.5876 10.9862 29.8057 11.0708L 34.0632 12.7202C 34.1376 12.7521 34.2046 12.7986 34.2601 12.8567C 34.3155 12.9149 34.3582 12.9836 34.3856 13.0586C 34.4129 13.1335 34.4244 13.2132 34.4192 13.2926C 34.4141 13.3721 34.3924 13.4497 34.3555 13.5206L 32.3757 17.5657C 32.2743 17.7724 32.2282 18.0009 32.2417 18.2299C 32.2552 18.4588 32.3279 18.6806 32.4529 18.8744L 34.907 22.66C 34.9509 22.7277 34.98 22.8036 34.9927 22.8829C 35.0053 22.9622 35.0012 23.0431 34.9805 23.1208C 34.9598 23.1984 34.923 23.271 34.8724 23.3341C 34.8218 23.3972 34.7585 23.4494 34.6864 23.4874L 30.655 25.6181C 30.4899 25.699 30.3431 25.8117 30.2232 25.9493C 30.1033 26.087 30.0128 26.2468 29.9572 26.4194C 29.9015 26.5919 29.8817 26.7737 29.8989 26.9539C 29.9162 27.1341 29.9702 27.3091 30.0578 27.4684C 30.1453 27.6278 30.2646 27.7683 30.4085 27.8816C 30.5525 27.9949 30.7182 28.0787 30.8957 28.1281C 31.0733 28.1774 31.2592 28.1913 31.4424 28.1689C 31.6256 28.1465 31.8023 28.0882 31.962 27.9976L 35.9935 25.8669C 36.3976 25.6522 36.7524 25.3583 37.0358 25.0036C 37.3193 24.6488 37.5253 24.2407 37.6412 23.8045C 37.757 23.3684 37.7802 22.9136 37.7093 22.4683C 37.6383 22.023 37.4748 21.5968 37.2288 21.2161L 35.1828 18.0578L 36.8373 14.6887C 37.0368 14.2818 37.1491 13.8391 37.1671 13.388C 37.1852 12.9368 37.1085 12.4868 36.942 12.0659L 36.9531 12.0821ZM 18.864 25.6019C 18.3699 25.6027 17.8866 25.4597 17.4753 25.1912C 17.0639 24.9226 16.7431 24.5405 16.5533 24.0931C 16.483 23.9294 16.3806 23.7808 16.2518 23.656C 16.123 23.5311 15.9704 23.4323 15.8027 23.3653C 15.635 23.2982 15.4554 23.2642 15.2743 23.2652C 15.0932 23.2662 14.9141 23.3022 14.7471 23.3711C 14.5802 23.44 14.4287 23.5404 14.3014 23.6667C 14.174 23.793 14.0733 23.9427 14.0049 24.1071C 13.9366 24.2716 13.9019 24.4476 13.9029 24.6252C 13.904 24.8028 13.9406 24.9785 14.0109 25.1422C 14.4107 26.0806 15.085 26.8819 15.9487 27.4449C 16.8125 28.0079 17.8269 28.3075 18.864 28.3058C 21.8642 28.3058 24.1253 26.2238 24.1253 23.4387C 24.1253 22.0651 23.4856 19.6153 19.2225 18.6419L 19.1784 18.6419C 16.3658 18.0146 16.3658 16.8519 16.3658 16.4787C 16.3658 15.0132 17.6618 14.3156 18.8696 14.3156C 19.3631 14.3143 19.8459 14.4564 20.2572 14.724C 20.6684 14.9916 20.9897 15.3726 21.1803 15.819C 21.2464 15.988 21.3464 16.1422 21.4744 16.2726C 21.6025 16.403 21.7559 16.5069 21.9256 16.578C 22.0953 16.6492 22.2778 16.6862 22.4624 16.6869C 22.647 16.6876 22.8298 16.6519 23.0001 16.582C 23.1704 16.5121 23.3246 16.4094 23.4536 16.28C 23.5826 16.1506 23.6838 15.997 23.7512 15.8285C 23.8186 15.66 23.8508 15.48 23.8459 15.2991C 23.841 15.1181 23.7991 14.94 23.7227 14.7752C 23.4134 14.0524 22.9394 13.4086 22.3372 12.893C 21.735 12.3775 21.0205 12.0039 20.2483 11.8009L 20.2483 10.8491C 20.2483 10.4905 20.103 10.1467 19.8445 9.89312C 19.5859 9.63957 19.2352 9.49713 18.8696 9.49713C 18.5039 9.49713 18.1532 9.63957 17.8946 9.89312C 17.6361 10.1467 17.4908 10.4905 17.4908 10.8491L 17.4908 11.8171C 16.3972 12.0433 15.4164 12.6318 14.7134 13.4837C 14.0103 14.3357 13.6278 15.399 13.6304 16.495C 13.6304 17.8686 14.2701 20.3183 18.5331 21.2918L 18.5773 21.2918C 21.3899 21.9245 21.3899 23.0818 21.3899 23.4549C 21.3568 24.9421 20.0608 25.6073 18.853 25.6073L 18.864 25.6019Z"/>
</defs>
</svg>
