<svg width="64" height="64" viewBox="0 0 64 64" version="1.1" xmlns="http://www.w3.org/2000/svg" xmlns:xlink="http://www.w3.org/1999/xlink">
<title>Icon</title>
<desc>Created using Figma</desc>
<g id="Canvas" transform="translate(-19113 -2158)">
<g id="Icon">
<g id="Rectangle 6.4">
<use xlink:href="#path0_fill" transform="translate(19113 2158)" fill="#FFFFFF"/>
</g>
<g id="Vector">
<use xlink:href="#path1_fill" transform="translate(19115.6 2158)" fill="#007CB1"/>
</g>
</g>
</g>
<defs>
<path id="path0_fill" d="M 0 0L 64 0L 64 64L 0 64L 0 0Z"/>
<path id="path1_fill" d="M 16.4976 18.2177L 46.7323 10.7665C 47.6863 10.5318 48.6777 10.4939 49.6466 10.6553C 50.6155 10.8166 51.5419 11.1739 52.3699 11.7054C 53.1979 12.237 53.9104 12.9318 54.4644 13.7481C 55.0183 14.5644 55.4023 15.4851 55.5931 16.4548C 55.6359 16.6661 55.6368 16.8838 55.596 17.0955C 55.5552 17.3071 55.4733 17.5086 55.3552 17.6884C 55.1165 18.0516 54.7442 18.3044 54.3203 18.3913C 53.8964 18.4783 53.4556 18.3921 53.0948 18.1518C 52.734 17.9116 52.4828 17.5369 52.3965 17.1102C 52.2907 16.5746 52.0783 16.0662 51.7721 15.6156C 51.4659 15.1649 51.0721 14.7814 50.6146 14.488C 50.1571 14.1947 49.6453 13.9977 49.1101 13.9088C 48.5749 13.82 48.0274 13.8412 47.5006 13.9711L 17.2723 21.4026C 17.0646 21.4538 16.8488 21.4633 16.6374 21.4306C 16.426 21.3979 16.2231 21.3236 16.0402 21.2119C 15.8573 21.1002 15.6981 20.9534 15.5716 20.7798C 15.4451 20.6062 15.3538 20.4092 15.3029 20.2001C 15.252 19.9909 15.2426 19.7738 15.2751 19.561C 15.3076 19.3482 15.3814 19.1439 15.4924 18.9598C 15.6033 18.7757 15.7492 18.6155 15.9217 18.4881C 16.0941 18.3608 16.2898 18.2689 16.4976 18.2177ZM 37.5395 0.241877C 36.5896 -0.0114056 35.5983 -0.0664864 34.6265 0.0800196C 33.6547 0.226526 32.7229 0.571523 31.8884 1.09381L 5.03913 17.7786C 4.85081 17.8885 4.68632 18.0353 4.55537 18.2103C 4.42442 18.3854 4.32967 18.5851 4.27675 18.7976C 4.22382 19.0101 4.21378 19.2312 4.24723 19.4477C 4.28068 19.6642 4.35693 19.8717 4.47148 20.0581C 4.58602 20.2444 4.73653 20.4057 4.9141 20.5324C 5.09166 20.6591 5.29268 20.7487 5.50526 20.7959C 5.71783 20.843 5.93765 20.8468 6.15169 20.8069C 6.36573 20.7671 6.56965 20.6844 6.75139 20.5638L 33.5942 3.88553C 34.056 3.59878 34.5708 3.40919 35.1074 3.3282C 35.644 3.24721 36.1914 3.2765 36.7164 3.4143C 37.2415 3.55209 37.7334 3.79554 38.1624 4.12996C 38.5915 4.46437 38.9488 4.88281 39.2127 5.36003C 39.3166 5.54807 39.4562 5.71368 39.6237 5.84739C 39.7912 5.9811 39.9832 6.08031 40.1887 6.13933C 40.3942 6.19836 40.6093 6.21606 40.8217 6.19141C 41.034 6.16677 41.2395 6.10027 41.4263 5.99571C 41.6131 5.89115 41.7776 5.75057 41.9104 5.58201C 42.0433 5.41344 42.1418 5.22019 42.2005 5.01329C 42.2591 4.80639 42.2767 4.58989 42.2522 4.37615C 42.2277 4.16241 42.1617 3.95561 42.0578 3.76757C 41.5834 2.90076 40.9378 2.14081 40.1608 1.53449C 39.3838 0.928156 38.4917 0.488266 37.5395 0.241877ZM 38.0408 43.4284C 38.0408 44.9708 37.5864 46.4785 36.7351 47.761C 35.8838 49.0434 34.6738 50.043 33.2582 50.6332C 31.8425 51.2235 30.2847 51.3779 28.7819 51.077C 27.279 50.7761 25.8985 50.0334 24.815 48.9427C 23.7315 47.8521 22.9937 46.4625 22.6947 44.9498C 22.3958 43.437 22.5492 41.869 23.1356 40.444C 23.722 39.019 24.715 37.8011 25.9891 36.9442C 27.2631 36.0873 28.761 35.6299 30.2933 35.6299C 32.3476 35.6316 34.3172 36.4538 35.7697 37.9159C 37.2223 39.3781 38.0391 41.3606 38.0408 43.4284ZM 34.7856 43.4284C 34.7856 42.534 34.5221 41.6598 34.0285 40.9162C 33.5349 40.1726 32.8333 39.593 32.0124 39.2508C 31.1916 38.9085 30.2883 38.819 29.4169 38.9935C 28.5455 39.1679 27.7451 39.5986 27.1168 40.231C 26.4886 40.8634 26.0607 41.6691 25.8874 42.5462C 25.7141 43.4234 25.803 44.3325 26.143 45.1588C 26.4831 45.985 27.0588 46.6912 27.7976 47.1881C 28.5363 47.685 29.4049 47.9502 30.2933 47.9502C 31.4842 47.9484 32.6258 47.4715 33.4679 46.6239C 34.31 45.7762 34.7839 44.6271 34.7856 43.4284ZM 60.5867 30.5445L 60.5867 56.3188C 60.5832 58.2417 59.8228 60.085 58.4719 61.4447C 57.1211 62.8044 55.2899 63.5699 53.3795 63.5733L 7.20712 63.5733C 5.29673 63.5699 3.46557 62.8044 2.11472 61.4447C 0.763869 60.085 0.00344512 58.2417 2.96875e-06 56.3188L 2.96875e-06 30.5445C -0.00172582 28.6181 0.756415 26.7699 2.10783 25.4059C 3.45924 24.0419 5.29335 23.2738 7.20712 23.2703L 53.3795 23.2703C 55.2933 23.2738 57.1274 24.0419 58.4788 25.4059C 59.8302 26.7699 60.5884 28.6181 60.5867 30.5445ZM 57.3314 30.5445C 57.3331 30.0207 57.2322 29.5017 57.0345 29.0172C 56.8367 28.5327 56.546 28.0922 56.1789 27.7209C 55.8119 27.3496 55.3757 27.0548 54.8954 26.8534C 54.415 26.652 53.8999 26.5478 53.3795 26.547L 7.20712 26.547C 6.68675 26.5478 6.17165 26.652 5.6913 26.8534C 5.21095 27.0548 4.77477 27.3496 4.40772 27.7209C 4.04067 28.0922 3.74995 28.5327 3.5522 29.0172C 3.35444 29.5017 3.25354 30.0207 3.25525 30.5445L 3.25525 56.3188C 3.25697 57.3733 3.67388 58.384 4.41463 59.1297C 5.15537 59.8753 6.15955 60.2949 7.20712 60.2967L 53.3795 60.2967C 54.4271 60.2949 55.4313 59.8753 56.172 59.1297C 56.9128 58.384 57.3297 57.3733 57.3314 56.3188L 57.3314 30.5445ZM 54.1868 40.1648L 54.1868 46.7181C 54.1866 47.3518 53.9876 47.9693 53.6182 48.4823C 53.2487 48.9954 52.7277 49.378 52.1295 49.5754C 50.7235 50.0468 49.4617 50.8743 48.4652 51.9783C 47.4687 53.0824 46.771 54.4259 46.4394 55.8797C 46.3581 56.2426 46.1565 56.5669 45.8677 56.7991C 45.579 57.0314 45.2204 57.1578 44.8508 57.1576L 15.7359 57.1576C 15.3663 57.1578 15.0076 57.0314 14.7189 56.7991C 14.4302 56.5669 14.2286 56.2426 14.1473 55.8797C 13.7871 54.2803 12.9845 52.8161 11.8324 51.6565C 10.6804 50.4968 9.22578 49.689 7.63681 49.3264C 7.27628 49.2445 6.95416 49.0416 6.72342 48.751C 6.49269 48.4604 6.36708 48.0994 6.36727 47.7274L 6.36727 39.1294C 6.36708 38.7574 6.49269 38.3964 6.72342 38.1057C 6.95416 37.8151 7.27628 37.6122 7.63681 37.5304C 9.22578 37.1678 10.6804 36.3599 11.8324 35.2003C 12.9845 34.0406 13.7871 32.5765 14.1473 30.977C 14.2286 30.6141 14.4302 30.2899 14.7189 30.0576C 15.0076 29.8254 15.3663 29.6989 15.7359 29.6991L 44.8508 29.6991C 45.224 29.7002 45.5855 29.8304 45.8747 30.0678C 46.1639 30.3053 46.3632 30.6355 46.4394 31.0032C 46.771 32.4571 47.4687 33.8006 48.4652 34.9046C 49.4617 36.0087 50.7235 36.8362 52.1295 37.3076C 52.7277 37.505 53.2487 37.8875 53.6182 38.4006C 53.9876 38.9137 54.1866 39.5311 54.1868 40.1648ZM 50.9316 40.3614C 49.2443 39.7654 47.7118 38.7951 46.4473 37.5224C 45.1829 36.2496 44.219 34.707 43.6268 33.0086L 16.9338 33.0086C 16.344 34.704 15.3839 36.2447 14.1242 37.5172C 12.8645 38.7897 11.3373 39.7616 9.65507 40.3614L 9.65507 46.5019C 11.3421 47.0983 12.8745 48.0688 14.1388 49.3415C 15.4032 50.6142 16.3673 52.1566 16.9598 53.8547L 43.6529 53.8547C 44.2423 52.1591 45.2023 50.6181 46.462 49.3456C 47.7217 48.073 49.2491 47.1012 50.9316 46.5019L 50.9316 40.3614Z"/>
</defs>
</svg>
