<svg width="441" height="194" viewBox="0 0 441 194" version="1.1" xmlns="http://www.w3.org/2000/svg" xmlns:xlink="http://www.w3.org/1999/xlink">
<title>Icon</title>
<desc>Created using Figma</desc>
<g id="Canvas" transform="translate(-19546 914)">
<g id="Icon">
<g id="Group">
<g id="Vector">
<use xlink:href="#path0_fill" transform="translate(19644.6 -880.798)" fill="#FFFFFF"/>
<use xlink:href="#path1_stroke" transform="translate(19644.6 -880.798)" fill="#455A64"/>
</g>
<g id="Vector">
<use xlink:href="#path2_fill" transform="translate(19654.2 -868.975)" fill="#96D67C"/>
<use xlink:href="#path3_stroke" transform="translate(19654.2 -868.975)" fill="#455A64"/>
</g>
<g id="Vector">
<use xlink:href="#path4_fill" transform="translate(19631.7 -734.152)" fill="#FFFFFF"/>
<use xlink:href="#path5_stroke" transform="translate(19631.7 -734.152)" fill="#455A64"/>
</g>
<g id="Vector">
<use xlink:href="#path6_fill" transform="translate(19695.7 -907.521)" fill="#EB5757"/>
<use xlink:href="#path7_stroke" transform="translate(19695.7 -907.521)" fill="#455A64"/>
</g>
<g id="Vector">
<use xlink:href="#path8_fill" transform="translate(19696.2 -874.096)" fill="#FFECB3"/>
<use xlink:href="#path9_stroke" transform="translate(19696.2 -874.096)" fill="#455A64"/>
</g>
<g id="Group">
<g id="Group">
<g id="Vector">
<use xlink:href="#path10_fill" transform="translate(19684.4 -853.363)" fill="#FFECB3"/>
<use xlink:href="#path11_stroke" transform="translate(19684.4 -853.363)" fill="#455A64"/>
</g>
<g id="Vector">
<use xlink:href="#path12_stroke" transform="translate(19698.4 -832.813)" fill="#455A64"/>
</g>
<g id="Vector">
<use xlink:href="#path13_stroke" transform="translate(19698.4 -824.086)" fill="#455A64"/>
</g>
<g id="Vector">
<use xlink:href="#path14_stroke" transform="translate(19698.4 -815.358)" fill="#455A64"/>
</g>
</g>
<g id="Group">
<g id="Vector">
<use xlink:href="#path15_fill" transform="translate(19796.4 -853.523)" fill="#FFECB3"/>
<use xlink:href="#path16_stroke" transform="translate(19796.4 -853.523)" fill="#455A64"/>
</g>
<g id="Vector">
<use xlink:href="#path17_stroke" transform="translate(19805 -832.973)" fill="#455A64"/>
</g>
<g id="Vector">
<use xlink:href="#path18_stroke" transform="translate(19805 -824.245)" fill="#455A64"/>
</g>
<g id="Vector">
<use xlink:href="#path19_stroke" transform="translate(19810.8 -815.518)" fill="#455A64"/>
</g>
</g>
</g>
<g id="Group">
<g id="Vector">
<use xlink:href="#path20_stroke" transform="translate(19779.7 -899.771)" fill="#455A64"/>
</g>
<g id="Vector">
<use xlink:href="#path21_stroke" transform="translate(19779.7 -894.314)" fill="#455A64"/>
</g>
<g id="Vector">
<use xlink:href="#path22_stroke" transform="translate(19779.7 -888.857)" fill="#455A64"/>
</g>
</g>
<g id="Vector">
<use xlink:href="#path23_stroke" transform="translate(19701.2 -902.063)" fill="#455A64"/>
</g>
<g id="Vector">
<use xlink:href="#path24_stroke" transform="translate(19785.8 -803.702)" fill="#455A64"/>
</g>
<g id="Vector">
<use xlink:href="#path25_fill" transform="translate(19755.3 -907.521)" fill="#FFECB3"/>
<use xlink:href="#path26_stroke" transform="translate(19755.3 -907.521)" fill="#455A64"/>
</g>
</g>
<g id="Group">
<g id="Vector">
<use xlink:href="#path27_stroke" transform="translate(19942.5 -723.713)" fill="#455A64"/>
</g>
<g id="Vector">
<use xlink:href="#path28_stroke" transform="translate(19933 -729.093)" fill="#455A64"/>
</g>
</g>
<g id="Group">
<g id="Vector">
<use xlink:href="#path29_stroke" transform="translate(19556.8 -867.566)" fill="#455A64"/>
</g>
<g id="Vector">
<use xlink:href="#path30_stroke" transform="translate(19547.3 -872.945)" fill="#455A64"/>
</g>
</g>
<g id="Group">
<g id="Vector">
<use xlink:href="#path31_stroke" transform="translate(19649.9 -913)" fill="#455A64"/>
</g>
<g id="Vector">
<use xlink:href="#path32_stroke" transform="translate(19645.3 -908.399)" fill="#455A64"/>
</g>
</g>
<g id="Group">
<g id="Vector">
<use xlink:href="#path33_stroke" transform="translate(19904.3 -843.226)" fill="#455A64"/>
</g>
<g id="Vector">
<use xlink:href="#path34_stroke" transform="translate(19899.7 -838.624)" fill="#455A64"/>
</g>
</g>
</g>
</g>
<defs>
<path id="path0_fill" d="M 236.891 -4.15039e-06L -7.32422e-06 -4.15039e-06L -7.32422e-06 146.646L 236.891 146.646L 236.891 -4.15039e-06Z"/>
<path id="path1_stroke" d="M -7.32422e-06 -4.15039e-06L -7.32422e-06 -1C -0.552292 -1 -1.00001 -0.552289 -1.00001 -4.15039e-06L -7.32422e-06 -4.15039e-06ZM 236.891 -4.15039e-06L 237.891 -4.15039e-06C 237.891 -0.552289 237.443 -1 236.891 -1L 236.891 -4.15039e-06ZM 236.891 146.646L 236.891 147.646C 237.443 147.646 237.891 147.198 237.891 146.646L 236.891 146.646ZM -7.32422e-06 146.646L -1.00001 146.646C -1.00001 147.198 -0.552292 147.646 -7.32422e-06 147.646L -7.32422e-06 146.646ZM -7.32422e-06 0.999996L 236.891 0.999996L 236.891 -1L -7.32422e-06 -1L -7.32422e-06 0.999996ZM 235.891 -4.15039e-06L 235.891 146.646L 237.891 146.646L 237.891 -4.15039e-06L 235.891 -4.15039e-06ZM 236.891 145.646L -7.32422e-06 145.646L -7.32422e-06 147.646L 236.891 147.646L 236.891 145.646ZM 0.999993 146.646L 0.999993 -4.15039e-06L -1.00001 -4.15039e-06L -1.00001 146.646L 0.999993 146.646Z"/>
<path id="path2_fill" d="M 217.672 -6.10352e-06L 0 -6.10352e-06L 0 125.728L 217.672 125.728L 217.672 -6.10352e-06Z"/>
<path id="path3_stroke" d="M 0 -6.10352e-06L 0 -1.00001C -0.552285 -1.00001 -1 -0.552291 -1 -6.10352e-06L 0 -6.10352e-06ZM 217.672 -6.10352e-06L 218.672 -6.10352e-06C 218.672 -0.552291 218.224 -1.00001 217.672 -1.00001L 217.672 -6.10352e-06ZM 217.672 125.728L 217.672 126.728C 218.224 126.728 218.672 126.28 218.672 125.728L 217.672 125.728ZM 0 125.728L -1 125.728C -1 126.28 -0.552285 126.728 2.22045e-16 126.728L 0 125.728ZM 0 0.999994L 217.672 0.999994L 217.672 -1.00001L 0 -1.00001L 0 0.999994ZM 216.672 -6.10352e-06L 216.672 125.728L 218.672 125.728L 218.672 -6.10352e-06L 216.672 -6.10352e-06ZM 217.672 124.728L 0 124.728L 0 126.728L 217.672 126.728L 217.672 124.728ZM 1 125.728L 1 -6.10352e-06L -1 -6.10352e-06L -1 125.728L 1 125.728Z"/>
<path id="path4_fill" d="M 262.527 -8.05664e-06L 0 -8.05664e-06L 0 12.819L 262.527 12.819L 262.527 -8.05664e-06Z"/>
<path id="path5_stroke" d="M 0 -8.05664e-06L 0 -1.00001C -0.552285 -1.00001 -1 -0.552293 -1 -8.05664e-06L 0 -8.05664e-06ZM 262.527 -8.05664e-06L 263.527 -8.05664e-06C 263.527 -0.552293 263.079 -1.00001 262.527 -1.00001L 262.527 -8.05664e-06ZM 262.527 12.819L 262.527 13.819C 263.079 13.819 263.527 13.3713 263.527 12.819L 262.527 12.819ZM 0 12.819L -1 12.819C -1 13.3713 -0.552285 13.819 2.22045e-16 13.819L 0 12.819ZM 0 0.999992L 262.527 0.999992L 262.527 -1.00001L 0 -1.00001L 0 0.999992ZM 261.527 -8.05664e-06L 261.527 12.819L 263.527 12.819L 263.527 -8.05664e-06L 261.527 -8.05664e-06ZM 262.527 11.819L 0 11.819L 0 13.819L 262.527 13.819L 262.527 11.819ZM 1 12.819L 1 -8.05664e-06L -1 -8.05664e-06L -1 12.819L 1 12.819Z"/>
<path id="path6_fill" d="M 134.533 3.90625e-06L 0 3.90625e-06L 0 125.207L 134.533 125.207L 134.533 3.90625e-06Z"/>
<path id="path7_stroke" d="M 0 3.90625e-06L 0 -0.999996C -0.552285 -0.999996 -1 -0.552281 -1 3.90625e-06L 0 3.90625e-06ZM 134.533 3.90625e-06L 135.533 3.90625e-06C 135.533 -0.552281 135.085 -0.999996 134.533 -0.999996L 134.533 3.90625e-06ZM 134.533 125.207L 134.533 126.207C 135.085 126.207 135.533 125.759 135.533 125.207L 134.533 125.207ZM 0 125.207L -1 125.207C -1 125.759 -0.552285 126.207 2.22045e-16 126.207L 0 125.207ZM 0 1L 134.533 1L 134.533 -0.999996L 0 -0.999996L 0 1ZM 133.533 3.90625e-06L 133.533 125.207L 135.533 125.207L 135.533 3.90625e-06L 133.533 3.90625e-06ZM 134.533 124.207L 0 124.207L 0 126.207L 134.533 126.207L 134.533 124.207ZM 1 125.207L 1 3.90625e-06L -1 3.90625e-06L -1 125.207L 1 125.207Z"/>
<path id="path8_fill" d="M 134.078 6.95801e-06L 3.54004e-06 6.95801e-06L 3.54004e-06 15.916L 134.078 15.916L 134.078 6.95801e-06Z"/>
<path id="path9_stroke" d="M 3.54004e-06 6.95801e-06L 3.54004e-06 -0.999993C -0.552281 -0.999993 -0.999996 -0.552278 -0.999996 6.95801e-06L 3.54004e-06 6.95801e-06ZM 134.078 6.95801e-06L 135.078 6.95801e-06C 135.078 -0.552278 134.63 -0.999993 134.078 -0.999993L 134.078 6.95801e-06ZM 134.078 15.916L 134.078 16.916C 134.63 16.916 135.078 16.4683 135.078 15.916L 134.078 15.916ZM 3.54004e-06 15.916L -0.999996 15.916C -0.999996 16.4683 -0.552281 16.916 3.54004e-06 16.916L 3.54004e-06 15.916ZM 3.54004e-06 1.00001L 134.078 1.00001L 134.078 -0.999993L 3.54004e-06 -0.999993L 3.54004e-06 1.00001ZM 133.078 6.95801e-06L 133.078 15.916L 135.078 15.916L 135.078 6.95801e-06L 133.078 6.95801e-06ZM 134.078 14.916L 3.54004e-06 14.916L 3.54004e-06 16.916L 134.078 16.916L 134.078 14.916ZM 1 15.916L 1 6.95801e-06L -0.999996 6.95801e-06L -0.999996 15.916L 1 15.916Z"/>
<path id="path10_fill" d="M 45.152 24.485C 44.936 22.216 42.901 20.55 40.621 20.55L 36.564 20.55C 39.115 20.55 41.155 18.36 40.907 15.758C 40.69 13.489 38.655 11.823 36.376 11.823L 11.217 11.823L 11.217 -6.5918e-06L 1.713 10.018C 0.613004 11.177 6.22559e-06 12.714 6.22559e-06 14.311L 6.22559e-06 20.55L 6.22559e-06 29.277L 6.22559e-06 38.005L 6.22559e-06 40.495C 6.22559e-06 43.939 2.793 46.732 6.238 46.732L 30.616 46.732C 32.895 46.732 34.93 45.066 35.147 42.797C 35.395 40.194 33.355 38.004 30.804 38.004L 36.377 38.004C 38.656 38.004 40.691 36.338 40.908 34.069C 41.156 31.466 39.116 29.276 36.565 29.276L 40.809 29.276C 43.36 29.277 45.4 27.088 45.152 24.485Z"/>
<path id="path11_stroke" d="M 45.152 24.485L 44.1565 24.5798L 44.1565 24.5798L 45.152 24.485ZM 36.564 19.55C 36.0117 19.55 35.564 19.9977 35.564 20.55C 35.564 21.1023 36.0117 21.55 36.564 21.55L 36.564 19.55ZM 40.907 15.758L 41.9025 15.6631L 41.9025 15.6628L 40.907 15.758ZM 11.217 11.823L 10.217 11.823C 10.217 12.3753 10.6647 12.823 11.217 12.823L 11.217 11.823ZM 11.217 -6.5918e-06L 12.217 -6.5918e-06C 12.217 -0.409265 11.9676 -0.777216 11.5875 -0.928843C 11.2074 -1.08047 10.7732 -0.985163 10.4915 -0.688257L 11.217 -6.5918e-06ZM 1.713 10.018L 2.43833 10.7064L 2.43848 10.7062L 1.713 10.018ZM 35.147 42.797L 36.1425 42.8922L 36.1425 42.8918L 35.147 42.797ZM 30.804 37.004C 30.2517 37.004 29.804 37.4517 29.804 38.004C 29.804 38.5563 30.2517 39.004 30.804 39.004L 30.804 37.004ZM 40.908 34.069L 41.9035 34.1642L 41.9035 34.1638L 40.908 34.069ZM 36.565 28.276C 36.0127 28.276 35.565 28.7237 35.565 29.276C 35.565 29.8283 36.0127 30.276 36.565 30.276L 36.565 28.276ZM 40.809 29.276L 40.8094 28.276L 40.809 28.276L 40.809 29.276ZM 46.1475 24.3902C 45.8773 21.5521 43.3585 19.55 40.621 19.55L 40.621 21.55C 42.4435 21.55 43.9947 22.8799 44.1565 24.5798L 46.1475 24.3902ZM 40.621 19.55L 36.564 19.55L 36.564 21.55L 40.621 21.55L 40.621 19.55ZM 36.564 21.55C 39.6994 21.55 42.207 18.8576 41.9025 15.6631L 39.9115 15.8529C 40.103 17.8624 38.5306 19.55 36.564 19.55L 36.564 21.55ZM 41.9025 15.6628C 41.6311 12.8253 39.1127 10.823 36.376 10.823L 36.376 12.823C 38.1973 12.823 39.7489 14.1527 39.9115 15.8532L 41.9025 15.6628ZM 36.376 10.823L 11.217 10.823L 11.217 12.823L 36.376 12.823L 36.376 10.823ZM 12.217 11.823L 12.217 -6.5918e-06L 10.217 -6.5918e-06L 10.217 11.823L 12.217 11.823ZM 10.4915 -0.688257L 0.98753 9.32975L 2.43848 10.7062L 11.9425 0.688244L 10.4915 -0.688257ZM 0.987676 9.32959C -0.288704 10.6744 -0.999994 12.4579 -0.999994 14.311L 1.00001 14.311C 1.00001 12.9701 1.51471 11.6796 2.43833 10.7064L 0.987676 9.32959ZM -0.999994 14.311L -0.999994 20.55L 1.00001 20.55L 1.00001 14.311L -0.999994 14.311ZM -0.999994 20.55L -0.999994 29.277L 1.00001 29.277L 1.00001 20.55L -0.999994 20.55ZM -0.999994 29.277L -0.999994 38.005L 1.00001 38.005L 1.00001 29.277L -0.999994 29.277ZM -0.999994 38.005L -0.999994 40.495L 1.00001 40.495L 1.00001 38.005L -0.999994 38.005ZM -0.999994 40.495C -0.999994 44.4914 2.24082 47.732 6.238 47.732L 6.238 45.732C 3.34518 45.732 1.00001 43.3866 1.00001 40.495L -0.999994 40.495ZM 6.238 47.732L 30.616 47.732L 30.616 45.732L 6.238 45.732L 6.238 47.732ZM 30.616 47.732C 33.3527 47.732 35.8711 45.7297 36.1425 42.8922L 34.1515 42.7018C 33.9889 44.4023 32.4373 45.732 30.616 45.732L 30.616 47.732ZM 36.1425 42.8918C 36.4469 39.6965 33.9395 37.004 30.804 37.004L 30.804 39.004C 32.7705 39.004 34.3431 40.6914 34.1515 42.7021L 36.1425 42.8918ZM 30.804 39.004L 36.377 39.004L 36.377 37.004L 30.804 37.004L 30.804 39.004ZM 36.377 39.004C 39.1137 39.004 41.6321 37.0017 41.9035 34.1642L 39.9125 33.9738C 39.7499 35.6743 38.1983 37.004 36.377 37.004L 36.377 39.004ZM 41.9035 34.1638C 42.2079 30.9685 39.7005 28.276 36.565 28.276L 36.565 30.276C 38.5315 30.276 40.1041 31.9634 39.9125 33.9741L 41.9035 34.1638ZM 36.565 30.276L 40.809 30.276L 40.809 28.276L 36.565 28.276L 36.565 30.276ZM 40.8086 30.276C 43.9443 30.2772 46.4519 27.5856 46.1475 24.3902L 44.1565 24.5798C 44.3481 26.5904 42.7757 28.2768 40.8094 28.276L 40.8086 30.276Z"/>
<path id="path12_stroke" d="M 22.618 0.999996C 23.1703 0.999996 23.618 0.552281 23.618 -3.54004e-06C 23.618 -0.552288 23.1703 -1 22.618 -1L 22.618 0.999996ZM 5.37109e-06 -1C -0.552279 -1 -0.999995 -0.552288 -0.999995 -3.54004e-06C -0.999995 0.552281 -0.552279 0.999996 5.37109e-06 0.999996L 5.37109e-06 -1ZM 22.618 -1L 5.37109e-06 -1L 5.37109e-06 0.999996L 22.618 0.999996L 22.618 -1Z"/>
<path id="path13_stroke" d="M 22.618 1C 23.1703 1 23.618 0.552285 23.618 0C 23.618 -0.552285 23.1703 -1 22.618 -1L 22.618 1ZM 5.37109e-06 -1C -0.552279 -1 -0.999995 -0.552285 -0.999995 0C -0.999995 0.552285 -0.552279 1 5.37109e-06 1L 5.37109e-06 -1ZM 22.618 -1L 5.37109e-06 -1L 5.37109e-06 1L 22.618 1L 22.618 -1Z"/>
<path id="path14_stroke" d="M 16.858 1C 17.4103 1 17.858 0.552285 17.858 0C 17.858 -0.552285 17.4103 -1 16.858 -1L 16.858 1ZM 5.37109e-06 -1C -0.552279 -1 -0.999995 -0.552285 -0.999995 0C -0.999995 0.552285 -0.552279 1 5.37109e-06 1L 5.37109e-06 -1ZM 16.858 -1L 5.37109e-06 -1L 5.37109e-06 1L 16.858 1L 16.858 -1Z"/>
<path id="path15_fill" d="M 0.0204538 24.485C 0.236454 22.216 2.27245 20.55 4.55045 20.55L 8.60847 20.55C 6.05647 20.55 4.01644 18.361 4.26444 15.758C 4.48144 13.489 6.51645 11.823 8.79545 11.823L 33.9535 11.823L 33.9535 5.00488e-06L 43.4584 10.019C 44.5584 11.178 45.1715 12.714 45.1715 14.312L 45.1715 20.551L 45.1715 29.279L 45.1715 38.007L 45.1715 40.496C 45.1715 43.941 42.3784 46.734 38.9334 46.734L 14.5555 46.734C 12.2765 46.734 10.2415 45.068 10.0255 42.798C 9.77646 40.195 11.8164 38.006 14.3684 38.006L 8.79645 38.006C 6.51745 38.006 4.48245 36.34 4.26545 34.071C 4.01745 31.467 6.05744 29.278 8.60944 29.278L 4.36445 29.278C 1.81245 29.278 -0.227546 27.088 0.0204538 24.485Z"/>
<path id="path16_stroke" d="M 0.0204538 24.485L 1.01595 24.5799L 1.01595 24.5798L 0.0204538 24.485ZM 8.60847 21.55C 9.16075 21.55 9.60847 21.1023 9.60847 20.55C 9.60847 19.9977 9.16075 19.55 8.60847 19.55L 8.60847 21.55ZM 4.26444 15.758L 3.26898 15.6628L 3.26895 15.6632L 4.26444 15.758ZM 33.9535 11.823L 33.9535 12.823C 34.5058 12.823 34.9535 12.3753 34.9535 11.823L 33.9535 11.823ZM 33.9535 5.00488e-06L 34.6789 -0.688247C 34.3973 -0.985152 33.9631 -1.08046 33.583 -0.928831C 33.2028 -0.777204 32.9535 -0.409253 32.9535 5.00488e-06L 33.9535 5.00488e-06ZM 43.4584 10.019L 42.733 10.7073L 42.7331 10.7074L 43.4584 10.019ZM 10.0255 42.798L 11.021 42.7033L 11.0209 42.7028L 10.0255 42.798ZM 14.3684 39.006C 14.9207 39.006 15.3684 38.5583 15.3684 38.006C 15.3684 37.4537 14.9207 37.006 14.3684 37.006L 14.3684 39.006ZM 4.26545 34.071L 3.26995 34.1658L 3.26999 34.1662L 4.26545 34.071ZM 8.60944 30.278C 9.16173 30.278 9.60944 29.8303 9.60944 29.278C 9.60944 28.7257 9.16173 28.278 8.60944 28.278L 8.60944 30.278ZM 1.01595 24.5798C 1.17778 22.8799 2.72993 21.55 4.55045 21.55L 4.55045 19.55C 1.81497 19.55 -0.704869 21.5521 -0.975046 24.3902L 1.01595 24.5798ZM 4.55045 21.55L 8.60847 21.55L 8.60847 19.55L 4.55045 19.55L 4.55045 21.55ZM 8.60847 19.55C 6.64055 19.55 5.06841 17.8631 5.25993 15.8528L 3.26895 15.6632C 2.96448 18.8589 5.47239 21.55 8.60847 21.55L 8.60847 19.55ZM 5.2599 15.8532C 5.42253 14.1527 6.97417 12.823 8.79545 12.823L 8.79545 10.823C 6.05872 10.823 3.54036 12.8253 3.26898 15.6628L 5.2599 15.8532ZM 8.79545 12.823L 33.9535 12.823L 33.9535 10.823L 8.79545 10.823L 8.79545 12.823ZM 34.9535 11.823L 34.9535 5.00488e-06L 32.9535 5.00488e-06L 32.9535 11.823L 34.9535 11.823ZM 33.228 0.688257L 42.733 10.7073L 44.1839 9.33075L 34.6789 -0.688247L 33.228 0.688257ZM 42.7331 10.7074C 43.6568 11.6806 44.1715 12.9702 44.1715 14.312L 46.1715 14.312C 46.1715 12.4578 45.4601 10.6754 44.1838 9.3306L 42.7331 10.7074ZM 44.1715 14.312L 44.1715 20.551L 46.1715 20.551L 46.1715 14.312L 44.1715 14.312ZM 44.1715 20.551L 44.1715 29.279L 46.1715 29.279L 46.1715 20.551L 44.1715 20.551ZM 44.1715 29.279L 44.1715 38.007L 46.1715 38.007L 46.1715 29.279L 44.1715 29.279ZM 44.1715 38.007L 44.1715 40.496L 46.1715 40.496L 46.1715 38.007L 44.1715 38.007ZM 44.1715 40.496C 44.1715 43.3887 41.8262 45.734 38.9334 45.734L 38.9334 47.734C 42.9307 47.734 46.1715 44.4933 46.1715 40.496L 44.1715 40.496ZM 38.9334 45.734L 14.5555 45.734L 14.5555 47.734L 38.9334 47.734L 38.9334 45.734ZM 14.5555 45.734C 12.7342 45.734 11.1828 44.4044 11.021 42.7033L 9.02995 42.8927C 9.30009 45.7316 11.8187 47.734 14.5555 47.734L 14.5555 45.734ZM 11.0209 42.7028C 10.8286 40.6928 12.4005 39.006 14.3684 39.006L 14.3684 37.006C 11.2324 37.006 8.72427 39.6971 9.03 42.8932L 11.0209 42.7028ZM 14.3684 37.006L 8.79645 37.006L 8.79645 39.006L 14.3684 39.006L 14.3684 37.006ZM 8.79645 37.006C 6.97518 37.006 5.42353 35.6763 5.26091 33.9758L 3.26999 34.1662C 3.54136 37.0037 6.05973 39.006 8.79645 39.006L 8.79645 37.006ZM 5.26094 33.9762C 5.06938 31.9647 6.6417 30.278 8.60944 30.278L 8.60944 28.278C 5.47319 28.278 2.96552 30.9693 3.26995 34.1658L 5.26094 33.9762ZM 8.60944 28.278L 4.36445 28.278L 4.36445 30.278L 8.60944 30.278L 8.60944 28.278ZM 4.36445 28.278C 2.39682 28.278 0.82439 26.5904 1.01595 24.5799L -0.975038 24.3902C -1.27948 27.5856 1.22807 30.278 4.36445 30.278L 4.36445 28.278Z"/>
<path id="path17_stroke" d="M 1.36719e-05 -1.00001C -0.552271 -1.00001 -0.999986 -0.552292 -0.999986 -7.20215e-06C -0.999986 0.552278 -0.552271 0.999993 1.36719e-05 0.999993L 1.36719e-05 -1.00001ZM 22.617 0.999993C 23.1693 0.999993 23.617 0.552278 23.617 -7.20215e-06C 23.617 -0.552292 23.1693 -1.00001 22.617 -1.00001L 22.617 0.999993ZM 1.36719e-05 0.999993L 22.617 0.999993L 22.617 -1.00001L 1.36719e-05 -1.00001L 1.36719e-05 0.999993Z"/>
<path id="path18_stroke" d="M 1.36719e-05 -0.999995C -0.552271 -0.999995 -0.999986 -0.55228 -0.999986 4.88281e-06C -0.999986 0.55229 -0.552271 1 1.36719e-05 1L 1.36719e-05 -0.999995ZM 22.617 1C 23.1693 1 23.617 0.55229 23.617 4.88281e-06C 23.617 -0.55228 23.1693 -0.999995 22.617 -0.999995L 22.617 1ZM 1.36719e-05 1L 22.617 1L 22.617 -0.999995L 1.36719e-05 -0.999995L 1.36719e-05 1Z"/>
<path id="path19_stroke" d="M -7.08008e-06 -1.00001C -0.552292 -1.00001 -1.00001 -0.55229 -1.00001 -5.37109e-06C -1.00001 0.552279 -0.552292 0.999995 -7.08008e-06 0.999995L -7.08008e-06 -1.00001ZM 16.857 0.999995C 17.4093 0.999995 17.857 0.552279 17.857 -5.37109e-06C 17.857 -0.55229 17.4093 -1.00001 16.857 -1.00001L 16.857 0.999995ZM -7.08008e-06 0.999995L 16.857 0.999995L 16.857 -1.00001L -7.08008e-06 -1.00001L -7.08008e-06 0.999995Z"/>
<path id="path20_stroke" d="M 1.12305e-05 -0.999996C -0.552274 -0.999996 -0.999989 -0.552281 -0.999989 3.90625e-06C -0.999989 0.552289 -0.552274 1 1.12305e-05 1L 1.12305e-05 -0.999996ZM 40.624 1C 41.1763 1 41.624 0.552289 41.624 3.90625e-06C 41.624 -0.552281 41.1763 -0.999996 40.624 -0.999996L 40.624 1ZM 1.12305e-05 1L 40.624 1L 40.624 -0.999996L 1.12305e-05 -0.999996L 1.12305e-05 1Z"/>
<path id="path21_stroke" d="M 1.12305e-05 -0.999995C -0.552274 -0.999995 -0.999989 -0.55228 -0.999989 4.63867e-06C -0.999989 0.552289 -0.552274 1 1.12305e-05 1L 1.12305e-05 -0.999995ZM 40.624 1C 41.1763 1 41.624 0.552289 41.624 4.63867e-06C 41.624 -0.55228 41.1763 -0.999995 40.624 -0.999995L 40.624 1ZM 1.12305e-05 1L 40.624 1L 40.624 -0.999995L 1.12305e-05 -0.999995L 1.12305e-05 1Z"/>
<path id="path22_stroke" d="M 1.12305e-05 -0.999995C -0.552274 -0.999995 -0.999989 -0.552279 -0.999989 5.37109e-06C -0.999989 0.55229 -0.552274 1.00001 1.12305e-05 1.00001L 1.12305e-05 -0.999995ZM 26.458 1.00001C 27.0103 1.00001 27.458 0.55229 27.458 5.37109e-06C 27.458 -0.552279 27.0103 -0.999995 26.458 -0.999995L 26.458 1.00001ZM 1.12305e-05 1.00001L 26.458 1.00001L 26.458 -0.999995L 1.12305e-05 -0.999995L 1.12305e-05 1.00001Z"/>
<path id="path23_stroke" d="M 38.703 0.999996C 39.2553 0.999996 39.703 0.552281 39.703 -3.54004e-06C 39.703 -0.552288 39.2553 -1 38.703 -1L 38.703 0.999996ZM 2.44141e-06 -3.54004e-06L 2.44141e-06 -1C -0.552282 -1 -0.999998 -0.552288 -0.999998 -3.54004e-06L 2.44141e-06 -3.54004e-06ZM -0.999998 15.631C -0.999998 16.1833 -0.552282 16.631 2.44141e-06 16.631C 0.552287 16.631 1 16.1833 1 15.631L -0.999998 15.631ZM 38.703 -1L 2.44141e-06 -1L 2.44141e-06 0.999996L 38.703 0.999996L 38.703 -1ZM -0.999998 -3.54004e-06L -0.999998 15.631L 1 15.631L 1 -3.54004e-06L -0.999998 -3.54004e-06Z"/>
<path id="path24_stroke" d="M 5.12695e-06 14.631C -0.55228 14.631 -0.999995 15.0787 -0.999995 15.631C -0.999995 16.1833 -0.55228 16.631 5.12695e-06 16.631L 5.12695e-06 14.631ZM 38.702 15.631L 38.702 16.631C 39.2543 16.631 39.702 16.1833 39.702 15.631L 38.702 15.631ZM 39.702 4.15039e-06C 39.702 -0.552281 39.2543 -0.999996 38.702 -0.999996C 38.1497 -0.999996 37.702 -0.552281 37.702 4.15039e-06L 39.702 4.15039e-06ZM 5.12695e-06 16.631L 38.702 16.631L 38.702 14.631L 5.12695e-06 14.631L 5.12695e-06 16.631ZM 39.702 15.631L 39.702 4.15039e-06L 37.702 4.15039e-06L 37.702 15.631L 39.702 15.631Z"/>
<path id="path25_fill" d="M 15.916 3.90625e-06L 4.27246e-06 3.90625e-06L 4.27246e-06 125.207L 15.916 125.207L 15.916 3.90625e-06Z"/>
<path id="path26_stroke" d="M 4.27246e-06 3.90625e-06L 4.27246e-06 -0.999996C -0.55228 -0.999996 -0.999996 -0.552281 -0.999996 3.90625e-06L 4.27246e-06 3.90625e-06ZM 15.916 3.90625e-06L 16.916 3.90625e-06C 16.916 -0.552281 16.4683 -0.999996 15.916 -0.999996L 15.916 3.90625e-06ZM 15.916 125.207L 15.916 126.207C 16.4683 126.207 16.916 125.759 16.916 125.207L 15.916 125.207ZM 4.27246e-06 125.207L -0.999996 125.207C -0.999996 125.759 -0.55228 126.207 4.27246e-06 126.207L 4.27246e-06 125.207ZM 4.27246e-06 1L 15.916 1L 15.916 -0.999996L 4.27246e-06 -0.999996L 4.27246e-06 1ZM 14.916 3.90625e-06L 14.916 125.207L 16.916 125.207L 16.916 3.90625e-06L 14.916 3.90625e-06ZM 15.916 124.207L 4.27246e-06 124.207L 4.27246e-06 126.207L 15.916 126.207L 15.916 124.207ZM 1 125.207L 1 3.90625e-06L -0.999996 3.90625e-06L -0.999996 125.207L 1 125.207Z"/>
<path id="path27_stroke" d="M -7.08008e-06 -1.00001C -0.552292 -1.00001 -1.00001 -0.552291 -1.00001 -6.5918e-06C -1.00001 0.552278 -0.552292 0.999993 -7.08008e-06 0.999993L -7.08008e-06 -1.00001ZM 42.956 0.999993C 43.5083 0.999993 43.956 0.552278 43.956 -6.5918e-06C 43.956 -0.552291 43.5083 -1.00001 42.956 -1.00001L 42.956 0.999993ZM -7.08008e-06 0.999993L 42.956 0.999993L 42.956 -1.00001L -7.08008e-06 -1.00001L -7.08008e-06 0.999993Z"/>
<path id="path28_stroke" d="M 1.31836e-05 -1.00001C -0.552272 -1.00001 -0.999987 -0.552296 -0.999987 -1.14746e-05C -0.999987 0.552273 -0.552272 0.999988 1.31836e-05 0.999988L 1.31836e-05 -1.00001ZM 35.88 0.999988C 36.4323 0.999988 36.88 0.552273 36.88 -1.14746e-05C 36.88 -0.552296 36.4323 -1.00001 35.88 -1.00001L 35.88 0.999988ZM 1.31836e-05 0.999988L 35.88 0.999988L 35.88 -1.00001L 1.31836e-05 -1.00001L 1.31836e-05 0.999988Z"/>
<path id="path29_stroke" d="M 1.43433e-06 -1C -0.552283 -1 -0.999999 -0.552288 -0.999999 -3.41797e-06C -0.999999 0.552281 -0.552283 0.999997 1.43433e-06 0.999997L 1.43433e-06 -1ZM 42.956 0.999997C 43.5083 0.999997 43.956 0.552281 43.956 -3.41797e-06C 43.956 -0.552288 43.5083 -1 42.956 -1L 42.956 0.999997ZM 1.43433e-06 0.999997L 42.956 0.999997L 42.956 -1L 1.43433e-06 -1L 1.43433e-06 0.999997Z"/>
<path id="path30_stroke" d="M -1.19019e-06 -1C -0.552286 -1 -1 -0.552286 -1 -1.2207e-06C -1 0.552284 -0.552286 0.999999 -1.19019e-06 0.999999L -1.19019e-06 -1ZM 35.881 0.999999C 36.4333 0.999999 36.881 0.552284 36.881 -1.2207e-06C 36.881 -0.552286 36.4333 -1 35.881 -1L 35.881 0.999999ZM -1.19019e-06 0.999999L 35.881 0.999999L 35.881 -1L -1.19019e-06 -1L -1.19019e-06 0.999999Z"/>
<path id="path31_stroke" d="M 0.999993 6.10352e-06C 0.999993 -0.552279 0.552278 -0.999994 -6.5918e-06 -0.999994C -0.552291 -0.999994 -1.00001 -0.552279 -1.00001 6.10352e-06L 0.999993 6.10352e-06ZM -1.00001 9.20299C -1.00001 9.75528 -0.552291 10.203 -6.5918e-06 10.203C 0.552278 10.203 0.999993 9.75528 0.999993 9.20299L -1.00001 9.20299ZM -1.00001 6.10352e-06L -1.00001 9.20299L 0.999993 9.20299L 0.999993 6.10352e-06L -1.00001 6.10352e-06Z"/>
<path id="path32_stroke" d="M 3.66211e-06 -0.999996C -0.552281 -0.999996 -0.999996 -0.552281 -0.999996 4.02832e-06C -0.999996 0.552289 -0.552281 1 3.66211e-06 1L 3.66211e-06 -0.999996ZM 9.20301 1C 9.75529 1 10.203 0.552289 10.203 4.02832e-06C 10.203 -0.552281 9.75529 -0.999996 9.20301 -0.999996L 9.20301 1ZM 3.66211e-06 1L 9.20301 1L 9.20301 -0.999996L 3.66211e-06 -0.999996L 3.66211e-06 1Z"/>
<path id="path33_stroke" d="M 1.00001 -7.08008e-06C 1.00001 -0.552292 0.55229 -1.00001 5.61523e-06 -1.00001C -0.552279 -1.00001 -0.999994 -0.552292 -0.999994 -7.08008e-06L 1.00001 -7.08008e-06ZM -0.999994 9.203C -0.999994 9.75528 -0.552279 10.203 5.61523e-06 10.203C 0.55229 10.203 1.00001 9.75528 1.00001 9.203L -0.999994 9.203ZM -0.999994 -7.08008e-06L -0.999994 9.203L 1.00001 9.203L 1.00001 -7.08008e-06L -0.999994 -7.08008e-06Z"/>
<path id="path34_stroke" d="M -7.56836e-06 -1C -0.552292 -1 -1.00001 -0.552287 -1.00001 -2.0752e-06C -1.00001 0.552283 -0.552292 0.999998 -7.56836e-06 0.999998L -7.56836e-06 -1ZM 9.20199 0.999998C 9.75427 0.999998 10.202 0.552283 10.202 -2.0752e-06C 10.202 -0.552287 9.75427 -1 9.20199 -1L 9.20199 0.999998ZM -7.56836e-06 0.999998L 9.20199 0.999998L 9.20199 -1L -7.56836e-06 -1L -7.56836e-06 0.999998Z"/>
</defs>
</svg>
