<svg width="64" height="64" viewBox="0 0 64 64" version="1.1" xmlns="http://www.w3.org/2000/svg" xmlns:xlink="http://www.w3.org/1999/xlink">
<title>Icon</title>
<desc>Created using Figma</desc>
<g id="Canvas" transform="translate(-19755 -2158)">
<g id="Icon">
<g id="Rectangle 6.3">
<use xlink:href="#path0_fill" transform="translate(19755 2158)" fill="#FFFFFF"/>
</g>
<g id="Vector">
<use xlink:href="#path1_fill" transform="translate(19780.3 2177.03)" fill="#007CB1"/>
</g>
<g id="Vector">
<use xlink:href="#path2_fill" transform="translate(19755.4 2168.67)" fill="#007CB1"/>
</g>
</g>
</g>
<defs>
<path id="path0_fill" d="M 0 0L 64 0L 64 64L 0 64L 0 0Z"/>
<path id="path1_fill" d="M 8.62412 10.5959C 5.99576 9.60403 4.91501 8.95274 4.91501 7.93099C 4.91501 7.06261 5.56465 6.19422 7.57317 6.19422C 9.80023 6.19422 11.2227 6.90725 12.0253 7.24784L 12.9213 3.74641C 11.9021 3.24848 10.5095 2.81827 8.43936 2.72466L 8.43936 3.03911e-08L 5.41168 3.03911e-08L 5.41168 2.94375C 2.10388 3.59504 0.186747 5.73214 0.186747 8.4588C 0.186747 11.4643 2.4436 13.0138 5.7514 14.1292C 8.04004 14.904 9.02741 15.6489 9.02741 16.826C 9.02741 18.0648 7.82151 18.746 6.05933 18.746C 4.04883 18.746 2.22705 18.0947 0.927774 17.3837L 2.72827e-07 21.0086C 1.17611 21.6897 3.18264 22.2474 5.25473 22.341L 5.25473 25.2828L 8.2844 25.2828L 8.2844 22.1239C 11.8385 21.5025 13.7855 19.1483 13.7855 16.3918C 13.7855 13.6014 12.2995 11.8985 8.62412 10.5959Z"/>
<path id="path2_fill" d="M 63.5733 38.0497L 58.6067 38.0497L 58.6067 3.49346C 58.6067 1.56748 57.0471 2.65922e-07 55.13 2.65922e-07L 8.44333 2.65922e-07C 6.5262 2.65922e-07 4.96667 1.56748 4.96667 3.49346L 4.96667 38.0497L 0 38.0497L 0 40.1569L 3.17867 44.3733L 60.3947 44.3733L 63.5733 40.1569L 63.5733 38.0497ZM 8.94 3.98342L 54.6333 3.98342L 54.6333 38.0497L 8.94 38.0497L 8.94 3.98342Z"/>
</defs>
</svg>
