<svg width="64" height="64" viewBox="0 0 64 64" version="1.1" xmlns="http://www.w3.org/2000/svg" xmlns:xlink="http://www.w3.org/1999/xlink">
<title>Icon</title>
<desc>Created using Figma</desc>
<g id="Canvas" transform="translate(-18792 -2158)">
<g id="Icon">
<g id="Rectangle 6.1">
<use xlink:href="#path0_fill" transform="translate(18792 2158)" fill="#FFFFFF"/>
</g>
<g id="Vector">
<use xlink:href="#path1_fill" transform="translate(18815.9 2208.8)" fill="#007CB1"/>
</g>
<g id="Vector">
<use xlink:href="#path2_fill" transform="translate(18799.1 2166.53)" fill="#007CB1"/>
</g>
<g id="Vector">
<use xlink:href="#path3_fill" transform="translate(18792 2175.88)" fill="#007CB1"/>
</g>
</g>
</g>
<defs>
<path id="path0_fill" d="M 0 0L 63.9999 0L 63.9999 64L 0 64L 0 0Z"/>
<path id="path1_fill" d="M 22.7256 5.60894L 19.5561 5.60894C 19.219 5.60894 18.9492 5.40862 18.8818 5.07475L 17.3982 -1.01888e-06L 6.06915 -1.01888e-06L 4.58558 5.07475C 4.51815 5.40862 4.18097 5.60894 3.91123 5.60894L 0.741785 5.60894C 0.337175 5.60894 1.02898e-06 5.9428 1.02898e-06 6.34344L 1.02898e-06 7.34503C 1.02898e-06 7.74567 0.337175 8.07954 0.741785 8.07954L 22.793 8.07954C 23.1976 8.07954 23.5348 7.74567 23.5348 7.34503L 23.5348 6.34344C 23.4674 5.9428 23.1302 5.60894 22.7256 5.60894Z"/>
<path id="path2_fill" d="M 55.2293 0L 1.82074 0C 0.80922 0 0.0674352 0.801276 0.0674352 1.7361L 0.0674352 7.21149C 0.67435 7.07794 1.28127 7.07794 1.88818 7.07794C 2.49509 7.07794 3.10201 7.14472 3.70892 7.21149L 3.70892 3.60575L 53.4085 3.60575L 53.4085 32.652L 3.64149 32.652L 3.64149 29.1131C 3.03457 29.2466 2.42766 29.2466 1.82074 29.2466C 1.21383 29.2466 0.606915 29.1798 0 29.1131L 0 38.528C 0 39.5296 0.80922 40.2641 1.75331 40.2641L 55.1618 40.2641C 56.1733 40.2641 56.9151 39.4629 56.9151 38.528L 56.9151 1.80287C 56.9826 0.801277 56.1733 0 55.2293 0ZM 28.525 37.9939C 27.7158 37.9939 27.0414 37.3261 27.0414 36.5249C 27.0414 35.7236 27.7158 35.0559 28.525 35.0559C 29.3342 35.0559 30.0086 35.7236 30.0086 36.5249C 30.0086 37.3261 29.3342 37.9939 28.525 37.9939Z"/>
<path id="path3_fill" d="M 17.8703 8.81404C 17.8703 3.93961 13.8916 -5.09438e-07 8.96885 -5.09438e-07C 4.0461 -5.09438e-07 0 3.93961 0 8.81404C 0 13.6885 3.97866 17.6281 8.90142 17.6281C 13.8242 17.6281 17.8703 13.6885 17.8703 8.81404ZM 7.95733 14.6233L 7.95733 13.6217C 7.14811 13.3546 6.40632 12.8872 6.00171 12.5533C 5.79941 12.4198 5.79941 12.0859 5.93428 11.8856L 6.60863 11.2179C 6.7435 11.0843 7.01324 11.0176 7.21554 11.1511C 7.62015 11.485 8.2945 11.8856 8.90142 11.8856C 10.1152 11.8856 10.1152 11.2179 10.1152 10.9508C 10.1152 10.5501 9.98038 10.2163 8.69911 9.68209C 6.81093 9.01436 5.86684 7.94599 5.86684 6.61053C 5.86684 5.34185 6.67606 4.34025 7.95733 4.00638L 7.95733 3.07156C 7.95733 2.87124 8.15963 2.67092 8.36194 2.67092L 9.37346 2.67092C 9.57577 2.67092 9.77807 2.87124 9.77807 3.07156L 9.77807 3.93961C 10.4524 4.07316 11.0593 4.40702 11.3965 4.67411C 11.5988 4.80766 11.6663 5.14153 11.4639 5.34184L 10.7896 6.00957C 10.6547 6.14312 10.385 6.2099 10.1827 6.07635C 9.91294 5.87603 9.4409 5.67571 8.96885 5.67571C 8.69911 5.67571 7.75502 5.74248 7.75502 6.61053C 7.75502 6.87763 7.75502 7.41181 9.37346 7.94599C 10.1827 8.21309 12.0709 8.88082 12.0709 10.9508C 12.0709 12.4198 11.1942 13.4214 9.71064 13.6885L 9.71064 14.5565C 9.71064 14.7568 9.50833 14.9572 9.30603 14.9572L 8.2945 14.9572C 8.0922 14.9572 7.95733 14.8236 7.95733 14.6233Z"/>
</defs>
</svg>
