<svg width="56" height="47" viewBox="0 0 56 47" version="1.1" xmlns="http://www.w3.org/2000/svg" xmlns:xlink="http://www.w3.org/1999/xlink">
<title>noun_1379391_cc</title>
<desc>Created using Figma</desc>
<g id="Canvas" transform="translate(-18476 623)">
<g id="noun_1379391_cc">
<g id="Group">
<g id="Compound Path">
<use xlink:href="#path0_fill" transform="translate(18476 -623)" fill="#007CB1"/>
</g>
<g id="Path">
<use xlink:href="#path1_fill" transform="translate(18487 -617.517)" fill="#007CB1"/>
</g>
</g>
</g>
</g>
<defs>
<path id="path0_fill" d="M 47.4871 13.4459C 47.1959 12.8369 46.7374 12.3226 46.1647 11.9626C 45.592 11.6026 44.9287 11.4117 44.2515 11.4121L 34.9327 11.4121C 34.8042 10.5684 34.3764 9.79847 33.7269 9.24203C 33.0774 8.68559 32.2493 8.37946 31.3926 8.37916L 23.6976 8.37916C 23.1346 6.64223 22.1843 5.05474 20.9179 3.73564C 19.6515 2.41655 18.1018 1.40006 16.385 0.762334C 14.6682 0.124608 12.8288 -0.117815 11.0046 0.053231C 9.18042 0.224276 7.41872 0.804354 5.85154 1.75C 4.28436 2.69565 2.95233 3.98234 1.95527 5.51366C 0.958198 7.04499 0.321945 8.78124 0.0941813 10.5923C -0.133582 12.4034 0.0530498 14.2423 0.640093 15.9714C 1.22714 17.7004 2.19937 19.2746 3.48394 20.5762L 3.48394 38.0362C 3.48394 38.9825 3.86131 39.8901 4.53304 40.5592C 5.20477 41.2284 6.11583 41.6043 7.0658 41.6043L 10.4745 41.6043C 10.7596 43.1206 11.5678 44.49 12.7594 45.4753C 13.951 46.4607 15.4509 47 16.9995 47C 18.5481 47 20.048 46.4607 21.2396 45.4753C 22.4312 44.49 23.2394 43.1206 23.5245 41.6043L 34.7655 41.6043C 35.0506 43.1206 35.8588 44.49 37.0504 45.4753C 38.242 46.4607 39.7419 47 41.2905 47C 42.8391 47 44.339 46.4607 45.5306 45.4753C 46.7221 44.49 47.5304 43.1206 47.8154 41.6043L 52.4181 41.6043C 53.3681 41.6043 54.2792 41.2284 54.9509 40.5592C 55.6226 39.8901 56 38.9825 56 38.0362L 56 28.6699C 56.0005 28.405 55.9123 28.1476 55.7493 27.9384L 52.2868 23.508L 47.4871 13.4459ZM 45.3141 14.4688L 49.3676 22.9133L 36.1684 22.9133C 35.8518 22.9133 35.5481 22.788 35.3242 22.5649C 35.1003 22.3419 34.9745 22.0394 34.9745 21.7239L 34.9745 13.7908L 44.2575 13.7908C 44.4795 13.7948 44.6959 13.8603 44.8826 13.9801C 45.0692 14.0998 45.2187 14.2691 45.3141 14.4688ZM 12.1461 2.39067C 14.0768 2.38949 15.9645 2.95874 17.5704 4.02642C 19.1763 5.09409 20.4283 6.61222 21.1679 8.38879C 21.9076 10.1654 22.1017 12.1205 21.7258 14.007C 21.3499 15.8935 20.4207 17.6266 19.0559 18.987C 17.6911 20.3474 15.952 21.274 14.0584 21.6497C 12.1649 22.0253 10.2021 21.8331 8.41822 21.0974C 6.63436 20.3616 5.10961 19.1154 4.03684 17.5163C 2.96407 15.9172 2.39147 14.0371 2.39147 12.1138C 2.39463 9.53705 3.42317 7.06666 5.25166 5.24408C 7.08014 3.42149 9.55942 2.39539 12.1461 2.39067ZM 16.9995 44.6134C 16.1574 44.6134 15.3342 44.3646 14.6341 43.8984C 13.934 43.4322 13.3885 42.7697 13.0665 41.9945C 12.7445 41.2194 12.6606 40.3666 12.8253 39.5439C 12.99 38.7212 13.396 37.9657 13.9919 37.373C 14.5877 36.7802 15.3467 36.3769 16.1728 36.2139C 16.9988 36.051 17.8549 36.1358 18.6325 36.4577C 19.4102 36.7795 20.0745 37.3239 20.5415 38.022C 21.0085 38.72 21.2571 39.5404 21.2559 40.3793C 21.2567 40.9366 21.1472 41.4886 20.9337 42.0037C 20.7201 42.5188 20.4067 42.9869 20.0114 43.3813C 19.616 43.7757 19.1466 44.0885 18.6297 44.302C 18.1129 44.5154 17.559 44.6253 16.9995 44.6253L 16.9995 44.6134ZM 41.2905 44.6134C 40.4484 44.6134 39.6252 44.3646 38.9251 43.8984C 38.225 43.4322 37.6795 42.7697 37.3575 41.9945C 37.0355 41.2194 36.9515 40.3666 37.1163 39.5439C 37.281 38.7212 37.687 37.9657 38.2828 37.373C 38.8787 36.7802 39.6377 36.3769 40.4638 36.2139C 41.2898 36.051 42.1458 36.1358 42.9235 36.4577C 43.7012 36.7795 44.3655 37.3239 44.8325 38.022C 45.2995 38.72 45.5481 39.5404 45.5469 40.3793C 45.5477 40.9366 45.4382 41.4886 45.2246 42.0037C 45.0111 42.5188 44.6977 42.9869 44.3024 43.3813C 43.907 43.7757 43.4375 44.0885 42.9207 44.302C 42.4039 44.5154 41.85 44.6253 41.2905 44.6253L 41.2905 44.6134ZM 53.6121 38.0362C 53.6121 38.3516 53.4863 38.6541 53.2624 38.8772C 53.0385 39.1003 52.7348 39.2256 52.4181 39.2256L 47.8214 39.2256C 47.5498 37.6967 46.7464 36.312 45.5521 35.3144C 44.3579 34.3167 42.8491 33.77 41.2905 33.77C 39.7319 33.77 38.2231 34.3167 37.0288 35.3144C 35.8346 36.312 35.0312 37.6967 34.7596 39.2256L 23.5304 39.2256C 23.2588 37.6967 22.4554 36.312 21.2611 35.3144C 20.0669 34.3167 18.5581 33.77 16.9995 33.77C 15.4409 33.77 13.9321 34.3167 12.7379 35.3144C 11.5436 36.312 10.7402 37.6967 10.4686 39.2256L 7.0658 39.2256C 6.74915 39.2256 6.44546 39.1003 6.22155 38.8772C 5.99764 38.6541 5.87185 38.3516 5.87185 38.0362L 5.87185 22.4494C 7.71109 23.5654 9.81565 24.173 11.9689 24.2097C 14.1222 24.2463 16.2463 23.7107 18.1228 22.658C 19.9992 21.6052 21.5602 20.0734 22.6449 18.2201C 23.7297 16.3669 24.2991 14.2591 24.2946 12.1138C 24.2921 11.6606 24.2642 11.208 24.211 10.7579L 31.3747 10.7579C 31.6914 10.7579 31.995 10.8832 32.219 11.1063C 32.4429 11.3293 32.5687 11.6318 32.5687 11.9473L 32.5687 21.7239C 32.5687 22.6703 32.946 23.5778 33.6178 24.247C 34.2895 24.9161 35.2005 25.292 36.1505 25.292L 50.6451 25.292L 53.63 29.0921L 53.6121 38.0362Z"/>
<path id="path1_fill" d="M 1.19397 7.82013L 5.96978 7.82013C 6.28644 7.82013 6.59013 7.69482 6.81404 7.47177C 7.03795 7.24872 7.16374 6.9462 7.16374 6.63076C 7.16374 6.31532 7.03795 6.01279 6.81404 5.78974C 6.59013 5.56669 6.28644 5.44138 5.96978 5.44138L 2.38792 5.44138L 2.38792 1.18937C 2.38792 0.873932 2.26213 0.571411 2.03822 0.34836C 1.81431 0.125309 1.51063 3.17597e-07 1.19397 3.17597e-07C 0.877313 3.17597e-07 0.573626 0.125309 0.349716 0.34836C 0.125807 0.571411 1.52446e-05 0.873932 1.52446e-05 1.18937L 1.52446e-05 6.62481C -0.000771234 6.7815 0.0295305 6.9368 0.0891801 7.08179C 0.14883 7.22678 0.236651 7.3586 0.347599 7.46967C 0.458546 7.58075 0.590431 7.66889 0.735679 7.72903C 0.880926 7.78917 1.03667 7.82013 1.19397 7.82013Z"/>
</defs>
</svg>
