<svg width="90" height="64" viewBox="0 0 90 64" version="1.1" xmlns="http://www.w3.org/2000/svg" xmlns:xlink="http://www.w3.org/1999/xlink">
<title>car</title>
<desc>Created using Figma</desc>
<g id="Canvas" transform="translate(-23859 113)">
<g id="car">
<g id="car">
<use xlink:href="#path0_fill" transform="translate(23859 -113)" fill="#EB5757"/>
</g>
</g>
</g>
<defs>
<path id="path0_fill" d="M 89.7173 32C 89.7173 32 89.7173 31.619 89.7173 32C 89.7173 31.619 89.3403 31.619 89.3403 31.2381L 72 13.7143C 71.623 13.3333 71.2461 13.3333 70.8691 13.3333L 59.5602 13.3333L 59.5602 6.09524C 59.5602 2.66667 56.9215 0 53.5288 0L 6.03141 0C 2.63874 0 0 2.66667 0 6.09524L 0 49.9048C 0 53.3333 2.63874 56 6.03141 56L 12.0628 56C 12.8168 60.5714 16.5864 64 21.1099 64C 25.6335 64 29.4031 60.5714 30.1571 56L 62.9529 56C 63.7068 60.5714 67.4764 64 72 64C 76.5236 64 80.2932 60.5714 81.0471 56L 88.2094 56C 88.9633 56 89.7173 55.2381 89.7173 54.4762L 89.7173 32.381C 90.0942 32 90.0942 32 89.7173 32ZM 84.8168 30.8571L 75.7696 30.8571L 76.9005 28.1905C 77.2775 27.4286 76.9005 26.6667 76.1466 26.2857C 75.3927 25.9048 74.6387 26.2857 74.2618 27.0476L 72.7539 30.8571L 59.9372 30.8571L 59.9372 16.381L 70.4921 16.381L 84.8168 30.8571ZM 6.03141 3.04762L 53.9058 3.04762C 55.4136 3.04762 56.9215 4.19048 56.9215 6.09524L 56.9215 14.8571C 56.5445 14.8571 56.5445 15.2381 56.5445 15.2381L 56.5445 38.0952L 3.01571 38.0952L 3.01571 22.8571L 29.4031 22.8571L 29.4031 24.381C 29.4031 25.9048 30.1571 26.6667 30.911 27.0476C 31.288 27.0476 31.6649 27.4286 32.0419 27.4286C 32.7958 27.0476 33.5497 26.6667 33.9267 26.6667L 43.7277 19.0476C 44.4817 18.2857 44.8586 17.5238 44.8586 16.7619C 44.8586 16 44.4817 15.2381 43.7277 14.8571C 40.3351 12.1905 37.3194 9.52381 33.9267 7.2381C 32.4188 5.71429 30.534 6.09524 29.7801 7.61905C 29.7801 8 29.4031 8.38095 29.4031 9.14286C 29.4031 9.52381 29.4031 10.2857 29.4031 10.6667L 3.01571 10.6667L 3.01571 6.09524C 3.01571 4.19048 4.1466 3.04762 6.03141 3.04762ZM 32.4188 11.4286C 32.4188 11.0476 32.4188 10.2857 32.4188 9.90476C 35.4346 12.1905 38.4503 14.4762 41.089 16.7619L 32.4188 23.619L 32.4188 21.3333C 32.4188 20.5714 31.6649 19.8095 30.911 19.8095L 3.01571 19.8095L 3.01571 13.7143L 30.911 13.7143C 31.6649 13.7143 32.4188 12.9524 32.4188 12.1905L 32.4188 11.4286ZM 21.1099 60.5714C 17.7173 60.5714 14.7016 57.9048 14.7016 54.0952C 14.7016 50.2857 17.3403 47.619 21.1099 47.619C 24.8796 47.619 27.5183 50.2857 27.5183 54.0952C 27.5183 57.9048 24.5026 60.5714 21.1099 60.5714ZM 21.1099 44.9524C 16.5864 44.9524 12.8168 48.381 12.0628 52.9524L 6.03141 52.9524C 4.52356 52.9524 3.01571 51.8095 3.01571 49.9048L 3.01571 41.5238L 56.5445 41.5238L 56.5445 52.9524L 30.1571 52.9524C 29.4031 48.381 25.6335 44.9524 21.1099 44.9524ZM 72 60.5714C 68.6073 60.5714 65.5916 57.9048 65.5916 54.0952C 65.5916 50.2857 68.2304 47.619 72 47.619C 75.7696 47.619 78.4084 50.2857 78.4084 54.0952C 78.4084 57.9048 75.3927 60.5714 72 60.5714ZM 81.0471 52.5714C 80.2932 48 76.5236 44.5714 72 44.5714C 67.4764 44.5714 63.7068 48 62.9529 52.5714L 59.5602 52.5714L 59.5602 33.5238L 86.7016 33.5238L 86.7016 52.5714L 81.0471 52.5714Z"/>
</defs>
</svg>
