<svg width="84" height="62" viewBox="0 0 84 62" version="1.1" xmlns="http://www.w3.org/2000/svg" xmlns:xlink="http://www.w3.org/1999/xlink">
<title>care</title>
<desc>Created using Figma</desc>
<g id="Canvas" transform="translate(-22796 594)">
<g id="care">
<g id="Group">
<g id="Vector">
<use xlink:href="#path0_fill" transform="translate(22797 -563.125)" fill="#007CB1"/>
<use xlink:href="#path1_stroke" transform="translate(22797 -563.125)" fill="#007CB1"/>
</g>
<g id="Vector">
<use xlink:href="#path2_fill" transform="translate(22835.3 -593)" fill="#007CB1"/>
<use xlink:href="#path3_stroke" transform="translate(22835.3 -593)" fill="#007CB1"/>
</g>
<g id="Vector">
<use xlink:href="#path4_fill" transform="translate(22856.5 -575.972)" fill="#007CB1"/>
<use xlink:href="#path5_stroke" transform="translate(22856.5 -575.972)" fill="#007CB1"/>
</g>
</g>
</g>
</g>
<defs>
<path id="path0_fill" d="M 81.8665 3.28327C 81.3464 1.3495 79.4613 5.49478e-08 77.285 5.49478e-08C 76.5116 5.49478e-08 75.7545 0.171052 75.0336 0.510452C 72.2494 1.81854 62.0543 6.57734 57.8256 8.43999C 57.8292 8.36257 57.8382 8.28784 57.8382 8.21042L 57.7442 8.21132C 57.3435 5.92825 55.3526 4.17993 52.9438 4.17993L 43.447 4.17993C 40.7433 4.17993 38.2983 3.43091 35.7086 2.63868C 32.9751 1.80233 30.1493 0.936277 26.873 0.936277C 21.4024 0.936277 18.7692 2.28217 15.1248 4.14482C 13.6179 4.91455 11.9264 5.7761 9.77629 6.67907L 9.77629 4.17903L -1.27671e-07 4.17903L -1.27671e-07 9.91462L -1.27671e-07 29.8654L -1.27671e-07 30.1247L 9.77629 30.1247L 9.77629 26.5605C 14.5975 25.2191 20.1369 24.4818 26.0635 24.4494L 27.0024 24.4467C 33.0022 24.4467 36.274 24.7951 40.471 25.8781C 42.8075 26.4804 45.1149 26.2607 47.5862 25.193C 56.0192 21.547 69.9582 14.2809 78.0358 9.64004C 82.3667 7.15261 82.1569 4.36539 81.8665 3.28327ZM 8.14721 28.5033L 1.62998 28.5033L 1.62998 5.80221L 8.14721 5.80221L 8.14721 28.5033ZM 77.2208 8.23653C 69.1821 12.8567 55.3173 20.084 46.9367 23.7076C 44.8038 24.6286 42.8617 24.8203 40.8799 24.3108C 36.5308 23.1872 33.1596 22.828 27.0024 22.828L 26.0544 22.8298C 20.1659 22.8622 14.6382 23.5798 9.77629 24.8851L 9.77629 8.43549C 12.2783 7.41819 14.1868 6.4477 15.8693 5.58795C 19.4386 3.76311 21.7958 2.55855 26.873 2.55855C 29.9033 2.55855 32.6106 3.3877 35.2292 4.18894C 37.8198 4.98207 40.4982 5.80221 43.447 5.80221L 52.9419 5.80221C 54.609 5.80221 55.9722 7.05898 56.163 8.66775C 55.9432 10.6979 54.2309 12.2886 52.1342 12.2886L 29.3225 12.2886L 29.3225 13.91L 52.1333 13.91C 54.5059 13.91 56.5438 12.4597 57.4013 10.3909C 61.1353 8.8199 75.5817 2.0454 75.7274 1.97698C 76.2303 1.74021 76.7531 1.62138 77.2841 1.62138C 78.7015 1.62138 79.967 2.49644 80.2908 3.70279C 80.7023 5.22694 79.5825 6.87983 77.2208 8.23653Z"/>
<path id="path1_stroke" d="M 81.8665 3.28327L 82.3494 3.15369L 82.3493 3.1534L 81.8665 3.28327ZM 75.0336 0.510452L 75.2462 0.962994L 75.2466 0.962826L 75.0336 0.510452ZM 57.8256 8.43999L 57.3261 8.41665L 57.2884 9.22294L 58.0271 8.89757L 57.8256 8.43999ZM 57.8382 8.21042L 58.3382 8.21042L 58.3382 7.70562L 57.8335 7.71044L 57.8382 8.21042ZM 57.7442 8.21132L 57.2517 8.29776L 57.325 8.71535L 57.7489 8.7113L 57.7442 8.21132ZM 35.7086 2.63868L 35.5623 3.1168L 35.5623 3.11681L 35.7086 2.63868ZM 15.1248 4.14482L 15.3523 4.5901L 15.3524 4.59004L 15.1248 4.14482ZM 9.77629 6.67907L 9.27629 6.67907L 9.27629 7.43135L 9.96989 7.14007L 9.77629 6.67907ZM 9.77629 4.17903L 10.2763 4.17903L 10.2763 3.67903L 9.77629 3.67903L 9.77629 4.17903ZM -1.27671e-07 4.17903L -1.27671e-07 3.67903L -0.5 3.67903L -0.5 4.17903L -1.27671e-07 4.17903ZM -1.27671e-07 30.1247L -0.5 30.1247L -0.5 30.6247L -1.27671e-07 30.6247L -1.27671e-07 30.1247ZM 9.77629 30.1247L 9.77629 30.6247L 10.2763 30.6247L 10.2763 30.1247L 9.77629 30.1247ZM 9.77629 26.5605L 9.64227 26.0788L 9.27629 26.1807L 9.27629 26.5605L 9.77629 26.5605ZM 26.0635 24.4494L 26.062 23.9494L 26.0607 23.9494L 26.0635 24.4494ZM 27.0024 24.4467L 27.0024 23.9467L 27.001 23.9467L 27.0024 24.4467ZM 40.471 25.8781L 40.3461 26.3623L 40.3462 26.3623L 40.471 25.8781ZM 47.5862 25.193L 47.7845 25.652L 47.7846 25.652L 47.5862 25.193ZM 78.0358 9.64004L 77.7867 9.20647L 77.7867 9.2065L 78.0358 9.64004ZM 8.14721 28.5033L 8.14721 29.0033L 8.64721 29.0033L 8.64721 28.5033L 8.14721 28.5033ZM 1.62998 28.5033L 1.12998 28.5033L 1.12998 29.0033L 1.62998 29.0033L 1.62998 28.5033ZM 1.62998 5.80221L 1.62998 5.30221L 1.12998 5.30221L 1.12998 5.80221L 1.62998 5.80221ZM 8.14721 5.80221L 8.64721 5.80221L 8.64721 5.30221L 8.14721 5.30221L 8.14721 5.80221ZM 77.2208 8.23653L 76.9717 7.80297L 76.9716 7.80303L 77.2208 8.23653ZM 46.9367 23.7076L 47.1349 24.1666L 47.1351 24.1665L 46.9367 23.7076ZM 40.8799 24.3108L 40.7548 24.7949L 40.7554 24.795L 40.8799 24.3108ZM 27.0024 22.828L 27.0024 22.328L 27.0014 22.328L 27.0024 22.828ZM 26.0544 22.8298L 26.0535 22.3298L 26.0517 22.3298L 26.0544 22.8298ZM 9.77629 24.8851L 9.27629 24.8851L 9.27629 25.5371L 9.90595 25.368L 9.77629 24.8851ZM 9.77629 8.43549L 9.58796 7.97231L 9.27629 8.09904L 9.27629 8.43549L 9.77629 8.43549ZM 15.8693 5.58795L 16.0968 6.03318L 16.0969 6.03314L 15.8693 5.58795ZM 35.2292 4.18894L 35.3756 3.71084L 35.3755 3.71082L 35.2292 4.18894ZM 56.163 8.66775L 56.6601 8.72158L 56.6662 8.66518L 56.6595 8.60885L 56.163 8.66775ZM 29.3225 12.2886L 29.3225 11.7886L 28.8225 11.7886L 28.8225 12.2886L 29.3225 12.2886ZM 29.3225 13.91L 28.8225 13.91L 28.8225 14.41L 29.3225 14.41L 29.3225 13.91ZM 57.4013 10.3909L 57.2074 9.92999L 57.0181 10.0097L 56.9394 10.1994L 57.4013 10.3909ZM 75.7274 1.97698L 75.94 2.42953L 75.9403 2.42936L 75.7274 1.97698ZM 80.2908 3.70279L 79.8079 3.83242L 79.8081 3.83314L 80.2908 3.70279ZM 82.3493 3.1534C 81.7636 0.975568 79.6597 -0.5 77.285 -0.5L 77.285 0.5C 79.2629 0.5 80.9292 1.72343 81.3837 3.41313L 82.3493 3.1534ZM 77.285 -0.5C 76.4361 -0.5 75.6064 -0.311877 74.8206 0.0580772L 75.2466 0.962826C 75.9026 0.65398 76.5871 0.5 77.285 0.5L 77.285 -0.5ZM 74.821 0.05791C 72.0354 1.36664 61.8461 6.12268 57.624 7.98241L 58.0271 8.89757C 62.2625 7.03199 72.4634 2.27044 75.2462 0.962994L 74.821 0.05791ZM 58.325 8.46333C 58.326 8.44269 58.3382 8.29482 58.3382 8.21042L 57.3382 8.21042C 57.3382 8.28086 57.3324 8.28244 57.3261 8.41665L 58.325 8.46333ZM 57.8335 7.71044L 57.7394 7.71134L 57.7489 8.7113L 57.843 8.7104L 57.8335 7.71044ZM 58.2366 8.12488C 57.7949 5.60833 55.601 3.67993 52.9438 3.67993L 52.9438 4.67993C 55.1041 4.67993 56.892 6.24816 57.2517 8.29776L 58.2366 8.12488ZM 52.9438 3.67993L 43.447 3.67993L 43.447 4.67993L 52.9438 4.67993L 52.9438 3.67993ZM 43.447 3.67993C 40.8299 3.67993 38.4555 2.95611 35.8549 2.16055L 35.5623 3.11681C 38.1412 3.90571 40.6566 4.67993 43.447 4.67993L 43.447 3.67993ZM 35.8549 2.16056C 33.128 1.32625 30.2344 0.436277 26.873 0.436277L 26.873 1.43628C 30.0642 1.43628 32.8221 2.27841 35.5623 3.1168L 35.8549 2.16056ZM 26.873 0.436277C 21.2821 0.436277 18.5629 1.82613 14.8973 3.6996L 15.3524 4.59004C 18.9756 2.73821 21.5227 1.43628 26.873 1.43628L 26.873 0.436277ZM 14.8974 3.69955C 13.3912 4.46887 11.7141 5.32294 9.58269 6.21807L 9.96989 7.14007C 12.1387 6.22926 13.8445 5.36022 15.3523 4.5901L 14.8974 3.69955ZM 10.2763 6.67907L 10.2763 4.17903L 9.27629 4.17903L 9.27629 6.67907L 10.2763 6.67907ZM 9.77629 3.67903L -1.27671e-07 3.67903L -1.27671e-07 4.67903L 9.77629 4.67903L 9.77629 3.67903ZM -0.5 4.17903L -0.5 9.91462L 0.5 9.91462L 0.5 4.17903L -0.5 4.17903ZM -0.5 9.91462L -0.5 29.8654L 0.5 29.8654L 0.5 9.91462L -0.5 9.91462ZM -0.5 29.8654L -0.5 30.1247L 0.5 30.1247L 0.5 29.8654L -0.5 29.8654ZM -1.27671e-07 30.6247L 9.77629 30.6247L 9.77629 29.6247L -1.27671e-07 29.6247L -1.27671e-07 30.6247ZM 10.2763 30.1247L 10.2763 26.5605L 9.27629 26.5605L 9.27629 30.1247L 10.2763 30.1247ZM 9.91031 27.0422C 14.6833 25.7142 20.178 24.9816 26.0662 24.9494L 26.0607 23.9494C 20.0958 23.982 14.5117 24.724 9.64227 26.0788L 9.91031 27.0422ZM 26.0649 24.9494L 27.0038 24.9467L 27.001 23.9467L 26.062 23.9494L 26.0649 24.9494ZM 27.0024 24.9467C 32.9748 24.9467 36.202 25.2929 40.3461 26.3623L 40.596 25.394C 36.3459 24.2973 33.0296 23.9467 27.0024 23.9467L 27.0024 24.9467ZM 40.3462 26.3623C 42.8021 26.9954 45.2232 26.7586 47.7845 25.652L 47.3878 24.734C 45.0066 25.7629 42.8128 25.9654 40.5958 25.394L 40.3462 26.3623ZM 47.7846 25.652C 56.2406 21.996 70.1972 14.7202 78.2848 10.0736L 77.7867 9.2065C 69.7192 13.8416 55.7978 21.0979 47.3877 24.7341L 47.7846 25.652ZM 78.2848 10.0736C 80.5248 8.78709 81.6457 7.38968 82.149 6.11875C 82.6512 4.8504 82.5144 3.76854 82.3494 3.15369L 81.3836 3.41285C 81.509 3.88011 81.6222 4.73293 81.2192 5.75058C 80.8173 6.76564 79.8777 8.00557 77.7867 9.20647L 78.2848 10.0736ZM 8.14721 28.0033L 1.62998 28.0033L 1.62998 29.0033L 8.14721 29.0033L 8.14721 28.0033ZM 2.12998 28.5033L 2.12998 5.80221L 1.12998 5.80221L 1.12998 28.5033L 2.12998 28.5033ZM 1.62998 6.30221L 8.14721 6.30221L 8.14721 5.30221L 1.62998 5.30221L 1.62998 6.30221ZM 7.64721 5.80221L 7.64721 28.5033L 8.64721 28.5033L 8.64721 5.80221L 7.64721 5.80221ZM 76.9716 7.80303C 68.943 12.4174 55.0959 19.635 46.7383 23.2487L 47.1351 24.1665C 55.5387 20.533 69.4212 13.296 77.4699 8.67003L 76.9716 7.80303ZM 46.7385 23.2486C 44.6933 24.1316 42.8649 24.3049 41.0044 23.8265L 40.7554 24.795C 42.8586 25.3358 44.9142 25.1255 47.1349 24.1666L 46.7385 23.2486ZM 41.0049 23.8267C 36.6031 22.6895 33.1873 22.328 27.0024 22.328L 27.0024 23.328C 33.1319 23.328 36.4586 23.685 40.7548 24.7949L 41.0049 23.8267ZM 27.0014 22.328L 26.0535 22.3298L 26.0554 23.3298L 27.0033 23.328L 27.0014 22.328ZM 26.0517 22.3298C 20.1254 22.3625 14.5546 23.0845 9.64664 24.4022L 9.90595 25.368C 14.7218 24.075 20.2063 23.362 26.0572 23.3298L 26.0517 22.3298ZM 10.2763 24.8851L 10.2763 8.43549L 9.27629 8.43549L 9.27629 24.8851L 10.2763 24.8851ZM 9.96462 8.89866C 12.4879 7.87269 14.4128 6.89376 16.0968 6.03318L 15.6418 5.14271C 13.9609 6.00165 12.0686 6.96369 9.58796 7.97231L 9.96462 8.89866ZM 16.0969 6.03314C 17.8882 5.11732 19.333 4.38014 20.9568 3.86558C 22.5708 3.3541 24.3775 3.05855 26.873 3.05855L 26.873 2.05855C 24.2913 2.05855 22.3808 2.36529 20.6547 2.9123C 18.9382 3.45622 17.4197 4.23374 15.6417 5.14276L 16.0969 6.03314ZM 26.873 3.05855C 29.8175 3.05855 32.4558 3.86322 35.0829 4.66706L 35.3755 3.71082C 32.7653 2.91218 29.9891 2.05855 26.873 2.05855L 26.873 3.05855ZM 35.0828 4.66703C 37.6641 5.45731 40.412 6.30221 43.447 6.30221L 43.447 5.30221C 40.5843 5.30221 37.9755 4.50682 35.3756 3.71084L 35.0828 4.66703ZM 43.447 6.30221L 52.9419 6.30221L 52.9419 5.30221L 43.447 5.30221L 43.447 6.30221ZM 52.9419 6.30221C 54.3503 6.30221 55.5049 7.36411 55.6665 8.72666L 56.6595 8.60885C 56.4395 6.75385 54.8677 5.30221 52.9419 5.30221L 52.9419 6.30221ZM 55.6659 8.61393C 55.4731 10.3952 53.9706 11.7886 52.1342 11.7886L 52.1342 12.7886C 54.4912 12.7886 56.4134 11.0005 56.6601 8.72158L 55.6659 8.61393ZM 52.1342 11.7886L 29.3225 11.7886L 29.3225 12.7886L 52.1342 12.7886L 52.1342 11.7886ZM 28.8225 12.2886L 28.8225 13.91L 29.8225 13.91L 29.8225 12.2886L 28.8225 12.2886ZM 29.3225 14.41L 52.1333 14.41L 52.1333 13.41L 29.3225 13.41L 29.3225 14.41ZM 52.1333 14.41C 54.7148 14.41 56.9309 12.8317 57.8632 10.5823L 56.9394 10.1994C 56.1568 12.0877 54.297 13.41 52.1333 13.41L 52.1333 14.41ZM 57.5952 10.8517C 61.3414 9.27565 75.8008 2.49491 75.94 2.42953L 75.5148 1.52444C 75.3627 1.59589 60.9292 8.36415 57.2074 9.92999L 57.5952 10.8517ZM 75.9403 2.42936C 76.3793 2.22269 76.8297 2.12138 77.2841 2.12138L 77.2841 1.12138C 76.6766 1.12138 76.0813 1.25774 75.5144 1.52461L 75.9403 2.42936ZM 77.2841 2.12138C 78.5177 2.12138 79.553 2.88296 79.8079 3.83242L 80.7737 3.57316C 80.3809 2.10991 78.8853 1.12138 77.2841 1.12138L 77.2841 2.12138ZM 79.8081 3.83314C 79.9676 4.42382 79.8439 5.06974 79.3818 5.75208C 78.9145 6.44211 78.112 7.14796 76.9717 7.80297L 77.4698 8.67008C 78.6913 7.9684 79.6296 7.16945 80.2098 6.31283C 80.7951 5.44851 81.0256 4.50591 80.7735 3.57244L 79.8081 3.83314Z"/>
<path id="path2_fill" d="M 30.958 5.35742e-07L 19.5517 5.35742e-07L 11.4045 5.35742e-07L 1.46304e-06 5.35742e-07L 1.46304e-06 30.8116L 30.958 30.8116L 30.958 5.35742e-07ZM 18.7376 1.62138L 18.7376 7.23183L 18.0248 6.66467C 17.7272 6.4288 17.3039 6.4288 17.0063 6.66467L 15.4794 7.88182L 13.9517 6.66467C 13.8033 6.54673 13.6224 6.48731 13.4424 6.48731C 13.2624 6.48731 13.0824 6.54673 12.9331 6.66467L 12.2204 7.23183L 12.2204 1.62138L 18.7376 1.62138ZM 29.328 29.1893L 1.62908 29.1893L 1.62908 1.62138L 10.5904 1.62138L 10.5904 8.91983C 10.5904 9.23222 10.7695 9.51581 11.0517 9.65085C 11.3339 9.78589 11.6704 9.74808 11.9146 9.55362L 13.4415 8.33646L 14.9684 9.55362C 15.266 9.78949 15.6893 9.78949 15.9869 9.55362L 17.5137 8.33646L 19.0406 9.55362C 19.1881 9.67065 19.3681 9.73097 19.5499 9.73097C 19.6702 9.73097 19.7914 9.70486 19.9035 9.65085C 20.1858 9.51581 20.3649 9.23222 20.3649 8.91983L 20.3649 1.62138L 29.3262 1.62138L 29.3262 29.1893L 29.328 29.1893Z"/>
<path id="path3_stroke" d="M 30.958 5.35742e-07L 31.458 5.35742e-07L 31.458 -0.499999L 30.958 -0.499999L 30.958 5.35742e-07ZM 1.46304e-06 5.35742e-07L 1.46304e-06 -0.499999L -0.499999 -0.499999L -0.499999 5.35742e-07L 1.46304e-06 5.35742e-07ZM 1.46304e-06 30.8116L -0.499999 30.8116L -0.499999 31.3116L 1.46304e-06 31.3116L 1.46304e-06 30.8116ZM 30.958 30.8116L 30.958 31.3116L 31.458 31.3116L 31.458 30.8116L 30.958 30.8116ZM 18.7376 1.62138L 19.2376 1.62138L 19.2376 1.12138L 18.7376 1.12138L 18.7376 1.62138ZM 18.7376 7.23183L 18.4263 7.62309L 19.2376 8.26866L 19.2376 7.23183L 18.7376 7.23183ZM 18.0248 6.66467L 18.3361 6.27341L 18.3354 6.27282L 18.0248 6.66467ZM 17.0063 6.66467L 16.6957 6.27282L 16.6946 6.27369L 17.0063 6.66467ZM 15.4794 7.88182L 15.1679 8.27289L 15.4795 8.52118L 15.7911 8.2728L 15.4794 7.88182ZM 13.9517 6.66467L 14.2632 6.2736L 14.2628 6.27328L 13.9517 6.66467ZM 12.9331 6.66467L 12.6231 6.27236L 12.6218 6.27342L 12.9331 6.66467ZM 12.2204 7.23183L 11.7204 7.23183L 11.7204 8.26867L 12.5317 7.62308L 12.2204 7.23183ZM 12.2204 1.62138L 12.2204 1.12138L 11.7204 1.12138L 11.7204 1.62138L 12.2204 1.62138ZM 1.62908 29.1893L 1.12908 29.1893L 1.12908 29.6893L 1.62908 29.6893L 1.62908 29.1893ZM 1.62908 1.62138L 1.62908 1.12138L 1.12908 1.12138L 1.12908 1.62138L 1.62908 1.62138ZM 10.5904 1.62138L 11.0904 1.62138L 11.0904 1.12138L 10.5904 1.12138L 10.5904 1.62138ZM 11.9146 9.55362L 12.2261 9.94477L 12.2263 9.94459L 11.9146 9.55362ZM 13.4415 8.33646L 13.7532 7.94548L 13.4415 7.69703L 13.1298 7.94548L 13.4415 8.33646ZM 14.9684 9.55362L 14.6567 9.9446L 14.6578 9.94547L 14.9684 9.55362ZM 15.9869 9.55362L 16.2975 9.94547L 16.2985 9.94459L 15.9869 9.55362ZM 17.5137 8.33646L 17.8254 7.94548L 17.5137 7.69703L 17.2021 7.94549L 17.5137 8.33646ZM 19.0406 9.55362L 18.7289 9.94459L 18.7298 9.94524L 19.0406 9.55362ZM 19.9035 9.65085L 19.6877 9.19982L 19.6866 9.20036L 19.9035 9.65085ZM 20.3649 1.62138L 20.3649 1.12138L 19.8649 1.12138L 19.8649 1.62138L 20.3649 1.62138ZM 29.3262 1.62138L 29.8262 1.62138L 29.8262 1.12138L 29.3262 1.12138L 29.3262 1.62138ZM 29.3262 29.1893L 28.8262 29.1893L 28.8262 29.6893L 29.3262 29.6893L 29.3262 29.1893ZM 30.958 -0.499999L 19.5517 -0.499999L 19.5517 0.500001L 30.958 0.500001L 30.958 -0.499999ZM 19.5517 -0.499999L 11.4045 -0.499999L 11.4045 0.500001L 19.5517 0.500001L 19.5517 -0.499999ZM 11.4045 -0.499999L 1.46304e-06 -0.499999L 1.46304e-06 0.500001L 11.4045 0.500001L 11.4045 -0.499999ZM -0.499999 5.35742e-07L -0.499999 30.8116L 0.500001 30.8116L 0.500001 5.35742e-07L -0.499999 5.35742e-07ZM 1.46304e-06 31.3116L 30.958 31.3116L 30.958 30.3116L 1.46304e-06 30.3116L 1.46304e-06 31.3116ZM 31.458 30.8116L 31.458 5.35742e-07L 30.458 5.35742e-07L 30.458 30.8116L 31.458 30.8116ZM 18.2376 1.62138L 18.2376 7.23183L 19.2376 7.23183L 19.2376 1.62138L 18.2376 1.62138ZM 19.0489 6.84058L 18.3361 6.27341L 17.7135 7.05592L 18.4263 7.62309L 19.0489 6.84058ZM 18.3354 6.27282C 17.8559 5.89275 17.1753 5.89275 16.6957 6.27282L 17.3169 7.05651C 17.4325 6.96485 17.5986 6.96485 17.7142 7.05651L 18.3354 6.27282ZM 16.6946 6.27369L 15.1678 7.49085L 15.7911 8.2728L 17.318 7.05564L 16.6946 6.27369ZM 15.791 7.49076L 14.2632 6.2736L 13.6401 7.05573L 15.1679 8.27289L 15.791 7.49076ZM 14.2628 6.27328C 14.0231 6.08268 13.7316 5.98731 13.4424 5.98731L 13.4424 6.98731C 13.5132 6.98731 13.5836 7.01078 13.6405 7.05605L 14.2628 6.27328ZM 13.4424 5.98731C 13.1524 5.98731 12.8626 6.08316 12.6231 6.27236L 13.2431 7.05697C 13.3022 7.0103 13.3724 6.98731 13.4424 6.98731L 13.4424 5.98731ZM 12.6218 6.27342L 11.909 6.84058L 12.5317 7.62308L 13.2445 7.05592L 12.6218 6.27342ZM 12.7204 7.23183L 12.7204 1.62138L 11.7204 1.62138L 11.7204 7.23183L 12.7204 7.23183ZM 12.2204 2.12138L 18.7376 2.12138L 18.7376 1.12138L 12.2204 1.12138L 12.2204 2.12138ZM 29.328 28.6893L 1.62908 28.6893L 1.62908 29.6893L 29.328 29.6893L 29.328 28.6893ZM 2.12908 29.1893L 2.12908 1.62138L 1.12908 1.62138L 1.12908 29.1893L 2.12908 29.1893ZM 1.62908 2.12138L 10.5904 2.12138L 10.5904 1.12138L 1.62908 1.12138L 1.62908 2.12138ZM 10.0904 1.62138L 10.0904 8.91983L 11.0904 8.91983L 11.0904 1.62138L 10.0904 1.62138ZM 10.0904 8.91983C 10.0904 9.42536 10.3806 9.88401 10.8359 10.1019L 11.2675 9.19982C 11.1584 9.14761 11.0904 9.03908 11.0904 8.91983L 10.0904 8.91983ZM 10.8359 10.1019C 11.2901 10.3192 11.8315 10.259 12.2261 9.94477L 11.6032 9.16246C 11.5093 9.23719 11.3777 9.25254 11.2675 9.19982L 10.8359 10.1019ZM 12.2263 9.94459L 13.7532 8.72744L 13.1298 7.94548L 11.603 9.16264L 12.2263 9.94459ZM 13.1298 8.72744L 14.6567 9.94459L 15.28 9.16264L 13.7532 7.94548L 13.1298 8.72744ZM 14.6578 9.94547C 15.1373 10.3255 15.8179 10.3255 16.2975 9.94547L 15.6763 9.16177C 15.5607 9.25344 15.3946 9.25344 15.2789 9.16177L 14.6578 9.94547ZM 16.2985 9.94459L 17.8254 8.72744L 17.2021 7.94549L 15.6752 9.16264L 16.2985 9.94459ZM 17.2021 8.72744L 18.7289 9.94459L 19.3523 9.16264L 17.8254 7.94548L 17.2021 8.72744ZM 18.7298 9.94524C 18.9675 10.1339 19.2576 10.231 19.5499 10.231L 19.5499 9.23097C 19.4785 9.23097 19.4086 9.20736 19.3515 9.162L 18.7298 9.94524ZM 19.5499 10.231C 19.7423 10.231 19.938 10.1892 20.1205 10.1013L 19.6866 9.20036C 19.6448 9.22052 19.598 9.23097 19.5499 9.23097L 19.5499 10.231ZM 20.1194 10.1019C 20.5747 9.88401 20.8649 9.42536 20.8649 8.91983L 19.8649 8.91983C 19.8649 9.03909 19.7969 9.14761 19.6877 9.19982L 20.1194 10.1019ZM 20.8649 8.91983L 20.8649 1.62138L 19.8649 1.62138L 19.8649 8.91983L 20.8649 8.91983ZM 20.3649 2.12138L 29.3262 2.12138L 29.3262 1.12138L 20.3649 1.12138L 20.3649 2.12138ZM 28.8262 1.62138L 28.8262 29.1893L 29.8262 29.1893L 29.8262 1.62138L 28.8262 1.62138ZM 29.3262 29.6893L 29.328 29.6893L 29.328 28.6893L 29.3262 28.6893L 29.3262 29.6893Z"/>
<path id="path4_fill" d="M 2.44407 8.01957L 2.44407 9.73097L 0.814992 9.73097L 0.814992 11.3523L 5.70223 11.3523L 5.70223 9.73097L 4.07315 9.73097L 4.07315 8.01957C 5.47519 7.65676 6.51632 6.39819 6.51632 4.89114L 6.51632 1.3737e-07L -1.65627e-06 1.3737e-07L -1.65627e-06 4.89024C -1.65627e-06 6.39729 1.04203 7.65676 2.44407 8.01957ZM 1.62999 1.62228L 4.88905 1.62228L 4.88905 4.89114C 4.88905 5.78511 4.15728 6.51252 3.25907 6.51252C 2.36176 6.51252 1.62999 5.78511 1.62999 4.89114L 1.62999 1.62228Z"/>
<path id="path5_stroke" d="M 2.44407 8.01957L 2.94407 8.01957L 2.94407 7.63248L 2.56933 7.53551L 2.44407 8.01957ZM 2.44407 9.73097L 2.44407 10.231L 2.94407 10.231L 2.94407 9.73097L 2.44407 9.73097ZM 0.814992 9.73097L 0.814992 9.23097L 0.314992 9.23097L 0.314992 9.73097L 0.814992 9.73097ZM 0.814992 11.3523L 0.314992 11.3523L 0.314992 11.8523L 0.814992 11.8523L 0.814992 11.3523ZM 5.70223 11.3523L 5.70223 11.8523L 6.20223 11.8523L 6.20223 11.3523L 5.70223 11.3523ZM 5.70223 9.73097L 6.20223 9.73097L 6.20223 9.23097L 5.70223 9.23097L 5.70223 9.73097ZM 4.07315 9.73097L 3.57315 9.73097L 3.57315 10.231L 4.07315 10.231L 4.07315 9.73097ZM 4.07315 8.01957L 3.94789 7.53551L 3.57315 7.63248L 3.57315 8.01957L 4.07315 8.01957ZM 6.51632 1.3737e-07L 7.01632 1.3737e-07L 7.01632 -0.5L 6.51632 -0.5L 6.51632 1.3737e-07ZM -1.65627e-06 1.3737e-07L -1.65627e-06 -0.5L -0.500002 -0.5L -0.500002 1.3737e-07L -1.65627e-06 1.3737e-07ZM 4.88905 1.62228L 5.38905 1.62228L 5.38905 1.12228L 4.88905 1.12228L 4.88905 1.62228ZM 1.94407 8.01957L 1.94407 9.73097L 2.94407 9.73097L 2.94407 8.01957L 1.94407 8.01957ZM 2.44407 9.23097L 0.814992 9.23097L 0.814992 10.231L 2.44407 10.231L 2.44407 9.23097ZM 0.314992 9.73097L 0.314992 11.3523L 1.31499 11.3523L 1.31499 9.73097L 0.314992 9.73097ZM 0.814992 11.8523L 5.70223 11.8523L 5.70223 10.8523L 0.814992 10.8523L 0.814992 11.8523ZM 6.20223 11.3523L 6.20223 9.73097L 5.20223 9.73097L 5.20223 11.3523L 6.20223 11.3523ZM 5.70223 9.23097L 4.07315 9.23097L 4.07315 10.231L 5.70223 10.231L 5.70223 9.23097ZM 4.57315 9.73097L 4.57315 8.01957L 3.57315 8.01957L 3.57315 9.73097L 4.57315 9.73097ZM 4.19841 8.50362C 5.81086 8.08637 7.01632 6.63648 7.01632 4.89114L 6.01632 4.89114C 6.01632 6.1599 5.13952 7.22715 3.94789 7.53551L 4.19841 8.50362ZM 7.01632 4.89114L 7.01632 1.3737e-07L 6.01632 1.3737e-07L 6.01632 4.89114L 7.01632 4.89114ZM 6.51632 -0.5L -1.65627e-06 -0.5L -1.65627e-06 0.5L 6.51632 0.5L 6.51632 -0.5ZM -0.500002 1.3737e-07L -0.500002 4.89024L 0.499998 4.89024L 0.499998 1.3737e-07L -0.500002 1.3737e-07ZM -0.500002 4.89024C -0.500002 6.63562 0.706409 8.08638 2.31881 8.50362L 2.56933 7.53551C 1.37766 7.22714 0.499998 6.15895 0.499998 4.89024L -0.500002 4.89024ZM 1.62999 2.12228L 4.88905 2.12228L 4.88905 1.12228L 1.62999 1.12228L 1.62999 2.12228ZM 4.38905 1.62228L 4.38905 4.89114L 5.38905 4.89114L 5.38905 1.62228L 4.38905 1.62228ZM 4.38905 4.89114C 4.38905 5.50637 3.88373 6.01252 3.25907 6.01252L 3.25907 7.01252C 4.43082 7.01252 5.38905 6.06384 5.38905 4.89114L 4.38905 4.89114ZM 3.25907 6.01252C 2.63549 6.01252 2.12999 5.50655 2.12999 4.89114L 1.12999 4.89114C 1.12999 6.06366 2.08804 7.01252 3.25907 7.01252L 3.25907 6.01252ZM 2.12999 4.89114L 2.12999 1.62228L 1.12999 1.62228L 1.12999 4.89114L 2.12999 4.89114Z"/>
</defs>
</svg>
