<svg width="42" height="62" viewBox="0 0 42 62" version="1.1" xmlns="http://www.w3.org/2000/svg" xmlns:xlink="http://www.w3.org/1999/xlink">
<title>Certificate</title>
<desc>Created using Figma</desc>
<g id="Canvas" transform="translate(-22818 -209)">
<g id="Certificate">
<g id="Group">
<g id="Group">
<g id="Vector">
<use xlink:href="#path0_fill" transform="translate(22818 209)" fill="#007CB1"/>
</g>
</g>
<g id="Group">
<g id="Vector">
<use xlink:href="#path1_fill" transform="translate(22852.2 253.108)" fill="#007CB1"/>
</g>
</g>
<g id="Group">
<g id="Vector">
<use xlink:href="#path2_fill" transform="translate(22824.3 216.797)" fill="#007CB1"/>
</g>
</g>
<g id="Group">
<g id="Vector">
<use xlink:href="#path3_fill" transform="translate(22824.3 221.742)" fill="#007CB1"/>
</g>
</g>
<g id="Group">
<g id="Vector">
<use xlink:href="#path4_fill" transform="translate(22824.3 226.687)" fill="#007CB1"/>
</g>
</g>
<g id="Group">
<g id="Vector">
<use xlink:href="#path5_fill" transform="translate(22824.3 231.629)" fill="#007CB1"/>
</g>
</g>
<g id="Group">
<g id="Vector">
<use xlink:href="#path6_fill" transform="translate(22824.3 236.574)" fill="#007CB1"/>
</g>
</g>
</g>
<g id="Group">
<g id="Group">
<g id="Vector">
<use xlink:href="#path7_fill" transform="translate(22833.7 246.767)" fill="#007CB1"/>
</g>
</g>
<g id="Group">
<g id="Vector">
<use xlink:href="#path8_fill" transform="translate(22827 241.585)" fill="#007CB1"/>
</g>
</g>
</g>
</g>
</g>
<defs>
<path id="path0_fill" d="M 8.49779 53.9196L 3.56647 53.9196C 1.59955 53.9196 1.36245e-07 52.2843 1.36245e-07 50.2791L 1.36245e-07 3.64047C 1.36245e-07 1.63274 1.59955 2.17299e-09 3.56647 2.17299e-09L 38.4327 2.17299e-09C 40.3996 2.17299e-09 41.9991 1.63274 41.9991 3.64047L 41.9991 46.9459C 41.9991 47.5214 41.5399 47.9876 40.9787 47.9876C 40.4174 47.9876 39.9582 47.5188 39.9582 46.9459L 39.9582 3.64047C 39.9582 2.78113 39.2745 2.08064 38.4327 2.08064L 3.56647 2.08064C 2.7246 2.08064 2.03835 2.78113 2.03835 3.64047L 2.03835 50.2791C 2.03835 51.1385 2.7246 51.8364 3.56647 51.8364L 8.49779 51.8364C 9.06158 51.8364 9.51824 52.3051 9.51824 52.878C 9.51824 53.4509 9.06158 53.9196 8.49779 53.9196Z"/>
<path id="path1_fill" d="M 4.24252 9.81209L 1.02045 9.81209C 0.456649 9.81209 -1.20674e-06 9.34336 -1.20674e-06 8.77047C -1.20674e-06 8.19757 0.4592 7.72884 1.02045 7.72884L 4.24252 7.72884C 5.08439 7.72884 5.76809 7.03095 5.76809 6.17161L 5.76809 1.04162C 5.76809 0.466126 6.22729 1.0331e-06 6.78854 1.0331e-06C 7.34978 1.0331e-06 7.80899 0.46873 7.80899 1.04162L 7.80899 6.17161C 7.80899 8.17674 6.20688 9.81209 4.24252 9.81209Z"/>
<path id="path2_fill" d="M 28.4221 2.08325L 1.02045 2.08325C 0.456651 2.08325 2.33562e-07 1.61712 2.33562e-07 1.04162C 2.33562e-07 0.466126 0.456651 -2.23508e-07 1.02045 -2.23508e-07L 28.4221 -2.23508e-07C 28.9858 -2.23508e-07 29.4425 0.466126 29.4425 1.04162C 29.4425 1.61712 28.9858 2.08325 28.4221 2.08325Z"/>
<path id="path3_fill" d="M 28.4221 2.08325L 1.02045 2.08325C 0.456651 2.08325 2.33562e-07 1.61712 2.33562e-07 1.04162C 2.33562e-07 0.466126 0.456651 -4.07281e-07 1.02045 -4.07281e-07L 28.4221 -4.07281e-07C 28.9858 -4.07281e-07 29.4425 0.466126 29.4425 1.04162C 29.4425 1.61712 28.9858 2.08325 28.4221 2.08325Z"/>
<path id="path4_fill" d="M 28.4221 2.08325L 1.02045 2.08325C 0.456651 2.08325 2.33562e-07 1.61712 2.33562e-07 1.04162C 2.33562e-07 0.466126 0.456651 2.98011e-08 1.02045 2.98011e-08L 28.4221 2.98011e-08C 28.9858 2.98011e-08 29.4425 0.466126 29.4425 1.04162C 29.4425 1.61712 28.9858 2.08325 28.4221 2.08325Z"/>
<path id="path5_fill" d="M 28.4221 2.08325L 1.02045 2.08325C 0.456651 2.08325 2.33562e-07 1.61712 2.33562e-07 1.04162C 2.33562e-07 0.466126 0.456651 6.55624e-07 1.02045 6.55624e-07L 28.4221 6.55624e-07C 28.9858 6.55624e-07 29.4425 0.466126 29.4425 1.04162C 29.4425 1.61712 28.9858 2.08325 28.4221 2.08325Z"/>
<path id="path6_fill" d="M 28.4221 2.08324L 1.02045 2.08324C 0.456651 2.08324 2.33562e-07 1.61712 2.33562e-07 1.04162C 2.33562e-07 0.466126 0.456651 1.09271e-06 1.02045 1.09271e-06L 28.4221 1.09271e-06C 28.9858 1.09271e-06 29.4425 0.466126 29.4425 1.04162C 29.4425 1.61712 28.9858 2.08324 28.4221 2.08324Z"/>
<path id="path7_fill" d="M 4.13282 8.43454C 1.85467 8.43454 7.2015e-07 6.54139 7.2015e-07 4.21597C 7.2015e-07 1.89055 1.85467 -5.96021e-08 4.13282 -5.96021e-08C 6.41097 -5.96021e-08 8.26308 1.89315 8.26308 4.21597C 8.26563 6.54139 6.41097 8.43454 4.13282 8.43454ZM 4.13282 2.08325C 2.97971 2.08325 2.0409 3.03893 2.0409 4.21336C 2.0409 5.3904 2.97971 6.34609 4.13282 6.34609C 5.28592 6.34609 6.22219 5.3904 6.22219 4.21336C 6.22474 3.04154 5.28592 2.08325 4.13282 2.08325Z"/>
<path id="path8_fill" d="M 7.77416 29.4147C 7.72569 29.4147 7.56497 29.4095 7.5165 29.4043C 6.8328 29.3053 6.23838 28.7481 6.06746 28.0476L 5.26896 24.967L 2.21016 25.6961C 1.51371 25.8758 0.784086 25.592 0.355497 24.98C -0.0935003 24.4384 -0.129216 23.566 0.317231 22.9254L 4.39392 15.9882C 3.83268 15.8736 3.32755 15.5429 3.02907 15.0559C 2.55712 14.2904 2.54181 13.3893 2.98826 12.6524C 3.0954 12.4623 3.13622 12.1524 3.06989 11.9337C 3.00356 11.6967 2.81733 11.4988 2.56222 11.379C 1.77902 11.0379 1.29431 10.2775 1.29431 9.35826C 1.29431 8.46507 1.80454 7.68646 2.626 7.3271C 2.85305 7.22034 3.04183 7.01982 3.1005 6.80889C 3.17959 6.53026 3.15918 6.27246 3.04693 6.10059C 2.47293 5.1475 2.71273 4.15276 3.1949 3.57466C 3.7638 2.90021 4.56995 2.60855 5.34804 2.77C 5.60571 2.82729 5.88888 2.7674 6.11338 2.61376C 6.34043 2.43929 6.42972 2.15284 6.45778 1.95233C 6.51901 0.962786 7.26394 0.337813 7.93998 0.11126C 8.62879 -0.130917 9.61607 -0.00852706 10.2539 0.78571C 10.56 1.12163 11.1927 1.1633 11.5702 0.744046C 12.1544 0.0852196 13.0524 -0.16477 13.8535 0.11126C 14.5244 0.337813 15.2694 0.962786 15.3408 2.03045C 15.3561 2.24659 15.4939 2.48876 15.675 2.61376C 15.9224 2.79604 16.1546 2.84812 16.3689 2.78823C 17.2975 2.57991 18.2338 2.95749 18.6828 3.69705C 19.1624 4.34285 19.2006 5.31677 18.7261 6.10319C 18.619 6.29069 18.5782 6.60317 18.647 6.82452C 18.7083 7.05628 18.9047 7.2594 19.1522 7.37658C 19.9379 7.71771 20.4226 8.47809 20.4226 9.39472C 20.4226 10.2905 19.9098 11.0717 19.0884 11.4285C 18.8613 11.5353 18.6751 11.7332 18.6139 11.9467C 18.5348 12.2253 18.5578 12.4857 18.6675 12.6602C 19.2466 13.6133 19.0042 14.608 18.5144 15.1835C 18.4404 15.2877 18.3537 15.3814 18.2618 15.4674L 22.5273 22.6025C 22.8972 23.2665 22.8615 23.9983 22.4508 24.592C 22.0196 25.204 21.3002 25.4878 20.5833 25.3081L 17.5373 24.5816L 16.7388 27.6752C 16.5551 28.3965 15.9811 28.9252 15.2745 29.0163C 15.2643 29.0189 15.2541 29.0189 15.2438 29.0189C 14.4249 29.0189 13.8892 28.709 13.5448 28.1726L 11.3202 24.5764L 9.31504 28.4694C 8.91451 29.1022 8.37112 29.4147 7.77416 29.4147ZM 6.00623 22.6806C 6.45778 22.6806 6.87106 22.9905 6.99096 23.4566L 7.8609 26.8211L 12.0932 18.5011C 11.8636 18.3761 11.6493 18.2042 11.4631 17.9725C 11.1569 17.6314 10.5243 17.5923 10.1467 18.0142C 9.43749 18.8084 8.50123 18.8553 7.866 18.6469C 7.00627 18.3579 6.43482 17.6183 6.3787 16.7278C 6.3787 16.7095 6.37614 16.6939 6.37359 16.6757L 2.34282 23.5295L 5.77153 22.7119C 5.85061 22.691 5.92715 22.6806 6.00623 22.6806ZM 12.4121 22.4463L 14.9301 26.5164L 15.8204 23.0764C 15.9607 22.5322 16.5067 22.2041 17.0398 22.3291L 20.4634 23.1441L 16.1725 15.9674C 15.9735 15.9674 15.7719 16.0273 15.601 16.1418C 15.3765 16.3163 15.2847 16.6054 15.254 16.8111C 15.2209 17.3553 14.953 17.8657 14.5193 18.2329L 12.4121 22.4463ZM 10.8202 15.6132C 11.657 15.6132 12.4325 15.9674 13.004 16.608C 13.3535 15.6679 13.777 14.9309 14.4249 14.4388C 15.1495 13.9492 15.9888 13.7826 16.7669 13.944C 16.7694 13.944 16.7745 13.944 16.7924 13.944C 16.522 13.1263 16.4097 12.2384 16.6521 11.3764C 16.8715 10.5796 17.4557 9.90512 18.2567 9.52753C 18.2465 9.52232 18.3026 9.27233 18.295 9.26973C 17.4965 8.88954 16.9097 8.21508 16.6878 7.41564C 16.4633 6.66567 16.5704 5.74383 16.9735 5.03293C 16.1699 5.06678 15.2132 4.86366 14.4964 4.31421C 13.8382 3.87152 13.3611 3.03822 13.3024 2.17628C 11.7131 3.40799 9.85332 3.43143 8.71042 2.15024C 8.36602 3.08249 7.94253 3.81944 7.29455 4.31421C 6.55983 4.81679 5.70775 4.98605 4.92201 4.80637C 5.19242 5.62144 5.30978 6.51203 5.06487 7.37918C 4.84547 8.17863 4.25871 8.85308 3.45766 9.22806C 3.46786 9.23327 3.41174 9.48587 3.42194 9.48847C 4.22045 9.86606 4.80465 10.5405 5.02915 11.3426C 5.2562 12.0925 5.14906 13.017 4.74088 13.7279C 4.84292 13.7513 4.98834 13.9206 5.06232 13.9258C 5.72051 13.6966 6.51646 13.9622 7.17209 14.4075C 7.88131 14.8893 8.35581 15.7226 8.41704 16.5845C 9.20789 15.9674 9.98343 15.6132 10.8202 15.6132Z"/>
</defs>
</svg>
