<svg width="349" height="297" viewBox="0 0 349 297" version="1.1" xmlns="http://www.w3.org/2000/svg" xmlns:xlink="http://www.w3.org/1999/xlink">
<title>Component</title>
<desc>Created using Figma</desc>
<g id="Canvas" transform="translate(-23742 958)">
<g id="Component">
<g id="icon">
<g id="Group">
<g id="Vector">
<use xlink:href="#path0_stroke" transform="translate(23994.2 -665.374)" fill="#455A64"/>
</g>
<g id="Vector">
<use xlink:href="#path1_stroke" transform="translate(23986 -670)" fill="#455A64"/>
</g>
</g>
<g id="Group">
<g id="Vector">
<use xlink:href="#path2_stroke" transform="translate(23751.2 -827.375)" fill="#455A64"/>
</g>
<g id="Vector">
<use xlink:href="#path3_stroke" transform="translate(23743 -832)" fill="#455A64"/>
</g>
</g>
<g id="Group">
<g id="Vector">
<use xlink:href="#path4_stroke" transform="translate(23975 -948)" fill="#455A64"/>
</g>
<g id="Vector">
<use xlink:href="#path5_stroke" transform="translate(23971 -944.044)" fill="#455A64"/>
</g>
</g>
<g id="Group">
<g id="Vector">
<use xlink:href="#path6_stroke" transform="translate(24086 -853)" fill="#455A64"/>
</g>
<g id="Vector">
<use xlink:href="#path7_stroke" transform="translate(24082 -849.043)" fill="#455A64"/>
</g>
</g>
</g>
<g id="Group">
<g id="Vector">
<use xlink:href="#path8_fill" transform="translate(23851.4 -906.581)" fill="#FFCC80"/>
</g>
<g id="Vector">
<use xlink:href="#path9_fill" transform="translate(23860.9 -886.148)" fill="#FFB74D"/>
</g>
<g id="Vector" opacity="0.3">
<use xlink:href="#path10_fill" transform="translate(23886.3 -895.576)" fill="#FFFFFF"/>
</g>
<g id="Group">
<g id="Group">
<g id="zMsd0o 2">
<g id="Group">
<g id="Vector">
<use xlink:href="#path11_fill" transform="translate(23885.7 -812.766)" fill="#5C6E77"/>
</g>
<g id="Vector">
<use xlink:href="#path12_fill" transform="translate(23898.4 -817.097)" fill="#5C6E77"/>
</g>
<g id="Vector">
<use xlink:href="#path13_fill" transform="translate(23896.8 -816.46)" fill="#5C6E77"/>
</g>
<g id="Vector">
<use xlink:href="#path14_fill" transform="translate(23892.8 -815.186)" fill="#5C6E77"/>
</g>
<g id="Vector">
<use xlink:href="#path15_fill" transform="translate(23888.4 -813.657)" fill="#5C6E77"/>
</g>
<g id="Vector">
<use xlink:href="#path16_fill" transform="translate(23894.1 -815.441)" fill="#5C6E77"/>
</g>
<g id="Vector">
<use xlink:href="#path17_fill" transform="translate(23894.9 -815.696)" fill="#5C6E77"/>
</g>
<g id="Vector">
<use xlink:href="#path18_fill" transform="translate(23891.4 -814.677)" fill="#5C6E77"/>
</g>
<g id="Vector">
<use xlink:href="#path19_fill" transform="translate(23887.6 -813.275)" fill="#5C6E77"/>
</g>
<g id="Vector">
<use xlink:href="#path20_fill" transform="translate(23890 -814.167)" fill="#5C6E77"/>
</g>
<g id="Vector">
<use xlink:href="#path21_fill" transform="translate(23890.9 -814.294)" fill="#5C6E77"/>
</g>
<g id="Vector">
<use xlink:href="#path22_fill" transform="translate(23897.9 -816.588)" fill="#5C6E77"/>
</g>
<g id="Vector">
<use xlink:href="#path23_fill" transform="translate(23887.1 -813.02)" fill="#5C6E77"/>
</g>
<g id="Vector">
<use xlink:href="#path24_fill" transform="translate(23899.8 -817.607)" fill="#5C6E77"/>
</g>
<g id="Vector">
<use xlink:href="#path25_fill" transform="translate(23902.6 -818.499)" fill="#5C6E77"/>
</g>
<g id="Vector">
<use xlink:href="#path26_fill" transform="translate(23905.7 -819.518)" fill="#5C6E77"/>
</g>
<g id="Vector">
<use xlink:href="#path27_fill" transform="translate(23901.7 -817.989)" fill="#5C6E77"/>
</g>
<g id="Vector">
<use xlink:href="#path28_fill" transform="translate(23904.3 -819.008)" fill="#5C6E77"/>
</g>
<g id="Vector">
<use xlink:href="#path29_fill" transform="translate(23905.2 -819.008)" fill="#5C6E77"/>
</g>
<g id="Vector">
<use xlink:href="#path30_fill" transform="translate(23901.2 -817.734)" fill="#5C6E77"/>
</g>
<g id="Vector">
<use xlink:href="#path31_fill" transform="translate(23896 -815.951)" fill="#5C6E77"/>
</g>
</g>
</g>
<g id="Group">
<g id="Vector">
<use xlink:href="#path32_fill" transform="translate(23926.1 -848.501)" fill="#5C6E77"/>
</g>
<g id="Vector">
<use xlink:href="#path33_fill" transform="translate(23929.6 -838.5)" fill="#5C6E77"/>
</g>
<g id="Vector">
<use xlink:href="#path34_fill" transform="translate(23934.7 -840.284)" fill="#5C6E77"/>
</g>
<g id="Group">
<g id="Vector">
<use xlink:href="#path35_fill" transform="translate(23944.3 -844.106)" fill="#5C6E77"/>
</g>
<g id="Vector">
<use xlink:href="#path36_fill" transform="translate(23943.7 -839.52)" fill="#5C6E77"/>
</g>
<g id="Vector">
<use xlink:href="#path37_fill" transform="translate(23949.3 -842.195)" fill="#5C6E77"/>
</g>
</g>
<g id="Vector">
<use xlink:href="#path38_fill" transform="translate(23934.3 -827.469)" fill="#5C6E77"/>
</g>
<g id="Vector">
<use xlink:href="#path39_fill" transform="translate(23947.5 -832.565)" fill="#5C6E77"/>
</g>
</g>
</g>
</g>
<g id="Vector">
<use xlink:href="#path40_fill" transform="translate(23847.5 -942.823)" fill="#FFB74D"/>
</g>
<g id="Vector">
<use xlink:href="#path41_fill" transform="translate(23841 -958)" fill="#FFCC80"/>
</g>
<g id="Vector" opacity="0.3">
<use xlink:href="#path42_fill" transform="translate(23864.2 -950.594)" fill="#FFFFFF"/>
</g>
<g id="Group">
<g id="Vector">
<use xlink:href="#path43_fill" transform="matrix(0.947206 -0.320574 0.319427 0.947593 23881.3 -699.624)" fill="#29262D"/>
</g>
<g id="Vector">
<use xlink:href="#path44_fill" transform="translate(23894.3 -699.633)" fill="#A6A7AB"/>
</g>
<g id="Vector">
<use xlink:href="#path45_fill" transform="matrix(0.947206 -0.320574 0.319427 0.947593 23900.6 -690.031)" fill="#919191"/>
</g>
</g>
<g id="Vector">
<use xlink:href="#path46_fill" transform="translate(23881.6 -819.919)" fill="#FFB74D"/>
</g>
<g id="Vector" opacity="0.3">
<use xlink:href="#path47_fill" transform="matrix(0.947206 -0.320574 0.319427 0.947593 23920.8 -803.923)" fill="#FFFFFF"/>
</g>
<g id="Vector" opacity="0.3">
<use xlink:href="#path48_fill" transform="matrix(0.947206 -0.320574 0.319427 0.947593 23891 -755.109)" fill="#FFFFFF"/>
</g>
<g id="Group">
<g id="Vector">
<use xlink:href="#path49_fill" transform="matrix(0.947206 -0.320574 0.319427 0.947593 23958.2 -755.886)" fill="#FFFFFF"/>
</g>
<g id="Group">
<g id="Vector">
<use xlink:href="#path50_fill" transform="matrix(0.947206 -0.320574 0.319427 0.947593 23962.4 -753.271)" fill="#939393"/>
</g>
<g id="Vector">
<use xlink:href="#path51_fill" transform="matrix(0.947206 -0.320574 0.319427 0.947593 23963.4 -750.348)" fill="#939393"/>
</g>
<g id="Vector">
<use xlink:href="#path52_fill" transform="matrix(0.947206 -0.320574 0.319427 0.947593 23964.4 -747.425)" fill="#939393"/>
</g>
<g id="Vector">
<use xlink:href="#path53_fill" transform="matrix(0.947206 -0.320574 0.319427 0.947593 23965.4 -744.483)" fill="#939393"/>
</g>
<g id="Vector">
<use xlink:href="#path54_fill" transform="matrix(0.947206 -0.320574 0.319427 0.947593 23977.1 -745.288)" fill="#939393"/>
</g>
</g>
</g>
<g id="Group">
<g id="Vector">
<use xlink:href="#path55_fill" transform="translate(23846.8 -785.142)" fill="#919191"/>
</g>
<g id="Vector">
<use xlink:href="#path56_fill" transform="translate(23846.8 -785.27)" fill="#29262D"/>
</g>
</g>
<g id="Vector">
<use xlink:href="#path57_fill" transform="translate(23923 -732.73)" fill="#919191"/>
</g>
</g>
</g>
</g>
<defs>
<path id="path0_stroke" d="M -6.09229e-06 -1.00001C -0.552291 -1.00001 -1.00001 -0.552291 -1.00001 -6.5918e-06C -1.00001 0.552278 -0.552291 0.999993 -6.09229e-06 0.999993L -6.09229e-06 -1.00001ZM 36.9629 0.999993C 37.5152 0.999993 37.9629 0.552278 37.9629 -6.5918e-06C 37.9629 -0.552291 37.5152 -1.00001 36.9629 -1.00001L 36.9629 0.999993ZM -6.09229e-06 0.999993L 36.9629 0.999993L 36.9629 -1.00001L -6.09229e-06 -1.00001L -6.09229e-06 0.999993Z"/>
<path id="path1_stroke" d="M 1.13443e-05 -1.00001C -0.552273 -1.00001 -0.999989 -0.552296 -0.999989 -1.14746e-05C -0.999989 0.552273 -0.552273 0.999988 1.13443e-05 0.999988L 1.13443e-05 -1.00001ZM 30.8741 0.999988C 31.4264 0.999988 31.8741 0.552273 31.8741 -1.14746e-05C 31.8741 -0.552296 31.4264 -1.00001 30.8741 -1.00001L 30.8741 0.999988ZM 1.13443e-05 0.999988L 30.8741 0.999988L 30.8741 -1.00001L 1.13443e-05 -1.00001L 1.13443e-05 0.999988Z"/>
<path id="path2_stroke" d="M 1.23421e-06 -1C -0.552284 -1 -0.999999 -0.552288 -0.999999 -3.41797e-06C -0.999999 0.552281 -0.552284 0.999997 1.23421e-06 0.999997L 1.23421e-06 -1ZM 36.9629 0.999997C 37.5152 0.999997 37.9629 0.552281 37.9629 -3.41797e-06C 37.9629 -0.552288 37.5152 -1 36.9629 -1L 36.9629 0.999997ZM 1.23421e-06 0.999997L 36.9629 0.999997L 36.9629 -1L 1.23421e-06 -1L 1.23421e-06 0.999997Z"/>
<path id="path3_stroke" d="M -1.02413e-06 -1C -0.552286 -1 -1 -0.552286 -1 -1.2207e-06C -1 0.552284 -0.552286 0.999999 -1.02413e-06 0.999999L -1.02413e-06 -1ZM 30.875 0.999999C 31.4273 0.999999 31.875 0.552284 31.875 -1.2207e-06C 31.875 -0.552286 31.4273 -1 30.875 -1L 30.875 0.999999ZM -1.02413e-06 0.999999L 30.875 0.999999L 30.875 -1L -1.02413e-06 -1L -1.02413e-06 0.999999Z"/>
<path id="path4_stroke" d="M 0.999993 5.24843e-06C 0.999993 -0.552279 0.552278 -0.999995 -6.5918e-06 -0.999995C -0.552291 -0.999995 -1.00001 -0.552279 -1.00001 5.24843e-06L 0.999993 5.24843e-06ZM -1.00001 7.91368C -1.00001 8.46597 -0.552291 8.91368 -6.5918e-06 8.91368C 0.552278 8.91368 0.999993 8.46597 0.999993 7.91368L -1.00001 7.91368ZM -1.00001 5.24843e-06L -1.00001 7.91368L 0.999993 7.91368L 0.999993 5.24843e-06L -1.00001 5.24843e-06Z"/>
<path id="path5_stroke" d="M 3.15118e-06 -0.999996C -0.552282 -0.999996 -0.999997 -0.552281 -0.999997 4.02832e-06C -0.999997 0.552289 -0.552282 1 3.15118e-06 1L 3.15118e-06 -0.999996ZM 7.91903 1C 8.47132 1 8.91903 0.552289 8.91903 4.02832e-06C 8.91903 -0.552281 8.47132 -0.999996 7.91903 -0.999996L 7.91903 1ZM 3.15118e-06 1L 7.91903 1L 7.91903 -0.999996L 3.15118e-06 -0.999996L 3.15118e-06 1Z"/>
<path id="path6_stroke" d="M 1.00001 -6.08818e-06C 1.00001 -0.552291 0.55229 -1.00001 5.61523e-06 -1.00001C -0.552279 -1.00001 -0.999994 -0.552291 -0.999994 -6.08818e-06L 1.00001 -6.08818e-06ZM -0.999994 7.91369C -0.999994 8.46597 -0.552279 8.91369 5.61523e-06 8.91369C 0.55229 8.91369 1.00001 8.46597 1.00001 7.91369L -0.999994 7.91369ZM -0.999994 -6.08818e-06L -0.999994 7.91369L 1.00001 7.91369L 1.00001 -6.08818e-06L -0.999994 -6.08818e-06Z"/>
<path id="path7_stroke" d="M -6.51245e-06 -1C -0.552291 -1 -1.00001 -0.552287 -1.00001 -2.0752e-06C -1.00001 0.552283 -0.552291 0.999998 -6.51245e-06 0.999998L -6.51245e-06 -1ZM 7.91816 0.999998C 8.47044 0.999998 8.91816 0.552283 8.91816 -2.0752e-06C 8.91816 -0.552287 8.47044 -1 7.91816 -1L 7.91816 0.999998ZM -6.51245e-06 0.999998L 7.91816 0.999998L 7.91816 -1L -6.51245e-06 -1L -6.51245e-06 0.999998Z"/>
<path id="path8_fill" d="M 91.7824 2.7241L 96.7411 17.5026C 97.2497 18.904 96.614 19.541 95.4697 19.9232L 7.61106 49.6077C 6.46674 49.8625 5.70386 49.7351 5.19527 48.4611L 0.236536 33.6826C -0.526347 31.5167 0.617977 29.2235 2.77948 28.5865L 86.5694 0.17608C 88.7309 -0.460926 91.1467 0.685684 91.7824 2.7241Z"/>
<path id="path9_fill" d="M 84.6799 -1.94399e-06L 105.151 60.7703C 106.168 63.7005 104.261 66.8856 101.082 68.0322L 28.0995 92.748C 24.9208 93.8946 21.4879 92.3658 20.4707 89.4355L -9.70055e-07 28.5378L 84.6799 -1.94399e-06Z"/>
<path id="path10_fill" d="M 19.0721 9.71993e-07L 34.7111 46.2466L 31.0239 43.189L 28.9895 48.4124L 24.2851 45.3548L 22.3779 50.5782L 17.6734 47.648L 15.6391 52.8714L -9.70055e-07 6.37005L 19.0721 9.71993e-07Z"/>
<path id="path11_fill" fill-rule="evenodd" d="M 4.83159 11.3387C 4.45014 11.4661 4.19585 11.5935 3.81441 11.7209C 2.54294 7.89887 1.27147 4.20424 -9.70055e-07 0.382203C 0.38144 0.254802 0.635733 0.127397 1.01717 -3.88797e-06C 2.28865 3.69463 3.43297 7.51666 4.83159 11.3387Z"/>
<path id="path12_fill" fill-rule="evenodd" d="M 4.5773 11.3387C 4.323 11.4661 4.06871 11.4661 3.81441 11.5935C 2.54294 7.77147 1.27147 4.07683 -9.70055e-07 0.254802C 0.254293 0.127401 0.50859 0.127405 0.762884 3.88797e-06C 2.03435 3.82204 3.30583 7.64406 4.5773 11.3387Z"/>
<path id="path13_fill" fill-rule="evenodd" d="M 4.57729 11.3387C 4.323 11.4661 4.06871 11.4661 3.81441 11.5935C 2.54294 7.77147 1.27147 4.07683 0 0.254802C 0.254294 0.127401 0.508586 0.127405 0.76288 3.88797e-06C 2.03435 3.69463 3.30582 7.51666 4.57729 11.3387Z"/>
<path id="path14_fill" fill-rule="evenodd" d="M 1.94011e-06 0.254802C 0.254296 0.127401 0.508588 0.127405 0.762882 3.88797e-06C 2.03435 3.82204 3.30582 7.51666 4.57729 11.3387C 4.323 11.4661 4.06871 11.4661 3.81441 11.5935C 2.54294 7.89887 1.27147 4.07683 1.94011e-06 0.254802Z"/>
<path id="path15_fill" fill-rule="evenodd" d="M 1.94011e-06 0.254798C 0.254296 0.127397 0.508588 0.127401 0.762882 0C 2.03435 3.82203 3.30582 7.51666 4.57729 11.3387C 4.323 11.4661 4.06871 11.4661 3.81441 11.5935C 2.54294 7.77146 1.27147 4.07683 1.94011e-06 0.254798Z"/>
<path id="path16_fill" fill-rule="evenodd" d="M 1.94011e-06 0.127397C 0.127149 0.127397 0.254293 -1.94399e-06 0.508587 -1.94399e-06C 1.78006 3.82203 3.05153 7.51666 4.323 11.3387C 4.19585 11.3387 4.06871 11.4661 3.81441 11.4661C 2.54294 7.77146 1.27147 3.94943 1.94011e-06 0.127397Z"/>
<path id="path17_fill" fill-rule="evenodd" d="M 0 0.127401C 0.127147 0.127401 0.254296 1.94399e-06 0.50859 1.94399e-06C 1.78006 3.82203 3.05153 7.51667 4.323 11.3387C 4.19585 11.3387 4.06871 11.4661 3.81441 11.4661C 2.54294 7.77147 1.27147 3.94943 0 0.127401Z"/>
<path id="path18_fill" fill-rule="evenodd" d="M 4.323 11.4661C 4.19585 11.4661 4.0687 11.5935 3.81441 11.5935C 2.54294 7.77147 1.27147 4.07684 -9.70055e-07 0.254804C 0.127146 0.254804 0.254295 0.127397 0.508589 -3.88797e-06C 1.78006 3.82203 3.05153 7.64406 4.323 11.4661Z"/>
<path id="path19_fill" fill-rule="evenodd" d="M -9.70055e-07 0.127403C 0.127146 0.127403 0.254295 3.88797e-06 0.508589 3.88797e-06C 1.78006 3.82204 3.05153 7.51666 4.323 11.3387C 4.19585 11.3387 4.0687 11.4661 3.81441 11.4661C 2.54294 7.77147 1.27147 3.94943 -9.70055e-07 0.127403Z"/>
<path id="path20_fill" fill-rule="evenodd" d="M 4.323 11.4661C 4.19585 11.4661 4.06871 11.5935 3.81441 11.5935C 2.54294 7.77146 1.27147 4.07684 9.70055e-07 0.254806C 0.127148 0.254806 0.254292 0.127399 0.508586 -1.94399e-06C 1.78006 3.82203 3.05153 7.64406 4.323 11.4661Z"/>
<path id="path21_fill" fill-rule="evenodd" d="M 3.81441 11.3387C 2.54294 7.51666 1.27147 3.82203 1.94011e-06 0L 0.127147 0C 1.39862 3.82203 2.67009 7.51666 3.81441 11.3387C 3.94156 11.3387 3.94156 11.3387 3.81441 11.3387Z"/>
<path id="path22_fill" fill-rule="evenodd" d="M 3.81441 11.3387C 2.54294 7.51666 1.27147 3.82203 1.94011e-06 -3.88797e-06L 0.127147 -3.88797e-06C 1.39862 3.69463 2.67009 7.51666 3.81441 11.3387C 3.94156 11.3387 3.94156 11.3387 3.81441 11.3387Z"/>
<path id="path23_fill" fill-rule="evenodd" d="M 3.94156 11.3387L 0.127147 0L 1.94011e-06 0L 3.81441 11.3387L 3.94156 11.3387Z"/>
<path id="path24_fill" fill-rule="evenodd" d="M 4.83159 11.3387C 4.45015 11.4661 4.19585 11.5935 3.81441 11.7209C 2.54294 7.89887 1.27147 4.20423 1.94011e-06 0.382199C 0.381443 0.254798 0.635736 0.127403 1.01718 1.94399e-06C 2.28865 3.82203 3.56012 7.51667 4.83159 11.3387Z"/>
<path id="path25_fill" fill-rule="evenodd" d="M -1.94011e-06 0.254804C 0.254292 0.127403 0.508589 0.127397 0.762883 -3.88797e-06C 2.03435 3.82203 3.30582 7.51666 4.5773 11.3387C 4.323 11.4661 4.0687 11.4661 3.81441 11.5935C 2.54294 7.89887 1.27147 4.07684 -1.94011e-06 0.254804Z"/>
<path id="path26_fill" fill-rule="evenodd" d="M 4.323 11.4661C 4.19585 11.4661 4.06871 11.5935 3.81441 11.5935C 2.54294 7.77147 1.27147 4.07683 0 0.2548C 0.127147 0.2548 0.254296 0.127403 0.50859 1.94399e-06C 1.78006 3.94943 3.05153 7.64407 4.323 11.4661Z"/>
<path id="path27_fill" fill-rule="evenodd" d="M 1.94011e-06 0.127397C 0.127149 0.127397 0.254293 -1.94399e-06 0.508587 -1.94399e-06C 1.78006 3.82203 3.05153 7.51666 4.323 11.3387C 4.19585 11.3387 4.06871 11.4661 3.81441 11.4661C 2.54294 7.64406 1.27147 3.94943 1.94011e-06 0.127397Z"/>
<path id="path28_fill" fill-rule="evenodd" d="M 4.323 11.4661C 4.19585 11.4661 4.06871 11.5935 3.81441 11.5935C 2.54294 7.77147 1.27147 4.07683 1.94011e-06 0.254802C 0.127149 0.254802 0.254293 0.127405 0.508587 3.88797e-06C 1.78006 3.82204 3.05153 7.64407 4.323 11.4661Z"/>
<path id="path29_fill" fill-rule="evenodd" d="M 3.81441 11.3387C 2.54294 7.51666 1.27147 3.82204 -1.94011e-06 3.88797e-06L 0.127148 3.88797e-06C 1.39862 3.69463 2.67009 7.51666 3.81441 11.3387C 3.94156 11.2113 3.81441 11.3387 3.81441 11.3387Z"/>
<path id="path30_fill" fill-rule="evenodd" d="M 3.94156 11.3387L 0.127145 3.88797e-06L 0 3.88797e-06L 3.81441 11.3387L 3.94156 11.3387Z"/>
<path id="path31_fill" fill-rule="evenodd" d="M 3.81441 11.3387C 2.54294 7.51666 1.27147 3.82203 1.94011e-06 -3.88797e-06L 0.127147 -3.88797e-06C 1.39862 3.69463 2.67009 7.51666 3.81441 11.3387C 3.94156 11.3387 3.81441 11.3387 3.81441 11.3387Z"/>
<path id="path32_fill" d="M 22.1856 0.190649L 2.47785 6.8155C 0.570649 7.4525 -0.446531 9.49092 0.189204 11.4019L 6.80086 31.1491C 7.43659 33.0601 9.47094 34.0793 11.3781 33.4423L 31.0859 26.8175C 32.9931 26.1805 34.0103 24.142 33.3746 22.231L 26.7629 2.35646C 26.1272 0.572848 24.0929 -0.446357 22.1856 0.190649ZM 25.7458 2.73867L 28.9244 12.2937L 17.3541 16.2432L 13.2854 4.39488L 22.4399 1.33725C 23.8386 0.700245 25.3643 1.46466 25.7458 2.73867ZM 2.8593 7.83471L 12.3953 4.64969L 16.464 16.498L 4.63935 20.5748L 1.46067 11.0197C 0.952086 9.74573 1.58783 8.21692 2.8593 7.83471ZM 7.94518 30.7669L 4.89365 21.594L 16.7183 17.5172L 20.6599 29.1107L 11.1239 32.2957C 9.85239 32.6779 8.45377 32.0409 7.94518 30.7669ZM 30.8317 25.6709L 21.6771 28.7285L 17.7355 17.135L 29.3059 13.1856L 32.3574 22.3584C 32.866 23.7598 32.1031 25.1613 30.8317 25.6709Z"/>
<path id="path33_fill" d="M 4.83159 1.52881L 1.65291 0L 3.88022e-06 3.18503L 1.39862 2.67542L 3.05153 7.64406L 4.83159 7.00706L 3.17868 2.16581L 4.83159 1.52881Z"/>
<path id="path34_fill" d="M 4.70444 1.65622L 1.52576 -1.94399e-06L 3.88022e-06 3.31242L 1.39862 2.80283L 3.05153 7.64406L 4.83159 7.13446L 3.17868 2.16582L 4.70444 1.65622Z"/>
<path id="path35_fill" fill-rule="evenodd" d="M 4.95874 0.891811L 3.81441 -1.94399e-06L 0.762882 1.01921L 1.94011e-06 3.56723L 1.90721 4.07684L 2.54294 1.65622L 3.56011 2.29322L 3.30582 2.80283L 5.34017 2.29322L 5.34017 0.509604L 4.95874 0.891811Z"/>
<path id="path36_fill" fill-rule="evenodd" d="M 0.508592 1.01921L 0.508592 2.54802L 2.92438 4.45903L 5.59447 3.69463L 4.83158 1.91101L 2.54294 2.67543L 2.54294 1.40142L 3.05153 1.40142L 1.52576 -3.88797e-06L 1.94011e-06 0.891809L 0.508592 1.01921Z"/>
<path id="path37_fill" fill-rule="evenodd" d="M 1.52576 5.73305L 2.79724 5.09604L 3.30583 2.03841L 1.39862 -1.94399e-06L 0.127149 1.52882L 1.90721 3.18502L 0.762884 3.82203L 0.508584 3.31242L 3.88022e-06 5.35085L 1.65291 6.24265L 1.52576 5.73305Z"/>
<path id="path38_fill" d="M 3.67314 0.434974L 3.54599 0.180176C 3.54599 0.0527751 3.2917 -0.0746337 3.16455 0.0527674C 3.0374 0.0527674 2.91026 0.307573 3.0374 0.434974L 3.16455 0.689773C -0.904157 2.34599 0.113018 5.91322 0.113018 5.91322C 0.367312 5.40362 0.875904 4.89401 1.1302 4.76661C 2.27452 4.25701 3.16455 4.89401 3.16455 4.89401C 3.2917 4.12961 3.80029 3.7474 4.18173 3.62L 5.58034 7.82424C 5.58034 7.95164 5.83463 8.58864 5.1989 8.84344L 5.07175 8.84344C 4.56317 8.97084 4.30888 8.46124 4.18173 8.20644C 4.18173 8.07904 3.92743 7.95164 3.80028 8.07904C 3.67314 8.07904 3.54599 8.33384 3.67314 8.46125C 3.92743 9.22565 4.56316 9.60785 5.1989 9.35305L 5.32604 9.35305C 5.96178 9.09825 6.21607 8.46124 5.96178 7.69683L 4.56316 3.4926C 4.94461 3.3652 5.70749 3.3652 6.21608 3.8748C 6.21608 3.8748 6.59752 2.85559 7.74184 2.60079C 8.12328 2.47339 8.75902 2.60079 9.26761 2.8556C 9.39476 2.7282 7.99614 -0.839036 3.67314 0.434974Z"/>
<path id="path39_fill" d="M 6.41002 0.180176C 6.41002 0.0527751 6.15572 -0.0746337 6.02858 0.0527674L 0.179813 1.96378C 0.052666 1.96378 -0.0744791 2.21859 0.052668 2.34599C 0.688403 4.38441 2.5956 5.65842 4.24851 5.40362L 5.39284 8.71604L 3.99422 9.22565C 3.86708 9.22565 3.73993 9.48045 3.86708 9.60785C 3.86708 9.73525 4.12137 9.86266 4.24851 9.73526L 7.68149 8.58864C 7.80864 8.58864 7.93578 8.33384 7.80864 8.20644C 7.80864 8.07904 7.55434 7.95164 7.42719 8.07904L 5.90143 8.58864L 4.7571 5.27622C 6.41002 4.51181 7.1729 2.34599 6.41002 0.180176Z"/>
<path id="path40_fill" d="M 64.9721 -4.85997e-07L 77.3054 36.6915C 78.0683 38.8573 76.6697 41.4053 74.2539 42.1698L 18.182 61.1525C 15.7662 62.0443 13.0961 60.8977 12.3333 58.6045L -1.21257e-07 21.913L 64.9721 -4.85997e-07Z"/>
<path id="path41_fill" d="M 69.566 2.05497L 73.2532 13.0115C 73.6347 14.0307 73.1261 14.5403 72.3632 14.7951L 5.73814 37.4725C 4.84811 37.7273 4.21238 37.5999 3.95808 36.5807L 0.143671 25.4968C -0.364918 23.968 0.525112 22.1843 2.05088 21.6747L 65.6244 0.143958C 67.2773 -0.365647 69.0574 0.526161 69.566 2.05497Z"/>
<path id="path42_fill" d="M 20.8521 2.42998e-07L 37.7627 50.4508L 33.694 47.011L 31.5325 52.744L 26.4466 49.559L 24.4122 55.1647L 19.1992 51.9796L 17.0377 57.7127L 9.70055e-07 7.13446L 20.8521 2.42998e-07Z"/>
<path id="path43_fill" d="M 20.3477 40.76C 31.5854 40.76 40.6954 31.6356 40.6954 20.38C 40.6954 9.12443 31.5854 -7.77436e-06 20.3477 -7.77436e-06C 9.10997 -7.77436e-06 0 9.12443 0 20.38C 0 31.6356 9.10997 40.76 20.3477 40.76Z"/>
<path id="path44_fill" d="M 16.8282 24.9007C 10.2166 27.1939 2.96919 23.6267 0.680548 16.8745C -1.6081 10.2496 2.07916 2.98774 8.69081 0.694516C 15.3025 -1.5987 22.5498 1.96853 24.7113 8.72079C 27 15.473 23.4399 22.6075 16.8282 24.9007Z"/>
<path id="path45_fill" d="M 5.08692 10.19C 7.89635 10.19 10.1738 7.90889 10.1738 5.095C 10.1738 2.2811 7.89635 -7.77436e-06 5.08692 -7.77436e-06C 2.27749 -7.77436e-06 0 2.2811 0 5.095C 0 7.90889 2.27749 10.19 5.08692 10.19Z"/>
<path id="path46_fill" d="M 118.959 72.95C 120.485 77.409 118.069 82.2503 113.619 83.7791L 33.8975 110.788C 29.4474 112.317 24.6158 109.896 23.09 105.437L 0.457864 38.2969C -1.0679 33.8379 1.34789 28.9966 5.79804 27.4678L 85.5192 0.458784C 89.9694 -1.07003 94.801 1.35059 96.3267 5.80963L 118.959 72.95Z"/>
<path id="path47_fill" d="M 13.4803 0L 1.94051e-06 0L 1.94051e-06 87.8888L 13.4803 87.8888L 13.4803 0Z"/>
<path id="path48_fill" d="M 101.23 3.88718e-06L 0 3.88718e-06L 0 13.5017L 101.23 13.5017L 101.23 3.88718e-06Z"/>
<path id="path49_fill" d="M 28.8683 7.77436e-06L -3.88101e-06 7.77436e-06L -3.88101e-06 22.2906L 28.8683 22.2906L 28.8683 7.77436e-06Z"/>
<path id="path50_fill" d="M 22.6368 -7.77436e-06L 0 -7.77436e-06L 0 1.019L 22.6368 1.019L 22.6368 -7.77436e-06Z"/>
<path id="path51_fill" d="M 22.6368 -3.88718e-06L 3.88101e-06 -3.88718e-06L 3.88101e-06 1.019L 22.6368 1.019L 22.6368 -3.88718e-06Z"/>
<path id="path52_fill" d="M 22.6368 0L -1.94051e-06 0L -1.94051e-06 1.019L 22.6368 1.019L 22.6368 0Z"/>
<path id="path53_fill" d="M 22.6368 3.88718e-06L 3.88101e-06 3.88718e-06L 3.88101e-06 1.01901L 22.6368 1.01901L 22.6368 3.88718e-06Z"/>
<path id="path54_fill" d="M 11.1912 7.77436e-06L 3.88101e-06 7.77436e-06L 3.88101e-06 1.01899L 11.1912 1.01899L 11.1912 7.77436e-06Z"/>
<path id="path55_fill" d="M 25.7641 1.99159C 25.2555 0.462773 23.6026 -0.429046 22.0768 0.20796L 1.98761 6.96022C 0.461847 7.46982 -0.428183 9.12605 0.207553 10.6549C 0.716141 12.1837 2.36905 13.0755 3.89482 12.4385L 21.1868 6.57801L 46.2348 80.8528C 47.7605 79.5788 49.5406 78.5596 51.4478 77.7952L 25.7641 1.99159Z"/>
<path id="path56_fill" d="M 3.89482 12.5659L 21.1868 6.70541L 21.1868 6.83282L 26.7813 4.92181L 25.7641 1.99158C 25.2555 0.462766 23.6026 -0.429034 22.0768 0.207971L 1.98761 6.96023C 0.461847 7.46984 -0.428183 9.12604 0.207553 10.6549C 0.716141 12.3111 2.36905 13.0755 3.89482 12.5659Z"/>
<path id="path57_fill" d="M 86.2057 0.157224L 3.88022e-06 29.3321C 1.39862 30.8609 2.54294 32.5171 3.56012 34.3007L 88.1129 5.63547C 89.6387 5.12587 90.4015 3.46964 89.893 1.94083C 89.3844 0.412019 87.7315 -0.35238 86.2057 0.157224Z"/>
</defs>
</svg>
