<svg width="66" height="61" viewBox="0 0 66 61" version="1.1" xmlns="http://www.w3.org/2000/svg" xmlns:xlink="http://www.w3.org/1999/xlink">
<title>cooperation</title>
<desc>Created using Figma</desc>
<g id="Canvas" transform="translate(-24015 594)">
<g id="cooperation">
<g id="Vector">
<use xlink:href="#path0_fill" transform="translate(24015 -594)" fill="#007CB1"/>
</g>
</g>
</g>
<defs>
<path id="path0_fill" d="M 66 19.5539C 66.0046 16.959 65.4878 14.39 64.4806 12.0014C 63.4734 9.61278 61.9967 7.45393 60.1393 5.6547C 56.4787 2.14948 51.656 0.136838 46.6056 0.00672542C 41.5551 -0.123387 36.6365 1.63829 32.8026 4.95044C 28.9666 1.6761 24.0592 -0.0471921 19.0325 0.114857C 14.0057 0.276907 9.21792 2.31275 5.5979 5.82745C 3.79983 7.60523 2.37721 9.73048 1.41546 12.0756C 0.453702 14.4207 -0.0273459 16.9373 0.00119992 19.4742C 0.00265968 24.9039 2.13248 30.1136 5.92789 33.9714C 5.57273 35.0031 5.52081 36.116 5.77836 37.1767C 6.0359 38.2373 6.59198 39.2006 7.37986 39.951C 8.51337 41.0512 10.0293 41.6616 11.6038 41.6519C 11.8324 41.6646 12.0616 41.6646 12.2902 41.6519C 12.15 42.5331 12.2325 43.4357 12.5301 44.2763C 12.8277 45.117 13.3308 45.8687 13.9929 46.4621C 15.1272 47.5611 16.6426 48.1713 18.2169 48.163C 18.4455 48.1758 18.6746 48.1758 18.9032 48.163C 18.7631 49.0442 18.8456 49.9468 19.1432 50.7874C 19.4408 51.6281 19.9439 52.3798 20.606 52.9732C 21.7395 54.0734 23.2554 54.6838 24.8299 54.6741C 25.0626 54.6167 25.2918 54.5457 25.5163 54.4615C 25.5063 54.6607 25.5063 54.8603 25.5163 55.0594C 25.544 56.2274 25.9051 57.3626 26.5564 58.3295C 27.2077 59.2965 28.1216 60.0543 29.1892 60.5124C 30.2567 60.9706 31.4327 61.1098 32.5766 60.9133C 33.7206 60.7169 34.7843 60.1931 35.6405 59.4046L 39.6005 55.4182C 40.0595 54.9578 40.4387 54.4234 40.7224 53.8369C 41.7271 54.1032 42.7829 54.105 43.7884 53.8421C 44.794 53.5791 45.7154 53.0603 46.4643 52.3354C 47.1224 51.7446 47.6229 50.9973 47.9204 50.1617C 48.2178 49.3261 48.3026 48.4288 48.1671 47.5517C 48.3387 47.5517 48.5103 47.5517 48.6819 47.5517C 50.2682 47.5556 51.7933 46.9358 52.9322 45.8243C 53.5975 45.2193 54.1009 44.4555 54.3961 43.6033C 54.6914 42.7511 54.769 41.8379 54.6218 40.9476C 55.5268 41.0938 56.4535 41.0193 57.324 40.7303C 58.1945 40.4413 58.9834 39.9462 59.6245 39.2866C 60.4965 38.4491 61.0824 37.3549 61.2983 36.1612C 61.5141 34.9676 61.3486 33.7357 60.8257 32.6426C 64.1354 29.0972 65.9847 24.4192 66 19.5539ZM 9.24103 38.0375C 8.93845 37.7427 8.69785 37.3896 8.53354 36.9992C 8.36923 36.6089 8.28455 36.1892 8.28455 35.7653C 8.28455 35.3413 8.36923 34.9217 8.53354 34.5314C 8.69785 34.141 8.93845 33.7879 9.24103 33.493L 13.201 29.5066C 13.8422 28.8886 14.6957 28.5436 15.5835 28.5436C 16.4713 28.5436 17.3248 28.8886 17.9661 29.5066C 18.2686 29.8015 18.5092 30.1546 18.6736 30.545C 18.8379 30.9353 18.9225 31.3549 18.9225 31.7789C 18.9225 32.2028 18.8379 32.6225 18.6736 33.0128C 18.5092 33.4032 18.2686 33.7563 17.9661 34.0511L 14.0061 38.0375C 13.3649 38.6556 12.5114 39.0006 11.6236 39.0006C 10.7358 39.0006 9.88228 38.6556 9.24103 38.0375ZM 15.8409 44.4955C 15.5383 44.2006 15.2977 43.8475 15.1334 43.4572C 14.9691 43.0668 14.8844 42.6472 14.8844 42.2233C 14.8844 41.7993 14.9691 41.3797 15.1334 40.9893C 15.2977 40.599 15.5383 40.2459 15.8409 39.951L 19.8008 35.9646C 20.4405 35.3435 21.2946 34.9964 22.1834 34.9964C 23.0722 34.9964 23.9263 35.3435 24.5659 35.9646C 24.8685 36.2595 25.1091 36.6126 25.2734 37.0029C 25.4377 37.3933 25.5224 37.8129 25.5224 38.2369C 25.5224 38.6608 25.4377 39.0804 25.2734 39.4708C 25.1091 39.8611 24.8685 40.2142 24.5659 40.5091L 20.606 44.4955C 19.9648 45.1136 19.1112 45.4586 18.2235 45.4586C 17.3357 45.4586 16.4822 45.1136 15.8409 44.4955ZM 27.2059 50.9535C 26.5646 51.5715 25.7111 51.9165 24.8233 51.9165C 23.9356 51.9165 23.082 51.5715 22.4408 50.9535C 22.1382 50.6586 21.8976 50.3055 21.7333 49.9151C 21.569 49.5248 21.4843 49.1052 21.4843 48.6812C 21.4843 48.2573 21.569 47.8376 21.7333 47.4473C 21.8976 47.0569 22.1382 46.7038 22.4408 46.409L 26.4007 42.4226C 27.042 41.8045 27.8955 41.4595 28.7833 41.4595C 29.6711 41.4595 30.5246 41.8045 31.1658 42.4226C 31.4684 42.7174 31.709 43.0705 31.8733 43.4609C 32.0376 43.8512 32.1223 44.2709 32.1223 44.6948C 32.1223 45.1188 32.0376 45.5384 31.8733 45.9287C 31.709 46.3191 31.4684 46.6722 31.1658 46.9671L 27.2059 50.9535ZM 37.8977 53.6111L 33.9378 57.5975C 33.2965 58.2155 32.443 58.5605 31.5552 58.5605C 30.6674 58.5605 29.8139 58.2155 29.1727 57.5975C 28.8563 57.2856 28.6047 56.9136 28.4325 56.503C 28.2602 56.0923 28.1708 55.6513 28.1695 55.2056C 28.1446 54.7762 28.2092 54.3462 28.3593 53.9435C 28.5093 53.5407 28.7414 53.174 29.0407 52.8669L 33.0006 48.8805C 33.668 48.2738 34.5392 47.9446 35.4383 47.9594C 36.3375 47.9742 37.1975 48.3319 37.8449 48.9603C 38.1595 49.2542 38.4109 49.6099 38.5836 50.0054C 38.7563 50.401 38.8467 50.8279 38.8492 51.26C 38.8517 51.692 38.7662 52.12 38.598 52.5175C 38.4298 52.915 38.1825 53.2736 37.8713 53.5712L 37.8977 53.6111ZM 57.7369 37.4661C 57.1007 38.0786 56.2544 38.4204 55.3742 38.4204C 54.4939 38.4204 53.6476 38.0786 53.0114 37.4661C 52.8781 37.3421 52.7208 37.2472 52.5494 37.1871L 43.6528 28.4835C 43.3973 28.2689 43.0707 28.1593 42.7384 28.1768C 42.4061 28.1943 42.0926 28.3374 41.8607 28.5776C 41.6287 28.8178 41.4955 29.1373 41.4876 29.4722C 41.4797 29.8071 41.5977 30.1326 41.818 30.3836L 51.0578 39.4461C 51.3638 39.739 51.6073 40.0915 51.7738 40.4821C 51.9402 40.8727 52.0261 41.2933 52.0261 41.7183C 52.0261 42.1433 51.9402 42.5639 51.7738 42.9545C 51.6073 43.3451 51.3638 43.6976 51.0578 43.9906C 50.487 44.5388 49.7453 44.8714 48.9586 44.932C 48.1719 44.9925 47.3886 44.7773 46.7415 44.3228C 46.6491 44.2164 46.5699 44.0969 46.4643 43.9906L 37.2245 34.9281C 37.1041 34.791 36.9569 34.6804 36.7921 34.6032C 36.6273 34.526 36.4484 34.4839 36.2667 34.4796C 36.085 34.4752 35.9043 34.5087 35.7361 34.5779C 35.5678 34.6471 35.4155 34.7506 35.2888 34.8818C 35.1621 35.013 35.0637 35.1692 34.9998 35.3405C 34.9358 35.5118 34.9077 35.6945 34.9172 35.8772C 34.9266 36.06 34.9735 36.2388 35.0548 36.4025C 35.1361 36.5661 35.2502 36.7111 35.3897 36.8283L 44.2468 45.4921C 44.314 45.641 44.408 45.7762 44.524 45.8907C 44.656 46.0236 44.8012 46.1166 44.9464 46.2229C 45.3799 46.7706 45.6171 47.4495 45.6196 48.1497C 45.6174 48.588 45.5247 49.021 45.3475 49.4213C 45.1702 49.8216 44.9123 50.1805 44.59 50.4751C 44.1811 50.8651 43.6825 51.147 43.1388 51.2954C 42.5952 51.4438 42.0234 51.4542 41.4748 51.3255C 41.4775 50.5447 41.3233 49.7715 41.0216 49.0522C 40.72 48.3329 40.277 47.6824 39.7193 47.1398C 39.0587 46.5121 38.2699 46.0371 37.4082 45.748C 36.5464 45.4588 35.6323 45.3624 34.7298 45.4655C 34.8808 44.5696 34.8012 43.6497 34.4984 42.7936C 34.1957 41.9375 33.68 41.1738 33.0006 40.5755C 32.3558 39.9539 31.5823 39.4838 30.7356 39.1989C 29.8888 38.914 28.99 38.8214 28.1035 38.9278C 28.2436 38.0466 28.1611 37.144 27.8635 36.3034C 27.5659 35.4627 27.0629 34.711 26.4007 34.1176C 25.7559 33.496 24.9824 33.0258 24.1357 32.7409C 23.289 32.456 22.3901 32.3635 21.5036 32.4699C 21.6438 31.5886 21.5612 30.6861 21.2636 29.8454C 20.9661 29.0047 20.463 28.253 19.8008 27.6596C 18.6657 26.5656 17.155 25.9549 15.5835 25.9549C 14.0121 25.9549 12.5013 26.5656 11.3662 27.6596L 7.40626 31.646C 4.35356 28.3366 2.6521 23.9904 2.64115 19.4742C 2.6144 17.2914 3.02623 15.1256 3.85189 13.107C 4.67756 11.0884 5.90003 9.25863 7.44586 7.72763C 10.5563 4.71197 14.6564 2.94803 18.9712 2.76929C 23.2859 2.59055 27.5162 4.00941 30.8622 6.75761L 22.8104 14.7304C 22.2065 15.2406 21.7168 15.8738 21.3735 16.5883C 21.0302 17.3028 20.8411 18.0824 20.8187 18.8757C 20.7963 19.6691 20.941 20.4582 21.2433 21.1912C 21.5456 21.9242 21.9987 22.5844 22.5728 23.1284C 23.7035 24.2207 25.2098 24.8306 26.7769 24.8306C 28.344 24.8306 29.8504 24.2207 30.981 23.1284L 39.6005 14.6905L 48.8403 23.9921L 57.7765 32.9217C 58.0799 33.2173 58.3204 33.5719 58.4835 33.964C 58.6465 34.3561 58.7287 34.7774 58.725 35.2025C 58.7213 35.6275 58.6318 36.0473 58.4619 36.4365C 58.2921 36.8256 58.0454 37.1759 57.7369 37.4661ZM 59.1889 30.5431L 50.6883 22.0919L 40.5244 11.9399C 40.4626 11.8897 40.3963 11.8452 40.3265 11.807C 40.2532 11.7454 40.1735 11.6919 40.0889 11.6476C 40.0142 11.6412 39.9391 11.6412 39.8645 11.6476C 39.703 11.5852 39.5243 11.5852 39.3629 11.6476C 39.2795 11.6396 39.1955 11.6396 39.1121 11.6476C 39.0377 11.6851 38.967 11.7296 38.9009 11.7805C 38.8257 11.8217 38.7549 11.8707 38.6897 11.9266L 29.1463 21.2282C 28.5088 21.8485 27.6569 22.1952 26.7703 22.1952C 25.8837 22.1952 25.0318 21.8485 24.3943 21.2282C 24.0937 20.9419 23.8561 20.5953 23.697 20.2108C 23.5378 19.8262 23.4606 19.4123 23.4704 18.9958C 23.489 18.5578 23.5998 18.1287 23.7955 17.737C 23.9912 17.3452 24.2673 16.9998 24.6055 16.7236L 33.753 7.75421C 37.0317 4.54345 41.415 2.73053 45.989 2.6934C 50.563 2.65626 54.9747 4.39778 58.3045 7.55489C 61.365 10.5342 63.1652 14.5877 63.3299 18.8703C 63.4947 23.153 62.0113 27.3344 59.1889 30.5431Z"/>
</defs>
</svg>
