<svg width="65" height="54" viewBox="0 0 65 54" version="1.1" xmlns="http://www.w3.org/2000/svg" xmlns:xlink="http://www.w3.org/1999/xlink">
<title>icon</title>
<desc>Created using Figma</desc>
<g id="Canvas" transform="translate(-23616 -208)">
<g id="icon">
<g id="Compound Path">
<use xlink:href="#path0_fill" transform="translate(23616 208)" fill="#007CB1"/>
</g>
<g id="Path">
<use xlink:href="#path1_fill" transform="translate(23627.3 214.116)" fill="#007CB1"/>
</g>
</g>
</g>
<defs>
<path id="path0_fill" d="M 55.119 15.4485C 54.781 14.7488 54.2488 14.1578 53.5841 13.7442C 52.9193 13.3307 52.1493 13.1113 51.3633 13.1117L 40.5469 13.1117C 40.3977 12.1424 39.9012 11.2578 39.1473 10.6185C 38.3934 9.97919 37.4322 9.62747 36.4379 9.62712L 27.5061 9.62712C 26.8526 7.63149 25.7496 5.80757 24.2797 4.29202C 22.8097 2.77646 21.011 1.60858 19.0183 0.875873C 17.0256 0.143166 14.8906 -0.135361 12.7732 0.061159C 10.6558 0.257679 8.61102 0.924152 6.79197 2.01064C 4.97292 3.09712 3.42682 4.57545 2.26951 6.33485C 1.11219 8.09424 0.373686 10.0891 0.109318 12.1699C -0.155051 14.2507 0.0615757 16.3635 0.742966 18.3501C 1.42436 20.3366 2.55284 22.1453 4.04386 23.6407L 4.04386 43.7011C 4.04386 44.7884 4.48188 45.8311 5.26157 46.6C 6.04125 47.3688 7.09874 47.8007 8.20138 47.8007L 12.1579 47.8007C 12.4888 49.5429 13.427 51.1161 14.81 52.2482C 16.1931 53.3803 17.9341 54 19.7316 54C 21.5291 54 23.27 53.3803 24.6531 52.2482C 26.0362 51.1161 26.9743 49.5429 27.3052 47.8007L 40.3528 47.8007C 40.6837 49.5429 41.6219 51.1161 43.0049 52.2482C 44.388 53.3803 46.129 54 47.9265 54C 49.724 54 51.4649 53.3803 52.848 52.2482C 54.2311 51.1161 55.1692 49.5429 55.5001 47.8007L 60.8425 47.8007C 61.9451 47.8007 63.0026 47.3688 63.7823 46.6C 64.562 45.8311 65 44.7884 65 43.7011L 65 32.9398C 65.0006 32.6356 64.8982 32.3398 64.709 32.0994L 60.69 27.0092L 55.119 15.4485ZM 52.5967 16.6237L 57.3017 26.3259L 41.9812 26.3259C 41.6137 26.3259 41.2612 26.182 41.0013 25.9257C 40.7414 25.6694 40.5954 25.3218 40.5954 24.9594L 40.5954 15.8448L 51.3703 15.8448C 51.6279 15.8493 51.8792 15.9246 52.0959 16.0622C 52.3125 16.1998 52.486 16.3942 52.5967 16.6237ZM 14.0981 2.74672C 16.3391 2.74537 18.5302 3.3994 20.3942 4.6261C 22.2582 5.85279 23.7114 7.59702 24.5699 9.63818C 25.4285 11.6793 25.6538 13.9257 25.2174 16.0932C 24.7811 18.2606 23.7026 20.2518 22.1185 21.8148C 20.5343 23.3778 18.5157 24.4425 16.3178 24.8741C 14.12 25.3057 11.8417 25.0848 9.77114 24.2395C 7.70059 23.3942 5.9308 21.9623 4.68562 20.1251C 3.44044 18.2878 2.77582 16.1277 2.77582 13.918C 2.77948 10.9575 3.97332 8.11915 6.09567 6.02511C 8.21802 3.93107 11.0958 2.75215 14.0981 2.74672ZM 19.7316 51.258C 18.7541 51.258 17.7987 50.9721 16.986 50.4365C 16.1734 49.9009 15.5402 49.1396 15.1665 48.2491C 14.7927 47.3585 14.6953 46.3786 14.8865 45.4334C 15.0777 44.4882 15.5489 43.6202 16.2405 42.9392C 16.9322 42.2581 17.8131 41.7947 18.772 41.6075C 19.7308 41.4203 20.7244 41.5177 21.627 41.8875C 22.5297 42.2573 23.3008 42.8828 23.8428 43.6848C 24.3849 44.4868 24.6734 45.4294 24.6721 46.3932C 24.673 47.0335 24.5459 47.6677 24.298 48.2596C 24.0501 48.8514 23.6863 49.3893 23.2275 49.8424C 22.7686 50.2955 22.2237 50.6549 21.6238 50.9002C 21.024 51.1454 20.3809 51.2716 19.7316 51.2716L 19.7316 51.258ZM 47.9265 51.258C 46.949 51.258 45.9935 50.9721 45.1809 50.4365C 44.3683 49.9009 43.7351 49.1396 43.3614 48.2491C 42.9876 47.3585 42.8902 46.3786 43.0814 45.4334C 43.2726 44.4882 43.7438 43.6202 44.4354 42.9392C 45.1271 42.2581 46.008 41.7947 46.9669 41.6075C 47.9257 41.4203 48.9193 41.5177 49.8219 41.8875C 50.7246 42.2573 51.4957 42.8828 52.0377 43.6848C 52.5798 44.4868 52.8683 45.4294 52.867 46.3932C 52.8679 47.0335 52.7408 47.6677 52.4929 48.2596C 52.245 48.8514 51.8812 49.3893 51.4224 49.8424C 50.9635 50.2955 50.4186 50.6549 49.8187 50.9002C 49.2189 51.1454 48.5758 51.2716 47.9265 51.2716L 47.9265 51.258ZM 62.2283 43.7011C 62.2283 44.0636 62.0823 44.4111 61.8224 44.6674C 61.5625 44.9237 61.21 45.0677 60.8425 45.0677L 55.507 45.0677C 55.1917 43.3111 54.2592 41.7202 52.873 40.574C 51.4868 39.4278 49.7355 38.7995 47.9265 38.7995C 46.1174 38.7995 44.3661 39.4278 42.9799 40.574C 41.5937 41.7202 40.6612 43.3111 40.3459 45.0677L 27.3121 45.0677C 26.9968 43.3111 26.0643 41.7202 24.6781 40.574C 23.2919 39.4278 21.5406 38.7995 19.7316 38.7995C 17.9225 38.7995 16.1712 39.4278 14.785 40.574C 13.3988 41.7202 12.4663 43.3111 12.151 45.0677L 8.20138 45.0677C 7.83383 45.0677 7.48134 44.9237 7.22144 44.6674C 6.96155 44.4111 6.81554 44.0636 6.81554 43.7011L 6.81554 25.793C 8.95038 27.0752 11.3932 27.7733 13.8925 27.8154C 16.3918 27.8575 18.8573 27.2421 21.0354 26.0326C 23.2134 24.823 25.0252 23.0631 26.2843 20.9338C 27.5434 18.8045 28.2043 16.3828 28.199 13.918C 28.1962 13.3973 28.1638 12.8772 28.102 12.3601L 36.4171 12.3601C 36.7846 12.3601 37.1371 12.5041 37.397 12.7604C 37.6569 13.0167 37.8029 13.3642 37.8029 13.7267L 37.8029 24.9594C 37.8029 26.0467 38.2409 27.0894 39.0206 27.8582C 39.8003 28.627 40.8578 29.059 41.9604 29.059L 58.7845 29.059L 62.2491 33.425L 62.2283 43.7011Z"/>
<path id="path1_fill" d="M 1.55642 10.1495L 7.78204 10.1495C 8.19482 10.1495 8.5907 9.9869 8.88258 9.69741C 9.17447 9.40791 9.33844 9.01528 9.33844 8.60588C 9.33844 8.19647 9.17447 7.80384 8.88258 7.51435C 8.5907 7.22486 8.19482 7.06222 7.78204 7.06222L 3.11283 7.06222L 3.11283 1.54366C 3.11283 1.13425 2.94885 0.741618 2.65697 0.452127C 2.36508 0.162635 1.96921 4.122e-07 1.55642 4.122e-07C 1.14364 4.122e-07 0.747763 0.162635 0.45588 0.452127C 0.163998 0.741618 1.98725e-05 1.13425 1.98725e-05 1.54366L 1.98725e-05 8.59816C -0.00100536 8.80152 0.0384952 9.00308 0.116253 9.19126C 0.19401 9.37944 0.308492 9.55052 0.453119 9.69468C 0.597747 9.83884 0.769669 9.95324 0.95901 10.0313C 1.14835 10.1094 1.35138 10.1495 1.55642 10.1495Z"/>
</defs>
</svg>
