<svg width="63" height="63" viewBox="0 0 63 63" version="1.1" xmlns="http://www.w3.org/2000/svg" xmlns:xlink="http://www.w3.org/1999/xlink">
<title>icon</title>
<desc>Created using Figma</desc>
<g id="Canvas" transform="translate(-23211 594)">
<g id="icon">
<g id="Group">
<g id="Vector">
<use xlink:href="#path0_stroke" transform="translate(23213 -592)" fill="#007CB1"/>
</g>
<g id="Vector">
<use xlink:href="#path1_stroke" transform="translate(23213 -581.739)" fill="#007CB1"/>
</g>
<g id="Vector">
<use xlink:href="#path2_stroke" transform="translate(23265.6 -586.87)" fill="#007CB1"/>
</g>
<g id="Vector">
<use xlink:href="#path2_stroke" transform="translate(23260.5 -586.87)" fill="#007CB1"/>
</g>
<g id="Vector">
<use xlink:href="#path2_stroke" transform="translate(23255.3 -586.87)" fill="#007CB1"/>
</g>
<g id="Vector">
<use xlink:href="#path3_stroke" transform="translate(23218.1 -586.87)" fill="#007CB1"/>
</g>
<g id="Vector">
<use xlink:href="#path4_stroke" transform="translate(23224.6 -575.326)" fill="#007CB1"/>
</g>
<g id="Vector">
<use xlink:href="#path5_stroke" transform="translate(23234.8 -562.5)" fill="#007CB1"/>
</g>
</g>
</g>
</g>
<defs>
<path id="path0_stroke" d="M 2 1.5L 57 1.5L 57 -1.5L 2 -1.5L 2 1.5ZM 57.5 2L 57.5 57L 60.5 57L 60.5 2L 57.5 2ZM 57 57.5L 2 57.5L 2 60.5L 57 60.5L 57 57.5ZM 1.5 57L 1.5 2L -1.5 2L -1.5 57L 1.5 57ZM 2 57.5C 1.72386 57.5 1.5 57.2761 1.5 57L -1.5 57C -1.5 58.933 0.0670034 60.5 2 60.5L 2 57.5ZM 57.5 57C 57.5 57.2761 57.2761 57.5 57 57.5L 57 60.5C 58.933 60.5 60.5 58.933 60.5 57L 57.5 57ZM 57 1.5C 57.2761 1.5 57.5 1.72386 57.5 2L 60.5 2C 60.5 0.0670034 58.933 -1.5 57 -1.5L 57 1.5ZM 2 -1.5C 0.0670034 -1.5 -1.5 0.0670034 -1.5 2L 1.5 2C 1.5 1.72386 1.72386 1.5 2 1.5L 2 -1.5Z"/>
<path id="path1_stroke" d="M 0 1.5L 59 1.5L 59 -1.5L 0 -1.5L 0 1.5Z"/>
<path id="path2_stroke" d="M 2.56522 -1.5L 0 -1.5L 0 1.5L 2.56522 1.5L 2.56522 -1.5Z"/>
<path id="path3_stroke" d="M 0 1.5L 32.0652 1.5L 32.0652 -1.5L 0 -1.5L 0 1.5Z"/>
<path id="path4_stroke" d="M 17.9199 35.913L 17.3873 37.3153L 17.9199 37.5176L 18.4524 37.3153L 17.9199 35.913ZM 0.091602 7.95218L -0.292237 6.50212L -1.27615 6.76256L -1.39767 7.77309L 0.091602 7.95218ZM 17.9199 0L 18.9507 -1.0897L 17.9199 -2.06478L 16.8891 -1.0897L 17.9199 0ZM 35.7481 7.95218L 37.2374 7.77309L 37.1159 6.76256L 36.132 6.50212L 35.7481 7.95218ZM 18.4524 34.5107C 8.82159 30.8535 4.64632 24.2653 2.83526 18.5907C 1.92308 15.7325 1.60995 13.0957 1.52604 11.1734C 1.48417 10.2142 1.49962 9.43845 1.52478 8.9092C 1.53735 8.64474 1.55232 8.44234 1.56369 8.30992C 1.56937 8.24373 1.57414 8.19508 1.57726 8.16495C 1.57882 8.1499 1.57996 8.13948 1.5806 8.13382C 1.58091 8.13099 1.5811 8.12935 1.58115 8.12892C 1.58118 8.12871 1.58117 8.12879 1.58112 8.12918C 1.5811 8.12938 1.58104 8.1299 1.58102 8.12999C 1.58095 8.13059 1.58087 8.13126 0.091602 7.95218C -1.39767 7.77309 -1.39777 7.77391 -1.39788 7.77482C -1.39792 7.77522 -1.39804 7.77621 -1.39814 7.77702C -1.39833 7.77864 -1.39856 7.78058 -1.39882 7.78282C -1.39934 7.7873 -1.39999 7.79303 -1.40077 7.79997C -1.40232 7.81385 -1.40437 7.83261 -1.4068 7.85613C -1.41167 7.90317 -1.4181 7.96925 -1.42532 8.05336C -1.43976 8.22156 -1.45735 8.46206 -1.47184 8.76675C -1.50079 9.37582 -1.51741 10.2434 -1.4711 11.3043C -1.37865 13.4223 -1.03445 16.3327 -0.0227131 19.5028C 2.01406 25.8847 6.75292 33.2769 17.3873 37.3153L 18.4524 34.5107ZM 0.475441 9.40223C 7.12936 7.6409 11.7014 5.60838 14.6357 3.99114C 16.1025 3.18273 17.1585 2.47897 17.8595 1.96621C 18.21 1.70988 18.4715 1.50142 18.651 1.35168C 18.7408 1.27682 18.8101 1.21665 18.8597 1.17253C 18.8846 1.15047 18.9045 1.13242 18.9196 1.11856C 18.9272 1.11163 18.9335 1.10575 18.9387 1.10093C 18.9413 1.09852 18.9436 1.09638 18.9456 1.09451C 18.9466 1.09357 18.9475 1.0927 18.9483 1.0919C 18.9488 1.0915 18.9493 1.09095 18.9496 1.09075C 18.9501 1.09022 18.9507 1.0897 17.9199 0C 16.8891 -1.0897 16.8896 -1.09018 16.8901 -1.09065C 16.8902 -1.09078 16.8907 -1.09123 16.891 -1.09149C 16.8915 -1.09202 16.892 -1.09248 16.8924 -1.09287C 16.8933 -1.09365 16.8938 -1.09416 16.8941 -1.0944C 16.8946 -1.09487 16.8939 -1.09426 16.8921 -1.09259C 16.8885 -1.08926 16.8801 -1.08167 16.867 -1.07001C 16.8407 -1.04668 16.7953 -1.00702 16.7298 -0.952371C 16.5987 -0.843085 16.3872 -0.673769 16.0884 -0.455139C 15.4907 -0.0179663 14.5426 0.616994 13.1877 1.36375C 10.4786 2.85684 6.13645 4.8004 -0.292237 6.50212L 0.475441 9.40223ZM 17.9199 0C 16.8891 1.0897 16.8896 1.09022 16.8902 1.09075C 16.8904 1.09095 16.891 1.0915 16.8914 1.0919C 16.8922 1.0927 16.8932 1.09357 16.8942 1.09451C 16.8962 1.09638 16.8984 1.09852 16.901 1.10093C 16.9062 1.10575 16.9126 1.11163 16.9201 1.11856C 16.9352 1.13242 16.9552 1.15047 16.98 1.17253C 17.0296 1.21665 17.0989 1.27682 17.1887 1.35168C 17.3683 1.50142 17.6298 1.70988 17.9802 1.96621C 18.6812 2.47897 19.7372 3.18273 21.204 3.99114C 24.1384 5.60838 28.7104 7.6409 35.3643 9.40223L 36.132 6.50212C 29.7033 4.8004 25.3611 2.85684 22.652 1.36375C 21.2971 0.616994 20.349 -0.0179664 19.7514 -0.455139C 19.4525 -0.673769 19.241 -0.843085 19.11 -0.952371C 19.0444 -1.00702 18.999 -1.04668 18.9727 -1.07001C 18.9596 -1.08167 18.9513 -1.08926 18.9476 -1.09259C 18.9458 -1.09426 18.9452 -1.09487 18.9457 -1.0944C 18.9459 -1.09416 18.9465 -1.09365 18.9473 -1.09287C 18.9477 -1.09248 18.9482 -1.09202 18.9488 -1.09149C 18.949 -1.09123 18.9495 -1.09078 18.9497 -1.09065C 18.9502 -1.09018 18.9507 -1.0897 17.9199 0ZM 35.7481 7.95218C 34.2589 8.13126 34.2588 8.13059 34.2587 8.12999C 34.2587 8.1299 34.2586 8.12938 34.2586 8.12918C 34.2586 8.12879 34.2585 8.12871 34.2586 8.12892C 34.2586 8.12935 34.2588 8.13099 34.2591 8.13382C 34.2598 8.13948 34.2609 8.1499 34.2625 8.16495C 34.2656 8.19507 34.2704 8.24373 34.276 8.30992C 34.2874 8.44234 34.3024 8.64474 34.3149 8.9092C 34.3401 9.43845 34.3556 10.2142 34.3137 11.1734C 34.2298 13.0957 33.9166 15.7325 33.0045 18.5907C 31.1934 24.2653 27.0181 30.8535 17.3873 34.5107L 18.4524 37.3153C 29.0868 33.2769 33.8257 25.8847 35.8624 19.5028C 36.8742 16.3327 37.2184 13.4223 37.3108 11.3043C 37.3571 10.2434 37.3405 9.37582 37.3116 8.76675C 37.2971 8.46206 37.2795 8.22156 37.2651 8.05336C 37.2578 7.96925 37.2514 7.90317 37.2465 7.85613C 37.2441 7.83261 37.2421 7.81385 37.2405 7.79997C 37.2397 7.79303 37.2391 7.7873 37.2385 7.78282C 37.2383 7.78058 37.2381 7.77864 37.2379 7.77702C 37.2378 7.77621 37.2377 7.77522 37.2376 7.77482C 37.2375 7.77391 37.2374 7.77309 35.7481 7.95218Z"/>
<path id="path5_stroke" d="M 5.13043 10.2609L 4.06977 11.3215L 5.13043 12.3822L 6.19109 11.3215L 5.13043 10.2609ZM -1.06066 6.1911L 4.06977 11.3215L 6.19109 9.20021L 1.06066 4.06977L -1.06066 6.1911ZM 6.19109 11.3215L 16.452 1.06066L 14.3306 -1.06066L 4.06977 9.20021L 6.19109 11.3215Z"/>
</defs>
</svg>
