<svg width="56" height="61" viewBox="0 0 56 61" version="1.1" xmlns="http://www.w3.org/2000/svg" xmlns:xlink="http://www.w3.org/1999/xlink">
<title>icon</title>
<desc>Created using Figma</desc>
<g id="Canvas" transform="translate(-24020 -201)">
<g id="icon">
<g id="Vector">
<use xlink:href="#path0_fill" transform="translate(24049 201)" fill="#007CB1"/>
</g>
<g id="Vector">
<use xlink:href="#path1_fill" transform="translate(24020 227.168)" fill="#007CB1"/>
</g>
<g id="Vector">
<use xlink:href="#path2_fill" transform="translate(24025.4 209.132)" fill="#007CB1"/>
</g>
<g id="Vector">
<use xlink:href="#path3_fill" transform="translate(24038.9 221.128)" fill="#007CB1"/>
</g>
<g id="Vector">
<use xlink:href="#path4_fill" transform="translate(24023.2 207.481)" fill="#007CB1"/>
</g>
</g>
</g>
<defs>
<path id="path0_fill" d="M 14.9979 0L 6.41887 0C 5.55479 0 4.87587 0.685487 4.87587 1.55793L 4.87587 13.1489L 2.83912 13.1489C 1.29612 13.1489 -9.41771e-07 14.3952 -9.41771e-07 15.9532C -9.41771e-07 16.7633 0.3086 17.5111 0.864079 18.0096L 8.76423 25.4877C 9.87519 26.4847 11.5416 26.4847 12.5909 25.4877L 20.4293 18.0096C 21.5403 16.9502 21.602 15.143 20.5527 14.0213C 19.9973 13.4605 19.3183 13.1489 18.516 13.1489L 16.4792 13.1489L 16.4792 1.55793C 16.5409 0.685487 15.862 0 14.9979 0ZM 17.8988 16.2647L 10.7393 23.0573L 3.57976 16.2647L 6.41887 16.2647C 7.28295 16.2647 7.96187 15.5793 7.96187 14.7068L 7.96187 3.11585L 13.4549 3.11585L 13.4549 14.7068C 13.4549 15.5793 14.1339 16.2647 14.9979 16.2647L 17.8988 16.2647Z"/>
<path id="path1_fill" d="M 53.1146 0.565955L 53.0529 0.503637C 51.0161 -0.431118 48.6708 -0.0572158 47.066 1.56303L 36.2033 12.3439C 35.401 10.2874 33.4877 8.91643 31.2657 8.91643L 11.0216 8.91643C 8.49109 8.91643 6.08401 9.85119 4.23241 11.5337L 0.529218 14.8989C -0.0879813 15.4597 -0.211421 16.4568 0.405778 17.08C 1.02298 17.7031 1.94878 17.8278 2.56598 17.2046C 2.56598 17.2046 2.56598 17.2046 2.6277 17.1423L 6.33089 13.7772C 7.62701 12.5931 9.35517 11.9076 11.0833 11.9076L 31.3275 11.9076C 32.5619 11.9076 33.5494 12.9047 33.5494 14.1511C 33.5494 15.3974 32.5619 16.3945 31.3275 16.3945L 17.4405 16.3945C 16.5764 16.3945 15.8975 17.08 15.8975 17.9524C 15.8975 18.8248 16.5764 19.5103 17.4405 19.5103L 31.204 19.5103C 32.9939 19.5103 34.6603 18.5756 35.6479 17.08L 49.1645 3.68181C 49.8434 2.99632 50.831 2.87168 51.695 3.24559L 51.7568 3.3079C 52.806 3.80644 53.2998 5.1151 52.806 6.17449C 52.6826 6.42375 52.5591 6.61071 52.374 6.79766L 35.5861 23.8725C 33.5494 25.9913 30.7103 27.113 27.8094 27.113L 15.8975 27.113C 13.799 27.113 11.824 28.1101 10.5896 29.7926L 8.73797 32.3476C 8.24421 33.0331 8.36765 34.0302 9.04657 34.5287C 9.72549 35.0273 10.713 34.9026 11.2068 34.2171L 13.0584 31.6621C 13.7373 30.7897 14.7248 30.2288 15.8358 30.2288L 27.7477 30.2288C 31.5126 30.2288 35.0924 28.7332 37.6846 26.0536L 54.4724 9.04107C 56.5092 6.98461 56.5092 3.61949 54.4724 1.56303C 54.1638 1.18912 53.6701 0.815223 53.1146 0.565955Z"/>
<path id="path2_fill" d="M 18.9789 0.467378L 0.462899 19.1625C -0.1543 19.7857 -0.1543 20.7827 0.462899 21.3436C 1.0801 21.9044 2.06762 21.9667 2.6231 21.3436L 21.1391 2.64847C 21.7563 2.0253 21.7563 1.02823 21.1391 0.467378C 20.5836 -0.155792 19.5961 -0.155792 18.9789 0.467378Z"/>
<path id="path3_fill" d="M 5.43135 -4.75441e-07L 4.81415 -4.75441e-07C 2.1602 -4.75441e-07 4.70886e-07 2.18109 4.70886e-07 4.86073L 4.70886e-07 6.6056C 4.70886e-07 9.28524 2.1602 11.4663 4.81415 11.4663L 5.43135 11.4663C 8.08531 11.4663 10.2455 9.28524 10.2455 6.6056L 10.2455 4.86073C 10.2455 2.18109 8.08531 -4.75441e-07 5.43135 -4.75441e-07ZM 7.15951 6.6056C 7.15951 7.60268 6.35715 8.35048 5.43135 8.35048L 4.81415 8.35048C 3.82664 8.35048 3.086 7.54036 3.086 6.6056L 3.086 4.86073C 3.086 3.86365 3.88836 3.11585 4.81415 3.11585L 5.43135 3.11585C 6.41887 3.11585 7.15951 3.92597 7.15951 4.86073L 7.15951 6.6056Z"/>
<path id="path4_fill" d="M 5.43135 -2.37721e-07L 4.81415 -2.37721e-07C 2.1602 -2.37721e-07 -1.17721e-07 2.1811 -1.17721e-07 4.86073L -1.17721e-07 6.6056C -1.17721e-07 9.28524 2.1602 11.4663 4.81415 11.4663L 5.43135 11.4663C 8.08531 11.4663 10.2455 9.28524 10.2455 6.6056L 10.2455 4.92304C 10.2455 2.18109 8.08531 -2.37721e-07 5.43135 -2.37721e-07ZM 7.15951 6.6056C 7.15951 7.60268 6.35715 8.35048 5.43135 8.35048L 4.81415 8.35048C 3.82664 8.35048 3.086 7.54036 3.086 6.6056L 3.086 4.92304C 3.086 3.92597 3.88836 3.17817 4.81415 3.17817L 5.43135 3.17817C 6.41887 3.17817 7.15951 3.98829 7.15951 4.92304L 7.15951 6.6056Z"/>
</defs>
</svg>
