<svg width="85" height="53" viewBox="0 0 85 53" version="1.1" xmlns="http://www.w3.org/2000/svg" xmlns:xlink="http://www.w3.org/1999/xlink">
<title>mall icon</title>
<desc>Created using Figma</desc>
<g id="Canvas" transform="translate(-23192 -209)">
<g id="mall icon">
<g id="Vector">
<use xlink:href="#path0_fill" transform="translate(23192 209)" fill="#007CB1"/>
</g>
</g>
</g>
<defs>
<path id="path0_fill" d="M 83.9454 18.3201L 69.4308 18.3201L 69.4308 11.3087L 72.2738 11.3087C 72.8724 11.3087 73.3961 10.7809 73.3961 10.1778L 73.3961 1.13087C 73.3961 0.527738 72.8724 0 72.2738 0L 12.6442 0C 12.0456 0 11.5219 0.527738 11.5219 1.13087L 11.5219 10.2532C 11.5219 10.8563 12.0456 11.3841 12.6442 11.3841L 15.6369 11.3841L 15.6369 18.3954L 1.12226 18.3954C 0.523724 18.3201 0 18.8478 0 19.4509L 0 51.8691C 0 52.4723 0.523724 53 1.12226 53L 16.7592 53L 31.4234 53L 53.5694 53L 68.2337 53L 83.8706 53C 84.4691 53 84.9929 52.4723 84.9929 51.8691L 84.9929 19.4509C 85.0677 18.8478 84.5439 18.3201 83.9454 18.3201ZM 15.6369 50.8137L 2.24453 50.8137L 2.24453 30.5334L 15.6369 30.5334L 15.6369 50.8137ZM 15.6369 28.2717L 2.24453 28.2717L 2.24453 20.5818L 15.6369 20.5818L 15.6369 28.2717ZM 41.3742 50.8137L 32.5457 50.8137L 32.5457 31.5889L 41.3742 31.5889L 41.3742 50.8137ZM 52.4472 50.8137L 43.6187 50.8137L 43.6187 31.5889L 52.4472 31.5889L 52.4472 50.8137ZM 53.5694 29.3272L 31.4234 29.3272L 30.7501 29.3272C 31.3486 23.2959 36.3614 18.5462 42.4964 18.5462C 48.6315 18.5462 53.6443 23.2959 54.2428 29.3272L 53.5694 29.3272ZM 67.1863 19.4509L 67.1863 50.7383L 54.6917 50.7383L 54.6917 31.5889L 55.4399 31.5889C 56.0384 31.5889 56.5621 31.0612 56.5621 30.458C 56.5621 22.6927 50.2775 16.2845 42.4964 16.2845C 34.7902 16.2845 28.4307 22.6174 28.4307 30.458C 28.4307 31.0612 28.9544 31.5889 29.553 31.5889L 30.3011 31.5889L 30.3011 50.7383L 17.8814 50.7383L 17.8814 19.4509L 17.8814 11.3841L 67.1863 11.3841L 67.1863 19.4509ZM 16.7592 9.12233L 13.7664 9.12233L 13.7664 2.26174L 71.1516 2.26174L 71.1516 9.12233L 68.3085 9.12233L 16.7592 9.12233ZM 82.8231 50.8137L 69.4308 50.8137L 69.4308 30.5334L 82.8231 30.5334L 82.8231 50.8137ZM 82.8231 28.2717L 69.4308 28.2717L 69.4308 20.5818L 82.8231 20.5818L 82.8231 28.2717Z"/>
</defs>
</svg>
