<svg width="571" height="381" viewBox="0 0 571 381" version="1.1" xmlns="http://www.w3.org/2000/svg" xmlns:xlink="http://www.w3.org/1999/xlink">
<title>map</title>
<desc>Created using Figma</desc>
<g id="Canvas" transform="translate(-23158 251)">
<g id="map">
<g id="map">
<use xlink:href="#path0_fill" transform="translate(23158 -251)" fill="#EB5757"/>
</g>
</g>
</g>
<defs>
<path id="path0_fill" d="M 246.61 322.681L 246.079 323.079L 245.15 324.009L 244.619 324.408L 244.221 324.541L 243.69 324.674L 243.292 324.806L 243.159 325.205L 242.894 325.604L 242.23 326.135L 240.638 327.065L 243.027 326.002L 246.212 323.611L 253.512 316.703L 251.521 317.899L 246.61 322.681ZM 346.157 307.404L 345.759 306.872L 344.299 307.005L 344.033 306.74L 343.768 306.208L 342.972 306.341L 341.644 307.005L 340.583 306.208L 339.653 306.208L 337.53 306.607L 333.017 305.942L 332.751 305.677L 332.619 305.677L 332.353 305.942L 345.759 308.201L 346.157 307.404ZM 314.833 300.363L 310.719 299.3L 300.498 296.776L 299.171 295.979L 298.375 295.049L 297.844 293.721L 297.313 291.728L 296.782 291.462L 296.782 292.259L 297.047 293.455L 297.313 294.119L 298.242 295.448L 299.304 296.378L 304.348 298.237L 315.895 300.762L 317.222 301.426L 317.886 301.559L 317.488 301.293L 314.833 300.363ZM 570.602 151.178L 569.142 149.451L 567.947 147.458L 567.284 145.997L 567.018 144.403L 567.682 142.809L 568.213 142.277L 569.407 141.613L 569.938 140.949L 570.071 140.019L 569.54 139.487L 566.487 138.69L 565.824 138.69L 565.027 138.956L 563.169 140.816L 562.373 141.347L 561.443 141.746L 560.514 141.879L 559.585 141.879L 558.922 141.613L 557.329 140.019L 556.002 139.487L 554.94 139.222L 554.011 138.558L 553.214 136.831L 552.683 134.705L 552.285 133.642L 551.887 133.111L 550.029 132.978L 549.365 132.712L 548.171 131.915L 546.976 132.181L 545.781 132.712L 544.587 132.978L 543.392 132.712L 542.463 132.181L 541.8 131.251L 540.074 126.601L 539.278 125.937L 538.083 126.336L 537.552 127L 536.49 128.461L 535.96 128.993L 535.429 129.126L 532.376 129.391L 531.579 128.594L 530.783 127.399L 529.721 126.469L 526.403 125.539L 524.545 124.21L 524.279 123.945L 524.147 123.546L 524.014 122.749L 523.748 121.819L 523.748 121.686L 523.616 121.819L 522.819 122.085L 522.554 122.218L 522.288 122.35L 520.696 122.085L 518.439 122.483L 517.245 122.085L 516.448 121.553L 515.917 121.288L 514.59 121.155L 513.927 120.889L 513.528 120.358L 512.599 117.568L 512.201 117.037L 511.537 116.904L 510.608 117.037L 508.617 116.904L 508.086 117.037L 507.821 118.498L 508.086 120.756L 507.954 122.882L 506.494 123.945L 506.228 123.812L 505.697 123.413L 505.299 123.28L 504.901 123.413L 502.777 124.742L 502.645 124.476L 502.645 123.679L 502.114 122.749L 502.114 122.616L 501.052 120.756L 500.123 119.561L 499.061 118.631L 497.866 117.834L 495.344 116.638L 494.283 115.841L 491.23 111.191L 490.168 110.129L 489.903 109.863L 489.903 109.332L 490.035 108.8L 490.301 107.605L 490.168 105.479L 489.106 104.416L 486.319 103.088L 485.788 101.759L 485.39 100.165L 484.859 98.8368L 484.195 98.4383L 481.01 98.8368L 480.081 99.2354L 478.222 101.095L 477.293 101.759L 472.781 103.088L 470.524 102.689L 468.4 102.822L 466.277 103.619L 460.968 106.675L 460.569 107.073L 460.304 107.472L 459.773 108.535L 459.508 108.933L 458.977 109.332L 458.313 109.464L 457.649 109.332L 456.986 109.066L 456.455 108.667L 456.322 108.269L 456.455 107.737L 456.455 106.675L 456.588 106.542L 456.455 106.409L 455.924 106.143L 455.659 106.01L 454.729 105.745L 453.8 105.081L 453.137 104.948L 452.473 104.549L 452.208 104.416L 451.809 104.416L 451.544 104.549L 450.88 105.213L 450.217 105.745L 449.42 106.01L 448.624 106.01L 447.96 105.612L 444.775 100.564L 443.846 100.165L 443.58 99.2354L 442.651 98.704L 437.209 98.3054L 434.156 98.704L 433.626 98.8368L 433.227 99.2354L 432.564 100.165L 432.165 100.564L 431.9 100.697L 431.236 100.697L 430.971 100.83L 430.44 101.494L 430.042 102.158L 429.644 102.689L 428.847 102.955L 428.184 102.955L 427.52 102.689L 426.856 102.424L 426.325 102.025L 425.662 101.228L 425.396 100.431L 425.396 99.5011L 425.131 98.3054L 424.733 97.5084L 424.202 96.977L 423.538 96.7113L 422.874 96.5785L 421.813 96.1799L 421.149 94.9843L 419.689 89.0063L 419.689 88.3421L 420.22 87.6778L 422.742 86.6151L 421.945 85.6852L 421.945 84.6224L 422.078 83.4268L 421.813 82.0983L 421.547 81.5669L 421.149 81.3013L 420.353 80.7699L 419.954 80.3713L 419.954 79.84L 420.087 79.1757L 419.954 78.5115L 419.689 77.8473L 419.025 76.9174L 418.76 76.2531L 418.76 75.4561L 418.893 74.7918L 418.893 74.2605L 418.494 73.5962L 418.096 73.3306L 417.3 73.1977L 417.034 72.932L 416.902 72.4006L 416.902 71.0722L 416.769 70.5408L 418.494 70.1423L 418.893 69.7437L 419.158 68.8138L 418.893 68.2824L 418.362 68.0167L 417.698 67.8839L 416.636 67.751L 414.513 68.2824L 413.451 68.1496L 412.522 67.2197L 411.858 65.4927L 411.062 60.8431L 410.796 60.1789L 410.398 59.6475L 409.867 59.3818L 409.203 59.5146L 408.54 59.7803L 407.876 59.9132L 407.345 59.5146L 406.814 59.249L 406.283 59.249L 404.823 60.1789L 402.301 61.2416L 400.045 61.773L 397.789 61.6402L 397.258 61.5073L 396.86 61.1088L 396.594 60.3117L 396.461 59.5146L 396.196 58.8504L 395.798 58.319L 394.869 58.1862L 392.878 58.5847L 391.816 58.1862L 389.56 57.3891L 388.365 57.2563L 387.303 57.522L 386.109 58.5847L 384.914 58.4519L 384.118 58.319L 381.861 57.3891L 383.719 56.0607L 385.047 54.7322L 385.843 53.0052L 385.578 51.2782L 384.914 51.6768L 384.383 51.6768L 383.852 51.5439L 383.321 51.2782L 382.79 51.0126L 382.127 50.4812L 381.861 50.0826L 381.728 49.6841L 381.861 49.4184L 382.525 49.2856L 382.658 48.887L 382.79 48.3557L 382.658 47.9571L 382.525 47.5586L 382.525 47.0272L 382.658 46.4958L 382.923 45.5659L 383.056 45.0345L 382.923 43.9718L 382.658 43.0418L 382.259 42.3776L 380.932 40.9163L 380.667 40.5178L 380.534 39.9864L 380.401 38.9236L 380.268 38.5251L 379.87 38.2594L 378.808 37.9937L 378.41 37.4623L 378.676 36.2667L 379.87 35.6025L 385.179 34.2741L 387.038 34.2741L 387.569 34.1412L 388.763 32.6799L 388.763 30.5544L 387.834 28.5617L 386.639 27.3661L 386.241 26.569L 385.179 25.3734L 384.648 24.9749L 384.25 24.9749L 383.719 25.2406L 383.321 25.1077L 383.321 24.9749L 383.189 24.3107L 383.056 24.045L 382.923 23.9121L 382.525 23.6464L 382.259 23.5136L 381.065 21.9195L 380.401 21.3881L 378.808 21.3881L 378.808 20.9895L 379.074 20.1925L 378.941 19.2626L 378.278 18.1998L 377.879 17.2699L 377.747 16.34L 377.614 14.613L 377.481 13.6831L 377.481 13.4174L 378.012 12.2218L 378.012 11.6904L 377.879 11.159L 377.614 10.6276L 377.348 10.0962L 376.95 9.29916L 376.419 8.76778L 374.428 7.30649L 374.03 6.7751L 373.234 5.04812L 372.703 4.25105L 371.376 3.45397L 370.712 2.92259L 370.181 1.99268L 369.916 1.32845L 369.517 0.797071L 368.721 0.531381L 367.261 0.531381L 365.801 0.797071L 363.014 2.12552L 360.757 4.25105L 360.094 4.38389L 359.695 3.32113L 359.961 1.32845L 359.43 0.398536L 358.899 0.664226L 358.368 1.19561L 357.97 1.4613L 357.439 1.4613L 356.908 1.32845L 355.979 0.664226L 355.448 0.531381L 353.457 0.531381L 350.404 0L 350.006 0.132845L 349.475 0.531381L 348.679 1.59414L 348.281 1.99268L 347.75 2.25837L 347.484 2.39121L 347.086 3.05544L 346.821 3.32113L 346.423 3.32113L 346.024 3.05544L 345.759 3.05544L 345.228 3.32113L 341.91 6.24372L 341.379 6.64226L 340.848 6.50941L 339.786 5.71234L 339.255 5.44665L 338.459 5.44665L 336.601 5.97803L 335.672 5.97803L 329.301 2.6569L 327.841 3.18828L 325.053 2.12552L 323.726 2.39121L 323.328 4.1182L 323.46 4.64958L 324.124 5.71234L 324.257 6.11088L 323.991 6.64226L 323.593 6.90795L 323.195 7.17364L 322.93 7.43933L 322.664 8.36925L 322.266 11.4247L 321.337 13.4174L 319.877 14.4801L 315.497 16.6056L 314.966 16.6056L 313.108 16.0743L 311.913 16.2071L 310.188 17.0042L 309.657 17.137L 308.993 16.7385L 308.86 15.9414L 308.86 15.0115L 308.728 14.2144L 308.064 13.5502L 307.002 13.2845L 305.011 13.4174L 301.427 13.6831L 295.986 12.886L 293.066 12.886L 290.544 13.9487L 289.88 14.7458L 289.349 15.8086L 288.818 16.7385L 288.155 17.0042L 287.358 16.7385L 285.898 15.5429L 285.102 15.1444L 283.907 15.0115L 279.527 15.2772L 278.731 15.5429L 278.2 16.0743L 278.333 17.0042L 278.2 17.2699L 278.067 17.5356L 277.934 17.8013L 277.802 18.0669L 278.731 18.1998L 279.129 18.864L 278.864 19.5282L 278.067 19.5282L 277.934 19.2626L 277.669 19.1297L 277.536 19.2626L 277.271 19.5282L 277.005 19.7939L 276.873 20.0596L 276.873 20.4582L 276.607 20.8567L 276.209 21.2552L 275.811 21.5209L 275.413 21.7866L 274.483 22.1851L 274.483 22.318L 274.616 22.5837L 274.749 22.8494L 274.749 23.2479L 274.351 23.9121L 274.085 24.1778L 273.82 24.3107L 272.891 24.1778L 272.625 24.3107L 272.493 24.5764L 272.493 25.1077L 272.36 25.5063L 271.696 25.9048L 271.431 26.1705L 271.298 26.569L 271.165 26.7019L 271.033 26.8347L 270.369 27.7646L 270.236 28.1632L 270.103 28.296L 270.103 28.4289L 270.369 28.9603L 270.369 29.7573L 269.838 30.2887L 269.174 30.8201L 268.776 31.2186L 269.44 31.4843L 269.705 31.4843L 269.705 31.8828L 269.307 32.2814L 269.174 32.8128L 269.174 33.477L 268.909 34.0084L 268.511 34.1412L 267.449 34.1412L 267.051 34.2741L 267.316 34.9383L 266.918 36.001L 267.183 36.6653L 266.918 36.7981L 266.652 37.1967L 266.52 37.3295L 266.652 37.4623L 266.785 37.9937L 266.387 38.1266L 265.458 38.9236L 265.458 39.3222L 266.122 39.8536L 266.387 39.9864L 266.387 40.2521L 266.122 40.3849L 265.989 40.5178L 265.856 40.6506L 265.723 40.7835L 265.723 41.0492L 266.122 41.5805L 267.183 41.8462L 267.714 42.1119L 267.449 42.6433L 267.316 42.909L 267.051 43.1747L 267.449 43.4404L 267.714 43.7061L 267.847 44.1046L 267.582 44.5031L 267.714 45.1674L 267.98 45.5659L 268.245 45.8316L 268.511 45.9644L 268.511 46.4958L 268.112 46.363L 267.714 46.4958L 267.449 46.8944L 267.316 47.5586L 267.449 48.2228L 267.714 48.3557L 267.98 48.3557L 268.378 48.6213L 268.511 48.887L 268.776 50.3483L 268.909 50.614L 269.174 50.8797L 269.174 51.1454L 268.776 51.2782L 268.909 52.7395L 267.98 53.6695L 267.051 54.3337L 266.918 55.1308L 266.387 56.0607L 266.254 56.1935L 266.254 57.3891L 266.122 57.6548L 265.723 57.7877L 265.458 57.2563L 265.06 56.8577L 264.662 56.5921L 264.263 56.4592L 263.865 56.4592L 263.334 56.3264L 262.671 55.2636L 262.14 54.8651L 261.742 54.7322L 260.812 54.7322L 260.281 54.5994L 259.883 54.2008L 258.954 53.0052L 258.689 52.4739L 258.821 52.4739L 259.087 51.4111L 259.087 51.0126L 259.087 50.4812L 259.087 50.0826L 258.954 49.8169L 258.689 49.5513L 258.821 49.1527L 257.229 48.3557L 256.831 47.8243L 255.636 46.2301L 254.707 45.5659L 253.778 45.3002L 249.398 45.4331L 248.734 45.6987L 246.876 46.6287L 246.478 46.6287L 245.947 46.2301L 245.681 46.2301L 245.283 46.4958L 244.752 47.4257L 244.487 47.8243L 243.956 47.9571L 241.036 47.4257L 240.638 46.8944L 240.372 46.0973L 239.841 45.1674L 239.31 44.7688L 238.647 44.636L 237.983 44.7688L 237.319 45.0345L 236.656 45.5659L 236.39 46.0973L 235.859 46.6287L 235.063 46.8944L 234.267 47.0272L 233.868 47.2929L 233.603 47.9571L 233.205 49.1527L 232.674 49.9498L 232.01 49.9498L 230.683 49.4184L 230.019 49.6841L 228.825 50.7469L 228.161 51.0126L 227.497 50.614L 227.099 49.6841L 226.834 48.6213L 226.436 47.6914L 225.772 46.8944L 225.241 46.4958L 224.976 45.9644L 225.241 44.636L 225.108 43.3075L 224.71 42.5105L 223.648 40.9163L 222.985 39.0565L 222.586 38.3923L 221.79 37.8609L 220.463 37.5952L 219.799 37.5952L 219.136 37.8609L 218.472 38.5251L 217.675 40.1193L 217.145 40.7835L 216.348 41.0492L 214.357 41.0492L 213.428 41.182L 212.499 41.7134L 211.57 42.5105L 210.641 43.5732L 209.977 44.9017L 209.844 45.6987L 209.977 47.5586L 209.844 48.3557L 209.314 49.0199L 209.048 48.4885L 208.783 47.5586L 208.517 46.8944L 208.119 46.8944L 207.721 47.16L 207.323 47.4257L 206.792 47.16L 206.526 46.6287L 206.261 45.9644L 205.73 43.1747L 205.597 42.1119L 205.332 41.4477L 204.535 41.182L 201.748 40.6506L 200.819 40.6506L 200.023 40.9163L 198.43 41.9791L 197.633 42.7762L 197.235 43.0418L 196.837 42.909L 196.572 42.5105L 196.173 41.182L 196.041 40.6506L 195.642 40.2521L 194.713 39.7207L 194.315 39.3222L 194.05 38.7908L 194.05 38.2594L 194.05 37.8609L 193.917 37.3295L 193.386 36.7981L 192.722 36.7981L 192.059 37.1967L 191.395 37.8609L 190.732 38.7908L 189.67 40.7835L 188.873 41.4477L 188.21 41.7134L 185.157 41.7134L 184.626 41.5805L 183.962 41.3149L 182.104 39.1893L 181.44 38.7908L 180.777 38.9236L 180.113 39.455L 179.715 40.2521L 179.45 41.3149L 179.45 41.9791L 179.45 42.5105L 179.45 43.0418L 179.317 43.7061L 179.184 43.9718L 177.724 45.9644L 177.459 46.2301L 176.928 46.363L 176.53 46.2301L 175.999 45.8316L 175.6 45.3002L 175.335 44.9017L 176.397 42.3776L 176.662 41.0492L 176.264 39.9864L 175.733 39.7207L 174.008 39.7207L 170.557 38.3923L 169.495 38.3923L 168.566 38.5251L 167.637 39.455L 166.973 39.8536L 166.309 39.8536L 164.451 39.5879L 163.124 39.9864L 162.46 40.1193L 162.062 39.7207L 162.195 38.7908L 162.726 37.728L 162.858 36.7981L 161.929 36.5324L 161.133 36.6653L 160.469 36.5324L 160.071 36.1339L 159.806 35.204L 159.806 33.8755L 159.938 32.8128L 159.673 32.0157L 158.877 31.4843L 157.549 31.2186L 154.762 31.0858L 151.576 32.1485L 149.453 31.75L 143.48 29.0931L 136.578 28.8274L 136.18 28.5617L 135.782 28.0303L 135.649 27.499L 135.782 26.9676L 135.782 26.569L 135.384 26.569L 128.083 26.3033L 127.154 25.9048L 125.163 24.045L 124.234 23.9121L 121.978 23.9121L 115.209 22.5837L 112.554 23.1151L 102.069 22.9822L 96.7594 21.5209L 95.2994 21.5209L 93.8394 22.0523L 91.0521 23.5136L 82.1592 24.9749L 81.4956 24.9749L 79.5046 24.4435L 71.6736 25.1077L 71.01 25.3734L 70.3464 26.0377L 69.0191 27.7646L 68.4881 28.8274L 67.6918 32.1485L 66.7627 33.477L 63.3117 35.8682L 58.5335 40.1193L 57.2062 40.2521L 56.2771 39.455L 55.348 38.3923L 54.0207 37.8609L 53.2243 37.728L 51.2334 37.1967L 50.5697 37.1967L 47.517 37.9937L 47.1188 38.2594L 46.7206 38.5251L 46.3224 39.1893L 46.3224 39.5879L 46.5879 39.9864L 47.517 42.3776L 47.6497 42.909L 47.517 43.7061L 46.9861 43.8389L 46.7206 43.5732L 46.7206 43.8389L 46.9861 44.5031L 47.7824 44.7688L 48.3133 45.0345L 48.7115 45.3002L 48.3133 46.4958L 48.3133 46.7615L 49.6406 48.6213L 49.9061 49.1527L 49.5079 49.2856L 49.2424 49.6841L 49.2424 50.2155L 49.5079 50.8797L 48.8443 51.1454L 48.3133 51.6768L 47.7824 52.6067L 47.6497 53.2709L 47.7824 54.3337L 48.3133 54.5994L 48.8443 54.5994L 49.3752 54.9979L 51.1007 58.8504L 51.7643 59.7803L 53.357 60.8431L 54.8171 62.3044L 55.2152 62.9686L 54.6843 63.2343L 54.5516 63.7657L 55.0825 64.6956L 55.8789 66.0241L 56.1443 66.6883L 56.5425 68.8138L 56.5425 69.0795L 56.4098 69.478L 56.6753 69.6109L 57.0735 69.7437L 57.4716 70.0094L 57.8698 70.5408L 58.0026 70.9393L 58.0026 71.3379L 58.1353 72.0021L 58.6662 72.7992L 60.7899 74.7918L 63.4444 76.2531L 63.8426 76.9174L 63.4444 77.8473L 62.5153 77.9801L 61.4535 77.9801L 60.9226 78.3787L 60.1262 77.8473L 59.1971 77.9801L 58.4007 78.5115L 58.0026 79.4414L 58.0026 80.3713L 58.5335 81.0356L 59.3298 81.4341L 60.2589 81.5669L 60.2589 81.8326L 59.8608 82.7626L 60.2589 83.5596L 61.188 84.091L 61.9844 84.2239L 61.8517 85.4195L 62.1172 86.4822L 62.9135 88.4749L 62.2499 89.8034L 62.5153 92.1946L 62.7808 92.8588L 62.9135 92.9916L 62.9135 93.1245L 62.5153 93.6559L 61.9844 94.3201L 59.728 95.1172L 59.5953 95.6485L 59.5953 96.5785L 59.5953 97.2427L 59.4626 97.7741L 58.7989 99.3682L 57.0735 100.165L 51.3661 100.298L 50.3043 100.697L 49.6406 100.962L 49.2424 101.361L 48.8443 102.025L 48.4461 103.354L 48.0479 104.018L 45.526 106.675L 44.5969 107.605L 42.8715 108.933L 41.4114 109.996L 34.1113 117.834L 33.1822 119.295L 31.9877 120.225L 30.6604 121.553L 27.2094 126.601L 25.8821 127.93L 25.7494 128.328L 25.484 129.258L 25.3512 129.657L 25.2185 130.055L 24.6876 130.188L 24.4221 130.454L 24.1567 130.853L 22.1657 134.439L 21.6348 134.971L 21.2366 135.104L 20.573 135.236L 20.1748 135.502L 19.9093 135.901L 19.3784 137.495L 16.9893 140.683L 16.1929 142.543L 16.7239 144.27L 16.9893 144.934L 17.122 147.06L 17.2548 147.591L 17.3875 147.857L 17.7857 148.521L 18.4493 149.185L 18.7148 149.584L 18.8475 150.381L 19.2457 154.897L 19.113 155.562L 18.5821 157.023L 18.1839 158.75L 17.653 159.813L 17.5202 160.477L 17.653 160.743L 17.7857 160.61L 18.1839 160.078L 18.7148 160.477L 18.5821 160.477L 19.6439 161.141L 20.573 162.337L 21.1039 162.735L 22.5639 163.532L 22.9621 164.064L 22.9621 164.462L 22.6967 165.392L 22.6967 166.056L 22.8294 166.455L 23.3603 167.385L 23.493 167.651L 23.0948 168.448L 22.4312 168.182L 21.7675 167.518L 21.2366 167.385L 20.8384 167.252L 20.1748 166.455L 19.9093 166.056L 19.5112 166.056L 18.8475 166.322L 17.653 166.189L 16.9893 166.322L 16.3257 166.189L 15.5293 165.658L 14.3347 164.329L 13.6711 164.064L 13.0074 164.728L 12.742 165.525L 12.4765 166.588L 12.3438 167.651L 12.3438 168.448L 11.9456 169.112L 10.6183 169.245L 10.0874 169.643L 9.42376 171.636L 9.02557 172.433L 9.02557 172.699L 9.02557 173.363L 8.89284 173.629L 8.62738 174.027L 7.83101 174.691L 7.56555 175.09L 7.43282 175.621L 7.43282 176.02L 7.43282 176.418L 7.56555 178.013L 7.43282 178.278L 7.16736 178.81L 6.90191 179.208L 6.63645 179.74L 6.37099 180.005L 6.23826 180.669L 6.23826 181.732L 6.10553 182.795L 5.70735 183.725L 5.17643 184.389L 4.77824 184.655L 3.98187 184.788L 3.58368 185.053L 3.31822 185.319L 3.05277 186.116L 2.78731 186.515L 0.663645 188.242L 0.132729 189.039L 0.132729 189.969L 0.530916 191.828L 0.398187 192.626L 0 193.423L 0 196.877L 0.796374 197.009L 0.929103 197.009L 1.19456 196.611L 2.25639 196.212L 3.31822 196.345L 4.38006 196.877L 3.84914 198.338L 3.84914 199.135L 4.77824 199.135L 5.0437 199.135L 5.30916 199.533L 5.30916 200.065L 5.17643 200.596L 5.17643 201.26L 5.57462 202.19L 7.16736 204.582L 7.43282 204.714L 7.69828 204.714L 7.96374 204.582L 8.2292 204.449L 8.36193 204.449L 8.62738 204.449L 9.29103 204.714L 9.82194 204.847L 10.3529 204.847L 10.8838 204.582L 11.0165 204.582L 11.1492 204.582L 11.282 204.582L 13.6711 207.637L 14.0693 208.567L 14.4675 210.028L 14.9984 211.091L 15.1311 211.357L 15.2638 211.357L 15.662 211.091L 17.9184 211.091L 18.4493 210.958L 18.9802 210.56L 19.5112 210.427L 20.0421 210.692L 20.1748 210.958L 21.3694 211.622L 22.2985 212.552L 22.6967 213.084L 22.9621 213.748L 23.2276 214.678L 23.0948 215.209L 22.8294 215.608L 22.8294 216.405L 22.2985 217.069L 22.5639 217.6L 23.7585 218.53L 24.4221 218.265L 24.953 217.866L 25.2185 217.202L 24.953 216.272L 25.2185 215.741L 25.7494 215.741L 26.2803 216.006L 26.8113 216.405L 27.3422 216.671L 27.8731 216.803L 28.404 216.671L 29.7313 215.608L 30.1295 214.811L 30.5277 212.552L 31.1913 211.622L 31.8549 211.357L 32.5186 211.49L 34.6423 212.287L 35.1732 212.685L 36.5005 214.279L 37.9605 215.608L 38.6241 216.405L 38.8896 216.538L 39.155 216.538L 39.4205 216.538L 39.686 216.405L 39.8187 216.405L 41.9424 217.468L 42.606 217.468L 42.8715 217.335L 43.0042 217.069L 43.1369 216.803L 43.2696 216.538L 43.5351 216.272L 43.9333 216.139L 45.1278 215.873L 45.6588 216.139L 47.6497 216.405L 48.977 216.803L 49.7734 216.936L 51.897 216.803L 52.4279 217.069L 54.0207 218.53L 54.1534 219.195L 54.8171 219.195L 58.0026 217.866L 58.9317 217.866L 59.4626 218.265L 61.0553 218.663L 61.719 218.929L 62.9135 219.992L 63.4444 220.124L 65.3027 220.789L 65.9663 220.789L 68.2227 219.593L 69.8154 219.593L 71.01 218.53L 71.6736 218.132L 72.2046 218.132L 73.93 218.53L 75.6555 218.53L 76.3192 218.663L 77.7792 219.593L 78.5755 220.257L 79.1065 220.922L 79.3719 221.719L 79.3719 222.383L 79.5046 222.914L 80.0356 223.578L 81.0974 224.243L 83.6192 225.305L 84.0174 225.704L 84.4156 226.235L 85.4775 228.095L 86.2738 229.291L 86.8047 229.689L 90.5211 229.025L 92.5121 228.095L 93.8394 226.767L 96.8921 221.719L 98.2194 220.789L 113.749 219.062L 115.872 218.265L 117.598 218.132L 118.527 217.733L 119.058 217.6L 120.518 217.733L 122.509 217.202L 125.562 217.202L 127.022 216.538L 127.287 216.006L 127.951 214.412L 128.349 213.881L 129.145 213.217L 129.543 212.818L 130.074 211.755L 130.605 210.294L 130.871 208.833L 130.871 207.77L 131.136 206.176L 131.402 206.309L 131.933 206.309L 132.596 206.176L 133.658 205.644L 134.189 205.512L 135.649 205.379L 136.18 205.246L 140.162 204.316L 141.091 203.785L 141.091 203.386L 141.224 202.855L 141.622 202.323L 142.684 201.659L 142.816 200.995L 143.082 200.596L 143.745 200.862L 144.144 201.393L 144.542 201.925L 144.94 202.456L 145.471 202.722L 146.135 202.722L 146.533 202.456L 146.665 201.792L 146.665 200.596L 146.533 199.666L 146.267 199.135L 146.267 198.736L 146.533 198.205L 146.665 198.205L 147.196 198.471L 147.462 198.471L 147.727 198.205L 147.86 197.806L 147.993 197.541L 148.391 197.408L 149.453 197.939L 150.515 198.869L 151.576 199.533L 152.771 199.401L 153.036 199.135L 153.302 199.135L 153.567 199.268L 153.966 199.268L 154.364 199.401L 154.497 199.268L 154.497 199.002L 154.364 198.736L 154.364 198.471L 154.364 197.939L 154.231 197.541L 154.231 197.142L 154.629 197.009L 154.895 197.142L 155.558 197.541L 159.009 198.869L 160.071 198.869L 161.266 198.205L 163.124 195.814L 164.318 195.282L 164.982 195.415L 165.911 196.212L 166.309 196.345L 166.84 196.08L 168.699 194.485L 169.362 193.555L 170.689 193.555L 171.088 193.423L 171.884 192.891L 172.548 193.024L 172.68 194.22L 173.344 194.485L 177.326 194.485L 178.388 195.017L 180.379 196.478L 180.91 196.877L 181.839 198.338L 182.104 198.604L 182.768 199.666L 184.095 200.198L 186.882 200.596L 187.546 200.862L 188.077 201.393L 188.21 202.19L 187.546 204.05L 187.944 204.449L 188.608 204.449L 189.139 204.316L 190.068 203.519L 190.599 203.386L 190.864 204.183L 190.997 205.113L 191.262 205.644L 191.793 205.777L 192.59 205.644L 193.253 205.246L 193.784 204.847L 194.315 204.449L 195.775 204.316L 196.306 204.449L 196.572 204.847L 196.704 205.777L 196.439 206.707L 196.041 207.106L 195.642 207.371L 195.112 207.903L 194.979 208.567L 195.112 209.231L 195.51 209.63L 196.173 209.497L 196.704 208.965L 196.97 208.301L 197.368 207.77L 198.032 207.637L 198.563 208.036L 198.828 208.7L 198.828 209.364L 198.297 210.028L 199.226 211.888L 199.624 212.287L 200.288 212.685L 200.553 212.685L 200.686 212.287L 200.686 211.49L 200.952 210.56L 201.615 208.833L 202.279 208.567L 203.341 208.567L 206.261 209.763L 208.384 209.763L 209.579 210.028L 210.508 210.56L 210.774 210.958L 210.906 211.357L 210.906 211.622L 211.039 211.888L 211.57 213.084L 211.835 214.412L 211.835 214.678L 211.968 214.944L 212.499 215.475L 213.295 216.936L 214.357 217.999L 215.419 218.929L 216.348 219.327L 217.543 219.062L 219.003 217.202L 219.932 216.671L 220.463 216.671L 220.861 216.803L 221.259 217.202L 221.657 217.733L 221.923 218.397L 222.188 219.992L 222.454 220.656L 222.852 221.054L 224.046 221.453L 224.312 221.719L 224.179 222.383L 223.648 223.047L 222.985 223.711L 222.586 224.243L 222.321 225.04L 222.321 225.571L 222.586 225.837L 223.648 226.235L 224.046 226.634L 224.179 227.165L 223.781 227.697L 222.852 228.892L 222.719 230.354L 222.719 232.081L 222.454 233.808L 221.657 235.269L 220.861 236.332L 220.463 237.527L 220.861 239.387L 221.126 239.918L 221.657 241.247L 221.923 241.778L 222.454 242.177L 222.719 241.911L 222.985 241.38L 223.516 241.114L 224.046 241.38L 224.577 242.31L 225.507 242.974L 225.772 243.505L 225.905 244.037L 226.17 244.568L 226.701 244.834L 227.232 244.967L 227.763 245.099L 228.161 245.764L 228.294 246.428L 228.294 247.092L 228.427 247.756L 228.825 248.421L 229.223 248.819L 229.754 249.085L 230.285 249.085L 230.816 248.952L 231.347 248.421L 231.745 247.889L 231.877 247.225L 232.143 246.561L 232.807 246.428L 233.47 246.428L 234.134 246.694L 234.665 247.225L 235.063 248.022L 235.328 249.085L 235.328 250.148L 234.93 250.945L 234.134 251.343L 234.001 252.406L 234.267 254.797L 234.134 255.993L 233.736 256.524L 233.072 256.79L 232.143 256.923L 232.01 257.055L 232.01 257.321L 232.143 257.454L 233.072 259.314L 233.338 259.579L 233.736 259.314L 234.001 258.782L 234.399 258.251L 235.063 258.251L 235.461 258.517L 235.859 259.048L 236.125 259.712L 236.125 260.377L 235.859 261.041L 236.258 261.705L 235.859 262.236L 235.594 263.963L 235.461 264.628L 235.461 265.159L 235.727 265.69L 235.859 265.69L 236.656 265.558L 236.921 265.69L 237.452 266.222L 237.718 266.487L 238.248 266.62L 239.31 266.753L 239.841 267.019L 240.372 267.55L 241.036 268.746L 241.567 269.144L 242.629 269.277L 243.558 269.144L 244.487 269.277L 245.416 270.074L 245.549 270.34L 245.814 271.137L 245.947 271.403L 246.212 271.403L 246.478 271.27L 246.743 271.137L 247.141 271.403L 247.274 271.668L 247.274 272.598L 247.274 272.997L 247.407 273.263L 247.805 273.927L 247.938 274.325L 247.938 275.122L 247.672 278.045L 247.54 278.576L 247.407 278.975L 247.274 279.373L 247.274 279.905L 247.407 280.436L 247.805 281.366L 247.938 281.765L 247.54 282.827L 246.876 282.96L 246.345 282.96L 246.478 284.023L 246.876 284.554L 248.203 285.086L 248.203 285.219L 248.336 285.617L 248.469 285.75L 248.734 285.617L 249.132 285.351L 249.398 285.351L 249.663 285.484L 249.796 285.75L 250.194 286.547L 249.929 286.946L 251.389 288.141L 251.92 288.805L 252.185 288.54L 252.716 288.407L 253.247 288.54L 253.645 288.805L 252.849 290.134L 252.052 290.931L 250.725 291.197L 247.009 290.931L 246.478 291.064L 245.947 291.33L 244.752 292.392L 244.089 292.525L 243.425 291.861L 243.292 291.595L 243.292 290.665L 243.292 290.267L 243.159 289.868L 242.496 288.805L 240.77 287.211L 240.372 286.547L 240.372 287.876L 239.974 288.54L 239.31 288.805L 238.381 288.805L 238.248 289.071L 238.381 290.134L 238.116 290.931L 237.718 291.33L 237.187 291.462L 236.656 291.462L 236.125 291.197L 235.727 290.665L 235.328 289.735L 234.798 289.337L 234.399 289.204L 233.47 289.071L 232.939 288.805L 232.807 288.54L 232.807 288.141L 232.807 287.743L 232.939 287.344L 233.072 287.078L 233.205 286.813L 233.205 286.547L 233.072 286.281L 232.276 286.149L 231.612 286.547L 231.081 287.211L 229.621 289.337L 229.223 289.337L 228.692 288.54L 227.896 286.946L 227.497 286.813L 226.967 287.743L 226.834 288.274L 226.967 289.204L 226.967 289.603L 226.701 290.134L 226.568 290.267L 226.303 290.134L 225.905 290.267L 224.71 291.595L 224.046 291.994L 223.516 291.595L 223.516 291.064L 223.781 290.665L 224.046 290.267L 224.312 289.868L 224.445 289.337L 224.445 285.484L 224.179 284.422L 223.648 283.757L 222.985 283.757L 220.197 285.351L 218.472 286.016L 216.083 287.61L 215.419 288.54L 215.154 289.868L 215.419 291.595L 215.95 293.854L 215.95 294.518L 215.817 295.315L 215.552 295.979L 215.552 296.643L 216.083 297.308L 217.941 299.035L 218.074 300.097L 217.675 301.16L 217.012 302.356L 215.95 303.551L 215.685 304.215L 215.817 305.278L 216.348 307.271L 216.215 308.201L 215.419 308.599L 209.844 310.061L 209.314 310.459L 208.915 311.123L 208.915 311.921L 209.314 313.515L 209.446 314.312L 209.446 315.242L 209.314 315.773L 208.915 316.172L 208.384 316.57L 207.455 316.703L 207.19 316.969L 207.19 317.234L 207.323 317.633L 207.323 318.164L 207.19 318.563L 206.394 319.094L 204.27 319.227L 203.739 320.024L 204.004 320.821L 203.739 321.22L 202.81 321.485L 202.279 321.884L 201.881 322.282L 201.217 323.345L 200.952 323.877L 201.217 324.142L 201.748 324.408L 202.146 324.806L 202.412 325.471L 202.412 326.135L 202.544 326.799L 202.943 327.463L 202.146 327.862L 202.013 327.995L 201.748 328.393L 201.748 328.526L 201.881 328.659L 202.013 330.12L 201.881 330.652L 201.217 330.917L 199.226 330.785L 196.837 330.12L 194.581 329.987L 192.855 331.316L 192.457 332.113L 192.192 332.644L 192.059 332.91L 192.457 333.441L 193.253 333.309L 194.182 333.84L 194.846 334.637L 194.713 335.567L 195.642 337.958L 196.306 339.021L 196.97 339.552L 197.501 339.685L 198.563 340.349L 201.35 341.014L 204.004 342.342L 208.252 343.272L 209.446 343.139L 210.508 343.139L 210.906 343.006L 211.305 342.608L 210.375 342.209L 210.11 342.076L 209.977 341.811L 209.844 341.412L 209.977 341.014L 210.906 340.615L 210.906 339.951L 210.906 339.287L 211.703 339.154L 212.234 339.287L 213.03 339.951L 213.694 340.084L 214.092 340.349L 214.623 340.881L 215.286 341.279L 215.95 341.014L 216.083 340.748L 216.215 339.818L 216.348 339.419L 216.614 339.287L 216.879 339.154L 217.543 339.154L 217.941 338.888L 219.534 337.56L 220.861 337.161L 221.392 336.895L 221.79 336.364L 222.056 336.231L 222.852 336.231L 222.985 336.098L 223.117 335.833L 223.383 335.567L 223.914 335.168L 224.577 334.77L 225.108 334.77L 225.639 334.903L 226.303 334.903L 226.568 334.77L 226.834 334.504L 227.099 334.239L 227.365 333.973L 227.63 333.84L 228.028 333.973L 228.427 334.106L 228.692 334.239L 231.081 334.504L 235.461 336.098L 236.921 337.427L 237.319 337.56L 237.983 338.224L 238.514 339.818L 238.647 341.545L 238.248 342.873L 238.381 343.139L 238.381 343.405L 238.248 343.671L 238.116 343.936L 238.647 344.069L 239.178 343.936L 239.709 343.671L 240.239 343.139L 240.239 343.006L 240.239 342.608L 240.372 342.076L 240.77 341.014L 240.77 340.615L 241.036 339.951L 241.169 339.552L 241.169 339.154L 241.036 337.294L 240.903 336.364L 240.638 335.567L 240.239 335.036L 240.903 335.036L 241.169 334.504L 241.169 333.574L 240.903 332.91L 240.372 332.379L 240.107 332.777L 239.974 333.574L 239.841 334.239L 239.709 333.441L 239.443 333.309L 239.178 333.309L 238.912 333.176L 238.912 333.309L 238.779 333.441L 238.514 333.441L 238.912 333.441L 238.912 332.379L 238.381 332.512L 238.248 332.91L 238.248 333.441L 238.116 333.84L 237.718 333.84L 237.319 333.574L 237.054 333.176L 236.523 332.113L 236.523 331.714L 237.054 331.582L 237.319 331.316L 237.452 330.917L 237.585 330.519L 237.85 330.386L 238.248 329.987L 239.31 328.393L 239.709 327.862L 238.912 328.659L 238.381 328.925L 237.85 329.058L 237.319 329.058L 236.921 328.925L 236.125 328.526L 236.39 326.533L 236.258 324.408L 236.523 322.548L 237.585 321.751L 237.319 321.22L 237.187 320.954L 237.054 320.555L 237.054 319.891L 237.187 319.36L 237.718 318.563L 237.85 318.164L 237.718 317.899L 237.319 317.367L 237.187 317.101L 237.319 316.703L 237.452 316.437L 237.585 316.437L 237.718 316.836L 237.983 316.969L 238.647 317.5L 238.779 317.5L 238.912 317.633L 239.045 317.899L 239.31 318.43L 239.31 318.696L 239.178 319.094L 239.045 319.758L 239.178 321.884L 239.045 322.15L 239.709 322.548L 240.239 323.478L 240.638 324.674L 240.638 325.869L 241.036 325.471L 241.965 325.205L 242.496 324.939L 242.363 324.541L 242.363 324.408L 242.496 324.275L 242.629 324.009L 243.292 324.275L 243.823 324.009L 244.354 323.611L 244.885 323.345L 245.018 323.212L 244.752 322.947L 244.221 322.415L 243.425 322.15L 243.027 321.884L 242.761 321.22L 242.894 320.29L 243.558 319.758L 244.487 319.626L 245.15 319.626L 245.283 319.493L 245.416 319.227L 245.549 319.094L 245.814 318.961L 246.079 319.094L 246.079 319.227L 246.079 319.493L 246.212 319.626L 246.876 320.157L 247.141 320.423L 247.274 320.821L 247.407 319.626L 247.141 319.227L 246.876 318.696L 246.743 318.164L 246.743 317.367L 247.009 316.703L 247.274 316.57L 247.407 316.836L 247.274 317.367L 247.274 317.633L 247.54 318.031L 247.805 318.563L 247.938 317.5L 248.07 316.437L 248.336 315.507L 249 315.109L 249.796 315.374L 251.256 316.57L 251.521 316.437L 251.654 316.304L 251.787 316.437L 252.052 316.57L 252.185 316.703L 252.45 316.703L 252.45 316.57L 252.45 316.304L 252.583 316.039L 252.583 315.773L 252.716 314.577L 252.849 314.046L 253.114 313.648L 253.38 313.382L 253.645 313.515L 253.911 316.039L 253.778 316.703L 255.901 314.976L 257.627 313.249L 261.078 308.599L 264.927 304.88L 265.192 304.215L 265.856 302.488L 266.122 302.09L 266.652 301.824L 267.051 301.16L 267.714 299.832L 269.971 296.643L 270.9 294.783L 271.033 294.385L 271.033 293.854L 270.767 293.588L 270.103 293.057L 269.971 292.791L 270.369 292.127L 272.094 292.259L 272.625 291.728L 273.953 290.001L 274.085 289.735L 274.351 288.407L 274.483 288.141L 274.616 288.008L 274.749 287.876L 274.882 287.743L 274.749 287.477L 274.483 287.211L 274.351 287.211L 274.085 286.281L 273.554 285.086L 273.422 284.554L 273.554 284.156L 274.483 282.827L 274.882 282.429L 275.147 282.429L 276.474 282.695L 276.873 282.562L 278.731 281.233L 279.129 281.1L 279.527 281.233L 279.793 281.233L 280.589 280.569L 280.854 280.436L 281.518 280.303L 282.845 279.905L 284.571 279.639L 286.164 279.108L 287.093 279.108L 289.349 279.639L 289.88 280.038L 290.146 279.639L 290.544 279.905L 291.473 280.038L 291.871 280.303L 292.269 279.905L 293.596 279.108L 294.26 278.975L 294.658 278.576L 295.72 276.849L 296.251 276.451L 296.251 276.318L 296.782 275.388L 297.047 274.857L 296.915 274.591L 295.853 273.794L 295.587 273.661L 295.322 273.395L 295.189 272.731L 295.189 272.466L 294.791 271.27L 295.322 271.536L 295.72 272.067L 296.251 273.263L 296.649 273.661L 297.047 273.927L 297.446 273.794L 297.578 273.661L 297.578 273.528L 298.242 272.598L 298.375 272.333L 298.64 272.2L 299.304 271.934L 299.569 271.801L 299.835 271.27L 299.967 270.606L 300.233 270.34L 300.631 270.871L 299.171 273.13L 298.773 273.528L 298.773 273.927L 298.375 274.99L 296.649 277.912L 296.384 278.709L 296.516 279.373L 296.782 279.506L 297.18 279.506L 297.844 279.506L 298.109 279.639L 298.507 280.038L 298.773 280.171L 299.437 280.038L 299.702 279.506L 299.967 278.842L 300.498 278.576L 302.357 278.444L 305.409 279.639L 306.737 279.772L 308.064 279.506L 308.462 279.241L 309.126 278.709L 309.391 278.444L 309.657 277.912L 309.657 277.646L 309.524 277.248L 309.391 276.451L 309.657 274.458L 309.524 274.192L 308.329 272.598L 308.329 271.403L 308.728 270.34L 309.391 269.676L 310.188 269.41L 310.851 268.879L 311.382 267.683L 311.648 266.355L 311.515 265.425L 310.851 265.823L 310.188 266.089L 309.657 265.956L 309.391 265.159L 309.524 264.362L 309.922 263.698L 310.851 262.635L 309.789 262.502L 308.329 262.635L 307.268 262.236L 307.533 260.111L 307.798 259.845L 308.197 259.048L 308.462 258.251L 308.064 257.853L 307.931 257.72L 307.798 257.587L 307.533 257.321L 306.737 257.188L 306.604 256.923L 306.604 254.266L 306.604 253.734L 305.277 253.336L 304.613 252.937L 304.082 252.406L 303.817 251.874L 303.949 251.609L 304.348 250.812L 304.48 250.679L 304.746 250.812L 304.746 251.21L 304.613 252.14L 304.878 252.672L 306.869 253.601L 307.268 254.133L 307.4 254.531L 307.4 255.063L 307.533 255.993L 307.798 256.657L 308.064 256.923L 308.462 257.055L 308.86 257.454L 309.391 258.65L 309.258 259.712L 308.329 261.705L 308.86 262.236L 309.391 262.369L 310.719 262.104L 311.648 262.236L 311.913 262.502L 311.648 263.033L 310.719 264.495L 310.586 265.026L 310.851 265.425L 312.444 265.69L 312.709 266.222L 312.709 266.886L 312.577 267.816L 311.913 269.41L 311.117 270.738L 310.586 272.2L 310.719 274.06L 310.984 274.857L 311.382 275.521L 311.648 276.185L 311.78 277.115L 311.913 277.912L 312.311 278.842L 312.842 279.639L 313.24 280.171L 313.771 280.436L 315.762 280.835L 316.293 281.233L 316.691 282.96L 317.089 283.492L 317.886 282.562L 318.151 282.562L 318.815 282.296L 319.213 282.296L 319.479 282.163L 320.01 281.499L 320.408 281.366L 320.54 281.499L 321.071 282.296L 323.195 283.492L 325.451 283.226L 329.699 280.835L 330.495 280.968L 331.424 280.569L 332.221 279.905L 333.017 279.506L 332.619 280.303L 332.221 280.702L 331.69 281.1L 331.159 281.632L 330.628 282.03L 329.168 282.163L 328.637 282.562L 326.38 284.422L 325.451 285.617L 326.115 286.414L 325.186 287.344L 323.991 287.876L 322.664 288.008L 321.337 287.743L 319.611 286.68L 316.16 285.883L 315.497 285.883L 313.639 286.149L 310.984 285.484L 308.329 285.484L 307.931 285.351L 306.073 284.289L 305.011 284.023L 299.437 284.422L 298.906 284.156L 298.109 283.226L 297.047 282.429L 297.578 283.492L 301.295 287.344L 301.693 287.477L 301.958 287.743L 302.622 289.603L 302.622 288.141L 302.622 287.743L 302.755 287.344L 302.887 287.078L 303.286 286.547L 303.817 286.281L 304.48 286.281L 305.144 286.547L 309.524 288.407L 310.851 288.673L 312.046 288.54L 312.577 288.805L 314.037 290.798L 314.302 291.33L 314.037 291.462L 313.639 291.462L 313.24 291.595L 311.515 293.189L 311.249 293.322L 308.86 293.721L 307.135 293.322L 306.471 293.455L 305.94 293.721L 305.277 294.252L 304.878 294.916L 305.011 295.581L 305.409 296.112L 305.94 296.378L 306.471 296.51L 308.462 296.643L 308.728 296.378L 308.595 295.846L 308.462 295.315L 308.595 294.783L 311.249 296.776L 312.842 297.573L 313.771 297.175L 314.7 297.972L 315.895 299.566L 316.293 299.832L 316.691 299.964L 318.151 300.496L 318.948 300.629L 319.744 300.496L 320.673 300.097L 320.54 300.496L 320.408 300.762L 319.744 301.293L 319.877 301.559L 320.01 302.223L 320.142 302.621L 320.142 302.887L 320.275 303.418L 320.275 303.551L 320.408 303.684L 320.806 303.684L 321.47 304.215L 327.841 306.075L 329.168 305.81L 329.433 305.677L 329.964 305.145L 330.23 304.88L 330.495 304.747L 334.477 304.083L 335.672 303.551L 336.202 303.418L 336.999 303.551L 338.724 304.083L 338.99 304.083L 339.653 304.083L 339.919 304.083L 340.184 304.348L 340.45 304.348L 340.848 304.348L 344.166 303.817L 344.564 303.286L 344.299 301.957L 346.157 302.887L 346.821 303.418L 347.086 303.551L 347.352 303.551L 347.75 303.418L 348.015 303.418L 349.077 302.887L 349.741 301.691L 350.272 300.363L 350.935 299.566L 350.67 302.754L 350.537 303.286L 350.272 303.817L 352.794 303.418L 353.457 303.684L 353.59 304.215L 353.192 304.88L 352.661 305.411L 352.926 305.411L 353.059 305.411L 353.192 305.411L 353.324 305.677L 353.988 304.747L 354.784 304.88L 355.581 305.677L 356.51 307.005L 356.775 307.271L 358.766 307.271L 359.43 307.537L 359.695 307.537L 359.032 306.607L 359.297 306.075L 360.094 305.81L 360.89 305.81L 360.89 305.411L 360.094 304.88L 360.094 304.215L 360.625 303.551L 361.288 302.887L 362.085 302.621L 362.616 303.153L 363.545 305.013L 363.677 305.677L 363.412 306.208L 363.014 306.74L 363.014 307.271L 363.412 308.865L 363.412 309.131L 363.146 309.529L 363.014 309.928L 363.014 310.326L 363.412 310.459L 363.279 310.725L 363.014 311.256L 363.677 310.858L 364.076 311.123L 364.341 310.991L 364.606 310.725L 365.005 310.592L 365.801 310.459L 367.659 310.991L 368.19 311.256L 368.721 311.788L 368.19 312.053L 367.128 312.319L 366.597 312.585L 366.066 312.452L 365.934 313.249L 366.066 314.312L 366.066 314.843L 365.403 314.976L 365.005 314.976L 364.872 314.71L 364.739 314.445L 364.474 314.179L 364.076 314.046L 363.81 313.913L 363.545 313.913L 363.146 314.046L 362.483 314.445L 361.686 315.374L 360.89 315.64L 360.625 315.64L 360.226 315.507L 359.563 315.109L 359.297 314.976L 358.766 315.242L 357.439 316.172L 356.908 316.304L 355.979 317.367L 355.846 317.633L 354.652 318.164L 352.395 319.626L 351.334 319.758L 350.272 319.094L 349.741 318.43L 349.475 318.164L 349.21 318.43L 349.21 318.828L 349.475 319.094L 349.741 319.227L 349.874 319.36L 349.741 319.891L 349.343 320.157L 342.175 323.478L 340.052 324.939L 339.122 326.002L 338.857 326.268L 338.724 326.533L 338.592 326.932L 338.592 327.331L 338.724 327.729L 338.724 328.128L 338.326 328.26L 337.928 328.26L 337.264 327.995L 336.999 327.995L 336.468 328.128L 336.202 328.393L 335.937 328.659L 335.672 328.925L 335.273 329.323L 334.742 329.589L 334.079 329.722L 333.282 329.855L 332.751 329.987L 329.035 332.91L 328.106 333.973L 327.708 335.168L 327.841 335.833L 328.77 338.224L 329.433 338.357L 330.495 338.888L 331.159 339.154L 333.415 339.154L 333.946 338.888L 335.008 337.692L 335.539 337.294L 336.202 337.161L 340.981 337.56L 342.308 338.091L 343.503 338.888L 345.493 340.615L 345.759 340.748L 346.29 341.014L 346.555 341.146L 346.953 341.811L 347.219 342.209L 348.015 342.741L 349.077 344.069L 349.608 344.468L 351.068 344.866L 351.732 345.265L 351.997 345.929L 352.263 346.327L 352.926 346.195L 353.988 345.53L 355.183 345.132L 356.51 344.999L 357.041 345.265L 358.766 346.859L 361.023 348.187L 361.819 349.25L 362.35 351.11L 362.483 352.305L 362.616 352.704L 363.146 353.767L 363.279 354.032L 363.412 354.697L 363.81 356.424L 363.81 357.486L 363.677 358.416L 363.545 359.213L 363.146 359.745L 361.952 360.143L 361.554 360.675L 361.288 361.472L 361.156 362.402L 361.023 362.667L 360.89 362.8L 360.625 362.933L 360.89 363.464L 361.023 364.129L 361.156 365.324L 361.421 366.254L 361.421 366.786L 361.288 367.45L 361.023 367.981L 360.625 368.513L 360.359 369.044L 360.359 369.708L 360.625 369.974L 361.686 370.24L 362.085 370.372L 361.421 370.638L 359.828 370.638L 359.43 370.771L 359.165 370.904L 358.766 370.904L 358.103 370.904L 357.837 371.037L 357.174 371.568L 356.908 371.701L 355.979 371.967L 355.846 371.834L 355.846 372.365L 356.112 372.896L 359.43 375.288L 359.828 375.686L 360.359 376.085L 361.023 376.085L 361.686 375.952L 362.217 375.952L 362.616 376.218L 363.545 377.413L 363.81 377.812L 363.943 378.609L 364.341 379.007L 366.73 380.07L 367.394 380.203L 369.517 380.203L 369.916 380.203L 370.579 380.07L 370.977 380.07L 372.968 380.867L 373.632 381L 374.296 380.867L 377.747 379.273L 378.41 379.14L 378.808 379.007L 379.87 378.21L 380.268 377.812L 380.667 377.015L 380.932 376.35L 381.33 375.819L 382.79 375.553L 383.189 375.288L 383.852 374.225L 383.985 374.092L 383.985 373.826L 384.118 373.694L 384.118 373.561L 384.516 373.561L 384.914 373.561L 385.578 373.694L 385.843 373.561L 386.109 373.029L 387.303 369.841L 388.365 367.981L 388.63 367.583L 388.763 367.317L 390.09 365.59L 390.223 365.59L 390.223 365.723L 390.223 365.856L 391.02 365.059L 392.081 364.66L 394.603 364.129L 395.798 363.597L 398.054 362.136L 399.249 361.737L 401.505 362.136L 402.036 361.87L 402.434 361.605L 403.496 361.87L 404.027 361.737L 404.292 361.472L 404.425 361.206L 404.691 360.94L 405.089 360.675L 405.354 360.675L 406.416 360.675L 407.08 360.94L 407.478 361.472L 407.743 362.136L 408.009 362.667L 409.336 362.8L 410.265 361.472L 410.929 359.479L 411.725 358.018L 412.256 357.752L 413.583 357.486L 414.114 356.955L 414.778 355.494L 415.309 355.095L 416.105 355.627L 416.371 355.494L 416.636 355.228L 416.769 355.095L 418.229 356.291L 418.096 354.962L 418.096 354.298L 418.494 353.767L 419.025 353.501L 420.087 353.634L 420.485 353.368L 420.485 353.103L 419.556 352.704L 419.424 352.438L 419.291 352.04L 419.424 351.641L 419.556 351.243L 419.689 350.711L 419.954 350.313L 421.68 348.984L 422.874 348.453L 424.202 348.187L 425.529 348.187L 426.856 348.453L 429.113 349.383L 431.236 350.711L 431.635 351.11L 432.564 352.305L 432.696 352.704L 432.962 353.767L 433.626 354.032L 435.882 353.634L 438.271 353.767L 438.802 353.235L 439.333 352.173L 439.996 351.508L 441.058 351.907L 441.058 351.641L 442.784 352.704L 445.571 353.368L 446.235 353.235L 446.367 352.97L 446.633 352.173L 446.766 351.907L 447.031 351.641L 447.429 351.508L 450.217 351.376L 452.473 350.578L 452.871 350.18L 453.004 349.516L 452.606 348.852L 451.677 347.922L 451.411 346.992L 451.411 346.062L 451.677 343.405L 451.942 342.475L 452.34 341.545L 452.738 341.014L 453.004 340.881L 453.668 340.881L 453.933 340.748L 454.066 340.349L 453.933 340.084L 453.8 339.951L 453.668 339.685L 453.8 338.755L 454.199 338.224L 454.729 338.091L 455.526 338.224L 456.455 338.755L 456.853 338.888L 457.251 338.888L 458.313 338.622L 458.579 338.091L 458.313 337.028L 457.782 335.434L 457.251 334.903L 456.72 334.637L 456.189 334.77L 455.659 335.301L 455.128 335.434L 454.597 334.903L 453.8 333.84L 453.137 333.707L 451.278 334.106L 450.615 333.973L 449.686 333.309L 449.022 333.176L 448.624 333.309L 448.358 333.574L 448.093 333.84L 447.695 333.84L 447.96 333.043L 447.695 332.512L 447.164 332.379L 446.633 332.777L 446.235 333.176L 442.651 333.176L 441.987 333.441L 441.324 334.106L 440.395 334.637L 440.262 334.77L 439.864 336.098L 438.935 337.294L 437.74 337.56L 436.546 337.161L 434.156 335.7L 433.626 335.301L 433.36 334.77L 433.493 333.973L 433.758 333.309L 433.626 332.91L 432.829 332.777L 432.298 333.043L 431.9 333.707L 431.635 334.504L 431.502 335.301L 431.369 335.567L 430.838 336.231L 430.705 336.364L 430.307 336.497L 430.175 336.763L 430.175 337.161L 430.042 337.56L 429.113 338.49L 428.449 338.888L 422.874 340.482L 421.68 340.349L 417.034 337.028L 407.876 323.611L 405.089 318.164L 403.363 313.648L 403.098 313.116L 402.7 312.585L 402.434 312.053L 401.24 306.474L 400.974 305.81L 400.841 305.145L 400.709 302.223L 400.443 301.426L 400.443 301.027L 400.443 300.496L 400.576 300.097L 401.107 299.3L 401.24 299.035L 402.567 298.37L 402.7 297.972L 402.7 297.44L 402.965 297.042L 403.363 296.776L 403.496 297.042L 403.496 297.308L 403.762 297.573L 404.16 297.706L 404.425 297.706L 407.478 296.909L 408.805 295.979L 409.867 294.783L 411.725 291.861L 412.787 290.798L 413.053 290.267L 413.185 289.603L 413.053 289.204L 412.92 288.805L 412.787 288.274L 412.522 287.61L 411.991 286.813L 411.725 285.883L 412.389 284.953L 412.522 285.75L 412.787 286.547L 413.185 287.211L 413.716 287.477L 414.114 287.876L 414.38 288.008L 414.645 288.141L 415.176 288.141L 415.442 288.274L 414.778 290.001L 414.513 291.197L 414.778 292.259L 415.574 292.924L 416.238 292.924L 416.769 292.392L 417.3 291.861L 417.167 293.057L 416.769 293.854L 415.574 295.049L 414.645 296.643L 414.38 297.44L 413.583 298.237L 414.114 300.23L 412.522 301.16L 409.203 302.09L 409.336 302.488L 409.469 302.621L 408.407 303.286L 407.345 304.481L 407.212 304.88L 407.743 305.013L 408.938 304.481L 409.734 303.95L 410.796 303.684L 411.592 303.02L 412.92 302.621L 413.716 301.824L 414.513 300.762L 416.238 297.308L 416.902 296.51L 419.954 291.595L 420.485 291.064L 421.547 290.267L 422.078 289.735L 423.007 288.407L 423.538 287.876L 424.202 287.477L 427.918 285.617L 428.98 284.687L 431.502 281.632L 432.431 280.835L 434.156 279.905L 436.546 278.576L 437.342 278.576L 441.722 277.779L 443.978 278.045L 445.173 277.779L 445.704 277.779L 446.367 278.045L 446.5 278.178L 446.633 278.444L 446.898 278.975L 447.031 279.108L 447.429 279.373L 447.429 279.639L 447.429 279.905L 447.297 280.038L 447.429 280.436L 447.429 280.303L 447.429 280.038L 447.695 279.905L 447.96 279.772L 448.093 279.905L 448.093 280.569L 448.358 280.569L 448.491 279.241L 449.155 278.178L 451.278 275.919L 452.208 275.255L 453.269 274.724L 454.862 274.458L 456.189 273.661L 458.313 273.661L 458.579 273.528L 458.844 273.263L 459.242 272.997L 459.773 272.864L 460.702 273.13L 461.233 273.13L 461.764 272.864L 462.162 273.13L 463.224 273.528L 463.755 273.794L 464.95 275.122L 465.215 275.255L 465.215 276.052L 464.817 277.646L 464.286 278.975L 463.622 278.709L 463.357 278.709L 463.357 279.108L 464.153 279.373L 464.95 278.576L 465.613 277.381L 465.879 276.185L 466.144 275.122L 466.675 274.06L 467.073 272.997L 466.808 271.934L 467.87 271.801L 469.595 270.207L 470.657 269.809L 471.055 269.543L 472.117 268.613L 472.515 268.48L 473.046 268.347L 476.762 266.886L 478.222 265.69L 478.753 265.558L 479.815 265.823L 480.877 266.355L 481.541 267.285L 481.408 268.48L 482.072 268.214L 482.603 267.417L 483.399 265.823L 486.717 261.041L 488.708 258.915L 489.77 258.517L 493.884 259.314L 495.212 259.314L 498.663 258.118L 501.45 258.65L 501.848 258.384L 502.645 258.65L 503.839 259.181L 504.105 259.048L 504.901 258.517L 505.034 258.384L 505.166 258.251L 506.228 259.048L 507.025 259.314L 507.025 260.111L 506.361 261.572L 507.423 261.041L 509.148 258.65L 509.812 257.985L 509.281 256.79L 509.148 255.328L 509.414 254L 509.945 252.937L 510.476 252.539L 511.139 252.14L 511.803 251.742L 512.201 251.077L 512.334 250.148L 512.068 249.616L 511.537 249.35L 511.007 249.35L 509.812 249.616L 509.281 249.483L 508.883 248.952L 509.016 248.155L 509.414 247.358L 510.343 246.029L 511.139 244.568L 511.272 243.24L 511.139 239.918L 511.537 238.324L 512.068 236.73L 512.865 235.402L 513.927 234.605L 520.563 233.675L 521.359 233.276L 521.89 232.745L 523.085 231.416L 523.616 231.018L 524.147 230.885L 525.208 231.283L 525.872 231.151L 526.138 230.354L 526.403 228.361L 526.934 226.235L 527.73 224.376L 528.792 223.047L 530.252 222.516L 535.429 222.649L 537.154 223.844L 537.818 223.977L 538.481 223.977L 539.809 223.578L 544.587 223.446L 545.251 223.578L 546.312 224.243L 546.843 224.508L 547.507 224.508L 548.834 224.11L 549.498 224.376L 550.427 224.508L 552.285 224.11L 553.214 224.243L 556.4 225.04L 557.462 224.774L 558.258 223.977L 558.789 222.781L 559.054 221.453L 559.054 221.187L 558.922 220.523L 558.922 220.257L 559.054 219.859L 559.32 219.195L 559.453 218.796L 559.585 218.132L 559.585 217.6L 559.187 216.538L 558.922 216.006L 558.656 215.741L 558.523 215.475L 558.789 215.076L 559.187 214.811L 560.913 214.545L 561.045 214.545L 561.178 214.412L 561.178 214.014L 560.647 212.552L 560.78 211.49L 561.178 210.56L 562.771 207.637L 563.434 206.973L 564.894 205.777L 565.425 205.113L 565.824 204.183L 565.956 203.253L 565.425 202.456L 564.762 202.323L 563.036 202.987L 562.373 203.12L 560.116 201.792L 562.24 199.932L 562.771 199.268L 563.434 198.604L 563.169 198.205L 562.904 197.541L 562.638 196.345L 561.709 194.087L 561.443 193.821L 561.178 193.423L 561.045 192.626L 561.178 192.626L 561.443 192.626L 561.709 192.493L 561.842 192.094L 561.842 191.961L 561.709 191.828L 561.576 191.563L 561.576 191.164L 561.311 189.969L 560.647 189.172L 559.851 188.64L 556.002 188.109L 555.338 188.374L 554.143 188.507L 554.409 187.312L 556.4 180.802L 556.665 180.404L 557.462 180.138L 557.727 179.74L 557.993 179.208L 558.258 178.677L 558.922 178.013L 559.585 177.614L 560.382 177.614L 563.833 178.942L 565.16 178.81L 566.487 177.747L 567.018 176.95L 567.416 176.02L 567.284 175.09L 566.753 174.293L 565.956 174.16L 565.425 174.691L 564.894 175.356L 564.231 175.754L 563.833 175.621L 563.302 174.824L 563.036 174.559L 562.638 174.426L 561.576 174.559L 559.054 174.027L 558.258 173.762L 557.86 173.23L 557.594 172.566L 557.196 171.636L 556.665 171.105L 556.002 170.706L 555.603 170.042L 555.869 167.651L 556.4 167.252L 557.993 167.385L 560.647 166.455L 561.576 166.455L 562.505 166.588L 563.036 166.588L 563.434 166.322L 563.567 165.791L 563.434 164.197L 563.567 163.532L 564.231 162.337L 565.16 161.54L 567.018 160.211L 567.682 159.547L 568.744 157.82L 569.407 157.289L 570.204 156.89L 570.469 156.492L 570.469 154.765L 570.867 153.171L 571 152.241L 570.602 151.178Z"/>
</defs>
</svg>
