<svg width="60" height="60" viewBox="0 0 60 60" version="1.1" xmlns="http://www.w3.org/2000/svg" xmlns:xlink="http://www.w3.org/1999/xlink">
<title>safe</title>
<desc>Created using Figma</desc>
<g id="Canvas" transform="translate(-23618 593)">
<g id="safe">
<g id="Group">
<g id="Group">
<g id="Vector">
<use xlink:href="#path0_fill" transform="translate(23618 -593)" fill="#007CB1"/>
</g>
<g id="Vector">
<use xlink:href="#path1_fill" transform="translate(23660.2 -550.778)" fill="#007CB1"/>
</g>
</g>
</g>
</g>
</g>
<defs>
<path id="path0_fill" d="M 55.5556 33.3333C 55.5556 30.9711 54.7022 28.8289 53.3333 27.1178L 53.3333 0L 0 0L 0 53.3333L 2.22222 53.3333L 2.22222 55.5556L 11.1111 55.5556L 11.1111 53.3333L 31.1111 53.3333L 31.1111 60L 60 60L 60 35.5556L 55.5556 35.5556L 55.5556 33.3333ZM 35.5556 33.3333L 35.5556 33.9844L 32.0867 30.5155C 32.8644 29.4267 33.3333 28.1022 33.3333 26.6667C 33.3333 25.2311 32.8644 23.9067 32.0867 22.8178L 37.2045 17.7L 35.6333 16.1289L 30.5155 21.2467C 29.4267 20.4689 28.1022 20 26.6667 20C 25.2311 20 23.9067 20.4689 22.8178 21.2467L 17.7 16.1289L 16.1289 17.7L 21.2467 22.8178C 20.4689 23.9067 20 25.2311 20 26.6667C 20 28.1022 20.4689 29.4267 21.2467 30.5155L 16.1289 35.6333L 17.7 37.2045L 22.8178 32.0867C 23.9067 32.8644 25.2311 33.3333 26.6667 33.3333C 28.1022 33.3333 29.4267 32.8644 30.5155 32.0867L 33.9844 35.5556L 31.1111 35.5556L 31.1111 44.4444L 8.88889 44.4444L 8.88889 8.88889L 44.4444 8.88889L 44.4444 23.4445C 39.4511 24.0045 35.5556 28.1911 35.5556 33.3333ZM 31.1111 26.6667C 31.1111 29.1178 29.1178 31.1111 26.6667 31.1111C 24.2156 31.1111 22.2222 29.1178 22.2222 26.6667C 22.2222 24.2156 24.2156 22.2222 26.6667 22.2222C 29.1178 22.2222 31.1111 24.2156 31.1111 26.6667ZM 37.7778 33.3333C 37.7778 29.0444 41.2667 25.5556 45.5556 25.5556C 49.8444 25.5556 53.3333 29.0444 53.3333 33.3333L 53.3333 35.5556L 37.7778 35.5556L 37.7778 33.3333ZM 2.22222 51.1111L 2.22222 2.22222L 51.1111 2.22222L 51.1111 25.0222C 49.8156 24.1533 48.2933 23.6289 46.6667 23.4467L 46.6667 6.66667L 6.66667 6.66667L 6.66667 11.1111L 4.44444 11.1111L 4.44444 17.7778L 6.66667 17.7778L 6.66667 35.5556L 4.44444 35.5556L 4.44444 42.2222L 6.66667 42.2222L 6.66667 46.6667L 31.1111 46.6667L 31.1111 51.1111L 2.22222 51.1111ZM 57.7778 37.7778L 57.7778 57.7778L 33.3333 57.7778L 33.3333 37.7778L 57.7778 37.7778Z"/>
<path id="path1_fill" d="M 4.44444 6.46223C 5.73556 6.00223 6.66667 4.78222 6.66667 3.33333C 6.66667 1.49333 5.17333 0 3.33333 0C 1.49333 0 0 1.49333 0 3.33333C 0 4.78222 0.931111 6.00223 2.22222 6.46223L 2.22222 11.1111L 4.44444 11.1111L 4.44444 6.46223Z"/>
</defs>
</svg>
