<svg width="24" height="24" viewBox="0 0 24 24" version="1.1" xmlns="http://www.w3.org/2000/svg" xmlns:xlink="http://www.w3.org/1999/xlink">
<title>Cheaper</title>
<desc>Created using Figma</desc>
<g id="Canvas" transform="translate(-2919 -8040)">
<g id="Cheaper">
<g id="Ellipse">
<use xlink:href="#path0_fill" transform="translate(2919 8040)" fill="#333333"/>
</g>
<g id="?">
<use xlink:href="#path1_fill" transform="translate(2927 8041)" fill="#FFFFFF"/>
</g>
</g>
</g>
<defs>
<path id="path0_fill" d="M 24 12C 24 18.6274 18.6274 24 12 24C 5.37258 24 0 18.6274 0 12C 0 5.37258 5.37258 0 12 0C 18.6274 0 24 5.37258 24 12Z"/>
<path id="path1_fill" d="M 0.549 6.084C 0.771 5.898 1.011 5.724 1.269 5.562C 1.533 5.4 1.815 5.259 2.115 5.139C 2.415 5.013 2.736 4.917 3.078 4.851C 3.426 4.779 3.801 4.743 4.203 4.743C 4.767 4.743 5.274 4.818 5.724 4.968C 6.18 5.118 6.567 5.334 6.885 5.616C 7.203 5.892 7.446 6.228 7.614 6.624C 7.788 7.014 7.875 7.449 7.875 7.929C 7.875 8.385 7.812 8.781 7.686 9.117C 7.56 9.447 7.401 9.735 7.209 9.981C 7.017 10.227 6.804 10.44 6.57 10.62C 6.342 10.8 6.123 10.968 5.913 11.124C 5.709 11.274 5.529 11.424 5.373 11.574C 5.223 11.724 5.127 11.892 5.085 12.078L 4.833 13.338L 2.925 13.338L 2.727 11.889C 2.679 11.595 2.709 11.34 2.817 11.124C 2.925 10.902 3.072 10.704 3.258 10.53C 3.45 10.35 3.663 10.182 3.897 10.026C 4.131 9.864 4.35 9.693 4.554 9.513C 4.758 9.327 4.929 9.123 5.067 8.901C 5.211 8.673 5.283 8.403 5.283 8.091C 5.283 7.731 5.163 7.446 4.923 7.236C 4.689 7.02 4.365 6.912 3.951 6.912C 3.633 6.912 3.366 6.945 3.15 7.011C 2.94 7.077 2.757 7.152 2.601 7.236C 2.451 7.314 2.319 7.386 2.205 7.452C 2.091 7.518 1.977 7.551 1.863 7.551C 1.605 7.551 1.413 7.44 1.287 7.218L 0.549 6.084ZM 2.205 16.587C 2.205 16.371 2.244 16.17 2.322 15.984C 2.406 15.798 2.517 15.636 2.655 15.498C 2.799 15.36 2.967 15.252 3.159 15.174C 3.351 15.09 3.561 15.048 3.789 15.048C 4.011 15.048 4.218 15.09 4.41 15.174C 4.602 15.252 4.77 15.36 4.914 15.498C 5.058 15.636 5.169 15.798 5.247 15.984C 5.331 16.17 5.373 16.371 5.373 16.587C 5.373 16.803 5.331 17.007 5.247 17.199C 5.169 17.385 5.058 17.547 4.914 17.685C 4.77 17.823 4.602 17.931 4.41 18.009C 4.218 18.087 4.011 18.126 3.789 18.126C 3.561 18.126 3.351 18.087 3.159 18.009C 2.967 17.931 2.799 17.823 2.655 17.685C 2.517 17.547 2.406 17.385 2.322 17.199C 2.244 17.007 2.205 16.803 2.205 16.587Z"/>
</defs>
</svg>
