<svg width="39" height="39" viewBox="0 0 39 39" version="1.1" xmlns="http://www.w3.org/2000/svg" xmlns:xlink="http://www.w3.org/1999/xlink">
<title>Compare</title>
<desc>Created using Figma</desc>
<g id="Canvas" transform="translate(-2370 -8080)">
<g id="Compare">
<g id="compare">
<use xlink:href="#path0_fill" transform="matrix(-1 0 0 1 2404 8088)" fill="#BDBDBD"/>
</g>
<g id="Rectangle">
<mask id="mask0_outline_ins">
<use xlink:href="#path1_fill" fill="white" transform="translate(2370 8080)"/>
</mask>
<g mask="url(#mask0_outline_ins)">
<use xlink:href="#path2_stroke_2x" transform="translate(2370 8080)" fill="#E3E9ED"/>
</g>
</g>
</g>
</g>
<defs>
<path id="path0_fill" d="M 28 20.6397C 27.993 20.5843 27.9792 20.5301 27.959 20.4786L 23.1119 8.42399C 23.118 8.40114 23.1229 8.37793 23.1266 8.35448C 23.1378 8.27231 23.1339 8.18857 23.115 8.10804C 23.0962 8.02751 23.0628 7.95177 23.0168 7.88516C 22.9708 7.81854 22.9131 7.76236 22.847 7.71981C 22.7808 7.67727 22.7075 7.6492 22.6313 7.63721L 16.4949 6.67347C 16.4467 6.15515 16.2524 5.66521 15.938 5.26971C 15.6236 4.8742 15.2042 4.59216 14.7366 4.46162L 14.7366 0.631957C 14.7366 0.464352 14.6748 0.303611 14.5649 0.185096C 14.455 0.0665812 14.3059 0 14.1505 0C 13.995 0 13.8459 0.0665812 13.736 0.185096C 13.6261 0.303611 13.5644 0.464352 13.5644 0.631957L 13.5644 4.4553C 13.208 4.5549 12.8782 4.74269 12.6009 5.00378C 12.3237 5.26487 12.1067 5.59205 11.9672 5.95936L 5.54064 4.94823C 5.45485 4.93455 5.36731 4.94157 5.28434 4.96878C 5.20137 4.99599 5.12503 5.04272 5.06084 5.10559C 4.99664 5.16846 4.94619 5.24591 4.91311 5.33235C 4.88003 5.41879 4.86516 5.51207 4.86956 5.60546L 0.043025 17.6127C 0.0227938 17.6642 0.00899747 17.7184 0.00199798 17.7738C 0.00199798 17.7738 0.00199798 17.8022 0.00199798 17.8149C 0.00199798 17.8275 0.00199798 17.8433 0.00199798 17.8591C -0.00066599 17.8938 -0.00066599 17.9287 0.00199798 17.9634C 0.00199798 17.9634 0.00199798 17.9634 0.00199798 17.9792C 0.0123012 18.0329 0.0290481 18.085 0.0518165 18.134L 0.0693995 18.1688C 0.0948625 18.2184 0.126404 18.2641 0.163175 18.3046L 0.895801 19.0946C 2.11543 20.4067 3.76795 21.1436 5.49082 21.1436C 7.2137 21.1436 8.86622 20.4067 10.0859 19.0946L 10.8185 18.3046C 10.8552 18.2641 10.8868 18.2184 10.9123 18.1688L 10.9298 18.1372C 10.9526 18.0881 10.9693 18.0361 10.9797 17.9824C 10.9823 17.9477 10.9823 17.9128 10.9797 17.8781C 10.9797 17.8781 10.9797 17.8496 10.9797 17.8338C 10.9797 17.818 10.9797 17.8054 10.9797 17.7928C 10.9727 17.7373 10.9589 17.6831 10.9386 17.6316L 6.41686 6.36381L 11.8031 7.21063C 11.8513 7.77556 12.0742 8.3066 12.4362 8.71834C 12.7981 9.13008 13.278 9.39858 13.7986 9.48065C 14.3192 9.56271 14.8502 9.45357 15.3063 9.17079C 15.7624 8.888 16.1171 8.44801 16.3132 7.92159L 21.761 8.77789L 17.0546 20.4691C 17.0343 20.5206 17.0206 20.5748 17.0136 20.6303C 17.0136 20.6303 17.0136 20.6587 17.0136 20.6713C 17.0136 20.684 17.0136 20.6998 17.0136 20.7156C 17.0109 20.7503 17.0109 20.7851 17.0136 20.8198C 17.0136 20.8198 17.0136 20.8198 17.0136 20.8356C 17.0239 20.8894 17.0406 20.9414 17.0634 20.9905L 17.081 21.0252C 17.1064 21.0748 17.138 21.1205 17.1747 21.1611L 17.9074 21.951C 19.127 23.2631 20.7795 24 22.5024 24C 24.2253 24 25.8778 23.2631 27.0974 21.951L 27.83 21.1611C 27.8668 21.1205 27.8983 21.0748 27.9238 21.0252L 27.9414 20.9905C 27.9642 20.9414 27.9809 20.8894 27.9912 20.8356C 27.9912 20.8356 27.9912 20.8356 27.9912 20.8198C 27.9939 20.7851 27.9939 20.7503 27.9912 20.7156C 27.9912 20.7156 27.9912 20.6871 27.9912 20.6713C 27.9912 20.6555 28 20.6524 28 20.6397ZM 9.50854 17.2272L 1.46725 17.2272L 5.49962 7.23275L 9.50854 17.2272ZM 18.4876 20.0962L 22.4965 10.1113L 26.5289 20.0931L 18.4876 20.0962Z"/>
<path id="path1_fill" d="M 0 0L 39 0L 39 39L 0 39L 0 0Z"/>
<path id="path2_stroke_2x" d="M 0 0L 0 -1L -1 -1L -1 0L 0 0ZM 39 0L 40 0L 40 -1L 39 -1L 39 0ZM 39 39L 39 40L 40 40L 40 39L 39 39ZM 0 39L -1 39L -1 40L 0 40L 0 39ZM 0 1L 39 1L 39 -1L 0 -1L 0 1ZM 38 0L 38 39L 40 39L 40 0L 38 0ZM 39 38L 0 38L 0 40L 39 40L 39 38ZM 1 39L 1 0L -1 0L -1 39L 1 39Z"/>
</defs>
</svg>
