<svg width="27" height="28" viewBox="0 0 27 28" version="1.1" xmlns="http://www.w3.org/2000/svg" xmlns:xlink="http://www.w3.org/1999/xlink">
<title>Icon</title>
<desc>Created using Figma</desc>
<g id="Canvas" transform="translate(-3031 -8271)">
<g id="Icon">
<g id="Vector">
<use xlink:href="#path0_stroke" transform="translate(3032.27 8273)" fill="#0C90C8"/>
</g>
<g id="Vector">
<use xlink:href="#path1_stroke" transform="translate(3039.1 8281.57)" fill="#0C90C8"/>
</g>
</g>
</g>
<defs>
<path id="path0_stroke" d="M 11.9701 24L 11.615 24.9348L 11.9701 25.0697L 12.3253 24.9348L 11.9701 24ZM 0.0611885 5.31429L -0.194811 4.34761L -0.850693 4.5213L -0.931665 5.19495L 0.0611885 5.31429ZM 11.9701 0L 12.6575 -0.726315L 11.9701 -1.37681L 11.2828 -0.726315L 11.9701 0ZM 23.8791 5.31429L 24.872 5.19495L 24.791 4.5213L 24.1351 4.34761L 23.8791 5.31429ZM 12.3253 23.0652C 5.89152 20.6209 3.10204 16.2176 1.89207 12.4247C 1.27412 10.5026 1.07399 8.78005 1.0174 7.46712C 0.988827 6.82366 0.999048 6.32009 1.01655 5.95371C 1.02489 5.77646 1.03444 5.64747 1.04255 5.55312C 1.04634 5.50875 1.04925 5.47912 1.05162 5.45619C 1.05266 5.44609 1.05328 5.44051 1.05385 5.43536C 1.05407 5.43346 1.05411 5.43304 1.05423 5.43207C 1.05424 5.43192 1.05422 5.43216 1.05421 5.43224C 1.05419 5.43237 1.05415 5.43272 1.05414 5.43278C 1.0541 5.43318 1.05404 5.43363 0.0611885 5.31429C -0.931665 5.19495 -0.931731 5.1955 -0.931803 5.1961C -0.931835 5.19637 -0.931913 5.19703 -0.931977 5.19757C -0.932066 5.19832 -0.932257 5.19994 -0.93243 5.20144C -0.932699 5.20376 -0.933215 5.20826 -0.933734 5.21289C -0.934618 5.22079 -0.936134 5.23471 -0.93776 5.2504C -0.940718 5.27903 -0.945299 5.32607 -0.950128 5.38215C -0.959249 5.48869 -0.971458 5.65569 -0.981192 5.85879C -0.99983 6.25312 -1.01103 6.84777 -0.980699 7.5543C -0.919489 8.94138 -0.68053 10.926 -0.0133314 13.0325C 1.34698 17.2967 4.51197 22.2363 11.615 24.9348L 12.3253 23.0652ZM 0.317188 6.28096C 4.76349 5.10013 7.85348 3.72382 9.77562 2.66499C 10.7549 2.12398 11.4778 1.64172 11.9289 1.3119C 12.1627 1.14049 12.3456 0.994568 12.4575 0.901304C 12.5174 0.851264 12.5676 0.807619 12.5968 0.78162C 12.6134 0.766881 12.6286 0.753078 12.6368 0.745578C 12.6418 0.740949 12.647 0.736139 12.6495 0.733806C 12.6513 0.732198 12.6533 0.730327 12.6541 0.72952C 12.6548 0.728896 12.6556 0.728095 12.656 0.727782C 12.6562 0.727515 12.6566 0.727148 12.6568 0.727014C 12.6571 0.726659 12.6575 0.726315 11.9701 0C 11.2828 -0.726315 11.2831 -0.726636 11.2835 -0.726946C 11.2835 -0.727034 11.2839 -0.727332 11.284 -0.727508C 11.2839 -0.727377 11.2853 -0.728685 11.285 -0.728425C 11.2849 -0.728347 11.2863 -0.729597 11.2861 -0.72944C 11.2867 -0.730009 11.286 -0.729343 11.2848 -0.728225C 11.2804 -0.724231 11.2768 -0.720906 11.268 -0.713107C 11.2466 -0.694031 11.2201 -0.670962 11.1763 -0.634451C 11.0807 -0.554612 10.9476 -0.448077 10.7477 -0.302081C 10.3313 0.0029281 9.7155 0.415304 8.80993 0.913582C 6.96233 1.93333 4.09783 3.21416 -0.194811 4.34761L 0.317188 6.28096ZM 11.9701 0C 11.2828 0.726315 11.2832 0.726659 11.2835 0.727015C 11.2837 0.727148 11.2841 0.727515 11.2843 0.727782C 11.2847 0.728095 11.2855 0.728896 11.2862 0.72952C 11.287 0.730327 11.289 0.732199 11.2908 0.733806C 11.2933 0.736139 11.2985 0.740949 11.3035 0.745578C 11.3117 0.753078 11.3269 0.766881 11.3435 0.78162C 11.3727 0.807619 11.4229 0.851264 11.4828 0.901304C 11.5947 0.994568 11.7776 1.14049 12.0114 1.3119C 12.4625 1.64172 13.1854 2.12398 14.1647 2.66499C 16.0868 3.72382 19.1768 5.10013 23.6231 6.28096L 24.1351 4.34761C 19.8425 3.21416 16.978 1.93333 15.1304 0.913582C 14.2248 0.415304 13.609 0.00292802 13.1926 -0.302081C 12.9927 -0.448078 12.8596 -0.554613 12.764 -0.634451C 12.7202 -0.670963 12.6937 -0.694031 12.6723 -0.713108C 12.6635 -0.720906 12.6599 -0.724231 12.6555 -0.728225C 12.6543 -0.729343 12.6536 -0.730009 12.6542 -0.72944C 12.654 -0.729597 12.6554 -0.728347 12.6553 -0.728425C 12.655 -0.728685 12.6564 -0.727378 12.6562 -0.727508C 12.6564 -0.727332 12.6568 -0.727034 12.6568 -0.726946C 12.6572 -0.726636 12.6575 -0.726315 11.9701 0ZM 23.8791 5.31429C 22.8863 5.43363 22.8862 5.43318 22.8862 5.43278C 22.8861 5.43272 22.8861 5.43237 22.8861 5.43224C 22.8861 5.43216 22.8861 5.43192 22.8861 5.43207C 22.8862 5.43304 22.8862 5.43346 22.8864 5.43536C 22.887 5.44051 22.8876 5.44609 22.8887 5.45619C 22.8911 5.47912 22.894 5.50875 22.8977 5.55312C 22.9059 5.64747 22.9154 5.77646 22.9237 5.95371C 22.9413 6.32009 22.9515 6.82366 22.9229 7.46712C 22.8663 8.78005 22.6662 10.5026 22.0482 12.4247C 20.8383 16.2176 18.0488 20.6209 11.615 23.0652L 12.3253 24.9348C 19.4283 22.2363 22.5933 17.2967 23.9536 13.0325C 24.6208 10.926 24.8598 8.94138 24.921 7.5543C 24.9513 6.84777 24.9401 6.25312 24.9215 5.85879C 24.9118 5.65569 24.8995 5.48869 24.8904 5.38215C 24.8856 5.32607 24.881 5.27903 24.8781 5.2504C 24.8764 5.23471 24.8749 5.22079 24.874 5.21289C 24.8735 5.20826 24.873 5.20376 24.8727 5.20144C 24.8726 5.19994 24.8724 5.19832 24.8723 5.19757C 24.8722 5.19703 24.8721 5.19637 24.8721 5.1961C 24.872 5.1955 24.872 5.19495 23.8791 5.31429Z"/>
<path id="path1_stroke" d="M 3.42704 6.85714L 2.71977 7.56409L 3.42704 8.27167L 4.1343 7.56409L 3.42704 6.85714ZM -0.707265 4.13552L 2.71977 7.56409L 4.1343 6.15019L 0.707265 2.72162L -0.707265 4.13552ZM 4.1343 7.56409L 10.9884 0.706949L 9.57385 -0.706949L 2.71977 6.15019L 4.1343 7.56409Z"/>
</defs>
</svg>
