<svg width="29" height="24" viewBox="0 0 29 24" version="1.1" xmlns="http://www.w3.org/2000/svg" xmlns:xlink="http://www.w3.org/1999/xlink">
<title>icon</title>
<desc>Created using Figma</desc>
<g id="Canvas" transform="translate(-2446 -8730)">
<g id="icon">
<g id="icon">
<use xlink:href="#path0_fill" transform="translate(2446 8730)" fill="#333333"/>
</g>
</g>
</g>
<defs>
<path id="path0_fill" d="M 28.9459 4.00802L 20.9053 4.00802L 20.9053 -2.14051e-07L 0 -2.14051e-07L 0 14.8297L 3.61823 14.8297L 3.61823 20.6653L 9.9622 14.8297L 10.4527 14.8297L 10.4527 19.2385L 19.442 19.2385L 26.1317 24L 26.1317 19.2385L 28.9459 19.2385L 28.9459 4.00802ZM 9.33504 13.2265L 5.22634 17.006L 5.22634 13.2265L 1.6081 13.2265L 1.6081 1.60321L 19.2972 1.60321L 19.2972 13.2265L 9.33504 13.2265ZM 27.3378 17.6353L 24.5236 17.6353L 24.5236 20.8858L 19.9566 17.6353L 12.0608 17.6353L 12.0608 14.8297L 20.9053 14.8297L 20.9053 5.61122L 27.3378 5.61122L 27.3378 17.6353Z"/>
</defs>
</svg>
