<svg width="42" height="26" viewBox="0 0 42 26" version="1.1" xmlns="http://www.w3.org/2000/svg" xmlns:xlink="http://www.w3.org/1999/xlink">
<title>icon</title>
<desc>Created using Figma</desc>
<g id="Canvas" transform="translate(-2439 -8029)">
<g id="icon">
<g id="Vector">
<use xlink:href="#path0_fill" transform="translate(2439 8029)" fill="#54C029"/>
</g>
<g id="Vector">
<use xlink:href="#path1_fill" transform="translate(2449.57 8036.26)" fill="#54C029"/>
</g>
</g>
</g>
<defs>
<path id="path0_fill" d="M 41.1176 8.49099L 37.7301 4.8018C 36.9708 3.92342 35.8027 3.51351 34.693 3.57207L 29.5533 3.98198L 29.5533 0.585586C 29.5533 0.234234 29.3196 0 28.9692 0L 0.584057 0C 0.292028 0 0 0.234234 0 0.585586L 0 20.9054C 0 21.7838 0.700868 22.4865 1.57695 22.4865L 3.50434 22.4865C 3.50434 22.4865 10.513 22.4865 10.5714 22.4865C 10.8635 24.4775 12.5572 26 14.6014 26C 16.6456 26 18.3978 24.4775 18.6314 22.4865C 18.6314 22.4865 18.6314 22.4865 18.6898 22.4865L 28.9692 22.4865L 29.0276 22.4865C 29.3196 24.4775 31.0134 26 33.0576 26C 35.1018 26 36.7956 24.4775 37.0876 22.4865L 37.146 22.4865L 39.7743 22.4865C 41.0008 22.4865 41.9937 21.491 41.9937 20.2613L 41.9937 11.009C 42.0521 10.0721 41.7016 9.19369 41.1176 8.49099ZM 7.82636 7.31982L 4.73086 7.31982L 4.73086 9.19369L 7.30071 9.19369L 7.30071 10.5405L 4.73086 10.5405L 4.73086 13.4685L 2.97869 13.4685L 2.97869 5.97297L 7.76795 5.97297L 7.76795 7.31982L 7.82636 7.31982ZM 11.5059 10.9505C 11.4475 10.8333 11.3891 10.7748 11.3307 10.7748C 11.2723 10.7748 11.1555 10.7162 11.0387 10.7162L 10.5714 10.7162L 10.5714 13.4685L 8.81926 13.4685L 8.81926 5.97297L 11.2723 5.97297C 11.7979 5.97297 12.2652 6.03153 12.674 6.14865C 13.0829 6.26577 13.3749 6.44144 13.6085 6.61712C 13.8421 6.79279 14.0174 7.02703 14.1342 7.31982C 14.251 7.61261 14.3094 7.90541 14.3094 8.1982C 14.3094 8.43243 14.251 8.66667 14.1926 8.9009C 14.1342 9.13513 14.0174 9.31081 13.9005 9.48649C 13.7837 9.66216 13.6085 9.83784 13.4333 9.95495C 13.2581 10.0721 13.0245 10.1892 12.7908 10.3063C 12.9077 10.3649 13.0245 10.4234 13.0829 10.5405C 13.1413 10.6577 13.2581 10.7162 13.3749 10.8333L 14.9519 13.4685L 13.3749 13.4685C 13.0829 13.4685 12.8492 13.3514 12.7324 13.1171L 11.5059 10.9505ZM 14.6014 23.6577C 13.6085 23.6577 12.8492 22.8378 12.8492 21.9009C 12.8492 20.9054 13.6085 20.1441 14.6014 20.1441C 15.5943 20.1441 16.3536 20.964 16.3536 21.9009C 16.3536 22.8964 15.5359 23.6577 14.6014 23.6577ZM 20.3836 7.31982L 17.2881 7.31982L 17.2881 9.07658L 19.6243 9.07658L 19.6243 10.3649L 17.2881 10.3649L 17.2881 12.1216L 20.3836 12.1216L 20.3836 13.4685L 15.5943 13.4685L 15.5943 5.97297L 20.3836 5.97297L 20.3836 7.31982ZM 26.2826 7.31982L 23.1871 7.31982L 23.1871 9.07658L 25.5233 9.07658L 25.5233 10.3649L 23.1871 10.3649L 23.1871 12.1216L 26.2826 12.1216L 26.2826 13.4685L 21.4933 13.4685L 21.4933 5.97297L 26.2826 5.97297L 26.2826 7.31982ZM 33.0576 23.6577C 32.0647 23.6577 31.3054 22.8378 31.3054 21.9009C 31.3054 20.9054 32.1231 20.1441 33.0576 20.1441C 34.0505 20.1441 34.8098 20.964 34.8098 21.9009C 34.8098 22.8964 34.0505 23.6577 33.0576 23.6577ZM 39.1318 13.4685L 31.3054 13.4685L 31.3054 6.73423L 34.8682 6.44144L 34.9266 6.44144C 35.1602 6.44144 35.3938 6.55856 35.5106 6.73423L 38.8982 10.482C 39.015 10.6577 39.1318 10.8333 39.1318 11.009L 39.1318 13.4685Z"/>
<path id="path1_fill" d="M 0.700868 -2.23383e-07L 2.228e-07 -2.23383e-07L 2.228e-07 2.22523L 0.700868 2.22523C 0.93449 2.22523 1.10971 2.16667 1.28492 2.10811C 1.46014 2.04955 1.57695 1.99099 1.69376 1.87387C 1.81058 1.75676 1.86898 1.63964 1.92739 1.52252C 1.98579 1.40541 1.98579 1.22973 1.98579 1.05405C 1.98579 0.702703 1.86898 0.468468 1.69376 0.292793C 1.51855 0.117117 1.10971 -2.23383e-07 0.700868 -2.23383e-07Z"/>
</defs>
</svg>
