<svg width="32" height="24" viewBox="0 0 32 24" version="1.1" xmlns="http://www.w3.org/2000/svg" xmlns:xlink="http://www.w3.org/1999/xlink">
<title>icon</title>
<desc>Created using Figma</desc>
<g id="Canvas" transform="translate(-2377 -8273)">
<g id="icon">
<g id="Vector">
<use xlink:href="#path0_fill" transform="matrix(-1 0 0 1 2396.55 8292.83)" fill="#007CB1"/>
</g>
<g id="Vector">
<use xlink:href="#path1_fill" transform="matrix(-1 0 0 1 2408.92 8273)" fill="#007CB1"/>
</g>
<g id="Vector">
<use xlink:href="#path2_fill" transform="matrix(-1 0 0 1 2403.88 8290.65)" fill="#007CB1"/>
</g>
<g id="Vector">
<use xlink:href="#path3_fill" transform="matrix(-1 0 0 1 2388.61 8290.65)" fill="#007CB1"/>
</g>
<g id="Vector">
<use xlink:href="#path4_fill" transform="matrix(-1 0 0 1 2404.82 8278.74)" fill="#007CB1"/>
</g>
<g id="Vector">
<use xlink:href="#path5_fill" transform="matrix(-1 0 0 1 2397.95 8276)" fill="#007CB1"/>
</g>
</g>
</g>
<defs>
<path id="path0_fill" d="M 7.07327 0.891531C 7.07327 1.39079 6.67426 1.78306 6.16644 1.78306L 0.906829 1.78306C 0.399004 1.78306 -5.53485e-07 1.39079 -5.53485e-07 0.891531C -5.53485e-07 0.392274 0.399004 5.44147e-07 0.906829 5.44147e-07L 6.16644 5.44147e-07C 6.67426 0.0356618 7.037 0.427935 7.07327 0.891531Z"/>
<path id="path1_fill" d="M 31.9204 20.6835C 31.9204 21.1828 31.5214 21.575 31.0136 21.575L 28.547 21.575C 28.0754 21.575 27.6402 21.2541 27.6039 20.7905C 27.5676 20.2556 27.9666 19.8276 28.5107 19.8276L 30.143 19.8276L 30.143 17.8306L 30.143 1.78306L 14.0014 1.78306L 14.0014 4.06538L 7.32718 4.06538C 7.25464 4.06538 7.18209 4.1367 7.10954 4.24369L 2.0313 12.1248C 1.84993 12.4458 1.77739 12.7667 1.77739 13.159L 1.77739 19.899L 3.26459 19.899C 3.73614 19.899 4.13514 20.2912 4.13514 20.7905C 4.13514 21.2897 3.73614 21.682 3.26459 21.682L 0.90683 21.682C 0.399005 21.6107 0 21.2184 0 20.7192L 0 13.1233C 0 12.4458 0.181366 11.8039 0.507825 11.2333L 5.58607 3.35215C 5.9488 2.71025 6.63799 2.31798 7.32718 2.31798L 12.2241 2.31798L 12.2241 0.89153C 12.2241 0.392273 12.6231 -2.72073e-07 13.1309 -2.72073e-07L 31.0136 -2.72073e-07C 31.5214 -2.72073e-07 31.9204 0.392273 31.9204 0.89153L 31.9204 20.6835Z"/>
<path id="path2_fill" d="M 3.22831 1.08829e-06C 1.45093 1.08829e-06 -1.38371e-07 1.42645 -1.38371e-07 3.17385C -1.38371e-07 4.92125 1.45093 6.3477 3.22831 6.3477C 5.0057 6.3477 6.45663 4.92125 6.45663 3.17385C 6.4929 1.42645 5.04197 1.08829e-06 3.22831 1.08829e-06ZM 3.22831 4.63596C 2.39403 4.63596 1.70484 3.95839 1.70484 3.13819C 1.70484 2.31798 2.39403 1.64042 3.22831 1.64042C 4.0626 1.64042 4.75179 2.31798 4.75179 3.13819C 4.75179 3.99406 4.0626 4.63596 3.22831 4.63596Z"/>
<path id="path3_fill" d="M 3.22831 1.08829e-06C 1.45093 1.08829e-06 -2.57736e-15 1.42645 -2.57736e-15 3.17385C -2.57736e-15 4.92125 1.45093 6.3477 3.22831 6.3477C 5.0057 6.3477 6.45663 4.92125 6.45663 3.17385C 6.45663 1.42645 5.0057 1.08829e-06 3.22831 1.08829e-06ZM 3.22831 4.63596C 2.39403 4.63596 1.70484 3.95839 1.70484 3.13819C 1.70484 2.74591 1.84993 2.3893 2.14012 2.10401C 2.4303 1.81872 2.82931 1.67608 3.22831 1.67608C 4.0626 1.67608 4.75179 2.35364 4.75179 3.17385C 4.71551 3.99406 4.0626 4.63596 3.22831 4.63596Z"/>
<path id="path4_fill" d="M 4.64297 5.44147e-07C 4.38906 5.44147e-07 4.17142 0.142645 4.0626 0.320951L 0.10882 6.31204C 0.0362733 6.41902 -2.76742e-07 6.526 -2.76742e-07 6.66865C -2.76742e-07 6.84695 0.0725462 7.06092 0.217639 7.20357C 0.326458 7.34621 0.507825 7.41753 0.689191 7.41753L 9.90258 7.41753L 9.90258 5.44147e-07L 4.64297 5.44147e-07ZM 8.27029 5.77712L 2.46658 5.77712L 5.29588 1.71174L 8.30656 1.71174L 8.27029 5.77712Z"/>
<path id="path5_fill" d="M 19.0256 1.95626e-07L 2.01948 0.0256408C 0.850305 0.0256408 1.62183e-06 0.230769 1.62183e-06 0.512821C 1.62183e-06 0.794872 0.850305 1 2.01948 1L 19.0256 1C 19.557 1 20.0885 0.948718 20.4073 0.846154C 20.8325 0.74359 20.9388 0.641026 20.9388 0.512821C 21.0451 0.205128 20.1948 1.95626e-07 19.0256 1.95626e-07Z"/>
</defs>
</svg>
