<svg width="25" height="24" viewBox="0 0 25 24" version="1.1" xmlns="http://www.w3.org/2000/svg" xmlns:xlink="http://www.w3.org/1999/xlink">
<title>icon</title>
<desc>Created using Figma</desc>
<g id="Canvas" transform="translate(-1792 -8730)">
<g id="icon">
<g id="Group">
<g id="Vector">
<use xlink:href="#path0_fill" transform="translate(1792.87 8730)" fill="#54C029"/>
</g>
</g>
<g id="Rectangle">
<use xlink:href="#path1_fill" transform="translate(1803.7 8740)" fill="#54C029"/>
</g>
<g id="Rectangle">
<use xlink:href="#path2_fill" transform="translate(1803.7 8735)" fill="#54C029"/>
</g>
</g>
</g>
<defs>
<path id="path0_fill" d="M 11.9776 24C 5.36388 24 0 18.6261 0 12C 0 5.37391 5.36388 0 11.9776 0C 18.5913 0 23.9552 5.37391 23.9552 12C 23.9552 18.6261 18.5913 24 11.9776 24ZM 11.9776 2.08696C 6.50956 2.08696 2.08306 6.52174 2.08306 12C 2.08306 17.4783 6.50956 21.913 11.9776 21.913C 17.4456 21.913 21.8721 17.4783 21.8721 12C 21.8721 6.52174 17.4456 2.08696 11.9776 2.08696Z"/>
<path id="path1_fill" d="M 0 1C 0 0.447715 0.447715 0 1 0L 1.75 0C 2.30228 0 2.75 0.447715 2.75 1L 2.75 8C 2.75 8.55229 2.30228 9 1.75 9L 1 9C 0.447715 9 0 8.55229 0 8L 0 1Z"/>
<path id="path2_fill" d="M 0 1C 0 0.447715 0.447715 0 1 0L 1.75 0C 2.30228 0 2.75 0.447715 2.75 1L 2.75 2C 2.75 2.55228 2.30228 3 1.75 3L 1 3C 0.447715 3 0 2.55228 0 2L 0 1Z"/>
</defs>
</svg>
