<svg width="24" height="24" viewBox="0 0 24 24" version="1.1" xmlns="http://www.w3.org/2000/svg" xmlns:xlink="http://www.w3.org/1999/xlink">
<title>icon</title>
<desc>Created using Figma</desc>
<g id="Canvas" transform="translate(-2076 -8730)">
<g id="icon">
<g id="Vector">
<use xlink:href="#path0_fill" transform="translate(2080.9 8736.73)" fill="#333333"/>
</g>
<g id="Vector">
<use xlink:href="#path1_fill" transform="translate(2076 8730)" fill="#333333"/>
</g>
</g>
</g>
<defs>
<path id="path0_fill" d="M 3.26662 6L 3.26662 4.54545L 14.1553 4.54545L 14.1553 6L 3.26662 6ZM 3.26662 10.3636L 3.26662 8.90909L 14.1553 8.90909L 14.1553 10.3636L 3.26662 10.3636ZM 3.26662 1.63636L 3.26662 0.181818L 14.1553 0.181818L 14.1553 1.63636L 3.26662 1.63636ZM 0 6.18182L 0 4.36364L 1.81479 4.36364L 1.81479 6.18182L 0 6.18182ZM 0 10.5455L 0 8.72727L 1.81479 8.72727L 1.81479 10.5455L 0 10.5455ZM 0 1.81818L 0 0L 1.81479 0L 1.81479 1.81818L 0 1.81818Z"/>
<path id="path1_fill" d="M 1.45183 1.45455L 1.45183 22.5455L 22.5034 22.5455L 22.5034 1.45455L 1.45183 1.45455ZM 0 0L 23.9552 0L 23.9552 24L 0 24L 0 0Z"/>
</defs>
</svg>
