<svg width="24" height="23" viewBox="0 0 24 23" version="1.1" xmlns="http://www.w3.org/2000/svg" xmlns:xlink="http://www.w3.org/1999/xlink">
<title>icon</title>
<desc>Created using Figma</desc>
<g id="Canvas" transform="translate(-7240 -9175)">
<g id="icon">
<g id="icon">
<use xlink:href="#path0_fill" transform="translate(7240 9175)" fill="#007CB1"/>
</g>
</g>
</g>
<defs>
<path id="path0_fill" d="M 6.452 9.40648L 0.574533 9.40648C 0.422157 9.40648 0.276022 9.46691 0.168277 9.57448C 0.0605309 9.68204 -1.315e-07 9.82793 -1.315e-07 9.98005L -1.315e-07 22.4264C -1.315e-07 22.5786 0.0605309 22.7244 0.168277 22.832C 0.276022 22.9396 0.422157 23 0.574533 23L 6.452 23C 6.60438 23 6.75051 22.9396 6.85826 22.832C 6.966 22.7244 7.02653 22.5786 7.02653 22.4264L 7.02653 21.5087L 19.6663 21.5087C 20.3912 21.5108 21.0932 21.2551 21.6464 20.7873C 22.1997 20.3196 22.568 19.6705 22.6854 18.9564L 23.9465 11.7638C 24.033 11.2876 24.0144 10.7982 23.8919 10.3299C 23.6828 9.57329 23.2311 8.90591 22.6059 8.42993C 21.9808 7.95394 21.2166 7.69558 20.4304 7.69439L 15.1792 7.69439L 15.1792 2.92519C 15.1784 2.14961 14.8694 1.40602 14.3201 0.857606C 13.7708 0.309192 13.0259 0.000759142 12.249 -1.09399e-07L 11.7348 -1.09399e-07C 11.3539 -1.09399e-07 10.9886 0.151073 10.7192 0.419984C 10.4498 0.688895 10.2985 1.05362 10.2985 1.43392L 10.2985 4.83803C 10.2615 6.43336 9.67395 7.96702 8.63523 9.17992L 7.02653 10.436L 7.02653 9.98005C 7.02653 9.82793 6.966 9.68204 6.85826 9.57448C 6.75051 9.46691 6.60438 9.40648 6.452 9.40648ZM 5.87747 21.85L 1.14907 21.85L 1.14907 10.5536L 5.87747 10.5536L 5.87747 21.85ZM 9.39074 10.046C 9.42229 10.0214 9.45117 9.99349 9.47692 9.96284C 10.7116 8.53694 11.4086 6.7253 11.4476 4.8409L 11.4476 1.43392C 11.4476 1.35786 11.4778 1.28491 11.5317 1.23113C 11.5856 1.17735 11.6586 1.14713 11.7348 1.14713L 12.249 1.14713C 12.7212 1.14789 13.1737 1.33546 13.5076 1.66875C 13.8414 2.00204 14.0293 2.45385 14.0301 2.92519L 14.0301 8.27369C 14.0301 8.42581 14.0906 8.5717 14.1984 8.67926C 14.3061 8.78683 14.4522 8.84726 14.6046 8.84726L 20.4304 8.84726C 20.9649 8.84816 21.4844 9.02393 21.9093 9.34765C 22.3342 9.67137 22.6411 10.1252 22.7831 10.6397C 22.8601 10.9456 22.8699 11.2645 22.8118 11.5746L 21.5507 18.7671C 21.477 19.2133 21.2467 19.6188 20.9009 19.911C 20.5551 20.2031 20.1164 20.3629 19.6634 20.3616L 7.02366 20.3616L 7.02366 11.8929L 9.39074 10.046Z"/>
</defs>
</svg>
