<svg width="24" height="26" viewBox="0 0 24 26" version="1.1" xmlns="http://www.w3.org/2000/svg" xmlns:xlink="http://www.w3.org/1999/xlink">
<title>Icon</title>
<desc>Created using Figma</desc>
<g id="Canvas" transform="translate(-2709 -8197)">
<g id="Icon">
<g id="Rectangle">
<mask id="mask0_outline_ins">
<use xlink:href="#path0_fill" fill="white" transform="translate(2709 8197)"/>
</mask>
<g mask="url(#mask0_outline_ins)">
<use xlink:href="#path1_stroke_2x" transform="translate(2709 8197)" fill="#54C029"/>
</g>
</g>
<g id="Vector">
<use xlink:href="#path2_fill" transform="translate(2713.99 8202.3)" fill="#54C029"/>
</g>
</g>
</g>
<defs>
<path id="path0_fill" d="M 0 5C 0 2.23858 2.23858 0 5 0L 18.9403 0C 21.7017 0 23.9403 2.23858 23.9403 5L 23.9403 20.4381C 23.9403 23.1996 21.7017 25.4381 18.9403 25.4381L 5 25.4381C 2.23858 25.4381 0 23.1996 0 20.4381L 0 5Z"/>
<path id="path1_stroke_2x" d="M 5 1L 18.9403 1L 18.9403 -1L 5 -1L 5 1ZM 22.9403 5L 22.9403 20.4381L 24.9403 20.4381L 24.9403 5L 22.9403 5ZM 18.9403 24.4381L 5 24.4381L 5 26.4381L 18.9403 26.4381L 18.9403 24.4381ZM 1 20.4381L 1 5L -1 5L -1 20.4381L 1 20.4381ZM 5 24.4381C 2.79086 24.4381 1 22.6473 1 20.4381L -1 20.4381C -1 23.7519 1.68629 26.4381 5 26.4381L 5 24.4381ZM 22.9403 20.4381C 22.9403 22.6473 21.1494 24.4381 18.9403 24.4381L 18.9403 26.4381C 22.254 26.4381 24.9403 23.7519 24.9403 20.4381L 22.9403 20.4381ZM 18.9403 1C 21.1494 1 22.9403 2.79086 22.9403 5L 24.9403 5C 24.9403 1.68629 22.254 -1 18.9403 -1L 18.9403 1ZM 5 -1C 1.68629 -1 -1 1.68629 -1 5L 1 5C 1 2.79086 2.79086 1 5 1L 5 -1Z"/>
<path id="path2_fill" d="M 8.87556 10.467C 8.68847 10.4835 8.51697 10.3845 8.34548 10.2854C 6.77083 9.31157 5.43003 7.92507 4.4946 6.27446C 4.3231 5.99386 4.1672 5.66374 4.22956 5.33362C 4.33869 4.70639 5.08704 4.4588 5.30531 3.86458C 5.50799 3.35289 5.24295 2.77518 4.93113 2.32951C 4.41665 1.58674 3.76184 0.943005 3.01349 0.464329C 2.65491 0.233244 2.26514 0.0351714 1.8442 0.00215929C -0.0422671 -0.0968771 -0.151401 3.23735 0.0980484 4.54133C 0.363089 5.89482 1.0023 7.14928 1.75065 8.2882C 3.51239 10.9952 5.92893 13.2895 8.85997 14.3789C 9.88895 14.7586 10.9959 14.9897 12.056 14.7256C 12.5861 14.5935 13.085 14.3459 13.4592 13.9168C 13.8334 13.5041 14.036 12.9099 13.9425 12.3487C 13.849 11.771 13.4748 11.3088 13.1006 10.8962C 12.5549 10.3019 11.9469 9.77375 11.2921 9.31158C 11.1674 9.22905 11.0426 9.14651 10.9023 9.13001C 10.7464 9.1135 10.6061 9.19603 10.4658 9.27856C 10.076 9.50965 9.71745 9.79025 9.40564 10.1039C 9.26532 10.2524 9.10942 10.401 8.92233 10.434C 8.90674 10.4505 8.89115 10.467 8.87556 10.467Z"/>
</defs>
</svg>
