<svg width="39" height="39" viewBox="0 0 39 39" version="1.1" xmlns="http://www.w3.org/2000/svg" xmlns:xlink="http://www.w3.org/1999/xlink">
<title>Like</title>
<desc>Created using Figma</desc>
<g id="Canvas" transform="translate(-2417 -8080)">
<g id="Like">
<g id="Rectangle">
<mask id="mask0_outline_ins">
<use xlink:href="#path0_fill" fill="white" transform="translate(2417 8080)"/>
</mask>
<g mask="url(#mask0_outline_ins)">
<use xlink:href="#path1_stroke_2x" transform="translate(2417 8080)" fill="#E3E9ED"/>
</g>
</g>
<g id="like">
<use xlink:href="#path2_fill" transform="translate(2426 8090)" fill="#FFFFFF"/>
<use xlink:href="#path3_stroke" transform="translate(2426 8090)" fill="#BDBDBD"/>
</g>
</g>
</g>
<defs>
<path id="path0_fill" d="M 0 0L 39 0L 39 39L 0 39L 0 0Z"/>
<path id="path1_stroke_2x" d="M 0 0L 0 -1L -1 -1L -1 0L 0 0ZM 39 0L 40 0L 40 -1L 39 -1L 39 0ZM 39 39L 39 40L 40 40L 40 39L 39 39ZM 0 39L -1 39L -1 40L 0 40L 0 39ZM 0 1L 39 1L 39 -1L 0 -1L 0 1ZM 38 0L 38 39L 40 39L 40 0L 38 0ZM 39 38L 0 38L 0 40L 39 40L 39 38ZM 1 39L 1 0L -1 0L -1 39L 1 39Z"/>
<path id="path2_fill" d="M 19.4151 9.76007C 19.4151 9.76007 22.9811 5.07669 19.4151 1.66338C 19.4151 1.66338 14.2889 -3.01999 10.5 3.33035C 6.71108 -2.94061 1.58491 1.66338 1.58491 1.66338C -1.98113 5.15607 1.58491 9.76007 1.58491 9.76007C 2.92217 12.3796 9.90566 19.4443 10.5743 20C 11.3915 19.1268 18.0778 12.3002 19.4151 9.76007Z"/>
<path id="path3_stroke" d="M 19.4151 9.76007L 18.6195 9.15427L 18.569 9.22053L 18.5302 9.29423L 19.4151 9.76007ZM 19.4151 1.66338L 20.1066 0.940977L 20.0982 0.932946L 20.0896 0.925111L 19.4151 1.66338ZM 10.5 3.33035L 9.6441 3.84749L 10.5054 5.273L 11.3588 3.84273L 10.5 3.33035ZM 1.58491 1.66338L 0.916708 0.919401L 0.900627 0.933844L 0.885185 0.948969L 1.58491 1.66338ZM 1.58491 9.76007L 2.47556 9.30539L 2.43292 9.22186L 2.37549 9.14772L 1.58491 9.76007ZM 10.5743 20L 9.93515 20.7691L 10.6602 21.3716L 11.3044 20.6833L 10.5743 20ZM 19.4151 9.76007C 20.2107 10.3659 20.211 10.3655 20.2112 10.3652C 20.2114 10.365 20.2116 10.3646 20.2119 10.3644C 20.2121 10.364 20.2128 10.3631 20.2133 10.3624C 20.2141 10.3614 20.2157 10.3592 20.2173 10.3572C 20.2196 10.354 20.2242 10.3479 20.2289 10.3416C 20.2369 10.3308 20.2509 10.3117 20.2663 10.2902C 20.2945 10.251 20.3401 10.1862 20.3913 10.11C 20.4883 9.96552 20.6341 9.73671 20.7869 9.4674C 21.081 8.94651 21.465 8.14373 21.7156 7.26048C 22.2212 5.44843 22.2471 2.98985 20.1066 0.940977L 18.7236 2.38579C 20.1491 3.75023 20.175 5.33999 19.7892 6.72295C 19.594 7.43721 19.3093 8.01862 19.0462 8.48252C 18.9204 8.70561 18.8155 8.86936 18.7314 8.99438C 18.6921 9.05291 18.6645 9.09203 18.6422 9.12309C 18.6324 9.13677 18.6268 9.14437 18.6215 9.15146C 18.6196 9.15411 18.6191 9.15477 18.6181 9.15613C 18.6179 9.15638 18.618 9.15616 18.6181 9.15603C 18.618 9.15618 18.6187 9.15528 18.6187 9.15536C 18.6188 9.15521 18.619 9.15494 18.619 9.15487C 18.6192 9.15458 18.6195 9.15427 19.4151 9.76007ZM 19.4151 1.66338C 20.0896 0.925111 20.0892 0.924749 20.0888 0.924369C 20.0886 0.924219 20.0882 0.92382 20.0878 0.923519C 20.0874 0.923146 20.0864 0.92224 20.0856 0.921495C 20.0845 0.920465 20.082 0.918221 20.0797 0.916172C 20.0762 0.913 20.0693 0.906831 20.0622 0.900588C 20.0502 0.889971 20.0287 0.871261 20.0048 0.850907C 19.9615 0.81401 19.8889 0.753924 19.8043 0.687482C 19.6446 0.562456 19.3878 0.374283 19.0877 0.184585C 18.5091 -0.178491 17.5909 -0.638237 16.5884 -0.862205C 15.6015 -1.06796 14.2909 -1.03997 13.0826 -0.521784C 11.8396 0.0350203 10.6674 1.09812 9.64124 2.81797L 11.3588 3.84273C 12.2271 2.38741 13.1165 1.65455 13.9002 1.30346C 14.7187 0.913744 15.4002 0.921885 16.1684 1.09318C 16.9211 1.24627 17.5212 1.56047 18.0221 1.87708C 18.2618 2.02722 18.4351 2.15533 18.5706 2.26162C 18.6335 2.31083 18.6748 2.34516 18.7084 2.37377C 18.7229 2.38617 18.7307 2.39298 18.7383 2.3997C 18.7411 2.40212 18.7416 2.40258 18.743 2.40386C 18.7432 2.40404 18.7428 2.40367 18.7427 2.40357C 18.7429 2.40376 18.7418 2.40273 18.7419 2.40282C 18.7417 2.40266 18.7414 2.40237 18.7413 2.40229C 18.7409 2.40198 18.7406 2.40166 19.4151 1.66338ZM 11.3559 2.81321C 10.3284 1.11255 9.15553 0.0617852 7.91458 -0.489544C 6.70878 -1.00282 5.40247 -1.03362 4.41687 -0.83356C 3.41536 -0.615624 2.49789 -0.165071 1.9193 0.19137C 1.61914 0.37766 1.36221 0.562618 1.20243 0.685513C 1.11774 0.75085 1.04508 0.809983 1.00167 0.846277C 0.97776 0.866311 0.956244 0.884748 0.944198 0.895199C 0.937116 0.901352 0.930179 0.90744 0.926638 0.910565C 0.924351 0.912587 0.921852 0.914806 0.920711 0.915821C 0.919885 0.916558 0.91888 0.917455 0.918468 0.917824C 0.918135 0.918122 0.917694 0.918517 0.917528 0.918666C 0.917108 0.919042 0.916708 0.919401 1.58491 1.66338C 2.2531 2.40737 2.25274 2.40769 2.2524 2.408C 2.25231 2.40808 2.25199 2.40837 2.25181 2.40853C 2.25191 2.40844 2.25077 2.40946 2.25097 2.40928C 2.25087 2.40937 2.25044 2.40975 2.25063 2.40958C 2.25205 2.40833 2.25252 2.40791 2.25526 2.40554C 2.26284 2.39895 2.27057 2.3923 2.28513 2.38015C 2.31866 2.35206 2.35983 2.3184 2.42271 2.2701C 2.55808 2.16571 2.73122 2.03997 2.97085 1.89262C 3.47182 1.58178 4.0727 1.27327 4.82635 1.12407C 5.59591 0.957003 6.28156 0.951014 7.10256 1.33819C 7.88839 1.68732 8.77718 2.41267 9.6441 3.84749L 11.3559 2.81321ZM 0.885185 0.948969C -1.24301 3.03339 -1.22301 5.48295 -0.715128 7.29181C -0.463966 8.17128 -0.0787687 8.96816 0.21578 9.4833C 0.368971 9.74989 0.515395 9.97643 0.612584 10.119C 0.66405 10.1943 0.709891 10.2586 0.738144 10.2973C 0.753671 10.3185 0.767811 10.3375 0.775878 10.3482C 0.780602 10.3545 0.785235 10.3606 0.787632 10.3637C 0.789173 10.3657 0.79085 10.3679 0.791624 10.3689C 0.792182 10.3697 0.792857 10.3705 0.793136 10.3709C 0.79336 10.3712 0.793657 10.3716 0.793769 10.3717C 0.794051 10.3721 0.794319 10.3724 1.58491 9.76007C 2.37549 9.14772 2.37573 9.14803 2.37596 9.14833C 2.37602 9.1484 2.37623 9.14868 2.37635 9.14883C 2.37629 9.14875 2.37702 9.1497 2.37689 9.14953C 2.37698 9.14965 2.3772 9.14993 2.37704 9.14972C 2.37603 9.14841 2.37561 9.14785 2.37369 9.1453C 2.36848 9.13839 2.36303 9.13109 2.35331 9.11776C 2.33107 9.08733 2.30378 9.04922 2.2647 8.99184C 2.1808 8.86899 2.07649 8.70856 1.95108 8.48895C 1.68844 8.03169 1.405 7.45928 1.21041 6.75116C 0.826785 5.38485 0.846788 3.78606 2.28463 2.3778L 0.885185 0.948969ZM 0.694251 10.2148C 1.06853 10.9406 1.81715 11.9617 2.6867 13.0215C 3.55259 14.076 4.59097 15.2439 5.59552 16.3322C 7.58381 18.4863 9.54123 20.4417 9.93515 20.7691L 11.2134 19.2309C 10.9387 19.0026 9.07008 17.1478 7.06515 14.9757C 6.0731 13.901 5.07307 12.7768 4.23256 11.7525C 3.3957 10.7336 2.76991 9.88928 2.47556 9.30539L 0.694251 10.2148ZM 11.3044 20.6833C 11.7061 20.2541 13.5868 18.324 15.5394 16.1781C 17.4499 14.0781 19.5589 11.6336 20.3 10.2259L 18.5302 9.29423C 17.9341 10.4266 16.0312 12.6655 14.06 14.8322C 12.1308 16.9529 10.2597 18.8728 9.84418 19.3167L 11.3044 20.6833Z"/>
</defs>
</svg>
