<svg width="39" height="39" viewBox="0 0 39 39" version="1.1" xmlns="http://www.w3.org/2000/svg" xmlns:xlink="http://www.w3.org/1999/xlink">
<title>price notif</title>
<desc>Created using Figma</desc>
<g id="Canvas" transform="translate(-2370 -8127)">
<g id="price notif">
<g id="Rectangle">
<mask id="mask0_outline_ins">
<use xlink:href="#path0_fill" fill="white" transform="translate(2370 8127)"/>
</mask>
<g mask="url(#mask0_outline_ins)">
<use xlink:href="#path1_stroke_2x" transform="translate(2370 8127)" fill="#E3E9ED"/>
</g>
</g>
<g id="Vector">
<use xlink:href="#path2_fill" transform="translate(2378 8138)" fill="#BDBDBD"/>
</g>
</g>
</g>
<defs>
<path id="path0_fill" d="M 0 0L 39 0L 39 39L 0 39L 0 0Z"/>
<path id="path1_stroke_2x" d="M 0 0L 0 -1L -1 -1L -1 0L 0 0ZM 39 0L 40 0L 40 -1L 39 -1L 39 0ZM 39 39L 39 40L 40 40L 40 39L 39 39ZM 0 39L -1 39L -1 40L 0 40L 0 39ZM 0 1L 39 1L 39 -1L 0 -1L 0 1ZM 38 0L 38 39L 40 39L 40 0L 38 0ZM 39 38L 0 38L 0 40L 39 40L 39 38ZM 1 39L 1 0L -1 0L -1 39L 1 39Z"/>
<path id="path2_fill" d="M 22.9739 0.85C 22.9739 0.823438 22.9477 0.796875 22.9477 0.770313C 22.9477 0.74375 22.9215 0.690625 22.9215 0.664062C 22.8954 0.6375 22.8954 0.584375 22.8692 0.557812C 22.8431 0.53125 22.8431 0.504687 22.8169 0.478125C 22.7908 0.425 22.7385 0.371875 22.6862 0.31875C 22.6339 0.265625 22.5816 0.239063 22.5293 0.185937C 22.5031 0.159375 22.477 0.159375 22.4508 0.132812C 22.4247 0.10625 22.3986 0.10625 22.3463 0.0796875C 22.3201 0.053125 22.2678 0.053125 22.2416 0.053125C 22.2155 0.053125 22.1894 0.0265625 22.1632 0.0265625C 22.0848 0 22.0324 0 21.954 0L 14.632 0C 14.0567 0 13.586 0.478125 13.586 1.0625C 13.586 1.64688 14.0567 2.125 14.632 2.125L 19.4174 2.125L 13.3768 8.26094L 7.78069 5.41875C 7.30999 5.17969 6.73469 5.33906 6.44704 5.79062L 0.171041 15.3531C -0.142759 15.8313 -0.0120091 16.4953 0.458691 16.8141C 0.641741 16.9469 0.824791 17 1.03399 17C 1.37394 17 1.71389 16.8406 1.89694 16.5219L 7.64994 7.72969L 13.0891 10.4922C 13.0891 10.4922 13.1153 10.4922 13.1153 10.5187C 13.1414 10.5453 13.1937 10.5453 13.2199 10.5719C 13.246 10.5719 13.2722 10.5984 13.3245 10.5984C 13.3506 10.5984 13.4029 10.5984 13.4291 10.625C 13.4552 10.625 13.5075 10.625 13.5337 10.625L 13.5598 10.625C 13.586 10.625 13.6121 10.625 13.6383 10.625C 13.6644 10.625 13.7167 10.625 13.7429 10.625C 13.769 10.625 13.8213 10.5984 13.8475 10.5984C 13.8736 10.5984 13.8998 10.5719 13.9521 10.5719C 13.9782 10.5719 14.0044 10.5453 14.0567 10.5187C 14.0828 10.4922 14.109 10.4922 14.1351 10.4656C 14.1613 10.4391 14.1874 10.4391 14.2136 10.4125C 14.2397 10.3859 14.2659 10.3594 14.292 10.3328L 14.3182 10.3062L 20.908 3.63906L 20.908 8.5C 20.908 9.08438 21.3787 9.5625 21.954 9.5625C 22.5293 9.5625 23 9.08438 23 8.5L 23 1.0625C 23 0.982813 23 0.929688 22.9739 0.85Z"/>
</defs>
</svg>
