<svg width="18" height="17" viewBox="0 -1 18 17" version="1.1" xmlns="http://www.w3.org/2000/svg" xmlns:xlink="http://www.w3.org/1999/xlink">
<title>like</title>

<g id="ic-like-btn">

<path id="" d="M 14.7925 6.83205L 14.0225 6.19395L 13.9676 6.26021L 13.9248 6.33488L 14.7925 6.83205ZM 14.7925 1.16437L 15.4528 0.413433L 15.4442 0.405833L 15.4354 0.398434L 14.7925 1.16437ZM 8 2.33124L 7.16448 2.88071L 8.00527 4.15921L 8.83867 2.87589L 8 2.33124ZM 1.20755 1.16437L 0.571091 0.393057L 0.554568 0.406691L 0.538644 0.421021L 1.20755 1.16437ZM 1.20755 6.83205L 2.08167 6.34635L 2.03459 6.26161L 1.9721 6.18749L 1.20755 6.83205ZM 8.0566 14L 7.44975 14.7948L 8.13863 15.3208L 8.75714 14.7136L 8.0566 14ZM 14.7925 6.83205C 15.5624 7.47016 15.5627 7.46982 15.563 7.46948C 15.5631 7.46935 15.5634 7.46899 15.5636 7.46872C 15.5638 7.46841 15.5645 7.46761 15.565 7.46698C 15.5657 7.46615 15.5673 7.46424 15.5686 7.46257C 15.5707 7.46009 15.5748 7.45503 15.5788 7.45008C 15.5853 7.44194 15.5973 7.42689 15.61 7.41073C 15.6324 7.38208 15.67 7.33288 15.711 7.27691C 15.787 7.17286 15.905 7.00262 16.026 6.80685C 16.2556 6.43295 16.5666 5.83301 16.7682 5.1848C 17.1817 3.82327 17.197 1.9473 15.4528 0.413433L 14.1321 1.91531C 15.1048 2.77076 15.1202 3.72862 14.8545 4.6036C 14.7164 5.07365 14.518 5.44264 14.323 5.7581C 14.2318 5.907 14.1587 6.01156 14.0968 6.09612C 14.0688 6.13446 14.0507 6.15803 14.0346 6.17857C 14.028 6.18701 14.0251 6.19065 14.0215 6.19507C 14.0205 6.1964 14.0196 6.19746 14.0202 6.19676C 14.0201 6.19685 14.0209 6.19589 14.0209 6.19593C 14.0207 6.19616 14.0217 6.19496 14.0216 6.19508C 14.0217 6.19491 14.0219 6.19463 14.022 6.19455C 14.0222 6.19425 14.0225 6.19395 14.7925 6.83205ZM 14.7925 1.16437C 15.4354 0.398434 15.435 0.398097 15.4346 0.397747C 15.4344 0.397614 15.434 0.397251 15.4336 0.396985C 15.4333 0.396668 15.4323 0.395866 15.4315 0.395232C 15.4305 0.394399 15.4282 0.39249 15.4262 0.390831C 15.4233 0.388384 15.4172 0.38338 15.4112 0.378553C 15.4015 0.370657 15.3834 0.356152 15.364 0.340968C 15.3297 0.314173 15.2705 0.26915 15.2033 0.220679C 15.0787 0.131077 14.8733 -0.00710009 14.6378 -0.144035C 14.1887 -0.40275 13.4586 -0.737545 12.6724 -0.900232C 11.9029 -1.04682 10.8528 -1.02429 9.8986 -0.651162C 8.90531 -0.242366 7.97211 0.538118 7.16133 1.7866L 8.83867 2.87589C 9.47128 1.90175 10.1088 1.42507 10.6598 1.19833C 11.2498 0.935928 11.7174 0.944566 12.2851 1.06192C 12.8362 1.16316 13.263 1.37013 13.6364 1.5872C 13.8121 1.68815 13.9344 1.77137 14.0346 1.84369C 14.0799 1.87618 14.1075 1.89725 14.1318 1.91631C 14.1417 1.92405 14.1459 1.92741 14.1511 1.93165C 14.1526 1.93289 14.1538 1.93386 14.153 1.93319C 14.1531 1.93329 14.1519 1.93227 14.1519 1.93232C 14.1522 1.93255 14.1508 1.93134 14.1509 1.93145C 14.1507 1.93129 14.1504 1.931 14.1503 1.93092C 14.1499 1.93062 14.1495 1.9303 14.7925 1.16437ZM 8.83552 1.78178C 8.02339 0.546855 7.08981 -0.224276 6.09872 -0.628815C 5.14687 -0.998302 4.10077 -1.02284 3.3325 -0.880351C 2.54733 -0.722094 1.81815 -0.394123 1.3691 -0.140172C 1.13356 -0.00572063 0.928092 0.130062 0.803428 0.218128C 0.736226 0.265788 0.676955 0.310087 0.64264 0.336442C 0.62323 0.351386 0.605076 0.365675 0.595325 0.373446C 0.589368 0.378202 0.583247 0.383138 0.580274 0.385549C 0.578258 0.387186 0.575947 0.389071 0.574942 0.389893C 0.574179 0.390518 0.573212 0.391311 0.572831 0.391624C 0.57251 0.391888 0.572074 0.392246 0.571914 0.392378C 0.571495 0.392724 0.571091 0.393057 1.20755 1.16437C 1.844 1.93568 1.84363 1.93599 1.84327 1.93629C 1.84317 1.93637 1.84282 1.93665 1.84262 1.93682C 1.84276 1.9367 1.84129 1.93791 1.84158 1.93768C 1.84163 1.93763 1.84038 1.93866 1.84051 1.93855C 1.8397 1.9392 1.84083 1.93828 1.84235 1.93707C 1.84756 1.93291 1.85169 1.92964 1.86159 1.92205C 1.8859 1.90334 1.91335 1.88269 1.95859 1.8508C 2.05879 1.77976 2.181 1.69806 2.35673 1.59896C 2.7302 1.38582 3.15786 1.18244 3.70995 1.08371C 4.27895 0.969207 4.75053 0.962034 5.3429 1.22287C 5.89604 1.44865 6.53321 1.9208 7.16448 2.88071L 8.83552 1.78178ZM 0.538644 0.421021C -1.19277 1.97903 -1.18367 3.84603 -0.767659 5.2073C -0.565443 5.85325 -0.253073 6.4495 -0.0230272 6.81948C 0.0984143 7.01344 0.217033 7.1822 0.293264 7.28498C 0.334478 7.34038 0.372383 7.38919 0.394866 7.41749C 0.407614 7.43351 0.419757 7.44849 0.426351 7.45655C 0.430389 7.46147 0.434576 7.46653 0.436619 7.46899C 0.438008 7.47066 0.439608 7.47258 0.440304 7.47341C 0.440835 7.47404 0.441509 7.47485 0.441774 7.47516C 0.441998 7.47543 0.442303 7.47579 0.442415 7.47592C 0.442709 7.47627 0.442992 7.47661 1.20755 6.83205C 1.9721 6.18749 1.97237 6.1878 1.97262 6.1881C 1.97269 6.18819 1.97293 6.18848 1.97307 6.18865C 1.97297 6.18853 1.97401 6.18976 1.9738 6.18952C 1.97376 6.18947 1.97465 6.19053 1.97456 6.19042C 1.97511 6.19108 1.97434 6.19017 1.97332 6.18892C 1.9698 6.18462 1.96702 6.18121 1.96053 6.17303C 1.94454 6.15293 1.92673 6.13011 1.89895 6.09261C 1.83721 6.00959 1.76479 5.90747 1.67397 5.76109C 1.47949 5.45039 1.28243 5.08814 1.14502 4.62278C 0.881786 3.76143 0.890879 2.79459 1.87645 1.90772L 0.538644 0.421021ZM 0.333424 7.31775C 0.64803 7.88395 1.24078 8.61035 1.8902 9.33719C 2.55371 10.0795 3.35048 10.9029 4.11765 11.6665C 5.63064 13.1725 7.13407 14.5538 7.44975 14.7948L 8.66345 13.2052C 8.70364 13.2353 8.51461 13.0808 8.32558 12.9111C 8.13316 12.7386 7.88673 12.5129 7.59691 12.2425C 7.015 11.6997 6.28201 10.999 5.52857 10.249C 4.77452 9.49855 4.01823 8.71746 3.38162 8.00465C 2.73092 7.27638 2.2765 6.69698 2.08167 6.34635L 0.333424 7.31775ZM 8.75714 14.7136C 9.06122 14.415 10.4955 13.0627 11.9865 11.5572C 12.7313 10.805 13.5012 10.0029 14.1443 9.28155C 14.7911 8.55526 15.3634 7.84069 15.6601 7.32922L 13.9248 6.33488C 13.712 6.71246 13.2655 7.262 12.6511 7.9509C 12.033 8.64478 11.2993 9.40884 10.5654 10.15C 9.09879 11.6312 7.67463 12.9737 7.35607 13.2864L 8.75714 14.7136Z"/>
</g>
</svg>