<svg width="50" height="35" viewBox="0 0 50 35" version="1.1" xmlns="http://www.w3.org/2000/svg" xmlns:xlink="http://www.w3.org/1999/xlink">
<title>credit</title>
<desc>Created using Figma</desc>
<g id="Canvas" transform="translate(-2680 404)">
<g id="credit">
<g id="background" opacity="0.7">
<use xlink:href="#path0_fill" transform="translate(2680 -404)" fill="#F2F2F2"/>
<mask id="mask0_outline_ins">
<use xlink:href="#path0_fill" fill="white" transform="translate(2680 -404)"/>
</mask>
<g mask="url(#mask0_outline_ins)">
<use xlink:href="#path1_stroke_2x" transform="translate(2680 -404)" fill="#E5E5E5"/>
</g>
</g>
<g id="text">
<use xlink:href="#path2_fill" transform="translate(2684 -404)" fill="#333333"/>
<use xlink:href="#path3_fill" transform="translate(2684 -404)" fill="#007CB1"/>
</g>
</g>
</g>
<defs>
<path id="path0_fill" d="M 0 5C 0 2.23858 2.23858 0 5 0L 45 0C 47.7614 0 50 2.23858 50 5L 50 30C 50 32.7614 47.7614 35 45 35L 5 35C 2.23858 35 0 32.7614 0 30L 0 5Z"/>
<path id="path1_stroke_2x" d="M 5 1L 45 1L 45 -1L 5 -1L 5 1ZM 49 5L 49 30L 51 30L 51 5L 49 5ZM 45 34L 5 34L 5 36L 45 36L 45 34ZM 1 30L 1 5L -1 5L -1 30L 1 30ZM 5 34C 2.79086 34 1 32.2091 1 30L -1 30C -1 33.3137 1.68629 36 5 36L 5 34ZM 49 30C 49 32.2091 47.2091 34 45 34L 45 36C 48.3137 36 51 33.3137 51 30L 49 30ZM 45 1C 47.2091 1 49 2.79086 49 5L 51 5C 51 1.68629 48.3137 -1 45 -1L 45 1ZM 5 -1C 1.68629 -1 -1 1.68629 -1 5L 1 5C 1 2.79086 2.79086 1 5 1L 5 -1Z"/>
<path id="path2_fill" d="M 7.5037 6.7035C 7.55504 6.62283 7.62287 6.55683 7.7072 6.5055C 7.79154 6.45417 7.88137 6.4285 7.9767 6.4285L 8.7412 6.4285L 7.2947 8.5515C 7.2067 8.68717 7.11504 8.799 7.0197 8.887C 6.92437 8.97133 6.80704 9.03733 6.6677 9.085C 6.8437 9.13267 6.9922 9.20783 7.1132 9.3105C 7.2342 9.4095 7.34237 9.53783 7.4377 9.6955L 8.9007 12L 8.2187 12C 8.0427 12 7.90704 11.9707 7.8117 11.912C 7.71637 11.8533 7.63387 11.769 7.5642 11.659L 6.4807 9.9265C 6.30837 9.6405 6.04987 9.4975 5.7052 9.4975L 5.1057 9.4975L 5.1057 12.0055L 4.1212 12.0055L 4.1212 6.4285L 5.1057 6.4285L 5.1057 8.8375L 5.6337 8.8375C 5.92704 8.8375 6.1562 8.71283 6.3212 8.4635L 7.5037 6.7035ZM 10.7991 10.658C 10.9787 10.9 11.1749 11.0705 11.3876 11.1695C 11.6002 11.2685 11.8386 11.318 12.1026 11.318C 12.6232 11.318 13.0229 11.1328 13.3016 10.7625C 13.5802 10.3922 13.7196 9.86417 13.7196 9.1785C 13.7196 8.8155 13.6866 8.50383 13.6206 8.2435C 13.5582 7.98317 13.4666 7.7705 13.3456 7.6055C 13.2246 7.43683 13.0761 7.314 12.9001 7.237C 12.7241 7.16 12.5242 7.1215 12.3006 7.1215C 11.9816 7.1215 11.7011 7.19483 11.4591 7.3415C 11.2207 7.48817 11.0007 7.69533 10.7991 7.963L 10.7991 10.658ZM 10.7496 7.292C 10.9842 7.00233 11.2556 6.7695 11.5636 6.5935C 11.8716 6.4175 12.2236 6.3295 12.6196 6.3295C 12.9422 6.3295 13.2337 6.39183 13.4941 6.5165C 13.7544 6.6375 13.9762 6.819 14.1596 7.061C 14.3429 7.29933 14.4841 7.59633 14.5831 7.952C 14.6821 8.30767 14.7316 8.7165 14.7316 9.1785C 14.7316 9.58917 14.6766 9.97233 14.5666 10.328C 14.4566 10.68 14.2971 10.9862 14.0881 11.2465C 13.8827 11.5032 13.6297 11.7067 13.3291 11.857C 13.0321 12.0037 12.6966 12.077 12.3226 12.077C 11.9816 12.077 11.6882 12.0202 11.4426 11.9065C 11.2006 11.7892 10.9861 11.6278 10.7991 11.4225L 10.7991 13.8865L 9.81456 13.8865L 9.81456 6.4285L 10.4031 6.4285C 10.5424 6.4285 10.6286 6.49633 10.6616 6.632L 10.7496 7.292ZM 19.6988 8.6065C 19.6988 8.37917 19.6658 8.172 19.5998 7.985C 19.5375 7.79433 19.444 7.63117 19.3193 7.4955C 19.1983 7.35617 19.0498 7.24983 18.8738 7.1765C 18.6978 7.0995 18.498 7.061 18.2743 7.061C 17.805 7.061 17.4328 7.1985 17.1578 7.4735C 16.8865 7.74483 16.7178 8.1225 16.6518 8.6065L 19.6988 8.6065ZM 20.4908 11.219C 20.3698 11.3657 20.225 11.494 20.0563 11.604C 19.8877 11.7103 19.7062 11.7983 19.5118 11.868C 19.3212 11.9377 19.1232 11.989 18.9178 12.022C 18.7125 12.0587 18.509 12.077 18.3073 12.077C 17.9223 12.077 17.5667 12.0128 17.2403 11.8845C 16.9177 11.7525 16.6372 11.5618 16.3988 11.3125C 16.1642 11.0595 15.9808 10.7478 15.8488 10.3775C 15.7168 10.0072 15.6508 9.58183 15.6508 9.1015C 15.6508 8.71283 15.7095 8.34983 15.8268 8.0125C 15.9478 7.67517 16.1202 7.38367 16.3438 7.138C 16.5675 6.88867 16.8407 6.69433 17.1633 6.555C 17.486 6.412 17.849 6.3405 18.2523 6.3405C 18.586 6.3405 18.894 6.39733 19.1763 6.511C 19.4623 6.621 19.708 6.78233 19.9133 6.995C 20.1223 7.204 20.2855 7.46433 20.4028 7.776C 20.5202 8.084 20.5788 8.436 20.5788 8.832C 20.5788 8.986 20.5623 9.08867 20.5293 9.14C 20.4963 9.19133 20.434 9.217 20.3423 9.217L 16.6188 9.217C 16.6298 9.569 16.6775 9.87517 16.7618 10.1355C 16.8498 10.3958 16.9708 10.614 17.1248 10.79C 17.2788 10.9623 17.4622 11.0925 17.6748 11.1805C 17.8875 11.2648 18.1258 11.307 18.3898 11.307C 18.6355 11.307 18.8463 11.2795 19.0223 11.2245C 19.202 11.1658 19.356 11.1035 19.4843 11.0375C 19.6127 10.9715 19.719 10.911 19.8033 10.856C 19.8913 10.7973 19.9665 10.768 20.0288 10.768C 20.1095 10.768 20.1718 10.7992 20.2158 10.8615L 20.4908 11.219ZM 25.5774 11.285L 25.5774 7.1985L 23.8119 7.1985C 23.7752 7.7705 23.7239 8.2765 23.6579 8.7165C 23.5919 9.1565 23.5149 9.54333 23.4269 9.877C 23.3426 10.207 23.2472 10.4875 23.1409 10.7185C 23.0382 10.9495 22.9301 11.1383 22.8164 11.285L 25.5774 11.285ZM 27.5464 11.2575L 27.5464 13.617C 27.5464 13.7123 27.5189 13.7857 27.4639 13.837C 27.4126 13.892 27.3447 13.9195 27.2604 13.9195L 26.6609 13.9195L 26.6609 12L 21.9749 12L 21.9749 13.639C 21.9749 13.7087 21.9529 13.7728 21.9089 13.8315C 21.8686 13.8902 21.8007 13.9195 21.7054 13.9195L 21.0894 13.9195L 21.0894 11.285L 21.2709 11.285C 21.3992 11.285 21.5257 11.263 21.6504 11.219C 21.7787 11.175 21.9016 11.0925 22.0189 10.9715C 22.1362 10.8468 22.2462 10.6727 22.3489 10.449C 22.4552 10.2253 22.5506 9.93383 22.6349 9.5745C 22.7192 9.21517 22.7926 8.77883 22.8549 8.2655C 22.9172 7.7485 22.9667 7.13617 23.0034 6.4285L 26.5289 6.4285L 26.5289 11.2575L 27.5464 11.2575ZM 33.3177 6.4285L 33.3177 12L 32.3387 12L 32.3387 8.216C 32.3387 8.14267 32.3424 8.06383 32.3497 7.9795C 32.357 7.89517 32.3662 7.81083 32.3772 7.7265C 32.3442 7.79983 32.3112 7.86767 32.2782 7.93C 32.2452 7.99233 32.2104 8.04917 32.1737 8.1005L 29.4842 11.758C 29.4439 11.8167 29.3925 11.8735 29.3302 11.9285C 29.2715 11.9798 29.2055 12.0055 29.1322 12.0055L 28.5382 12.0055L 28.5382 6.434L 29.5227 6.434L 29.5227 10.218C 29.5227 10.2877 29.519 10.3647 29.5117 10.449C 29.5044 10.5297 29.4952 10.6122 29.4842 10.6965C 29.5172 10.6268 29.5502 10.5627 29.5832 10.504C 29.6162 10.4417 29.6492 10.3848 29.6822 10.3335L 32.3717 6.676C 32.412 6.61733 32.4634 6.56233 32.5257 6.511C 32.588 6.456 32.6559 6.4285 32.7292 6.4285L 33.3177 6.4285ZM 39.4963 7.1765L 37.3568 7.1765L 37.3568 12L 36.3778 12L 36.3778 7.1765L 34.2383 7.1765L 34.2383 6.4285L 39.4963 6.4285L 39.4963 7.1765Z"/>
<path id="path3_fill" d="M 20.4987 28.52L 20.4987 30L 14.0987 30L 14.0987 28.52L 16.4427 28.52L 16.4427 21.776C 16.4427 21.5093 16.4507 21.2347 16.4668 20.952L 14.8028 22.344C 14.7067 22.4187 14.6107 22.4667 14.5148 22.488C 14.4241 22.504 14.3361 22.504 14.2508 22.488C 14.1708 22.472 14.0987 22.4453 14.0347 22.408C 13.9707 22.3653 13.9227 22.32 13.8908 22.272L 13.2667 21.416L 16.7948 18.416L 18.4187 18.416L 18.4187 28.52L 20.4987 28.52ZM 29.348 28.16C 29.5613 28.16 29.7293 28.2213 29.852 28.344C 29.98 28.4613 30.044 28.6187 30.044 28.816L 30.044 30L 22.108 30L 22.108 29.344C 22.108 29.2107 22.1347 29.072 22.188 28.928C 22.2467 28.7787 22.3373 28.6453 22.46 28.528L 25.972 25.008C 26.2653 24.7093 26.5267 24.424 26.756 24.152C 26.9907 23.88 27.1853 23.6107 27.34 23.344C 27.4947 23.0773 27.612 22.808 27.692 22.536C 27.7773 22.2587 27.82 21.968 27.82 21.664C 27.82 21.3867 27.78 21.144 27.7 20.936C 27.62 20.7227 27.5053 20.544 27.356 20.4C 27.212 20.256 27.036 20.1493 26.828 20.08C 26.6253 20.0053 26.396 19.968 26.14 19.968C 25.9053 19.968 25.6867 20.0027 25.484 20.072C 25.2867 20.136 25.1107 20.2293 24.956 20.352C 24.8013 20.4693 24.6707 20.608 24.564 20.768C 24.4573 20.928 24.3773 21.104 24.324 21.296C 24.2333 21.5413 24.116 21.704 23.972 21.784C 23.828 21.864 23.62 21.8827 23.348 21.84L 22.308 21.656C 22.388 21.1013 22.5427 20.616 22.772 20.2C 23.0013 19.7787 23.2867 19.4293 23.628 19.152C 23.9747 18.8693 24.3693 18.6587 24.812 18.52C 25.26 18.376 25.74 18.304 26.252 18.304C 26.7853 18.304 27.2733 18.384 27.716 18.544C 28.1587 18.6987 28.5373 18.92 28.852 19.208C 29.1667 19.496 29.412 19.8427 29.588 20.248C 29.764 20.6533 29.852 21.104 29.852 21.6C 29.852 22.0267 29.788 22.4213 29.66 22.784C 29.5373 23.1467 29.3693 23.4933 29.156 23.824C 28.948 24.1547 28.7027 24.4747 28.42 24.784C 28.1373 25.0933 27.8413 25.408 27.532 25.728L 24.924 28.392C 25.1747 28.3173 25.4227 28.2613 25.668 28.224C 25.9187 28.1813 26.156 28.16 26.38 28.16L 29.348 28.16Z"/>
</defs>
</svg>
