<svg width="242" height="43" viewBox="0 0 242 43" version="1.1" xmlns="http://www.w3.org/2000/svg" xmlns:xlink="http://www.w3.org/1999/xlink">
<title>Logo2</title>
<desc>Created using Figma</desc>
<g id="Canvas" transform="translate(-1701 1248)">
<g id="Logo2">
<g id="Vector">
<use xlink:href="#path0_fill" transform="translate(1794.95 -1242.92)" fill="#0C90C8"/>
</g>
<g id="Vector">
<use xlink:href="#path1_fill" transform="translate(1772.88 -1243.37)" fill="#0C90C8"/>
</g>
<g id="Vector">
<use xlink:href="#path2_fill" transform="translate(1749.92 -1243.52)" fill="#0C90C8"/>
</g>
<g id="Vector">
<use xlink:href="#path3_fill" transform="translate(1814.63 -1243.96)" fill="#0C90C8"/>
</g>
<g id="Group">
<g id="Group">
<g id="Vector">
<use xlink:href="#path4_fill" transform="translate(1840.87 -1238.74)" fill="#FFFFFF"/>
</g>
<g id="Vector">
<use xlink:href="#path5_fill" transform="translate(1854.44 -1238.74)" fill="#FFFFFF"/>
</g>
<g id="Vector">
<use xlink:href="#path6_fill" transform="translate(1868 -1238.74)" fill="#FFFFFF"/>
</g>
<g id="Vector">
<use xlink:href="#path7_fill" transform="translate(1885.6 -1238.74)" fill="#FFFFFF"/>
</g>
<g id="Vector">
<use xlink:href="#path8_fill" transform="translate(1898.12 -1238.74)" fill="#FFFFFF"/>
</g>
<g id="Vector">
<use xlink:href="#path9_fill" transform="translate(1910.94 -1239.19)" fill="#FFFFFF"/>
</g>
<g id="Vector">
<use xlink:href="#path10_fill" transform="translate(1928.84 -1238.74)" fill="#FFFFFF"/>
</g>
</g>
</g>
<g id="Group">
<g id="Group">
<g id="Vector">
<use xlink:href="#path11_fill" transform="translate(1753.2 -1215)" fill="#FFFFFF"/>
</g>
<g id="Vector">
<use xlink:href="#path12_fill" transform="translate(1760.8 -1215)" fill="#FFFFFF"/>
</g>
<g id="Vector">
<use xlink:href="#path13_fill" transform="translate(1767.36 -1215)" fill="#FFFFFF"/>
</g>
<g id="Vector">
<use xlink:href="#path14_fill" transform="translate(1772.88 -1215)" fill="#FFFFFF"/>
</g>
<g id="Vector">
<use xlink:href="#path15_fill" transform="translate(1781.23 -1215.15)" fill="#FFFFFF"/>
</g>
<g id="Vector">
<use xlink:href="#path16_fill" transform="translate(1789.58 -1215)" fill="#FFFFFF"/>
</g>
<g id="Vector">
<use xlink:href="#path17_fill" transform="translate(1796.88 -1215)" fill="#FFFFFF"/>
</g>
<g id="Vector">
<use xlink:href="#path18_fill" transform="translate(1804.34 -1215)" fill="#FFFFFF"/>
</g>
<g id="Vector">
<use xlink:href="#path19_fill" transform="translate(1809.41 -1212.02)" fill="#FFFFFF"/>
</g>
<g id="Vector">
<use xlink:href="#path20_fill" transform="translate(1813.43 -1215)" fill="#FFFFFF"/>
</g>
<g id="Vector">
<use xlink:href="#path21_fill" transform="translate(1824.77 -1215.3)" fill="#FFFFFF"/>
</g>
<g id="Vector">
<use xlink:href="#path22_fill" transform="translate(1833.56 -1215)" fill="#FFFFFF"/>
</g>
<g id="Vector">
<use xlink:href="#path23_fill" transform="translate(1837.59 -1215.3)" fill="#FFFFFF"/>
</g>
<g id="Vector">
<use xlink:href="#path24_fill" transform="translate(1845.94 -1215)" fill="#FFFFFF"/>
</g>
<g id="Vector">
<use xlink:href="#path25_fill" transform="translate(1851.75 -1215)" fill="#FFFFFF"/>
</g>
<g id="Vector">
<use xlink:href="#path26_fill" transform="translate(1859.36 -1215)" fill="#FFFFFF"/>
</g>
<g id="Vector">
<use xlink:href="#path27_fill" transform="translate(1870.24 -1215.15)" fill="#FFFFFF"/>
</g>
<g id="Vector">
<use xlink:href="#path28_fill" transform="translate(1877.99 -1215.3)" fill="#FFFFFF"/>
</g>
<g id="Vector">
<use xlink:href="#path29_fill" transform="translate(1886.94 -1215)" fill="#FFFFFF"/>
</g>
<g id="Vector">
<use xlink:href="#path30_fill" transform="translate(1893.5 -1215)" fill="#FFFFFF"/>
</g>
<g id="Vector">
<use xlink:href="#path31_fill" transform="translate(1898.87 -1215)" fill="#FFFFFF"/>
</g>
<g id="Vector">
<use xlink:href="#path32_fill" transform="translate(1906.32 -1215)" fill="#FFFFFF"/>
</g>
<g id="Vector">
<use xlink:href="#path33_fill" transform="translate(1913.18 -1215)" fill="#FFFFFF"/>
</g>
<g id="Vector">
<use xlink:href="#path34_fill" transform="translate(1920.64 -1215)" fill="#FFFFFF"/>
</g>
<g id="Vector">
<use xlink:href="#path35_fill" transform="translate(1928.39 -1215)" fill="#FFFFFF"/>
</g>
<g id="Vector">
<use xlink:href="#path36_fill" transform="translate(1934.5 -1215)" fill="#FFFFFF"/>
</g>
</g>
</g>
<g id="Group">
<g id="Vector">
<use xlink:href="#path37_fill" transform="translate(1701 -1248)" fill="#2E2B6C"/>
</g>
<g id="Vector">
<use xlink:href="#path38_fill" transform="translate(1703.64 -1235.01)" fill="#FFFFFF"/>
</g>
<g id="Vector">
<use xlink:href="#path39_fill" transform="translate(1730.54 -1240.38)" fill="#438425"/>
</g>
<g id="Vector">
<use xlink:href="#path40_fill" transform="translate(1731.43 -1233.51)" fill="#386D1B"/>
</g>
<g id="Vector">
<use xlink:href="#path41_fill" transform="translate(1703.85 -1235.75)" fill="#63AE45"/>
</g>
<g id="Vector">
<use xlink:href="#path42_fill" transform="matrix(0.642741 -0.766085 0.765314 0.643659 1721.45 -1221.4)" fill="#171544"/>
</g>
<g id="Vector">
<use xlink:href="#path43_fill" transform="translate(1704.15 -1245.48)" fill="#0C90C8"/>
</g>
<g id="Vector">
<use xlink:href="#path44_fill" transform="translate(1724.12 -1244.56)" fill="#0A79A0"/>
</g>
</g>
</g>
</g>
<defs>
<path id="path0_fill" d="M 17.2953 12.6887C 17.2953 18.212 14.0151 20.899 8.64764 20.899C 3.13104 20.899 2.27505e-06 18.212 2.27505e-06 12.6887L 2.27505e-06 1.13891e-06L 4.47292 1.13891e-06L 4.47292 12.6887C 4.47292 14.9279 5.06931 17.1671 8.64764 17.1671C 11.7787 17.1671 12.8224 15.8236 12.8224 12.6887L 12.8224 1.13891e-06L 17.2953 1.13891e-06L 17.2953 12.6887Z"/>
<path id="path1_fill" d="M 20.5754 20.3019L 13.1206 20.3019C 12.226 20.6005 11.1823 20.7498 10.2877 20.7498C 4.62202 20.7498 -2.27505e-06 16.1221 -2.27505e-06 10.4495C -2.27505e-06 4.62764 4.62202 -5.69454e-07 10.2877 -5.69454e-07C 16.1025 -5.69454e-07 20.7245 4.62764 20.7245 10.4495C 20.7245 12.9873 19.979 14.6293 18.4881 16.1221L 20.7245 16.1221L 20.5754 20.3019ZM 4.02563 10.4495C 4.02563 13.7337 6.85848 16.4207 10.1386 16.4207C 13.5679 16.4207 16.2516 13.7337 16.2516 10.4495C 16.2516 7.01611 13.5679 4.32909 10.1386 4.32909C 6.85848 4.32909 4.02563 7.01611 4.02563 10.4495Z"/>
<path id="path2_fill" d="M 16.4007 0.298558L 16.4007 2.0899C 14.7606 0.895674 12.5242 -1.13891e-06 10.2877 -1.13891e-06C 4.62202 -1.13891e-06 1.13752e-06 4.62764 1.13752e-06 10.3002C 1.13752e-06 15.9728 4.62202 20.6005 10.2877 20.6005C 11.1823 20.6005 13.1206 20.3019 14.0152 20.0034C 14.9097 19.7048 15.6552 19.257 16.4007 18.6599L 16.4007 20.6005L 21.0227 20.6005L 21.0227 0.149278L 16.4007 0.149278L 16.4007 0.298558ZM 10.2877 16.4207C 7.00757 16.4207 4.17473 13.7337 4.17473 10.4495C 4.17473 7.0161 6.85848 4.47836 10.2877 4.47836C 13.717 4.47836 16.2516 7.16538 16.2516 10.4495C 16.4007 13.7337 13.717 16.4207 10.2877 16.4207Z"/>
<path id="path3_fill" d="M 16.4007 0.149279L 16.4007 2.23918C 14.6115 1.04495 12.5242 0.149279 10.2877 0.149279C 4.62202 0.149279 -2.27505e-06 4.77692 -2.27505e-06 10.5988C -2.27505e-06 16.2714 4.62202 20.899 10.2877 20.899C 11.1823 20.899 13.1206 20.6005 14.0152 20.3019C 14.9097 20.0034 15.6552 19.5555 16.4007 18.9584L 16.4007 20.899L 21.0227 20.899L 21.0227 0L 16.4007 0L 16.4007 0.149279ZM 10.2877 16.57C 7.00758 16.57 4.17473 13.8829 4.17473 10.5988C 4.17473 7.16539 7.00758 4.47837 10.2877 4.47837C 13.717 4.47837 16.4007 7.16539 16.4007 10.5988C 16.2516 13.8829 13.5679 16.57 10.2877 16.57Z"/>
<path id="path4_fill" d="M -4.55009e-06 0L 2.98194 0L 2.98194 5.37404L 7.30577 0L 10.8841 0L 5.36751 7.01611L 11.3314 15.6743L 7.90216 15.6743L 3.13105 8.65817L 3.13105 15.6743L 0.149102 15.6743L 0.149102 0L -4.55009e-06 0Z"/>
<path id="path5_fill" d="M 4.55009e-06 0L 2.98195 0L 2.98195 5.97115L 8.20036 5.97115L 8.20036 0L 11.1823 0L 11.1823 15.6743L 8.20036 15.6743L 8.20036 8.80745L 2.98195 8.80745L 2.98195 15.6743L 4.55009e-06 15.6743L 4.55009e-06 0Z"/>
<path id="path6_fill" d="M 6.11299 0L 9.09494 0L 15.0588 15.6743L 12.0769 15.6743L 10.8841 12.3901L 4.47292 12.3901L 3.13104 15.6743L 2.27505e-06 15.6743L 6.11299 0ZM 7.60397 4.17981L 5.5166 9.55384L 9.69132 9.55384L 7.60397 4.17981Z"/>
<path id="path7_fill" d="M -4.55009e-06 0L 3.13105 0C 4.92022 0 6.113 0.149278 6.85848 0.447835C 7.60397 0.746393 8.20035 1.34351 8.64765 1.94062C 9.09494 2.53774 9.39313 3.58269 9.39313 4.47836C 9.39313 5.52332 9.09494 6.41899 8.64765 7.01611C 8.20035 7.7625 7.45487 8.21033 6.41119 8.65817L 10.1386 15.6743L 6.85848 15.6743L 3.28013 8.95673L 2.98194 8.95673L 2.98194 15.6743L -4.55009e-06 15.6743L -4.55009e-06 0ZM 2.98194 6.12043L 3.87654 6.12043C 4.77112 6.12043 5.51661 5.97115 5.81481 5.67259C 6.113 5.37404 6.41119 5.07548 6.41119 4.47836C 6.41119 4.17981 6.26209 3.88125 6.113 3.58269C 5.9639 3.28413 5.6657 3.13486 5.36751 2.98558C 5.06931 2.8363 4.47292 2.8363 3.72743 2.8363L 2.98194 2.8363L 2.98194 6.12043Z"/>
<path id="path8_fill" d="M 9.10018e-06 0L 2.98196 0L 2.98196 5.37404L 7.30577 0L 10.8841 0L 5.3675 7.01611L 11.3314 15.6743L 7.75307 15.6743L 2.98196 8.65817L 2.98196 15.6743L 9.10018e-06 15.6743L 9.10018e-06 0Z"/>
<path id="path9_fill" d="M 8.20035 1.13891e-06C 10.4368 1.13891e-06 12.3751 0.746393 13.8661 2.38846C 15.5061 4.03053 16.2516 5.97116 16.2516 8.21034C 16.2516 10.4495 15.5061 12.3901 13.8661 14.0322C 12.226 15.6743 10.4368 16.4207 8.20035 16.4207C 5.81479 16.4207 3.87654 15.6743 2.38556 14.0322C 0.894589 12.3901 -4.55009e-06 10.4495 -4.55009e-06 8.21034C -4.55009e-06 6.71755 0.298186 5.37404 1.04367 4.03053C 1.78916 2.8363 2.83284 1.79135 4.02562 1.04495C 5.3675 0.447836 6.70938 1.13891e-06 8.20035 1.13891e-06ZM 8.05127 2.98558C 6.56029 2.98558 5.36751 3.43341 4.32383 4.47837C 3.28015 5.52332 2.83286 6.71755 2.83286 8.35962C 2.83286 10.151 3.42923 11.4945 4.77111 12.5394C 5.66569 13.2858 6.85849 13.7337 8.05127 13.7337C 9.54224 13.7337 10.735 13.2858 11.6296 12.2409C 12.6733 11.1959 13.1206 10.0017 13.1206 8.50889C 13.1206 7.01611 12.6733 5.82188 11.6296 4.77692C 10.5859 3.73197 9.54224 2.98558 8.05127 2.98558Z"/>
<path id="path10_fill" d="M -4.55009e-06 0L 3.13105 0L 7.00757 11.1959L 11.0332 0L 14.1642 0L 8.49854 15.6743L 5.6657 15.6743L -4.55009e-06 0Z"/>
<path id="path11_fill" d="M 0.894584 2.27781e-06L 0.894584 4.9262L 5.8148 2.27781e-06L 5.8148 6.56827L 4.92021 6.56827L 4.92021 1.64207L 0.149097 6.71755L 2.27505e-06 6.71755L 2.27505e-06 0.149279L 0.894584 0.149279L 0.894584 2.27781e-06Z"/>
<path id="path12_fill" d="M 4.77112 3.43341L 0.894582 3.43341L 0.894582 6.56827L 0 6.56827L 0 2.27781e-06L 0.894582 2.27781e-06L 0.894582 2.68702L 4.77112 2.68702L 4.77112 2.27781e-06L 5.6657 2.27781e-06L 5.6657 6.56827L 4.77112 6.56827L 4.77112 3.43341Z"/>
<path id="path13_fill" d="M 0.149097 2.27781e-06L 4.47292 2.27781e-06L 4.47292 0.746396L 2.68375 0.746396L 2.68375 6.56827L 1.78917 6.56827L 1.78917 0.746396L 2.27505e-06 0.746396L 2.27505e-06 2.27781e-06L 0.149097 2.27781e-06Z"/>
<path id="path14_fill" d="M 5.8148 4.47837L 6.56028 4.9262C 6.26209 5.37404 6.11299 5.82188 5.8148 6.12043C 5.5166 6.41899 5.21841 6.56827 4.77111 6.71755C 4.32382 6.86683 3.87653 6.86683 3.42924 6.86683C 2.38556 6.86683 1.49097 6.56827 0.894585 5.82187C 0.298196 5.07548 -2.27505e-06 4.32909 -2.27505e-06 3.43341C -2.27505e-06 2.53774 0.298192 1.79135 0.745485 1.19423C 1.34187 0.298559 2.23646 2.27781e-06 3.42924 2.27781e-06C 4.62202 2.27781e-06 5.5166 0.447835 6.11299 1.34351C 6.56028 1.94062 6.85847 2.68702 6.85847 3.58269L 0.894585 3.58269C 0.894585 4.32909 1.19278 4.9262 1.64007 5.52331C 2.08736 6.12043 2.68375 6.26971 3.42924 6.26971C 3.72744 6.26971 4.02563 6.26971 4.47292 6.12043C 4.77111 5.97115 5.06931 5.82188 5.21841 5.6726C 5.21841 5.22476 5.5166 4.9262 5.8148 4.47837ZM 5.8148 2.68702C 5.6657 2.23918 5.5166 1.94063 5.36751 1.64207C 5.21841 1.34351 4.92021 1.19423 4.47292 1.04495C 4.17472 0.895671 3.72743 0.746397 3.28014 0.746397C 2.68375 0.746397 2.08736 0.895672 1.64007 1.34351C 1.34188 1.64207 1.04368 2.08991 0.894585 2.68702L 5.8148 2.68702Z"/>
<path id="path15_fill" d="M -4.55009e-06 0.149281L 0.894589 0.149281L 0.894589 1.34351C 1.19278 0.895674 1.64007 0.597116 2.08736 0.298558C 2.53465 0 2.98194 -1.13891e-06 3.57833 -1.13891e-06C 4.47292 -1.13891e-06 5.3675 0.298558 5.96389 1.04495C 6.56028 1.79135 7.00758 2.53774 7.00758 3.43341C 7.00758 4.47836 6.70938 5.22476 5.96389 5.97115C 5.3675 6.71755 4.47292 7.01611 3.57833 7.01611C 2.98194 7.01611 2.53465 6.86683 2.08736 6.71755C 1.64007 6.56827 1.19278 6.12043 0.894589 5.6726L 0.894589 9.25529L -4.55009e-06 9.25529L -4.55009e-06 0.149281ZM 3.42924 0.895676C 2.68375 0.895676 2.08737 1.19423 1.64008 1.64207C 1.19278 2.08991 0.894589 2.8363 0.894589 3.58269C 0.894589 4.03053 1.04368 4.47836 1.19278 4.9262C 1.49097 5.37404 1.78917 5.6726 2.08736 5.82188C 2.53465 6.12044 2.98195 6.12044 3.42924 6.12044C 3.87653 6.12044 4.32382 5.97116 4.77112 5.82188C 5.21841 5.52332 5.5166 5.22476 5.6657 4.77692C 5.8148 4.32909 5.96389 3.88125 5.96389 3.43341C 5.96389 2.98558 5.8148 2.53774 5.6657 2.08991C 5.5166 1.64207 5.06931 1.34351 4.77112 1.04495C 4.47292 0.746394 3.87653 0.895676 3.42924 0.895676Z"/>
<path id="path16_fill" d="M 4.77112 3.43341L 0.894586 3.43341L 0.894586 6.56827L 4.55009e-06 6.56827L 4.55009e-06 2.27781e-06L 0.894586 2.27781e-06L 0.894586 2.68702L 4.77112 2.68702L 4.77112 2.27781e-06L 5.6657 2.27781e-06L 5.6657 6.56827L 4.77112 6.56827L 4.77112 3.43341Z"/>
<path id="path17_fill" d="M 5.8148 4.47837L 6.56028 4.9262C 6.26209 5.37404 6.11299 5.82188 5.8148 6.12043C 5.5166 6.41899 5.21841 6.56827 4.77112 6.71755C 4.32383 6.86683 3.87653 6.86683 3.42924 6.86683C 2.38556 6.86683 1.49098 6.56827 0.894589 5.82187C 0.298199 5.07548 -4.55009e-06 4.32909 -4.55009e-06 3.43341C -4.55009e-06 2.53774 0.29819 1.79135 0.745482 1.19423C 1.34187 0.298559 2.23646 2.27781e-06 3.42924 2.27781e-06C 4.62202 2.27781e-06 5.51661 0.447835 6.113 1.34351C 6.56029 1.94062 6.85848 2.68702 6.85848 3.58269L 0.894589 3.58269C 0.894589 4.32909 1.19278 4.9262 1.64008 5.52331C 2.08737 6.12043 2.68375 6.26971 3.42924 6.26971C 3.72743 6.26971 4.02562 6.26971 4.47292 6.12043C 4.77111 5.97115 5.06931 5.82188 5.2184 5.6726C 5.3675 5.22476 5.5166 4.9262 5.8148 4.47837ZM 5.8148 2.68702C 5.6657 2.23918 5.51661 1.94063 5.36751 1.64207C 5.21841 1.34351 4.92021 1.19423 4.47292 1.04495C 4.17472 0.895671 3.72744 0.746397 3.28014 0.746397C 2.68375 0.746397 2.08737 0.895672 1.64008 1.34351C 1.34188 1.64207 1.04369 2.08991 0.894589 2.68702L 5.8148 2.68702Z"/>
<path id="path18_fill" d="M 0.149102 2.27781e-06L 4.47292 2.27781e-06L 4.47292 0.746396L 2.68375 0.746396L 2.68375 6.56827L 1.78917 6.56827L 1.78917 0.746396L -4.55009e-06 0.746396L -4.55009e-06 2.27781e-06L 0.149102 2.27781e-06Z"/>
<path id="path19_fill" d="M -2.27505e-06 2.27781e-06L 3.28015 2.27781e-06L 3.28015 0.746397L -2.27505e-06 0.746397L -2.27505e-06 2.27781e-06Z"/>
<path id="path20_fill" d="M 7.90216 2.27781e-06L 8.20036 2.27781e-06L 10.4368 6.56827L 9.54223 6.56827L 7.90216 1.64207L 5.36751 6.56827L 5.21841 6.56827L 2.53466 1.79134L 0.894587 6.71755L 4.55009e-06 6.71755L 2.23647 0.149279L 2.53466 0.149279L 5.21841 5.37404L 7.90216 2.27781e-06Z"/>
<path id="path21_fill" d="M 6.85848 0.29856L 6.85848 6.86683L 6.11299 6.86683L 6.11299 5.6726C 5.8148 6.12043 5.3675 6.41899 4.92021 6.71755C 4.47292 6.86683 4.02562 7.01611 3.42923 7.01611C 2.53465 7.01611 1.64007 6.71755 1.04368 5.97116C 0.44729 5.22476 2.27505e-06 4.47837 2.27505e-06 3.43341C 2.27505e-06 2.53774 0.298192 1.64207 1.04368 1.04495C 1.78917 0.447839 2.53465 1.13891e-06 3.42923 1.13891e-06C 4.02562 1.13891e-06 4.47292 0.149281 4.92021 0.29856C 5.3675 0.597118 5.8148 0.895671 6.11299 1.34351L 6.11299 0.149278L 6.85848 0.149278L 6.85848 0.29856ZM 3.42923 1.04495C 2.98194 1.04495 2.53466 1.19423 2.08737 1.34351C 1.64008 1.64207 1.34187 1.94062 1.19277 2.38846C 0.89458 2.8363 0.894584 3.28414 0.894584 3.73197C 0.894584 4.17981 1.04368 4.62764 1.19277 5.07548C 1.34187 5.52331 1.78917 5.82187 2.08737 6.12043C 2.53466 6.41899 2.98194 6.41899 3.42923 6.41899C 3.87653 6.41899 4.32382 6.26971 4.77111 6.12043C 5.21841 5.82187 5.5166 5.52332 5.6657 5.22476C 5.96389 4.77692 5.9639 4.32909 5.9639 3.88125C 5.9639 3.13485 5.6657 2.53774 5.21841 1.94062C 4.77112 1.34351 4.17472 1.04495 3.42923 1.04495Z"/>
<path id="path22_fill" d="M 0.894587 0.746396L 0.894587 6.56827L 4.55009e-06 6.56827L 4.55009e-06 2.27781e-06L 3.28014 2.27781e-06L 3.28014 0.746396L 0.894587 0.746396Z"/>
<path id="path23_fill" d="M 7.00757 0.29856L 7.00757 6.86683L 6.11299 6.86683L 6.11299 5.6726C 5.81479 6.12043 5.36751 6.41899 4.92022 6.71755C 4.47292 6.86683 4.02563 7.01611 3.42924 7.01611C 2.53466 7.01611 1.64007 6.71755 1.04368 5.97116C 0.447287 5.22476 -2.1188e-14 4.47837 -2.1188e-14 3.43341C -2.1188e-14 2.53774 0.29819 1.64207 1.04368 1.04495C 1.78916 0.447839 2.53466 1.13891e-06 3.42924 1.13891e-06C 4.02563 1.13891e-06 4.47292 0.149281 4.92022 0.29856C 5.36751 0.597118 5.81479 0.895671 6.11299 1.34351L 6.11299 0.149278L 7.00757 0.149278L 7.00757 0.29856ZM 3.72743 1.04495C 3.28014 1.04495 2.83285 1.19423 2.38556 1.34351C 1.93826 1.64207 1.64007 1.94062 1.49097 2.38846C 1.19278 2.8363 1.19278 3.28414 1.19278 3.73197C 1.19278 4.17981 1.34188 4.62764 1.49097 5.07548C 1.64007 5.52331 2.08736 5.82187 2.38556 6.12043C 2.83285 6.41899 3.28014 6.41899 3.72743 6.41899C 4.17473 6.41899 4.62202 6.26971 5.06931 6.12043C 5.5166 5.82187 5.8148 5.52332 5.96389 5.22476C 6.26209 4.77692 6.26208 4.32909 6.26208 3.88125C 6.26208 3.13485 5.96389 2.53774 5.5166 1.94062C 5.0693 1.34351 4.32382 1.04495 3.72743 1.04495Z"/>
<path id="path24_fill" d="M 1.78917 2.8363L 2.23646 2.8363C 2.53465 2.8363 2.83285 2.68702 2.98195 2.53774C 3.28014 2.38846 3.28015 2.0899 3.28015 1.79134C 3.28015 1.49279 3.13104 1.19423 2.98195 1.04495C 2.83285 0.895671 2.53466 0.746397 2.08736 0.746397C 1.64007 0.746397 1.19278 0.895672 0.745485 1.34351L 0.298199 0.746397C 0.894589 0.29856 1.49097 2.27781e-06 2.23646 2.27781e-06C 2.83285 2.27781e-06 3.28014 0.14928 3.57834 0.447838C 4.02563 0.746395 4.17473 1.19423 4.17473 1.79134C 4.17473 2.53774 3.87654 2.98558 3.28015 3.13486C 4.02563 3.43341 4.47292 4.03053 4.47292 4.9262C 4.47292 5.52332 4.32382 5.97116 3.87653 6.41899C 3.57833 6.86683 2.98195 7.0161 2.23646 7.0161C 1.34187 7.0161 0.596387 6.71755 -2.27505e-06 6.12043L 0.59639 5.52331C 1.04368 5.97115 1.49097 6.26971 2.23646 6.26971C 2.68375 6.26971 2.98195 6.12043 3.28015 5.97116C 3.57834 5.6726 3.57834 5.37404 3.57834 5.07548C 3.57834 4.77692 3.42924 4.47837 3.28015 4.17981C 3.13105 3.88125 2.68375 3.88125 2.38555 3.88125L 1.78917 3.88125L 1.78917 2.8363Z"/>
<path id="path25_fill" d="M 0.894582 2.27781e-06L 0.894582 4.9262L 5.8148 2.27781e-06L 5.8148 6.56827L 4.92022 6.56827L 4.92022 1.64207L 0.149095 6.56827L 0 6.56827L 0 2.27781e-06L 0.894582 2.27781e-06Z"/>
<path id="path26_fill" d="M 4.77112 3.43341L 0.89458 3.43341L 0.89458 6.56827L -2.27505e-06 6.56827L -2.27505e-06 2.27781e-06L 0.89458 2.27781e-06L 0.89458 2.68702L 4.77112 2.68702L 4.77112 2.27781e-06L 5.6657 2.27781e-06L 5.6657 6.56827L 4.77112 6.56827L 4.77112 3.43341Z"/>
<path id="path27_fill" d="M 6.56029 1.64207L 5.8148 2.08991C 5.21841 1.34351 4.47292 0.895675 3.42923 0.895675C 2.68375 0.895675 1.93827 1.19423 1.49098 1.64207C 1.04368 2.08991 0.745489 2.8363 0.745489 3.58269C 0.745489 4.03053 0.894582 4.47836 1.04368 4.9262C 1.19278 5.37404 1.64008 5.6726 2.08737 5.97115C 2.53466 6.26971 2.98195 6.26971 3.57834 6.26971C 4.62202 6.26971 5.3675 5.82188 5.96389 5.07548L 6.70937 5.52332C 6.41118 5.97115 5.96389 6.41899 5.36751 6.56827C 4.77112 6.86683 4.17473 7.01611 3.57834 7.01611C 2.53466 7.01611 1.64007 6.71755 1.04368 5.97115C 0.298193 5.37404 2.27505e-06 4.47837 2.27505e-06 3.58269C 2.27505e-06 2.98558 0.149093 2.38846 0.447288 1.79135C 0.745482 1.19423 1.19278 0.746392 1.78917 0.447834C 2.38556 0.149277 2.98195 -1.13891e-06 3.72744 -1.13891e-06C 4.17473 -1.13891e-06 4.62201 2.28004e-06 4.92021 0.149281C 5.3675 0.29856 5.66569 0.447835 5.96389 0.746393C 6.11298 1.04495 6.41119 1.19423 6.56029 1.64207Z"/>
<path id="path28_fill" d="M 7.00758 0.29856L 7.00758 6.86683L 6.11299 6.86683L 6.11299 5.6726C 5.81479 6.12043 5.3675 6.41899 4.9202 6.71755C 4.47291 6.86683 4.02562 7.01611 3.42923 7.01611C 2.53465 7.01611 1.64008 6.71755 1.04369 5.97116C 0.447297 5.22476 9.10018e-06 4.47837 9.10018e-06 3.43341C 9.10018e-06 2.53774 0.298199 1.64207 1.04369 1.04495C 1.78917 0.447839 2.53465 1.13891e-06 3.42923 1.13891e-06C 4.02562 1.13891e-06 4.47291 0.149281 4.9202 0.29856C 5.3675 0.597118 5.81479 0.895671 6.11299 1.34351L 6.11299 0.149278L 7.00758 0.149278L 7.00758 0.29856ZM 3.57834 1.04495C 3.13104 1.04495 2.68376 1.19423 2.23647 1.34351C 1.78918 1.64207 1.49097 1.94062 1.34188 2.38846C 1.04368 2.8363 1.04369 3.28414 1.04369 3.73197C 1.04369 4.17981 1.19278 4.62764 1.34188 5.07548C 1.49097 5.52331 1.93827 5.82187 2.23647 6.12043C 2.68376 6.41899 3.13104 6.41899 3.57834 6.41899C 4.02563 6.41899 4.47291 6.26971 4.9202 6.12043C 5.3675 5.82187 5.6657 5.52332 5.8148 5.22476C 6.11299 4.77692 6.11299 4.32909 6.11299 3.88125C 6.11299 3.13485 5.81479 2.53774 5.3675 1.94062C 5.0693 1.34351 4.32382 1.04495 3.57834 1.04495Z"/>
<path id="path29_fill" d="M 4.77112 3.43341L 0.89458 3.43341L 0.89458 6.56827L 9.10018e-06 6.56827L 9.10018e-06 2.27781e-06L 0.89458 2.27781e-06L 0.89458 2.68702L 4.77112 2.68702L 4.77112 2.27781e-06L 5.66569 2.27781e-06L 5.66569 6.56827L 4.77112 6.56827L 4.77112 3.43341Z"/>
<path id="path30_fill" d="M 0.149106 2.27781e-06L 4.47292 2.27781e-06L 4.47292 0.746396L 2.68376 0.746396L 2.68376 6.56827L 1.78916 6.56827L 1.78916 0.746396L -4.2376e-14 0.746396L -4.2376e-14 2.27781e-06L 0.149106 2.27781e-06Z"/>
<path id="path31_fill" d="M 5.8148 4.47837L 6.56028 4.9262C 6.26209 5.37404 6.11299 5.82188 5.8148 6.12043C 5.5166 6.41899 5.21841 6.56827 4.77112 6.71755C 4.32383 6.86683 3.87652 6.86683 3.42923 6.86683C 2.38555 6.86683 1.49097 6.56827 0.89458 5.82187C 0.29819 5.07548 9.10018e-06 4.32909 9.10018e-06 3.43341C 9.10018e-06 2.53774 0.298204 1.79135 0.745496 1.19423C 1.34189 0.298559 2.23645 2.27781e-06 3.42923 2.27781e-06C 4.62201 2.27781e-06 5.5166 0.447835 6.11299 1.34351C 6.56028 1.94062 6.85847 2.68702 6.85847 3.58269L 0.89458 3.58269C 0.89458 4.32909 1.19277 4.9262 1.64007 5.52331C 2.08736 5.97115 2.68374 6.26971 3.42923 6.26971C 3.72743 6.26971 4.02564 6.26971 4.47293 6.12043C 4.77112 5.97115 5.06932 5.82188 5.21842 5.6726C 5.36751 5.52332 5.6657 4.9262 5.8148 4.47837ZM 5.8148 2.68702C 5.6657 2.23918 5.5166 1.94063 5.3675 1.64207C 5.2184 1.34351 4.92022 1.19423 4.47293 1.04495C 4.17474 0.895671 3.72744 0.746397 3.28015 0.746397C 2.68376 0.746397 2.08736 0.895672 1.64007 1.34351C 1.34187 1.64207 1.04368 2.08991 0.89458 2.68702L 5.8148 2.68702Z"/>
<path id="path32_fill" d="M 0.149093 2.27781e-06L 1.19277 2.27781e-06L 2.98196 2.38846L 4.77112 2.27781e-06L 5.8148 2.27781e-06L 3.57834 3.13486L 6.11299 6.56827L 5.06931 6.56827L 2.98196 3.73197L 1.04369 6.56827L 9.10018e-06 6.56827L 2.53466 3.13486L 0.149093 2.27781e-06Z"/>
<path id="path33_fill" d="M 4.77111 3.43341L 0.894589 3.43341L 0.894589 6.56827L -4.55009e-06 6.56827L -4.55009e-06 2.27781e-06L 0.894589 2.27781e-06L 0.894589 2.68702L 4.77111 2.68702L 4.77111 2.27781e-06L 5.6657 2.27781e-06L 5.6657 6.56827L 4.77111 6.56827L 4.77111 3.43341Z"/>
<path id="path34_fill" d="M 0.894589 2.27781e-06L 0.894589 4.9262L 5.81481 2.27781e-06L 5.81481 6.56827L 4.92021 6.56827L 4.92021 1.64207L 0.149102 6.56827L -4.55009e-06 6.56827L -4.55009e-06 2.27781e-06L 0.894589 2.27781e-06Z"/>
<path id="path35_fill" d="M -9.10018e-06 2.27781e-06L 0.894584 2.27781e-06L 0.894584 2.8363L 4.02564 2.27781e-06L 5.2184 2.27781e-06L 1.78918 2.98558L 5.36751 6.56827L 4.17472 6.56827L 1.19277 3.43341L 0.894584 3.73197L 0.894584 6.56827L -9.10018e-06 6.56827L -9.10018e-06 2.27781e-06Z"/>
<path id="path36_fill" d="M 0.894593 2.27781e-06L 0.894593 4.9262L 5.81479 2.27781e-06L 5.81479 6.56827L 4.92022 6.56827L 4.92022 1.64207L 0.149106 6.56827L -4.2376e-14 6.56827L -4.2376e-14 2.27781e-06L 0.894593 2.27781e-06Z"/>
<path id="path37_fill" d="M 42.6567 37.3262C 42.5076 36.8784 42.2094 36.5798 41.7621 36.4306C 40.7185 35.8334 39.8239 35.2363 38.9293 34.4899C 37.1401 33.1464 38.0347 33.1464 38.482 32.4C 40.7185 28.9666 41.9112 24.9361 41.9112 20.4577C 41.613 9.2618 32.5181 0.155793 21.3358 0.00651446C 9.25892 -0.292043 -0.432408 9.70964 0.0148838 21.8012C 0.462176 32.5493 8.51343 39.864 19.0993 41.6553C 20.143 41.8046 22.0813 41.8046 23.125 41.6553C 24.1687 41.506 25.0632 41.3568 26.1069 41.3568C 28.4925 41.2075 30.5798 42.4017 32.8163 42.4017C 35.0528 42.4017 36.8419 42.1031 38.9293 41.3568C 40.1221 40.7596 43.104 38.9683 42.6567 37.3262Z"/>
<path id="path38_fill" d="M 18.5466 26.1238C 16.012 25.9745 13.4773 25.3774 11.2409 24.3325C 9.00441 23.2875 7.06615 21.944 5.27698 20.1526C 3.18962 18.0627 1.69864 15.525 0.65496 12.838C 0.0585705 11.0466 -0.388722 8.95673 0.505862 7.16538C 0.804057 6.41899 1.40045 5.6726 1.84774 4.9262C 3.18961 3.28413 4.68059 1.64207 6.61885 0.746394C 7.21524 0.447837 7.96073 0 8.55712 0C 10.3463 0 8.40802 4.62764 9.4517 5.82187C 12.4337 9.10601 13.7755 12.5394 16.3102 16.1221C 16.6084 16.4207 18.9939 20.0034 20.0376 21.0483C 21.3795 22.6904 22.8705 24.0339 24.8087 25.2281C 25.256 25.5267 26.8961 26.2731 27.3434 26.1238C 25.8524 26.2731 20.0376 26.2731 18.5466 26.1238Z"/>
<path id="path39_fill" d="M 8.94584 8.5089C 6.70938 11.0466 2.08736 11.3452 1.13752e-06 10.7481C 0.894585 11.0466 2.83285 7.01611 3.13104 6.41899C 3.87653 4.9262 3.72743 3.28414 3.57833 1.64207C 3.57833 1.04495 3.42924 0.597115 3.28014 -5.69454e-07C 7.75306 2.23918 9.09494 8.35962 8.94584 8.5089Z"/>
<path id="path40_fill" d="M 7.75306 0C 7.90216 0.447837 8.20035 1.19423 8.20035 1.64207C 8.20035 1.79135 8.20036 1.94062 8.05126 2.0899C 8.05126 2.23918 7.90216 2.23918 7.75306 2.38846C 6.85848 2.8363 5.8148 3.88125 4.92021 4.32909C 4.02563 4.77692 2.98195 4.62765 2.08736 4.47837C 1.34188 4.47837 0.745486 4.17981 -1.13752e-06 4.03053C 1.64007 4.62765 7.60397 1.34351 7.75306 0Z"/>
<path id="path41_fill" d="M 35.7834 25.8252C 32.9505 28.5123 28.6267 27.6166 25.1975 26.4224C 19.5318 24.4817 14.1642 20.899 11.6296 15.8236C 11.1823 15.0772 10.8841 14.3308 10.4368 13.4351C 8.94584 10.4495 7.15667 1.64207 2.83285 4.62765C 1.64007 5.52332 0.59639 6.86683 2.84381e-07 8.06106C 0.745487 4.77692 5.8148 0.149279 10.735 1.06069e-14C 12.3751 1.06069e-14 14.0152 0.149279 15.5061 0.746394C 16.5498 1.19423 17.5935 1.79135 18.4881 2.23918C 19.6809 2.98558 20.8736 3.73197 22.2155 4.32909C 25.1975 5.6726 28.7758 6.41899 32.0559 5.52332C 32.3541 5.37404 32.6523 5.37404 32.9505 5.22476C 33.9942 4.77692 34.8888 4.32909 35.4852 3.43341C 35.9325 4.77692 36.0816 6.26971 36.2307 7.7625C 36.3798 12.3901 34.8888 16.57 32.205 20.0034C 31.6086 20.7498 31.6086 21.6454 32.9505 22.8397C 33.8451 23.4368 36.3798 25.2281 35.7834 25.8252Z"/>
<path id="path42_fill" d="M 1.49204 4.17683C 2.31607 4.17683 2.98407 3.24181 2.98407 2.08841C 2.98407 0.935014 2.31607 2.27619e-06 1.49204 2.27619e-06C 0.668007 2.27619e-06 0 0.935014 0 2.08841C 0 3.24181 0.668007 4.17683 1.49204 4.17683Z"/>
<path id="path43_fill" d="M 18.1899 0.0218279C 20.8736 -0.127451 23.7065 0.469665 25.4957 2.41029C 26.9866 3.90308 27.4339 6.29154 26.9866 8.23216C 26.6884 9.87423 25.3466 13.3076 23.2592 12.5613C 21.6191 12.1134 20.4263 10.7699 18.9354 10.0235C 16.2516 8.53072 13.2697 7.78433 10.1386 7.63505C 7.15667 7.63505 4.47292 9.12784 2.23646 10.9192C 1.64007 11.367 1.19278 11.8149 0.596389 12.2627C 0.447292 12.412 0.149097 12.5613 -5.297e-15 12.8598C 0.447292 12.412 0.447292 11.6656 0.596389 11.2177C 2.53465 5.69442 8.05126 1.81317 13.5679 0.469663C 15.2079 0.320384 16.6989 0.171107 18.1899 0.0218279Z"/>
<path id="path44_fill" d="M 5.6657 1.49279C 5.21841 0.895674 3.87653 0.298558 3.57834 5.69454e-07C 4.17472 0.447837 4.47292 0.597114 4.77112 1.04495C 5.36751 1.79135 5.96389 2.8363 6.26209 3.88125C 6.85848 5.82188 6.41119 8.35962 5.21841 10.0017C 4.92021 10.4495 4.32382 10.8974 3.72743 11.0466C 3.13104 11.1959 2.53466 10.8974 1.93827 10.5988C 1.19278 10.3002 0.596389 10.0017 -5.68761e-07 9.55385C 1.04368 10.3002 2.08736 11.0466 3.28014 11.4945C 5.5166 12.2409 6.85848 8.80745 7.00757 7.16538C 7.60396 4.03053 6.56028 2.68702 5.6657 1.49279Z"/>
</defs>
</svg>
