<svg width="62" height="44" viewBox="0 0 62 44" version="1.1" xmlns="http://www.w3.org/2000/svg" xmlns:xlink="http://www.w3.org/1999/xlink">
<title>icon</title>
<desc>Created using Figma</desc>
<g id="Canvas" transform="translate(-1743 635)">
<g id="icon">
<g id="Vector">
<use xlink:href="#path0_fill" transform="translate(1743 -635)" fill="#007CB1"/>
</g>
<g id="Vector">
<use xlink:href="#path1_fill" transform="translate(1747.65 -615.293)" fill="#007CB1"/>
</g>
<g id="Vector">
<use xlink:href="#path2_fill" transform="translate(1751.54 -615.293)" fill="#007CB1"/>
</g>
<g id="Vector">
<use xlink:href="#path3_fill" transform="translate(1755.43 -615.293)" fill="#007CB1"/>
</g>
<g id="Vector">
<use xlink:href="#path4_fill" transform="translate(1754.71 -599.323)" fill="#007CB1"/>
</g>
<g id="Vector">
<use xlink:href="#path5_fill" transform="translate(1789.68 -599.323)" fill="#007CB1"/>
</g>
</g>
</g>
<defs>
<path id="path0_fill" d="M 61.9454 22.0633C 61.9324 22.0158 61.935 21.9657 61.9169 21.9236C 61.8649 21.7944 61.7869 21.6784 61.6908 21.5809C 61.6908 21.5809 61.6908 21.5783 61.6882 21.5783L 49.6613 9.43045C 49.4665 9.23541 49.204 9.12471 48.9286 9.12471L 41.0198 9.11944L 41.0198 4.09321C 41.0198 1.83707 39.2115 3.06657e-07 36.9849 3.06657e-07L 4.04015 3.06657e-07C 1.81612 3.06657e-07 0.00259817 1.83707 0.00259817 4.09321L -4.49102e-09 34.4852C -4.49102e-09 36.7413 1.81092 38.5784 4.03755 38.5784L 8.22319 38.5784C 8.71944 41.6516 11.354 44 14.5211 44C 17.6883 44 20.3202 41.649 20.8191 38.5784L 43.3322 38.5784C 43.8284 41.6516 46.463 44 49.6275 44C 52.7947 44 55.4266 41.649 55.9255 38.5784L 60.9296 38.5784C 61.5037 38.5784 61.9662 38.1066 61.9688 37.5268L 62 22.3295C 61.9974 22.2346 61.9688 22.1502 61.9454 22.0633ZM 58.4405 21.2726L 52.1478 21.2726L 52.8311 19.4935C 53.0389 18.9505 52.7765 18.339 52.2387 18.1282C 51.7009 17.9173 51.1007 18.1835 50.8902 18.7291L 49.9133 21.2726L 41.1134 21.2726L 41.1134 11.228L 48.5025 11.2359L 58.4405 21.2726ZM 4.04015 2.10854L 36.9901 2.10854C 38.0683 2.10854 38.9439 2.9994 38.9439 4.09321L 38.9439 10.1711C 38.9439 10.3081 38.9803 10.4399 39.0348 10.5612L 39.0348 26.4938L 2.08113 26.4938L 2.08113 15.7693L 20.3722 15.7693L 20.3722 16.8657C 20.3644 17.9753 21.0191 18.4656 21.4063 18.6553C 21.6505 18.7766 21.9051 18.8372 22.1597 18.8372C 22.7157 18.8372 23.1237 18.5631 23.3783 18.3575L 30.014 13.1178C 30.5466 12.6934 30.8428 12.1478 30.8428 11.5785C 30.8454 11.0409 30.5882 10.5401 30.1231 10.1658C 27.8601 8.3551 25.5841 6.55757 23.3029 4.7653C 22.4196 4.07739 21.1465 4.32515 20.6372 5.26345C 20.4787 5.55864 20.3904 5.92237 20.3826 6.34935C 20.3722 6.7078 20.3722 7.06361 20.3722 7.42207L 2.08113 7.42207L 2.08113 4.09584C 2.08373 2.9994 2.95931 2.10854 4.04015 2.10854ZM 22.4507 7.87277C 22.4481 7.51959 22.4481 7.16377 22.4507 6.76842C 24.4877 8.36828 26.5195 9.97604 28.5538 11.5996L 22.4507 16.4176L 22.4533 14.715C 22.4533 14.1325 21.9857 13.6607 21.4141 13.6607L 2.08373 13.6607L 2.08373 9.52797L 21.4141 9.52797C 21.9883 9.52797 22.4533 9.05619 22.4533 8.4737L 22.4507 7.87277ZM 14.5211 41.8915C 12.149 41.8915 10.2186 39.9305 10.2186 37.5241C 10.2186 35.1178 12.149 33.1568 14.5211 33.1568C 16.8933 33.1568 18.8237 35.1178 18.8237 37.5241C 18.8237 39.9305 16.8933 41.8915 14.5211 41.8915ZM 14.5211 31.0483C 11.354 31.0483 8.72204 33.3993 8.22319 36.4699L 4.03755 36.4699C 2.95931 36.4699 2.08113 35.579 2.08113 34.4852L 2.08113 28.6024L 39.0322 28.6024L 39.0322 36.4699L 20.8191 36.4699C 20.3202 33.3967 17.6857 31.0483 14.5211 31.0483ZM 49.6249 41.8915C 47.2528 41.8915 45.325 39.9305 45.325 37.5241C 45.325 35.1178 47.2528 33.1568 49.6249 33.1568C 51.9971 33.1568 53.9275 35.1178 53.9275 37.5241C 53.9275 39.9305 51.9997 41.8915 49.6249 41.8915ZM 55.9229 36.4699C 55.4266 33.3967 52.7921 31.0483 49.6249 31.0483C 46.4604 31.0483 43.8284 33.3993 43.3296 36.4699L 41.1108 36.4699L 41.1108 23.3811L 59.9137 23.3811L 59.8877 36.4699L 55.9229 36.4699Z"/>
<path id="path1_fill" d="M 0.997695 2.0242C 1.54871 2.0242 1.99539 1.57107 1.99539 1.0121C 1.99539 0.453133 1.54871 0 0.997695 0C 0.446683 0 0 0.453133 0 1.0121C 0 1.57107 0.446683 2.0242 0.997695 2.0242Z"/>
<path id="path2_fill" d="M 0.997695 2.0242C 1.54871 2.0242 1.99539 1.57107 1.99539 1.0121C 1.99539 0.453133 1.54871 0 0.997695 0C 0.446683 0 0 0.453133 0 1.0121C 0 1.57107 0.446683 2.0242 0.997695 2.0242Z"/>
<path id="path3_fill" d="M 0.997695 2.0242C 1.54871 2.0242 1.99539 1.57107 1.99539 1.0121C 1.99539 0.453133 1.54871 0 0.997695 0C 0.446683 0 0 0.453133 0 1.0121C 0 1.57107 0.446683 2.0242 0.997695 2.0242Z"/>
<path id="path4_fill" d="M 1.82131 3.69522C 2.8272 3.69522 3.64263 2.86801 3.64263 1.84761C 3.64263 0.827201 2.8272 -2.17173e-06 1.82131 -2.17173e-06C 0.815429 -2.17173e-06 0 0.827201 0 1.84761C 0 2.86801 0.815429 3.69522 1.82131 3.69522Z"/>
<path id="path5_fill" d="M 1.82131 3.69522C 2.82719 3.69522 3.64263 2.86801 3.64263 1.84761C 3.64263 0.827201 2.82719 -2.17173e-06 1.82131 -2.17173e-06C 0.815428 -2.17173e-06 2.2994e-06 0.827201 2.2994e-06 1.84761C 2.2994e-06 2.86801 0.815428 3.69522 1.82131 3.69522Z"/>
</defs>
</svg>
