<svg width="56" height="44" viewBox="0 0 56 44" version="1.1" xmlns="http://www.w3.org/2000/svg" xmlns:xlink="http://www.w3.org/1999/xlink">
<title>icon</title>
<desc>Created using Figma</desc>
<g id="Canvas" transform="translate(-2564 635)">
<g id="icon">
<g id="Group">
<g id="Vector">
<use xlink:href="#path0_fill" transform="translate(2595.76 -619.941)" fill="#007CB1"/>
</g>
<g id="Vector">
<use xlink:href="#path1_fill" transform="translate(2564 -635)" fill="#007CB1"/>
</g>
</g>
</g>
</g>
<defs>
<path id="path0_fill" d="M 5.88235 12.4706L 5.88235 19.5294C 3.76471 19.0588 2.11765 17.6471 2.11765 16C 2.11765 15.5294 1.64706 15.0588 1.17647 15.0588C 0.705882 15.0588 0.235295 15.5294 0.235295 16C 0.235295 18.8235 2.58824 20.9412 5.88235 21.4118L 5.88235 22.1176C 5.88235 22.5882 6.35294 23.0588 6.82353 23.0588C 7.29412 23.0588 7.7647 22.5882 7.7647 22.1176L 7.7647 21.4118C 11.0588 21.1765 13.6471 18.8235 13.6471 16C 13.6471 13.1765 11.0588 11.0588 7.7647 10.5882L 7.7647 3.52941C 9.88235 4 11.5294 5.41176 11.5294 7.05882C 11.5294 7.52941 12 8 12.4706 8C 12.9412 8 13.4118 7.52941 13.4118 7.05882C 13.4118 4.23529 11.0588 2.11765 7.7647 1.64706L 7.7647 0.941177C 7.7647 0.470589 7.29412 2.24394e-07 6.82353 2.24394e-07C 6.35294 2.24394e-07 5.88235 0.470589 5.88235 0.941177L 5.88235 1.64706C 2.58824 1.88235 0 4.23529 0 7.05882C 0 9.88235 2.58824 12 5.88235 12.4706ZM 11.7647 16.2353C 11.7647 18.1176 10.1176 19.5294 7.7647 19.7647L 7.7647 12.7059C 9.88235 12.9412 11.7647 14.3529 11.7647 16.2353ZM 5.88235 3.52941L 5.88235 10.5882C 3.76471 10.3529 1.88235 8.70588 1.88235 7.05882C 1.88235 5.41176 3.52941 3.76471 5.88235 3.52941Z"/>
<path id="path1_fill" d="M 0.941177 44L 38.5882 44C 48.2353 44 56 36 56 26.3529C 56 16.7059 48 8.70588 38.3529 8.70588C 37.4118 8.70588 36.7059 8.70588 35.7647 8.94118L 35.7647 6.11765C 35.7647 5.64706 35.2941 5.17647 34.8235 5.17647L 34.1176 5.17647L 34.1176 0.941176C 34.1176 0.470588 33.6471 0 33.1765 0L 0.941177 0C 0.470588 0 0 0.470588 0 0.941176L 0 6.11765C 0 6.82353 0.470588 7.05882 0.941177 7.05882L 1.64706 7.05882L 1.64706 10.3529L 0.941177 10.3529C 0.470588 10.5882 0 10.8235 0 11.5294L 0 16.7059C 0 17.1765 0.470588 17.6471 0.941177 17.6471L 1.64706 17.6471L 1.64706 20.9412L 0.941177 20.9412C 0.470588 20.9412 0 21.4118 0 21.8824L 0 27.0588C 0 27.7647 0.470588 28.2353 0.941177 28.2353L 3.52941 28.2353L 3.52941 31.5294L 2.58824 31.5294C 2.11765 31.5294 1.64706 32 1.64706 32.4706L 1.64706 36.7059L 0.941177 36.7059C 0.470588 36.7059 0 37.1765 0 37.6471L 0 42.8235C 0 43.5294 0.470588 44 0.941177 44ZM 1.88235 42.1176L 1.88235 38.8235L 2.58824 38.8235L 25.8824 38.8235C 27.2941 40.2353 28.7059 41.4118 30.5882 42.1176L 1.88235 42.1176ZM 54.3529 26.3529C 54.3529 35.0588 47.2941 42.1176 38.5882 42.1176C 29.8824 42.1176 22.8235 35.0588 22.8235 26.3529C 22.8235 17.6471 29.8824 10.5882 38.5882 10.5882C 47.2941 10.5882 54.3529 17.6471 54.3529 26.3529ZM 1.88235 15.7647L 1.88235 12.4706L 2.58824 12.4706L 27.7647 12.4706C 26.5882 13.4118 25.4118 14.5882 24.4706 15.7647L 2.58824 15.7647L 1.88235 15.7647ZM 1.88235 1.88235L 32.4706 1.88235L 32.4706 5.17647L 2.58824 5.17647L 1.88235 5.17647L 1.88235 1.88235ZM 3.52941 7.05882L 33.1765 7.05882L 33.8824 7.05882L 33.8824 9.41176C 32.7059 9.64706 31.7647 10.1176 30.5882 10.5882L 30.3529 10.5882L 3.52941 10.5882L 3.52941 7.05882ZM 3.52941 17.6471L 23.2941 17.6471C 22.8235 18.5882 22.1176 19.7647 21.8824 20.9412L 3.52941 20.9412L 3.52941 17.6471ZM 1.88235 22.8235L 2.58824 22.8235L 21.1765 22.8235C 20.9412 24 20.9412 24.9412 20.9412 26.1176L 4.47059 26.1176L 1.88235 26.1176L 1.88235 22.8235ZM 5.41176 28.2353L 21.1765 28.2353C 21.4118 29.4118 21.4118 30.5882 21.8824 31.5294L 5.41176 31.5294L 5.41176 28.2353ZM 3.52941 33.4118L 4.23529 33.4118L 22.3529 33.4118C 22.8235 34.5882 23.5294 35.7647 24.2353 36.7059L 3.52941 36.7059L 3.52941 33.4118Z"/>
</defs>
</svg>
