<svg width="41" height="44" viewBox="0 0 41 44" version="1.1" xmlns="http://www.w3.org/2000/svg" xmlns:xlink="http://www.w3.org/1999/xlink">
<title>icon</title>
<desc>Created using Figma</desc>
<g id="Canvas" transform="translate(-2987 635)">
<g id="icon">
<g id="Vector">
<use xlink:href="#path0_fill" transform="translate(3008.26 -635)" fill="#007CB1"/>
</g>
<g id="Vector">
<use xlink:href="#path1_fill" transform="translate(2987 -616.125)" fill="#007CB1"/>
</g>
<g id="Vector">
<use xlink:href="#path2_fill" transform="translate(2990.93 -629.134)" fill="#007CB1"/>
</g>
<g id="Vector">
<use xlink:href="#path3_fill" transform="translate(3000.85 -620.481)" fill="#007CB1"/>
</g>
<g id="Vector">
<use xlink:href="#path4_fill" transform="translate(2989.33 -630.325)" fill="#007CB1"/>
</g>
</g>
</g>
<defs>
<path id="path0_fill" d="M 10.9806 0L 4.69953 0C 4.0669 0 3.56984 0.49445 3.56984 1.12375L 3.56984 9.48444L 2.07864 9.48444C 0.948944 9.48444 -6.89511e-07 10.3834 -6.89511e-07 11.5072C -6.89511e-07 12.0915 0.225939 12.6309 0.632629 12.9905L 6.41667 18.3845C 7.23005 19.1037 8.45012 19.1037 9.21831 18.3845L 14.9572 12.9905C 15.7705 12.2264 15.8157 10.9228 15.0475 10.1137C 14.6409 9.70919 14.1438 9.48444 13.5563 9.48444L 12.0651 9.48444L 12.0651 1.12375C 12.1103 0.49445 11.6133 0 10.9806 0ZM 13.1045 11.7319L 7.86268 16.6315L 2.62089 11.7319L 4.69953 11.7319C 5.33216 11.7319 5.82923 11.2375 5.82923 10.6082L 5.82923 2.2475L 9.85094 2.2475L 9.85094 10.6082C 9.85094 11.2375 10.348 11.7319 10.9806 11.7319L 13.1045 11.7319Z"/>
<path id="path1_fill" d="M 38.8875 0.40823L 38.8423 0.363279C 37.3511 -0.310971 35.6339 -0.0412704 34.4591 1.12743L 26.506 8.90377C 25.9186 7.42042 24.5177 6.43153 22.891 6.43153L 8.06939 6.43153C 6.21669 6.43153 4.45437 7.10578 3.09873 8.31942L 0.387463 10.7467C -0.0644149 11.1513 -0.15479 11.8705 0.297088 12.32C 0.748966 12.7695 1.42678 12.8594 1.87866 12.4099C 1.87866 12.4099 1.87866 12.4099 1.92385 12.3649L 4.63512 9.93762C 5.58406 9.08357 6.84932 8.58912 8.11458 8.58912L 22.9362 8.58912C 23.8399 8.58912 24.5629 9.30832 24.5629 10.2073C 24.5629 11.1063 23.8399 11.8255 22.9362 11.8255L 12.7689 11.8255C 12.1363 11.8255 11.6392 12.32 11.6392 12.9493C 11.6392 13.5786 12.1363 14.073 12.7689 14.073L 22.8458 14.073C 24.1562 14.073 25.3763 13.3988 26.0993 12.32L 35.9954 2.65573C 36.4925 2.16128 37.2155 2.07138 37.8482 2.34108L 37.8933 2.38603C 38.6615 2.74563 39.023 3.68958 38.6615 4.45373C 38.5712 4.63353 38.4808 4.76838 38.3452 4.90323L 26.0541 17.2195C 24.5629 18.7478 22.4843 19.5569 20.3605 19.5569L 11.6392 19.5569C 10.1028 19.5569 8.65683 20.2761 7.75308 21.4898L 6.39744 23.3327C 6.03594 23.8272 6.12631 24.5464 6.62338 24.906C 7.12045 25.2656 7.84345 25.1757 8.20495 24.6812L 9.56059 22.8383C 10.0577 22.209 10.7807 21.8044 11.594 21.8044L 20.3153 21.8044C 23.0717 21.8044 25.6926 20.7256 27.5905 18.7928L 39.8816 6.52143C 41.3728 5.03808 41.3728 2.61078 39.8816 1.12743C 39.6557 0.857729 39.2942 0.58803 38.8875 0.40823Z"/>
<path id="path2_fill" d="M 13.8952 0.337125L 0.338908 13.8221C -0.11297 14.2716 -0.11297 14.9908 0.338908 15.3954C 0.790787 15.7999 1.51379 15.8449 1.92048 15.3954L 15.4768 1.91037C 15.9287 1.46087 15.9287 0.741675 15.4768 0.337125C 15.0701 -0.112375 14.3471 -0.112375 13.8952 0.337125Z"/>
<path id="path3_fill" d="M 3.97653 -3.42941e-07L 3.52465 -3.42941e-07C 1.58157 -3.42941e-07 3.44756e-07 1.57325 3.44756e-07 3.5061L 3.44756e-07 4.7647C 3.44756e-07 6.69755 1.58157 8.2708 3.52465 8.2708L 3.97653 8.2708C 5.9196 8.2708 7.50117 6.69755 7.50117 4.7647L 7.50117 3.5061C 7.50117 1.57325 5.9196 -3.42941e-07 3.97653 -3.42941e-07ZM 5.24178 4.7647C 5.24178 5.4839 4.65434 6.0233 3.97653 6.0233L 3.52465 6.0233C 2.80164 6.0233 2.25939 5.43895 2.25939 4.7647L 2.25939 3.5061C 2.25939 2.7869 2.84683 2.2475 3.52465 2.2475L 3.97653 2.2475C 4.69953 2.2475 5.24178 2.83185 5.24178 3.5061L 5.24178 4.7647Z"/>
<path id="path4_fill" d="M 3.97653 -1.71471e-07L 3.52465 -1.71471e-07C 1.58157 -1.71471e-07 -8.61889e-08 1.57325 -8.61889e-08 3.5061L -8.61889e-08 4.7647C -8.61889e-08 6.69755 1.58157 8.2708 3.52465 8.2708L 3.97653 8.2708C 5.9196 8.2708 7.50117 6.69755 7.50117 4.7647L 7.50117 3.55105C 7.50117 1.57325 5.9196 -1.71471e-07 3.97653 -1.71471e-07ZM 5.24178 4.7647C 5.24178 5.4839 4.65434 6.0233 3.97653 6.0233L 3.52465 6.0233C 2.80164 6.0233 2.25939 5.43895 2.25939 4.7647L 2.25939 3.55105C 2.25939 2.83185 2.84683 2.29245 3.52465 2.29245L 3.97653 2.29245C 4.69953 2.29245 5.24178 2.8768 5.24178 3.55105L 5.24178 4.7647Z"/>
</defs>
</svg>
