<svg width="50" height="35" viewBox="0 0 50 35" version="1.1" xmlns="http://www.w3.org/2000/svg" xmlns:xlink="http://www.w3.org/1999/xlink">
<title>sale</title>
<desc>Created using Figma</desc>
<g id="Canvas" transform="translate(-2039 365)">
<g id="sale">
<g id="background" opacity="0.7">
<use xlink:href="#path0_fill" transform="translate(2039 -365)" fill="#F2F2F2"/>
<mask id="mask0_outline_ins">
<use xlink:href="#path0_fill" fill="white" transform="translate(2039 -365)"/>
</mask>
<g mask="url(#mask0_outline_ins)">
<use xlink:href="#path1_stroke_2x" transform="translate(2039 -365)" fill="#E5E5E5"/>
</g>
</g>
<g id="text">
<use xlink:href="#path2_fill" transform="translate(2039 -358)" fill="#EB5757"/>
</g>
</g>
</g>
<defs>
<path id="path0_fill" d="M 0 5C 0 2.23858 2.23858 0 5 0L 45 0C 47.7614 0 50 2.23858 50 5L 50 30C 50 32.7614 47.7614 35 45 35L 5 35C 2.23858 35 0 32.7614 0 30L 0 5Z"/>
<path id="path1_stroke_2x" d="M 5 1L 45 1L 45 -1L 5 -1L 5 1ZM 49 5L 49 30L 51 30L 51 5L 49 5ZM 45 34L 5 34L 5 36L 45 36L 45 34ZM 1 30L 1 5L -1 5L -1 30L 1 30ZM 5 34C 2.79086 34 1 32.2091 1 30L -1 30C -1 33.3137 1.68629 36 5 36L 5 34ZM 49 30C 49 32.2091 47.2091 34 45 34L 45 36C 48.3137 36 51 33.3137 51 30L 49 30ZM 45 1C 47.2091 1 49 2.79086 49 5L 51 5C 51 1.68629 48.3137 -1 45 -1L 45 1ZM 5 -1C 1.68629 -1 -1 1.68629 -1 5L 1 5C 1 2.79086 2.79086 1 5 1L 5 -1Z"/>
<path id="path2_fill" d="M 3.64638 10.344L 7.79038 10.344L 7.79038 11.992L 3.64638 11.992L 3.64638 10.344ZM 20.8737 14.52L 20.8737 16L 14.4737 16L 14.4737 14.52L 16.8177 14.52L 16.8177 7.776C 16.8177 7.50933 16.8257 7.23467 16.8418 6.952L 15.1778 8.344C 15.0817 8.41867 14.9857 8.46667 14.8898 8.488C 14.7991 8.504 14.7111 8.504 14.6258 8.488C 14.5458 8.472 14.4737 8.44533 14.4097 8.408C 14.3457 8.36533 14.2977 8.32 14.2658 8.272L 13.6417 7.416L 17.1698 4.416L 18.7937 4.416L 18.7937 14.52L 20.8737 14.52ZM 30.755 10.216C 30.755 11.224 30.6457 12.1013 30.427 12.848C 30.2137 13.5893 29.915 14.2027 29.531 14.688C 29.1523 15.1733 28.7017 15.536 28.179 15.776C 27.6617 16.0107 27.1017 16.128 26.499 16.128C 25.8963 16.128 25.3363 16.0107 24.819 15.776C 24.307 15.536 23.8617 15.1733 23.483 14.688C 23.1043 14.2027 22.8083 13.5893 22.595 12.848C 22.3817 12.1013 22.275 11.224 22.275 10.216C 22.275 9.20267 22.3817 8.32533 22.595 7.584C 22.8083 6.84267 23.1043 6.22933 23.483 5.744C 23.8617 5.25867 24.307 4.89867 24.819 4.664C 25.3363 4.424 25.8963 4.304 26.499 4.304C 27.1017 4.304 27.6617 4.424 28.179 4.664C 28.7017 4.89867 29.1523 5.25867 29.531 5.744C 29.915 6.22933 30.2137 6.84267 30.427 7.584C 30.6457 8.32533 30.755 9.20267 30.755 10.216ZM 28.715 10.216C 28.715 9.37867 28.6537 8.68533 28.531 8.136C 28.4083 7.58667 28.243 7.14933 28.035 6.824C 27.8323 6.49867 27.5977 6.272 27.331 6.144C 27.0643 6.01067 26.787 5.944 26.499 5.944C 26.2163 5.944 25.9417 6.01067 25.675 6.144C 25.4137 6.272 25.1817 6.49867 24.979 6.824C 24.7763 7.14933 24.6137 7.58667 24.491 8.136C 24.3737 8.68533 24.315 9.37867 24.315 10.216C 24.315 11.0533 24.3737 11.7467 24.491 12.296C 24.6137 12.8453 24.7763 13.2827 24.979 13.608C 25.1817 13.9333 25.4137 14.1627 25.675 14.296C 25.9417 14.424 26.2163 14.488 26.499 14.488C 26.787 14.488 27.0643 14.424 27.331 14.296C 27.5977 14.1627 27.8323 13.9333 28.035 13.608C 28.243 13.2827 28.4083 12.8453 28.531 12.296C 28.6537 11.7467 28.715 11.0533 28.715 10.216ZM 37.1163 7.232C 37.1163 7.66933 37.0416 8.064 36.8923 8.416C 36.7483 8.768 36.5536 9.06933 36.3082 9.32C 36.0629 9.56533 35.7776 9.75467 35.4523 9.888C 35.1269 10.0213 34.7882 10.088 34.4362 10.088C 34.0522 10.088 33.6976 10.0213 33.3723 9.888C 33.0469 9.75467 32.7643 9.56533 32.5243 9.32C 32.2896 9.06933 32.1056 8.768 31.9722 8.416C 31.8389 8.064 31.7722 7.66933 31.7722 7.232C 31.7722 6.784 31.8389 6.37867 31.9722 6.016C 32.1056 5.65333 32.2896 5.34667 32.5243 5.096C 32.7643 4.84533 33.0469 4.65333 33.3723 4.52C 33.6976 4.38133 34.0522 4.312 34.4362 4.312C 34.8203 4.312 35.1749 4.38133 35.5002 4.52C 35.8309 4.65333 36.1163 4.84533 36.3562 5.096C 36.5963 5.34667 36.7829 5.65333 36.9163 6.016C 37.0496 6.37867 37.1163 6.784 37.1163 7.232ZM 35.5963 7.232C 35.5963 6.92267 35.5642 6.664 35.5002 6.456C 35.4416 6.248 35.3589 6.08 35.2523 5.952C 35.1509 5.824 35.0282 5.73333 34.8842 5.68C 34.7456 5.62133 34.5963 5.592 34.4362 5.592C 34.2762 5.592 34.1269 5.62133 33.9883 5.68C 33.8496 5.73333 33.7296 5.824 33.6282 5.952C 33.5322 6.08 33.4549 6.248 33.3963 6.456C 33.3376 6.664 33.3082 6.92267 33.3082 7.232C 33.3082 7.53067 33.3376 7.78133 33.3963 7.984C 33.4549 8.18133 33.5322 8.34133 33.6282 8.464C 33.7296 8.58667 33.8496 8.67467 33.9883 8.728C 34.1269 8.78133 34.2762 8.808 34.4362 8.808C 34.5963 8.808 34.7456 8.78133 34.8842 8.728C 35.0282 8.67467 35.1509 8.58667 35.2523 8.464C 35.3589 8.34133 35.4416 8.18133 35.5002 7.984C 35.5642 7.78133 35.5963 7.53067 35.5963 7.232ZM 40.9642 4.744C 41.0336 4.664 41.1136 4.592 41.2043 4.528C 41.3003 4.464 41.4336 4.432 41.6042 4.432L 43.0442 4.432L 34.4523 15.704C 34.3829 15.7893 34.3003 15.8613 34.2043 15.92C 34.1082 15.9733 33.9909 16 33.8523 16L 32.3802 16L 40.9642 4.744ZM 43.6523 13.28C 43.6523 13.7173 43.5776 14.112 43.4283 14.464C 43.2843 14.816 43.0896 15.1173 42.8442 15.368C 42.5989 15.6133 42.3136 15.8053 41.9882 15.944C 41.6629 16.0773 41.3243 16.144 40.9722 16.144C 40.5883 16.144 40.2336 16.0773 39.9082 15.944C 39.5829 15.8053 39.3003 15.6133 39.0602 15.368C 38.8256 15.1173 38.6416 14.816 38.5083 14.464C 38.3749 14.112 38.3082 13.7173 38.3082 13.28C 38.3082 12.832 38.3749 12.4267 38.5083 12.064C 38.6416 11.7013 38.8256 11.3947 39.0602 11.144C 39.3003 10.8933 39.5829 10.7013 39.9082 10.568C 40.2336 10.4293 40.5883 10.36 40.9722 10.36C 41.3562 10.36 41.7109 10.4293 42.0363 10.568C 42.3669 10.7013 42.6496 10.8933 42.8842 11.144C 43.1243 11.3947 43.3109 11.7013 43.4443 12.064C 43.5829 12.4267 43.6523 12.832 43.6523 13.28ZM 42.1243 13.28C 42.1243 12.9707 42.0949 12.712 42.0363 12.504C 41.9776 12.296 41.8949 12.128 41.7882 12C 41.6869 11.872 41.5642 11.7813 41.4202 11.728C 41.2816 11.6693 41.1322 11.64 40.9722 11.64C 40.8123 11.64 40.6629 11.6693 40.5243 11.728C 40.3856 11.7813 40.2656 11.872 40.1643 12C 40.0629 12.128 39.9829 12.296 39.9242 12.504C 39.8709 12.712 39.8442 12.9707 39.8442 13.28C 39.8442 13.5787 39.8709 13.8293 39.9242 14.032C 39.9829 14.2347 40.0629 14.3973 40.1643 14.52C 40.2656 14.6427 40.3856 14.7307 40.5243 14.784C 40.6629 14.8373 40.8123 14.864 40.9722 14.864C 41.1322 14.864 41.2816 14.8373 41.4202 14.784C 41.5642 14.7307 41.6869 14.6427 41.7882 14.52C 41.8949 14.3973 41.9776 14.2347 42.0363 14.032C 42.0949 13.8293 42.1243 13.5787 42.1243 13.28Z"/>
</defs>
</svg>
