<svg width="50" height="35" viewBox="0 0 50 35" version="1.1" xmlns="http://www.w3.org/2000/svg" xmlns:xlink="http://www.w3.org/1999/xlink">
<title>sticker</title>
<desc>Created using Figma</desc>
<g id="Canvas" transform="translate(-2361 404)">
<g id="sticker">
<g id="background" opacity="0.7">
<use xlink:href="#path0_fill" transform="translate(2361 -404)" fill="#F2F2F2"/>
<mask id="mask0_outline_ins">
<use xlink:href="#path0_fill" fill="white" transform="translate(2361 -404)"/>
</mask>
<g mask="url(#mask0_outline_ins)">
<use xlink:href="#path1_stroke_2x" transform="translate(2361 -404)" fill="#E5E5E5"/>
</g>
</g>
<g id="icon">
<use xlink:href="#path2_fill" transform="translate(2388 -397)" fill="#54C029"/>
</g>
<g id="text">
<use xlink:href="#path3_fill" transform="translate(2364 -398)" fill="#333333"/>
</g>
</g>
</g>
<defs>
<path id="path0_fill" d="M 0 5C 0 2.23858 2.23858 0 5 0L 45 0C 47.7614 0 50 2.23858 50 5L 50 30C 50 32.7614 47.7614 35 45 35L 5 35C 2.23858 35 0 32.7614 0 30L 0 5Z"/>
<path id="path1_stroke_2x" d="M 5 1L 45 1L 45 -1L 5 -1L 5 1ZM 49 5L 49 30L 51 30L 51 5L 49 5ZM 45 34L 5 34L 5 36L 45 36L 45 34ZM 1 30L 1 5L -1 5L -1 30L 1 30ZM 5 34C 2.79086 34 1 32.2091 1 30L -1 30C -1 33.3137 1.68629 36 5 36L 5 34ZM 49 30C 49 32.2091 47.2091 34 45 34L 45 36C 48.3137 36 51 33.3137 51 30L 49 30ZM 45 1C 47.2091 1 49 2.79086 49 5L 51 5C 51 1.68629 48.3137 -1 45 -1L 45 1ZM 5 -1C 1.68629 -1 -1 1.68629 -1 5L 1 5C 1 2.79086 2.79086 1 5 1L 5 -1Z"/>
<path id="path2_fill" fill-rule="evenodd" d="M 19.3548 10.3226C 19.3548 12.2366 18.7873 14.1076 17.7239 15.6991C 16.6605 17.2905 15.1491 18.5309 13.3808 19.2633C 11.6125 19.9958 9.66669 20.1875 7.78945 19.814C 5.91222 19.4406 4.18787 18.519 2.83445 17.1655C 1.48104 15.8121 0.559358 14.0878 0.185953 12.2105C -0.187452 10.3333 0.00419309 8.38751 0.736654 6.61919C 1.46911 4.85087 2.70949 3.33947 4.30094 2.2761C 5.89238 1.21273 7.76341 0.645161 9.67742 0.645161L 9.67742 10.3226L 19.3548 10.3226ZM 10.3226 0C 12.8892 1.28929e-15 15.3507 1.01958 17.1656 2.83445C 18.9804 4.64932 20 7.11081 20 9.67742L 10.3226 9.67742L 10.3226 0ZM 11.6129 1.29032C 15.2794 1.82387 17.6897 4.32258 18.7097 8.38709L 11.6129 8.38709L 11.6129 1.29032Z"/>
<path id="path3_fill" d="M 9.37359 16.335L 9.37359 18L 2.17359 18L 2.17359 16.335L 4.81059 16.335L 4.81059 8.748C 4.81059 8.448 4.81959 8.139 4.83759 7.821L 2.96559 9.387C 2.85759 9.471 2.74959 9.525 2.64159 9.549C 2.53959 9.567 2.44059 9.567 2.34459 9.549C 2.25459 9.531 2.17359 9.501 2.10159 9.459C 2.02959 9.411 1.97559 9.36 1.93959 9.306L 1.23759 8.343L 5.20659 4.968L 7.03359 4.968L 7.03359 16.335L 9.37359 16.335ZM 20.49 11.493C 20.49 12.627 20.367 13.614 20.121 14.454C 19.881 15.288 19.545 15.978 19.113 16.524C 18.687 17.07 18.18 17.478 17.592 17.748C 17.01 18.012 16.38 18.144 15.702 18.144C 15.024 18.144 14.394 18.012 13.812 17.748C 13.236 17.478 12.735 17.07 12.309 16.524C 11.883 15.978 11.55 15.288 11.31 14.454C 11.07 13.614 10.95 12.627 10.95 11.493C 10.95 10.353 11.07 9.366 11.31 8.532C 11.55 7.698 11.883 7.008 12.309 6.462C 12.735 5.916 13.236 5.511 13.812 5.247C 14.394 4.977 15.024 4.842 15.702 4.842C 16.38 4.842 17.01 4.977 17.592 5.247C 18.18 5.511 18.687 5.916 19.113 6.462C 19.545 7.008 19.881 7.698 20.121 8.532C 20.367 9.366 20.49 10.353 20.49 11.493ZM 18.195 11.493C 18.195 10.551 18.126 9.771 17.988 9.153C 17.85 8.535 17.664 8.043 17.43 7.677C 17.202 7.311 16.938 7.056 16.638 6.912C 16.338 6.762 16.026 6.687 15.702 6.687C 15.384 6.687 15.075 6.762 14.775 6.912C 14.481 7.056 14.22 7.311 13.992 7.677C 13.764 8.043 13.581 8.535 13.443 9.153C 13.311 9.771 13.245 10.551 13.245 11.493C 13.245 12.435 13.311 13.215 13.443 13.833C 13.581 14.451 13.764 14.943 13.992 15.309C 14.22 15.675 14.481 15.933 14.775 16.083C 15.075 16.227 15.384 16.299 15.702 16.299C 16.026 16.299 16.338 16.227 16.638 16.083C 16.938 15.933 17.202 15.675 17.43 15.309C 17.664 14.943 17.85 14.451 17.988 13.833C 18.126 13.215 18.195 12.435 18.195 11.493Z"/>
</defs>
</svg>
