<svg width="50" height="35" viewBox="0 0 50 35" version="1.1" xmlns="http://www.w3.org/2000/svg" xmlns:xlink="http://www.w3.org/1999/xlink">
<title>top</title>
<desc>Created using Figma</desc>
<g id="Canvas" transform="translate(-1726 404)">
<g id="top">
<g id="background" opacity="0.7">
<use xlink:href="#path0_fill" transform="translate(1726 -404)" fill="#F2F2F2"/>
<mask id="mask0_outline_ins">
<use xlink:href="#path0_fill" fill="white" transform="translate(1726 -404)"/>
</mask>
<g mask="url(#mask0_outline_ins)">
<use xlink:href="#path1_stroke_2x" transform="translate(1726 -404)" fill="#E5E5E5"/>
</g>
</g>
<g id="text">
<use xlink:href="#path2_fill" transform="translate(1731 -404)" fill="#FF9800"/>
<use xlink:href="#path3_fill" transform="translate(1731 -404)" fill="#333333"/>
</g>
</g>
</g>
<defs>
<path id="path0_fill" d="M 0 5C 0 2.23858 2.23858 0 5 0L 45 0C 47.7614 0 50 2.23858 50 5L 50 30C 50 32.7614 47.7614 35 45 35L 5 35C 2.23858 35 0 32.7614 0 30L 0 5Z"/>
<path id="path1_stroke_2x" d="M 5 1L 45 1L 45 -1L 5 -1L 5 1ZM 49 5L 49 30L 51 30L 51 5L 49 5ZM 45 34L 5 34L 5 36L 45 36L 45 34ZM 1 30L 1 5L -1 5L -1 30L 1 30ZM 5 34C 2.79086 34 1 32.2091 1 30L -1 30C -1 33.3137 1.68629 36 5 36L 5 34ZM 49 30C 49 32.2091 47.2091 34 45 34L 45 36C 48.3137 36 51 33.3137 51 30L 49 30ZM 45 1C 47.2091 1 49 2.79086 49 5L 51 5C 51 1.68629 48.3137 -1 45 -1L 45 1ZM 5 -1C 1.68629 -1 -1 1.68629 -1 5L 1 5C 1 2.79086 2.79086 1 5 1L 5 -1Z"/>
<path id="path2_fill" d="M 13.3015 9.425L 10.2495 9.425L 10.2495 18L 8.36649 18L 8.36649 9.425L 5.31449 9.425L 5.31449 7.878L 13.3015 7.878L 13.3015 9.425ZM 23.9372 12.939C 23.9372 13.681 23.8136 14.3693 23.5662 15.004C 23.3236 15.634 22.9782 16.18 22.5302 16.642C 22.0822 17.104 21.5432 17.4657 20.9132 17.727C 20.2832 17.9837 19.5832 18.112 18.8132 18.112C 18.0479 18.112 17.3502 17.9837 16.7202 17.727C 16.0902 17.4657 15.5489 17.104 15.0962 16.642C 14.6482 16.18 14.3006 15.634 14.0532 15.004C 13.8059 14.3693 13.6822 13.681 13.6822 12.939C 13.6822 12.197 13.8059 11.511 14.0532 10.881C 14.3006 10.2463 14.6482 9.698 15.0962 9.236C 15.5489 8.774 16.0902 8.41467 16.7202 8.158C 17.3502 7.89667 18.0479 7.766 18.8132 7.766C 19.3266 7.766 19.8096 7.82667 20.2622 7.948C 20.7149 8.06467 21.1302 8.23267 21.5082 8.452C 21.8862 8.66667 22.2246 8.93033 22.5232 9.243C 22.8266 9.551 23.0832 9.89633 23.2932 10.279C 23.5032 10.6617 23.6619 11.077 23.7692 11.525C 23.8812 11.973 23.9372 12.4443 23.9372 12.939ZM 22.0122 12.939C 22.0122 12.3837 21.9376 11.8867 21.7882 11.448C 21.6389 11.0047 21.4266 10.629 21.1512 10.321C 20.8759 10.013 20.5399 9.77733 20.1432 9.614C 19.7512 9.45067 19.3079 9.369 18.8132 9.369C 18.3186 9.369 17.8729 9.45067 17.4762 9.614C 17.0842 9.77733 16.7482 10.013 16.4682 10.321C 16.1929 10.629 15.9806 11.0047 15.8312 11.448C 15.6819 11.8867 15.6072 12.3837 15.6072 12.939C 15.6072 13.4943 15.6819 13.9937 15.8312 14.437C 15.9806 14.8757 16.1929 15.249 16.4682 15.557C 16.7482 15.8603 17.0842 16.0937 17.4762 16.257C 17.8729 16.4203 18.3186 16.502 18.8132 16.502C 19.3079 16.502 19.7512 16.4203 20.1432 16.257C 20.5399 16.0937 20.8759 15.8603 21.1512 15.557C 21.4266 15.249 21.6389 14.8757 21.7882 14.437C 21.9376 13.9937 22.0122 13.4943 22.0122 12.939ZM 33.7739 18L 31.8769 18L 31.8769 9.327L 27.4809 9.327L 27.4809 18L 25.5909 18L 25.5909 7.878L 33.7739 7.878L 33.7739 18Z"/>
<path id="path3_fill" d="M 5.75393 28L 4.76943 28L 4.76943 23.1765L 2.09643 23.1765L 2.09643 28L 1.11193 28L 1.11193 22.4285L 5.75393 22.4285L 5.75393 28ZM 8.29467 26.658C 8.47433 26.9 8.6705 27.0705 8.88317 27.1695C 9.09583 27.2685 9.33417 27.318 9.59817 27.318C 10.1188 27.318 10.5185 27.1328 10.7972 26.7625C 11.0758 26.3922 11.2152 25.8642 11.2152 25.1785C 11.2152 24.8155 11.1822 24.5038 11.1162 24.2435C 11.0538 23.9832 10.9622 23.7705 10.8412 23.6055C 10.7202 23.4368 10.5717 23.314 10.3957 23.237C 10.2197 23.16 10.0198 23.1215 9.79617 23.1215C 9.47717 23.1215 9.19667 23.1948 8.95467 23.3415C 8.71633 23.4882 8.49633 23.6953 8.29467 23.963L 8.29467 26.658ZM 8.24517 23.292C 8.47983 23.0023 8.75117 22.7695 9.05917 22.5935C 9.36717 22.4175 9.71917 22.3295 10.1152 22.3295C 10.4378 22.3295 10.7293 22.3918 10.9897 22.5165C 11.25 22.6375 11.4718 22.819 11.6552 23.061C 11.8385 23.2993 11.9797 23.5963 12.0787 23.952C 12.1777 24.3077 12.2272 24.7165 12.2272 25.1785C 12.2272 25.5892 12.1722 25.9723 12.0622 26.328C 11.9522 26.68 11.7927 26.9862 11.5837 27.2465C 11.3783 27.5032 11.1253 27.7067 10.8247 27.857C 10.5277 28.0037 10.1922 28.077 9.81817 28.077C 9.47717 28.077 9.18383 28.0202 8.93817 27.9065C 8.69617 27.7892 8.48167 27.6278 8.29467 27.4225L 8.29467 29.8865L 7.31017 29.8865L 7.31017 22.4285L 7.89867 22.4285C 8.038 22.4285 8.12417 22.4963 8.15717 22.632L 8.24517 23.292ZM 15.8139 22.3405C 16.2209 22.3405 16.5876 22.4083 16.9139 22.544C 17.2403 22.6797 17.5189 22.8722 17.7499 23.1215C 17.9809 23.3708 18.1569 23.6733 18.2779 24.029C 18.4026 24.381 18.4649 24.7752 18.4649 25.2115C 18.4649 25.6515 18.4026 26.0475 18.2779 26.3995C 18.1569 26.7515 17.9809 27.0522 17.7499 27.3015C 17.5189 27.5508 17.2403 27.7433 16.9139 27.879C 16.5876 28.011 16.2209 28.077 15.8139 28.077C 15.4033 28.077 15.0329 28.011 14.7029 27.879C 14.3766 27.7433 14.0979 27.5508 13.8669 27.3015C 13.6359 27.0522 13.4581 26.7515 13.3334 26.3995C 13.2124 26.0475 13.1519 25.6515 13.1519 25.2115C 13.1519 24.7752 13.2124 24.381 13.3334 24.029C 13.4581 23.6733 13.6359 23.3708 13.8669 23.1215C 14.0979 22.8722 14.3766 22.6797 14.7029 22.544C 15.0329 22.4083 15.4033 22.3405 15.8139 22.3405ZM 15.8139 27.3125C 16.3639 27.3125 16.7746 27.1292 17.0459 26.7625C 17.3173 26.3922 17.4529 25.877 17.4529 25.217C 17.4529 24.5533 17.3173 24.0363 17.0459 23.666C 16.7746 23.2957 16.3639 23.1105 15.8139 23.1105C 15.5353 23.1105 15.2914 23.1582 15.0824 23.2535C 14.8771 23.3488 14.7048 23.4863 14.5654 23.666C 14.4298 23.8457 14.3271 24.0675 14.2574 24.3315C 14.1914 24.5918 14.1584 24.887 14.1584 25.217C 14.1584 25.877 14.2941 26.3922 14.5654 26.7625C 14.8404 27.1292 15.2566 27.3125 15.8139 27.3125ZM 23.3416 27.285L 23.3416 23.1985L 21.5761 23.1985C 21.5394 23.7705 21.4881 24.2765 21.4221 24.7165C 21.3561 25.1565 21.2791 25.5433 21.1911 25.877C 21.1067 26.207 21.0114 26.4875 20.9051 26.7185C 20.8024 26.9495 20.6942 27.1383 20.5806 27.285L 23.3416 27.285ZM 25.3106 27.2575L 25.3106 29.617C 25.3106 29.7123 25.2831 29.7857 25.2281 29.837C 25.1767 29.892 25.1089 29.9195 25.0246 29.9195L 24.4251 29.9195L 24.4251 28L 19.7391 28L 19.7391 29.639C 19.7391 29.7087 19.7171 29.7728 19.6731 29.8315C 19.6327 29.8902 19.5649 29.9195 19.4696 29.9195L 18.8536 29.9195L 18.8536 27.285L 19.0351 27.285C 19.1634 27.285 19.2899 27.263 19.4146 27.219C 19.5429 27.175 19.6657 27.0925 19.7831 26.9715C 19.9004 26.8468 20.0104 26.6727 20.1131 26.449C 20.2194 26.2253 20.3147 25.9338 20.3991 25.5745C 20.4834 25.2152 20.5567 24.7788 20.6191 24.2655C 20.6814 23.7485 20.7309 23.1362 20.7676 22.4285L 24.2931 22.4285L 24.2931 27.2575L 25.3106 27.2575ZM 29.3219 25.492C 28.8709 25.5067 28.4859 25.5433 28.1669 25.602C 27.8515 25.657 27.593 25.7303 27.3914 25.822C 27.1934 25.9137 27.0485 26.0218 26.9569 26.1465C 26.8689 26.2712 26.8249 26.4105 26.8249 26.5645C 26.8249 26.7112 26.8487 26.8377 26.8964 26.944C 26.944 27.0503 27.0082 27.1383 27.0889 27.208C 27.1732 27.274 27.2704 27.3235 27.3804 27.3565C 27.494 27.3858 27.615 27.4005 27.7434 27.4005C 27.9157 27.4005 28.0734 27.384 28.2164 27.351C 28.3594 27.3143 28.4932 27.263 28.6179 27.197C 28.7462 27.131 28.8672 27.0522 28.9809 26.9605C 29.0982 26.8688 29.2119 26.7643 29.3219 26.647L 29.3219 25.492ZM 26.1594 23.215C 26.4674 22.918 26.7992 22.6962 27.1549 22.5495C 27.5105 22.4028 27.9047 22.3295 28.3374 22.3295C 28.649 22.3295 28.9259 22.3808 29.1679 22.4835C 29.4099 22.5862 29.6134 22.7292 29.7784 22.9125C 29.9434 23.0958 30.068 23.3177 30.1524 23.578C 30.2367 23.8383 30.2789 24.1243 30.2789 24.436L 30.2789 28L 29.8444 28C 29.749 28 29.6757 27.9853 29.6244 27.956C 29.573 27.923 29.5327 27.8607 29.5034 27.769L 29.3934 27.241C 29.2467 27.3767 29.1037 27.4977 28.9644 27.604C 28.825 27.7067 28.6784 27.7947 28.5244 27.868C 28.3704 27.9377 28.2054 27.9908 28.0294 28.0275C 27.857 28.0678 27.6645 28.088 27.4519 28.088C 27.2355 28.088 27.032 28.0587 26.8414 28C 26.6507 27.9377 26.4839 27.846 26.3409 27.725C 26.2015 27.604 26.0897 27.4518 26.0054 27.2685C 25.9247 27.0815 25.8844 26.8615 25.8844 26.6085C 25.8844 26.3885 25.9449 26.1777 26.0659 25.976C 26.1869 25.7707 26.383 25.5892 26.6544 25.4315C 26.9257 25.2738 27.2795 25.1455 27.7159 25.0465C 28.1522 24.9438 28.6875 24.8852 29.3219 24.8705L 29.3219 24.436C 29.3219 24.0033 29.2284 23.677 29.0414 23.457C 28.8544 23.2333 28.5812 23.1215 28.2219 23.1215C 27.9799 23.1215 27.7764 23.1527 27.6114 23.215C 27.45 23.2737 27.3089 23.3415 27.1879 23.4185C 27.0705 23.4918 26.9679 23.5597 26.8799 23.622C 26.7955 23.6807 26.7112 23.71 26.6269 23.71C 26.5609 23.71 26.504 23.6935 26.4564 23.6605C 26.4087 23.6238 26.3684 23.5798 26.3354 23.5285L 26.1594 23.215ZM 39.5251 28L 38.8431 28C 38.6671 28 38.5315 27.9725 38.4361 27.9175C 38.3445 27.8625 38.273 27.7763 38.2216 27.659L 37.1381 25.9265C 36.9585 25.6405 36.7 25.4975 36.3626 25.4975L 35.8016 25.4975L 35.8016 28.0055L 34.8501 28.0055L 34.8501 25.4975L 34.2946 25.4975C 34.1296 25.4975 33.9793 25.5342 33.8436 25.6075C 33.7116 25.6808 33.6035 25.7872 33.5191 25.9265L 32.4356 27.659C 32.3806 27.7763 32.3055 27.8625 32.2101 27.9175C 32.1185 27.9725 31.9846 28 31.8086 28L 31.1321 28L 32.5951 25.6955C 32.6905 25.5342 32.7986 25.404 32.9196 25.305C 33.0406 25.206 33.1891 25.1308 33.3651 25.0795C 33.2258 25.0355 33.1066 24.9713 33.0076 24.887C 32.9123 24.799 32.8225 24.6872 32.7381 24.5515L 31.2861 22.4285L 32.0561 22.4285C 32.1515 22.4285 32.2376 22.4542 32.3146 22.5055C 32.3916 22.5532 32.4521 22.6192 32.4961 22.7035L 33.6786 24.4635C 33.7593 24.5845 33.8565 24.678 33.9701 24.744C 34.0838 24.8063 34.2176 24.8375 34.3716 24.8375L 34.8501 24.8375L 34.8501 22.4285L 35.8016 22.4285L 35.8016 24.8375L 36.2691 24.8375C 36.5808 24.8375 36.8155 24.7128 36.9731 24.4635L 38.1556 22.7035C 38.1996 22.6192 38.2601 22.5532 38.3371 22.5055C 38.4178 22.4542 38.5058 22.4285 38.6011 22.4285L 39.3711 22.4285L 37.9191 24.5515C 37.8348 24.6872 37.7431 24.799 37.6441 24.887C 37.5488 24.9713 37.4315 25.0355 37.2921 25.0795C 37.4681 25.1308 37.6166 25.206 37.7376 25.305C 37.8586 25.404 37.9668 25.5342 38.0621 25.6955L 39.5251 28Z"/>
</defs>
</svg>
