<svg xmlns="http://www.w3.org/2000/svg" xmlns:xlink="http://www.w3.org/1999/xlink" width="0" height="0" style="position:absolute">
	
		<symbol id="Logo2" viewBox="0 0 242 43">
			<title>Logo2</title><desc>Created using Figma</desc><g transform="translate(-1701 1248)"><use xlink:href="#a" transform="translate(1794.95 -1242.92)" fill="#0C90C8"></use><use xlink:href="#b" transform="translate(1772.88 -1243.37)" fill="#0C90C8"></use><use xlink:href="#c" transform="translate(1749.92 -1243.52)" fill="#0C90C8"></use><use xlink:href="#d" transform="translate(1814.63 -1243.96)" fill="#0C90C8"></use><use xlink:href="#e" transform="translate(1840.87 -1238.74)" fill="#FFF"></use><use xlink:href="#f" transform="translate(1854.44 -1238.74)" fill="#FFF"></use><use xlink:href="#g" transform="translate(1868 -1238.74)" fill="#FFF"></use><use xlink:href="#h" transform="translate(1885.6 -1238.74)" fill="#FFF"></use><use xlink:href="#i" transform="translate(1898.12 -1238.74)" fill="#FFF"></use><use xlink:href="#j" transform="translate(1910.94 -1239.19)" fill="#FFF"></use><use xlink:href="#k" transform="translate(1928.84 -1238.74)" fill="#FFF"></use><g><use xlink:href="#l" transform="translate(1753.2 -1215)" fill="#FFF"></use><use xlink:href="#m" transform="translate(1760.8 -1215)" fill="#FFF"></use><use xlink:href="#n" transform="translate(1767.36 -1215)" fill="#FFF"></use><use xlink:href="#o" transform="translate(1772.88 -1215)" fill="#FFF"></use><use xlink:href="#p" transform="translate(1781.23 -1215.15)" fill="#FFF"></use><use xlink:href="#q" transform="translate(1789.58 -1215)" fill="#FFF"></use><use xlink:href="#r" transform="translate(1796.88 -1215)" fill="#FFF"></use><use xlink:href="#s" transform="translate(1804.34 -1215)" fill="#FFF"></use><use xlink:href="#t" transform="translate(1809.41 -1212.02)" fill="#FFF"></use><use xlink:href="#u" transform="translate(1813.43 -1215)" fill="#FFF"></use><use xlink:href="#v" transform="translate(1824.77 -1215.3)" fill="#FFF"></use><use xlink:href="#w" transform="translate(1833.56 -1215)" fill="#FFF"></use><use xlink:href="#x" transform="translate(1837.59 -1215.3)" fill="#FFF"></use><use xlink:href="#y" transform="translate(1845.94 -1215)" fill="#FFF"></use><use xlink:href="#z" transform="translate(1851.75 -1215)" fill="#FFF"></use><use xlink:href="#A" transform="translate(1859.36 -1215)" fill="#FFF"></use><use xlink:href="#B" transform="translate(1870.24 -1215.15)" fill="#FFF"></use><use xlink:href="#C" transform="translate(1877.99 -1215.3)" fill="#FFF"></use><use xlink:href="#D" transform="translate(1886.94 -1215)" fill="#FFF"></use><use xlink:href="#E" transform="translate(1893.5 -1215)" fill="#FFF"></use><use xlink:href="#F" transform="translate(1898.87 -1215)" fill="#FFF"></use><use xlink:href="#G" transform="translate(1906.32 -1215)" fill="#FFF"></use><use xlink:href="#H" transform="translate(1913.18 -1215)" fill="#FFF"></use><use xlink:href="#I" transform="translate(1920.64 -1215)" fill="#FFF"></use><use xlink:href="#J" transform="translate(1928.39 -1215)" fill="#FFF"></use><use xlink:href="#K" transform="translate(1934.5 -1215)" fill="#FFF"></use></g><g><use xlink:href="#L" transform="translate(1701 -1248)" fill="#2E2B6C"></use><use xlink:href="#M" transform="translate(1703.64 -1235.01)" fill="#FFF"></use><use xlink:href="#N" transform="translate(1730.54 -1240.38)" fill="#438425"></use><use xlink:href="#O" transform="translate(1731.43 -1233.51)" fill="#386D1B"></use><use xlink:href="#P" transform="translate(1703.85 -1235.75)" fill="#63AE45"></use><use xlink:href="#Q" transform="rotate(-50.003 -448.822 -2456.38) skewX(-.069)" fill="#171544"></use><use xlink:href="#R" transform="translate(1704.15 -1245.48)" fill="#0C90C8"></use><use xlink:href="#S" transform="translate(1724.12 -1244.56)" fill="#0A79A0"></use></g></g><defs><path id="a" d="M17.295 12.689c0 5.523-3.28 8.21-8.647 8.21C3.13 20.899 0 18.212 0 12.689V0h4.473v12.689c0 2.239.596 4.478 4.175 4.478 3.13 0 4.174-1.343 4.174-4.478V0h4.473v12.689z"></path><path id="b" d="M20.575 20.302h-7.454a9.35 9.35 0 0 1-2.833.448C4.622 20.75 0 16.122 0 10.45 0 4.628 4.622 0 10.288 0c5.814 0 10.436 4.628 10.436 10.45 0 2.537-.745 4.18-2.236 5.672h2.236l-.149 4.18zM4.025 10.45c0 3.284 2.833 5.97 6.114 5.97 3.429 0 6.113-2.686 6.113-5.97 0-3.434-2.684-6.12-6.113-6.12-3.28 0-6.113 2.686-6.113 6.12z"></path><path id="c" d="M16.4.299v1.79C14.76.897 12.525 0 10.289 0 4.622 0 0 4.628 0 10.3c0 5.673 4.622 10.3 10.288 10.3.894 0 2.833-.298 3.727-.597.895-.298 1.64-.746 2.386-1.343v1.94h4.622V.15H16.4v.149zM10.289 16.42c-3.28 0-6.113-2.687-6.113-5.971 0-3.434 2.683-5.972 6.113-5.972 3.429 0 5.964 2.687 5.964 5.972.149 3.284-2.535 5.97-5.964 5.97z"></path><path id="d" d="M16.4.15v2.09C14.613 1.044 12.525.15 10.289.15 4.622.15 0 4.776 0 10.598c0 5.672 4.622 10.3 10.288 10.3.894 0 2.833-.299 3.727-.597.895-.299 1.64-.747 2.386-1.344V20.9h4.622V0H16.4v.15zm-6.112 16.42c-3.28 0-6.113-2.687-6.113-5.971 0-3.434 2.833-6.12 6.113-6.12 3.429 0 6.113 2.686 6.113 6.12-.15 3.284-2.833 5.971-6.113 5.971z"></path><path id="e" d="M0 0h2.982v5.374L7.306 0h3.578L5.368 7.016l5.963 8.658H7.902L3.131 8.658v7.016H.149V0H0z"></path><path id="f" d="M0 0h2.982v5.971H8.2V0h2.982v15.674H8.2V8.807H2.982v6.867H0V0z"></path><path id="g" d="M6.113 0h2.982l5.964 15.674h-2.982l-1.193-3.284H4.473L3.13 15.674H0L6.113 0zm1.491 4.18L5.517 9.554H9.69L7.604 4.18z"></path><path id="h" d="M0 0h3.131c1.79 0 2.982.15 3.727.448.746.298 1.342.896 1.79 1.493.447.597.745 1.642.745 2.537 0 1.045-.298 1.941-.745 2.538C8.2 7.763 7.455 8.21 6.41 8.658l3.728 7.016h-3.28L3.28 8.957h-.298v6.717H0V0zm2.982 6.12h.895c.894 0 1.64-.149 1.938-.447.298-.299.596-.598.596-1.195 0-.298-.149-.597-.298-.895-.15-.299-.447-.448-.745-.597-.299-.15-.895-.15-1.64-.15h-.746V6.12z"></path><path id="i" d="M0 0h2.982v5.374L7.306 0h3.578L5.367 7.016l5.964 8.658H7.753L2.982 8.658v7.016H0V0z"></path><path id="j" d="M8.2 0c2.237 0 4.175.746 5.666 2.388 1.64 1.643 2.386 3.583 2.386 5.822 0 2.24-.746 4.18-2.386 5.822-1.64 1.642-3.43 2.389-5.666 2.389-2.385 0-4.323-.747-5.814-2.389C.895 12.39 0 10.45 0 8.21c0-1.492.298-2.836 1.044-4.18a9.496 9.496 0 0 1 2.982-2.985C5.367.448 6.709 0 8.2 0zm-.149 2.986c-1.49 0-2.683.447-3.727 1.492S2.833 6.718 2.833 8.36c0 1.791.596 3.135 1.938 4.18a5.207 5.207 0 0 0 3.28 1.194c1.491 0 2.684-.448 3.579-1.493 1.043-1.045 1.49-2.24 1.49-3.732 0-1.493-.447-2.687-1.49-3.732-1.044-1.045-2.088-1.791-3.579-1.791z"></path><path id="k" d="M0 0h3.131l3.877 11.196L11.033 0h3.131L8.5 15.674H5.666L0 0z"></path><path id="l" d="M.895 0v4.926L5.815 0v6.568H4.92V1.642L.15 6.718H0V.149h.895V0z"></path><path id="m" d="M4.771 3.433H.895v3.135H0V0h.895v2.687H4.77V0h.895v6.568H4.77V3.433z"></path><path id="n" d="M.15 0h4.323v.746h-1.79v5.822H1.79V.746H0V0h.15z"></path><path id="o" d="M5.815 4.478l.745.448c-.298.448-.447.896-.745 1.194-.298.299-.597.448-1.044.598-.447.149-.894.149-1.342.149-1.043 0-1.938-.299-2.534-1.045C.298 5.075 0 4.329 0 3.433c0-.895.298-1.642.745-2.239C1.342.3 2.236 0 3.43 0s2.088.448 2.684 1.344a3.67 3.67 0 0 1 .745 2.239H.895c0 .746.298 1.343.745 1.94s1.044.747 1.79.747c.297 0 .596 0 1.043-.15.298-.149.596-.298.745-.447 0-.448.299-.747.597-1.195zm0-1.791c-.15-.448-.298-.746-.447-1.045-.15-.298-.448-.448-.895-.597A2.806 2.806 0 0 0 3.28.746c-.596 0-1.193.15-1.64.598a2.887 2.887 0 0 0-.745 1.343h4.92z"></path><path id="p" d="M0 .15h.895v1.194C1.193.896 1.64.597 2.087.299 2.535 0 2.982 0 3.578 0c.895 0 1.79.299 2.386 1.045.596.746 1.044 1.493 1.044 2.388 0 1.045-.299 1.792-1.044 2.538-.597.747-1.491 1.045-2.386 1.045-.596 0-1.043-.15-1.49-.298-.448-.15-.895-.598-1.193-1.045v3.582H0V.15zm3.43.746c-.746 0-1.343.298-1.79.746-.447.448-.745 1.194-.745 1.94 0 .449.149.896.298 1.344.298.448.596.747.894.896.448.298.895.298 1.342.298.448 0 .895-.149 1.342-.298.447-.299.746-.597.895-1.045.149-.448.298-.896.298-1.344 0-.447-.15-.895-.298-1.343-.15-.448-.597-.746-.895-1.045-.298-.299-.894-.15-1.342-.15z"></path><path id="q" d="M4.771 3.433H.895v3.135H0V0h.895v2.687H4.77V0h.895v6.568H4.77V3.433z"></path><path id="r" d="M5.815 4.478l.745.448c-.298.448-.447.896-.745 1.194-.298.299-.597.448-1.044.598-.447.149-.894.149-1.342.149-1.043 0-1.938-.299-2.534-1.045C.298 5.075 0 4.329 0 3.433c0-.895.298-1.642.745-2.239C1.342.3 2.236 0 3.43 0s2.088.448 2.684 1.344a3.67 3.67 0 0 1 .745 2.239H.895c0 .746.298 1.343.745 1.94s1.044.747 1.79.747c.297 0 .596 0 1.043-.15.298-.149.596-.298.745-.447.15-.448.299-.747.597-1.195zm0-1.791a7.282 7.282 0 0 0-.447-1.045c-.15-.298-.448-.448-.895-.597A2.806 2.806 0 0 0 3.28.746c-.596 0-1.193.15-1.64.598a2.887 2.887 0 0 0-.745 1.343h4.92z"></path><path id="s" d="M.15 0h4.323v.746h-1.79v5.822H1.79V.746H0V0h.15z"></path><path id="t" d="M0 0h3.28v.746H0V0z"></path><path id="u" d="M7.902 0H8.2l2.237 6.568h-.895l-1.64-4.926-2.534 4.926h-.15L2.535 1.791.895 6.718H0L2.236.149h.299l2.683 5.225L7.902 0z"></path><path id="v" d="M6.858.299v6.568h-.745V5.673c-.298.447-.746.746-1.193 1.045-.447.149-.894.298-1.49.298-.895 0-1.79-.298-2.386-1.045C.447 5.225 0 4.478 0 3.433c0-.895.298-1.79 1.044-2.388C1.789.448 2.534 0 3.429 0c.597 0 1.044.15 1.491.299.447.298.895.597 1.193 1.045V.149h.745V.3zm-3.429.746c-.447 0-.894.15-1.342.299-.447.298-.745.597-.894 1.044-.298.448-.298.896-.298 1.344 0 .448.149.896.298 1.343.149.448.596.747.894 1.045.448.299.895.299 1.342.299.448 0 .895-.15 1.342-.299.447-.298.746-.597.895-.895.298-.448.298-.896.298-1.344 0-.746-.298-1.343-.746-1.94-.447-.597-1.043-.896-1.789-.896z"></path><path id="w" d="M.895.746v5.822H0V0h3.28v.746H.895z"></path><path id="x" d="M7.008.299v6.568h-.895V5.673c-.298.447-.745.746-1.193 1.045-.447.149-.894.298-1.49.298-.895 0-1.79-.298-2.386-1.045C.447 5.225 0 4.478 0 3.433c0-.895.298-1.79 1.044-2.388C1.789.448 2.534 0 3.429 0c.597 0 1.044.15 1.491.299.448.298.895.597 1.193 1.045V.149h.895V.3zm-3.28.746c-.448 0-.895.15-1.342.299-.448.298-.746.597-.895 1.044-.298.448-.298.896-.298 1.344 0 .448.149.896.298 1.343.15.448.596.747.895 1.045.447.299.894.299 1.341.299.448 0 .895-.15 1.342-.299.448-.298.746-.597.895-.895.298-.448.298-.896.298-1.344 0-.746-.298-1.343-.745-1.94-.448-.597-1.193-.896-1.79-.896z"></path><path id="y" d="M1.79 2.836h.446c.299 0 .597-.149.746-.298.298-.15.298-.448.298-.747 0-.298-.149-.597-.298-.746-.15-.15-.447-.299-.895-.299-.447 0-.894.15-1.342.598L.298.746C.895.3 1.491 0 2.236 0c.597 0 1.044.15 1.342.448.448.298.597.746.597 1.343 0 .747-.298 1.195-.895 1.344.746.298 1.193.896 1.193 1.791 0 .597-.15 1.045-.596 1.493-.299.448-.895.597-1.64.597-.895 0-1.64-.298-2.237-.896l.596-.597c.448.448.895.747 1.64.747.448 0 .746-.15 1.044-.299.298-.298.298-.597.298-.896 0-.298-.149-.597-.298-.895-.149-.299-.596-.299-.894-.299h-.597V2.836z"></path><path id="z" d="M.895 0v4.926L5.815 0v6.568H4.92V1.642L.15 6.568H0V0h.895z"></path><path id="A" d="M4.771 3.433H.895v3.135H0V0h.895v2.687H4.77V0h.895v6.568H4.77V3.433z"></path><path id="B" d="M6.56 1.642l-.745.448C5.218 1.344 4.473.896 3.429.896c-.745 0-1.49.298-1.938.746-.447.448-.746 1.194-.746 1.94 0 .449.15.896.299 1.344.149.448.596.747 1.043 1.045.448.299.895.299 1.491.299 1.044 0 1.79-.448 2.386-1.195l.745.448c-.298.448-.745.896-1.341 1.045-.597.299-1.193.448-1.79.448-1.043 0-1.938-.298-2.534-1.045C.298 5.374 0 4.478 0 3.583c0-.597.15-1.195.447-1.792A2.927 2.927 0 0 1 1.79.448 4.123 4.123 0 0 1 3.727 0c.448 0 .895 0 1.193.15.447.149.746.298 1.044.596.149.299.447.448.596.896z"></path><path id="C" d="M7.008.299v6.568h-.895V5.673c-.298.447-.746.746-1.193 1.045-.447.149-.894.298-1.49.298-.895 0-1.79-.298-2.386-1.045C.447 5.225 0 4.478 0 3.433c0-.895.298-1.79 1.044-2.388C1.789.448 2.534 0 3.429 0c.597 0 1.044.15 1.491.299.447.298.895.597 1.193 1.045V.149h.895V.3zm-3.43.746c-.447 0-.894.15-1.342.299-.447.298-.745.597-.894 1.044-.298.448-.298.896-.298 1.344 0 .448.149.896.298 1.343.149.448.596.747.894 1.045.448.299.895.299 1.342.299.448 0 .895-.15 1.342-.299.447-.298.746-.597.895-.895.298-.448.298-.896.298-1.344 0-.746-.298-1.343-.746-1.94-.298-.597-1.043-.896-1.789-.896z"></path><path id="D" d="M4.771 3.433H.895v3.135H0V0h.895v2.687H4.77V0h.895v6.568H4.77V3.433z"></path><path id="E" d="M.15 0h4.323v.746h-1.79v5.822H1.79V.746H0V0h.15z"></path><path id="F" d="M5.815 4.478l.745.448c-.298.448-.447.896-.745 1.194-.298.299-.597.448-1.044.598-.447.149-.894.149-1.342.149-1.043 0-1.938-.299-2.534-1.045C.298 5.075 0 4.329 0 3.433c0-.895.298-1.642.745-2.239C1.342.3 2.236 0 3.43 0s2.088.448 2.684 1.344a3.67 3.67 0 0 1 .745 2.239H.895c0 .746.298 1.343.745 1.94a2.468 2.468 0 0 0 1.79.747c.297 0 .596 0 1.043-.15.298-.149.596-.298.745-.447.15-.15.448-.747.597-1.195zm0-1.791c-.15-.448-.298-.746-.448-1.045-.149-.298-.447-.448-.894-.597A2.806 2.806 0 0 0 3.28.746c-.596 0-1.193.15-1.64.598a2.887 2.887 0 0 0-.745 1.343h4.92z"></path><path id="G" d="M.15 0h1.043l1.789 2.388L4.772 0h1.043L3.578 3.135l2.535 3.433H5.069L2.982 3.732 1.044 6.568H0l2.535-3.433L.149 0z"></path><path id="H" d="M4.771 3.433H.895v3.135H0V0h.895v2.687H4.77V0h.895v6.568H4.77V3.433z"></path><path id="I" d="M.895 0v4.926L5.815 0v6.568H4.92V1.642L.15 6.568H0V0h.895z"></path><path id="J" d="M0 0h.895v2.836L4.025 0h1.193L1.79 2.986l3.579 3.582H4.175L1.193 3.433l-.298.299v2.836H0V0z"></path><path id="K" d="M.895 0v4.926L5.815 0v6.568H4.92V1.642L.15 6.568H0V0h.895z"></path><path id="L" d="M42.657 37.326a1.345 1.345 0 0 0-.895-.895c-1.044-.598-1.938-1.195-2.833-1.941-1.789-1.344-.894-1.344-.447-2.09 2.236-3.433 3.43-7.464 3.43-11.942C41.612 9.262 32.517.156 21.335.007 9.259-.292-.432 9.71.015 21.8.462 32.55 8.513 39.864 19.099 41.655c1.044.15 2.982.15 4.026 0 1.044-.149 1.938-.298 2.982-.298 2.386-.15 4.473 1.045 6.71 1.045 2.236 0 4.025-.299 6.112-1.045 1.193-.597 4.175-2.389 3.728-4.03z"></path><path id="M" d="M18.547 26.124c-2.535-.15-5.07-.747-7.306-1.791a20.531 20.531 0 0 1-5.964-4.18c-2.087-2.09-3.578-4.628-4.622-7.315-.596-1.791-1.044-3.881-.15-5.673.3-.746.895-1.492 1.343-2.239C3.19 3.284 4.68 1.642 6.618.746 7.216.448 7.962 0 8.559 0c1.788 0-.15 4.628.894 5.822 2.982 3.284 4.323 6.717 6.858 10.3.298.299 2.684 3.881 3.728 4.926a18.507 18.507 0 0 0 4.77 4.18c.448.299 2.088 1.045 2.535.896-1.49.15-7.305.15-8.796 0z"></path><path id="N" d="M8.946 8.509C6.709 11.047 2.087 11.345 0 10.749c.895.298 2.833-3.733 3.131-4.33.746-1.493.596-3.135.447-4.777C3.578 1.045 3.43.597 3.28 0c4.473 2.24 5.815 8.36 5.666 8.509z"></path><path id="O" d="M7.753 0c.15.448.447 1.194.447 1.642 0 .15 0 .299-.149.448 0 .15-.149.15-.298.298-.895.448-1.938 1.493-2.833 1.941-.894.448-1.938.299-2.833.15-.745 0-1.342-.3-2.087-.448C1.64 4.628 7.604 1.344 7.753 0z"></path><path id="P" d="M35.783 25.825c-2.833 2.687-7.156 1.792-10.585.597-5.666-1.94-11.034-5.523-13.568-10.598-.448-.747-.746-1.493-1.193-2.389-1.491-2.986-3.28-11.793-7.604-8.807C1.64 5.523.596 6.867 0 8.06.745 4.777 5.815.15 10.735 0c1.64 0 3.28.15 4.771.746 1.044.448 2.087 1.045 2.982 1.493 1.193.747 2.386 1.493 3.727 2.09 2.983 1.344 6.56 2.09 9.84 1.194.3-.149.597-.149.895-.298 1.044-.448 1.939-.896 2.535-1.792.447 1.344.597 2.837.746 4.33.149 4.627-1.342 8.807-4.026 12.24-.596.747-.596 1.642.745 2.837.895.597 3.43 2.388 2.833 2.985z"></path><path id="Q" d="M1.492 4.177c.824 0 1.492-.935 1.492-2.089C2.984.935 2.316 0 1.492 0S0 .935 0 2.088c0 1.154.668 2.089 1.492 2.089z"></path><path id="R" d="M18.19.022c2.684-.15 5.516.448 7.306 2.388 1.49 1.493 1.938 3.882 1.49 5.822-.298 1.642-1.64 5.076-3.727 4.33-1.64-.449-2.833-1.792-4.324-2.538-2.683-1.493-5.665-2.24-8.796-2.389-2.982 0-5.666 1.493-7.903 3.284-.596.448-1.043.896-1.64 1.344-.149.149-.447.298-.596.597.447-.448.447-1.194.596-1.642C2.535 5.694 8.051 1.813 13.568.47c1.64-.15 3.13-.299 4.622-.448z"></path><path id="S" d="M5.666 1.493C5.218.896 3.876.299 3.578 0c.597.448.895.597 1.193 1.045.597.746 1.193 1.791 1.491 2.836.596 1.94.15 4.479-1.044 6.12-.298.449-.894.896-1.49 1.046-.597.149-1.193-.15-1.79-.448C1.193 10.3.596 10.002 0 9.554c1.044.746 2.087 1.493 3.28 1.94 2.237.747 3.578-2.687 3.728-4.329.596-3.134-.448-4.478-1.342-5.672z"></path></defs>
		</symbol>
	
		<symbol id="ic-cart" viewBox="0 0 30 26">
			<title>Vector</title><path d="M1 0C.448 0 0 .437 0 .975s.448.975 1 .975H4.19l3.439 15.813c.136.595.536 1.091 1.042 1.087h16.672c.529.007 1.015-.46 1.015-.975 0-.515-.486-.982-1.015-.975H9.482l-.427-1.95h17.621c.448-.003.871-.336.97-.762l2.333-9.75c.13-.566-.374-1.184-.969-1.188H6.523L5.981.772C5.887.339 5.456 0 5.001 0h-4zm5.94 5.2h5.21l.5 2.925H7.576L6.94 5.2zm7.253 0h6.293l-.5 2.925h-5.293l-.5-2.925zm8.336 0h5.22l-.698 2.925H22.03l.5-2.925zM8.003 10.075h4.98l.5 2.925H8.639l-.635-2.925zm7.023 0h4.627l-.5 2.925h-3.627l-.5-2.925zm6.67 0h4.886L25.884 13h-4.689l.5-2.925zM12.337 19.5c-1.83 0-3.335 1.467-3.335 3.25S10.508 26 12.338 26s3.334-1.467 3.334-3.25-1.505-3.25-3.334-3.25zm9.336 0c-1.83 0-3.334 1.467-3.334 3.25S19.845 26 21.674 26c1.83 0 3.335-1.467 3.335-3.25s-1.505-3.25-3.335-3.25zm-9.336 1.95c.748 0 1.334.57 1.334 1.3 0 .73-.586 1.3-1.334 1.3-.749 0-1.334-.57-1.334-1.3 0-.73.585-1.3 1.334-1.3zm9.336 0c.749 0 1.334.57 1.334 1.3 0 .73-.585 1.3-1.334 1.3-.748 0-1.334-.57-1.334-1.3 0-.73.586-1.3 1.334-1.3z"></path>
		</symbol>
	
		<symbol id="ic-compare-btn" viewBox="0 0 26 21">
			<title>compare</title><path d="M26 18.06a.558.558 0 0 0-.038-.141l-4.5-10.548a.563.563 0 0 0-.088-.471.547.547 0 0 0-.36-.217l-5.697-.844a2.246 2.246 0 0 0-.518-1.228 2.188 2.188 0 0 0-1.115-.707V.553a.557.557 0 0 0-.16-.391.54.54 0 0 0-.77 0 .557.557 0 0 0-.159.391v3.345c-.33.088-.637.252-.894.48a2.234 2.234 0 0 0-.589.836L5.145 4.33a.536.536 0 0 0-.446.137.553.553 0 0 0-.177.438L.04 15.41a.56.56 0 0 0-.038.141v.075a.563.563 0 0 0 0 .091v.014a.56.56 0 0 0 .046.135l.016.03a.553.553 0 0 0 .088.12l.68.69a5.993 5.993 0 0 0 4.267 1.794c1.6 0 3.134-.645 4.266-1.793l.68-.691a.55.55 0 0 0 .088-.12l.016-.027a.557.557 0 0 0 .046-.135.557.557 0 0 0 0-.092v-.038-.036a.558.558 0 0 0-.038-.141L5.96 5.568l5.001.741c.045.495.252.96.588 1.32a2.148 2.148 0 0 0 2.665.396c.423-.248.753-.633.935-1.094l5.059.75-4.37 10.23a.558.558 0 0 0-.039.14v.076a.557.557 0 0 0 0 .09v.014a.56.56 0 0 0 .047.136l.016.03a.55.55 0 0 0 .087.119l.68.691A5.993 5.993 0 0 0 20.895 21c1.6 0 3.134-.645 4.267-1.793l.68-.691a.553.553 0 0 0 .087-.119l.017-.03a.56.56 0 0 0 .046-.136v-.014a.557.557 0 0 0 0-.09v-.04c0-.013.008-.016.008-.027zM8.83 15.074H1.361l3.745-8.745 3.722 8.745zm8.337 2.51l3.723-8.737 3.744 8.734-7.467.003z"></path>
		</symbol>
	
		<symbol id="ic-favorite" viewBox="0 0 28 27">
			<title>Group</title><path d="M0 13.538C0 20.97 6.283 27.038 14.02 27v-1.934c-6.598 0-11.978-5.195-11.978-11.566 0-6.37 5.38-11.566 11.978-11.566 6.597 0 11.977 5.195 11.977 11.566H28C28 6.067 21.756 0 14.02 0 6.283 0 0 6.067 0 13.538z"></path><path d="M10.263 4.663s1.885-2.238 0-3.868c0 0-2.71-2.238-4.713.796C3.547-1.405.838.795.838.795c-1.885 1.668 0 3.868 0 3.868.707 1.251 4.398 4.626 4.752 4.891.432-.417 3.966-3.678 4.673-4.891z"></path>
		</symbol>
	
		<symbol id="ic-like-btn" viewBox="0 -1 18 17">
			<title>like</title><path d="M14.793 6.832l-.77-.638-.055.066-.043.075.867.497zm0-5.668l.66-.75-.009-.008-.009-.008-.643.766zM8 2.331l-.836.55.841 1.278.834-1.283L8 2.33zM1.208 1.164L.57.394.555.406.539.42l.669.743zm0 5.668l.874-.486-.047-.084-.063-.075-.764.645zM8.057 14l-.607.795.689.526.618-.607-.7-.714zm6.736-7.168l.77.637.002-.002.004-.004a.935.935 0 0 0 .041-.052l.101-.134c.076-.104.194-.274.315-.47.23-.374.54-.974.742-1.622.414-1.362.429-3.238-1.315-4.772l-1.32 1.502c.972.856.987 1.814.722 2.689-.139.47-.337.839-.532 1.154a4.746 4.746 0 0 1-.302.437v.001s0-.001 0 0l.001-.001.77.637zm0-5.668l.642-.766-.001-.001-.002-.002a4.604 4.604 0 0 0-.068-.054 7.298 7.298 0 0 0-.726-.485A6.987 6.987 0 0 0 12.672-.9c-.77-.147-1.82-.124-2.773.249-.994.409-1.927 1.19-2.738 2.438L8.84 2.876c.632-.974 1.27-1.45 1.82-1.678.59-.262 1.058-.253 1.626-.136.551.101.978.308 1.351.525a4.381 4.381 0 0 1 .517.346h-.001l-.001-.002c-.001 0-.002 0 .642-.767zm-5.957.618C8.023.547 7.09-.224 6.099-.628 5.147-.999 4.1-1.024 3.332-.88a7.02 7.02 0 0 0-1.963.74 7.293 7.293 0 0 0-.726.476 3.916 3.916 0 0 0-.07.056H.572l.636.772.635.772a.035.035 0 0 0-.001.002h0l.02-.016a4.373 4.373 0 0 1 .495-.323 4.114 4.114 0 0 1 1.353-.515c.569-.115 1.04-.122 1.633.139.553.226 1.19.698 1.821 1.658l1.672-1.1zM.539.42C-1.193 1.979-1.184 3.846-.768 5.207c.203.646.515 1.242.745 1.612a7.489 7.489 0 0 0 .45.638 3.1 3.1 0 0 0 .013.016l.002.002c0 .001.001.002.766-.643.764-.645.764-.644.765-.644v.002h.002l-.002-.001a4.492 4.492 0 0 1-.828-1.566c-.263-.862-.254-1.828.731-2.715L.54.42zM.333 7.318c.315.566.908 1.292 1.557 2.02.664.742 1.46 1.565 2.228 2.329 1.513 1.505 3.016 2.887 3.332 3.128l1.213-1.59c.04.03-.148-.124-.337-.294a51.305 51.305 0 0 1-.73-.668 90.79 90.79 0 0 1-2.067-1.994 54.617 54.617 0 0 1-2.147-2.244c-.651-.729-1.106-1.308-1.3-1.659l-1.749.972zm8.424 7.396c.304-.299 1.739-1.651 3.23-3.157a62.337 62.337 0 0 0 2.157-2.275c.647-.727 1.22-1.441 1.516-1.953l-1.735-.994c-.213.377-.66.927-1.274 1.616a59.437 59.437 0 0 1-2.086 2.199c-1.466 1.481-2.89 2.824-3.209 3.136l1.401 1.428z"></path>
		</symbol>
	
		<symbol id="ic-star" viewBox="0 0 16 16">
			<title>Vector</title><path d="M10.4 5.377L8 0 5.6 5.377 0 6.102l4.107 4.056-1.067 5.823L8 13.135 12.942 16l-1.066-5.823L16 6.102l-5.6-.725z"></path>
		</symbol>
	
		<symbol id="icon filter" viewBox="0 0 18 19">
			<title>icon filter</title><desc>Created using Figma</desc><path d="M0 0l6.653 10.15v7.607h4.694V10.15L18 0H0zm16.268.96l-2.347 3.6a2.985 2.985 0 0 1-1.39-.433 3.85 3.85 0 0 0-2.05-.528 3.85 3.85 0 0 0-2.028.528 2.977 2.977 0 0 1-1.618.432 2.977 2.977 0 0 1-1.617-.432A3.837 3.837 0 0 0 3.463 3.6L1.732.96h14.536zm-5.833 8.879v6.958h-2.87V9.84L4.192 4.703l.593.264a3.852 3.852 0 0 0 2.05.552 3.85 3.85 0 0 0 2.028-.528 2.977 2.977 0 0 1 1.618-.432 2.977 2.977 0 0 1 1.618.432c.385.219.8.372 1.23.456L10.435 9.84z"></path>
		</symbol>
	
		<symbol id="icon-compare" viewBox="0 0 36 29">
			<title>Vector</title><path d="M36 24.94a.767.767 0 0 0-.053-.195l-6.232-14.566a.774.774 0 0 0-.34-.85.748.748 0 0 0-.278-.1l-7.89-1.165a3.099 3.099 0 0 0-.715-1.696 3.032 3.032 0 0 0-1.545-.977V.764a.769.769 0 0 0-.22-.54.749.749 0 0 0-1.066 0 .769.769 0 0 0-.221.54v4.62c-.458.12-.882.347-1.239.662-.356.316-.635.711-.815 1.155L7.124 5.979a.744.744 0 0 0-.617.19.764.764 0 0 0-.246.604L.055 21.282a.77.77 0 0 0-.052.195V21.58a.774.774 0 0 0 0 .126v.019a.769.769 0 0 0 .064.187l.022.042c.033.06.074.115.12.164l.943.955a8.309 8.309 0 0 0 5.908 2.476c2.215 0 4.34-.89 5.907-2.476l.942-.955a.763.763 0 0 0 .121-.164l.023-.038c.029-.06.05-.122.064-.187a.78.78 0 0 0 0-.126v-.054-.05a.767.767 0 0 0-.053-.194L8.25 7.69l6.925 1.023c.062.682.349 1.324.814 1.822a2.981 2.981 0 0 0 3.69.547 3.043 3.043 0 0 0 1.295-1.51l7.004 1.035-6.05 14.127a.772.772 0 0 0-.053.194V25.031a.757.757 0 0 0 0 .126v.02a.768.768 0 0 0 .064.186l.022.043c.033.06.074.115.12.164l.943.954A8.31 8.31 0 0 0 28.932 29a8.31 8.31 0 0 0 5.908-2.476l.941-.954a.766.766 0 0 0 .121-.165l.023-.042c.029-.059.05-.122.064-.187v-.019a.78.78 0 0 0 0-.126v-.053c0-.02.011-.023.011-.038zm-23.775-4.124H1.886L7.071 8.74l5.154 12.076zm11.545 3.467l5.154-12.065 5.185 12.061-10.34.004z"></path>
		</symbol>
	
		<symbol id="icon-map-marker" viewBox="0 0 12 16">
			<title>Vector</title><path d="M5.18 15.803S0 8.85 0 5.696C0 2.541 2.463 0 5.52 0c3.057 0 5.52 2.541 5.52 5.696S5.86 15.803 5.86 15.803c-.198.263-.481.263-.68 0zm.34-7.624c1.16 0 2.123-.993 2.123-2.19 0-1.198-.962-2.192-2.123-2.192-1.16 0-2.123.994-2.123 2.191 0 1.198.962 2.19 2.123 2.19z"></path>
		</symbol>
	
		<symbol id="icon-pb" viewBox="0 0 20 20">
			<path fill-rule="evenodd" d="M19.355 10.323A9.677 9.677 0 1 1 9.677.645v9.678h9.678zM10.323 0A9.678 9.678 0 0 1 20 9.677h-9.677V0zm1.29 1.29c3.666.534 6.077 3.033 7.097 7.097h-7.097V1.29z"></path>
		</symbol>
	
		<symbol id="icon-phone" viewBox="0 0 17 16">
			<title>Vector</title><path d="M10.206 11.286c-.215.018-.412-.089-.61-.196a12.525 12.525 0 0 1-4.428-4.325c-.197-.302-.376-.658-.304-1.014.125-.676.986-.943 1.236-1.584.234-.552-.071-1.175-.43-1.655A7.655 7.655 0 0 0 3.465.5C3.053.25 2.605.038 2.121.002-.05-.104-.174 3.491.113 4.897c.305 1.46 1.04 2.812 1.9 4.04 2.026 2.918 4.805 5.392 8.175 6.567 1.183.41 2.456.659 3.675.374.61-.143 1.183-.41 1.614-.872.43-.445.663-1.086.555-1.691-.107-.623-.538-1.121-.968-1.566a12.764 12.764 0 0 0-2.08-1.709c-.143-.089-.286-.178-.448-.196-.179-.017-.34.072-.502.16-.448.25-.86.552-1.219.89-.161.16-.34.32-.555.356-.018.018-.036.036-.054.036z"></path>
		</symbol>
	
		<symbol id="icon-sale" viewBox="0 0 20 20">
			<path d="M19.7 9.42l-.863-.675a.728.728 0 0 1-.19-.95l.548-.97a.739.739 0 0 0-.443-1.076L17.7 5.454a.753.753 0 0 1-.547-.802l.126-1.097a.735.735 0 0 0-.821-.823l-1.095.106a.737.737 0 0 1-.8-.549l-.295-1.055a.726.726 0 0 0-1.074-.443l-.969.549c-.337.168-.737.105-.968-.19l-.674-.865a.753.753 0 0 0-1.18 0l-.673.865a.725.725 0 0 1-.948.19L6.812.79a.737.737 0 0 0-1.074.443L5.444 2.29a.751.751 0 0 1-.8.549L3.547 2.71a.735.735 0 0 0-.821.823l.126 1.097a.739.739 0 0 1-.547.801l-1.053.296a.728.728 0 0 0-.442 1.076l.547.97c.148.338.084.739-.21.97l-.864.676a.756.756 0 0 0 0 1.181l.864.675c.294.232.379.633.19.95l-.548.97a.739.739 0 0 0 .442 1.076l1.053.296c.358.105.59.443.547.801l-.126 1.097a.735.735 0 0 0 .821.823l1.095-.127a.737.737 0 0 1 .8.549l.295 1.055a.726.726 0 0 0 1.074.443l.969-.549a.725.725 0 0 1 .948.19l.673.865c.295.38.885.38 1.18 0l.695-.844a.725.725 0 0 1 .947-.19l.969.549a.737.737 0 0 0 1.074-.443l.295-1.055a.751.751 0 0 1 .8-.549l1.095.127a.735.735 0 0 0 .821-.823l-.105-1.097a.739.739 0 0 1 .547-.801l1.053-.296a.728.728 0 0 0 .443-1.076l-.548-.97c-.168-.338-.105-.739.19-.97l.863-.676c.4-.295.4-.886 0-1.181zM6.39 10.686c-.716 0-1.284-.232-1.706-.675-.42-.465-.631-1.076-.631-1.836s.21-1.371.631-1.835c.422-.464.99-.675 1.706-.675s1.285.232 1.685.675c.421.464.632 1.076.632 1.835 0 .78-.211 1.393-.632 1.835-.421.444-.99.676-1.685.676zm2.359 3.438a.375.375 0 0 1-.337.211h-1.2c-.169 0-.274-.168-.19-.316l4.233-8.122a.375.375 0 0 1 .336-.211h1.2c.17 0 .275.168.19.316L8.75 14.124zm6.549-.421c-.421.464-.99.675-1.685.675-.695 0-1.284-.232-1.706-.675-.42-.465-.631-1.076-.631-1.836s.21-1.371.631-1.835c.422-.464.99-.675 1.706-.675s1.285.232 1.685.675c.42.464.632 1.076.632 1.835 0 .76-.211 1.371-.632 1.835z"></path>
		</symbol>
	
		<symbol id="icon-user" viewBox="0 0 14 14">
			<title>Vector</title><path d="M9.37 7.571c.832-.785 1.318-1.928 1.318-3.214C10.688 1.93 8.814 0 6.454 0c-2.29 0-4.233 1.929-4.233 4.357 0 .714.208 1.5.555 2.143.07.071.139.214.208.286.208.285.347.5.625.714C1.596 8.571.209 10.643 0 13c0 .286.07.5.278.714A.878.878 0 0 0 .972 14h11.104c.277 0 .486-.143.694-.286.208-.143.277-.428.277-.714-.277-2.357-1.665-4.429-3.678-5.429zm-3.957-1c-.07 0-.139-.071-.208-.142-.278-.215-.555-.429-.694-.715-.07 0-.07-.071-.139-.143-.208-.357-.277-.785-.277-1.214 0-1.357 1.11-2.5 2.429-2.5 1.318 0 2.429 1.143 2.429 2.5s-1.041 2.5-2.43 2.5c-.416 0-.763-.071-1.11-.286zm-3.4 5.572c.555-2 2.36-3.429 4.441-3.429 2.082 0 3.887 1.429 4.442 3.429H2.013z"></path>
		</symbol>
	
		<symbol id="lupa" viewBox="0 0 16 17">
			<title>Vector</title><path d="M13.855 16.93l-3.738-4.05a6.104 6.104 0 0 1-3.567 1.142C2.915 14.022 0 10.893 0 7.029 0 3.13 2.915 0 6.55 0c3.601 0 6.55 3.128 6.55 7.03 0 1.361-.342 2.612-.96 3.68l3.773 4.048c.206.22.034.736-.377 1.14l-.55.59c-.445.441-.925.625-1.13.441zm-2.95-9.9c0-2.577-1.954-4.675-4.355-4.675C4.115 2.32 2.16 4.416 2.16 7.03c0 2.613 1.955 4.674 4.39 4.674 2.401 0 4.356-2.098 4.356-4.674z"></path>
		</symbol>
	
</svg>
