<svg width="242" height="46" viewBox="0 0 242 46" version="1.1" xmlns="http://www.w3.org/2000/svg" xmlns:xlink="http://www.w3.org/1999/xlink">
<title>Logo2</title>
<desc>Created using Figma</desc>
<g id="Canvas" transform="translate(4916 4657)">
<g id="Logo2">
<g id="Vector">
<use xlink:href="#path0_fill" transform="translate(-4822.05 -4651.16)" fill="#0C90C8"/>
</g>
<g id="Vector">
<use xlink:href="#path1_fill" transform="translate(-4844.12 -4651.63)" fill="#0C90C8"/>
</g>
<g id="Vector">
<use xlink:href="#path2_fill" transform="translate(-4867.08 -4651.79)" fill="#0C90C8"/>
</g>
<g id="Vector">
<use xlink:href="#path3_fill" transform="translate(-4802.37 -4652.26)" fill="#0C90C8"/>
</g>
<g id="Group">
<g id="Group">
<g id="Vector">
<use xlink:href="#path4_fill" transform="translate(-4776.13 -4646.73)" fill="#FFFFFF"/>
</g>
<g id="Vector">
<use xlink:href="#path5_fill" transform="translate(-4762.56 -4646.73)" fill="#FFFFFF"/>
</g>
<g id="Vector">
<use xlink:href="#path6_fill" transform="translate(-4749 -4646.73)" fill="#FFFFFF"/>
</g>
<g id="Vector">
<use xlink:href="#path7_fill" transform="translate(-4731.4 -4646.73)" fill="#FFFFFF"/>
</g>
<g id="Vector">
<use xlink:href="#path8_fill" transform="translate(-4718.88 -4646.73)" fill="#FFFFFF"/>
</g>
<g id="Vector">
<use xlink:href="#path9_fill" transform="translate(-4706.06 -4647.2)" fill="#FFFFFF"/>
</g>
<g id="Vector">
<use xlink:href="#path10_fill" transform="translate(-4688.16 -4646.73)" fill="#FFFFFF"/>
</g>
</g>
</g>
<g id="Group">
<g id="Group">
<g id="Vector">
<use xlink:href="#path11_fill" transform="translate(-4863.8 -4621.57)" fill="#FFFFFF"/>
</g>
<g id="Vector">
<use xlink:href="#path12_fill" transform="translate(-4856.2 -4621.57)" fill="#FFFFFF"/>
</g>
<g id="Vector">
<use xlink:href="#path13_fill" transform="translate(-4849.64 -4621.57)" fill="#FFFFFF"/>
</g>
<g id="Vector">
<use xlink:href="#path14_fill" transform="translate(-4844.12 -4621.57)" fill="#FFFFFF"/>
</g>
<g id="Vector">
<use xlink:href="#path15_fill" transform="translate(-4835.77 -4621.73)" fill="#FFFFFF"/>
</g>
<g id="Vector">
<use xlink:href="#path16_fill" transform="translate(-4827.42 -4621.57)" fill="#FFFFFF"/>
</g>
<g id="Vector">
<use xlink:href="#path17_fill" transform="translate(-4820.12 -4621.57)" fill="#FFFFFF"/>
</g>
<g id="Vector">
<use xlink:href="#path18_fill" transform="translate(-4812.66 -4621.57)" fill="#FFFFFF"/>
</g>
<g id="Vector">
<use xlink:href="#path19_fill" transform="translate(-4807.59 -4618.4)" fill="#FFFFFF"/>
</g>
<g id="Vector">
<use xlink:href="#path20_fill" transform="translate(-4803.57 -4621.57)" fill="#FFFFFF"/>
</g>
<g id="Vector">
<use xlink:href="#path21_fill" transform="translate(-4792.23 -4621.89)" fill="#FFFFFF"/>
</g>
<g id="Vector">
<use xlink:href="#path22_fill" transform="translate(-4783.44 -4621.57)" fill="#FFFFFF"/>
</g>
<g id="Vector">
<use xlink:href="#path23_fill" transform="translate(-4779.41 -4621.89)" fill="#FFFFFF"/>
</g>
<g id="Vector">
<use xlink:href="#path24_fill" transform="translate(-4771.06 -4621.57)" fill="#FFFFFF"/>
</g>
<g id="Vector">
<use xlink:href="#path25_fill" transform="translate(-4765.25 -4621.57)" fill="#FFFFFF"/>
</g>
<g id="Vector">
<use xlink:href="#path26_fill" transform="translate(-4757.64 -4621.57)" fill="#FFFFFF"/>
</g>
<g id="Vector">
<use xlink:href="#path27_fill" transform="translate(-4746.76 -4621.73)" fill="#FFFFFF"/>
</g>
<g id="Vector">
<use xlink:href="#path28_fill" transform="translate(-4739.01 -4621.89)" fill="#FFFFFF"/>
</g>
<g id="Vector">
<use xlink:href="#path29_fill" transform="translate(-4730.06 -4621.57)" fill="#FFFFFF"/>
</g>
<g id="Vector">
<use xlink:href="#path30_fill" transform="translate(-4723.5 -4621.57)" fill="#FFFFFF"/>
</g>
<g id="Vector">
<use xlink:href="#path31_fill" transform="translate(-4718.13 -4621.57)" fill="#FFFFFF"/>
</g>
<g id="Vector">
<use xlink:href="#path32_fill" transform="translate(-4710.68 -4621.57)" fill="#FFFFFF"/>
</g>
<g id="Vector">
<use xlink:href="#path33_fill" transform="translate(-4703.82 -4621.57)" fill="#FFFFFF"/>
</g>
<g id="Vector">
<use xlink:href="#path34_fill" transform="translate(-4696.36 -4621.57)" fill="#FFFFFF"/>
</g>
<g id="Vector">
<use xlink:href="#path35_fill" transform="translate(-4688.61 -4621.57)" fill="#FFFFFF"/>
</g>
<g id="Vector">
<use xlink:href="#path36_fill" transform="translate(-4682.5 -4621.57)" fill="#FFFFFF"/>
</g>
</g>
</g>
<g id="Group">
<g id="Vector">
<use xlink:href="#path37_fill" transform="translate(-4916 -4656.54)" fill="#2E2B6C"/>
</g>
<g id="Vector">
<use xlink:href="#path38_fill" transform="translate(-4913.36 -4642.77)" fill="#FFFFFF"/>
</g>
<g id="Vector">
<use xlink:href="#path39_fill" transform="translate(-4886.46 -4648.47)" fill="#438425"/>
</g>
<g id="Vector">
<use xlink:href="#path40_fill" transform="translate(-4885.57 -4641.19)" fill="#386D1B"/>
</g>
<g id="Vector">
<use xlink:href="#path41_fill" transform="translate(-4913.15 -4643.56)" fill="#63AE45"/>
</g>
<g id="Vector">
<use xlink:href="#path42_fill" transform="matrix(0.620653 -0.784087 0.746466 0.665426 -4895.55 -4628.35)" fill="#171544"/>
</g>
<g id="Vector">
<use xlink:href="#path43_fill" transform="translate(-4912.85 -4653.87)" fill="#0C90C8"/>
</g>
<g id="Vector">
<use xlink:href="#path44_fill" transform="translate(-4892.88 -4652.9)" fill="#0A79A0"/>
</g>
</g>
</g>
</g>
<defs>
<path id="path0_fill" d="M 17.2953 13.449C 17.2953 19.3033 14.0151 22.1514 8.64764 22.1514C 3.13104 22.1514 2.27505e-06 19.3033 2.27505e-06 13.449L 2.27505e-06 1.20715e-06L 4.47292 1.20715e-06L 4.47292 13.449C 4.47292 15.8224 5.06931 18.1958 8.64764 18.1958C 11.7787 18.1958 12.8224 16.7717 12.8224 13.449L 12.8224 1.20715e-06L 17.2953 1.20715e-06L 17.2953 13.449Z"/>
<path id="path1_fill" d="M 20.5754 21.5185L 13.1206 21.5185C 12.226 21.8349 11.1823 21.9931 10.2877 21.9931C 4.62202 21.9931 -2.27505e-06 17.0882 -2.27505e-06 11.0757C -2.27505e-06 4.90494 4.62202 -6.03577e-07 10.2877 -6.03577e-07C 16.1025 -6.03577e-07 20.7245 4.90494 20.7245 11.0757C 20.7245 13.7655 19.979 15.506 18.4881 17.0882L 20.7245 17.0882L 20.5754 21.5185ZM 4.02563 11.0757C 4.02563 14.5566 6.85848 17.4046 10.1386 17.4046C 13.5679 17.4046 16.2516 14.5566 16.2516 11.0757C 16.2516 7.43653 13.5679 4.5885 10.1386 4.5885C 6.85848 4.5885 4.02563 7.43653 4.02563 11.0757Z"/>
<path id="path2_fill" d="M 16.4007 0.316448L 16.4007 2.21514C 14.7606 0.949345 12.5242 -1.20715e-06 10.2877 -1.20715e-06C 4.62202 -1.20715e-06 1.13752e-06 4.90494 1.13752e-06 10.9175C 1.13752e-06 16.93 4.62202 21.8349 10.2877 21.8349C 11.1823 21.8349 13.1206 21.5185 14.0152 21.202C 14.9097 20.8856 15.6552 20.4109 16.4007 19.778L 16.4007 21.8349L 21.0227 21.8349L 21.0227 0.158223L 16.4007 0.158223L 16.4007 0.316448ZM 10.2877 17.4046C 7.00757 17.4046 4.17473 14.5566 4.17473 11.0757C 4.17473 7.43653 6.85848 4.74672 10.2877 4.74672C 13.717 4.74672 16.2516 7.59475 16.2516 11.0757C 16.4007 14.5566 13.717 17.4046 10.2877 17.4046Z"/>
<path id="path3_fill" d="M 16.4007 0.158225L 16.4007 2.37336C 14.6115 1.10757 12.5242 0.158225 10.2877 0.158225C 4.62202 0.158225 -2.27505e-06 5.06317 -2.27505e-06 11.2339C -2.27505e-06 17.2464 4.62202 22.1514 10.2877 22.1514C 11.1823 22.1514 13.1206 21.8349 14.0152 21.5185C 14.9097 21.202 15.6552 20.7273 16.4007 20.0944L 16.4007 22.1514L 21.0227 22.1514L 21.0227 0L 16.4007 0L 16.4007 0.158225ZM 10.2877 17.5629C 7.00758 17.5629 4.17473 14.7148 4.17473 11.2339C 4.17473 7.59475 7.00758 4.74672 10.2877 4.74672C 13.717 4.74672 16.4007 7.59475 16.4007 11.2339C 16.2516 14.7148 13.5679 17.5629 10.2877 17.5629Z"/>
<path id="path4_fill" d="M -4.55009e-06 0L 2.98194 0L 2.98194 5.69606L 7.30577 0L 10.8841 0L 5.36751 7.43653L 11.3314 16.6135L 7.90216 16.6135L 3.13105 9.17699L 3.13105 16.6135L 0.149102 16.6135L 0.149102 0L -4.55009e-06 0Z"/>
<path id="path5_fill" d="M 4.55009e-06 0L 2.98195 0L 2.98195 6.32896L 8.20036 6.32896L 8.20036 0L 11.1823 0L 11.1823 16.6135L 8.20036 16.6135L 8.20036 9.33522L 2.98195 9.33522L 2.98195 16.6135L 4.55009e-06 16.6135L 4.55009e-06 0Z"/>
<path id="path6_fill" d="M 6.11299 0L 9.09494 0L 15.0588 16.6135L 12.0769 16.6135L 10.8841 13.1326L 4.47292 13.1326L 3.13104 16.6135L 2.27505e-06 16.6135L 6.11299 0ZM 7.60397 4.43027L 5.5166 10.1263L 9.69132 10.1263L 7.60397 4.43027Z"/>
<path id="path7_fill" d="M -4.55009e-06 0L 3.13105 0C 4.92022 0 6.113 0.158223 6.85848 0.474671C 7.60397 0.791119 8.20035 1.42401 8.64765 2.05691C 9.09494 2.68981 9.39313 3.79738 9.39313 4.74672C 9.39313 5.85429 9.09494 6.80363 8.64765 7.43653C 8.20035 8.22765 7.45487 8.70232 6.41119 9.17699L 10.1386 16.6135L 6.85848 16.6135L 3.28013 9.49344L 2.98194 9.49344L 2.98194 16.6135L -4.55009e-06 16.6135L -4.55009e-06 0ZM 2.98194 6.48718L 3.87654 6.48718C 4.77112 6.48718 5.51661 6.32896 5.81481 6.01251C 6.113 5.69606 6.41119 5.37962 6.41119 4.74672C 6.41119 4.43027 6.26209 4.11382 6.113 3.79738C 5.9639 3.48093 5.6657 3.3227 5.36751 3.16448C 5.06931 3.00626 4.47292 3.00626 3.72743 3.00626L 2.98194 3.00626L 2.98194 6.48718Z"/>
<path id="path8_fill" d="M 9.10018e-06 0L 2.98196 0L 2.98196 5.69606L 7.30577 0L 10.8841 0L 5.3675 7.43653L 11.3314 16.6135L 7.75307 16.6135L 2.98196 9.17699L 2.98196 16.6135L 9.10018e-06 16.6135L 9.10018e-06 0Z"/>
<path id="path9_fill" d="M 8.20035 1.20715e-06C 10.4368 1.20715e-06 12.3751 0.791119 13.8661 2.53158C 15.5061 4.27205 16.2516 6.32896 16.2516 8.70232C 16.2516 11.0757 15.5061 13.1326 13.8661 14.8731C 12.226 16.6135 10.4368 17.4046 8.20035 17.4046C 5.81479 17.4046 3.87654 16.6135 2.38556 14.8731C 0.894589 13.1326 -4.55009e-06 11.0757 -4.55009e-06 8.70232C -4.55009e-06 7.12008 0.298186 5.69606 1.04367 4.27205C 1.78916 3.00626 2.83284 1.89869 4.02562 1.10757C 5.3675 0.474672 6.70938 1.20715e-06 8.20035 1.20715e-06ZM 8.05127 3.16448C 6.56029 3.16448 5.36751 3.63915 4.32383 4.74672C 3.28015 5.85429 2.83286 7.12008 2.83286 8.86055C 2.83286 10.7592 3.42923 12.1833 4.77111 13.2908C 5.66569 14.0819 6.85849 14.5566 8.05127 14.5566C 9.54224 14.5566 10.735 14.0819 11.6296 12.9744C 12.6733 11.8668 13.1206 10.601 13.1206 9.01877C 13.1206 7.43653 12.6733 6.17074 11.6296 5.06317C 10.5859 3.9556 9.54224 3.16448 8.05127 3.16448Z"/>
<path id="path10_fill" d="M -4.55009e-06 0L 3.13105 0L 7.00757 11.8668L 11.0332 0L 14.1642 0L 8.49854 16.6135L 5.6657 16.6135L -4.55009e-06 0Z"/>
<path id="path11_fill" d="M 0.894584 2.41431e-06L 0.894584 5.22139L 5.8148 2.41431e-06L 5.8148 6.96185L 4.92021 6.96185L 4.92021 1.74046L 0.149097 7.12008L 2.27505e-06 7.12008L 2.27505e-06 0.158224L 0.894584 0.158224L 0.894584 2.41431e-06Z"/>
<path id="path12_fill" d="M 4.77112 3.63915L 0.894582 3.63915L 0.894582 6.96185L 0 6.96185L 0 2.41431e-06L 0.894582 2.41431e-06L 0.894582 2.84803L 4.77112 2.84803L 4.77112 2.41431e-06L 5.6657 2.41431e-06L 5.6657 6.96185L 4.77112 6.96185L 4.77112 3.63915Z"/>
<path id="path13_fill" d="M 0.149097 2.41431e-06L 4.47292 2.41431e-06L 4.47292 0.791122L 2.68375 0.791122L 2.68375 6.96185L 1.78917 6.96185L 1.78917 0.791122L 2.27505e-06 0.791122L 2.27505e-06 2.41431e-06L 0.149097 2.41431e-06Z"/>
<path id="path14_fill" d="M 5.8148 4.74672L 6.56028 5.22139C 6.26209 5.69607 6.11299 6.17074 5.8148 6.48718C 5.5166 6.80363 5.21841 6.96186 4.77111 7.12008C 4.32382 7.27831 3.87653 7.2783 3.42924 7.2783C 2.38556 7.2783 1.49097 6.96186 0.894585 6.17074C 0.298196 5.37962 -2.27505e-06 4.5885 -2.27505e-06 3.63915C -2.27505e-06 2.68981 0.298192 1.89869 0.745485 1.26579C 1.34187 0.316449 2.23646 2.41431e-06 3.42924 2.41431e-06C 4.62202 2.41431e-06 5.5166 0.474671 6.11299 1.42401C 6.56028 2.05691 6.85847 2.84803 6.85847 3.79737L 0.894585 3.79737C 0.894585 4.5885 1.19278 5.22139 1.64007 5.85429C 2.08736 6.48718 2.68375 6.64541 3.42924 6.64541C 3.72744 6.64541 4.02563 6.64541 4.47292 6.48718C 4.77111 6.32896 5.06931 6.17074 5.21841 6.01251C 5.21841 5.53784 5.5166 5.2214 5.8148 4.74672ZM 5.8148 2.84803C 5.6657 2.37336 5.5166 2.05691 5.36751 1.74046C 5.21841 1.42402 4.92021 1.26579 4.47292 1.10757C 4.17472 0.949342 3.72743 0.791123 3.28014 0.791123C 2.68375 0.791123 2.08736 0.949343 1.64007 1.42401C 1.34188 1.74046 1.04368 2.21514 0.894585 2.84803L 5.8148 2.84803Z"/>
<path id="path15_fill" d="M -4.55009e-06 0.158226L 0.894589 0.158226L 0.894589 1.42402C 1.19278 0.949345 1.64007 0.632896 2.08736 0.316448C 2.53465 0 2.98194 -1.20715e-06 3.57833 -1.20715e-06C 4.47292 -1.20715e-06 5.3675 0.316448 5.96389 1.10757C 6.56028 1.89869 7.00758 2.68981 7.00758 3.63915C 7.00758 4.74672 6.70938 5.53784 5.96389 6.32896C 5.3675 7.12008 4.47292 7.43653 3.57833 7.43653C 2.98194 7.43653 2.53465 7.2783 2.08736 7.12008C 1.64007 6.96186 1.19278 6.48718 0.894589 6.01251L 0.894589 9.80989L -4.55009e-06 9.80989L -4.55009e-06 0.158226ZM 3.42924 0.949347C 2.68375 0.949347 2.08737 1.26579 1.64008 1.74047C 1.19278 2.21514 0.894589 3.00626 0.894589 3.79738C 0.894589 4.27205 1.04368 4.74672 1.19278 5.22139C 1.49097 5.69606 1.78917 6.01252 2.08736 6.17074C 2.53465 6.48719 2.98195 6.48719 3.42924 6.48719C 3.87653 6.48719 4.32382 6.32896 4.77112 6.17074C 5.21841 5.85429 5.5166 5.53784 5.6657 5.06317C 5.8148 4.5885 5.96389 4.11382 5.96389 3.63915C 5.96389 3.16448 5.8148 2.68981 5.6657 2.21514C 5.5166 1.74047 5.06931 1.42402 4.77112 1.10757C 4.47292 0.79112 3.87653 0.949347 3.42924 0.949347Z"/>
<path id="path16_fill" d="M 4.77112 3.63915L 0.894586 3.63915L 0.894586 6.96185L 4.55009e-06 6.96185L 4.55009e-06 2.41431e-06L 0.894586 2.41431e-06L 0.894586 2.84803L 4.77112 2.84803L 4.77112 2.41431e-06L 5.6657 2.41431e-06L 5.6657 6.96185L 4.77112 6.96185L 4.77112 3.63915Z"/>
<path id="path17_fill" d="M 5.8148 4.74672L 6.56028 5.22139C 6.26209 5.69607 6.11299 6.17074 5.8148 6.48718C 5.5166 6.80363 5.21841 6.96186 4.77112 7.12008C 4.32383 7.27831 3.87653 7.2783 3.42924 7.2783C 2.38556 7.2783 1.49098 6.96186 0.894589 6.17074C 0.298199 5.37962 -4.55009e-06 4.5885 -4.55009e-06 3.63915C -4.55009e-06 2.68981 0.29819 1.89869 0.745482 1.26579C 1.34187 0.316449 2.23646 2.41431e-06 3.42924 2.41431e-06C 4.62202 2.41431e-06 5.51661 0.474671 6.113 1.42401C 6.56029 2.05691 6.85848 2.84803 6.85848 3.79737L 0.894589 3.79737C 0.894589 4.5885 1.19278 5.22139 1.64008 5.85429C 2.08737 6.48718 2.68375 6.64541 3.42924 6.64541C 3.72743 6.64541 4.02562 6.64541 4.47292 6.48718C 4.77111 6.32896 5.06931 6.17074 5.2184 6.01251C 5.3675 5.53784 5.5166 5.2214 5.8148 4.74672ZM 5.8148 2.84803C 5.6657 2.37336 5.51661 2.05691 5.36751 1.74046C 5.21841 1.42402 4.92021 1.26579 4.47292 1.10757C 4.17472 0.949342 3.72744 0.791123 3.28014 0.791123C 2.68375 0.791123 2.08737 0.949343 1.64008 1.42401C 1.34188 1.74046 1.04369 2.21514 0.894589 2.84803L 5.8148 2.84803Z"/>
<path id="path18_fill" d="M 0.149102 2.41431e-06L 4.47292 2.41431e-06L 4.47292 0.791122L 2.68375 0.791122L 2.68375 6.96185L 1.78917 6.96185L 1.78917 0.791122L -4.55009e-06 0.791122L -4.55009e-06 2.41431e-06L 0.149102 2.41431e-06Z"/>
<path id="path19_fill" d="M -2.27505e-06 2.41431e-06L 3.28015 2.41431e-06L 3.28015 0.791122L -2.27505e-06 0.791122L -2.27505e-06 2.41431e-06Z"/>
<path id="path20_fill" d="M 7.90216 2.41431e-06L 8.20036 2.41431e-06L 10.4368 6.96185L 9.54223 6.96185L 7.90216 1.74046L 5.36751 6.96185L 5.21841 6.96185L 2.53466 1.89869L 0.894587 7.12008L 4.55009e-06 7.12008L 2.23647 0.158224L 2.53466 0.158224L 5.21841 5.69606L 7.90216 2.41431e-06Z"/>
<path id="path21_fill" d="M 6.85848 0.31645L 6.85848 7.2783L 6.11299 7.2783L 6.11299 6.01251C 5.8148 6.48719 5.3675 6.80363 4.92021 7.12008C 4.47292 7.27831 4.02562 7.43653 3.42923 7.43653C 2.53465 7.43653 1.64007 7.12008 1.04368 6.32896C 0.44729 5.53784 2.27505e-06 4.74672 2.27505e-06 3.63915C 2.27505e-06 2.68981 0.298192 1.74047 1.04368 1.10757C 1.78917 0.474674 2.53465 1.20715e-06 3.42923 1.20715e-06C 4.02562 1.20715e-06 4.47292 0.158226 4.92021 0.31645C 5.3675 0.632899 5.8148 0.949342 6.11299 1.42401L 6.11299 0.158223L 6.85848 0.158223L 6.85848 0.31645ZM 3.42923 1.10757C 2.98194 1.10757 2.53466 1.26579 2.08737 1.42401C 1.64008 1.74046 1.34187 2.05691 1.19277 2.53158C 0.89458 3.00626 0.894584 3.48093 0.894584 3.9556C 0.894584 4.43027 1.04368 4.90494 1.19277 5.37961C 1.34187 5.85429 1.78917 6.17074 2.08737 6.48718C 2.53466 6.80363 2.98194 6.80363 3.42923 6.80363C 3.87653 6.80363 4.32382 6.64541 4.77111 6.48718C 5.21841 6.17074 5.5166 5.85429 5.6657 5.53784C 5.96389 5.06317 5.9639 4.5885 5.9639 4.11382C 5.9639 3.3227 5.6657 2.68981 5.21841 2.05691C 4.77112 1.42402 4.17472 1.10757 3.42923 1.10757Z"/>
<path id="path22_fill" d="M 0.894587 0.791122L 0.894587 6.96185L 4.55009e-06 6.96185L 4.55009e-06 2.41431e-06L 3.28014 2.41431e-06L 3.28014 0.791122L 0.894587 0.791122Z"/>
<path id="path23_fill" d="M 7.00757 0.31645L 7.00757 7.2783L 6.11299 7.2783L 6.11299 6.01251C 5.81479 6.48719 5.36751 6.80363 4.92022 7.12008C 4.47292 7.27831 4.02563 7.43653 3.42924 7.43653C 2.53466 7.43653 1.64007 7.12008 1.04368 6.32896C 0.447287 5.53784 -2.1188e-14 4.74672 -2.1188e-14 3.63915C -2.1188e-14 2.68981 0.29819 1.74047 1.04368 1.10757C 1.78916 0.474674 2.53466 1.20715e-06 3.42924 1.20715e-06C 4.02563 1.20715e-06 4.47292 0.158226 4.92022 0.31645C 5.36751 0.632899 5.81479 0.949342 6.11299 1.42401L 6.11299 0.158223L 7.00757 0.158223L 7.00757 0.31645ZM 3.72743 1.10757C 3.28014 1.10757 2.83285 1.26579 2.38556 1.42401C 1.93826 1.74046 1.64007 2.05691 1.49097 2.53158C 1.19278 3.00626 1.19278 3.48093 1.19278 3.9556C 1.19278 4.43027 1.34188 4.90494 1.49097 5.37961C 1.64007 5.85429 2.08736 6.17074 2.38556 6.48718C 2.83285 6.80363 3.28014 6.80363 3.72743 6.80363C 4.17473 6.80363 4.62202 6.64541 5.06931 6.48718C 5.5166 6.17074 5.8148 5.85429 5.96389 5.53784C 6.26209 5.06317 6.26208 4.5885 6.26208 4.11382C 6.26208 3.3227 5.96389 2.68981 5.5166 2.05691C 5.0693 1.42402 4.32382 1.10757 3.72743 1.10757Z"/>
<path id="path24_fill" d="M 1.78917 3.00626L 2.23646 3.00626C 2.53465 3.00626 2.83285 2.84803 2.98195 2.68981C 3.28014 2.53158 3.28015 2.21513 3.28015 1.89869C 3.28015 1.58224 3.13104 1.26579 2.98195 1.10757C 2.83285 0.949342 2.53466 0.791123 2.08736 0.791123C 1.64007 0.791123 1.19278 0.949343 0.745485 1.42402L 0.298199 0.791123C 0.894589 0.31645 1.49097 2.41431e-06 2.23646 2.41431e-06C 2.83285 2.41431e-06 3.28014 0.158225 3.57834 0.474673C 4.02563 0.791121 4.17473 1.26579 4.17473 1.89869C 4.17473 2.68981 3.87654 3.16448 3.28015 3.3227C 4.02563 3.63915 4.47292 4.27205 4.47292 5.22139C 4.47292 5.85429 4.32382 6.32896 3.87653 6.80363C 3.57833 7.27831 2.98195 7.43653 2.23646 7.43653C 1.34187 7.43653 0.596387 7.12008 -2.27505e-06 6.48718L 0.59639 5.85429C 1.04368 6.32896 1.49097 6.64541 2.23646 6.64541C 2.68375 6.64541 2.98195 6.48719 3.28015 6.32896C 3.57834 6.01252 3.57834 5.69606 3.57834 5.37962C 3.57834 5.06317 3.42924 4.74672 3.28015 4.43027C 3.13105 4.11383 2.68375 4.11382 2.38555 4.11382L 1.78917 4.11382L 1.78917 3.00626Z"/>
<path id="path25_fill" d="M 0.894582 2.41431e-06L 0.894582 5.22139L 5.8148 2.41431e-06L 5.8148 6.96185L 4.92022 6.96185L 4.92022 1.74046L 0.149095 6.96185L 0 6.96185L 0 2.41431e-06L 0.894582 2.41431e-06Z"/>
<path id="path26_fill" d="M 4.77112 3.63915L 0.89458 3.63915L 0.89458 6.96185L -2.27505e-06 6.96185L -2.27505e-06 2.41431e-06L 0.89458 2.41431e-06L 0.89458 2.84803L 4.77112 2.84803L 4.77112 2.41431e-06L 5.6657 2.41431e-06L 5.6657 6.96185L 4.77112 6.96185L 4.77112 3.63915Z"/>
<path id="path27_fill" d="M 6.56029 1.74047L 5.8148 2.21514C 5.21841 1.42402 4.47292 0.949347 3.42923 0.949347C 2.68375 0.949347 1.93827 1.26579 1.49098 1.74047C 1.04368 2.21514 0.745489 3.00626 0.745489 3.79738C 0.745489 4.27205 0.894582 4.74672 1.04368 5.22139C 1.19278 5.69606 1.64008 6.01251 2.08737 6.32896C 2.53466 6.64541 2.98195 6.64541 3.57834 6.64541C 4.62202 6.64541 5.3675 6.17074 5.96389 5.37962L 6.70937 5.85429C 6.41118 6.32896 5.96389 6.80363 5.36751 6.96186C 4.77112 7.27831 4.17473 7.43653 3.57834 7.43653C 2.53466 7.43653 1.64007 7.12008 1.04368 6.32896C 0.298193 5.69606 2.27505e-06 4.74672 2.27505e-06 3.79738C 2.27505e-06 3.16448 0.149093 2.53158 0.447288 1.89869C 0.745482 1.26579 1.19278 0.791118 1.78917 0.47467C 2.38556 0.158222 2.98195 -1.20715e-06 3.72744 -1.20715e-06C 4.17473 -1.20715e-06 4.62201 2.41666e-06 4.92021 0.158226C 5.3675 0.31645 5.66569 0.474671 5.96389 0.791119C 6.11298 1.10757 6.41119 1.26579 6.56029 1.74047Z"/>
<path id="path28_fill" d="M 7.00758 0.31645L 7.00758 7.2783L 6.11299 7.2783L 6.11299 6.01251C 5.81479 6.48719 5.3675 6.80363 4.9202 7.12008C 4.47291 7.27831 4.02562 7.43653 3.42923 7.43653C 2.53465 7.43653 1.64008 7.12008 1.04369 6.32896C 0.447297 5.53784 9.10018e-06 4.74672 9.10018e-06 3.63915C 9.10018e-06 2.68981 0.298199 1.74047 1.04369 1.10757C 1.78917 0.474674 2.53465 1.20715e-06 3.42923 1.20715e-06C 4.02562 1.20715e-06 4.47291 0.158226 4.9202 0.31645C 5.3675 0.632899 5.81479 0.949342 6.11299 1.42401L 6.11299 0.158223L 7.00758 0.158223L 7.00758 0.31645ZM 3.57834 1.10757C 3.13104 1.10757 2.68376 1.26579 2.23647 1.42401C 1.78918 1.74046 1.49097 2.05691 1.34188 2.53158C 1.04368 3.00626 1.04369 3.48093 1.04369 3.9556C 1.04369 4.43027 1.19278 4.90494 1.34188 5.37961C 1.49097 5.85429 1.93827 6.17074 2.23647 6.48718C 2.68376 6.80363 3.13104 6.80363 3.57834 6.80363C 4.02563 6.80363 4.47291 6.64541 4.9202 6.48718C 5.3675 6.17074 5.6657 5.85429 5.8148 5.53784C 6.11299 5.06317 6.11299 4.5885 6.11299 4.11382C 6.11299 3.3227 5.81479 2.68981 5.3675 2.05691C 5.0693 1.42402 4.32382 1.10757 3.57834 1.10757Z"/>
<path id="path29_fill" d="M 4.77112 3.63915L 0.89458 3.63915L 0.89458 6.96185L 9.10018e-06 6.96185L 9.10018e-06 2.41431e-06L 0.89458 2.41431e-06L 0.89458 2.84803L 4.77112 2.84803L 4.77112 2.41431e-06L 5.66569 2.41431e-06L 5.66569 6.96185L 4.77112 6.96185L 4.77112 3.63915Z"/>
<path id="path30_fill" d="M 0.149106 2.41431e-06L 4.47292 2.41431e-06L 4.47292 0.791122L 2.68376 0.791122L 2.68376 6.96185L 1.78916 6.96185L 1.78916 0.791122L -4.2376e-14 0.791122L -4.2376e-14 2.41431e-06L 0.149106 2.41431e-06Z"/>
<path id="path31_fill" d="M 5.8148 4.74672L 6.56028 5.22139C 6.26209 5.69607 6.11299 6.17074 5.8148 6.48718C 5.5166 6.80363 5.21841 6.96186 4.77112 7.12008C 4.32383 7.27831 3.87652 7.2783 3.42923 7.2783C 2.38555 7.2783 1.49097 6.96186 0.89458 6.17074C 0.29819 5.37962 9.10018e-06 4.5885 9.10018e-06 3.63915C 9.10018e-06 2.68981 0.298204 1.89869 0.745496 1.26579C 1.34189 0.316449 2.23645 2.41431e-06 3.42923 2.41431e-06C 4.62201 2.41431e-06 5.5166 0.474671 6.11299 1.42401C 6.56028 2.05691 6.85847 2.84803 6.85847 3.79737L 0.89458 3.79737C 0.89458 4.5885 1.19277 5.22139 1.64007 5.85429C 2.08736 6.32896 2.68374 6.64541 3.42923 6.64541C 3.72743 6.64541 4.02564 6.64541 4.47293 6.48718C 4.77112 6.32896 5.06932 6.17074 5.21842 6.01251C 5.36751 5.85429 5.6657 5.2214 5.8148 4.74672ZM 5.8148 2.84803C 5.6657 2.37336 5.5166 2.05691 5.3675 1.74046C 5.2184 1.42402 4.92022 1.26579 4.47293 1.10757C 4.17474 0.949342 3.72744 0.791123 3.28015 0.791123C 2.68376 0.791123 2.08736 0.949343 1.64007 1.42401C 1.34187 1.74046 1.04368 2.21514 0.89458 2.84803L 5.8148 2.84803Z"/>
<path id="path32_fill" d="M 0.149093 2.41431e-06L 1.19277 2.41431e-06L 2.98196 2.53158L 4.77112 2.41431e-06L 5.8148 2.41431e-06L 3.57834 3.3227L 6.11299 6.96185L 5.06931 6.96185L 2.98196 3.9556L 1.04369 6.96185L 9.10018e-06 6.96185L 2.53466 3.3227L 0.149093 2.41431e-06Z"/>
<path id="path33_fill" d="M 4.77111 3.63915L 0.894589 3.63915L 0.894589 6.96185L -4.55009e-06 6.96185L -4.55009e-06 2.41431e-06L 0.894589 2.41431e-06L 0.894589 2.84803L 4.77111 2.84803L 4.77111 2.41431e-06L 5.6657 2.41431e-06L 5.6657 6.96185L 4.77111 6.96185L 4.77111 3.63915Z"/>
<path id="path34_fill" d="M 0.894589 2.41431e-06L 0.894589 5.22139L 5.81481 2.41431e-06L 5.81481 6.96185L 4.92021 6.96185L 4.92021 1.74046L 0.149102 6.96185L -4.55009e-06 6.96185L -4.55009e-06 2.41431e-06L 0.894589 2.41431e-06Z"/>
<path id="path35_fill" d="M -9.10018e-06 2.41431e-06L 0.894584 2.41431e-06L 0.894584 3.00625L 4.02564 2.41431e-06L 5.2184 2.41431e-06L 1.78918 3.16448L 5.36751 6.96185L 4.17472 6.96185L 1.19277 3.63915L 0.894584 3.9556L 0.894584 6.96185L -9.10018e-06 6.96185L -9.10018e-06 2.41431e-06Z"/>
<path id="path36_fill" d="M 0.894593 2.41431e-06L 0.894593 5.22139L 5.81479 2.41431e-06L 5.81479 6.96185L 4.92022 6.96185L 4.92022 1.74046L 0.149106 6.96185L -4.2376e-14 6.96185L -4.2376e-14 2.41431e-06L 0.894593 2.41431e-06Z"/>
<path id="path37_fill" d="M 42.6567 39.5629C 42.5076 39.0882 42.2094 38.7718 41.7621 38.6136C 40.7185 37.9807 39.8239 37.3478 38.9293 36.5567C 37.1401 35.1326 38.0347 35.1326 38.482 34.3415C 40.7185 30.7024 41.9112 26.4303 41.9112 21.6836C 41.613 9.81679 32.5181 0.165129 21.3358 0.00690482C 9.25892 -0.309543 -0.432408 10.2915 0.0148838 23.1076C 0.462176 34.4997 8.51343 42.2527 19.0993 44.1514C 20.143 44.3096 22.0813 44.3096 23.125 44.1514C 24.1687 43.9932 25.0632 43.835 26.1069 43.835C 28.4925 43.6767 30.5798 44.9425 32.8163 44.9425C 35.0528 44.9425 36.8419 44.6261 38.9293 43.835C 40.1221 43.2021 43.104 41.3034 42.6567 39.5629Z"/>
<path id="path38_fill" d="M 18.5466 27.6892C 16.012 27.531 13.4773 26.8981 11.2409 25.7905C 9.00441 24.6829 7.06615 23.2589 5.27698 21.3602C 3.18962 19.1451 1.69864 16.4553 0.65496 13.6073C 0.0585705 11.7086 -0.388722 9.49344 0.505862 7.59475C 0.804057 6.80363 1.40045 6.01251 1.84774 5.22139C 3.18961 3.48093 4.68059 1.74046 6.61885 0.79112C 7.21524 0.474672 7.96073 0 8.55712 0C 10.3463 0 8.40802 4.90494 9.4517 6.17074C 12.4337 9.65166 13.7755 13.2908 16.3102 17.0882C 16.6084 17.4046 18.9939 21.202 20.0376 22.3096C 21.3795 24.05 22.8705 25.4741 24.8087 26.7399C 25.256 27.0563 26.8961 27.8474 27.3434 27.6892C 25.8524 27.8474 20.0376 27.8474 18.5466 27.6892Z"/>
<path id="path39_fill" d="M 8.94584 9.01877C 6.70938 11.7086 2.08736 12.025 1.13752e-06 11.3921C 0.894585 11.7086 2.83285 7.43653 3.13104 6.80363C 3.87653 5.22139 3.72743 3.48093 3.57833 1.74046C 3.57833 1.10757 3.42924 0.632896 3.28014 -6.03577e-07C 7.75306 2.37336 9.09494 8.86055 8.94584 9.01877Z"/>
<path id="path40_fill" d="M 7.75306 0C 7.90216 0.474672 8.20035 1.26579 8.20035 1.74047C 8.20035 1.89869 8.20036 2.05691 8.05126 2.21514C 8.05126 2.37336 7.90216 2.37336 7.75306 2.53159C 6.85848 3.00626 5.8148 4.11382 4.92021 4.5885C 4.02563 5.06317 2.98195 4.90495 2.08736 4.74672C 1.34188 4.74672 0.745486 4.43027 -1.13752e-06 4.27205C 1.64007 4.90495 7.60397 1.42402 7.75306 0Z"/>
<path id="path41_fill" d="M 35.7834 27.3728C 32.9505 30.2208 28.6267 29.2714 25.1975 28.0057C 19.5318 25.9487 14.1642 22.1514 11.6296 16.7717C 11.1823 15.9806 10.8841 15.1895 10.4368 14.2402C 8.94584 11.0757 7.15667 1.74046 2.83285 4.90495C 1.64007 5.85429 0.59639 7.27831 2.84381e-07 8.5441C 0.745487 5.06317 5.8148 0.158224 10.735 1.12425e-14C 12.3751 1.12425e-14 14.0152 0.158224 15.5061 0.79112C 16.5498 1.26579 17.5935 1.89869 18.4881 2.37336C 19.6809 3.16448 20.8736 3.9556 22.2155 4.5885C 25.1975 6.01251 28.7758 6.80363 32.0559 5.85429C 32.3541 5.69607 32.6523 5.69606 32.9505 5.53784C 33.9942 5.06317 34.8888 4.5885 35.4852 3.63915C 35.9325 5.06317 36.0816 6.64541 36.2307 8.22765C 36.3798 13.1326 34.8888 17.5629 32.205 21.202C 31.6086 21.9931 31.6086 22.9425 32.9505 24.2083C 33.8451 24.8412 36.3798 26.7399 35.7834 27.3728Z"/>
<path id="path42_fill" d="M 1.54514 4.2823C 2.39849 4.2823 3.09027 3.32367 3.09027 2.14115C 3.09027 0.958624 2.39849 2.33367e-06 1.54514 2.33367e-06C 0.69178 2.33367e-06 0 0.958624 0 2.14115C 0 3.32367 0.69178 4.2823 1.54514 4.2823Z"/>
<path id="path43_fill" d="M 18.1899 0.0231359C 20.8736 -0.135088 23.7065 0.497809 25.4957 2.55472C 26.9866 4.13696 27.4339 6.66854 26.9866 8.72546C 26.6884 10.4659 25.3466 14.1051 23.2592 13.314C 21.6191 12.8393 20.4263 11.4153 18.9354 10.6241C 16.2516 9.04191 13.2697 8.25079 10.1386 8.09256C 7.15667 8.09256 4.47292 9.6748 2.23646 11.5735C 1.64007 12.0482 1.19278 12.5228 0.596389 12.9975C 0.447292 13.1557 0.149097 13.314 -5.297e-15 13.6304C 0.447292 13.1557 0.447292 12.3646 0.596389 11.8899C 2.53465 6.03565 8.05126 1.92182 13.5679 0.497807C 15.2079 0.339583 16.6989 0.18136 18.1899 0.0231359Z"/>
<path id="path44_fill" d="M 5.6657 1.58224C 5.21841 0.949345 3.87653 0.316449 3.57834 6.03577e-07C 4.17472 0.474673 4.47292 0.632895 4.77112 1.10757C 5.36751 1.89869 5.96389 3.00626 6.26209 4.11383C 6.85848 6.17074 6.41119 8.86054 5.21841 10.601C 4.92021 11.0757 4.32382 11.5504 3.72743 11.7086C 3.13104 11.8668 2.53466 11.5504 1.93827 11.2339C 1.19278 10.9175 0.596389 10.601 -5.68761e-07 10.1263C 1.04368 10.9175 2.08736 11.7086 3.28014 12.1832C 5.5166 12.9744 6.85848 9.33522 7.00757 7.59475C 7.60396 4.27205 6.56028 2.84803 5.6657 1.58224Z"/>
</defs>
</svg>
